<?xml version="1.0" encoding="utf-8"?>
<!-- Generator: Adobe Illustrator 24.0.2, SVG Export Plug-In . SVG Version: 6.00 Build 0)  -->
<svg version="1.1" id="Layer_1" xmlns="http://www.w3.org/2000/svg" xmlns:xlink="http://www.w3.org/1999/xlink" x="0px" y="0px"
	 viewBox="0 0 2290.884 2020.845" style="enable-background:new 0 0 2290.884 2020.845;" xml:space="preserve">
<style type="text/css">
	.st0{fill:url(#SVGID_1_);}
	.st1{fill:#E8ECF7;}
	.st2{fill:#FFFFFF;}
	.st3{fill:url(#SVGID_2_);}
	.st4{fill:#BBC0E6;}
	.st5{fill:url(#SVGID_3_);}
	.st6{fill:url(#SVGID_4_);}
	.st7{fill:url(#SVGID_5_);}
	.st8{fill:url(#SVGID_6_);}
	.st9{fill:url(#SVGID_7_);}
	.st10{fill:url(#SVGID_8_);}
	.st11{fill:url(#SVGID_9_);}
	.st12{fill:url(#SVGID_10_);}
	.st13{fill:#423EAF;}
	.st14{fill:#807DFB;}
	.st15{fill:url(#SVGID_11_);}
	.st16{fill:url(#SVGID_12_);}
	.st17{fill:url(#SVGID_13_);}
	.st18{fill:url(#SVGID_14_);}
	.st19{fill:#DAE0F5;}
	.st20{fill:url(#SVGID_15_);}
	.st21{fill:#F6F6FB;}
	.st22{fill:#CED3F8;}
	.st23{fill:url(#SVGID_16_);}
	.st24{fill:url(#SVGID_17_);}
	.st25{fill:url(#SVGID_18_);}
	.st26{fill:url(#SVGID_19_);}
	.st27{fill:url(#SVGID_20_);}
	.st28{fill:url(#SVGID_21_);}
	.st29{fill:url(#SVGID_22_);}
	.st30{fill:#5652CC;}
	.st31{fill:#6B67E9;}
	.st32{fill:#362E94;}
	.st33{fill:url(#SVGID_23_);}
	.st34{fill:#D1D7F3;}
	.st35{fill:#FC780B;}
	.st36{fill:#FFAD02;}
	.st37{fill:#DD3B10;}
	.st38{fill:#FCBA06;}
	.st39{fill:#FFEF9A;}
	.st40{fill:#E19100;}
	.st41{fill:url(#SVGID_24_);}
	.st42{opacity:0.5;fill:#DAE0F5;}
	.st43{fill:url(#SVGID_25_);}
	.st44{fill:url(#SVGID_26_);}
	.st45{fill:url(#SVGID_27_);}
	.st46{fill:url(#SVGID_28_);}
	.st47{fill:#131147;}
	.st48{fill:url(#SVGID_29_);}
	.st49{fill:url(#SVGID_30_);}
	.st50{fill:#20196F;}
	.st51{fill:url(#SVGID_31_);}
	.st52{fill:#E6EAF5;}
	.st53{fill:#423EAD;}
	.st54{fill:url(#SVGID_32_);}
	.st55{fill:#FACFA7;}
	.st56{fill:url(#SVGID_33_);}
	.st57{fill:#F0C19B;}
	.st58{fill:url(#SVGID_34_);}
	.st59{fill:url(#SVGID_35_);}
	.st60{fill:#E8EDF9;}
</style>
<g>
	<g id="Wave_shape">
		
			<linearGradient id="SVGID_1_" gradientUnits="userSpaceOnUse" x1="0.9451" y1="752.4421" x2="2279.3438" y2="1126.5074" gradientTransform="matrix(1 0 0 -1 0 2019.8898)">
			<stop  offset="0" style="stop-color:#EFEFF3"/>
			<stop  offset="1" style="stop-color:#FFFFFF;stop-opacity:0"/>
		</linearGradient>
		<path class="st0" d="M342.898,1553.038c312.717,58.318,379.82-130.558,773.938,49.553
			c324.381,148.241,787.894,55.36,823.317-169.848c24.167-153.637,96.173-197.21,196.009-209.075
			c315.032-37.437,120.049-493.366-323.972-517.604c-485.885-26.524-546.207-66.426-658.368-192.232
			c-184.962-207.459-472.22,105.032-586.11,271.966c-98.177,143.904-385.06,112.678-503.653,276.331
			C-88.381,1272.49,41.775,1496.882,342.898,1553.038z"/>
	</g>
	<g id="Abstract_shapes">
		<path class="st1" d="M199.766,880.688l42.342,91.237c2.561,5.516,9.301,7.648,14.566,4.607l115.682-66.789
			c8.466-4.887,6.066-17.695-3.59-19.187l-158.03-24.45C202.563,864.835,196.286,873.185,199.766,880.688z"/>
		<path class="st1" d="M1624.373,1650.112c-34.574-19.958-90.631-19.958-125.204,0c-34.575,19.964-34.575,52.329,0,72.289
			c34.575,19.964,90.632,19.964,125.207,0C1658.95,1702.441,1658.948,1670.076,1624.373,1650.112z M1528.711,1705.344
			c-18.257-10.543-18.261-27.633,0-38.175c18.257-10.543,47.861-10.543,66.119,0c18.261,10.543,18.261,27.633,0,38.175
			C1576.572,1715.886,1546.968,1715.886,1528.711,1705.344z"/>
		<g>
			<path class="st1" d="M2073.868,793.214c6.096,3.518,15.973,3.518,22.069,0c6.094-3.518,6.094-9.223,0-12.741
				c-6.096-3.518-15.974-3.518-22.069,0C2067.774,783.99,2067.774,789.696,2073.868,793.214z"/>
			<path class="st1" d="M2127.864,824.387c6.093,3.518,15.973,3.518,22.067,0c6.096-3.518,6.096-9.223,0-12.741
				c-6.093-3.518-15.973-3.518-22.067,0C2121.77,815.163,2121.77,820.869,2127.864,824.387z"/>
			<path class="st1" d="M2181.859,855.558c6.094,3.518,15.974,3.518,22.067,0c6.094-3.518,6.094-9.221,0-12.739
				c-6.093-3.518-15.973-3.518-22.067,0C2175.763,846.337,2175.763,852.04,2181.859,855.558z"/>
			<ellipse class="st1" cx="2246.886" cy="880.359" rx="15.606" ry="9.009"/>
			<path class="st1" d="M2019.876,824.387c6.094,3.518,15.973,3.518,22.067,0c6.096-3.518,6.096-9.223,0-12.741
				c-6.094-3.518-15.973-3.518-22.067,0C2013.782,815.163,2013.782,820.869,2019.876,824.387z"/>
			<path class="st1" d="M2073.868,855.558c6.096,3.518,15.977,3.518,22.069,0c6.093-3.518,6.094-9.221,0-12.739
				c-6.094-3.518-15.974-3.518-22.069,0C2067.774,846.337,2067.774,852.04,2073.868,855.558z"/>
			<path class="st1" d="M2127.864,886.73c6.096,3.518,15.973,3.518,22.069,0c6.093-3.518,6.093-9.223-0.003-12.741
				c-6.093-3.518-15.971-3.518-22.067,0C2121.77,877.507,2121.77,883.212,2127.864,886.73z"/>
			<path class="st1" d="M2203.926,905.17c-6.093-3.518-15.973-3.526-22.067,0c-6.093,3.518-6.093,9.218,0,12.736
				c6.094,3.518,15.974,3.518,22.067,0C2210.02,914.388,2210.02,908.688,2203.926,905.17z"/>
			<path class="st1" d="M1965.88,855.558c6.096,3.518,15.977,3.518,22.069,0c6.093-3.518,6.093-9.221,0-12.739
				c-6.096-3.518-15.974-3.518-22.069,0C1959.786,846.337,1959.786,852.04,1965.88,855.558z"/>
			<path class="st1" d="M2019.876,886.73c6.094,3.518,15.973,3.518,22.067,0c6.096-3.518,6.096-9.223,0-12.741
				c-6.094-3.518-15.973-3.518-22.067,0C2013.782,877.507,2013.782,883.212,2019.876,886.73z"/>
			<path class="st1" d="M2073.87,917.906c6.093,3.518,15.973,3.518,22.067,0c6.094-3.518,6.094-9.218,0-12.736
				c-6.094-3.526-15.974-3.526-22.067,0C2067.774,908.688,2067.774,914.388,2073.87,917.906z"/>
			<path class="st1" d="M2149.934,936.34c-6.096-3.518-15.974-3.518-22.069,0c-6.094,3.518-6.094,9.223,0,12.741
				c6.096,3.518,15.973,3.518,22.069,0C2156.027,945.563,2156.027,939.858,2149.934,936.34z"/>
			<ellipse class="st1" cx="1922.92" cy="880.359" rx="15.604" ry="9.009"/>
			<path class="st1" d="M1965.882,917.906c6.093,3.518,15.973,3.518,22.067,0c6.093-3.518,6.093-9.218,0-12.745
				c-6.094-3.518-15.974-3.518-22.067,0C1959.786,908.688,1959.786,914.388,1965.882,917.906z"/>
			<path class="st1" d="M2019.876,949.081c6.094,3.518,15.973,3.518,22.067,0c6.096-3.524,6.096-9.223,0-12.741
				c-6.094-3.518-15.973-3.518-22.067,0C2013.782,939.858,2013.782,945.557,2019.876,949.081z"/>
			<path class="st1" d="M2095.938,967.512c-6.094-3.518-15.974-3.518-22.067,0c-6.093,3.518-6.093,9.226,0,12.744
				c6.093,3.518,15.973,3.518,22.067,0C2102.032,976.737,2102.031,971.03,2095.938,967.512z"/>
			<path class="st1" d="M1879.962,905.161c-6.096-3.518-15.973-3.518-22.069,0c-6.093,3.526-6.093,9.227,0,12.745
				c6.096,3.518,15.974,3.518,22.069,0C1886.055,914.388,1886.055,908.688,1879.962,905.161z"/>
			<path class="st1" d="M1933.955,936.34c-6.094-3.518-15.973-3.518-22.067,0c-6.093,3.518-6.093,9.219,0,12.741
				c6.094,3.518,15.973,3.518,22.067,0C1940.051,945.557,1940.051,939.858,1933.955,936.34z"/>
			<path class="st1" d="M1987.949,967.512c-6.094-3.518-15.974-3.518-22.067,0c-6.096,3.518-6.096,9.226,0,12.744
				c6.093,3.518,15.973,3.518,22.067,0C1994.043,976.737,1994.043,971.03,1987.949,967.512z"/>
			<path class="st1" d="M2041.943,998.684c-6.094-3.518-15.973-3.518-22.067,0c-6.094,3.518-6.094,9.223,0,12.741
				c6.096,3.518,15.973,3.518,22.069,0C2048.039,1007.908,2048.039,1002.202,2041.943,998.684z"/>
		</g>
		<g>
			<path class="st2" d="M251.398,1197.074c-6.096-3.518-15.973-3.518-22.069,0c-6.09,3.521-6.09,9.221,0,12.742
				c6.096,3.518,15.977,3.518,22.069,0C257.491,1206.299,257.491,1200.596,251.398,1197.074z"/>
			<path class="st2" d="M197.403,1228.25c-6.094-3.518-15.973-3.518-22.067,0s-6.094,9.221,0,12.741
				c6.094,3.518,15.973,3.518,22.067,0C203.499,1237.471,203.499,1231.768,197.403,1228.25z"/>
			<path class="st2" d="M143.41,1259.422c-6.094-3.518-15.973-3.518-22.067,0c-6.096,3.518-6.096,9.224,0,12.742
				c6.094,3.518,15.974,3.518,22.067,0C149.503,1268.646,149.503,1262.94,143.41,1259.422z"/>
			<path class="st2" d="M89.417,1290.592c-6.096-3.518-15.977-3.518-22.069,0c-6.094,3.521-6.094,9.226,0,12.744
				c6.096,3.518,15.973,3.518,22.069,0C95.507,1299.817,95.507,1294.113,89.417,1290.592z"/>
			<path class="st2" d="M35.421,1321.769c-6.096-3.518-15.973-3.518-22.069,0c-6.09,3.518-6.09,9.222,0,12.744
				c6.096,3.518,15.974,3.518,22.069,0C41.515,1330.991,41.515,1325.287,35.421,1321.769z"/>
		</g>
		<path class="st1" d="M1857.794,663.544l48.515,28.009c7.398,4.271,6.47,11.73-2.073,16.661l-44.37,25.621
			c-8.539,4.931-21.463,5.464-28.859,1.196l-48.515-28.01c-7.398-4.271-6.47-11.73,2.073-16.663l44.37-25.618
			C1837.478,659.809,1850.398,659.273,1857.794,663.544z"/>
	</g>
	<g id="Objects">
		<g id="Back_cloud">
			
				<linearGradient id="SVGID_2_" gradientUnits="userSpaceOnUse" x1="393.3906" y1="939.2004" x2="1278.7029" y2="939.2004" gradientTransform="matrix(1 0 0 -1 0 2019.8898)">
				<stop  offset="0" style="stop-color:#D1D7F3"/>
				<stop  offset="1" style="stop-color:#FFFFFF"/>
			</linearGradient>
			<path class="st3" d="M1278.703,851.163c-1.136-0.006-14.279-0.025-15.428-0.025c-110.691,0-245.289,25.904-300.634,57.857
				l-569.249,307.57l118.954,68.678l0.011-0.007c17.26,13.926,60.864,23.196,125.445,24.719c6.163,0.168,12.461,0.285,19.061,0.285
				c136.547,0,302.587-31.954,370.86-71.373c13.192-7.616,21.656-14.942,25.924-21.824c74.293-1.437,154.979-11.139,225.057-25.828
				L1278.703,851.163L1278.703,851.163z"/>
			<g>
				<path class="st4" d="M960.886,760.54c-4.019,2.32-7.96,4.945-11.855,7.725c-1.916-70.254-52.495-98.294-114.778-62.334
					c-12.45,7.183-24.434,16.419-35.657,27.105c-23.699-27.194-63.943-30.956-109.746-4.501
					c-69.836,40.318-126.85,135.849-131.605,217.844c-11.921,2.463-24.609,7.351-37.801,14.967
					c-68.274,39.417-123.62,135.281-123.62,214.116c0,3.811,0.204,7.447,0.494,11.005c4.998,70.656,58.154,97.879,123.127,60.366
					l441.441-254.865c55.345-31.953,100.212-109.665,100.212-173.572S1016.231,728.587,960.886,760.54z"/>
				
					<linearGradient id="SVGID_3_" gradientUnits="userSpaceOnUse" x1="531.3126" y1="1088.4827" x2="685.8179" y2="1356.0938" gradientTransform="matrix(1 0 0 -1 0 2019.8898)">
					<stop  offset="0" style="stop-color:#CED3F8"/>
					<stop  offset="0.4097" style="stop-color:#DCDFF6"/>
					<stop  offset="0.8427" style="stop-color:#EFEFF3"/>
				</linearGradient>
				<path class="st5" d="M705.485,675.28l-15.821-9.134l-0.009,0.009c-24.091-16.003-58.395-14.96-96.572,7.089
					c-69.836,40.318-126.85,135.849-131.605,217.844l0,0l95.767,55.291C562,864.384,619.014,768.851,688.85,728.535
					c34.664-20.02,66.137-22.722,89.671-11.072l0.001-0.015L705.485,675.28z"/>
				
					<linearGradient id="SVGID_4_" gradientUnits="userSpaceOnUse" x1="943.5563" y1="1254.7849" x2="970.6124" y2="1301.6475" gradientTransform="matrix(1 0 0 -1 0 2019.8898)">
					<stop  offset="0" style="stop-color:#CED3F8"/>
					<stop  offset="0.4097" style="stop-color:#DCDFF6"/>
					<stop  offset="0.8427" style="stop-color:#EFEFF3"/>
				</linearGradient>
				<path class="st6" d="M936.604,698.608l-0.011,0.011c-9.024-5.396-19.8-7.779-31.794-6.833l9.654,5.58l-0.003,0.006
					c20.569,11.34,33.625,35.866,34.581,70.894c3.895-2.779,7.836-5.406,11.855-7.725c27.514-15.885,52.432-17.459,70.541-7.187
					L936.604,698.608z"/>
				
					<linearGradient id="SVGID_5_" gradientUnits="userSpaceOnUse" x1="339.963" y1="817.6594" x2="505.07" y2="1103.6331" gradientTransform="matrix(1 0 0 -1 0 2019.8898)">
					<stop  offset="0" style="stop-color:#CED3F8"/>
					<stop  offset="0.4097" style="stop-color:#DCDFF6"/>
					<stop  offset="0.8427" style="stop-color:#EFEFF3"/>
				</linearGradient>
				<path class="st7" d="M423.678,906.056c-68.274,39.418-123.621,135.281-123.621,214.117c0,3.811,0.204,7.447,0.494,11.005
					c2.33,32.938,15.133,56.426,34.714,68.329l-0.006,0.006l0.125,0.072c0.229,0.137,0.463,0.265,0.693,0.4l94.949,54.819
					l0.006-0.006c-19.58-11.902-32.383-35.39-34.714-68.329c-0.29-3.558-0.494-7.194-0.494-11.005
					c0-78.835,55.346-174.699,123.621-214.116c13.192-7.617,25.879-12.504,37.799-14.967l0,0l-95.767-55.291
					C449.558,893.552,436.869,898.44,423.678,906.056z"/>
				
					<linearGradient id="SVGID_6_" gradientUnits="userSpaceOnUse" x1="786.8975" y1="1293.6084" x2="831.3102" y2="1370.5336" gradientTransform="matrix(1 0 0 -1 0 2019.8898)">
					<stop  offset="0" style="stop-color:#CED3F8"/>
					<stop  offset="0.4097" style="stop-color:#DCDFF6"/>
					<stop  offset="0.8427" style="stop-color:#EFEFF3"/>
				</linearGradient>
				<path class="st8" d="M904.799,691.785l-85.124-49.146l-0.023,0.023c-20.768-12.016-49.439-10.339-81.167,7.978
					c-11.476,6.622-22.548,15.003-33.001,24.64l73.035,42.167l-0.001,0.015c7.563,3.744,14.313,8.959,20.076,15.573
					c11.224-10.686,23.207-19.921,35.657-27.105c31.23-18.03,59.513-19.964,80.198-8.56l0.003-0.006L904.799,691.785z"/>
			</g>
			<g>
				<path class="st4" d="M1144.463,454.018c5.815,3.427,11.513,7.296,17.142,11.39c3.838-101.948,77.882-141.897,168.011-88.776
					c18.017,10.612,35.324,24.197,51.502,39.873c34.904-39.12,93.542-43.983,159.824-4.9
					c101.059,59.56,182.629,199.077,188.328,318.168c17.316,3.753,35.713,11.037,54.803,22.288
					c98.797,58.232,177.936,198.204,176.761,312.637c-0.057,5.532-0.408,10.806-0.883,15.967
					c-8.331,102.485-86.113,141.211-180.134,85.795l-638.804-376.512c-80.089-47.205-144.243-160.673-143.29-253.437
					C998.676,443.746,1064.374,406.814,1144.463,454.018z"/>
				
					<linearGradient id="SVGID_7_" gradientUnits="userSpaceOnUse" x1="2682.446" y1="1292.8881" x2="2906.9849" y2="1681.8009" gradientTransform="matrix(-0.9999 -0.0102 0.0102 -0.9999 4435.9844 2028.856)">
					<stop  offset="0" style="stop-color:#CED3F8"/>
					<stop  offset="0.4097" style="stop-color:#DCDFF6"/>
					<stop  offset="0.8427" style="stop-color:#EFEFF3"/>
				</linearGradient>
				<path class="st9" d="M1517.52,334.056l23.167-13.024l0.013,0.013c35.308-22.871,85.229-20.848,140.473,11.726
					c101.059,59.56,182.629,199.076,188.328,318.168l0,0l-140.231,78.834c-5.7-119.091-87.27-258.608-188.328-318.168
					c-50.161-29.576-95.935-33.966-130.367-17.405l-0.001-0.021L1517.52,334.056z"/>
				
					<linearGradient id="SVGID_8_" gradientUnits="userSpaceOnUse" x1="3282.3662" y1="1534.5032" x2="3321.7292" y2="1602.682" gradientTransform="matrix(-0.9999 -0.0102 0.0102 -0.9999 4435.9844 2028.856)">
					<stop  offset="0" style="stop-color:#CED3F8"/>
					<stop  offset="0.4097" style="stop-color:#DCDFF6"/>
					<stop  offset="0.8427" style="stop-color:#EFEFF3"/>
				</linearGradient>
				<path class="st10" d="M1180.734,364.481l0.016,0.016c13.217-7.698,28.939-10.997,46.384-9.447l-14.137,7.956l0.005,0.009
					c-30.11,16.155-49.482,51.562-51.395,102.393c-5.629-4.093-11.327-7.962-17.142-11.39
					c-39.816-23.467-76.065-26.123-102.58-11.48L1180.734,364.481z"/>
				
					<linearGradient id="SVGID_9_" gradientUnits="userSpaceOnUse" x1="2403.7788" y1="899.9652" x2="2643.6873" y2="1315.499" gradientTransform="matrix(-0.9999 -0.0102 0.0102 -0.9999 4435.9844 2028.856)">
					<stop  offset="0" style="stop-color:#CED3F8"/>
					<stop  offset="0.4097" style="stop-color:#DCDFF6"/>
					<stop  offset="0.8427" style="stop-color:#EFEFF3"/>
				</linearGradient>
				<path class="st11" d="M1924.304,673.227c98.797,58.232,177.938,198.204,176.762,312.637c-0.057,5.532-0.409,10.806-0.884,15.967
					c-3.883,47.777-22.871,81.68-51.552,98.665l0.009,0.009l-0.182,0.103c-0.334,0.197-0.678,0.378-1.014,0.57l-139.034,78.161
					l-0.009-0.008c28.681-16.985,47.669-50.888,51.552-98.665c0.475-5.16,0.826-10.436,0.883-15.967
					c1.175-114.434-77.964-254.407-176.761-312.637c-19.089-11.252-37.485-18.534-54.802-22.288l0,0l140.231-78.834
					C1886.818,654.693,1905.216,661.976,1924.304,673.227z"/>
				
					<linearGradient id="SVGID_10_" gradientUnits="userSpaceOnUse" x1="3054.3535" y1="1590.9664" x2="3118.9434" y2="1702.8395" gradientTransform="matrix(-0.9999 -0.0102 0.0102 -0.9999 4435.9844 2028.856)">
					<stop  offset="0" style="stop-color:#CED3F8"/>
					<stop  offset="0.4097" style="stop-color:#DCDFF6"/>
					<stop  offset="0.8427" style="stop-color:#EFEFF3"/>
				</linearGradient>
				<path class="st12" d="M1227.134,355.051l124.647-70.072l0.033,0.034c30.41-17.134,72.121-14.273,118.034,12.787
					c16.607,9.783,32.599,22.113,47.672,36.257l-106.947,60.122l0.001,0.021c-11.065,5.323-20.968,12.792-29.456,22.306
					c-16.178-15.677-33.485-29.262-51.502-39.873c-45.192-26.635-86.334-29.863-116.616-13.617l-0.005-0.009L1227.134,355.051z"/>
			</g>
		</g>
		<g id="Little_cloud">
			<g>
				<path class="st13" d="M1989.564,1472.052c0.035-0.729,0.094-1.454,0.094-2.175c0-20.017-14.055-28.153-31.403-18.136
					c-2.178,1.257-4.304,2.747-6.361,4.413l0,0c0.021-0.578,0.05-1.157,0.051-1.736c-0.001-24.652-17.311-34.654-38.667-22.324
					c-4.188,2.416-8.219,5.523-11.994,9.116c-7.972-9.147-21.507-10.412-36.915-1.513c-24.538,14.165-44.423,48.612-44.423,76.949
					v0.002c-4.572,0.504-9.549,2.181-14.772,5.194c-21.734,12.549-39.366,43.087-39.366,68.182c0,3.874,0.469,7.35,1.265,10.481
					L1989.564,1472.052z"/>
				<path class="st14" d="M1954.483,1434.578l0.009-0.007l25.629,14.797c-5.654-3.076-13.362-2.537-21.865,2.373
					c-2.178,1.257-4.304,2.747-6.361,4.413c0.021-0.578,0.05-1.157,0.051-1.736c0-9.967-2.833-17.537-7.617-22.207
					C1948.179,1431.938,1951.624,1432.764,1954.483,1434.578z"/>
				
					<linearGradient id="SVGID_11_" gradientUnits="userSpaceOnUse" x1="2603.8501" y1="605.139" x2="2618.7991" y2="579.2466" gradientTransform="matrix(-1 0 0 -1 4519.0996 2019.8898)">
					<stop  offset="0.1573" style="stop-color:#807DFB"/>
					<stop  offset="0.6933" style="stop-color:#625FDA"/>
					<stop  offset="1" style="stop-color:#5652CC"/>
				</linearGradient>
				<path class="st15" d="M1875.721,1425.064c3.506-3.227,7.209-6.051,11.056-8.27c10.871-6.276,20.689-6.755,27.713-2.471
					l0.009-0.006l25.932,14.971c-6.982-3.923-16.568-3.306-27.153,2.805c-4.188,2.416-8.219,5.523-11.994,9.116
					c-1.729-1.984-3.733-3.572-5.946-4.79l0.018-0.019L1875.721,1425.064z"/>
				
					<linearGradient id="SVGID_12_" gradientUnits="userSpaceOnUse" x1="2652.4993" y1="600.0923" x2="2706.0999" y2="507.253" gradientTransform="matrix(-1 0 0 -1 4519.0996 2019.8898)">
					<stop  offset="0.1573" style="stop-color:#807DFB"/>
					<stop  offset="0.6933" style="stop-color:#625FDA"/>
					<stop  offset="1" style="stop-color:#5652CC"/>
				</linearGradient>
				<path class="st16" d="M1793.446,1501.346c0-28.336,19.885-62.783,44.423-76.948c12.204-7.049,23.222-7.699,31.243-3.126
					l0.018-0.012l6.591,3.805l19.635,11.338l-0.018,0.019c-7.997-4.403-18.902-3.691-30.967,3.277
					c-24.538,14.165-44.423,48.612-44.423,76.949l-26.501-15.298v-0.002H1793.446z"/>
				
					<linearGradient id="SVGID_13_" gradientUnits="userSpaceOnUse" x1="2720.8918" y1="515.7952" x2="2770.4226" y2="430.0053" gradientTransform="matrix(-1 0 0 -1 4519.0996 2019.8898)">
					<stop  offset="0.1573" style="stop-color:#807DFB"/>
					<stop  offset="0.6933" style="stop-color:#625FDA"/>
					<stop  offset="1" style="stop-color:#5652CC"/>
				</linearGradient>
				<path class="st17" d="M1778.673,1506.542c5.224-3.014,10.2-4.69,14.773-5.194l26.501,15.298v0.002
					c-4.572,0.504-9.549,2.181-14.772,5.194c-21.734,12.549-39.366,43.087-39.366,68.182c0,3.874,0.469,7.35,1.265,10.481
					l-26.501-15.3c-0.797-3.131-1.265-6.608-1.265-10.481C1739.308,1549.63,1756.94,1519.091,1778.673,1506.542z"/>
			</g>
			
				<linearGradient id="SVGID_14_" gradientUnits="userSpaceOnUse" x1="1767.0756" y1="483.2722" x2="2067.9175" y2="483.2722" gradientTransform="matrix(1 0 0 -1 0 2019.8898)">
				<stop  offset="0" style="stop-color:#D1D7F3"/>
				<stop  offset="1" style="stop-color:#FFFFFF"/>
			</linearGradient>
			<path class="st18" d="M1989.564,1472.053c1.264-0.02,2.521-0.055,3.767-0.055c34.671,0,48.762,8.115,31.412,18.13
				c-2.178,1.257-4.757,2.485-7.643,3.672l0,0c1-0.012,2.005-0.028,3.006-0.029c42.698,0.001,60.023,9.995,38.667,22.325
				c-4.186,2.417-9.565,4.745-15.791,6.924c15.843,4.602,18.035,12.417,2.622,21.313c-24.536,14.167-84.199,25.648-133.279,25.648
				h-0.003c-0.874,2.64-3.777,5.513-8.996,8.529c-21.735,12.548-74.63,22.728-118.096,22.728c-6.709,0-12.731-0.27-18.154-0.731
				L1989.564,1472.053z"/>
		</g>
		<g id="Wifi_sygnal">
			<path class="st19" d="M854.44,1587.664c-12.285,7.09-12.285,18.593,0,25.688c12.286,7.093,32.195,7.091,44.482,0
				c12.295-7.094,12.295-18.593,0.028-25.688C886.645,1580.57,866.727,1580.566,854.44,1587.664z M863.874,1561.063l2.231,9.053
				c30.56-2.489,58.926,9.825,63.249,27.462c0.933,3.772,0.705,7.563-0.666,11.262l15.522,1.899
				c1.737-4.754,2.021-9.611,0.841-14.44C939.51,1573.675,903.091,1557.857,863.874,1561.063z M858.618,1539.863l2.23,9.062
				c24.6-2.008,49.127,1.634,69.009,10.266c19.865,8.636,32.746,21.211,36.228,35.435c1.545,6.283,1.18,12.572-1.078,18.703
				l15.505,1.896c2.641-7.179,3.07-14.538,1.27-21.879c-4.077-16.634-19.142-31.383-42.389-41.463
				C916.126,1541.78,887.441,1537.514,858.618,1539.863z M853.325,1518.67l2.239,9.062c71.112-5.813,137.195,22.87,147.261,63.948
				c2.157,8.761,1.645,17.561-1.508,26.141l15.505,1.901c3.537-9.629,4.094-19.501,1.682-29.326
				C1007.23,1544.336,933.128,1512.153,853.325,1518.67z"/>
		</g>
		<g id="Stairs">
			
				<linearGradient id="SVGID_15_" gradientUnits="userSpaceOnUse" x1="1447.0861" y1="502.3825" x2="1684.1144" y2="502.3825" gradientTransform="matrix(1 0 0 -1 0 2019.8898)">
				<stop  offset="0" style="stop-color:#DAE0F5"/>
				<stop  offset="1" style="stop-color:#F6F6FB"/>
			</linearGradient>
			<polygon class="st20" points="1447.086,1585.932 1513.23,1585.928 1684.114,1487.273 1617.975,1449.083 			"/>
			<g>
				<polygon class="st4" points="1414.018,1528.643 1584.897,1429.987 1584.907,1391.212 1414.023,1489.868 				"/>
				<polygon class="st21" points="1414.023,1489.868 1584.907,1391.212 1551.84,1372.116 1380.95,1470.772 				"/>
				<polygon class="st4" points="1380.96,1470.772 1551.84,1372.116 1551.85,1333.341 1380.965,1431.996 				"/>
				<polygon class="st21" points="1380.965,1431.996 1551.85,1333.341 1518.782,1314.244 1347.893,1412.9 				"/>
				<polygon class="st4" points="1447.086,1585.932 1617.971,1487.271 1617.975,1449.083 1447.096,1547.734 				"/>
				<polygon class="st21" points="1447.096,1547.734 1617.975,1449.083 1584.897,1429.987 1414.018,1528.643 				"/>
			</g>
			<polygon class="st22" points="1414.018,1528.643 1414.023,1489.868 1380.957,1470.775 1380.965,1431.996 1347.893,1412.9 
				1347.868,1528.638 1447.086,1585.932 1447.096,1547.734 			"/>
			
				<linearGradient id="SVGID_16_" gradientUnits="userSpaceOnUse" x1="1380.9572" y1="598.444" x2="1584.9075" y2="598.444" gradientTransform="matrix(1 0 0 -1 0 2019.8898)">
				<stop  offset="0" style="stop-color:#DAE0F5"/>
				<stop  offset="1" style="stop-color:#F6F6FB"/>
			</linearGradient>
			<polygon class="st23" points="1380.957,1470.775 1447.101,1470.772 1584.907,1391.212 1551.84,1372.116 			"/>
			
				<linearGradient id="SVGID_17_" gradientUnits="userSpaceOnUse" x1="1414.0181" y1="540.5765" x2="1617.9686" y2="540.5765" gradientTransform="matrix(1 0 0 -1 0 2019.8898)">
				<stop  offset="0" style="stop-color:#DAE0F5"/>
				<stop  offset="1" style="stop-color:#F6F6FB"/>
			</linearGradient>
			<polygon class="st24" points="1414.018,1528.643 1480.162,1528.639 1617.969,1449.08 1584.901,1429.983 			"/>
		</g>
		<g id="Symbols">
			
				<linearGradient id="SVGID_18_" gradientUnits="userSpaceOnUse" x1="180.0374" y1="610.1746" x2="396.288" y2="610.1746" gradientTransform="matrix(1 0 0 -1 0 2019.8898)">
				<stop  offset="0.4045" style="stop-color:#C6CBE7"/>
				<stop  offset="0.6362" style="stop-color:#D9DDEF"/>
				<stop  offset="1" style="stop-color:#FFFFFF"/>
			</linearGradient>
			<path class="st25" d="M364.366,1365.409c-22.615-13.051-52.663-19.069-82.173-18.187h-46.277v7.57
				c-8.774,2.797-17.051,6.311-24.474,10.617c-42.075,24.461-41.84,64.115,0.513,88.571c7.292,4.211,15.398,7.647,23.961,10.409
				v7.904h55.496c26.692-0.454,53.149-6.501,73.447-18.3C406.956,1429.524,406.735,1389.876,364.366,1365.409z"/>
			<g>
				
					<linearGradient id="SVGID_19_" gradientUnits="userSpaceOnUse" x1="1258.2876" y1="2168.856" x2="1142.5833" y2="2359.5684" gradientTransform="matrix(0.5 0.866 -0.866 0.5 1597.3505 -747.3595)">
					<stop  offset="0" style="stop-color:#DD3B10"/>
					<stop  offset="0.4667" style="stop-color:#EC780B"/>
					<stop  offset="1" style="stop-color:#FCBA06"/>
				</linearGradient>
				<path class="st26" d="M164.293,1453.985c-21.321-12.311-31.962-28.469-31.917-44.598l0.089-31.225
					c-0.047,16.141,10.597,32.293,31.917,44.605c42.371,24.456,110.829,24.461,152.906,0.006
					c20.919-12.15,31.377-28.058,31.425-43.984l-0.092,31.225c-0.042,15.926-10.51,31.828-31.42,43.979
					C275.122,1478.447,206.664,1478.454,164.293,1453.985z"/>
				<path class="st2" d="M164.383,1422.766c-42.353-24.456-42.591-64.121-0.512-88.571c42.09-24.461,110.571-24.456,152.919,0
					c42.374,24.456,42.594,64.115,0.501,88.577C275.211,1447.228,206.754,1447.222,164.383,1422.766z"/>
			</g>
			
				<linearGradient id="SVGID_20_" gradientUnits="userSpaceOnUse" x1="1988.9452" y1="851.9276" x2="2205.1956" y2="851.9276" gradientTransform="matrix(1 0 0 -1 0 2019.8898)">
				<stop  offset="0.4045" style="stop-color:#C6CBE7"/>
				<stop  offset="0.6362" style="stop-color:#D9DDEF"/>
				<stop  offset="1" style="stop-color:#FFFFFF"/>
			</linearGradient>
			<path class="st27" d="M2173.275,1123.654c-22.615-13.049-52.664-19.063-82.174-18.182h-46.277v7.566
				c-8.774,2.796-17.051,6.311-24.474,10.619c-42.075,24.463-41.84,64.118,0.513,88.574c7.292,4.211,15.398,7.641,23.961,10.403
				v7.903h55.496c26.692-0.454,53.149-6.496,73.448-18.293C2215.863,1187.776,2215.643,1148.122,2173.275,1123.654z"/>
			<g>
				
					<linearGradient id="SVGID_21_" gradientUnits="userSpaceOnUse" x1="1953.4132" y1="481.3905" x2="1837.7089" y2="672.1029" gradientTransform="matrix(0.5 0.866 -0.866 0.5 1597.3505 -747.3595)">
					<stop  offset="0" style="stop-color:#362E94"/>
					<stop  offset="0.3474" style="stop-color:#514AB9"/>
					<stop  offset="1" style="stop-color:#807DFB"/>
				</linearGradient>
				<path class="st28" d="M1973.201,1212.237c-21.321-12.311-31.962-28.476-31.921-44.605l0.092-31.22
					c-0.047,16.138,10.597,32.295,31.917,44.606c42.371,24.456,110.828,24.456,152.906,0.006
					c20.915-12.157,31.378-28.059,31.426-43.989l-0.093,31.224c-0.042,15.926-10.51,31.828-31.42,43.984
					C2084.03,1236.692,2015.572,1236.698,1973.201,1212.237z"/>
				<path class="st2" d="M1973.291,1181.016c-42.353-24.457-42.592-64.124-0.516-88.574c42.094-24.464,110.575-24.454,152.922,0
					c42.374,24.456,42.594,64.117,0.501,88.58C2084.119,1205.472,2015.661,1205.472,1973.291,1181.016z"/>
			</g>
			<path class="st22" d="M2022.813,1107.521c-6.514-3.736-17.077-3.72-23.59,0.044c-6.517,3.761-6.517,9.842,0,13.577
				c6.514,3.736,17.076,3.716,23.59-0.045C2029.326,1117.336,2029.326,1111.257,2022.813,1107.521z M2096.904,1145.901l-6.675,3.856
				l-36.851-21.276l6.675-3.855l-9.639-5.57l-31.208,18.016l9.645,5.571l6.669-3.852l36.853,21.272l-6.671,3.854l9.642,5.569
				l31.208-18.015L2096.904,1145.901z"/>
			<path class="st22" d="M207.93,1394.196c6.169,3.561,6.311,8.985,0,12.63c-6.311,3.644-15.705,3.563-21.873,0
				c-6.311-3.645-6.313-8.988-0.002-12.63C192.365,1390.554,201.619,1390.554,207.93,1394.196z M290.099,1349.024
				c19.911,11.496,22.433,26.553,6.028,36.025l-0.701,0.404c-15.845,9.148-32.951,7.368-48.655,3.805l-4.911-1.215
				c-5.185-1.052-8.413-0.645-12.899,1.942l-6.311,3.645l-13.883-8.014l7.012-4.048c8.835-5.099,16.546-6.638,29.029-3.805
				l4.905,1.215c13.463,3.078,22.715,3.724,31.832-1.538c10.096-5.83,7.15-14.33-4.349-20.968
				c-11.917-6.88-27.343-8.988-39.404-2.023l-4.486,2.589l-13.881-8.013l5.048-2.913
				C243.686,1335.018,269.906,1337.364,290.099,1349.024z"/>
		</g>
		<g id="Book_3">
		</g>
		<g id="Book_2_1_">
		</g>
		<g id="Book_1_1_">
			<path class="st4" d="M1530.171,1149.896V852.701c10.898-8.342,19.226-24.038,19.226-37.202c0-14.624-10.267-20.551-22.932-13.239
				c-12.665,7.312-22.932,25.094-22.932,39.718c0,13.163,8.326,19.244,19.224,15.003v297.195
				c-10.897,8.342-19.224,24.038-19.224,37.2c0,14.624,10.267,20.552,22.932,13.239c12.665-7.312,22.932-25.094,22.932-39.718
				C1549.396,1151.736,1541.068,1145.654,1530.171,1149.896z"/>
		</g>
		<g id="Book_5">
			
				<linearGradient id="SVGID_22_" gradientUnits="userSpaceOnUse" x1="1046.4347" y1="704.0453" x2="1442.5638" y2="704.0453" gradientTransform="matrix(1 0 0 -1 0 2019.8898)">
				<stop  offset="0" style="stop-color:#D1D7F3"/>
				<stop  offset="1" style="stop-color:#FFFFFF"/>
			</linearGradient>
			<path class="st29" d="M1442.564,1315.843l-254.91-147.172c-18.405-10.627-63.185-19.244-99.995-19.245
				c-36.822,0.001-51.754,8.618-33.332,19.245l254.908,147.173l-254.908,147.174c-18.423,10.627-3.491,19.243,33.332,19.244
				c36.81-0.001,81.59-8.618,99.995-19.244L1442.564,1315.843z"/>
			<g>
				<path class="st30" d="M1055.548,1455.214l-15.542,8.901l-17.62-10.173c-0.895-2.962-1.388-6.357-1.393-10.168
					c0.001-21.253,14.925-47.106,33.331-57.732c-0.002,0.003-0.002,0.003-0.002,0.003l-357.37-206.344l194.389-112.23l417.9,241.275
					L1055.548,1455.214z"/>
				<path class="st22" d="M1039.727,1447.487c0,0,228.082-131.685,239.79-138.443c0.006-10.519,0-52.269,0.001-62.781
					c-11.712,6.765-239.792,138.436-239.792,138.436c-14.988,8.661-27.187,29.79-27.187,47.09
					C1012.547,1449.094,1024.739,1456.138,1039.727,1447.487z"/>
				<polygon class="st31" points="636.43,1144.759 1054.336,1386.037 1309.235,1238.869 891.336,997.595 				"/>
				<path class="st32" d="M1020.993,1443.774c0.002,21.26,14.925,29.88,33.332,19.244l254.915-147.174l-0.001-7.099l-254.91,147.173
					c-14.988,8.651-27.182,1.606-27.184-15.694c-0.006-17.303,12.193-38.431,27.187-47.089l254.904-147.166l-0.002-7.099
					l-254.91,147.172C1035.918,1396.668,1020.995,1422.521,1020.993,1443.774z"/>
				
					<linearGradient id="SVGID_23_" gradientUnits="userSpaceOnUse" x1="2256.2961" y1="-114.3179" x2="2336.7822" y2="-114.3179" gradientTransform="matrix(-0.5 0.866 0.866 0.5 2077.4114 -628.5737)">
					<stop  offset="0" style="stop-color:#6B67E9"/>
					<stop  offset="0.0568" style="stop-color:#6763E3"/>
					<stop  offset="0.4681" style="stop-color:#4C48BD"/>
					<stop  offset="0.6846" style="stop-color:#423EAF"/>
				</linearGradient>
				<path class="st33" d="M1020.993,1443.774c0.001-21.253,14.925-47.106,33.331-57.732c-0.002,0.003-0.002,0.003-0.002,0.003
					L636.43,1144.759c0,0,0,0-0.005,0.008c-18.4,10.629-33.331,36.49-33.333,57.736c-0.001,10.626,3.735,18.1,9.766,21.582
					l417.897,241.272l0,0C1024.723,1461.875,1020.997,1454.402,1020.993,1443.774z"/>
			</g>
			<polygon class="st34" points="1063.909,1352.893 1111.742,1352.893 1309.235,1238.869 1285.328,1225.066 			"/>
		</g>
		<g id="Book_4">
			<g>
				<polygon class="st35" points="1070.517,1341.449 621.278,1082.081 898.618,921.948 1347.868,1181.323 				"/>
				<polygon class="st22" points="1314.821,1125.242 1314.82,1182.264 1054.814,1332.383 1054.813,1275.357 				"/>
				<polygon class="st36" points="1063.908,1280.607 614.655,1021.236 898.624,857.294 1347.858,1116.67 				"/>
				<polygon class="st37" points="1063.903,1352.904 1347.859,1188.964 1347.868,1181.323 1070.517,1341.449 1070.523,1284.427 
					1347.867,1124.301 1347.858,1116.67 1063.908,1280.607 				"/>
				<polygon class="st35" points="1063.909,1352.893 614.664,1093.521 614.657,1021.237 1063.908,1280.607 				"/>
			</g>
			<polygon class="st38" points="981.255,957.333 1072.629,1010.088 879.303,1121.705 787.93,1068.95 			"/>
			<g>
				<path class="st39" d="M935.543,1100.419c6.116-3.531,16.033-3.531,22.149,0c6.116,3.531,6.116,9.256,0,12.787
					c-6.116,3.531-16.033,3.531-22.149,0C929.426,1109.676,929.426,1103.951,935.543,1100.419z"/>
				<path class="st39" d="M968.948,1081.132c6.116-3.531,16.033-3.531,22.149,0c6.116,3.532,6.116,9.256,0,12.787
					c-6.116,3.531-16.033,3.531-22.149,0C962.832,1090.389,962.832,1084.663,968.948,1081.132z"/>
				<path class="st39" d="M1002.355,1061.845c6.116-3.532,16.033-3.532,22.149,0c6.116,3.531,6.116,9.256,0,12.787
					s-16.033,3.531-22.149,0C996.239,1071.101,996.239,1065.376,1002.355,1061.845z"/>
				<path class="st39" d="M1035.761,1042.558c6.116-3.531,16.033-3.531,22.149,0s6.116,9.256,0,12.787s-16.033,3.531-22.149,0
					S1029.645,1046.089,1035.761,1042.558z"/>
			</g>
			<polygon class="st37" points="982.103,1251.198 1013.84,1269.522 1013.84,1306.17 982.103,1287.846 			"/>
			<polygon class="st40" points="664.725,1067.96 696.463,1086.284 696.463,1122.932 664.725,1104.608 			"/>
			<g>
				<path class="st14" d="M664.623,1150.194c5.191-2.997,13.607-2.997,18.798,0c5.191,2.997,5.191,7.856,0,10.853
					c-5.191,2.997-13.607,2.997-18.798,0C659.432,1158.05,659.432,1153.19,664.623,1150.194z"/>
				<path class="st14" d="M1026.127,1358.912c5.191-2.997,13.607-2.997,18.798,0c5.191,2.997,5.191,7.857,0,10.853
					c-5.191,2.997-13.607,2.997-18.798,0C1020.935,1366.769,1020.935,1361.91,1026.127,1358.912z"/>
				<g>
					
						<rect x="853.34" y="1051.28" transform="matrix(0.5 -0.866 0.866 0.5 -663.812 1370.2072)" class="st14" width="2.812" height="417.42"/>
				</g>
			</g>
			
				<linearGradient id="SVGID_24_" gradientUnits="userSpaceOnUse" x1="614.655" y1="1056.067" x2="1101.024" y2="1056.067" gradientTransform="matrix(1 0 0 -1 0 2019.8898)">
				<stop  offset="4.052126e-04" style="stop-color:#DAE0F5"/>
				<stop  offset="1" style="stop-color:#FFFFFF;stop-opacity:0"/>
			</linearGradient>
			<path class="st41" d="M898.624,857.294l-283.969,163.942l85.072,49.116c64.871-12.826,121.281-30.228,154.508-49.412
				c13.192-7.616,21.657-14.941,25.924-21.824c72.817-1.407,151.772-10.76,220.865-24.962L898.624,857.294z"/>
			<path class="st42" d="M699.727,1070.352c3.504,20.44-4.228,49.945-16.984,62.475c-8.721-5.036-68.079-39.306-68.079-39.306
				l-0.009-72.285L699.727,1070.352z"/>
		</g>
		<g id="Man_with_laptop">
			
				<linearGradient id="SVGID_25_" gradientUnits="userSpaceOnUse" x1="685.3196" y1="674.2185" x2="803.3491" y2="674.2185" gradientTransform="matrix(1 0 0 -1 0 2019.8898)">
				<stop  offset="0" style="stop-color:#D1D7F3"/>
				<stop  offset="1" style="stop-color:#FFFFFF"/>
			</linearGradient>
			<rect x="685.32" y="1323.939" class="st43" width="118.03" height="43.465"/>
			
				<linearGradient id="SVGID_26_" gradientUnits="userSpaceOnUse" x1="815.0885" y1="816.6003" x2="906.2722" y2="816.6003" gradientTransform="matrix(1 0 0 -1 0 2019.8898)">
				<stop  offset="0" style="stop-color:#C4C9E5"/>
				<stop  offset="0.9456" style="stop-color:#F3F3FA"/>
				<stop  offset="1" style="stop-color:#F6F6FB"/>
			</linearGradient>
			<path class="st44" d="M906.272,1189.598c-3.799,3.798-44.26,46.729-44.26,46.729l-46.924-27.092l57.677-38.983L906.272,1189.598z
				"/>
			
				<linearGradient id="SVGID_27_" gradientUnits="userSpaceOnUse" x1="883.8051" y1="870.9923" x2="1038.4614" y2="870.9923" gradientTransform="matrix(1 0 0 -1 0 2019.8898)">
				<stop  offset="0" style="stop-color:#C4C9E5"/>
				<stop  offset="0.3626" style="stop-color:#DFE2F1"/>
				<stop  offset="0.7543" style="stop-color:#F6F7FB;stop-opacity:0.5"/>
				<stop  offset="1" style="stop-color:#FFFFFF;stop-opacity:0"/>
			</linearGradient>
			<path class="st45" d="M906.272,1189.598c17.304,2.13,99.804,2.512,132.189-4.242c0-25.448,0-8.354,0-74.867
				c-20.194-4.779-94.56-6.62-132.098,5.451c-37.539,12.071-16.894,63.956-16.894,63.956L906.272,1189.598z"/>
			<g>
				
					<linearGradient id="SVGID_28_" gradientUnits="userSpaceOnUse" x1="3239.8062" y1="338.0387" x2="3263.3657" y2="366.0764" gradientTransform="matrix(-0.8377 -0.5461 0.5461 -0.8377 3190.8218 3403.6216)">
					<stop  offset="0" style="stop-color:#20196F"/>
					<stop  offset="0.5268" style="stop-color:#312B8E"/>
					<stop  offset="1" style="stop-color:#423EAD"/>
				</linearGradient>
				<path class="st46" d="M690.204,1326.082c6.549,5.978,0.969,19.19-7.547,24.214c-3.931,1.062-11.25-0.287-11.25-0.287
					s-29.366-5.604-34.841-8.591c-5.495-2.962-15.793-12.47-10.931-21.974c4.44-4.87,9.98-3.385,17.763-3.053
					c10.134,0.419,20.502-1.797,28.29-0.838C678.072,1316.325,690.204,1326.082,690.204,1326.082z"/>
				<path class="st47" d="M638.29,1339.145c5.629,3.07,35.85,8.853,35.85,8.853s7.08,1.278,11.18,0.345
					c-0.854,0.729-1.724,1.394-2.661,1.954c-3.931,1.062-11.25-0.287-11.25-0.287s-29.366-5.604-34.841-8.591
					c-5.495-2.962-15.793-12.47-10.931-21.974c0.153-0.17,0.326-0.295,0.489-0.46
					C623.801,1327.928,633.111,1336.358,638.29,1339.145z"/>
				<path class="st2" d="M679.534,1307.934c3.194,2.912,11.856,16.058,11.856,16.058s-1.348,1.618-1.64,3.813
					c-0.016,0.229-0.038,0.451-0.054,0.672c0.808,3.568,0.678,8.848-7.428,6.583c-15.723-4.405-21.129-20.414-14.089-20.007
					C672.928,1315.325,677.268,1310.418,679.534,1307.934z"/>
			</g>
			<g>
				
					<linearGradient id="SVGID_29_" gradientUnits="userSpaceOnUse" x1="3204.9341" y1="755.3651" x2="3228.4971" y2="783.4069" gradientTransform="matrix(-0.9907 0.136 -0.136 -0.9907 3994.6292 1670.4119)">
					<stop  offset="0" style="stop-color:#20196F"/>
					<stop  offset="0.5268" style="stop-color:#312B8E"/>
					<stop  offset="1" style="stop-color:#423EAD"/>
				</linearGradient>
				<path class="st48" d="M722.053,1320.126c8.88,0.232,13.304,13.864,10.166,23.247c-2.27,3.381-8.687,7.135-8.687,7.135
					s-25.863,15.008-31.949,16.344c-6.102,1.352-20.112,0.917-22.67-9.457c0.177-6.567,5.324-9.085,11.442-13.943
					c7.927-6.305,14.314-14.776,20.808-19.143C706.502,1320.707,722.053,1320.126,722.053,1320.126z"/>
				<path class="st47" d="M691.382,1364.005c6.279-1.373,32.896-16.796,32.896-16.796s6.186-3.659,8.672-7.061
					c-0.162,1.103-0.401,2.182-0.732,3.223c-2.27,3.381-8.687,7.135-8.687,7.135s-25.863,15.008-31.949,16.344
					c-6.102,1.352-20.112,0.917-22.67-9.457c0.019-0.224,0.073-0.431,0.073-0.66C673.082,1365.005,685.642,1365.28,691.382,1364.005
					z"/>
				<path class="st2" d="M702.108,1313.397c4.333,0.116,19.476,4.368,19.476,4.368s0.032,2.115,1.254,3.969
					c0.131,0.178,0.27,0.352,0.415,0.531c2.939,2.169,6.294,6.247-1.316,9.844c-14.752,6.965-29.325-1.581-23.739-5.907
					C701.955,1323.319,702.024,1316.753,702.108,1313.397z"/>
			</g>
			<g>
				
					<linearGradient id="SVGID_30_" gradientUnits="userSpaceOnUse" x1="2049.821" y1="955.7496" x2="1828.4886" y2="731.1137" gradientTransform="matrix(0.9991 -0.0432 -0.0432 -0.9991 -1148.2416 2121.1196)">
					<stop  offset="0" style="stop-color:#20196F"/>
					<stop  offset="1" style="stop-color:#362E94"/>
				</linearGradient>
				<path class="st49" d="M856.727,1087.41c0,0,66.706,27.787,52.963,41.935c-13.75,14.155-136.113,37.273-172.756,40.865
					l-36.796-25.649C718.213,1121.364,845.261,1092.612,856.727,1087.41z"/>
				<path class="st50" d="M757.926,1180.848c11.304-6.72,111.043-72.345,111.043-72.345l67.645-4.379
					c5.494,9.73,8.74,55.15-15.782,71.025c-27.955,18.103-99.855,38.467-138.961,44.473l0,0l-27.485-35.953
					C755.887,1182.325,757.111,1181.337,757.926,1180.848z"/>
				<path class="st50" d="M754.387,1183.669l27.485,35.953c-7.494,25.827-85.435,103.839-85.435,103.839
					c-11.719,2.389-24.529-4.476-25.156-14.262C677.203,1296.961,731.865,1209.417,754.387,1183.669z"/>
				
					<linearGradient id="SVGID_31_" gradientUnits="userSpaceOnUse" x1="2041.918" y1="1001.4231" x2="1835.4841" y2="791.9083" gradientTransform="matrix(0.9905 -0.138 -0.138 -0.9905 -1046.7693 2337.7825)">
					<stop  offset="0" style="stop-color:#20196F"/>
					<stop  offset="1" style="stop-color:#362E94"/>
				</linearGradient>
				<path class="st51" d="M700.139,1144.562L700.139,1144.562l36.796,25.649l0,0c6.033,31.049-2.662,113.277-8.341,144.338
					c-5.617,11.237-28.862,8.172-31.233,2.203C697.361,1316.753,685.85,1168.689,700.139,1144.562z"/>
			</g>
			<g>
				<g>
					<path class="st2" d="M773.647,1088.562c1.647-0.95,4.37-0.95,6.033,0l101.456,58.586c1.669,0.963,1.669,2.539,0,3.489
						l-69.154,39.932c-1.654,0.958-4.378,0.958-6.032,0l-101.48-58.578c-1.654-0.963-1.654-2.526,0-3.492L773.647,1088.562z"/>
					<g>
						<g>
							<polygon class="st52" points="805.834,1182.263 810.806,1185.129 808.319,1186.56 803.349,1183.686 							"/>
							<polygon class="st52" points="797.477,1177.438 802.441,1180.296 799.956,1181.727 794.998,1178.865 							"/>
							<polygon class="st52" points="789.121,1172.609 794.084,1175.48 791.605,1176.907 786.642,1174.049 							"/>
							<polygon class="st52" points="780.764,1167.781 785.736,1170.652 783.249,1172.087 778.287,1169.212 							"/>
							<polygon class="st52" points="772.408,1162.968 777.371,1165.823 774.893,1167.254 769.923,1164.391 							"/>
							<polygon class="st52" points="764.043,1158.14 769.007,1161.003 766.529,1162.425 761.566,1159.568 							"/>
							<polygon class="st52" points="755.687,1153.312 760.651,1156.178 758.173,1157.601 753.217,1154.742 							"/>
							<polygon class="st52" points="747.346,1148.483 752.294,1151.349 749.816,1152.785 744.853,1149.914 							"/>
							<polygon class="st52" points="738.982,1143.658 743.938,1146.521 741.46,1147.957 736.504,1145.09 							"/>
							<polygon class="st52" points="730.618,1138.834 735.588,1141.696 733.102,1143.131 728.139,1140.265 							"/>
							<polygon class="st52" points="722.261,1134.008 727.216,1136.876 724.747,1138.308 719.783,1135.44 							"/>
							<polygon class="st52" points="713.905,1129.18 718.875,1132.042 716.389,1133.478 711.427,1130.608 							"/>
						</g>
						<polygon class="st52" points="810.235,1175.148 819.155,1180.296 814.191,1183.162 805.272,1178.015 						"/>
						<polygon class="st52" points="814.852,1168.561 827.164,1175.679 822.201,1178.545 809.881,1171.423 						"/>
						<polygon class="st52" points="819.808,1161.774 835.528,1170.842 830.564,1173.713 814.852,1164.64 						"/>
						<polygon class="st52" points="836.705,1159.857 845.639,1165.005 838.914,1168.889 829.996,1163.741 						"/>
						<polygon class="st52" points="824.394,1152.748 833.32,1157.9 826.603,1161.774 817.675,1156.623 						"/>
						<polygon class="st52" points="812.082,1145.637 821,1150.781 814.29,1154.668 805.365,1149.516 						"/>
						<polygon class="st52" points="769.622,1121.117 778.534,1126.281 771.816,1130.143 762.897,1124.996 						"/>
						<polygon class="st52" points="748.747,1109.072 766.236,1119.168 759.527,1123.05 742.029,1112.944 						"/>
						<polygon class="st52" points="781.919,1128.213 808.689,1143.68 801.972,1147.553 775.193,1132.097 						"/>
						<polygon class="st52" points="799.54,1168.975 806.833,1173.186 801.879,1176.056 794.576,1171.842 						"/>
						<polygon class="st52" points="804.147,1162.392 811.459,1166.607 806.496,1169.47 799.187,1165.255 						"/>
						<polygon class="st52" points="808.896,1155.734 816.184,1159.945 811.228,1162.811 803.926,1158.596 						"/>
						<polygon class="st52" points="798.184,1149.557 805.488,1153.78 800.525,1156.647 793.23,1152.423 						"/>
						<polygon class="st52" points="787.496,1143.385 794.791,1147.595 789.836,1150.466 782.533,1146.251 						"/>
						<polygon class="st52" points="776.802,1137.208 784.103,1141.423 779.149,1144.289 771.838,1140.071 						"/>
						<polygon class="st52" points="766.098,1131.026 773.409,1135.246 768.437,1138.116 761.15,1133.897 						"/>
						<polygon class="st52" points="755.41,1124.855 762.705,1129.069 757.749,1131.935 750.44,1127.717 						"/>
						<polygon class="st52" points="738.405,1115.04 752.017,1122.895 747.054,1125.757 733.442,1117.907 						"/>
						<polygon class="st52" points="793.454,1156.212 800.754,1160.425 795.793,1163.288 788.505,1159.082 						"/>
						<polygon class="st52" points="782.758,1150.039 790.066,1154.257 785.097,1157.124 777.802,1152.901 						"/>
						<polygon class="st52" points="772.069,1143.862 779.372,1148.072 774.4,1150.943 767.107,1146.733 						"/>
						<polygon class="st52" points="761.366,1137.681 768.668,1141.9 763.713,1144.771 756.411,1140.551 						"/>
						<polygon class="st52" points="750.671,1131.507 757.98,1135.727 753.009,1138.594 745.714,1134.378 						"/>
						<polygon class="st52" points="730.271,1119.725 747.284,1129.546 742.314,1132.411 725.315,1122.6 						"/>
						<polygon class="st52" points="788.836,1162.803 796.138,1167.005 791.176,1169.875 783.882,1165.665 						"/>
						<polygon class="st52" points="778.14,1156.614 785.444,1160.833 780.489,1163.699 773.185,1159.484 						"/>
						<polygon class="st52" points="767.461,1150.449 774.763,1154.664 769.792,1157.526 762.489,1153.312 						"/>
						<polygon class="st52" points="756.758,1144.272 764.059,1148.487 759.096,1151.349 751.794,1147.135 						"/>
						<polygon class="st52" points="746.061,1138.092 753.362,1142.311 748.392,1145.169 741.097,1140.958 						"/>
						<polygon class="st52" points="735.366,1131.922 742.66,1136.137 737.704,1138.995 730.402,1134.782 						"/>
						<polygon class="st52" points="722.261,1124.357 731.964,1129.965 727.01,1132.826 717.298,1127.219 						"/>
					</g>
					<polygon class="st53" points="717.53,1136.744 797.708,1183.034 795.3,1184.427 715.119,1138.138 					"/>
					<polygon class="st52" points="781.919,1122.238 822.831,1145.861 848.257,1131.172 807.342,1107.561 					"/>
					
						<linearGradient id="SVGID_32_" gradientUnits="userSpaceOnUse" x1="148.3635" y1="858.2192" x2="327.5125" y2="858.2192" gradientTransform="matrix(1 0 0 -1 554.8691 2019.8898)">
						<stop  offset="0.5618" style="stop-color:#A3A9CA"/>
						<stop  offset="0.6124" style="stop-color:#CCD0F2"/>
					</linearGradient>
					<path class="st54" d="M881.135,1150.636l-69.154,39.932c-1.309,0.755-3.3,0.916-4.893,0.468
						c-0.009-0.003-0.994-0.382-1.138-0.468l-101.48-58.578c-0.108-0.067-0.215-0.141-0.308-0.212c-0.015,0-0.015-0.005-0.029-0.012
						l0,0c-0.016-0.02-0.038-0.034-0.061-0.059c-0.062-0.05-0.116-0.096-0.17-0.141c-0.03-0.025-0.061-0.049-0.084-0.079
						c-0.046-0.059-0.116-0.125-0.17-0.187c-0.008-0.012-0.015-0.012-0.015-0.029c-0.009,0-0.016-0.008-0.016-0.008
						c-0.062-0.075-0.116-0.158-0.154-0.236c-0.138-0.232-0.215-0.477-0.231-0.718l0,0v1.457h0.016
						c-0.016,0.635,0.392,1.278,1.223,1.767l101.48,58.578c2.416,1.194,5.87,0.967,6.901,0.743c1.03-0.232,1.955-0.485,3.032-0.717
						l65.252-37.679c0.845-0.49,1.255-1.129,1.246-1.771v-3.775C882.374,1149.537,881.959,1150.163,881.135,1150.636z"/>
				</g>
			</g>
			<g>
				<path class="st55" d="M768.469,1099.264c-7.734,4.134-24.332,6.654-29.164,10.9c-4.855,4.252-5.902,16.775-2.279,20.779
					c3.617,4.017,7.772,3.859,5.694,0c-2.085-3.855-1.539-11.339,4.224-11.934c11.135-1.165-2.917,11.157,2.347,11.27
					c4.887,0.108,7.011-6.206,12.966-10.755c5.956-4.555,10.134-5.959,15.712-10.873
					C782.919,1104.32,768.469,1099.264,768.469,1099.264z"/>
				<path class="st22" d="M850.289,944.603c-29.65,18.967-26.48,90.787-29.334,94.708c-2.839,3.909-34.02,36.438-56.257,59.953
					c3.193,4.86,12.042,13.256,12.042,13.256c12.766-9.016,53.702-30.168,62.297-45.654
					C847.641,1051.384,850.289,944.603,850.289,944.603z"/>
			</g>
			<g>
				
					<linearGradient id="SVGID_33_" gradientUnits="userSpaceOnUse" x1="799.0673" y1="987.9245" x2="680.078" y2="987.9245" gradientTransform="matrix(1 0 0 -1 145.2549 2019.8898)">
					<stop  offset="0" style="stop-color:#DFE4F4"/>
					<stop  offset="1" style="stop-color:#FFFFFF"/>
				</linearGradient>
				<path class="st56" d="M933.708,966.687c-10.118-12.677-35.003-30.349-51.302-31.553c-27.717-2.047-39.347,11.246-49.086,39.338
					c-6.154,17.753-2.047,99.581-7.987,124.061c2.939,12.92,22.151,19.915,31.155,21.885c39.112,8.579,81.034,16.94,83.74-7.898
					C945.085,1067.96,948.32,981.294,933.708,966.687z"/>
			</g>
			<g>
				<path class="st55" d="M885.902,898.349c1.014-8.985-30.019,9.295-28.773,21.156c1.017,9.65,3.816,18.138-5.932,24.174
					c-3.356,2.693-14.658,18.917,2.831,21.641c20.445,3.181,40.599-13.563,50.356-22.319
					C893.472,936.84,882.613,927.451,885.902,898.349z"/>
				<path class="st55" d="M893.211,893.029l-12.605-17.733h-54.871v27.49c0,22.892,12.29,38.563,27.424,38.563
					c14.711,0,28.37-12.177,29.079-29.652l6.67-2.304L893.211,893.029z"/>
				<path class="st57" d="M854.437,950.181c13.105,0,29.347-21.057,27.802-38.477c-0.662,16.42-14.707,28.27-28.359,29.644
					c-1.153,0.966-1.755,1.316-2.683,2.331c-0.261,0.207-0.576,0.534-0.908,0.923C850.289,947.269,852.051,950.181,854.437,950.181z
					"/>
				<path class="st50" d="M836.784,889.011c-20.113,11.03-50.399-3.932-19.906-22.727c28.355-17.472,50.592-21.784,66.643-2.479
					c24.178,29.102,7.019,65.626,5.117,63.048c-6.309-8.495-0.185-21.075-10.611-23.685c0.67-5.995-0.591-19.644-5.333-9.761
					c-4.986,10.393-8.593-3.913-10.879-9.388C859.469,878.396,852.512,880.398,836.784,889.011z"/>
			</g>
			<g>
				<path class="st55" d="M823.802,1124.5c-11.551,8.065-14.714,3.082-20.901,5.866c-6.185,2.783-12.066,7.053-14.181,8.517
					c-2.132,1.465,5.086,1.179,8.158,0c-7.019,5.866-7.618,13.569-6.309,17.016c1.507,3.945,11.464,7.687,13.749,5.476
					c9.589-9.247,7.919-12.892,21.016-16.319c4.693-1.219,11.412-8.122,11.412-8.122L823.802,1124.5z"/>
				
					<linearGradient id="SVGID_34_" gradientUnits="userSpaceOnUse" x1="2501.0369" y1="915.9139" x2="2378.1118" y2="1040.4147" gradientTransform="matrix(-1 0 0 -1 3331.2236 2019.8898)">
					<stop  offset="0" style="stop-color:#DFE4F4"/>
					<stop  offset="1" style="stop-color:#CED3F8"/>
				</linearGradient>
				<path class="st58" d="M919.334,962.558c10.472-1.797,19.729,6.652,21.691,24.492c3.186,29.098-15.353,71.243-25.149,86.909
					c-9.796,15.664-72.601,63.779-79.941,67.011c-2.917-4.219-13.482-16.845-13.99-17.675c7.433-8.383,58.159-61.411,64.022-77.124
					C894.509,1023.367,886.478,968.198,919.334,962.558z"/>
			</g>
			<g>
				<path class="st32" d="M679.55,1086.014l97.821,56.3c1.586,0.916,2.925,2.228,3.848,3.804l25.216,42.79
					c0.477,0.796-0.415,1.697-1.216,1.236l-102.094-58.756c-0.807-0.465-1.478-1.137-1.97-1.941l-23.597-40.042
					C675.801,1086.438,677.052,1084.579,679.55,1086.014z"/>
				
					<linearGradient id="SVGID_35_" gradientUnits="userSpaceOnUse" x1="2523.312" y1="882.8123" x2="2654.123" y2="882.8123" gradientTransform="matrix(-1 0 0 -1 3331.2236 2019.8898)">
					<stop  offset="0.3321" style="stop-color:#6B67E9"/>
					<stop  offset="0.4147" style="stop-color:#807DFB"/>
				</linearGradient>
				<path class="st59" d="M806.434,1188.908l-25.216-42.79c-0.931-1.576-2.262-2.888-3.848-3.804l-97.821-56.3
					c-1.131-0.639-1.97-0.6-2.433-0.104l-0.016-0.019c0,0,0.723-0.84,1.4-1.398l0.008,0.017c0.473-0.444,1.3-0.471,2.385,0.158
					l97.822,56.285c1.592,0.925,2.915,2.231,3.84,3.816l25.229,42.793c0.215,0.36,0.131,0.726-0.077,0.995v0.009
					c0,0.008-0.015,0.02-0.032,0.029c-0.023,0.029-0.046,0.054-0.077,0.083c-0.352,0.328-1.13,1.137-1.284,1.29
					C806.572,1189.704,806.658,1189.297,806.434,1188.908z"/>
			</g>
		</g>
		<g id="Cloud">
			<path class="st60" d="M1226.911,249.663l-19.378,11.183c-11.313,6.534-26.893-29.134-39.558-21.823l-33.958,19.603
				c-25.319,14.612-16.182-27.945-54.051-6.078c-44.5,25.695-40.858,77.269-66.176,91.89l-33.958,19.603
				c-12.655,7.312-16.115,37.574-27.431,44.109l-19.379,11.183c-4.211,2.437-12.271,9.168-12.275,17.984
				c5.754-3.323,159.221-91.923,159.221-91.923s153.456-88.606,159.222-91.928C1239.188,244.649,1231.127,247.223,1226.911,249.663z
				"/>
		</g>
	</g>
</g>
</svg>
