<?xml version="1.0" encoding="utf-8"?>
<!-- Generator: Adobe Illustrator 24.0.2, SVG Export Plug-In . SVG Version: 6.00 Build 0)  -->
<svg version="1.1" id="Layer_1" xmlns="http://www.w3.org/2000/svg" xmlns:xlink="http://www.w3.org/1999/xlink" x="0px" y="0px"
	 viewBox="0 0 2290.884 2020.845" style="enable-background:new 0 0 2290.884 2020.845;" xml:space="preserve">
<style type="text/css">
	.st0{fill:url(#SVGID_1_);}
	.st1{fill:#E8ECF7;}
	.st2{fill:#FFFFFF;}
	.st3{fill:url(#SVGID_2_);}
	.st4{fill:#BBC0E6;}
	.st5{fill:#CED3F8;}
	.st6{fill:#F6F6FB;}
	.st7{fill:url(#SVGID_3_);}
	.st8{fill:#CC360E;}
	.st9{fill:#FC780B;}
	.st10{fill:#FFAD02;}
	.st11{fill:url(#SVGID_4_);}
	.st12{fill:#423EAF;}
	.st13{fill:#5652CC;}
	.st14{fill:#807DFB;}
	.st15{fill:#DAE0F5;}
	.st16{fill:url(#SVGID_5_);}
	.st17{fill:url(#SVGID_6_);}
	.st18{fill:#EF4E16;}
	.st19{fill:url(#SVGID_7_);}
	.st20{fill:url(#SVGID_8_);}
	.st21{fill:url(#SVGID_9_);}
	.st22{fill:#F1F1F6;}
	.st23{fill:#6B67E9;}
	.st24{fill:url(#SVGID_10_);}
	.st25{fill:url(#SVGID_11_);}
	.st26{fill:url(#SVGID_12_);}
	.st27{fill:url(#SVGID_13_);}
	.st28{fill:url(#SVGID_14_);}
	.st29{fill:url(#SVGID_15_);}
	.st30{fill:url(#SVGID_16_);}
	.st31{fill:url(#SVGID_17_);}
	.st32{fill:url(#SVGID_18_);}
	.st33{fill:url(#SVGID_19_);}
	.st34{fill:url(#SVGID_20_);}
	.st35{fill:#C4CAE9;}
	.st36{fill:url(#SVGID_21_);}
	.st37{fill:url(#SVGID_22_);}
	.st38{fill:url(#SVGID_23_);}
	.st39{fill:#1E1C6B;}
	.st40{fill:url(#SVGID_24_);}
	.st41{fill:url(#SVGID_25_);}
	.st42{fill:url(#SVGID_26_);}
	.st43{fill:#FFD3AB;}
	.st44{fill:url(#SVGID_27_);}
	.st45{fill:url(#SVGID_28_);}
	.st46{fill:#DCE1F4;}
	.st47{fill:#F7F7FC;}
	.st48{fill:#A3A9D0;}
	.st49{fill:url(#SVGID_29_);}
	.st50{fill:url(#SVGID_30_);}
	.st51{fill:url(#SVGID_31_);}
	.st52{fill:#FCBA06;}
	.st53{fill:#DFE4F4;}
	.st54{fill:url(#SVGID_32_);}
	.st55{fill:url(#SVGID_33_);}
	.st56{fill:url(#SVGID_34_);}
	.st57{fill:url(#SVGID_35_);}
	.st58{fill:url(#SVGID_36_);}
	.st59{fill:url(#SVGID_37_);}
	.st60{fill:#F5F5FA;}
	.st61{fill:#BBBFE2;}
	.st62{fill:url(#SVGID_38_);}
	.st63{fill:#CED2F4;}
	.st64{fill:url(#SVGID_39_);}
	.st65{fill:url(#SVGID_40_);}
	.st66{fill:url(#SVGID_41_);}
</style>
<g id="Background">
</g>
<g id="Name">
</g>
<g id="Background_1_">
</g>
<g id="Name_1_">
</g>
<g>
	<g id="Wave_shape">
		
			<linearGradient id="SVGID_1_" gradientUnits="userSpaceOnUse" x1="990.0089" y1="412.9525" x2="1368.8303" y2="1371.1481" gradientTransform="matrix(1 0 0 -1 0 2019.8898)">
			<stop  offset="0" style="stop-color:#EFEFF3"/>
			<stop  offset="0.7535" style="stop-color:#FAFAFB;stop-opacity:0.2465"/>
			<stop  offset="1" style="stop-color:#FFFFFF;stop-opacity:0"/>
		</linearGradient>
		<path class="st0" d="M342.899,1618.406c312.716,58.318,379.819-130.557,773.938,49.553
			c324.38,148.241,787.893,55.36,823.317-169.847c24.167-153.637,96.173-197.21,196.009-209.074
			c315.031-37.438,120.05-493.365-323.973-517.604c-485.884-26.524-546.206-66.426-658.369-192.233
			c-184.96-207.46-472.217,105.031-586.107,271.965c-98.179,143.904-385.062,112.678-503.655,276.33
			C-88.381,1337.857,41.776,1562.25,342.899,1618.406z"/>
	</g>
	<g id="Abstract_shapes">
		<path class="st1" d="M314.622,945.105l41.91,90.299c2.533,5.457,9.202,7.568,14.414,4.559l114.494-66.105
			c8.375-4.837,6.003-17.513-3.555-18.992l-156.404-24.199C317.394,929.415,311.178,937.679,314.622,945.105z"/>
		<path class="st1" d="M1899.912,1625.473c-34.22-19.753-89.7-19.753-123.915,0c-34.22,19.759-34.22,51.792,0,71.546
			c34.22,19.759,89.701,19.759,123.92,0C1934.137,1677.266,1934.132,1645.233,1899.912,1625.473z M1805.234,1680.138
			c-18.068-10.434-18.073-27.349,0-37.783c18.073-10.434,47.37-10.434,65.441,0c18.073,10.434,18.073,27.349,0,37.783
			C1852.603,1690.572,1823.306,1690.572,1805.234,1680.138z"/>
		<g>
			<path class="st1" d="M1985.985,623.967c6.033,3.482,15.809,3.482,21.842,0c6.031-3.482,6.031-9.13,0-12.611
				c-6.033-3.482-15.81-3.482-21.842,0C1979.953,614.838,1979.953,620.485,1985.985,623.967z"/>
			<path class="st1" d="M2039.425,654.82c6.03,3.482,15.809,3.482,21.84,0c6.033-3.482,6.033-9.128,0-12.61
				c-6.031-3.482-15.809-3.482-21.84,0S2033.394,651.338,2039.425,654.82z"/>
			<path class="st1" d="M2092.865,685.671c6.031,3.482,15.81,3.482,21.84,0c6.031-3.482,6.031-9.128,0-12.61
				c-6.03-3.482-15.809-3.482-21.84,0C2086.831,676.543,2086.831,682.189,2092.865,685.671z"/>
			<path class="st1" d="M2168.146,703.913c-6.033-3.482-15.81-3.482-21.844,0c-6.031,3.482-6.031,9.128,0,12.61
				c6.033,3.482,15.81,3.482,21.844,0C2174.177,713.042,2174.177,707.394,2168.146,703.913z"/>
			<path class="st1" d="M1932.546,654.82c6.031,3.482,15.809,3.482,21.84,0c6.033-3.482,6.033-9.128,0-12.61
				c-6.031-3.482-15.809-3.482-21.84,0C1926.516,645.69,1926.516,651.338,1932.546,654.82z"/>
			<path class="st1" d="M1985.985,685.671c6.033,3.482,15.812,3.482,21.842,0c6.031-3.482,6.031-9.128,0-12.61
				c-6.03-3.482-15.81-3.482-21.842,0C1979.953,676.543,1979.953,682.189,1985.985,685.671z"/>
			<path class="st1" d="M2039.425,716.524c6.033,3.482,15.809,3.482,21.842,0c6.03-3.482,6.03-9.128-0.003-12.61
				c-6.031-3.482-15.807-3.482-21.84,0C2033.394,707.394,2033.394,713.042,2039.425,716.524z"/>
			<path class="st1" d="M2114.705,734.771c-6.03-3.482-15.809-3.487-21.84,0c-6.03,3.482-6.03,9.124,0,12.606
				c6.031,3.482,15.81,3.482,21.84,0C2120.736,743.894,2120.736,738.253,2114.705,734.771z"/>
			<path class="st1" d="M1879.106,685.671c6.033,3.482,15.812,3.482,21.844,0s6.03-9.128,0-12.61c-6.033-3.482-15.81-3.482-21.844,0
				C1873.076,676.543,1873.076,682.189,1879.106,685.671z"/>
			<path class="st1" d="M1932.546,716.524c6.031,3.482,15.809,3.482,21.84,0c6.033-3.482,6.033-9.128,0-12.61
				c-6.031-3.482-15.809-3.482-21.84,0C1926.516,707.394,1926.516,713.042,1932.546,716.524z"/>
			<path class="st1" d="M1985.987,747.376c6.03,3.482,15.81,3.482,21.84,0c6.031-3.482,6.031-9.124,0-12.606
				c-6.03-3.487-15.81-3.487-21.84,0C1979.953,738.253,1979.953,743.894,1985.987,747.376z"/>
			<path class="st1" d="M2061.268,765.623c-6.033-3.482-15.81-3.482-21.842,0c-6.03,3.482-6.03,9.128,0,12.61
				c6.033,3.482,15.809,3.482,21.842,0C2067.299,774.751,2067.299,769.104,2061.268,765.623z"/>
			<ellipse class="st1" cx="1836.589" cy="710.219" rx="15.444" ry="8.917"/>
			<path class="st1" d="M1879.109,747.376c6.03,3.482,15.81,3.482,21.84,0c6.03-3.482,6.03-9.124,0-12.611
				c-6.03-3.482-15.81-3.482-21.84,0C1873.076,738.253,1873.076,743.894,1879.109,747.376z"/>
			<path class="st1" d="M1932.546,778.233c6.031,3.482,15.809,3.482,21.84,0c6.033-3.487,6.033-9.128,0-12.61
				c-6.031-3.482-15.809-3.482-21.84,0C1926.516,769.104,1926.516,774.746,1932.546,778.233z"/>
			<path class="st1" d="M2007.827,796.474c-6.03-3.482-15.81-3.482-21.84,0c-6.03,3.482-6.03,9.128,0,12.61
				c6.03,3.482,15.81,3.482,21.84,0C2013.858,805.604,2013.858,799.956,2007.827,796.474z"/>
			<path class="st1" d="M1794.071,734.765c-6.033-3.482-15.809-3.482-21.842,0c-6.03,3.487-6.03,9.13,0,12.611
				c6.033,3.482,15.81,3.482,21.842,0C1800.101,743.894,1800.101,738.253,1794.071,734.765z"/>
			<path class="st1" d="M1847.509,765.623c-6.03-3.482-15.809-3.482-21.84,0c-6.03,3.482-6.03,9.123,0,12.61
				c6.031,3.482,15.809,3.482,21.84,0C1853.542,774.746,1853.542,769.104,1847.509,765.623z"/>
			<path class="st1" d="M1900.949,796.474c-6.03-3.482-15.81-3.482-21.84,0c-6.033,3.482-6.033,9.128,0,12.61
				c6.03,3.482,15.81,3.482,21.84,0C1906.979,805.603,1906.98,799.956,1900.949,796.474z"/>
			<path class="st1" d="M1954.386,827.327c-6.031-3.482-15.809-3.482-21.84,0c-6.03,3.482-6.03,9.128,0,12.61
				c6.034,3.482,15.809,3.482,21.842,0C1960.42,836.456,1960.42,830.809,1954.386,827.327z"/>
		</g>
		<g>
			<path class="st2" d="M584.453,1491.58c-6.033-3.482-15.81-3.482-21.844,0c-6.028,3.484-6.028,9.126,0,12.61
				c6.033,3.482,15.812,3.482,21.844,0C590.484,1500.709,590.484,1495.065,584.453,1491.58z"/>
			<path class="st2" d="M531.012,1522.435c-6.031-3.482-15.809-3.482-21.84,0c-6.03,3.482-6.03,9.126,0,12.61
				c6.031,3.482,15.81,3.482,21.84,0C537.046,1531.561,537.046,1525.916,531.012,1522.435z"/>
			<path class="st2" d="M477.575,1553.287c-6.031-3.482-15.81-3.482-21.84,0c-6.033,3.482-6.033,9.129,0,12.61
				c6.03,3.482,15.809,3.482,21.84,0C483.606,1562.416,483.605,1556.769,477.575,1553.287z"/>
			<path class="st2" d="M424.137,1584.139c-6.033-3.482-15.812-3.482-21.842,0c-6.031,3.482-6.031,9.128,0,12.61
				c6.033,3.482,15.81,3.482,21.842,0C430.165,1593.267,430.165,1587.621,424.137,1584.139z"/>
			<path class="st2" d="M370.696,1614.994c-6.033-3.482-15.81-3.482-21.842,0c-6.028,3.482-6.028,9.126,0,12.61
				c6.033,3.482,15.809,3.482,21.842,0C376.727,1624.12,376.727,1618.476,370.696,1614.994z"/>
		</g>
		<path class="st1" d="M864.958,526.615l48.017,27.721c7.322,4.227,6.403,11.61-2.051,16.492l-43.914,25.354
			c-8.452,4.88-21.242,5.408-28.562,1.183l-48.017-27.721c-7.322-4.227-6.403-11.61,2.051-16.492l43.914-25.354
			C844.851,522.918,857.638,522.388,864.958,526.615z"/>
	</g>
	<g id="Little_blocks">
		<g>
			
				<linearGradient id="SVGID_2_" gradientUnits="userSpaceOnUse" x1="1933.3585" y1="962.8665" x2="2149.6836" y2="962.8665" gradientTransform="matrix(1 0 0 -1 0 2019.8898)">
				<stop  offset="0" style="stop-color:#CFD5F1"/>
				<stop  offset="0.2826" style="stop-color:#E1E5F6"/>
				<stop  offset="0.7193" style="stop-color:#F7F8FD"/>
				<stop  offset="1" style="stop-color:#FFFFFF"/>
			</linearGradient>
			<polygon class="st3" points="2065.694,1008.523 1933.359,1008.523 2017.359,1057.031 1933.359,1105.524 2065.694,1105.524 
				2149.684,1057.031 			"/>
			<polygon class="st4" points="1933.359,1105.524 2017.359,1057.031 2017.359,958.556 1933.359,1007.033 			"/>
			<polygon class="st5" points="1933.359,1105.524 1849.357,1057.031 1849.357,958.556 1933.359,1007.033 			"/>
			<polygon class="st6" points="1933.359,1007.033 1849.357,958.556 1933.359,910.072 2017.359,958.556 			"/>
		</g>
		<g>
			
				<linearGradient id="SVGID_3_" gradientUnits="userSpaceOnUse" x1="1274.3195" y1="397.6024" x2="1540.5361" y2="397.6024" gradientTransform="matrix(1 0 0 -1 0 2019.8898)">
				<stop  offset="0" style="stop-color:#CFD5F1"/>
				<stop  offset="0.2826" style="stop-color:#E1E5F6"/>
				<stop  offset="0.7193" style="stop-color:#F7F8FD"/>
				<stop  offset="1" style="stop-color:#FFFFFF"/>
			</linearGradient>
			<polygon class="st7" points="1437.177,1562.601 1274.319,1562.601 1377.693,1622.299 1274.319,1681.974 1437.177,1681.974 
				1540.536,1622.299 			"/>
			<polygon class="st8" points="1274.319,1681.974 1377.693,1622.299 1377.693,1501.111 1274.319,1560.768 			"/>
			<polygon class="st9" points="1274.319,1681.974 1170.945,1622.299 1170.945,1501.111 1274.319,1560.768 			"/>
			<polygon class="st10" points="1274.319,1560.768 1170.945,1501.111 1274.319,1441.445 1377.693,1501.111 			"/>
		</g>
		<g>
			
				<linearGradient id="SVGID_4_" gradientUnits="userSpaceOnUse" x1="1364.8444" y1="355.8489" x2="1517.9929" y2="355.8489" gradientTransform="matrix(1 0 0 -1 0 2019.8898)">
				<stop  offset="0" style="stop-color:#CFD5F1"/>
				<stop  offset="0.2826" style="stop-color:#E1E5F6"/>
				<stop  offset="0.7193" style="stop-color:#F7F8FD"/>
				<stop  offset="1" style="stop-color:#FFFFFF"/>
			</linearGradient>
			<polygon class="st11" points="1458.532,1629.705 1364.844,1629.705 1424.313,1664.047 1364.844,1698.377 1458.532,1698.377 
				1517.993,1664.047 			"/>
			<polygon class="st12" points="1364.844,1698.377 1424.313,1664.047 1424.313,1594.33 1364.844,1628.649 			"/>
			<polygon class="st13" points="1364.844,1698.377 1305.375,1664.047 1305.375,1594.33 1364.844,1628.649 			"/>
			<polygon class="st14" points="1364.844,1628.649 1305.375,1594.33 1364.844,1560.006 1424.313,1594.33 			"/>
		</g>
		<polygon class="st15" points="1305.375,1594.33 1326.006,1606.237 1385.476,1571.918 1364.841,1560.007 		"/>
		<polygon class="st15" points="1336.431,1681.974 1326.006,1606.237 1305.375,1594.33 1305.375,1664.047 		"/>
		
			<linearGradient id="SVGID_5_" gradientUnits="userSpaceOnUse" x1="272.2439" y1="765.8704" x2="552.1897" y2="765.8704" gradientTransform="matrix(1 0 0 -1 0 2019.8898)">
			<stop  offset="0" style="stop-color:#C4CAE9"/>
			<stop  offset="0.0823" style="stop-color:#CACFEB"/>
			<stop  offset="0.6849" style="stop-color:#F0F2FA;stop-opacity:0.5"/>
			<stop  offset="1" style="stop-color:#FFFFFF;stop-opacity:0"/>
		</linearGradient>
		<rect x="272.244" y="1169.439" class="st16" width="279.946" height="169.162"/>
		<g>
			<polygon class="st6" points="272.244,1174.267 129.921,1092.098 272.244,1009.923 414.567,1092.098 			"/>
			<polygon class="st5" points="272.244,1338.601 129.921,1256.431 129.921,1092.098 272.244,1174.267 			"/>
			<polygon class="st4" points="272.244,1338.601 414.572,1256.431 414.572,1092.098 272.244,1174.267 			"/>
			<g>
				<polygon class="st15" points="272.244,1037.452 260.865,1030.881 272.244,1024.312 283.628,1030.881 				"/>
				<polygon class="st15" points="298.753,1052.756 287.373,1046.186 298.753,1039.616 310.136,1046.186 				"/>
				<polygon class="st15" points="325.266,1068.059 313.879,1061.49 325.266,1054.915 336.636,1061.49 				"/>
				<polygon class="st15" points="351.765,1083.364 340.387,1076.79 351.765,1070.22 363.149,1076.79 				"/>
				<polygon class="st15" points="378.274,1098.664 366.891,1092.098 378.274,1085.527 389.656,1092.098 				"/>
				<polygon class="st15" points="245.736,1052.756 234.356,1046.186 245.736,1039.616 257.119,1046.186 				"/>
				<polygon class="st15" points="272.244,1068.059 260.865,1061.49 272.244,1054.915 283.628,1061.49 				"/>
				<polygon class="st15" points="298.753,1083.364 287.373,1076.79 298.753,1070.22 310.136,1076.79 				"/>
				<polygon class="st15" points="325.266,1098.664 313.879,1092.098 325.266,1085.527 336.636,1092.098 				"/>
				<polygon class="st15" points="351.765,1113.967 340.387,1107.398 351.765,1100.827 363.149,1107.398 				"/>
				<polygon class="st15" points="219.236,1068.059 207.852,1061.49 219.236,1054.915 230.618,1061.49 				"/>
				<polygon class="st15" points="245.736,1083.364 234.356,1076.79 245.736,1070.22 257.119,1076.79 				"/>
				<polygon class="st15" points="272.244,1098.664 260.865,1092.098 272.244,1085.527 283.628,1092.098 				"/>
				<polygon class="st15" points="298.753,1113.967 287.373,1107.398 298.753,1100.827 310.136,1107.398 				"/>
				<polygon class="st15" points="325.266,1129.268 313.879,1122.702 325.266,1116.132 336.636,1122.702 				"/>
				<polygon class="st15" points="192.727,1083.364 181.345,1076.79 192.727,1070.22 204.11,1076.79 				"/>
				<polygon class="st15" points="219.236,1098.664 207.852,1092.098 219.236,1085.527 230.618,1092.098 				"/>
				<polygon class="st15" points="245.736,1113.967 234.356,1107.398 245.736,1100.827 257.119,1107.398 				"/>
				<polygon class="st15" points="272.244,1129.268 260.865,1122.702 272.244,1116.132 283.628,1122.702 				"/>
				<polygon class="st15" points="298.753,1144.579 287.373,1138.005 298.753,1131.436 310.136,1138.005 				"/>
				<polygon class="st15" points="166.218,1098.664 154.839,1092.098 166.218,1085.527 177.602,1092.098 				"/>
				<polygon class="st15" points="192.727,1113.967 181.345,1107.398 192.727,1100.827 204.11,1107.398 				"/>
				<polygon class="st15" points="219.236,1129.268 207.852,1122.702 219.236,1116.132 230.618,1122.702 				"/>
				<polygon class="st15" points="245.736,1144.579 234.356,1138.005 245.736,1131.436 257.119,1138.005 				"/>
				<polygon class="st15" points="272.244,1159.879 260.865,1153.313 272.244,1146.739 283.628,1153.313 				"/>
				<polygon class="st15" points="153.765,1133.383 142.383,1126.812 142.383,1113.673 153.765,1120.242 				"/>
				<polygon class="st15" points="180.266,1148.682 168.89,1142.117 168.89,1128.973 180.266,1135.546 				"/>
				<polygon class="st15" points="206.774,1163.99 195.394,1157.417 195.394,1144.28 206.774,1150.846 				"/>
				<polygon class="st15" points="233.282,1179.295 221.903,1172.721 221.903,1159.585 233.282,1166.154 				"/>
				<polygon class="st15" points="259.791,1194.598 248.412,1188.024 248.412,1174.885 259.791,1181.455 				"/>
				<polygon class="st15" points="153.765,1163.987 142.383,1157.417 142.383,1144.28 153.765,1150.846 				"/>
				<polygon class="st15" points="180.266,1179.29 168.89,1172.721 168.89,1159.585 180.266,1166.154 				"/>
				<polygon class="st15" points="206.774,1194.598 195.394,1188.024 195.394,1174.885 206.774,1181.455 				"/>
				<polygon class="st15" points="233.282,1209.902 221.903,1203.329 221.903,1190.193 233.282,1196.758 				"/>
				<polygon class="st15" points="259.791,1225.206 248.412,1218.636 248.412,1205.492 259.791,1212.066 				"/>
				<polygon class="st15" points="153.765,1194.595 142.383,1188.024 142.383,1174.885 153.765,1181.455 				"/>
				<polygon class="st15" points="180.266,1209.902 168.89,1203.329 168.89,1190.193 180.266,1196.758 				"/>
				<polygon class="st15" points="206.774,1225.206 195.394,1218.636 195.394,1205.492 206.774,1212.066 				"/>
				<polygon class="st15" points="233.282,1240.51 221.903,1233.936 221.903,1220.8 233.282,1227.369 				"/>
				<polygon class="st15" points="259.791,1255.813 248.412,1249.24 248.412,1236.1 259.791,1242.67 				"/>
				<polygon class="st15" points="153.765,1225.202 142.383,1218.636 142.383,1205.492 153.765,1212.066 				"/>
				<polygon class="st15" points="180.266,1240.51 168.89,1233.936 168.89,1220.8 180.266,1227.369 				"/>
				<polygon class="st15" points="206.774,1255.813 195.394,1249.24 195.394,1236.1 206.774,1242.67 				"/>
				<polygon class="st15" points="233.282,1271.122 221.903,1264.544 221.903,1251.404 233.282,1257.974 				"/>
				<polygon class="st15" points="259.791,1286.418 248.412,1279.848 248.412,1266.704 259.791,1273.278 				"/>
				<polygon class="st15" points="153.765,1255.813 142.383,1249.24 142.383,1236.1 153.765,1242.67 				"/>
				<polygon class="st15" points="180.266,1271.122 168.89,1264.544 168.89,1251.404 180.266,1257.974 				"/>
				<polygon class="st15" points="206.774,1286.418 195.394,1279.848 195.394,1266.704 206.774,1273.278 				"/>
				<polygon class="st15" points="233.282,1301.722 221.903,1295.152 221.903,1282.008 233.282,1288.581 				"/>
				<polygon class="st15" points="259.791,1317.025 248.412,1310.456 248.412,1297.315 259.791,1303.889 				"/>
				<polygon class="st15" points="390.732,1133.383 402.111,1126.812 402.111,1113.673 390.732,1120.242 				"/>
				<polygon class="st15" points="364.226,1148.682 375.605,1142.117 375.605,1128.973 364.226,1135.546 				"/>
				<polygon class="st15" points="337.719,1163.99 349.097,1157.417 349.097,1144.28 337.719,1150.846 				"/>
				<polygon class="st15" points="311.21,1179.295 322.589,1172.721 322.589,1159.585 311.21,1166.154 				"/>
				<polygon class="st15" points="284.702,1194.598 296.084,1188.024 296.084,1174.885 284.702,1181.455 				"/>
				<polygon class="st15" points="390.732,1163.987 402.111,1157.417 402.111,1144.28 390.732,1150.846 				"/>
				<polygon class="st15" points="364.226,1179.29 375.605,1172.721 375.605,1159.585 364.226,1166.154 				"/>
				<polygon class="st15" points="337.719,1194.598 349.097,1188.024 349.097,1174.885 337.719,1181.455 				"/>
				<polygon class="st15" points="311.21,1209.902 322.589,1203.329 322.589,1190.193 311.21,1196.758 				"/>
				<polygon class="st15" points="284.702,1225.206 296.084,1218.636 296.084,1205.492 284.702,1212.066 				"/>
				<polygon class="st15" points="390.732,1194.595 402.111,1188.024 402.111,1174.885 390.732,1181.455 				"/>
				<polygon class="st15" points="364.226,1209.902 375.605,1203.329 375.605,1190.193 364.226,1196.758 				"/>
				<polygon class="st15" points="337.719,1225.206 349.097,1218.636 349.097,1205.492 337.719,1212.066 				"/>
				<polygon class="st15" points="311.21,1240.51 322.589,1233.936 322.589,1220.8 311.21,1227.369 				"/>
				<polygon class="st15" points="284.702,1255.813 296.084,1249.24 296.084,1236.1 284.702,1242.67 				"/>
				<polygon class="st15" points="390.732,1225.202 402.111,1218.636 402.111,1205.492 390.732,1212.066 				"/>
				<polygon class="st15" points="364.226,1240.51 375.605,1233.936 375.605,1220.8 364.226,1227.369 				"/>
				<polygon class="st15" points="337.719,1255.813 349.097,1249.24 349.097,1236.1 337.719,1242.67 				"/>
				<polygon class="st15" points="311.21,1271.122 322.589,1264.544 322.589,1251.404 311.21,1257.974 				"/>
				<polygon class="st15" points="284.702,1286.418 296.084,1279.848 296.084,1266.704 284.702,1273.278 				"/>
				<polygon class="st15" points="390.732,1255.813 402.111,1249.24 402.111,1236.1 390.732,1242.67 				"/>
				<polygon class="st15" points="364.226,1271.122 375.605,1264.544 375.605,1251.404 364.226,1257.974 				"/>
				<polygon class="st15" points="337.719,1286.418 349.097,1279.848 349.097,1266.704 337.719,1273.278 				"/>
				<polygon class="st15" points="311.21,1301.722 322.589,1295.152 322.589,1282.008 311.21,1288.581 				"/>
				<polygon class="st15" points="284.702,1317.025 296.084,1310.456 296.084,1297.315 284.702,1303.889 				"/>
			</g>
		</g>
		<g>
			
				<linearGradient id="SVGID_6_" gradientUnits="userSpaceOnUse" x1="298.7548" y1="946.8289" x2="414.5672" y2="946.8289" gradientTransform="matrix(1 0 0 -1 0 2019.8898)">
				<stop  offset="0" style="stop-color:#CFD5F1"/>
				<stop  offset="0.2826" style="stop-color:#E1E5F6"/>
				<stop  offset="0.7193" style="stop-color:#F7F8FD"/>
				<stop  offset="1" style="stop-color:#FFFFFF"/>
			</linearGradient>
			<polygon class="st17" points="322.127,1038.724 298.755,1038.724 358.223,1073.066 298.755,1107.398 388.068,1107.398 
				414.567,1092.098 			"/>
			<polygon class="st18" points="298.755,1107.398 358.223,1073.066 358.223,1003.35 298.755,1037.67 			"/>
			<polygon class="st9" points="298.755,1107.398 239.285,1073.066 239.285,1003.35 298.755,1037.67 			"/>
			<polygon class="st10" points="298.755,1037.67 239.285,1003.35 298.755,969.025 358.223,1003.35 			"/>
		</g>
	</g>
	<g id="Coding_symbol">
		<g>
			<path class="st2" d="M825.189,719.706c0-19.368-13.726-43.131-30.498-52.818l-203.161-117.29
				c-16.772-9.674-30.491-1.758-30.491,17.611v193.828c0,19.376,13.719,43.138,30.491,52.819l203.161,117.29
				c16.772,9.688,30.498,1.77,30.498-17.591V719.706z"/>
			
				<linearGradient id="SVGID_7_" gradientUnits="userSpaceOnUse" x1="1264.3374" y1="1510.5261" x2="1492.8911" y2="1114.6593" gradientTransform="matrix(1 0 0 -1 -628.2943 2019.8898)">
				<stop  offset="0.4551" style="stop-color:#FC780B"/>
				<stop  offset="0.5431" style="stop-color:#F66610"/>
				<stop  offset="0.6348" style="stop-color:#EF4E16"/>
			</linearGradient>
			<path class="st19" d="M825.189,913.556v-193.85c0-19.368-13.726-43.131-30.498-52.818l-203.161-117.29
				c-8.285-4.776-15.819-5.253-21.326-2.187l7.983-4.644l0.02,0.027c5.575-3.569,13.411-3.314,22.1,1.705l203.161,117.289
				c16.772,9.68,30.492,33.449,30.492,52.818v193.828c0,10.145-3.784,17.102-9.761,20.073l-7.24,4.228
				C822.042,929.374,825.189,922.787,825.189,913.556z"/>
			<path class="st5" d="M622.526,709.128V693.17c2.802,1.441,4.914,2.17,6.334,2.193c1.419,0.022,2.648-0.608,3.685-1.894
				c1.037-1.286,1.747-3.236,2.131-5.852c0.307-1.951,0.461-5.562,0.461-10.839c0-8.599,0.345-14.396,1.037-17.389
				c0.691-2.993,1.938-4.998,3.743-6.018c1.803-1.021,4.433-1.131,7.89-0.333c2.341,0.554,6.027,2.283,11.057,5.188l3.052,1.761
				v15.892c-4.262-2.46-6.998-3.761-8.207-3.906c-1.209-0.141-2.101,0.183-2.677,0.981c-0.576,0.799-0.865,2.572-0.865,5.32
				c0,2.792-0.173,7.99-0.518,15.593c-0.193,4.277-0.692,7.546-1.496,9.808c-0.807,2.261-1.834,3.917-3.082,4.969
				c-1.248,1.053-3.159,1.79-5.729,2.212c2.265,2.814,4.117,5.647,5.556,8.495s2.543,5.935,3.311,9.259
				c0.769,3.326,1.267,7.469,1.497,12.435c0.267,7.514,0.403,12.289,0.403,14.329c0,2.926,0.308,5.142,0.921,6.649
				c0.614,1.508,1.545,2.92,2.793,4.24c1.247,1.318,3.945,3.175,8.091,5.569v15.96l-3.052-1.761
				c-5.183-2.993-9.156-5.764-11.921-8.313c-2.765-2.55-5.096-5.48-6.997-8.794c-1.901-3.315-3.178-6.788-3.829-10.423
				c-0.653-3.636-0.978-8.955-0.978-15.958c0-8.156-0.307-13.631-0.923-16.424c-0.845-4.033-2.121-7.308-3.828-9.824
				C628.677,713.776,626.057,711.39,622.526,709.128z"/>
			<path class="st5" d="M755.322,785.799c-2.803-1.441-4.915-2.173-6.334-2.194c-1.422-0.022-2.641,0.615-3.658,1.911
				c-1.016,1.299-1.736,3.243-2.159,5.835c-0.307,1.95-0.461,5.542-0.461,10.772c0,8.6-0.335,14.412-1.007,17.439
				c-0.673,3.024-1.911,5.047-3.715,6.068c-1.806,1.018-4.454,1.119-7.947,0.299c-2.342-0.554-6.028-2.283-11.057-5.187
				l-3.052-1.763v-15.958c4.107,2.371,6.795,3.623,8.062,3.757c1.267,0.133,2.198-0.194,2.793-0.98
				c0.595-0.788,0.901-2.528,0.921-5.22c0.019-2.694,0.182-7.764,0.49-15.211c0.192-4.499,0.71-7.891,1.555-10.174
				c0.843-2.282,1.967-3.984,3.368-5.103c1.402-1.12,3.197-1.778,5.384-1.978c-2.842-3.769-4.913-7.048-6.218-9.842
				c-1.805-3.968-3.033-8.401-3.686-13.299c-0.423-3.346-0.73-10.351-0.921-21.011c-0.039-3.347-0.299-5.714-0.778-7.098
				c-0.48-1.385-1.345-2.738-2.591-4.056c-1.248-1.319-4.041-3.23-8.38-5.736v-15.893l3.052,1.763
				c5.184,2.993,9.156,5.751,11.921,8.278c2.765,2.527,5.086,5.454,6.968,8.778c1.881,3.326,3.158,6.81,3.831,10.457
				c0.671,3.647,1.007,8.971,1.007,15.975c0,8.112,0.289,13.576,0.863,16.391c0.845,4.034,2.131,7.315,3.858,9.842
				c1.728,2.527,4.358,4.921,7.89,7.182L755.322,785.799L755.322,785.799z"/>
			<path class="st5" d="M663.64,723.361c0-4.186,2.938-5.882,6.562-3.789c3.624,2.092,6.564,7.182,6.564,11.368
				c0,4.185-2.939,5.882-6.564,3.789C666.578,732.635,663.64,727.545,663.64,723.361z"/>
			<path class="st5" d="M686.55,736.587c0-4.186,2.938-5.882,6.564-3.789c3.624,2.092,6.564,7.182,6.564,11.368
				c0,4.185-2.939,5.882-6.564,3.789C689.488,745.863,686.55,740.773,686.55,736.587z"/>
			<path class="st5" d="M709.461,749.813c0-4.186,2.938-5.882,6.563-3.789c3.626,2.092,6.564,7.182,6.564,11.368
				c0,4.185-2.938,5.882-6.564,3.788C712.399,759.089,709.461,754,709.461,749.813z"/>
		</g>
	</g>
	<g id="Shadow_from_laptop">
		
			<linearGradient id="SVGID_8_" gradientUnits="userSpaceOnUse" x1="794.0639" y1="894.4557" x2="2160.9622" y2="894.4557" gradientTransform="matrix(1 0 0 -1 0 2019.8898)">
			<stop  offset="0" style="stop-color:#C4C9E4"/>
			<stop  offset="0.2364" style="stop-color:#CACEE7"/>
			<stop  offset="0.5408" style="stop-color:#DADDEE"/>
			<stop  offset="0.8809" style="stop-color:#F4F5FA;stop-opacity:0.5"/>
			<stop  offset="1" style="stop-color:#FFFFFF;stop-opacity:0"/>
		</linearGradient>
		<path class="st20" d="M2160.961,827.766l-34.406-19.868c-10.261-5.924-35.433-10.766-55.954-10.766h-818.569
			c-20.516,0-450.277,268.869-450.277,268.869c-10.255,5.931-10.255,15.613,0,21.544l626.574,361.751
			c5.16,2.979,11.971,4.452,18.769,4.441l0,0h16.294l441.109-254.677l18.209-10.512h238.252L2160.961,827.766L2160.961,827.766z"/>
	</g>
	<g id="Laptop">
		<g>
			<path class="st12" d="M1879.578,1158.297c0,11.849-8.396,16.69-18.655,10.772l-626.572-361.751
				c-10.266-5.925-18.654-20.46-18.654-32.303V302.41c0-11.847,8.388-16.69,18.654-10.769l626.572,361.751
				c10.258,5.925,18.655,20.463,18.655,32.31L1879.578,1158.297L1879.578,1158.297z"/>
			
				<linearGradient id="SVGID_9_" gradientUnits="userSpaceOnUse" x1="1391.7153" y1="1827.9877" x2="1935.9902" y2="885.2757" gradientTransform="matrix(1 0 0 -1 0 2019.8898)">
				<stop  offset="0.5757" style="stop-color:#807CFB"/>
				<stop  offset="0.6122" style="stop-color:#1F196F"/>
			</linearGradient>
			<path class="st21" d="M1875.004,645.263l-626.577-361.752c-5.198-2.998-9.903-3.228-13.297-1.193v-0.011l-13.4,7.773l0.037,0.006
				c3.324-1.609,7.736-1.241,12.586,1.556l626.572,361.751c10.258,5.925,18.655,20.463,18.655,32.31v472.595
				c0,5.88-2.073,10.032-5.408,12.002v0.006l13.39-7.77l-0.037-0.005c3.753-1.777,6.134-6.072,6.134-12.357V677.57
				C1893.656,665.726,1885.259,651.188,1875.004,645.263z"/>
			<polygon class="st2" points="1234.351,313.178 1234.351,778.366 1860.923,1140.117 1860.923,674.929 			"/>
		</g>
		<g>
			<path class="st22" d="M1436.037,1422.562c-10.255,5.925-27.044,5.925-37.303,0L772.157,1060.81
				c-10.253-5.919-10.253-15.613,0-21.538l427.083-246.575c10.253-5.919,27.042-5.919,37.303,0l626.578,361.758
				c10.258,5.919,10.258,15.607,0,21.532L1436.037,1422.562z"/>
			<g>
				<g>
					<polygon class="st15" points="1237.202,844 1206.559,826.31 1221.878,817.462 1252.52,835.152 					"/>
					<polygon class="st15" points="1288.808,873.798 1258.164,856.103 1273.483,847.255 1304.128,864.951 					"/>
					<polygon class="st15" points="1340.415,903.591 1309.776,885.896 1325.096,877.054 1355.74,894.748 					"/>
					<polygon class="st15" points="1392.019,933.389 1361.383,915.699 1376.708,906.852 1407.345,924.542 					"/>
					<polygon class="st15" points="1443.631,963.182 1412.99,945.493 1428.315,936.651 1458.957,954.34 					"/>
					<polygon class="st15" points="1495.245,992.986 1464.603,975.291 1479.919,966.444 1510.57,984.133 					"/>
					<polygon class="st15" points="1546.851,1022.784 1516.216,1005.089 1531.538,996.242 1562.171,1013.931 					"/>
					<polygon class="st15" points="1598.465,1052.572 1567.819,1034.888 1583.145,1026.035 1613.784,1043.73 					"/>
					<polygon class="st15" points="1650.071,1082.37 1619.432,1064.687 1634.751,1055.833 1665.397,1073.529 					"/>
					<polygon class="st15" points="1701.681,1112.169 1671.039,1094.474 1686.365,1085.632 1717.007,1103.321 					"/>
					<polygon class="st15" points="1753.293,1141.967 1722.652,1124.272 1737.971,1115.43 1768.616,1133.12 					"/>
					<polygon class="st15" points="1804.907,1171.766 1774.256,1154.071 1789.581,1145.223 1820.226,1162.918 					"/>
				</g>
				<polygon class="st15" points="1210.038,887.911 1154.947,856.103 1185.588,838.413 1240.677,870.221 				"/>
				<polygon class="st15" points="1181.537,928.576 1105.481,884.661 1136.129,866.971 1212.182,910.886 				"/>
				<polygon class="st15" points="1150.893,970.478 1053.871,914.458 1084.513,896.77 1181.528,952.788 				"/>
				<polygon class="st15" points="1046.51,982.322 991.419,950.52 1032.903,926.567 1087.994,958.369 				"/>
				<polygon class="st15" points="1122.567,1026.237 1067.475,994.431 1108.957,970.478 1164.053,1002.285 				"/>
				<polygon class="st15" points="1198.625,1070.148 1143.535,1038.346 1185.021,1014.389 1240.109,1046.201 				"/>
				<polygon class="st15" points="1460.865,1221.561 1405.778,1189.742 1447.26,1165.796 1502.36,1197.603 				"/>
				<polygon class="st15" points="1589.764,1295.976 1481.711,1233.585 1523.195,1209.638 1631.25,1272.023 				"/>
				<polygon class="st15" points="1384.935,1177.718 1219.596,1082.252 1261.077,1058.305 1426.425,1153.765 				"/>
				<polygon class="st15" points="1276.092,926.048 1231.006,900.02 1261.642,882.324 1306.732,908.353 				"/>
				<polygon class="st15" points="1247.592,966.709 1202.499,940.679 1233.144,922.984 1278.231,949.013 				"/>
				<polygon class="st15" points="1218.357,1007.798 1173.273,981.768 1203.919,964.079 1249.005,990.109 				"/>
				<polygon class="st15" points="1284.413,1045.931 1239.325,1019.901 1269.967,1002.207 1315.055,1028.241 				"/>
				<polygon class="st15" points="1350.456,1084.063 1305.375,1058.034 1336.017,1040.35 1381.104,1066.379 				"/>
				<polygon class="st15" points="1416.517,1122.207 1371.429,1096.178 1402.069,1078.477 1447.153,1104.512 				"/>
				<polygon class="st15" points="1482.565,1160.339 1437.484,1134.305 1468.123,1116.615 1513.205,1142.65 				"/>
				<polygon class="st15" points="1548.615,1198.472 1503.533,1172.442 1534.173,1154.743 1579.26,1180.776 				"/>
				<polygon class="st15" points="1653.632,1259.101 1569.583,1210.575 1600.222,1192.885 1684.271,1241.412 				"/>
				<polygon class="st15" points="1313.644,1004.842 1268.56,978.818 1299.205,961.122 1344.285,987.152 				"/>
				<polygon class="st15" points="1379.696,1042.979 1334.609,1016.945 1365.254,999.255 1410.341,1025.29 				"/>
				<polygon class="st15" points="1445.739,1081.117 1400.657,1055.088 1431.303,1037.388 1476.389,1063.422 				"/>
				<polygon class="st15" points="1511.797,1119.25 1466.711,1093.221 1497.357,1075.525 1542.439,1101.555 				"/>
				<polygon class="st15" points="1577.852,1157.389 1532.759,1131.354 1563.41,1113.658 1608.497,1139.693 				"/>
				<polygon class="st15" points="1703.825,1230.121 1598.815,1169.486 1629.459,1151.797 1734.476,1212.426 				"/>
				<polygon class="st15" points="1342.138,964.181 1297.054,938.151 1327.7,920.463 1372.781,946.491 				"/>
				<polygon class="st15" points="1408.194,1002.314 1363.107,976.284 1393.748,958.594 1438.836,984.618 				"/>
				<polygon class="st15" points="1474.24,1040.447 1429.162,1014.417 1459.798,996.738 1504.885,1022.762 				"/>
				<polygon class="st15" points="1540.292,1078.589 1495.205,1052.555 1525.847,1034.86 1570.934,1060.895 				"/>
				<polygon class="st15" points="1606.348,1116.717 1561.26,1090.687 1591.899,1073.004 1636.992,1099.027 				"/>
				<polygon class="st15" points="1672.396,1154.855 1627.314,1128.826 1657.954,1111.136 1703.041,1137.165 				"/>
				<polygon class="st15" points="1753.293,1201.558 1693.367,1166.958 1724.008,1149.269 1783.932,1183.87 				"/>
			</g>
			<polygon class="st23" points="1782.525,1125.09 1287.394,839.227 1302.272,830.638 1797.396,1116.508 			"/>
			<polygon class="st15" points="1384.926,1214.655 1132.269,1068.777 975.266,1159.425 1227.925,1305.297 			"/>
			
				<linearGradient id="SVGID_10_" gradientUnits="userSpaceOnUse" x1="764.4647" y1="775.794" x2="1870.8009" y2="775.794" gradientTransform="matrix(1 0 0 -1 0 2019.8898)">
				<stop  offset="0.5618" style="stop-color:#5652CC"/>
				<stop  offset="0.6124" style="stop-color:#1F196F"/>
			</linearGradient>
			<path class="st24" d="M1863.121,1175.987l-427.085,246.575c-8.145,4.706-20.395,5.66-30.245,2.895
				c-0.07-0.023-6.119-2.353-7.059-2.895L772.157,1060.81c-0.714-0.412-1.365-0.847-1.98-1.292c-0.031-0.028-0.059-0.05-0.092-0.074
				l0,0c-0.167-0.125-0.308-0.248-0.462-0.372c-0.364-0.282-0.714-0.576-1.035-0.869c-0.166-0.146-0.322-0.304-0.477-0.457
				c-0.392-0.383-0.748-0.773-1.072-1.169c-0.046-0.05-0.09-0.101-0.13-0.147c-0.022-0.033-0.05-0.068-0.073-0.096
				c-0.37-0.48-0.685-0.954-0.97-1.445c-0.841-1.451-1.304-2.957-1.365-4.474h-0.035v9.028h0.07
				c-0.057,3.939,2.449,7.888,7.623,10.879l626.578,361.751c14.953,7.415,36.31,5.97,42.672,4.576
				c6.356-1.394,12.07-2.985,18.736-4.44l402.979-232.654c5.188-2.996,7.744-6.951,7.677-10.907v-23.315
				C1870.755,1169.198,1868.193,1173.052,1863.121,1175.987z"/>
		</g>
	</g>
	<g id="Shapes_on_screen">
		<g>
			<path class="st9" d="M1830.459,683.44l-115.371-66.609l-450.276-259.966c-7.114-4.104-12.933-0.745-12.933,7.469v44.712
				c0,8.218,5.819,18.297,12.933,22.403l450.276,259.966l115.371,66.61c7.114,4.109,12.936,0.751,12.936-7.462v-44.721
				C1843.396,697.628,1837.573,687.548,1830.459,683.44z"/>
			<polygon class="st2" points="1335.417,409.396 1774.226,662.742 1774.226,714.584 1335.417,461.238 			"/>
			<path class="st8" d="M1786.603,677.677v5.828l41.22,23.799v-5.829L1786.603,677.677z M1786.603,697.592l41.22,23.799v-5.828
				l-41.22-23.799V697.592z M1786.603,711.678l41.22,23.799v-5.829l-41.22-23.799V711.678z"/>
			<path class="st2" d="M1294.233,390.426l11.896,6.868c-3.837-5.537-8.605-10.258-13.77-13.241
				c-12.689-7.327-22.978-1.387-22.978,13.265c0,3.769,0.685,7.749,1.913,11.706l1.589-5.931L1294.233,390.426z M1306.491,397.831
				l-3.156,11.782c-0.519,1.938-2.056,3.11-4.005,3.054l-7.452-0.212l14.414,8.322l-2.272,8.478l-5.151-2.974l-1.591,5.936
				l-9.559-5.519l1.59-5.936l-17.468-10.086c3.784,10.84,11.548,21.261,20.518,26.44c12.691,7.327,22.978,1.387,22.978-13.265
				C1315.337,415.353,1311.873,405.795,1306.491,397.831z M1284.844,408.395l7.034,4.061l2.704-10.093L1284.844,408.395z"/>
		</g>
		<polygon class="st15" points="1462.626,887.784 1258.164,769.737 1258.164,468.774 1462.626,586.82 		"/>
		<polygon class="st15" points="1835.603,940.04 1480.962,735.29 1480.962,597.406 1835.603,802.158 		"/>
		<polygon class="st15" points="1835.603,1101.631 1480.962,896.88 1480.962,754.471 1835.603,959.222 		"/>
		<polygon class="st2" points="1375.352,684.026 1362.897,676.834 1362.897,662.451 1357.893,659.562 1357.893,673.944 
			1345.436,666.754 1345.436,672.532 1357.893,679.723 1357.893,694.106 1362.897,696.995 1362.897,682.612 1375.352,689.804 		"/>
		<polygon class="st14" points="1567.819,721.585 1508.775,687.495 1508.775,675.94 1567.819,710.028 		"/>
		<polygon class="st14" points="1755.009,829.659 1593.706,736.53 1593.706,724.974 1755.009,818.103 		"/>
		<polygon class="st14" points="1542.396,851.174 1508.775,831.764 1508.775,820.207 1542.396,839.618 		"/>
		<polygon class="st14" points="1755.009,973.927 1568.281,866.12 1568.281,854.563 1755.009,962.371 		"/>
		<polygon class="st14" points="1584.022,914.94 1508.775,871.497 1508.775,859.94 1584.022,903.383 		"/>
		<polygon class="st14" points="1755.009,1013.659 1609.908,929.885 1609.908,918.329 1755.009,1002.103 		"/>
		<path class="st23" d="M1415.508,473.926l-4.05-2.339l6.425,25.163l4.47,2.582l4.4-12.138l4.401,17.219l4.47,2.58l6.427-17.743
			L1438,486.91l-4.609,13.55l-4.609-18.872l-4.051-2.339l-4.609,13.548L1415.508,473.926z M1383.66,455.537l-4.05-2.339
			l6.425,25.163l4.47,2.58l4.4-12.138l4.4,17.219l4.47,2.58l6.426-17.743l-4.05-2.339l-4.61,13.55l-4.609-18.872l-4.051-2.339
			l-4.609,13.551L1383.66,455.537z M1351.811,437.15l-4.051-2.339l6.427,25.164l4.469,2.58l4.402-12.137l4.399,17.219l4.469,2.58
			l6.427-17.742l-4.051-2.339l-4.608,13.55l-4.61-18.873l-4.051-2.339l-4.609,13.55L1351.811,437.15z M1440.731,506.642
			c0,0.833,0.256,1.694,0.768,2.58c0.512,0.887,1.129,1.539,1.851,1.955c0.721,0.417,1.333,0.474,1.833,0.172
			c0.5-0.302,0.751-0.871,0.751-1.705c0-0.833-0.25-1.682-0.751-2.55c-0.5-0.867-1.112-1.509-1.833-1.925
			c-0.722-0.417-1.339-0.484-1.851-0.202C1440.987,505.252,1440.731,505.809,1440.731,506.642z"/>
	</g>
	<g id="Ruller">
		<polygon class="st15" points="1970.187,1295.816 1513.335,1566.766 1525.762,1566.766 1982.633,1303.002 		"/>
		<g>
			<polygon class="st10" points="1970.189,1295.819 1895.69,1252.807 1438.837,1516.582 1513.331,1559.593 			"/>
			<g>
				<polygon class="st6" points="1448.591,1510.953 1461.824,1518.585 1459.988,1519.659 1446.749,1512.014 				"/>
				<polygon class="st6" points="1488.42,1487.963 1501.64,1495.604 1499.81,1496.668 1486.579,1489.018 				"/>
				<polygon class="st6" points="1528.242,1464.966 1541.47,1472.615 1539.63,1473.676 1526.403,1466.032 				"/>
				<polygon class="st6" points="1568.059,1441.983 1581.29,1449.615 1579.458,1450.687 1566.225,1443.037 				"/>
				<polygon class="st6" points="1607.883,1418.983 1621.128,1426.632 1619.28,1427.683 1606.039,1420.05 				"/>
				<polygon class="st6" points="1647.708,1395.996 1660.942,1403.636 1659.109,1404.707 1645.868,1397.051 				"/>
				<polygon class="st6" points="1687.529,1373.008 1700.763,1380.645 1698.928,1381.698 1685.683,1374.058 				"/>
				<polygon class="st6" points="1727.342,1350.008 1740.585,1357.651 1738.755,1358.715 1725.507,1351.075 				"/>
				<polygon class="st6" points="1767.162,1327.019 1780.414,1334.662 1778.568,1335.723 1765.333,1328.082 				"/>
				<polygon class="st6" points="1807,1304.028 1820.234,1311.668 1818.392,1312.729 1805.163,1305.096 				"/>
				<polygon class="st6" points="1846.818,1281.035 1860.058,1288.678 1858.218,1289.739 1844.975,1282.096 				"/>
				<polygon class="st6" points="1884.805,1259.104 1898.036,1266.75 1899.874,1265.687 1886.646,1258.042 				"/>
			</g>
			<polygon class="st9" points="1643.734,1434.503 1655.496,1441.294 1765.292,1377.902 1753.521,1371.113 			"/>
			<polygon class="st9" points="1513.335,1566.766 1438.836,1523.758 1438.836,1516.578 1513.335,1559.59 			"/>
			<polygon class="st18" points="1970.187,1303.009 1513.335,1566.766 1513.335,1559.59 1970.187,1295.816 			"/>
			<g>
				<g>
					<polygon class="st6" points="1454.262,1507.679 1460.886,1511.499 1459.049,1512.573 1452.422,1508.741 					"/>
				</g>
				<g>
					<polygon class="st6" points="1459.97,1504.384 1466.594,1508.203 1464.757,1509.277 1458.13,1505.445 					"/>
				</g>
				<g>
					<polygon class="st6" points="1465.678,1501.088 1472.302,1504.908 1470.465,1505.981 1463.838,1502.15 					"/>
				</g>
				<g>
					<polygon class="st6" points="1471.386,1497.792 1478.009,1501.613 1476.173,1502.686 1469.546,1498.855 					"/>
				</g>
				<g>
					<polygon class="st6" points="1477.094,1494.497 1483.716,1498.317 1481.881,1499.39 1475.254,1495.559 					"/>
				</g>
				<g>
					<polygon class="st6" points="1482.802,1491.202 1489.425,1495.021 1487.589,1496.095 1480.962,1492.264 					"/>
				</g>
			</g>
			<g>
				<g>
					<polygon class="st6" points="1494.092,1484.683 1500.715,1488.502 1498.879,1489.576 1492.252,1485.745 					"/>
				</g>
				<g>
					<polygon class="st6" points="1499.799,1481.387 1506.423,1485.208 1504.587,1486.28 1497.96,1482.45 					"/>
				</g>
				<g>
					<polygon class="st6" points="1505.509,1478.091 1512.131,1481.912 1510.296,1482.985 1503.668,1479.154 					"/>
				</g>
				<g>
					<polygon class="st6" points="1511.215,1474.797 1517.839,1478.616 1516.004,1479.689 1509.376,1475.858 					"/>
				</g>
				<g>
					<polygon class="st6" points="1516.923,1471.501 1523.547,1475.32 1521.711,1476.394 1515.084,1472.563 					"/>
				</g>
				<g>
					<polygon class="st6" points="1522.631,1468.205 1529.255,1472.026 1527.419,1473.099 1520.792,1469.267 					"/>
				</g>
			</g>
			<g>
				<g>
					<polygon class="st6" points="1533.922,1461.686 1540.545,1465.507 1538.71,1466.579 1532.083,1462.748 					"/>
				</g>
				<g>
					<polygon class="st6" points="1539.63,1458.391 1546.253,1462.211 1544.418,1463.284 1537.791,1459.453 					"/>
				</g>
				<g>
					<polygon class="st6" points="1545.337,1455.096 1551.961,1458.915 1550.126,1459.989 1543.498,1456.157 					"/>
				</g>
				<g>
					<polygon class="st6" points="1551.046,1451.8 1557.669,1455.62 1555.834,1456.693 1549.207,1452.862 					"/>
				</g>
				<g>
					<polygon class="st6" points="1556.754,1448.504 1563.377,1452.325 1561.542,1453.398 1554.914,1449.567 					"/>
				</g>
				<g>
					<polygon class="st6" points="1562.461,1445.208 1569.085,1449.029 1567.25,1450.102 1560.623,1446.271 					"/>
				</g>
			</g>
			<g>
				<g>
					<polygon class="st6" points="1573.752,1438.691 1580.376,1442.51 1578.54,1443.584 1571.913,1439.752 					"/>
				</g>
				<g>
					<polygon class="st6" points="1579.46,1435.395 1586.084,1439.215 1584.248,1440.288 1577.621,1436.457 					"/>
				</g>
				<g>
					<polygon class="st6" points="1585.168,1432.099 1591.791,1435.919 1589.956,1436.992 1583.328,1433.161 					"/>
				</g>
				<g>
					<polygon class="st6" points="1590.876,1428.803 1597.499,1432.624 1595.664,1433.697 1589.036,1429.866 					"/>
				</g>
				<g>
					<polygon class="st6" points="1596.584,1425.509 1603.207,1429.328 1601.372,1430.402 1594.744,1426.57 					"/>
				</g>
				<g>
					<polygon class="st6" points="1602.292,1422.213 1608.915,1426.033 1607.079,1427.106 1600.452,1423.275 					"/>
				</g>
			</g>
			<g>
				<g>
					<polygon class="st6" points="1613.582,1415.694 1620.206,1419.514 1618.37,1420.587 1611.742,1416.755 					"/>
				</g>
				<g>
					<polygon class="st6" points="1619.29,1412.399 1625.914,1416.219 1624.077,1417.292 1617.45,1413.461 					"/>
				</g>
				<g>
					<polygon class="st6" points="1624.998,1409.103 1631.622,1412.923 1629.785,1413.997 1623.158,1410.165 					"/>
				</g>
				<g>
					<polygon class="st6" points="1630.706,1405.808 1637.33,1409.627 1635.493,1410.701 1628.866,1406.869 					"/>
				</g>
				<g>
					<polygon class="st6" points="1636.414,1402.512 1643.038,1406.332 1641.201,1407.405 1634.574,1403.574 					"/>
				</g>
				<g>
					<polygon class="st6" points="1642.122,1399.216 1648.745,1403.037 1646.909,1404.11 1640.282,1400.279 					"/>
				</g>
			</g>
			<g>
				<g>
					<polygon class="st6" points="1653.413,1392.698 1660.036,1396.518 1658.2,1397.592 1651.572,1393.76 					"/>
				</g>
				<g>
					<polygon class="st6" points="1659.121,1389.402 1665.743,1393.222 1663.908,1394.296 1657.281,1390.464 					"/>
				</g>
				<g>
					<polygon class="st6" points="1664.829,1386.107 1671.451,1389.927 1669.616,1391 1662.988,1387.168 					"/>
				</g>
				<g>
					<polygon class="st6" points="1670.536,1382.811 1677.159,1386.631 1675.324,1387.704 1668.696,1383.874 					"/>
				</g>
				<g>
					<polygon class="st6" points="1676.244,1379.515 1682.867,1383.336 1681.032,1384.409 1674.405,1380.578 					"/>
				</g>
				<g>
					<polygon class="st6" points="1681.951,1376.221 1688.575,1380.04 1686.74,1381.114 1680.112,1377.282 					"/>
				</g>
			</g>
			<g>
				<g>
					<polygon class="st6" points="1693.243,1369.701 1699.865,1373.521 1698.03,1374.595 1691.403,1370.763 					"/>
				</g>
				<g>
					<polygon class="st6" points="1698.95,1366.406 1705.573,1370.226 1703.738,1371.299 1697.111,1367.469 					"/>
				</g>
				<g>
					<polygon class="st6" points="1704.658,1363.11 1711.281,1366.931 1709.446,1368.003 1702.819,1364.173 					"/>
				</g>
				<g>
					<polygon class="st6" points="1710.366,1359.815 1716.989,1363.635 1715.154,1364.709 1708.527,1360.877 					"/>
				</g>
				<g>
					<polygon class="st6" points="1716.074,1356.52 1722.698,1360.34 1720.862,1361.413 1714.235,1357.581 					"/>
				</g>
				<g>
					<polygon class="st6" points="1721.782,1353.224 1728.405,1357.044 1726.57,1358.117 1719.943,1354.286 					"/>
				</g>
			</g>
			<g>
				<g>
					<polygon class="st6" points="1733.072,1346.705 1739.696,1350.525 1737.86,1351.598 1731.233,1347.768 					"/>
				</g>
				<g>
					<polygon class="st6" points="1738.78,1343.41 1745.404,1347.229 1743.568,1348.302 1736.941,1344.472 					"/>
				</g>
				<g>
					<polygon class="st6" points="1744.489,1340.114 1751.112,1343.934 1749.276,1345.008 1742.649,1341.176 					"/>
				</g>
				<g>
					<polygon class="st6" points="1750.196,1336.819 1756.82,1340.639 1754.984,1341.712 1748.357,1337.88 					"/>
				</g>
				<g>
					<polygon class="st6" points="1755.904,1333.523 1762.528,1337.343 1760.692,1338.416 1754.064,1334.586 					"/>
				</g>
				<g>
					<polygon class="st6" points="1761.612,1330.228 1768.236,1334.048 1766.4,1335.122 1759.772,1331.29 					"/>
				</g>
			</g>
			<g>
				<g>
					<polygon class="st6" points="1772.902,1323.709 1779.526,1327.529 1777.691,1328.603 1771.062,1324.771 					"/>
				</g>
				<g>
					<polygon class="st6" points="1778.61,1320.413 1785.234,1324.234 1783.398,1325.307 1776.771,1321.475 					"/>
				</g>
				<g>
					<polygon class="st6" points="1784.318,1317.118 1790.942,1320.938 1789.106,1322.011 1782.478,1318.181 					"/>
				</g>
				<g>
					<polygon class="st6" points="1790.026,1313.822 1796.65,1317.642 1794.813,1318.715 1788.186,1314.885 					"/>
				</g>
				<g>
					<polygon class="st6" points="1795.734,1310.527 1802.358,1314.347 1800.521,1315.421 1793.894,1311.589 					"/>
				</g>
				<g>
					<polygon class="st6" points="1801.442,1307.232 1808.066,1311.052 1806.229,1312.125 1799.602,1308.293 					"/>
				</g>
			</g>
			<g>
				<g>
					<polygon class="st6" points="1812.733,1300.713 1819.355,1304.533 1817.521,1305.606 1810.893,1301.774 					"/>
				</g>
				<g>
					<polygon class="st6" points="1818.441,1297.417 1825.063,1301.237 1823.229,1302.31 1816.601,1298.48 					"/>
				</g>
				<g>
					<polygon class="st6" points="1824.149,1294.122 1830.771,1297.942 1828.936,1299.016 1822.309,1295.184 					"/>
				</g>
				<g>
					<polygon class="st6" points="1829.857,1290.826 1836.479,1294.647 1834.644,1295.72 1828.017,1291.888 					"/>
				</g>
				<g>
					<polygon class="st6" points="1835.563,1287.531 1842.187,1291.351 1840.352,1292.424 1833.725,1288.592 					"/>
				</g>
				<g>
					<polygon class="st6" points="1841.271,1284.235 1847.895,1288.055 1846.06,1289.128 1839.433,1285.298 					"/>
				</g>
			</g>
			<g>
				<g>
					<polygon class="st6" points="1852.563,1277.716 1859.186,1281.536 1857.35,1282.61 1850.723,1278.779 					"/>
				</g>
				<g>
					<polygon class="st6" points="1858.271,1274.421 1864.894,1278.241 1863.058,1279.315 1856.431,1275.483 					"/>
				</g>
				<g>
					<polygon class="st6" points="1863.979,1271.125 1870.601,1274.946 1868.766,1276.019 1862.139,1272.187 					"/>
				</g>
				<g>
					<polygon class="st6" points="1869.687,1267.83 1876.31,1271.65 1874.474,1272.723 1867.847,1268.893 					"/>
				</g>
				<g>
					<polygon class="st6" points="1875.394,1264.534 1882.018,1268.354 1880.182,1269.427 1873.555,1265.597 					"/>
				</g>
				<g>
					<polygon class="st6" points="1881.102,1261.239 1887.726,1265.06 1885.89,1266.133 1879.263,1262.301 					"/>
				</g>
			</g>
		</g>
	</g>
	<g id="Pencil">
		
			<linearGradient id="SVGID_11_" gradientUnits="userSpaceOnUse" x1="1668.8549" y1="582.7307" x2="2081.6318" y2="582.7307" gradientTransform="matrix(1 0 0 -1 0 2019.8898)">
			<stop  offset="0" style="stop-color:#DAE0F5"/>
			<stop  offset="0.3267" style="stop-color:#DEE3F6"/>
			<stop  offset="0.6601" style="stop-color:#EAEEF9"/>
			<stop  offset="0.9956" style="stop-color:#FFFFFF"/>
			<stop  offset="1" style="stop-color:#FFFFFF"/>
		</linearGradient>
		<path class="st25" d="M2066.082,1312.611c-2.783,0-5.287,0.539-7.711,1.944c-1.238,0.72-5.154,2.969-8.689,5.007l-1.618-0.938
			c-0.799-0.467-1.792-0.407-2.577,0.012c-0.206,0.1-30.524,17.612-30.524,17.612c-0.367,0.207-0.753,0.46-1.025,0.839l-1.438,2.051
			l-318.205,194.456l-18.146,28.113l47.451-14.862l303.562-175.265c0.799,0.459,1.798,0.399,2.59-0.027
			c0.154-0.073,30.531-17.619,30.531-17.619c0.352-0.214,0.719-0.452,0.985-0.819l2.192-3.123l11.374-6.566
			c4.746-3.051,7.897-8.23,7.897-14.183C2082.729,1320.056,2075.277,1312.611,2066.082,1312.611z"/>
		<g>
			
				<linearGradient id="SVGID_12_" gradientUnits="userSpaceOnUse" x1="2032.3845" y1="710.8981" x2="2049.552" y2="682.3969" gradientTransform="matrix(1 0 0 -1 0 2019.8898)">
				<stop  offset="0" style="stop-color:#6B67E9"/>
				<stop  offset="1" style="stop-color:#362E93"/>
			</linearGradient>
			<path class="st26" d="M2039.227,1306.845c-2.79,0-5.287,0.546-7.711,1.938c-1.512,0.872-6.951,4.016-10.873,6.279
				c0.965,0.293,1.964,0.705,3.003,1.306c7.425,4.295,13.437,14.709,13.437,23.279c0,1.877-0.347,3.463-0.879,4.808l11.766-6.792
				c4.761-3.051,7.897-8.23,7.897-14.183C2055.867,1314.289,2048.41,1306.845,2039.227,1306.845z"/>
			
				<linearGradient id="SVGID_13_" gradientUnits="userSpaceOnUse" x1="1688.6018" y1="477.2116" x2="1672.467" y2="505.5185" gradientTransform="matrix(1 0 0 -1 0 2019.8898)">
				<stop  offset="0" style="stop-color:#BBC0E6"/>
				<stop  offset="1" style="stop-color:#F6F6FB"/>
			</linearGradient>
			<path class="st27" d="M1663.869,1534.968c2.403,1.385,4.349,4.768,4.349,7.539c0,1.678-0.733,2.743-1.825,3.009l30.338-4.434
				l6.492-9.229l-6.492-16.714l-12.958-7.485l-23.319,27.302C1661.252,1534.236,1662.478,1534.168,1663.869,1534.968z"/>
			
				<linearGradient id="SVGID_14_" gradientUnits="userSpaceOnUse" x1="1661.5668" y1="472.3983" x2="1654.7728" y2="481.174" gradientTransform="matrix(1 0 0 -1 0 2019.8898)">
				<stop  offset="0" style="stop-color:#362E93"/>
				<stop  offset="1" style="stop-color:#807CFB"/>
			</linearGradient>
			<path class="st28" d="M1663.869,1534.968c-1.392-0.8-2.617-0.732-3.416-0.013l-0.36,0.413l-10.8,12.651l16.786-2.465l0.313-0.04
				c1.092-0.266,1.825-1.331,1.825-3.009C1668.218,1539.735,1666.273,1536.353,1663.869,1534.968z"/>
			<path class="st5" d="M1989.718,1359.709c-1.144-0.66-2.47-2.205-2.949-3.429l-5.261-13.564c-0.479-1.224-0.24-3.123,0.519-4.188
				l5.054-7.204c0.759-1.078,2.318-1.425,3.456-0.772l10.573,6.099c1.145,0.666,2.465,2.211,2.937,3.443l5.261,13.557
				c0.479,1.232,0.253,3.123-0.514,4.202l-5.047,7.198c-0.76,1.079-2.317,1.418-3.456,0.767L1989.718,1359.709z"/>
			<polygon class="st9" points="2008.383,1355.667 1703.223,1531.852 1696.731,1515.138 2001.897,1338.96 			"/>
			<polygon class="st18" points="2001.897,1364.896 1696.731,1541.08 1703.223,1531.852 2008.383,1355.667 			"/>
			<polygon class="st10" points="2001.897,1338.96 1696.731,1515.138 1683.772,1507.653 1988.933,1331.469 			"/>
			<g>
				
					<linearGradient id="SVGID_15_" gradientUnits="userSpaceOnUse" x1="2023.6755" y1="667.8428" x2="2004.837" y2="699.5184" gradientTransform="matrix(1 0 0 -1 0 2019.8898)">
					<stop  offset="0.0738" style="stop-color:#A3A9D0"/>
					<stop  offset="0.137" style="stop-color:#CED3F8"/>
					<stop  offset="0.5586" style="stop-color:#CED3F8"/>
					<stop  offset="0.6895" style="stop-color:#F6F6FB"/>
				</linearGradient>
				<path class="st29" d="M2039.973,1335.944l-5.254-13.551c-0.479-1.232-1.797-2.777-2.949-3.443l-10.561-6.099
					c-0.807-0.452-1.791-0.4-2.577,0.027c-0.206,0.094-30.524,17.606-30.524,17.606c0.799-0.325,1.691-0.345,2.431,0.067
					l10.573,6.099c1.145,0.666,2.465,2.211,2.937,3.443l5.261,13.557c0.479,1.232,0.253,3.123-0.514,4.202l-5.047,7.198
					c-0.194,0.266-0.433,0.487-0.7,0.666l30.385-17.539c0.353-0.221,0.719-0.459,0.972-0.832l5.061-7.192
					C2040.219,1339.067,2040.453,1337.176,2039.973,1335.944z"/>
				
					<linearGradient id="SVGID_16_" gradientUnits="userSpaceOnUse" x1="2013.5557" y1="660.6509" x2="1990.1368" y2="690.4037" gradientTransform="matrix(1 0 0 -1 0 2019.8898)">
					<stop  offset="0.5586" style="stop-color:#D1D7F3"/>
					<stop  offset="0.6895" style="stop-color:#F1F1F6"/>
				</linearGradient>
				<path class="st30" d="M2007.484,1363.152c0.266-0.174,0.506-0.393,0.693-0.666l5.054-7.192c0.759-1.078,0.992-2.969,0.506-4.202
					l-5.253-13.551c-0.472-1.238-1.798-2.783-2.943-3.443l-10.568-6.092c-0.752-0.433-1.644-0.4-2.397-0.055
					c-0.047-0.027-2.211,1.224-2.211,1.224c0.786-0.319,1.691-0.346,2.43,0.08l10.575,6.094c1.139,0.66,2.464,2.211,2.943,3.443
					l5.255,13.557c0.48,1.231,0.246,3.116-0.506,4.195l-5.061,7.204c-0.186,0.266-0.427,0.486-0.692,0.666L2007.484,1363.152z"/>
				
					<linearGradient id="SVGID_17_" gradientUnits="userSpaceOnUse" x1="2018.1335" y1="663.2966" x2="1994.7146" y2="693.0496" gradientTransform="matrix(1 0 0 -1 0 2019.8898)">
					<stop  offset="0.5586" style="stop-color:#D1D7F3"/>
					<stop  offset="0.6895" style="stop-color:#F1F1F6"/>
				</linearGradient>
				<path class="st31" d="M2012.059,1360.502c0.266-0.161,0.506-0.387,0.706-0.666l5.041-7.191c0.766-1.078,0.999-2.963,0.512-4.195
					l-5.253-13.564c-0.479-1.224-1.805-2.777-2.944-3.436l-10.567-6.092c-0.745-0.426-1.638-0.4-2.403-0.052
					c-0.033-0.027-2.211,1.231-2.211,1.231c0.792-0.319,1.698-0.352,2.431,0.073l10.574,6.099c1.145,0.66,2.47,2.21,2.95,3.436
					l5.261,13.557c0.479,1.232,0.246,3.123-0.52,4.208l-5.054,7.192c-0.186,0.266-0.419,0.492-0.699,0.665L2012.059,1360.502z"/>
				
					<linearGradient id="SVGID_18_" gradientUnits="userSpaceOnUse" x1="2022.7197" y1="665.9422" x2="1999.2994" y2="695.6968" gradientTransform="matrix(1 0 0 -1 0 2019.8898)">
					<stop  offset="0.5586" style="stop-color:#D1D7F3"/>
					<stop  offset="0.6895" style="stop-color:#F1F1F6"/>
				</linearGradient>
				<path class="st32" d="M2016.64,1357.865c0.273-0.173,0.513-0.4,0.699-0.666l5.061-7.192c0.759-1.091,0.985-2.969,0.513-4.208
					l-5.26-13.557c-0.479-1.224-1.811-2.77-2.949-3.436l-10.567-6.099c-0.745-0.426-1.638-0.4-2.397-0.053
					c-0.033-0.019-2.217,1.239-2.217,1.239c0.799-0.319,1.705-0.352,2.443,0.073l10.561,6.106c1.144,0.653,2.477,2.198,2.949,3.423
					l5.26,13.571c0.48,1.225,0.246,3.116-0.512,4.195l-5.054,7.199c-0.194,0.266-0.426,0.486-0.7,0.66L2016.64,1357.865z"/>
			</g>
		</g>
	</g>
	<g id="Frame">
		<g>
			
				<linearGradient id="SVGID_19_" gradientUnits="userSpaceOnUse" x1="3397.2947" y1="792.6345" x2="2932.2449" y2="935.6279" gradientTransform="matrix(-1 0 0 -1 4047.0232 2019.8898)">
				<stop  offset="0" style="stop-color:#5652CC"/>
				<stop  offset="1" style="stop-color:#807DFB"/>
			</linearGradient>
			<path class="st33" d="M1108.582,1112.76c0-17.005-12.05-37.873-26.776-46.377L677.839,833.154
				c-14.726-8.501-26.776-1.545-26.776,15.459v351.637c0,17.005,12.05,37.873,26.776,46.377l403.966,233.23
				c14.726,8.502,26.776,1.545,26.776-15.458V1112.76z"/>
			
				<linearGradient id="SVGID_20_" gradientUnits="userSpaceOnUse" x1="2881.3945" y1="575.7213" x2="3273.4329" y2="1254.7518" gradientTransform="matrix(-1 0 0 -1 4047.0232 2019.8898)">
				<stop  offset="0.396" style="stop-color:#20196F"/>
				<stop  offset="0.4786" style="stop-color:#362E94"/>
			</linearGradient>
			<path class="st34" d="M1108.582,1464.398V1112.76c0-17.005-12.05-37.873-26.776-46.377L677.839,833.155
				c-7.277-4.202-13.893-4.615-18.732-1.921l7.551-4.359l0.018,0.028c4.889-3.138,11.778-2.909,19.405,1.493l403.968,233.229
				c14.726,8.502,26.775,29.372,26.775,46.376v351.638c0,8.898-3.319,15.009-8.575,17.63l-6.887,3.976
				C1105.823,1478.292,1108.582,1472.504,1108.582,1464.398z"/>
		</g>
		<path class="st14" d="M806.797,986.971l-7.885-8.538l-47.662,98.172l7.885,8.539L806.797,986.971z M813.188,1092.56l38.515-18.695
			l-38.515-63.167l-5.83,3.949l31.635,51.882l-31.635,15.354L813.188,1092.56z M739.996,1050.304l5.832-3.943l-31.635-51.886
			l31.635-15.35l-5.832-10.683l-38.513,18.695L739.996,1050.304z"/>
		<g>
			<path class="st12" d="M1067.758,1442.778l-203.975-117.766c-8.324-4.807-15.073-17.7-15.073-28.799v-52.889
				c0-11.099,6.749-16.201,15.073-11.395l203.975,117.764c8.324,4.807,15.073,17.7,15.073,28.799v52.889
				C1082.831,1442.483,1076.082,1447.585,1067.758,1442.778z"/>
			
				<ellipse transform="matrix(0.866 -0.5 0.5 0.866 -539.2869 662.06)" class="st2" cx="965.746" cy="1337.328" rx="20.876" ry="36.158"/>
			<g>
				<path class="st23" d="M971.769,1322.652v38.502l-5.526-3.191v-31.735l-0.57-0.329l-5.289,7.343l-5.857-3.381l8.812-12.076
					L971.769,1322.652z"/>
			</g>
		</g>
		<g>
			<polygon class="st23" points="929.305,1036.918 873.732,1004.833 873.732,992.986 929.305,1025.071 			"/>
			<polygon class="st5" points="900.522,1081.49 873.732,1066.023 873.732,1077.87 900.522,1093.337 			"/>
			<polygon class="st18" points="1082.831,1125.555 938.71,1042.347 938.71,1030.501 1082.831,1113.709 			"/>
			<polygon class="st35" points="1047.917,1129.415 903.796,1046.207 903.796,1034.36 1047.917,1117.568 			"/>
			<polygon class="st23" points="1025.918,1140.731 892.542,1063.726 892.542,1051.879 1025.918,1128.884 			"/>
			<polygon class="st18" points="944.1,1143.5 873.732,1102.874 873.732,1091.027 944.1,1131.653 			"/>
			<polygon class="st23" points="1082.831,1223.597 953.504,1148.93 953.504,1137.083 1082.831,1211.75 			"/>
			<polygon class="st5" points="902.565,1147.236 873.732,1130.589 873.732,1118.742 902.565,1135.389 			"/>
			<polygon class="st5" points="1082.831,1251.312 911.969,1152.666 911.969,1140.819 1082.831,1239.465 			"/>
			<polygon class="st5" points="929.305,1190.391 873.732,1158.305 873.732,1146.458 929.305,1178.544 			"/>
			<polygon class="st23" points="1082.831,1279.027 938.71,1195.819 938.71,1183.973 1082.831,1267.181 			"/>
			<polygon class="st18" points="1047.917,1287.501 903.796,1204.292 903.796,1192.445 1047.917,1275.653 			"/>
			<polygon class="st23" points="1070.861,1324.763 929.305,1243.036 929.305,1231.19 1070.861,1312.916 			"/>
		</g>
	</g>
	<g id="Man">
		
			<linearGradient id="SVGID_21_" gradientUnits="userSpaceOnUse" x1="684.9286" y1="537.8365" x2="790.9352" y2="537.8365" gradientTransform="matrix(1 0 0 -1 21.4626 2019.8898)">
			<stop  offset="0" style="stop-color:#C6CBE7"/>
			<stop  offset="0.0774" style="stop-color:#CED2EA"/>
			<stop  offset="0.3981" style="stop-color:#E9EBF6"/>
			<stop  offset="0.6823" style="stop-color:#F9FAFD"/>
			<stop  offset="0.8989" style="stop-color:#FFFFFF"/>
		</linearGradient>
		<rect x="706.391" y="1472.312" class="st36" width="106.007" height="19.483"/>
		
			<linearGradient id="SVGID_22_" gradientUnits="userSpaceOnUse" x1="670.2207" y1="565.9718" x2="776.2317" y2="565.9718" gradientTransform="matrix(1 0 0 -1 -11.6256 2019.8898)">
			<stop  offset="0" style="stop-color:#C6CBE7"/>
			<stop  offset="0.0774" style="stop-color:#CED2EA"/>
			<stop  offset="0.3981" style="stop-color:#E9EBF6"/>
			<stop  offset="0.6823" style="stop-color:#F9FAFD"/>
			<stop  offset="0.8989" style="stop-color:#FFFFFF"/>
		</linearGradient>
		<rect x="658.595" y="1444.177" class="st37" width="106.011" height="19.483"/>
		<g>
			
				<linearGradient id="SVGID_23_" gradientUnits="userSpaceOnUse" x1="3079.3433" y1="569.7015" x2="3118.4167" y2="569.7015" gradientTransform="matrix(-1 0 0 -1 3765.2817 2019.8898)">
				<stop  offset="0" style="stop-color:#6A6AE2"/>
				<stop  offset="0.2837" style="stop-color:#5857C7"/>
				<stop  offset="0.7555" style="stop-color:#3E3C9E"/>
				<stop  offset="1" style="stop-color:#34318F"/>
			</linearGradient>
			<path class="st38" d="M646.865,1457.663c0-15.307,9.701-15.748,9.701-15.748s5.252,0,13.782-3.541
				c8.421-3.499,20.285-2.147,13.655,10.086c-0.059,0.148-0.135,0.297-0.228,0.452c-0.41,0.651-1.099,1.28-2.15,1.886
				l-21.194,12.433C657.2,1465.079,646.942,1460.812,646.865,1457.663z"/>
			<path class="st39" d="M646.921,1456.292c0.186,3.144,10.305,7.325,13.513,5.495l21.194-12.431
				c0.702-0.403,1.91-1.214,2.987-2.178c-0.194,0.422-0.363,0.826-0.608,1.282c-0.059,0.148-0.135,0.297-0.228,0.452
				c-0.41,0.651-1.099,1.28-2.15,1.886l-21.194,12.433c-3.025,1.728-12.219-1.903-13.431-4.961
				c-0.051-0.232-0.092-0.448-0.097-0.621C646.865,1457.175,646.9,1456.748,646.921,1456.292z"/>
			<path class="st2" d="M650.808,1439.903c2.497,0,11.29,2.235,11.29,2.235s0.064,1.217,0.786,2.277
				c0.089,0.097,0.165,0.196,0.245,0.297c1.736,1.207,3.499,3.114-0.617,5.698c-3.367,2.117-6.11,0.773-7.41-0.526
				c-0.524-0.985-1.301-2.088-2.387-2.714c-1.116-0.643-1.805-0.934-2.295-0.968c0.005-0.066-0.021-0.209-0.021-0.209
				S649.76,1439.903,650.808,1439.903z"/>
			<path class="st39" d="M650.651,1290.245c9.583,0.172,33.536,0.598,43.114,0.771c-3.567,28.807-10.741,54.973-15.536,82.869
				c-5.142,27.114-10.939,46.165-16.001,68.732c-1.851,4.202-10.326,2.612-12.047-1.433c-1.339-20.78-2.881-46.097,3.279-70.071
				C652.43,1345.267,650.047,1316.338,650.651,1290.245z"/>
		</g>
		<g>
			
				<linearGradient id="SVGID_24_" gradientUnits="userSpaceOnUse" x1="3031.0288" y1="541.5787" x2="3070.1047" y2="541.5787" gradientTransform="matrix(-1 0 0 -1 3765.2817 2019.8898)">
				<stop  offset="0" style="stop-color:#6A6AE2"/>
				<stop  offset="0.2837" style="stop-color:#5857C7"/>
				<stop  offset="0.7555" style="stop-color:#3E3C9E"/>
				<stop  offset="1" style="stop-color:#34318F"/>
			</linearGradient>
			<path class="st40" d="M695.177,1485.786c0-15.306,9.701-15.748,9.701-15.748s5.252,0,13.787-3.541
				c8.417-3.499,20.285-2.146,13.652,10.086c-0.059,0.148-0.136,0.297-0.228,0.452c-0.406,0.651-1.099,1.28-2.15,1.886
				l-21.194,12.432C705.516,1493.202,695.253,1488.936,695.177,1485.786z"/>
			<path class="st39" d="M695.236,1484.415c0.182,3.143,10.305,7.325,13.507,5.495l21.194-12.43c0.701-0.403,1.91-1.214,2.992-2.178
				c-0.198,0.422-0.368,0.826-0.613,1.282c-0.059,0.148-0.136,0.297-0.228,0.452c-0.406,0.651-1.099,1.28-2.15,1.886l-21.194,12.432
				c-3.021,1.728-12.219-1.903-13.431-4.96c-0.051-0.232-0.092-0.448-0.092-0.621
				C695.177,1485.298,695.215,1484.871,695.236,1484.415z"/>
			<path class="st2" d="M699.123,1468.026c2.494,0,11.29,2.235,11.29,2.235s0.059,1.217,0.782,2.277
				c0.088,0.098,0.165,0.196,0.244,0.297c1.737,1.207,3.503,3.114-0.613,5.698c-3.371,2.117-6.109,0.773-7.41-0.526
				c-0.528-0.985-1.306-2.088-2.391-2.715c-1.115-0.642-1.801-0.934-2.291-0.967c0.005-0.066-0.026-0.209-0.026-0.209
				S698.075,1468.026,699.123,1468.026z"/>
			
				<linearGradient id="SVGID_25_" gradientUnits="userSpaceOnUse" x1="3047.9939" y1="634.9449" x2="3115.1719" y2="634.9449" gradientTransform="matrix(-1 0 0 -1 3765.2817 2019.8898)">
				<stop  offset="0" style="stop-color:#3366A3"/>
				<stop  offset="0.0163" style="stop-color:#4A5ABB"/>
				<stop  offset="0.0274" style="stop-color:#5555C6"/>
				<stop  offset="1" style="stop-color:#1E1C6B"/>
			</linearGradient>
			<path class="st41" d="M681.06,1358.741c-2.624-12.384-32.838-13.922-30.857-62.614c9.482-1.394,57.316,21.037,66.793,19.643
				c1.187,29.002-1.618,55.989-1.796,84.293c-0.642,27.591-3.253,47.33-4.559,70.422c-1.141,4.449-9.76,4.264-12.118,0.557
				c-4.715-20.283-10.373-45.012-8.209-69.67C687.491,1387.717,684.132,1373.239,681.06,1358.741z"/>
		</g>
		<path class="st18" d="M672.069,1201.576c-33.743,22.548-37.765,67.325-19.521,95.742
			C652.548,1297.318,648.628,1234.355,672.069,1201.576z"/>
		<g>
			
				<linearGradient id="SVGID_26_" gradientUnits="userSpaceOnUse" x1="3045.4001" y1="755.5" x2="3115.5708" y2="755.5" gradientTransform="matrix(-1 0 0 -1 3765.2817 2019.8898)">
				<stop  offset="0" style="stop-color:#EF4E16"/>
				<stop  offset="0.2913" style="stop-color:#F15414"/>
				<stop  offset="0.6721" style="stop-color:#F66410"/>
				<stop  offset="1" style="stop-color:#FC780B"/>
			</linearGradient>
			<path class="st42" d="M670.527,1323.731c20.539,11.526,42.028,11.552,49.355-2.619c-2.742-26.382-5.307-47.851-0.021-73.137
				c-1.563-13.964-4.711-22.448-2.924-30.596c-11.299-1.547-21.029-18.898-27.587-20.232c-28.085-5.734-41.728,44.31-39.38,97.664
				C652.138,1308.999,660.416,1318.057,670.527,1323.731z"/>
			<path class="st43" d="M673.776,1200.329c6.093-4.401,5.189-7.282,4.276-13.273c-1.162-3.14-1.834-6.636-1.834-10.344
				c0-13.344,8.497-24.874,18.912-24.155c20.987,1.441,17.252,12.483,17.252,25.827c0,12.363-5.607,20.869-14.982,22.303
				c0,2.03,3.883,6.375,6.439,8.932c-10.255,7.99-20.209-1.009-24.16-2.795C675.466,1204.919,670.92,1203.285,673.776,1200.329z"/>
		</g>
		<g>
			
				<linearGradient id="SVGID_27_" gradientUnits="userSpaceOnUse" x1="3065.3684" y1="784.5508" x2="2962.645" y2="841.5623" gradientTransform="matrix(-1 0 0 -1 3765.2817 2019.8898)">
				<stop  offset="0" style="stop-color:#FC780B"/>
				<stop  offset="0.3566" style="stop-color:#FB750C"/>
				<stop  offset="0.6236" style="stop-color:#F86B0E"/>
				<stop  offset="0.8607" style="stop-color:#F35B12"/>
				<stop  offset="1" style="stop-color:#EF4E16"/>
			</linearGradient>
			<path class="st44" d="M709.987,1218.873c32.395-6.054,53.474-29.945,66.607-53.213l10.974,4.853
				c-6.676,29.902-29.889,71.184-72.378,78.883C693.698,1249.396,695.388,1221.601,709.987,1218.873z"/>
			<path class="st43" d="M777.889,1161.741l-0.042,0.121c0-5.428,1.136-8.586,3.228-9.511c0.452-1.297,0.926-2.652,1.386-3.942
				c2.704-7.572,11.18-14.063,12.98-12.262c1.086,1.087-3.223,4.419-5.496,8.023c-1.5,2.379-1.513,3.697-1.893,5.679
				c0,0,10.141,0.946,10.141,9.376c0,6.85-3.697,4.146-3.697,2.793c-2.615,6.94-5.725,2.839-6.929,8.495l-10.974-4.853
				C776.592,1165.659,777.108,1164.092,777.889,1161.741z"/>
		</g>
		<path class="st39" d="M685.907,1149.179c2.709-1.395,5.146-0.674,6.655-1.641c3.583-2.194,6.976-3.592,8.877-2.55
			c0.922,0.505,2.666,2.124,2.666,2.124c1.868,1.865,5.696-2.107,6.613,2.71c0.271,1.424,0.33,2.593,0.316,3.746
			c8.963,1.152,4.551,9.312-2.653,25.034c-0.009-2.553-5.429-8.451-5.429,2.89c0,1.219,0.912,1.457,0.11,3.076
			c-0.803,1.61-5.954,5.679-9.35,9.076c-4.741,4.741-7.525,0.49-15.363,1.344c0-3.358-0.866-5.046-2.062-7.149
			c-0.752-1.327-5.053-5.547-5.057-12.912C677.312,1175.675,666.496,1159.18,685.907,1149.179z"/>
	</g>
	<g id="Pie_chart">
		<path class="st14" d="M1011.938,450.748V582.47l-114.074,65.861C897.863,575.585,948.936,487.122,1011.938,450.748z"/>
		
			<linearGradient id="SVGID_28_" gradientUnits="userSpaceOnUse" x1="2756.9246" y1="1605.5374" x2="2916.8843" y2="1326.6326" gradientTransform="matrix(-1 0 0 -1 3798.2251 2019.8898)">
			<stop  offset="0" style="stop-color:#FFAD02"/>
			<stop  offset="0.1204" style="stop-color:#FEA204"/>
			<stop  offset="0.4413" style="stop-color:#FD8B08"/>
			<stop  offset="0.742" style="stop-color:#FC7D0A"/>
			<stop  offset="1" style="stop-color:#FC780B"/>
		</linearGradient>
		<path class="st45" d="M990.399,438.313l77.986,45.024L956.633,682.262l-80.308-46.364
			C876.326,563.147,927.398,474.688,990.399,438.313z"/>
		<path class="st18" d="M1011.938,450.748V582.47l-114.074,65.861C897.863,575.585,948.936,487.122,1011.938,450.748z"/>
		<path class="st13" d="M897.863,648.332l114.074-65.863L910.933,701.997C902.601,688.511,897.863,670.434,897.863,648.332z"/>
		<path class="st46" d="M1011.938,582.469V450.748c63.003-36.374,114.074-6.887,114.074,65.86
			c0,72.748-51.072,161.209-114.074,197.583c-43.861,25.322-81.917,18.695-101.005-12.195L1011.938,582.469z"/>
		<path class="st47" d="M990.399,438.313c31.687-18.295,60.35-19.915,81.021-7.766l20.103,11.606l-0.016,0.032
			c-20.553-11.249-48.612-9.311-79.569,8.562L990.399,438.313L990.399,438.313z"/>
		<path class="st48" d="M907.7,708.456c-7.207-4.608-13.39-10.941-18.306-18.894l21.538,12.435
			c4.916,7.953,11.099,14.286,18.308,18.894L907.7,708.456z"/>
		<path class="st23" d="M889.394,689.562c-8.331-13.484-13.068-31.564-13.068-53.665l0,0l21.538,12.434h-0.002
			c0,22.101,4.74,40.18,13.07,53.665L889.394,689.562z"/>
	</g>
	<g id="Picture">
		
			<linearGradient id="SVGID_29_" gradientUnits="userSpaceOnUse" x1="231.6615" y1="605.0579" x2="512.9761" y2="605.0579" gradientTransform="matrix(1 0 0 -1 0 2019.8898)">
			<stop  offset="0" style="stop-color:#C4C9E4"/>
			<stop  offset="0.2542" style="stop-color:#CED2E8"/>
			<stop  offset="0.6771" style="stop-color:#E7E9F4"/>
			<stop  offset="1" style="stop-color:#FFFFFF"/>
		</linearGradient>
		<path class="st49" d="M505.738,1405.249l-116.822-67.451c-9.643-5.569-25.421-5.569-35.07,0.002l-114.951,66.367
			c-9.645,5.569-9.643,14.677-0.004,20.248l61.118,35.288v36.338h73.207c0.022,0,0.043,0,0.066,0h0.002l0,0
			c6.345-0.005,12.687-1.395,17.5-4.174l114.962-66.374C515.389,1419.928,515.385,1410.816,505.738,1405.249z"/>
		<g>
			<path class="st6" d="M321.584,1450.795c-9.646,5.569-25.426,5.565-35.071-0.002l-116.822-67.45
				c-9.64-5.571-9.642-14.679,0.003-20.248l114.952-66.367c9.649-5.571,25.427-5.571,35.07-0.002l116.822,67.451
				c9.647,5.568,9.65,14.678,0.009,20.246L321.584,1450.795z"/>
			<path class="st2" d="M304.054,1446.522c-5.111,0-9.965-1.11-13.319-3.046l-116.82-67.45c-2.382-1.378-2.985-2.586-3.006-2.811
				c0.021-0.216,0.625-1.425,3.009-2.803l114.951-66.366c3.354-1.936,8.207-3.046,13.314-3.046c5.105,0,9.956,1.11,13.304,3.045
				l116.824,67.449c2.389,1.378,2.993,2.588,3.014,2.813c-0.02,0.217-0.625,1.424-3.005,2.799l-114.962,66.375
				C314.01,1445.412,309.16,1446.522,304.054,1446.522z"/>
			
				<linearGradient id="SVGID_30_" gradientUnits="userSpaceOnUse" x1="2899.1201" y1="1781.6367" x2="3039.7595" y2="2025.2316" gradientTransform="matrix(-0.5 -0.866 -0.866 0.5 3436.2017 3054.5122)">
				<stop  offset="0.4086" style="stop-color:#BBC0E6"/>
				<stop  offset="0.4134" style="stop-color:#BCC1E7"/>
				<stop  offset="0.5654" style="stop-color:#CED3F8"/>
			</linearGradient>
			<path class="st50" d="M162.473,1413.898l0.019,0.002c-0.174,3.803,2.205,7.631,7.202,10.516l116.822,67.45
				c9.643,5.569,25.424,5.566,35.07-0.002l114.952-66.367c5.052-2.917,7.428-6.801,7.19-10.633l0.004-40.057
				c-0.212,3.499-2.588,6.959-7.185,9.613l-114.962,66.374c-9.645,5.569-25.426,5.565-35.071-0.002l-116.822-67.45
				c-4.761-2.753-7.164-6.368-7.221-9.992L162.473,1413.898z"/>
			
				<linearGradient id="SVGID_31_" gradientUnits="userSpaceOnUse" x1="2897.6355" y1="1782.4937" x2="3038.2751" y2="2026.0889" gradientTransform="matrix(-0.5 -0.866 -0.866 0.5 3436.2017 3054.5122)">
				<stop  offset="0.4086" style="stop-color:#5652CC"/>
				<stop  offset="0.4957" style="stop-color:#706CE9"/>
				<stop  offset="0.5654" style="stop-color:#807DFB"/>
			</linearGradient>
			<path class="st51" d="M162.473,1399.56l0.019,0.002c-0.174,3.803,2.205,7.631,7.202,10.515l116.822,67.451
				c9.643,5.57,25.424,5.568,35.07-0.001l114.952-66.367c5.052-2.917,7.428-6.801,7.19-10.633l0.004-7.958
				c-0.212,3.499-2.588,6.96-7.185,9.613l-114.962,66.374c-9.645,5.569-25.426,5.565-35.071-0.001l-116.822-67.451
				c-4.761-2.752-7.164-6.368-7.221-9.991L162.473,1399.56z"/>
		</g>
		<path class="st52" d="M305.591,1328.303c5.747-3.317,15.059-3.317,20.805,0c5.747,3.316,5.747,8.694,0,12.012
			c-5.745,3.316-15.058,3.316-20.804-0.001C299.847,1336.998,299.846,1331.62,305.591,1328.303z"/>
		<path class="st15" d="M314.217,1432.151l38.327-62.792c2.653-4.346-4.595-8.53-12.123-6.999l-108.76,22.128L314.217,1432.151z"/>
		<path class="st53" d="M262.028,1402.019l26.453-43.337c2.653-4.346-4.595-8.531-12.123-6.999l-75.063,15.272L262.028,1402.019z"/>
	</g>
	<g id="Frame_on_the_ground">
		
			<linearGradient id="SVGID_32_" gradientUnits="userSpaceOnUse" x1="834.132" y1="376.0802" x2="1136.951" y2="376.0802" gradientTransform="matrix(1 0 0 -1 0 2019.8898)">
			<stop  offset="0" style="stop-color:#C4C9E4"/>
			<stop  offset="0.2542" style="stop-color:#CED2E8"/>
			<stop  offset="0.6771" style="stop-color:#E7E9F4"/>
			<stop  offset="1" style="stop-color:#FFFFFF"/>
		</linearGradient>
		<path class="st54" d="M1133.173,1683.837l-216.951-125.256c-5.034-2.907-13.27-2.907-18.307,0.001l-60.006,34.644
			c-5.035,2.907-5.034,7.661-0.002,10.569l206.243,119.074v8.35h19.376v-0.013c3.478,0.075,6.998-0.628,9.64-2.153l60.012-34.648
			C1138.211,1691.499,1138.209,1686.744,1133.173,1683.837z"/>
		<path class="st10" d="M896.852,1547.251c-5.034-2.907-13.27-2.907-18.307,0.001l-60.006,34.644
			c-5.035,2.907-5.034,7.661-0.001,10.569l67.519,38.983l78.315-45.216L896.852,1547.251z"/>
		<path class="st18" d="M880.093,1585.543c-0.968-2.734,0.518-5.817,4.441-8.081c5.958-3.442,15.19-3.682,20.629-0.544
			c5.428,3.135,5.005,8.474-0.952,11.911c-3.917,2.264-9.249,3.115-13.987,2.557c5.516,6.421,3.642,13.613-2.207,16.986
			c-1.408-0.824-18.665-10.782-18.665-10.782s-17.25-9.954-18.678-10.778C856.517,1583.436,868.978,1582.354,880.093,1585.543z"/>
		<path class="st2" d="M1113.802,1672.507l-149.432-86.273l-78.315,45.216l149.431,86.273c5.036,2.906,13.273,2.908,18.308,0.001
			l60.012-34.648C1118.84,1680.17,1118.838,1675.414,1113.802,1672.507z"/>
		<path class="st18" d="M818.536,1592.466c-2.486-1.437-3.74-3.325-3.769-5.217l0.003,11.057l0.01,0.001
			c-0.091,1.984,1.151,3.983,3.759,5.488l67.516,38.981v-11.33L818.536,1592.466z"/>
		
			<linearGradient id="SVGID_33_" gradientUnits="userSpaceOnUse" x1="1964.4453" y1="1262.9674" x2="2115.8469" y2="1525.2028" gradientTransform="matrix(-0.5 -0.866 -0.866 0.5 3193.5171 2751.0659)">
			<stop  offset="0.4086" style="stop-color:#BBC0E6"/>
			<stop  offset="0.4134" style="stop-color:#BCC1E7"/>
			<stop  offset="0.5654" style="stop-color:#CED3F8"/>
		</linearGradient>
		<path class="st55" d="M1113.807,1683.076l-60.012,34.648c-5.035,2.907-13.272,2.906-18.308-0.001l-149.431-86.273v11.33
			l149.434,86.276c5.034,2.907,13.272,2.906,18.307-0.001l60.006-34.644c2.637-1.522,3.877-3.551,3.753-5.55l0.001-10.802
			C1117.446,1679.884,1116.207,1681.69,1113.807,1683.076z"/>
		
			<linearGradient id="SVGID_34_" gradientUnits="userSpaceOnUse" x1="2384.3872" y1="-424.5838" x2="2528.7146" y2="-174.6012" gradientTransform="matrix(-1 -0.5774 0.866 -0.5 3694.8101 2991.0088)">
			<stop  offset="0.4086" style="stop-color:#BBC0E6"/>
			<stop  offset="0.5654" style="stop-color:#C4CAE9"/>
		</linearGradient>
		<polygon class="st56" points="942.573,1610.689 1061.933,1679.601 1070.22,1674.817 950.86,1605.904 		"/>
		
			<linearGradient id="SVGID_35_" gradientUnits="userSpaceOnUse" x1="2489.4082" y1="-330.7231" x2="2556.1262" y2="-215.164" gradientTransform="matrix(-1 -0.5774 0.866 -0.5 3694.8101 2991.0088)">
			<stop  offset="0.4086" style="stop-color:#BBC0E6"/>
			<stop  offset="0.5654" style="stop-color:#C4CAE9"/>
		</linearGradient>
		<polygon class="st57" points="921.151,1623.057 967.413,1649.766 975.7,1644.982 929.438,1618.273 		"/>
		
			<linearGradient id="SVGID_36_" gradientUnits="userSpaceOnUse" x1="2483.7795" y1="-274.5049" x2="2513.7109" y2="-222.6626" gradientTransform="matrix(-1 -0.5774 0.866 -0.5 3694.8101 2991.0088)">
			<stop  offset="0.4086" style="stop-color:#BBC0E6"/>
			<stop  offset="0.5654" style="stop-color:#C4CAE9"/>
		</linearGradient>
		<polygon class="st58" points="976.561,1655.049 988.175,1661.754 996.463,1656.97 984.847,1650.263 		"/>
	</g>
	<g id="Gear">
		
			<linearGradient id="SVGID_37_" gradientUnits="userSpaceOnUse" x1="453.8644" y1="357.1213" x2="650.0861" y2="357.1213" gradientTransform="matrix(1 0 0 -1 0 2019.8898)">
			<stop  offset="0.3315" style="stop-color:#C4C9E5"/>
			<stop  offset="0.5839" style="stop-color:#D7DBED"/>
			<stop  offset="1" style="stop-color:#FFFFFF"/>
		</linearGradient>
		<path class="st59" d="M628.314,1652.712c-0.789-1.366-1.747-2.703-2.853-4.016c-3.883-3.857,5.065-10.306,9.105-12.637
			c0.076,0-11.777-6.84-11.777-6.84l-34.817,0.032c-2.33-2.979-2.939-7.019-2.926-9.095l-16.709-0.007
			c-0.003,2.724-1.115,8.815-5.725,11.476c-0.968,0.559-2.083,0.964-3.38,1.159c-2.362,0.462-4.693,1.017-6.948,1.67
			c-0.143-0.014-0.222-0.029-0.296-0.05c-2.258-0.65-4.571-1.208-6.93-1.667c-7.461-1.125-8.995-9.339-8.977-12.63l-16.71-0.003
			c-0.003,2.721-1.111,8.815-5.725,11.476c-0.965,0.556-2.084,0.965-3.377,1.154c-2.367,0.462-4.693,1.015-6.948,1.67
			c-7.693,1.656-17.771-2.9-21.787-5.234l-11.849,6.84c4.016,2.333,12.889,8.786,8.959,12.634c-1.129,1.308-2.094,2.65-2.892,4.022
			c-0.341,0.749-1.047,1.395-2.011,1.954c-4.61,2.657-15.125,3.285-19.847,3.285l-0.028,9.676c5.682-0.003,19.86,0.91,21.768,5.234
			c0.797,1.369,1.728,2.706,2.857,4.022c3.886,3.849-5.066,10.299-9.102,12.634l11.769,6.844c0.412-0.241,0.914-0.509,1.463-0.796
			l-1.38,0.796l34.8,0.036c2.276,2.973,2.871,6.966,2.853,9.03l65.66,0.05c0-0.003,16.365-9.092,16.365-9.092l21.496,0.018
			c0,0.003,11.856-6.837,11.856-6.837c-4.026-2.334-12.892-8.787-8.97-12.634c0.685-0.799,1.291-1.61,1.857-2.435l11.017,0.014
			l11.845-6.841c0.01,0,0.068-9.669,0.068-9.669C643.992,1658.194,630.225,1657.043,628.314,1652.712z"/>
		<g>
			<path class="st60" d="M479.625,1618.199c-0.011-3.757-6.628-8.486-9.942-10.411l0.082,28.221
				c3.31,1.925,9.931,6.654,9.937,10.411L479.625,1618.199z"/>
			<path class="st61" d="M585.681,1636.01l-0.082-28.221c-3.348,1.932-10.07,6.701-10.055,10.464l0.076,28.221
				C575.611,1642.71,582.333,1637.945,585.681,1636.01z"/>
			
				<linearGradient id="SVGID_38_" gradientUnits="userSpaceOnUse" x1="497.8979" y1="379.792" x2="557.179" y2="379.792" gradientTransform="matrix(1 0 0 -1 0 2019.8898)">
				<stop  offset="0" style="stop-color:#BBBFE2"/>
				<stop  offset="1" style="stop-color:#DCE0F7"/>
			</linearGradient>
			<path class="st62" d="M506.71,1650.625c11.604-6.703,30.334-6.703,41.859-0.003c5.725,3.327,8.593,7.679,8.61,12.041
				l-0.086-28.224c-0.014-4.356-2.882-8.712-8.604-12.042c-11.53-6.696-30.255-6.696-41.862,0c-5.833,3.37-8.74,7.79-8.73,12.204
				l0.076,28.221C497.966,1658.409,500.881,1653.988,506.71,1650.625z"/>
			<polygon class="st63" points="481.156,1668.088 469.387,1661.248 469.465,1689.469 481.239,1696.314 			"/>
			<polygon class="st61" points="585.383,1689.469 585.301,1661.248 573.449,1668.088 573.532,1696.314 			"/>
			
				<linearGradient id="SVGID_39_" gradientUnits="userSpaceOnUse" x1="481.1573" y1="336.1153" x2="518.9749" y2="336.1153" gradientTransform="matrix(1 0 0 -1 0 2019.8898)">
				<stop  offset="0" style="stop-color:#BBBFE2"/>
				<stop  offset="1" style="stop-color:#CED2F4"/>
			</linearGradient>
			<path class="st64" d="M503.079,1691.079c2.251,0.648,4.567,1.204,6.934,1.663c7.364,1.108,8.952,9.134,8.962,12.508
				l-0.078-28.221c-0.014-3.377-1.602-11.397-8.962-12.504c-2.362-0.464-4.682-1.018-6.934-1.667
				c-6.636-2.258-17.803,2.896-21.844,5.23l0.082,28.226C485.275,1693.976,496.446,1688.817,503.079,1691.079z"/>
			
				<linearGradient id="SVGID_40_" gradientUnits="userSpaceOnUse" x1="2801.2271" y1="-722.7228" x2="2819.8726" y2="-753.9059" gradientTransform="matrix(-0.5 0.866 0.866 0.5 2598.1931 -381.0637)">
				<stop  offset="0" style="stop-color:#CED2F4"/>
				<stop  offset="1" style="stop-color:#BBBFE2"/>
			</linearGradient>
			<path class="st65" d="M541.442,1693.889c0.947-0.548,2.058-0.95,3.356-1.143c2.37-0.462,4.667-1.015,6.937-1.66
				c6.672-2.27,17.782,2.889,21.797,5.227l-0.082-28.226c-4.012-2.334-15.122-7.49-21.793-5.223c-2.268,0.642-4.57,1.198-6.937,1.66
				c-1.297,0.194-2.406,0.595-3.359,1.143c-4.549,2.624-5.513,8.626-5.771,11.49l0.082,28.218
				C535.928,1702.518,536.889,1696.514,541.442,1693.889z"/>
			<path class="st2" d="M478.489,1648.614c3.886,3.847-5.066,10.299-9.102,12.634l11.769,6.84c4.04-2.334,15.207-7.49,21.844-5.23
				c2.252,0.648,4.571,1.204,6.934,1.667c7.454,1.114,8.988,9.335,8.959,12.634h16.695c0.258-2.865,1.222-8.866,5.771-11.491
				c0.954-0.548,2.061-0.949,3.359-1.143c2.367-0.464,4.668-1.018,6.937-1.66c6.672-2.265,17.782,2.889,21.793,5.223l11.852-6.84
				c-4.016-2.331-12.891-8.786-8.966-12.634c1.122-1.311,2.1-2.656,2.904-4.022c0.338-0.745,1.047-1.395,2.011-1.95
				c4.603-2.664,15.122-3.287,19.818-3.287l0.05-9.672c-6.099,0.24-19.861-0.915-21.768-5.242c-0.786-1.369-1.746-2.706-2.855-4.016
				c-3.882-3.854,5.063-10.304,9.103-12.637l-11.774-6.84c-4.04,2.331-15.207,7.493-21.84,5.23c-2.258-0.645-4.571-1.204-6.93-1.663
				c-7.461-1.125-8.995-9.339-8.977-12.63l-16.71-0.007c-0.003,2.724-1.111,8.82-5.725,11.479c-0.965,0.553-2.084,0.962-3.377,1.154
				c-2.367,0.462-4.693,1.014-6.948,1.667c-7.693,1.66-17.771-2.9-21.787-5.23l-11.849,6.84c4.016,2.333,12.889,8.783,8.959,12.63
				c-1.129,1.308-2.094,2.653-2.892,4.026c-0.341,0.745-1.047,1.391-2.011,1.953c-4.611,2.657-15.125,3.285-19.847,3.285
				l-0.028,9.672c5.682,0,19.86,0.91,21.768,5.238C476.428,1645.958,477.36,1647.299,478.489,1648.614z M506.628,1622.398
				c11.609-6.696,30.332-6.696,41.862,0c11.518,6.696,11.468,17.553-0.136,24.252c-11.586,6.694-30.334,6.686-41.849-0.007
				C494.977,1639.943,495.038,1629.094,506.628,1622.398z"/>
			<path class="st63" d="M469.387,1661.248c4.037-2.333,12.988-8.786,9.102-12.634c-1.129-1.316-2.061-2.656-2.857-4.022
				c-1.908-4.328-16.087-5.238-21.768-5.238l0.079,28.221c3.539,0,10.354,0.355,15.462,1.665L469.387,1661.248z"/>
			<polygon class="st61" points="535.671,1705.376 535.587,1677.159 518.891,1677.159 518.975,1705.38 			"/>
			
				<linearGradient id="SVGID_41_" gradientUnits="userSpaceOnUse" x1="575.3558" y1="365.5362" x2="601.1469" y2="365.5362" gradientTransform="matrix(1 0 0 -1 0 2019.8898)">
				<stop  offset="0.4045" style="stop-color:#BBBFE2"/>
				<stop  offset="1" style="stop-color:#CED2F4"/>
			</linearGradient>
			<path class="st66" d="M601.147,1667.576l-0.079-28.221c-4.696,0-15.214,0.623-19.818,3.287c-0.964,0.556-1.675,1.204-2.011,1.95
				c-0.802,1.366-1.782,2.711-2.904,4.022c-3.925,3.847,4.95,10.303,8.966,12.634l0.026,8.106
				C590.489,1667.967,597.529,1667.576,601.147,1667.576z"/>
		</g>
	</g>
</g>
</svg>
