<svg id="Layer_1" xmlns="http://www.w3.org/2000/svg" viewBox="0 0 96 96"><style>.st0{fill:#dcd5f2}.st1{fill:#8b75a1}.st2{fill:#36404d;stroke:#36404d;stroke-width:2;stroke-miterlimit:10}</style><path class="st0" d="M48 69.5C26.22 69.5 8.5 59.855 8.5 48S26.22 26.5 48 26.5 87.5 36.145 87.5 48 69.78 69.5 48 69.5z"/><path class="st1" d="M48 27c21.505 0 39 9.421 39 21S69.505 69 48 69 9 59.579 9 48s17.495-21 39-21m0-1C25.909 26 8 35.85 8 48s17.909 22 40 22 40-9.85 40-22-17.909-22-40-22z"/><path class="st2" d="M33.112 42c1.725 0 3.214.622 4.084 1.706.749.934.981 2.171.668 3.577C37.023 51.074 35.395 52 29.57 52h-4.14l1.75-10h5.932m0-2H25.5L22 60h2l1.056-6h4.515c5.863 0 9.053-.905 10.246-6.284C40.842 43.096 37.436 40 33.112 40zm36 2c1.725 0 3.214.622 4.084 1.706.749.934.981 2.171.668 3.577C73.023 51.074 71.395 52 65.57 52h-4.14l1.75-10h5.932m0-2H61.5L58 60h2l1.056-6h4.515c5.863 0 9.053-.905 10.246-6.284C76.842 43.096 73.436 40 69.112 40zM57.072 41.212C56.193 40.348 54.644 40 52.334 40h-5.538L48 34h-2.1L42 54h1.99l2.388-12h5.957c2.338 0 3.094.4 3.335.637.343.338.424 1.226.217 2.363l-1.767 9h2.106l1.626-8.63c.347-1.908.084-3.308-.78-4.158z"/></svg>