<?xml version="1.0" encoding="utf-8"?>
<!-- Generator: Adobe Illustrator 24.0.2, SVG Export Plug-In . SVG Version: 6.00 Build 0)  -->
<svg version="1.1" id="Layer_1" xmlns="http://www.w3.org/2000/svg" xmlns:xlink="http://www.w3.org/1999/xlink" x="0px" y="0px"
	 viewBox="0 0 96 96" style="enable-background:new 0 0 96 96;" xml:space="preserve">
<style type="text/css">
	.st0{fill:#DCD5F2;}
	.st1{fill:#8B75A1;}
	.st2{fill:#36404D;stroke:#36404D;stroke-width:2;stroke-miterlimit:10;}
</style>
<path class="st0" d="M48,69.5C26.22,69.5,8.5,59.855,8.5,48S26.22,26.5,48,26.5S87.5,36.145,87.5,48S69.78,69.5,48,69.5z"/>
<path class="st1" d="M48,27c21.505,0,39,9.421,39,21S69.505,69,48,69S9,59.579,9,48S26.495,27,48,27 M48,26C25.909,26,8,35.85,8,48
	s17.909,22,40,22s40-9.85,40-22S70.091,26,48,26L48,26z"/>
<path class="st2" d="M33.112,42c1.725,0,3.214,0.622,4.084,1.706c0.749,0.934,0.981,2.171,0.668,3.577
	C37.023,51.074,35.395,52,29.57,52h-4.14l1.75-10H33.112 M33.112,40H25.5L22,60h2l1.056-6h4.515c5.863,0,9.053-0.905,10.246-6.284
	C40.842,43.096,37.436,40,33.112,40L33.112,40z M69.112,42c1.725,0,3.214,0.622,4.084,1.706c0.749,0.934,0.981,2.171,0.668,3.577
	C73.023,51.074,71.395,52,65.57,52h-4.14l1.75-10H69.112 M69.112,40H61.5L58,60h2l1.056-6h4.515c5.863,0,9.053-0.905,10.246-6.284
	C76.842,43.096,73.436,40,69.112,40L69.112,40z"/>
<g>
	<path class="st2" d="M57.072,41.212C56.193,40.348,54.644,40,52.334,40h-5.538L48,34h-2.1L42,54h1.99l2.388-12h0.419h5.538
		c2.338,0,3.094,0.4,3.335,0.637c0.343,0.338,0.424,1.226,0.217,2.363l-1.767,9h2.106l1.626-8.63
		C58.199,43.462,57.936,42.062,57.072,41.212z"/>
</g>
</svg>
