<svg id="Layer_1" xmlns="http://www.w3.org/2000/svg" xmlns:xlink="http://www.w3.org/1999/xlink" width="96" height="96" viewBox="0 0 48 48"><style>.st0{clip-path:url(#SVGID_2_)}.st1{fill:#fff}.st2{fill:none;stroke:#fff;stroke-width:6;stroke-miterlimit:10}.st3{fill:#29abe2}.st4{fill:none;stroke:#fff;stroke-width:2;stroke-miterlimit:10}.st5{fill:#ff931e}</style><defs><path id="SVGID_1_" d="M0 0h48v48H0z"/></defs><clipPath id="SVGID_2_"><use xlink:href="#SVGID_1_" overflow="visible"/></clipPath><g class="st0"><path class="st1" d="M35.142 9.621c-7.101 0-12.858 5.757-12.858 12.858 0 7.101 5.757 12.858 12.858 12.858S48 29.579 48 22.478 42.243 9.621 35.142 9.621zm1.031 13.878c0 .427-.066.831-.2 1.21a2.62 2.62 0 0 1-.626.996 2.488 2.488 0 0 1-.895.599c-.434.161-.956.242-1.564.242-.352 0-.736-.025-1.152-.074s-.764-.147-1.043-.293a2.598 2.598 0 0 1-.767-.624 2.276 2.276 0 0 1-.476-.833c-.138-.46-.207-.867-.207-1.222v-4.308h2.229v4.411c0 .394.109.702.328.925.219.222.522.333.91.333.385 0 .686-.109.905-.328.219-.219.328-.529.328-.929v-4.411h2.229v4.306zm3.809 2.923h-2.24v-7.231h2.24v7.231z"/><path class="st2" d="M35.142 9.621c-7.101 0-12.858 5.757-12.858 12.858 0 7.101 5.757 12.858 12.858 12.858S48 29.579 48 22.478 42.243 9.621 35.142 9.621zm1.031 13.878c0 .427-.066.831-.2 1.21a2.62 2.62 0 0 1-.626.996 2.488 2.488 0 0 1-.895.599c-.434.161-.956.242-1.564.242-.352 0-.736-.025-1.152-.074s-.764-.147-1.043-.293a2.598 2.598 0 0 1-.767-.624 2.276 2.276 0 0 1-.476-.833c-.138-.46-.207-.867-.207-1.222v-4.308h2.229v4.411c0 .394.109.702.328.925.219.222.522.333.91.333.385 0 .686-.109.905-.328.219-.219.328-.529.328-.929v-4.411h2.229v4.306zm3.809 2.923h-2.24v-7.231h2.24v7.231z"/><path class="st3" d="M35.142 9.621c-7.101 0-12.858 5.757-12.858 12.858 0 7.101 5.757 12.858 12.858 12.858S48 29.579 48 22.478 42.243 9.621 35.142 9.621zm1.031 13.878c0 .427-.066.831-.2 1.21a2.62 2.62 0 0 1-.626.996 2.488 2.488 0 0 1-.895.599c-.434.161-.956.242-1.564.242-.352 0-.736-.025-1.152-.074s-.764-.147-1.043-.293a2.598 2.598 0 0 1-.767-.624 2.276 2.276 0 0 1-.476-.833c-.138-.46-.207-.867-.207-1.222v-4.308h2.229v4.411c0 .394.109.702.328.925.219.222.522.333.91.333.385 0 .686-.109.905-.328.219-.219.328-.529.328-.929v-4.411h2.229v4.306zm3.809 2.923h-2.24v-7.231h2.24v7.231z"/></g><g class="st0"><path class="st1" d="M12.858 9.621C5.757 9.621 0 15.377 0 22.478c0 7.101 5.757 12.858 12.858 12.858s12.858-5.757 12.858-12.858c-.001-7.101-5.757-12.857-12.858-12.857zm-.002 13.878c0 .427-.066.831-.2 1.21a2.62 2.62 0 0 1-.626.996 2.488 2.488 0 0 1-.895.599c-.434.161-.955.242-1.564.242-.352 0-.736-.025-1.152-.074s-.764-.147-1.043-.293a2.598 2.598 0 0 1-.767-.624 2.29 2.29 0 0 1-.476-.833c-.138-.46-.207-.867-.207-1.222v-4.308h2.229v4.411c0 .394.109.702.328.925.219.222.522.333.91.333.385 0 .686-.109.905-.328.219-.219.328-.529.328-.929v-4.411h2.229v4.306zm6.112 2.923l-1.428-2.323-1.428 2.323h-2.496l2.494-3.769-2.267-3.463h2.462l1.28 2.225 1.245-2.225h2.437l-2.251 3.502 2.463 3.729h-2.511z"/><path class="st4" d="M12.858 9.621C5.757 9.621 0 15.377 0 22.478c0 7.101 5.757 12.858 12.858 12.858s12.858-5.757 12.858-12.858c-.001-7.101-5.757-12.857-12.858-12.857zm-.002 13.878c0 .427-.066.831-.2 1.21a2.62 2.62 0 0 1-.626.996 2.488 2.488 0 0 1-.895.599c-.434.161-.955.242-1.564.242-.352 0-.736-.025-1.152-.074s-.764-.147-1.043-.293a2.598 2.598 0 0 1-.767-.624 2.29 2.29 0 0 1-.476-.833c-.138-.46-.207-.867-.207-1.222v-4.308h2.229v4.411c0 .394.109.702.328.925.219.222.522.333.91.333.385 0 .686-.109.905-.328.219-.219.328-.529.328-.929v-4.411h2.229v4.306zm6.112 2.923l-1.428-2.323-1.428 2.323h-2.496l2.494-3.769-2.267-3.463h2.462l1.28 2.225 1.245-2.225h2.437l-2.251 3.502 2.463 3.729h-2.511z"/><path class="st5" d="M12.858 9.621C5.757 9.621 0 15.377 0 22.478c0 7.101 5.757 12.858 12.858 12.858s12.858-5.757 12.858-12.858c-.001-7.101-5.757-12.857-12.858-12.857zm-.002 13.878c0 .427-.066.831-.2 1.21a2.62 2.62 0 0 1-.626.996 2.488 2.488 0 0 1-.895.599c-.434.161-.955.242-1.564.242-.352 0-.736-.025-1.152-.074s-.764-.147-1.043-.293a2.598 2.598 0 0 1-.767-.624 2.29 2.29 0 0 1-.476-.833c-.138-.46-.207-.867-.207-1.222v-4.308h2.229v4.411c0 .394.109.702.328.925.219.222.522.333.91.333.385 0 .686-.109.905-.328.219-.219.328-.529.328-.929v-4.411h2.229v4.306zm6.112 2.923l-1.428-2.323-1.428 2.323h-2.496l2.494-3.769-2.267-3.463h2.462l1.28 2.225 1.245-2.225h2.437l-2.251 3.502 2.463 3.729h-2.511z"/></g></svg>