<?xml version="1.0" encoding="utf-8"?>
<!-- Generator: Adobe Illustrator 24.0.2, SVG Export Plug-In . SVG Version: 6.00 Build 0)  -->
<svg version="1.1" id="Layer_1" xmlns="http://www.w3.org/2000/svg" xmlns:xlink="http://www.w3.org/1999/xlink" x="0px" y="0px"
	 viewBox="0 0 2290.884 2020.845" style="enable-background:new 0 0 2290.884 2020.845;" xml:space="preserve">
<style type="text/css">
	.st0{fill:#F6F6FB;}
	.st1{fill:#E8ECF7;}
	.st2{fill:url(#SVGID_1_);}
	.st3{fill:url(#SVGID_2_);}
	.st4{fill:url(#SVGID_3_);}
	.st5{fill:url(#SVGID_4_);}
	.st6{fill:url(#SVGID_5_);}
	.st7{fill:url(#SVGID_6_);}
	.st8{fill:url(#SVGID_7_);}
	.st9{fill:url(#SVGID_8_);}
	.st10{fill:url(#SVGID_9_);}
	.st11{fill:url(#SVGID_10_);}
	.st12{fill:url(#SVGID_11_);}
	.st13{fill:url(#SVGID_12_);}
	.st14{fill:url(#SVGID_13_);}
	.st15{fill:url(#SVGID_14_);}
	.st16{fill:url(#SVGID_15_);}
	.st17{fill:#F1F3F9;}
	.st18{fill:url(#SVGID_16_);}
	.st19{fill:url(#SVGID_17_);}
	.st20{fill:url(#SVGID_18_);}
	.st21{fill:url(#SVGID_19_);}
	.st22{fill:url(#SVGID_20_);}
	.st23{fill:#BBC0E6;}
	.st24{fill:url(#SVGID_21_);}
	.st25{fill:url(#SVGID_22_);}
	.st26{fill:#EFEFF3;}
	.st27{fill:#CED3F8;}
	.st28{fill:#FFFFFF;}
	.st29{fill:#DAE0F5;}
	.st30{fill:url(#SVGID_23_);}
	.st31{fill:url(#SVGID_24_);}
	.st32{fill:#423EAF;}
	.st33{fill:#362E94;}
	.st34{fill:#FF4F5B;}
	.st35{fill:#5652CC;}
	.st36{fill:#FFAD02;}
	.st37{fill:url(#SVGID_25_);}
	.st38{fill:#EFF2F9;}
	.st39{fill:url(#SVGID_26_);}
	.st40{fill:url(#SVGID_27_);}
	.st41{fill:url(#SVGID_28_);}
	.st42{fill:url(#SVGID_29_);}
	.st43{fill:url(#SVGID_30_);}
	.st44{fill:url(#SVGID_31_);}
	.st45{fill:url(#SVGID_32_);}
	.st46{fill:url(#SVGID_33_);}
	.st47{fill:url(#SVGID_34_);}
	.st48{fill:url(#SVGID_35_);}
	.st49{fill:url(#SVGID_36_);}
	.st50{fill:#1967A7;}
	.st51{fill:#F1F1F6;}
	.st52{fill:url(#SVGID_37_);}
	.st53{fill:url(#SVGID_38_);}
	.st54{fill:url(#SVGID_39_);}
	.st55{fill:#A5ABCC;}
	.st56{fill:#FF826A;}
	.st57{fill:url(#SVGID_40_);}
	.st58{fill:url(#SVGID_41_);}
	.st59{fill:url(#SVGID_42_);}
	.st60{fill:url(#SVGID_43_);}
	.st61{fill:url(#SVGID_44_);}
	.st62{fill:url(#SVGID_45_);}
	.st63{fill:url(#SVGID_46_);}
	.st64{fill:url(#SVGID_47_);}
	.st65{fill:url(#SVGID_48_);}
	.st66{fill:url(#SVGID_49_);}
	.st67{fill:#D1D7F3;}
	.st68{fill:url(#SVGID_50_);}
	.st69{fill:url(#SVGID_51_);}
	.st70{fill:#FACFA7;}
	.st71{fill:url(#SVGID_52_);}
	.st72{fill:url(#SVGID_53_);}
	.st73{fill:url(#SVGID_54_);}
	.st74{fill:#131147;}
	.st75{fill:#FCD1A9;}
	.st76{fill:#20196F;}
	.st77{fill:url(#SVGID_55_);}
	.st78{fill:url(#SVGID_56_);}
	.st79{fill:url(#SVGID_57_);}
	.st80{fill:url(#SVGID_58_);}
	.st81{fill:url(#SVGID_59_);}
</style>
<g id="Background">
</g>
<g id="Name">
</g>
<g id="Background_1_">
</g>
<g id="Name_1_">
</g>
<g id="Objects">
	<polygon class="st0" points="1262.56,1451.015 1417.193,1540.292 1262.561,1629.568 1107.93,1540.292 	"/>
	<polygon class="st1" points="1107.929,1361.739 1262.56,1451.015 1107.93,1540.292 953.298,1451.014 	"/>
	<polygon class="st0" points="953.297,1272.462 1107.93,1361.739 953.298,1451.015 798.667,1361.738 	"/>
	<polygon class="st1" points="798.666,1183.185 953.297,1272.462 798.667,1361.738 644.035,1272.461 	"/>
	<polygon class="st0" points="644.035,1093.909 798.667,1183.185 644.036,1272.461 489.404,1183.185 	"/>
	<polygon class="st1" points="489.403,1004.632 644.035,1093.909 489.404,1183.185 334.772,1093.907 	"/>
	<polygon class="st0" points="1262.56,1272.462 1417.193,1361.739 1262.561,1451.015 1107.93,1361.739 	"/>
	<polygon class="st1" points="1107.929,1183.185 1262.56,1272.462 1107.93,1361.739 953.298,1272.461 	"/>
	<polygon class="st0" points="953.297,1093.909 1107.93,1183.185 953.298,1272.462 798.667,1183.185 	"/>
	<polygon class="st1" points="798.666,1004.632 953.297,1093.909 798.667,1183.185 644.035,1093.909 	"/>
	<polygon class="st0" points="644.035,915.356 798.667,1004.632 644.036,1093.909 489.404,1004.632 	"/>
	<polygon class="st1" points="1417.193,1361.739 1571.824,1451.016 1417.193,1540.292 1262.561,1451.015 	"/>
	<polygon class="st0" points="1571.823,1272.462 1726.455,1361.74 1571.824,1451.016 1417.193,1361.739 	"/>
	<polygon class="st1" points="1417.191,1183.186 1571.823,1272.462 1417.193,1361.739 1262.56,1272.462 	"/>
	<polygon class="st0" points="1262.56,1093.91 1417.192,1183.186 1262.561,1272.462 1107.93,1183.185 	"/>
	<polygon class="st1" points="1107.928,1004.632 1262.56,1093.91 1107.93,1183.185 953.297,1093.909 	"/>
	<polygon class="st0" points="953.297,915.357 1107.93,1004.633 953.298,1093.91 798.667,1004.632 	"/>
	<polygon class="st1" points="798.666,826.079 953.297,915.357 798.667,1004.632 644.035,915.356 	"/>
	<polygon class="st0" points="1571.823,1093.91 1726.455,1183.187 1571.824,1272.462 1417.193,1183.186 	"/>
	<polygon class="st1" points="1417.191,1004.633 1571.823,1093.91 1417.193,1183.186 1262.56,1093.91 	"/>
	<polygon class="st0" points="1262.56,915.357 1417.192,1004.633 1262.561,1093.91 1107.93,1004.632 	"/>
	<polygon class="st1" points="1107.928,826.079 1262.56,915.357 1107.93,1004.632 953.297,915.356 	"/>
	<polygon class="st0" points="953.297,736.803 1107.93,826.079 953.298,915.357 798.667,826.079 	"/>
	<polygon class="st1" points="1726.455,1183.187 1881.086,1272.464 1726.456,1361.74 1571.824,1272.462 	"/>
	<polygon class="st0" points="1881.086,1093.911 2035.718,1183.187 1881.086,1272.464 1726.455,1183.187 	"/>
	<polygon class="st1" points="1726.455,1004.633 1881.086,1093.911 1726.455,1183.187 1571.823,1093.91 	"/>
	<polygon class="st0" points="1571.823,915.357 1726.455,1004.634 1571.824,1093.91 1417.192,1004.633 	"/>
	<polygon class="st1" points="1417.191,826.081 1571.823,915.357 1417.192,1004.633 1262.56,915.357 	"/>
	<polygon class="st0" points="1262.56,736.804 1417.192,826.081 1262.561,915.357 1107.93,826.079 	"/>
	<polygon class="st1" points="1107.928,647.528 1262.56,736.804 1107.93,826.079 953.297,736.803 	"/>
	<polygon class="st0" points="1881.086,915.357 2035.718,1004.634 1881.086,1093.911 1726.455,1004.633 	"/>
	<polygon class="st1" points="1726.455,826.081 1881.086,915.357 1726.455,1004.633 1571.823,915.357 	"/>
	<polygon class="st0" points="1571.823,736.804 1726.455,826.081 1571.824,915.357 1417.192,826.081 	"/>
	<polygon class="st1" points="1417.191,647.528 1571.823,736.804 1417.192,826.081 1262.56,736.804 	"/>
	<polygon class="st0" points="1262.56,558.251 1417.192,647.528 1262.561,736.804 1107.93,647.528 	"/>
	<polygon class="st1" points="2035.718,1004.634 2190.35,1093.911 2035.719,1183.187 1881.086,1093.911 	"/>
	
		<linearGradient id="SVGID_1_" gradientUnits="userSpaceOnUse" x1="1093.3103" y1="152.684" x2="1238.5232" y2="404.2003" gradientTransform="matrix(1 0 0 -1 0 2019.8898)">
		<stop  offset="0.1882" style="stop-color:#FFFFFF"/>
		<stop  offset="1" style="stop-color:#EFEFF3"/>
	</linearGradient>
	<polygon class="st2" points="1107.93,1875.646 1262.561,1875.646 1262.561,1629.568 1107.93,1540.292 	"/>
	
		<linearGradient id="SVGID_2_" gradientUnits="userSpaceOnUse" x1="938.6784" y1="241.9605" x2="1083.8918" y2="493.4774" gradientTransform="matrix(1 0 0 -1 0 2019.8898)">
		<stop  offset="0.1935" style="stop-color:#FFFFFF"/>
		<stop  offset="1" style="stop-color:#D1D7F3"/>
	</linearGradient>
	<polygon class="st3" points="953.298,1786.37 1107.93,1786.37 1107.93,1540.292 953.298,1451.014 	"/>
	
		<linearGradient id="SVGID_3_" gradientUnits="userSpaceOnUse" x1="784.0464" y1="331.2377" x2="929.2597" y2="582.7544" gradientTransform="matrix(1 0 0 -1 0 2019.8898)">
		<stop  offset="0.1882" style="stop-color:#FFFFFF"/>
		<stop  offset="1" style="stop-color:#EFEFF3"/>
	</linearGradient>
	<polygon class="st4" points="798.666,1697.093 953.298,1697.093 953.298,1451.014 798.666,1361.738 	"/>
	
		<linearGradient id="SVGID_4_" gradientUnits="userSpaceOnUse" x1="629.4145" y1="420.5142" x2="774.6275" y2="672.0305" gradientTransform="matrix(1 0 0 -1 0 2019.8898)">
		<stop  offset="0.1935" style="stop-color:#FFFFFF"/>
		<stop  offset="1" style="stop-color:#D1D7F3"/>
	</linearGradient>
	<polygon class="st5" points="644.034,1607.816 798.666,1607.816 798.666,1361.738 644.034,1272.461 	"/>
	
		<linearGradient id="SVGID_5_" gradientUnits="userSpaceOnUse" x1="474.7828" y1="509.7907" x2="619.9961" y2="761.3077" gradientTransform="matrix(1 0 0 -1 0 2019.8898)">
		<stop  offset="0.1882" style="stop-color:#FFFFFF"/>
		<stop  offset="1" style="stop-color:#EFEFF3"/>
	</linearGradient>
	<polygon class="st6" points="489.403,1518.54 644.034,1518.54 644.034,1272.461 489.403,1183.184 	"/>
	
		<linearGradient id="SVGID_6_" gradientUnits="userSpaceOnUse" x1="320.1514" y1="599.068" x2="465.3644" y2="850.5843" gradientTransform="matrix(1 0 0 -1 0 2019.8898)">
		<stop  offset="0.1935" style="stop-color:#FFFFFF"/>
		<stop  offset="1" style="stop-color:#D1D7F3"/>
	</linearGradient>
	<polygon class="st7" points="334.771,1429.262 489.403,1429.262 489.403,1183.184 334.771,1093.907 	"/>
	
		<linearGradient id="SVGID_7_" gradientUnits="userSpaceOnUse" x1="2800.6099" y1="152.684" x2="2945.8228" y2="404.2003" gradientTransform="matrix(-1 0 0 -1 4232.4224 2019.8898)">
		<stop  offset="0.1882" style="stop-color:#FFFFFF"/>
		<stop  offset="1" style="stop-color:#DAE0F5"/>
	</linearGradient>
	<polygon class="st8" points="1417.193,1875.646 1262.561,1875.646 1262.561,1629.568 1417.193,1540.292 	"/>
	
		<linearGradient id="SVGID_8_" gradientUnits="userSpaceOnUse" x1="2645.9773" y1="241.9603" x2="2791.1907" y2="493.4772" gradientTransform="matrix(-1 0 0 -1 4232.4224 2019.8898)">
		<stop  offset="0.1935" style="stop-color:#FFFFFF"/>
		<stop  offset="1" style="stop-color:#BBC0E6"/>
	</linearGradient>
	<polygon class="st9" points="1571.826,1786.37 1417.193,1786.37 1417.193,1540.292 1571.826,1451.014 	"/>
	
		<linearGradient id="SVGID_9_" gradientUnits="userSpaceOnUse" x1="2491.3457" y1="331.2379" x2="2636.5586" y2="582.7542" gradientTransform="matrix(-1 0 0 -1 4232.4224 2019.8898)">
		<stop  offset="0.1882" style="stop-color:#FFFFFF"/>
		<stop  offset="1" style="stop-color:#DAE0F5"/>
	</linearGradient>
	<polygon class="st10" points="1726.457,1697.093 1571.826,1697.093 1571.826,1451.014 1726.457,1361.738 	"/>
	
		<linearGradient id="SVGID_10_" gradientUnits="userSpaceOnUse" x1="2336.7141" y1="420.5143" x2="2481.927" y2="672.0305" gradientTransform="matrix(-1 0 0 -1 4232.4224 2019.8898)">
		<stop  offset="0.1935" style="stop-color:#FFFFFF"/>
		<stop  offset="1" style="stop-color:#BBC0E6"/>
	</linearGradient>
	<polygon class="st11" points="1881.089,1607.816 1726.457,1607.816 1726.457,1361.738 1881.089,1272.461 	"/>
	
		<linearGradient id="SVGID_11_" gradientUnits="userSpaceOnUse" x1="2182.0823" y1="509.7907" x2="2327.2957" y2="761.3077" gradientTransform="matrix(-1 0 0 -1 4232.4224 2019.8898)">
		<stop  offset="0.1882" style="stop-color:#FFFFFF"/>
		<stop  offset="1" style="stop-color:#DAE0F5"/>
	</linearGradient>
	<polygon class="st12" points="2035.72,1518.54 1881.089,1518.54 1881.089,1272.461 2035.72,1183.184 	"/>
	
		<linearGradient id="SVGID_12_" gradientUnits="userSpaceOnUse" x1="2027.4503" y1="599.0677" x2="2172.6636" y2="850.5845" gradientTransform="matrix(-1 0 0 -1 4232.4224 2019.8898)">
		<stop  offset="0.1935" style="stop-color:#FFFFFF"/>
		<stop  offset="1" style="stop-color:#BBC0E6"/>
	</linearGradient>
	<polygon class="st13" points="2190.353,1429.262 2035.72,1429.262 2035.72,1183.184 2190.353,1093.907 	"/>
	
		<linearGradient id="SVGID_13_" gradientUnits="userSpaceOnUse" x1="1881.0864" y1="925.979" x2="2132.2908" y2="925.979" gradientTransform="matrix(1 0 0 -1 0 2019.8898)">
		<stop  offset="0" style="stop-color:#CFD5F1"/>
		<stop  offset="0.1682" style="stop-color:#D8DDF3"/>
		<stop  offset="0.6746" style="stop-color:#EEEFF9"/>
		<stop  offset="1" style="stop-color:#F6F6FB"/>
	</linearGradient>
	<polygon class="st14" points="2074.231,1093.911 2132.29,1060.39 2035.718,1004.634 1881.086,1093.911 2035.719,1183.187 
		2132.291,1127.431 	"/>
	
		<linearGradient id="SVGID_14_" gradientUnits="userSpaceOnUse" x1="1571.8256" y1="716.7316" x2="1774.751" y2="716.7316" gradientTransform="matrix(1 0 0 -1 0 2019.8898)">
		<stop  offset="0" style="stop-color:#DAE0F5"/>
		<stop  offset="0.588" style="stop-color:#EEF0F9"/>
		<stop  offset="1" style="stop-color:#F6F6FB"/>
	</linearGradient>
	<polygon class="st15" points="1620.12,1244.578 1774.751,1333.855 1726.457,1361.738 1571.826,1272.46 	"/>
	<g>
		
			<linearGradient id="SVGID_15_" gradientUnits="userSpaceOnUse" x1="736.153" y1="820.4301" x2="736.153" y2="1770.7843" gradientTransform="matrix(1 0 0 -1 0 2019.8898)">
			<stop  offset="0.4655" style="stop-color:#FFFFFF"/>
			<stop  offset="0.8288" style="stop-color:#DFE4F4"/>
		</linearGradient>
		<polygon class="st16" points="826.146,249.103 646.16,353.016 646.16,780.872 826.146,780.872 		"/>
		<polygon class="st17" points="646.16,353.016 466.181,249.103 646.16,145.199 826.146,249.103 		"/>
		
			<linearGradient id="SVGID_16_" gradientUnits="userSpaceOnUse" x1="556.1704" y1="820.4301" x2="556.1704" y2="1770.7843" gradientTransform="matrix(1 0 0 -1 0 2019.8898)">
			<stop  offset="0.4742" style="stop-color:#FFFFFF"/>
			<stop  offset="0.8905" style="stop-color:#E9EDF7"/>
		</linearGradient>
		<polygon class="st18" points="646.16,353.016 466.181,249.103 466.181,780.872 646.16,780.872 		"/>
	</g>
	<g>
		
			<linearGradient id="SVGID_17_" gradientUnits="userSpaceOnUse" x1="2201.957" y1="-194.727" x2="2201.957" y2="632.8596" gradientTransform="matrix(1 0 0 -1 0 2019.8898)">
			<stop  offset="0.4655" style="stop-color:#FFFFFF"/>
			<stop  offset="0.8288" style="stop-color:#DFE4F4"/>
		</linearGradient>
		<polygon class="st19" points="2290.884,1387.029 2113.03,1489.708 2113.03,1850.102 2290.884,1850.102 		"/>
		<polygon class="st0" points="2113.03,1489.708 1935.19,1387.029 2113.03,1284.355 2290.884,1387.029 		"/>
		
			<linearGradient id="SVGID_18_" gradientUnits="userSpaceOnUse" x1="2024.1101" y1="-194.727" x2="2024.1101" y2="632.8596" gradientTransform="matrix(1 0 0 -1 0 2019.8898)">
			<stop  offset="0.4742" style="stop-color:#FFFFFF"/>
			<stop  offset="0.8905" style="stop-color:#E9EDF7"/>
		</linearGradient>
		<polygon class="st20" points="2113.03,1489.708 1935.19,1387.029 1935.19,1850.102 2113.03,1850.102 		"/>
	</g>
	<g>
		
			<linearGradient id="SVGID_19_" gradientUnits="userSpaceOnUse" x1="214.5162" y1="-95.4202" x2="214.5162" y2="448.7076" gradientTransform="matrix(1 0 0 -1 0 2019.8898)">
			<stop  offset="0.4655" style="stop-color:#FFFFFF"/>
			<stop  offset="0.8288" style="stop-color:#DFE4F4"/>
		</linearGradient>
		<polygon class="st21" points="285.082,1571.181 143.951,1652.66 143.951,1875.646 285.082,1875.646 		"/>
		<polygon class="st0" points="143.951,1652.66 2.828,1571.181 143.951,1489.708 285.082,1571.181 		"/>
		
			<linearGradient id="SVGID_20_" gradientUnits="userSpaceOnUse" x1="73.3896" y1="-95.4202" x2="73.3896" y2="448.7076" gradientTransform="matrix(1 0 0 -1 0 2019.8898)">
			<stop  offset="0.4742" style="stop-color:#FFFFFF"/>
			<stop  offset="0.8905" style="stop-color:#E9EDF7"/>
		</linearGradient>
		<polygon class="st22" points="143.951,1652.66 2.828,1571.181 2.828,1875.646 143.951,1875.646 		"/>
	</g>
	<polygon class="st23" points="1881.086,647.528 1726.455,736.804 1726.455,794.032 1881.086,704.755 	"/>
	<polygon class="st0" points="1881.086,704.755 2035.718,794.032 1881.086,883.308 1726.455,794.032 	"/>
	
		<linearGradient id="SVGID_21_" gradientUnits="userSpaceOnUse" x1="1726.455" y1="1270.4956" x2="1918.5546" y2="1270.4956" gradientTransform="matrix(1 0 0 -1 0 2019.8898)">
		<stop  offset="0" style="stop-color:#CFD5F1"/>
		<stop  offset="0.1682" style="stop-color:#D8DDF3"/>
		<stop  offset="0.6746" style="stop-color:#EEEFF9"/>
		<stop  offset="1" style="stop-color:#F6F6FB"/>
	</linearGradient>
	<polygon class="st24" points="1918.555,726.388 1801.389,794.033 1726.455,794.032 1881.086,704.755 	"/>
	
		<linearGradient id="SVGID_22_" gradientUnits="userSpaceOnUse" x1="1726.455" y1="19.1527" x2="1918.5546" y2="19.1527" gradientTransform="matrix(1 0 0 1 0 819.5173)">
		<stop  offset="0" style="stop-color:#CFD5F1"/>
		<stop  offset="0.1682" style="stop-color:#D8DDF3"/>
		<stop  offset="0.6746" style="stop-color:#EEEFF9"/>
		<stop  offset="1" style="stop-color:#F6F6FB"/>
	</linearGradient>
	<polygon class="st25" points="1918.555,861.677 1801.389,794.032 1726.455,794.032 1881.086,883.308 	"/>
	<polygon class="st1" points="1726.455,736.804 1881.086,826.081 1726.455,915.357 1571.823,826.081 	"/>
	<polygon class="st1" points="1417.191,558.251 1571.823,647.528 1417.192,736.804 1262.56,647.527 	"/>
	<polygon class="st0" points="1262.56,468.974 1417.192,558.251 1262.561,647.528 1107.93,558.25 	"/>
	<polygon class="st26" points="1107.93,558.25 1262.56,647.528 1262.56,915.357 1107.93,826.079 	"/>
	<polygon class="st27" points="1262.56,647.528 1417.192,736.804 1417.192,1004.634 1262.56,915.357 	"/>
	<polygon class="st27" points="1571.823,826.081 1726.455,915.357 1726.455,1183.187 1571.823,1093.91 	"/>
	<polygon class="st26" points="1417.191,635.702 1571.823,724.979 1571.823,1093.91 1417.191,1004.633 	"/>
	<polygon class="st1" points="1726.455,558.251 1881.086,647.528 1726.455,736.804 1571.823,647.528 	"/>
	<polygon class="st0" points="1571.823,468.975 1726.455,558.251 1571.824,647.528 1417.192,558.251 	"/>
	<g>
		<polygon class="st27" points="1262.56,425.711 1417.192,514.988 1417.191,558.251 1262.559,468.974 		"/>
		<polygon class="st23" points="1571.823,425.711 1417.191,514.988 1417.192,558.251 1571.824,468.974 		"/>
		<polygon class="st1" points="1417.191,336.435 1571.823,425.711 1417.192,514.988 1262.56,425.711 		"/>
	</g>
	<polygon class="st28" points="1571.823,546.426 1726.455,635.702 1571.824,724.979 1417.192,635.701 	"/>
	<polygon class="st29" points="1726.455,635.702 1571.823,724.979 1571.824,826.081 1726.456,736.804 	"/>
	<polygon class="st23" points="1881.086,826.081 1726.455,915.357 1726.456,1183.187 1881.088,1093.91 	"/>
	<polygon class="st29" points="2035.719,794.032 1881.086,883.308 1881.088,1093.91 2035.72,1004.633 	"/>
	
		<linearGradient id="SVGID_23_" gradientUnits="userSpaceOnUse" x1="1417.1908" y1="1506.2771" x2="1609.2904" y2="1506.2771" gradientTransform="matrix(1 0 0 -1 0 2019.8898)">
		<stop  offset="0" style="stop-color:#CFD5F1"/>
		<stop  offset="0.2826" style="stop-color:#E1E5F6"/>
		<stop  offset="0.7193" style="stop-color:#F7F8FD"/>
		<stop  offset="1" style="stop-color:#FFFFFF"/>
	</linearGradient>
	<polygon class="st30" points="1609.29,490.606 1492.125,558.251 1417.191,558.251 1571.823,468.974 	"/>
	
		<linearGradient id="SVGID_24_" gradientUnits="userSpaceOnUse" x1="1571.8235" y1="1238.4474" x2="1814.1575" y2="1238.4474" gradientTransform="matrix(1 0 0 -1 0 2019.8898)">
		<stop  offset="0" style="stop-color:#CFD5F1"/>
		<stop  offset="0.1682" style="stop-color:#D8DDF3"/>
		<stop  offset="0.6746" style="stop-color:#EEEFF9"/>
		<stop  offset="1" style="stop-color:#F6F6FB"/>
	</linearGradient>
	<polygon class="st31" points="1814.157,787.44 1746.937,826.081 1571.823,826.081 1726.455,736.804 	"/>
	<polygon class="st32" points="1107.93,558.25 1262.56,647.528 1262.56,915.357 1107.93,826.079 	"/>
	<polygon class="st32" points="1262.56,647.528 1417.192,736.804 1417.192,1004.634 1262.56,915.357 	"/>
	<polygon class="st32" points="1571.823,826.081 1726.455,915.357 1726.455,1183.187 1571.823,1093.91 	"/>
	<polygon class="st33" points="1417.191,635.702 1571.823,724.979 1571.823,1093.91 1417.191,1004.633 	"/>
	<polygon class="st34" points="1417.191,818.769 1216.626,702.972 1216.626,666.936 1417.191,782.732 	"/>
	<polygon class="st34" points="1572.113,807.111 1417.191,717.666 1417.191,681.63 1572.113,771.074 	"/>
	<polygon class="st35" points="1460.944,775.309 1417.191,750.049 1417.191,740.953 1460.944,766.214 	"/>
	<polygon class="st34" points="1606.343,928.088 1571.071,907.724 1571.071,871.687 1606.343,892.052 	"/>
	<g>
		<polygon class="st35" points="1249.917,745.479 1216.626,726.259 1216.626,735.354 1249.917,754.574 		"/>
		<polygon class="st35" points="1269.23,756.63 1269.23,765.725 1417.191,851.151 1417.191,842.055 		"/>
	</g>
	<g>
		<polygon class="st35" points="1241.148,765.677 1216.626,751.52 1216.626,760.615 1241.148,774.772 		"/>
		<polygon class="st35" points="1260.462,776.829 1260.462,785.924 1398.246,865.473 1398.246,856.378 		"/>
	</g>
	<g>
		<polygon class="st35" points="1241.148,814.986 1216.626,800.827 1216.626,809.922 1241.148,824.081 		"/>
		<polygon class="st35" points="1260.462,826.136 1260.462,835.231 1363.251,894.577 1363.251,885.481 		"/>
	</g>
	<polygon class="st35" points="1433.162,809.665 1417.191,800.57 1417.191,791.475 1433.162,800.57 	"/>
	<g>
		<polygon class="st35" points="1268.026,806.456 1216.626,776.78 1216.626,785.875 1268.026,815.551 		"/>
		<polygon class="st35" points="1287.341,817.608 1287.341,826.703 1417.191,901.672 1417.191,892.576 		"/>
	</g>
	<path class="st36" d="M1564.599,833.166c-25.992-15.007-47.062-2.841-47.062,27.17c0,30.013,21.07,66.507,47.062,81.512
		c2.201,1.271,4.351,2.276,6.472,3.163V837.475C1568.95,835.913,1566.801,834.437,1564.599,833.166z"/>
	<path class="st36" d="M1571.071,938.577v107.536c22.922,9.583,40.59-2.864,40.59-30.334
		C1611.661,988.311,1593.992,955.461,1571.071,938.577z"/>
	<polygon class="st26" points="1726.456,1033.247 1881.088,1122.525 1881.086,1272.464 1726.455,1183.187 	"/>
	<polygon class="st29" points="2035.719,1033.247 1881.088,1122.525 1881.089,1272.464 2035.72,1183.187 	"/>
	<polygon class="st0" points="1881.086,943.971 2035.719,1033.247 1881.088,1122.523 1726.456,1033.247 	"/>
	
		<linearGradient id="SVGID_25_" gradientUnits="userSpaceOnUse" x1="1726.4561" y1="1031.2803" x2="1968.7911" y2="1031.2803" gradientTransform="matrix(1 0 0 -1 0 2019.8898)">
		<stop  offset="0" style="stop-color:#CFD5F1"/>
		<stop  offset="0.1682" style="stop-color:#D8DDF3"/>
		<stop  offset="0.6746" style="stop-color:#EEEFF9"/>
		<stop  offset="1" style="stop-color:#F6F6FB"/>
	</linearGradient>
	<polygon class="st37" points="1968.791,994.607 1901.57,1033.248 1726.456,1033.247 1881.089,943.971 	"/>
	<g>
		<polygon class="st23" points="1571.824,1135.544 1417.193,1224.821 1417.193,1361.738 1571.826,1272.46 		"/>
		<polygon class="st38" points="1417.192,1046.267 1571.824,1135.544 1417.193,1224.82 1262.56,1135.544 		"/>
		<polygon class="st27" points="1417.193,1224.821 1262.561,1135.545 1262.561,1272.461 1417.192,1361.738 		"/>
	</g>
	
		<linearGradient id="SVGID_26_" gradientUnits="userSpaceOnUse" x1="798.6667" y1="1059.8953" x2="1107.9298" y2="1059.8953" gradientTransform="matrix(1 0 0 -1 0 2019.8898)">
		<stop  offset="0" style="stop-color:#DAE0F5"/>
		<stop  offset="0.588" style="stop-color:#EEF0F9"/>
		<stop  offset="1" style="stop-color:#F6F6FB"/>
	</linearGradient>
	<polygon class="st39" points="953.298,915.356 1107.93,1004.633 798.667,1004.632 	"/>
	<g>
		<polygon class="st23" points="953.298,711.552 798.666,800.828 798.667,1004.632 953.298,915.356 		"/>
		<polygon class="st38" points="798.665,622.275 953.297,711.552 798.667,800.827 644.034,711.551 		"/>
		<polygon class="st27" points="798.667,800.828 644.035,711.552 644.035,915.357 798.666,1004.632 		"/>
	</g>
	<g>
		<polygon class="st29" points="1726.456,1305.067 1571.824,1394.344 1571.826,1451.014 1726.457,1361.738 		"/>
		<polygon class="st28" points="1571.823,1215.791 1726.456,1305.067 1571.826,1394.343 1417.193,1305.067 		"/>
		<polygon class="st26" points="1571.826,1394.344 1417.193,1305.068 1417.193,1361.739 1571.824,1451.014 		"/>
	</g>
	<g>
		<polygon class="st29" points="1262.56,858.687 1107.928,947.964 1107.93,1004.633 1262.561,915.357 		"/>
		
			<linearGradient id="SVGID_27_" gradientUnits="userSpaceOnUse" x1="953.2961" y1="1161.2031" x2="1262.5603" y2="1161.2031" gradientTransform="matrix(1 0 0 -1 0 2019.8898)">
			<stop  offset="0" style="stop-color:#DAE0F5"/>
			<stop  offset="0.3276" style="stop-color:#E1E6F7"/>
			<stop  offset="0.8141" style="stop-color:#F5F7FC"/>
			<stop  offset="1" style="stop-color:#FFFFFF"/>
		</linearGradient>
		<polygon class="st40" points="1107.928,769.41 1262.56,858.687 1107.929,947.964 953.296,858.686 		"/>
		
			<linearGradient id="SVGID_28_" gradientUnits="userSpaceOnUse" x1="953.2972" y1="1088.2295" x2="1107.9288" y2="1088.2295" gradientTransform="matrix(1 0 0 -1 0 2019.8898)">
			<stop  offset="0" style="stop-color:#D1D7F3"/>
			<stop  offset="0.3784" style="stop-color:#D8DDF3"/>
			<stop  offset="0.9403" style="stop-color:#ECEDF3"/>
			<stop  offset="1" style="stop-color:#EFEFF3"/>
		</linearGradient>
		<polygon class="st41" points="1107.929,947.964 953.297,858.687 953.297,915.358 1107.928,1004.633 		"/>
	</g>
	<g>
		<polygon class="st29" points="798.668,1154.851 644.036,1244.128 644.036,1272.464 798.669,1183.188 		"/>
		
			<linearGradient id="SVGID_29_" gradientUnits="userSpaceOnUse" x1="644.0363" y1="792.0634" x2="823.2104" y2="792.0634" gradientTransform="matrix(1 0 0 -1 0 2019.8898)">
			<stop  offset="0" style="stop-color:#DAE0F5"/>
			<stop  offset="0.588" style="stop-color:#EEF0F9"/>
			<stop  offset="1" style="stop-color:#F6F6FB"/>
		</linearGradient>
		<polygon class="st42" points="823.21,1197.355 693.117,1272.464 644.036,1272.464 798.669,1183.188 		"/>
		<polygon class="st28" points="644.035,1065.574 798.668,1154.851 644.036,1244.127 489.404,1154.851 		"/>
		<polygon class="st26" points="644.036,1244.128 489.405,1154.852 489.405,1183.188 644.036,1272.464 		"/>
	</g>
	
		<linearGradient id="SVGID_30_" gradientUnits="userSpaceOnUse" x1="1417.193" y1="759.4605" x2="1642.1465" y2="759.4605" gradientTransform="matrix(1 0 0 -1 0 2019.8898)">
		<stop  offset="0" style="stop-color:#DAE0F5"/>
		<stop  offset="0.588" style="stop-color:#EEF0F9"/>
		<stop  offset="1" style="stop-color:#F6F6FB"/>
	</linearGradient>
	<polygon class="st43" points="1571.823,1215.791 1642.146,1256.391 1557.836,1305.068 1417.193,1305.067 	"/>
	
		<linearGradient id="SVGID_31_" gradientUnits="userSpaceOnUse" x1="1107.9298" y1="1059.8942" x2="1312.1206" y2="1059.8942" gradientTransform="matrix(1 0 0 -1 0 2019.8898)">
		<stop  offset="0" style="stop-color:#DAE0F5"/>
		<stop  offset="0.588" style="stop-color:#EEF0F9"/>
		<stop  offset="1" style="stop-color:#F6F6FB"/>
	</linearGradient>
	<polygon class="st44" points="1312.121,943.971 1206.995,1004.634 1107.93,1004.633 1262.561,915.357 	"/>
	
		<linearGradient id="SVGID_32_" gradientUnits="userSpaceOnUse" x1="1262.5603" y1="1118.5608" x2="1312.1206" y2="1118.5608" gradientTransform="matrix(1 0 0 -1 0 2019.8898)">
		<stop  offset="0" style="stop-color:#DAE0F5"/>
		<stop  offset="0.588" style="stop-color:#EEF0F9"/>
		<stop  offset="1" style="stop-color:#F6F6FB"/>
	</linearGradient>
	<polygon class="st45" points="1312.121,943.971 1262.56,858.687 1262.561,915.357 	"/>
	<g>
		<polygon class="st23" points="1262.56,1198.495 1107.929,1287.771 1107.93,1361.739 1262.561,1272.461 		"/>
		
			<linearGradient id="SVGID_33_" gradientUnits="userSpaceOnUse" x1="1107.9298" y1="702.7897" x2="1326.619" y2="702.7897" gradientTransform="matrix(1 0 0 -1 0 2019.8898)">
			<stop  offset="0" style="stop-color:#DAE0F5"/>
			<stop  offset="0.588" style="stop-color:#EEF0F9"/>
			<stop  offset="1" style="stop-color:#F6F6FB"/>
		</linearGradient>
		<polygon class="st46" points="1326.619,1309.446 1236.044,1361.739 1107.93,1361.739 1262.561,1272.461 		"/>
		<polygon class="st0" points="953.296,1019.942 1107.929,1109.219 953.298,1198.496 798.666,1109.219 		"/>
		<polygon class="st38" points="1107.928,1109.219 1262.56,1198.495 1107.93,1287.771 953.297,1198.495 		"/>
		<polygon class="st26" points="798.666,1109.219 798.665,1183.185 953.298,1272.462 953.298,1198.496 		"/>
		<polygon class="st27" points="1107.93,1287.771 953.298,1198.496 953.298,1272.462 1107.929,1361.739 		"/>
	</g>
	<polygon class="st1" points="823.21,1197.355 798.668,1154.851 798.665,1183.185 	"/>
	
		<linearGradient id="SVGID_34_" gradientUnits="userSpaceOnUse" x1="1262.5603" y1="765.9195" x2="1326.619" y2="765.9195" gradientTransform="matrix(1 0 0 -1 0 2019.8898)">
		<stop  offset="0" style="stop-color:#DAE0F5"/>
		<stop  offset="0.588" style="stop-color:#EEF0F9"/>
		<stop  offset="1" style="stop-color:#F6F6FB"/>
	</linearGradient>
	<polygon class="st47" points="1326.619,1309.446 1262.56,1198.495 1262.561,1272.461 	"/>
	<g>
		
			<linearGradient id="SVGID_35_" gradientUnits="userSpaceOnUse" x1="1082.726" y1="795.7451" x2="1224.3805" y2="795.7451" gradientTransform="matrix(1 0 0 -1 13.375 2019.8898)">
			<stop  offset="0" style="stop-color:#C4CAE9"/>
			<stop  offset="1" style="stop-color:#FFFFFF"/>
		</linearGradient>
		<path class="st48" d="M1233.521,1191.666l-14.574-8.415c5.642,3.259,5.642,8.592,0,11.847l-102.322,59.08
			c-5.643,3.259-14.879,3.259-20.524,0l14.282,8.243l-4.529,2.615h14.578c3.92,0.048,7.829-0.746,10.771-2.443l102.319-59.077
			C1239.167,1200.258,1239.167,1194.928,1233.521,1191.666z"/>
		<g>
			
				<linearGradient id="SVGID_36_" gradientUnits="userSpaceOnUse" x1="3097.0994" y1="837.0132" x2="3485.459" y2="837.0132" gradientTransform="matrix(-1 0 0 -1 4320.7671 2019.8898)">
				<stop  offset="0.264" style="stop-color:#5652CC"/>
				<stop  offset="0.2931" style="stop-color:#6460DC"/>
				<stop  offset="0.3371" style="stop-color:#807DFB"/>
			</linearGradient>
			<path class="st49" d="M839.538,1106.637l255.543,147.542c5.643,3.259,14.879,3.259,20.524,0l103.831-59.946
				c2.665-1.538,4.056-3.542,4.204-5.574c0.028,0,0.028,8.064,0.028,8.064c0,2.148-1.412,4.296-4.23,5.927l-103.831,59.943
				c-5.645,3.259-14.882,3.259-20.524,0l-255.544-147.537c-3.063-1.767-4.446-4.145-4.19-6.469c-0.041,0-0.041-7.87-0.041-7.87
				C835.307,1102.863,836.715,1105.011,839.538,1106.637z"/>
			<path class="st50" d="M835.321,1100.519c-0.004,0.069-0.014,0.13-0.014,0.199
				C835.307,1100.718,835.307,1100.519,835.321,1100.519z"/>
		</g>
		<path class="st28" d="M1115.607,1254.179c-5.645,3.259-14.882,3.259-20.524,0l-255.544-147.542c-5.643-3.254-5.643-8.589,0-11.847
			l103.829-59.951c5.646-3.254,14.879-3.254,20.524,0l255.544,147.542c5.642,3.262,5.642,8.592,0,11.85L1115.607,1254.179z"/>
		<g>
			<g>
				<polygon class="st51" points="955.674,1056.65 942.659,1049.141 955.674,1041.624 968.689,1049.141 				"/>
				<polygon class="st51" points="977.59,1069.312 964.575,1061.795 977.59,1054.28 990.605,1061.795 				"/>
				<polygon class="st51" points="999.512,1081.965 986.497,1074.451 999.512,1066.935 1012.528,1074.451 				"/>
				<polygon class="st51" points="1021.431,1094.62 1008.416,1087.11 1021.431,1079.59 1034.443,1087.11 				"/>
				<polygon class="st51" points="1043.35,1107.275 1030.335,1099.762 1043.35,1092.249 1056.362,1099.762 				"/>
				<polygon class="st51" points="1065.269,1119.93 1052.255,1112.417 1065.269,1104.904 1078.281,1112.417 				"/>
				<polygon class="st51" points="1087.189,1132.589 1074.173,1125.073 1087.189,1117.556 1100.2,1125.073 				"/>
				<polygon class="st51" points="1109.107,1145.242 1096.092,1137.728 1109.107,1130.216 1122.12,1137.728 				"/>
				<polygon class="st51" points="1131.028,1157.896 1118.012,1150.384 1131.028,1142.867 1144.039,1150.384 				"/>
				<polygon class="st51" points="1152.946,1170.549 1139.931,1163.038 1152.946,1155.521 1165.957,1163.038 				"/>
				<polygon class="st51" points="1174.862,1183.208 1161.85,1175.694 1174.862,1168.178 1187.877,1175.694 				"/>
				<polygon class="st51" points="1196.785,1195.862 1183.769,1188.346 1196.785,1180.834 1209.795,1188.346 				"/>
			</g>
			<polygon class="st51" points="944.139,1075.301 920.74,1061.795 933.752,1054.28 957.153,1067.791 			"/>
			<polygon class="st51" points="932.032,1092.578 899.732,1073.923 912.747,1066.406 945.047,1085.062 			"/>
			<polygon class="st51" points="919.02,1110.372 877.813,1086.582 890.828,1079.062 932.032,1102.859 			"/>
			<polygon class="st51" points="874.685,1115.405 851.29,1101.896 868.909,1091.721 892.308,1105.233 			"/>
			<polygon class="st51" points="906.988,1134.056 883.592,1120.543 901.208,1110.372 924.607,1123.88 			"/>
			<polygon class="st51" points="939.291,1152.703 915.893,1139.194 933.512,1129.02 956.91,1142.531 			"/>
			<polygon class="st51" points="1050.668,1217.007 1027.272,1203.499 1044.893,1193.324 1068.288,1206.836 			"/>
			<polygon class="st51" points="1105.411,1248.612 1059.518,1222.119 1077.137,1211.944 1123.031,1238.44 			"/>
			<polygon class="st51" points="1018.42,1198.387 948.195,1157.846 965.818,1147.67 1036.043,1188.216 			"/>
			<polygon class="st51" points="972.19,1091.503 953.042,1080.447 966.055,1072.93 985.205,1083.989 			"/>
			<polygon class="st51" points="960.087,1108.772 940.939,1097.716 953.954,1090.203 973.102,1101.259 			"/>
			<polygon class="st51" points="947.671,1126.224 928.523,1115.165 941.539,1107.652 960.686,1118.707 			"/>
			<polygon class="st51" points="975.726,1142.419 956.575,1131.363 969.59,1123.849 988.741,1134.905 			"/>
			<polygon class="st51" points="1003.778,1158.612 984.63,1147.561 997.641,1140.044 1016.789,1151.103 			"/>
			<polygon class="st51" points="1031.829,1174.81 1012.681,1163.755 1025.697,1156.242 1044.844,1167.297 			"/>
			<polygon class="st51" points="1059.881,1191.005 1040.733,1179.952 1053.749,1172.44 1072.896,1183.492 			"/>
			<polygon class="st51" points="1087.936,1207.203 1068.788,1196.147 1081.803,1188.633 1100.951,1199.689 			"/>
			<polygon class="st51" points="1132.538,1232.952 1096.839,1212.345 1109.854,1204.831 1145.55,1225.439 			"/>
			<polygon class="st51" points="988.138,1124.97 968.991,1113.914 982.006,1106.402 1001.154,1117.453 			"/>
			<polygon class="st51" points="1016.193,1141.165 997.043,1130.109 1010.057,1122.596 1029.205,1133.651 			"/>
			<polygon class="st51" points="1044.244,1157.362 1025.097,1146.307 1038.112,1138.79 1057.26,1149.846 			"/>
			<polygon class="st51" points="1072.296,1173.557 1053.149,1162.504 1066.164,1154.987 1085.312,1166.043 			"/>
			<polygon class="st51" points="1100.351,1189.755 1081.204,1178.699 1094.219,1171.183 1113.366,1182.241 			"/>
			<polygon class="st51" points="1153.854,1220.642 1109.255,1194.893 1122.267,1187.38 1166.869,1213.13 			"/>
			<polygon class="st51" points="1000.245,1107.699 981.094,1096.641 994.11,1089.131 1013.258,1100.184 			"/>
			<polygon class="st51" points="1028.294,1123.894 1009.146,1112.838 1022.161,1105.326 1041.308,1116.382 			"/>
			<polygon class="st51" points="1056.348,1140.092 1037.2,1129.036 1050.216,1121.521 1069.363,1132.575 			"/>
			<polygon class="st51" points="1084.4,1156.29 1065.253,1145.231 1078.267,1137.719 1097.415,1148.773 			"/>
			<polygon class="st51" points="1112.455,1172.481 1093.304,1161.429 1106.318,1153.915 1125.466,1164.968 			"/>
			<polygon class="st51" points="1140.506,1188.678 1121.358,1177.627 1134.37,1170.11 1153.521,1181.166 			"/>
			<polygon class="st51" points="1174.865,1208.515 1149.41,1193.821 1162.426,1186.308 1187.877,1201.002 			"/>
		</g>
	</g>
	<path class="st29" d="M689.589,1145.663l-2.393-3.532l-84.457,19.063l2.391,3.532L689.589,1145.663z M645.417,1175.148
		l39.912,0.956l-1.656-23.043l-6.564,0.157l1.361,18.927l-32.782-0.785L645.417,1175.148z M605.921,1152.345l6.563-0.156
		l-1.359-18.927l32.78,0.786l0.272-3.791l-39.911-0.956L605.921,1152.345z"/>
	<path class="st29" d="M1608.58,1282.506c-9.006,0-17.014-0.414-23.278-4.037c-5.894-3.397-6.995-7.864-6.984-13.433l-33.37,19.258
		c-19.117,11.041-17.542,32.048-10.124,40.791c15.169,4.289,51.542,5.198,70.663-5.846l33.362-19.253
		c-9.014,0-17.015-0.422-23.287-4.041C1609.673,1292.543,1608.58,1288.085,1608.58,1282.506z"/>
	<path class="st29" d="M1152.459,878.893l2.166,1.25l-9.027,5.246l-2.174-1.255c-1.404-0.805-4.157-1.565-7.187-0.515
		c-1.388,0.517-2.812,0.994-4.269,1.43c-3.074,1.001-3.302,2.759-2.783,3.861l0.801,1.711l-12.362,1.919l-0.802-1.711
		c-0.242-0.518-0.75-1.112-1.586-1.594c-0.949-0.548-2.321-0.953-4.205-0.936c-1.635,0.04-3.284,0.04-4.928-0.004
		c-3.53-0.023-5.246,1.432-5.754,2.536l-0.783,1.711l-12.384-1.919l0.786-1.714c0.41-0.904,0.316-2.246-1.427-3.251
		c-0.385-0.222-0.851-0.428-1.408-0.61c-1.458-0.433-2.883-0.913-4.278-1.43c-3.049-1.05-5.798-0.288-7.188,0.519l-2.155,1.252
		l-9.087-5.246l2.156-1.252c1.39-0.807,2.696-2.403,0.877-4.163c-0.901-0.808-1.734-1.632-2.486-2.475
		c-0.314-0.323-0.671-0.59-1.055-0.813c-1.744-1.006-4.064-1.056-5.624-0.815l-2.948,0.461l-3.353-7.167l2.952-0.458
		c1.904-0.299,4.407-1.3,4.347-3.349c-0.073-0.947-0.078-1.903-0.004-2.852c0.01-1.088-0.693-1.881-1.643-2.43
		c-0.837-0.483-1.866-0.776-2.758-0.915l-2.956-0.459l3.276-7.164l2.965,0.459c1.907,0.294,4.937,0.154,6.651-1.628
		c0.743-0.843,1.562-1.669,2.454-2.478c1.799-1.76,0.476-3.355-0.925-4.164l-2.169-1.252l9.027-5.246l2.174,1.255
		c1.4,0.808,4.157,1.564,7.186,0.519c1.392-0.519,2.817-0.997,4.269-1.43c3.074-1.001,3.3-2.759,2.784-3.865l-0.801-1.707
		l12.362-1.923l0.798,1.714c0.244,0.515,0.753,1.108,1.588,1.59c0.951,0.549,2.325,0.955,4.207,0.938
		c1.636-0.04,3.284-0.04,4.928,0.004c3.533,0.026,5.253-1.432,5.754-2.536l0.783-1.711l12.384,1.923l-0.783,1.707
		c-0.41,0.905-0.32,2.251,1.424,3.258c0.384,0.221,0.847,0.426,1.404,0.607c1.458,0.433,2.888,0.911,4.285,1.43
		c3.045,1.048,5.795,0.287,7.183-0.521l2.156-1.252l9.087,5.246l-2.156,1.252c-1.39,0.808-2.695,2.403-0.873,4.166
		c0.897,0.805,1.725,1.632,2.478,2.475c0.314,0.321,0.67,0.589,1.053,0.812c1.746,1.007,4.071,1.056,5.629,0.814l2.948-0.456
		l3.357,7.165l-2.961,0.459c-1.904,0.298-4.407,1.299-4.342,3.346c0.073,0.948,0.078,1.903,0.008,2.855
		c-0.014,1.086,0.689,1.88,1.639,2.429c0.836,0.483,1.865,0.776,2.761,0.915l2.953,0.456l-3.276,7.17l-2.962-0.461
		c-1.907-0.294-4.941-0.156-6.656,1.63c-0.743,0.843-1.559,1.667-2.454,2.473C1149.733,876.488,1151.056,878.083,1152.459,878.893z
		 M1091.855,868.214c9.153,5.285,23.953,5.28,33.043-0.002c9.098-5.287,9.05-13.855-0.103-19.14s-23.949-5.287-33.047,0
		C1082.656,854.356,1082.701,862.929,1091.855,868.214L1091.855,868.214z"/>
	<g>
		<path class="st29" d="M1220.852,1516.21c5.332-3.079,13.978-3.079,19.31,0c5.332,3.079,5.332,8.07,0,11.148
			c-5.332,3.079-13.978,3.079-19.31,0C1215.52,1524.281,1215.52,1519.289,1220.852,1516.21z"/>
		<path class="st29" d="M1252.906,1534.717c5.332-3.079,13.978-3.079,19.31,0c5.332,3.079,5.332,8.069,0,11.148
			s-13.978,3.079-19.31,0C1247.574,1542.787,1247.574,1537.796,1252.906,1534.717z"/>
		<path class="st29" d="M1284.959,1553.223c5.332-3.079,13.978-3.079,19.31,0c5.332,3.079,5.332,8.07,0,11.148
			c-5.332,3.079-13.978,3.079-19.31,0C1279.628,1561.294,1279.628,1556.302,1284.959,1553.223z"/>
	</g>
	
		<linearGradient id="SVGID_37_" gradientUnits="userSpaceOnUse" x1="1384.5239" y1="887.0063" x2="1509.8513" y2="887.0063" gradientTransform="matrix(1 0 0 -1 0 2019.8898)">
		<stop  offset="0.4525" style="stop-color:#C4C9E4"/>
		<stop  offset="1" style="stop-color:#FFFFFF"/>
	</linearGradient>
	<path class="st52" d="M1491.346,1107.204c-13.102-7.565-30.519-11.051-47.622-10.538h-26.813v4.394
		c-5.088,1.607-9.891,3.653-14.192,6.143c-24.379,14.178-24.241,37.16,0.302,51.337c4.226,2.435,8.922,4.428,13.89,6.022v4.587
		h32.163c15.464-0.258,30.796-3.767,42.567-10.605C1516.033,1144.363,1515.907,1121.382,1491.346,1107.204z"/>
	<g>
		<g>
			<g>
				<path class="st28" d="M1355.808,1116.226c-0.002-9.068,5.992-18.133,17.978-25.061c11.984-6.917,27.695-10.378,43.404-10.378
					c15.703,0,31.412,3.461,43.397,10.378c11.983,6.928,17.976,15.987,17.979,25.059c0.002,9.068-5.997,18.141-17.979,25.059
					c-11.984,6.92-27.688,10.38-43.394,10.38c-15.71,0-31.419-3.465-43.404-10.38
					C1361.802,1134.364,1355.813,1125.292,1355.808,1116.226z"/>
				
					<linearGradient id="SVGID_38_" gradientUnits="userSpaceOnUse" x1="1355.8079" y1="877.2018" x2="1478.566" y2="877.2018" gradientTransform="matrix(1 0 0 -1 0 2019.8898)">
					<stop  offset="0" style="stop-color:#CED3F8"/>
					<stop  offset="1" style="stop-color:#A5ABCC"/>
				</linearGradient>
				<path class="st53" d="M1460.587,1141.282c-11.984,6.92-27.688,10.38-43.394,10.38c-15.71,0-31.419-3.465-43.404-10.38
					c-11.987-6.918-17.976-15.991-17.981-25.056v17.495c0.005,9.061,5.995,18.133,17.981,25.05
					c11.985,6.927,27.694,10.381,43.404,10.381c15.705,0,31.409-3.454,43.394-10.374c11.983-6.923,17.981-15.997,17.979-25.062
					v-17.492C1478.568,1125.292,1472.569,1134.364,1460.587,1141.282z"/>
				<path class="st1" d="M1381.944,1136.571c9.733,5.624,22.489,8.434,35.25,8.434c12.752,0,25.51-2.81,35.24-8.43
					c8.977-5.185,13.809-11.859,14.497-18.639c-0.688-6.788-5.52-13.46-14.497-18.645c-9.735-5.625-22.492-8.432-35.248-8.431
					c-12.756-0.001-25.511,2.806-35.25,8.431c-8.977,5.185-13.803,11.853-14.499,18.641
					C1368.135,1124.714,1372.96,1131.388,1381.944,1136.571z"/>
				
					<linearGradient id="SVGID_39_" gradientUnits="userSpaceOnUse" x1="1367.3379" y1="917.2001" x2="1467.0327" y2="917.2001" gradientTransform="matrix(1 0 0 -1 0 2019.8898)">
					<stop  offset="0" style="stop-color:#A5ABCC"/>
					<stop  offset="1" style="stop-color:#CED3F8"/>
				</linearGradient>
				<path class="st54" d="M1381.936,1099.289c9.739-5.625,22.495-8.432,35.25-8.431c12.756-0.001,25.513,2.806,35.248,8.431
					c8.977,5.185,13.809,11.858,14.497,18.645c0.059-0.57,0.101-1.14,0.101-1.71c0-7.365-4.868-14.728-14.599-20.349
					c-9.735-5.619-22.492-8.43-35.248-8.43s-25.511,2.811-35.25,8.43c-9.731,5.62-14.599,12.987-14.597,20.351
					c0,0.57,0.042,1.14,0.098,1.704C1368.135,1111.142,1372.96,1104.474,1381.936,1099.289z"/>
			</g>
			<g>
				<polygon class="st55" points="1441.744,1108.907 1446.457,1106.184 1446.457,1102.775 1441.744,1105.498 				"/>
				<path class="st28" d="M1419.995,1114.605c-1.756-1.016-2.725-2.367-2.725-3.801c0-1.433,0.97-2.781,2.729-3.797
					c3.63-2.096,9.536-2.096,13.164,0c3.627,2.093,3.627,5.505,0,7.602l5.972,3.446c5.895-3.401,6.755-8.616,2.61-12.556
					l4.713-2.723l-5.972-3.452l-4.714,2.727c-6.825-2.389-15.855-1.898-21.747,1.508c-3.359,1.937-5.203,4.511-5.201,7.246
					c-0.002,2.743,1.845,5.311,5.201,7.25c3.627,2.092,3.628,5.501,0,7.603c-3.63,2.095-9.539,2.095-13.168,0
					c-3.628-2.102-3.628-5.504,0.003-7.603l-5.972-3.446c-5.897,3.406-6.755,8.613-2.619,12.557l-4.346,2.506l5.975,3.452
					l4.349-2.515c6.828,2.392,15.858,1.901,21.752-1.503C1426.918,1125.11,1426.918,1118.602,1419.995,1114.605z"/>
				<polygon class="st27" points="1387.922,1133.082 1393.897,1136.533 1393.897,1133.123 1387.922,1129.669 				"/>
				<polygon class="st55" points="1393.897,1136.533 1398.246,1134.022 1398.246,1130.608 1393.897,1133.123 				"/>
				<polygon class="st27" points="1433.162,1118.015 1439.134,1121.46 1439.134,1118.053 1433.162,1114.608 				"/>
				<path class="st55" d="M1400.859,1121.46v-3.407c-2.579,1.489-3.316,3.634-2.236,5.501
					C1399.063,1122.797,1399.804,1122.07,1400.859,1121.46z"/>
				<path class="st27" d="M1389.705,1121.68l0.006,3.847l0.009-0.009c0.044,0.903,0.29,1.812,0.743,2.691l1.806-1.045
					c-1.756-1.676-2.599-3.577-2.555-5.472L1389.705,1121.68z"/>
				<path class="st27" d="M1414.024,1121.46c1.048,0.609,1.789,1.333,2.234,2.095c1.078-1.867,0.339-4.013-2.234-5.501
					c-3.356-1.939-5.203-4.508-5.201-7.25v3.416C1408.82,1116.953,1410.667,1119.526,1414.024,1121.46z"/>
				<path class="st56" d="M1425.188,1121.835v-0.067h-0.007C1425.181,1121.788,1425.188,1121.813,1425.188,1121.835z"/>
				<path class="st55" d="M1444.303,1110.799c0.009,2.629-1.708,5.257-5.17,7.255v3.407c3.554-2.046,5.264-4.754,5.167-7.446
					l0.012,0.017v-3.232L1444.303,1110.799L1444.303,1110.799z"/>
				
					<linearGradient id="SVGID_40_" gradientUnits="userSpaceOnUse" x1="1398.246" y1="891.2003" x2="1425.1881" y2="891.2003" gradientTransform="matrix(1 0 0 -1 0 2019.8898)">
					<stop  offset="0" style="stop-color:#CED3F8"/>
					<stop  offset="1" style="stop-color:#A5ABCC"/>
				</linearGradient>
				<path class="st57" d="M1419.998,1129.105c-5.894,3.404-14.924,3.894-21.752,1.503v3.414c6.828,2.39,15.858,1.899,21.752-1.506
					c3.433-1.987,5.159-4.583,5.185-7.186l0.005,0.006v-3.465C1425.175,1124.492,1423.45,1127.111,1419.998,1129.105z"/>
				<path class="st55" d="M1433.162,1107.006c-3.628-2.096-9.534-2.096-13.164,0c-1.76,1.015-2.729,2.364-2.729,3.797
					c0,0.592,0.17,1.162,0.484,1.708c0.455-0.777,1.207-1.498,2.246-2.096c3.63-2.093,9.536-2.093,13.164-0.002
					c1.053,0.612,1.789,1.331,2.234,2.1C1436.476,1110.64,1435.737,1108.49,1433.162,1107.006z"/>
			</g>
		</g>
	</g>
	
		<linearGradient id="SVGID_41_" gradientUnits="userSpaceOnUse" x1="1391.5598" y1="1594.0378" x2="1500.9053" y2="1594.0378" gradientTransform="matrix(1 0 0 -1 0 2019.8898)">
		<stop  offset="0.3247" style="stop-color:#C4C9E4"/>
		<stop  offset="1" style="stop-color:#FFFFFF"/>
	</linearGradient>
	<path class="st58" d="M1486.262,405.524c-10.368-5.982-24.152-8.739-37.686-8.339h-31.384v3.479
		c-4.026,1.273-7.828,2.891-11.227,4.86c-19.301,11.226-19.19,29.415,0.232,40.636c3.349,1.929,7.062,3.508,10.995,4.761v3.636
		h35.613c12.246-0.205,24.375-2.983,33.689-8.395C1505.795,434.939,1505.699,416.75,1486.262,405.524z"/>
	<g>
		
			<linearGradient id="SVGID_42_" gradientUnits="userSpaceOnUse" x1="1369.6954" y1="1603.4253" x2="1468.9324" y2="1603.4253" gradientTransform="matrix(1 0 0 -1 0 2019.8898)">
			<stop  offset="0" style="stop-color:#D1D7F3"/>
			<stop  offset="0.1731" style="stop-color:#C7CDEA"/>
			<stop  offset="0.6873" style="stop-color:#AEB4D4"/>
			<stop  offset="1" style="stop-color:#A5ABCC"/>
		</linearGradient>
		<path class="st59" d="M1384.336,427.221c-9.773-5.646-14.666-13.059-14.64-20.455l0.042-9.479
			c-0.018,7.407,4.86,14.818,14.64,20.464c19.436,11.217,50.834,11.217,70.138,0.004c9.595-5.58,14.394-12.87,14.417-20.177
			l-0.046,9.472c-0.021,7.305-4.821,14.595-14.411,20.175C1435.172,438.449,1403.769,438.449,1384.336,427.221z"/>
		
			<linearGradient id="SVGID_43_" gradientUnits="userSpaceOnUse" x1="1369.6954" y1="1593.9525" x2="1468.9324" y2="1593.9525" gradientTransform="matrix(1 0 0 -1 0 2019.8898)">
			<stop  offset="0" style="stop-color:#D8DEF0"/>
			<stop  offset="0.5506" style="stop-color:#C6CCE7"/>
			<stop  offset="1" style="stop-color:#BDC3E3"/>
		</linearGradient>
		<path class="st60" d="M1384.336,436.696c-9.773-5.646-14.666-13.059-14.64-20.457l0.042-9.479
			c-0.018,7.408,4.86,14.815,14.64,20.462c19.436,11.219,50.834,11.219,70.138,0.009c9.595-5.584,14.394-12.874,14.417-20.179
			l-0.046,9.473c-0.021,7.307-4.821,14.595-14.411,20.175C1435.172,447.92,1403.769,447.92,1384.336,436.696z"/>
		
			<linearGradient id="SVGID_44_" gradientUnits="userSpaceOnUse" x1="1369.6954" y1="1584.4794" x2="1468.9324" y2="1584.4794" gradientTransform="matrix(1 0 0 -1 0 2019.8898)">
			<stop  offset="0" style="stop-color:#D1D7F3"/>
			<stop  offset="0.1731" style="stop-color:#C7CDEA"/>
			<stop  offset="0.6873" style="stop-color:#AEB4D4"/>
			<stop  offset="1" style="stop-color:#A5ABCC"/>
		</linearGradient>
		<path class="st61" d="M1384.336,446.167c-9.773-5.646-14.666-13.057-14.64-20.455l0.042-9.479
			c-0.018,7.407,4.86,14.818,14.64,20.464c19.436,11.217,50.834,11.217,70.138,0.004c9.595-5.582,14.394-12.87,14.417-20.177
			l-0.046,9.472c-0.021,7.305-4.821,14.597-14.411,20.177C1435.172,457.394,1403.769,457.394,1384.336,446.167z"/>
		<path class="st28" d="M1384.378,417.749c-19.43-11.217-19.535-29.415-0.233-40.626c19.307-11.224,50.717-11.224,70.145,0
			c19.438,11.211,19.529,29.408,0.228,40.631C1435.211,428.968,1403.814,428.968,1384.378,417.749z"/>
		<polygon class="st23" points="1447.079,393.72 1407.365,395.743 1408.595,386.815 1397.624,386.815 1394.642,403.086 
			1447.079,400.059 		"/>
	</g>
	<g>
		
			<linearGradient id="SVGID_45_" gradientUnits="userSpaceOnUse" x1="767.8307" y1="1313.9974" x2="884.4631" y2="1313.9974" gradientTransform="matrix(1 0 0 -1 0 2019.8898)">
			<stop  offset="0" style="stop-color:#D1D7F3"/>
			<stop  offset="0.3799" style="stop-color:#E4E7F8"/>
			<stop  offset="1" style="stop-color:#FFFFFF"/>
		</linearGradient>
		<path class="st62" d="M767.831,705.892l0.002,33.669l58.317-0.002c32.208,0.003,58.32-15.071,58.313-33.667
			c0.005-18.6-26.12-33.667-58.319-33.668C793.939,672.233,767.828,687.303,767.831,705.892z M806.69,694.667
			c10.751-6.207,28.169-6.21,38.913-0.008c10.739,6.203,10.744,16.259-0.008,22.466c-10.74,6.201-28.16,6.2-38.906,0.001
			C795.95,710.921,795.95,700.868,806.69,694.667z"/>
	</g>
	
		<linearGradient id="SVGID_46_" gradientUnits="userSpaceOnUse" x1="750.1492" y1="1304.137" x2="866.7805" y2="1304.137" gradientTransform="matrix(1 0 0 -1 0 2019.8898)">
		<stop  offset="0.4677" style="stop-color:#CED3F8"/>
		<stop  offset="1" style="stop-color:#BBC0E6"/>
	</linearGradient>
	<path class="st63" d="M862.646,691.944v12.45c-8.573,12.43-29.591,21.219-54.179,21.216l-50.352,0.002l0,0h-7.966l0.001,13.949
		l58.317-0.002c32.208,0.003,58.319-15.072,58.313-33.667v-13.949H862.646z"/>
	
		<linearGradient id="SVGID_47_" gradientUnits="userSpaceOnUse" x1="780.9684" y1="1332.3979" x2="835.9561" y2="1332.3979" gradientTransform="matrix(1 0 0 -1 0 2019.8898)">
		<stop  offset="0" style="stop-color:#BBC0E6"/>
		<stop  offset="1" style="stop-color:#CED3F8"/>
	</linearGradient>
	<path class="st64" d="M827.919,680.711c-10.744-6.202-28.161-6.199-38.913,0.009c-8.532,4.925-10.26,12.276-5.239,18.203
		c1.301-1.534,3.029-2.979,5.239-4.254c10.751-6.207,28.169-6.21,38.913-0.008c2.209,1.276,3.938,2.721,5.239,4.256
		C838.18,692.987,836.448,685.637,827.919,680.711z"/>
	<g>
		<path class="st28" d="M750.148,691.943l0.002,33.67l58.317-0.002c32.208,0.003,58.319-15.072,58.313-33.667
			c0.005-18.6-26.12-33.667-58.319-33.668C776.256,658.284,750.145,673.353,750.148,691.943z M789.006,680.718
			c10.751-6.207,28.169-6.211,38.913-0.009c10.739,6.204,10.744,16.259-0.008,22.467c-10.74,6.201-28.159,6.2-38.906,0.001
			C778.266,696.972,778.266,686.919,789.006,680.718z"/>
	</g>
	
		<linearGradient id="SVGID_48_" gradientUnits="userSpaceOnUse" x1="1858.3218" y1="983.0596" x2="1938.7952" y2="983.0596" gradientTransform="matrix(1 0 0 -1 0 2019.8898)">
		<stop  offset="0" style="stop-color:#C2C7E2"/>
		<stop  offset="1" style="stop-color:#FFFFFF"/>
	</linearGradient>
	<path class="st65" d="M1925.792,1018.774c-9.211-5.315-21.453-7.762-33.472-7.407h-11.232v3.093
		c-3.576,1.129-6.953,2.565-9.971,4.314c-17.142,9.97-17.045,26.127,0.206,36.095c2.973,1.716,6.273,3.113,9.765,4.23v3.228h14.984
		c10.875-0.181,21.654-2.651,29.922-7.452C1943.136,1044.901,1943.055,1028.744,1925.792,1018.774z"/>
	
		<linearGradient id="SVGID_49_" gradientUnits="userSpaceOnUse" x1="1838.8987" y1="974.5671" x2="1927.0464" y2="974.5671" gradientTransform="matrix(1 0 0 -1 0 2019.8898)">
		<stop  offset="0" style="stop-color:#D6DCEE"/>
		<stop  offset="0.5506" style="stop-color:#C4CAE5"/>
		<stop  offset="1" style="stop-color:#BBC1E1"/>
	</linearGradient>
	<path class="st66" d="M1851.904,1054.876c-8.683-5.014-13.024-11.597-13.005-18.167l0.038-8.42
		c-0.014,6.577,4.315,13.159,13.005,18.175c17.261,9.963,45.152,9.963,62.297,0.005c8.52-4.959,12.785-11.431,12.808-17.923
		l-0.043,8.415c-0.017,6.489-4.282,12.966-12.801,17.921C1897.06,1064.849,1869.165,1064.849,1851.904,1054.876z"/>
	<path class="st28" d="M1851.942,1046.464c-17.258-9.963-17.35-26.125-0.211-36.084c17.154-9.969,45.052-9.969,62.305,0
		c17.266,9.959,17.346,26.122,0.202,36.09C1897.093,1056.427,1869.203,1056.427,1851.942,1046.464z"/>
	<polygon class="st67" points="1876.667,1032.999 1862.887,1030.526 1874.667,1025.716 1874.482,1017.385 1886.05,1022.366 
		1899.716,1019.693 1895.079,1027.583 1903.712,1034.26 1889.282,1034.152 1880.951,1040.955 	"/>
	
		<linearGradient id="SVGID_50_" gradientUnits="userSpaceOnUse" x1="1839.1268" y1="1005.4566" x2="1926.8229" y2="1005.4566" gradientTransform="matrix(1 0 0 -1 0 2019.8898)">
		<stop  offset="0" style="stop-color:#DAE0F5"/>
		<stop  offset="1" style="stop-color:#FFFFFF"/>
	</linearGradient>
	<path class="st68" d="M1851.731,1010.38c-7.494,4.354-11.692,9.895-12.604,15.584h87.696c-0.975-5.69-5.239-11.23-12.787-15.584
		C1896.782,1000.41,1868.885,1000.41,1851.731,1010.38z"/>
	<path class="st29" d="M1575.547,671.269l-0.001-19.753c8.972-0.564,17.685-2.815,24.55-6.777
		c16.004-9.241,16.004-24.275,0.001-33.515c-16.007-9.241-42.047-9.241-58.052-0.001c-16.005,9.241-16.005,24.275,0.001,33.516
		c6.864,3.963,15.577,6.213,24.549,6.777l0.001,19.753c0,0.714,0.501,1.36,1.311,1.828c0.81,0.468,1.929,0.757,3.165,0.757
		C1573.545,673.853,1575.548,672.696,1575.547,671.269z M1548.375,614.877c12.515-7.225,32.876-7.225,45.392,0
		c12.514,7.224,12.514,18.981-0.001,26.206c-12.515,7.225-32.877,7.225-45.39,0.001
		C1535.86,633.858,1535.86,622.102,1548.375,614.877z"/>
	<path class="st29" d="M650.69,1026.358c-2.187-1.261-5.055-1.872-7.915-1.845l-12.219-25.832c1.557-0.431,3.02-1.01,4.308-1.752
		c1.719-0.989,2.94-2.164,3.684-3.405l38.372,3.465c0.239,1.407,1.241,2.781,3.109,3.863c4.285,2.469,11.233,2.469,15.511,0
		c4.285-2.476,4.285-6.484,0.003-8.961c-4.281-2.475-11.23-2.475-15.515,0c-1.012,0.585-1.768,1.261-2.299,1.972l-38.336-3.464
		c-0.087-2.224-1.587-4.435-4.526-6.133c-6.06-3.505-15.886-3.505-21.946,0c-6.059,3.497-6.059,9.166,0,12.663
		c3.385,1.958,7.935,2.821,12.351,2.589l12.229,25.844c-0.83,0.272-1.627,0.591-2.33,0.996c-4.287,2.476-4.287,6.485,0,8.954
		c4.284,2.476,11.229,2.476,15.514,0C654.971,1032.843,654.971,1028.834,650.69,1026.358z"/>
	
		<linearGradient id="SVGID_51_" gradientUnits="userSpaceOnUse" x1="1013.8726" y1="834.8563" x2="1073.7611" y2="834.8563" gradientTransform="matrix(1 0 0 -1 0 2019.8898)">
		<stop  offset="0" style="stop-color:#DAE0F5"/>
		<stop  offset="0.3103" style="stop-color:#ECEFFA"/>
		<stop  offset="0.6804" style="stop-color:#FAFBFE"/>
		<stop  offset="0.9944" style="stop-color:#FFFFFF"/>
	</linearGradient>
	<path class="st69" d="M1073.761,1191.312c-18.995-3.322-34.51-8.06-42.3-12.915c5.084,0.213,5.428-3.126,3.624-4.536
		c-3.846-3.004-8.797-5.314-13.247-4.161c-4.45,1.155-7.965,9.667-7.965,9.667c9.641,10.543,34.45,17.572,59.888,21.299V1191.312
		L1073.761,1191.312z"/>
	<path class="st70" d="M1007.419,1171.464c1.042-0.086,2.747-0.24,2.747-0.24c0.23-0.489,4.274-5.316,9.579-4.752
		c0.363,1.876-1.804,2.38-3.74,3.196c2.183-0.635,4.866-1.066,6.083-1.333c1.218-0.267,4.964,0.328,6.68,2.229
		c0.382,0.424,1.703,1.766,2.609,3.041c1.512,2.126-0.825,3.155-2.963,2.272c-2.139-0.884-2.855-0.391-5.558,0.736
		c-2.704,1.129-6.154,4.694-12.313,1.674c-0.648-0.317-1.649-0.056-1.649-0.056L1007.419,1171.464z"/>
	
		<linearGradient id="SVGID_52_" gradientUnits="userSpaceOnUse" x1="3779.2141" y1="717.3831" x2="3859.5171" y2="717.3831" gradientTransform="matrix(-1 0 0 -1 4774.9419 2019.8898)">
		<stop  offset="0.0056" style="stop-color:#FFFFFF"/>
		<stop  offset="0.246" style="stop-color:#FAFBFD"/>
		<stop  offset="0.5298" style="stop-color:#ECEEF8"/>
		<stop  offset="0.8346" style="stop-color:#D4D8EF"/>
		<stop  offset="1" style="stop-color:#C4CAE9"/>
	</linearGradient>
	<rect x="915.425" y="1294.098" class="st71" width="80.303" height="16.817"/>
	
		<linearGradient id="SVGID_53_" gradientUnits="userSpaceOnUse" x1="3760.4983" y1="693.1141" x2="3846.842" y2="693.1141" gradientTransform="matrix(-1 0 0 -1 4804.3706 2019.8898)">
		<stop  offset="0.0056" style="stop-color:#FFFFFF"/>
		<stop  offset="0.246" style="stop-color:#FAFBFD"/>
		<stop  offset="0.5298" style="stop-color:#ECEEF8"/>
		<stop  offset="0.8346" style="stop-color:#D4D8EF"/>
		<stop  offset="1" style="stop-color:#C4CAE9"/>
	</linearGradient>
	<rect x="957.529" y="1318.369" class="st72" width="86.344" height="16.814"/>
	<g>
		<g>
			
				<linearGradient id="SVGID_54_" gradientUnits="userSpaceOnUse" x1="2519.7004" y1="720.447" x2="2553.6965" y2="720.447" gradientTransform="matrix(-1 0 0 -1 3459.4417 2019.8898)">
				<stop  offset="0" style="stop-color:#423EAF"/>
				<stop  offset="0.3038" style="stop-color:#3A35A0"/>
				<stop  offset="0.8906" style="stop-color:#241E77"/>
				<stop  offset="1" style="stop-color:#20196F"/>
			</linearGradient>
			<path class="st73" d="M905.745,1305.73c0-13.206,8.374-13.587,8.374-13.587s4.652,0.473,12.119-2.332
				c9.404-3.533,17.291-2.583,11.565,7.98c-0.053,0.126-0.12,0.255-0.198,0.391c-0.35,0.553-0.95,1.107-1.851,1.623l-18.298,10.728
				C914.668,1312.132,905.806,1308.449,905.745,1305.73z"/>
			<path class="st74" d="M905.794,1304.546c0.157,2.711,8.893,6.326,11.66,4.747l18.298-10.729c0.605-0.344,1.645-1.048,2.579-1.878
				c-0.175,0.365-0.316,0.711-0.53,1.107c-0.053,0.126-0.12,0.255-0.198,0.391c-0.35,0.553-0.95,1.107-1.851,1.623l-18.298,10.728
				c-2.606,1.495-10.549-1.642-11.591-4.281c-0.046-0.192-0.077-0.381-0.077-0.532
				C905.745,1305.313,905.781,1304.946,905.794,1304.546z"/>
			<path class="st75" d="M909.149,1290.404c1.086,0,3.543,0.487,5.719,0.973c1.8-0.464,7.736-0.679,11.621-1.825
				c1.154-0.339,2.243-1.066,3.466-0.139c1.536,1.887-2.46,6.499-10.702,10.054c-2.914,1.836-5.277,0.671-6.401-0.446
				c-0.458-0.851-1.128-1.8-2.059-2.346c-0.966-0.551-1.556-0.802-1.978-0.833c0.008-0.055-0.026-0.18-0.026-0.18
				S908.251,1290.404,909.149,1290.404z"/>
		</g>
		<path class="st76" d="M913.287,1203.572c-3.673-11.266-1.98-24.275,0.747-37.351c8.268,0.149,23.925-4.479,32.195-4.329
			c-3.079,24.858-10.012,46.71-14.15,70.787c-4.441,23.401-9.713,40.586-14.084,60.066c-1.6,3.628-9.384,1.99-9.384-0.182
			c-1.159-17.939-0.382-38.743,4.93-59.433C913.168,1223.772,914.77,1212.888,913.287,1203.572z"/>
	</g>
	<g>
		
			<linearGradient id="SVGID_55_" gradientUnits="userSpaceOnUse" x1="2477.9578" y1="696.273" x2="2511.9917" y2="696.273" gradientTransform="matrix(-1 0 0 -1 3459.4417 2019.8898)">
			<stop  offset="0" style="stop-color:#423EAF"/>
			<stop  offset="0.3038" style="stop-color:#3A35A0"/>
			<stop  offset="0.8906" style="stop-color:#241E77"/>
			<stop  offset="1" style="stop-color:#20196F"/>
		</linearGradient>
		<path class="st77" d="M947.45,1330.003c0-13.21,8.368-13.589,8.368-13.589s4.908,0.215,12.375-2.591
			c9.404-3.534,17.041-2.324,11.319,8.24c-0.06,0.125-0.13,0.253-0.205,0.393c-0.347,0.553-0.947,1.104-1.854,1.622l-18.295,10.728
			C956.37,1336.404,947.511,1332.72,947.45,1330.003z"/>
		<path class="st74" d="M947.492,1328.816c0.161,2.711,8.897,6.327,11.663,4.753l18.295-10.734c0.604-0.349,1.648-1.048,2.582-1.878
			c-0.172,0.361-0.316,0.714-0.523,1.107c-0.06,0.125-0.13,0.253-0.205,0.393c-0.347,0.553-0.947,1.104-1.854,1.622l-18.295,10.728
			c-2.602,1.493-10.541-1.641-11.591-4.283c-0.042-0.192-0.078-0.378-0.078-0.535C947.45,1329.586,947.48,1329.214,947.492,1328.816
			z"/>
		<path class="st75" d="M950.85,1314.675c1.081,0,3.547,0.485,5.723,0.975c1.792-0.47,7.733-0.678,11.618-1.826
			c1.157-0.339,2.246-1.066,3.466-0.137c1.533,1.885-2.463,6.499-10.702,10.054c-2.914,1.833-5.274,0.667-6.398-0.446
			c-0.458-0.851-1.131-1.802-2.067-2.347c-0.959-0.557-1.551-0.801-1.973-0.834c0.003-0.056-0.023-0.177-0.023-0.177
			S949.953,1314.675,950.85,1314.675z"/>
		
			<linearGradient id="SVGID_56_" gradientUnits="userSpaceOnUse" x1="2495.9707" y1="777.3147" x2="2545.5359" y2="777.3147" gradientTransform="matrix(-1 0 0 -1 3459.4417 2019.8898)">
			<stop  offset="0" style="stop-color:#423EAF"/>
			<stop  offset="0.2442" style="stop-color:#38339C"/>
			<stop  offset="0.732" style="stop-color:#27207B"/>
			<stop  offset="1" style="stop-color:#20196F"/>
		</linearGradient>
		<path class="st78" d="M935.263,1220.348c-7.047-28.311-22.941-12.099-21.229-54.126c8.182-1.201,37.414,17.284,45.602,16.082
			c4.794,30.468,3.799,49.285,3.649,73.712c-0.553,23.817-2.113,40.109-3.244,60.03c-0.984,3.844-9.703,3.546-9.703,1.235
			c-4.071-17.504-7.318-38.855-5.449-60.131C942.45,1245.357,937.914,1232.86,935.263,1220.348z"/>
	</g>
	<g>
		
			<linearGradient id="SVGID_57_" gradientUnits="userSpaceOnUse" x1="2609.2764" y1="812.5453" x2="2677.0569" y2="812.5453" gradientTransform="matrix(-0.9614 -0.2751 0.2751 -0.9614 3266.4783 2662.2986)">
			<stop  offset="0" style="stop-color:#CC360E"/>
			<stop  offset="0.1702" style="stop-color:#D5470D"/>
			<stop  offset="0.7275" style="stop-color:#F27C0A"/>
			<stop  offset="1" style="stop-color:#FD9009"/>
		</linearGradient>
		<path class="st79" d="M918.25,1209.872c13.334,8.15,34.31,13.197,47.807,7.232c1.393-7.878-10.796-59.82-2.773-73.499
			c1.749-2.984,7.378-0.547,8.9-3.789c3.95-8.409,7.712-25.893,7.712-28.548c0-5.655-4.542-11.523-9.24-14.647
			c-6.429-4.284-15.557-10.012-23.614-8.441c-17.584,4.931-30.033,50.313-42.944,102.817
			C905.405,1196.945,910.236,1204.969,918.25,1209.872z"/>
		
			<linearGradient id="SVGID_58_" gradientUnits="userSpaceOnUse" x1="3021.7705" y1="854.548" x2="3047.6548" y2="854.548" gradientTransform="matrix(-1 0 0 -1 4001.3948 2019.8898)">
			<stop  offset="0" style="stop-color:#ECDBD6"/>
			<stop  offset="0.4737" style="stop-color:#F4EAE7"/>
			<stop  offset="1" style="stop-color:#FFFFFF"/>
		</linearGradient>
		<path class="st80" d="M953.816,1157.206c-0.865-6.478,5.829-17.92,9.654-19.217c3.826-1.295,7.187-2.806,7.187-7.207
			c0-4.403-1.813-11.334-0.858-16.558l9.825-0.645c-0.934,5.697-4.122,19.172-7.439,26.238c-1.523,3.241-7.152,0.804-8.9,3.789
			c-8.02,13.679,4.166,65.621,2.773,73.499c0,0-4.901-24.921-6.421-34.801C958.113,1172.425,954.679,1163.683,953.816,1157.206z"/>
		<path class="st75" d="M950.042,1092.161c5.391-3.604,5.061-6.5,4.472-11.7c-0.907-2.743-1.374-5.78-1.254-8.977
			c0.431-11.512,8.129-21.185,17.088-20.228c18.058,1.922,14.484,11.328,14.053,22.838c-0.399,10.664-5.513,17.816-13.645,18.751
			c-0.07,1.75,0.464,3.398,2.645,5.021c-6.046,3.319-15.431,1.529-19.214-0.033C950.499,1096.312,947.482,1094.617,950.042,1092.161
			z"/>
	</g>
	<g>
		
			<linearGradient id="SVGID_59_" gradientUnits="userSpaceOnUse" x1="1519.4689" y1="420.3248" x2="1600.5365" y2="420.3248" gradientTransform="matrix(0.4046 0.9145 0.9145 -0.4046 -29.4663 -112.1276)">
			<stop  offset="0" style="stop-color:#FD9009"/>
			<stop  offset="1" style="stop-color:#EF4E16"/>
		</linearGradient>
		<path class="st81" d="M1008.498,1178.83c0,0,6.325-2.064,3.056-9.455c-16.523-7.857-32.754-33.369-31.657-58.105
			c-0.725-9.958-12.642-6.412-13.69,5.702C964.555,1136.055,978.11,1169.567,1008.498,1178.83z"/>
	</g>
	<path class="st76" d="M986.803,1066.815c-0.33-6.683-5.743-17.915-17.663-17.074c-11.516,0.811-16.424,8.992-16.546,18.971
		c-0.095,7.831-7.089,29.987-24.676,28.702C935.444,1111.327,989.122,1113.814,986.803,1066.815z"/>
</g>
</svg>
