<?xml version="1.0" encoding="utf-8"?>
<!-- Generator: Adobe Illustrator 24.0.2, SVG Export Plug-In . SVG Version: 6.00 Build 0)  -->
<svg version="1.1" id="Layer_1" xmlns="http://www.w3.org/2000/svg" xmlns:xlink="http://www.w3.org/1999/xlink" x="0px" y="0px"
	 viewBox="0 0 2290.884 2020.845" style="enable-background:new 0 0 2290.884 2020.845;" xml:space="preserve">
<style type="text/css">
	.st0{fill:url(#SVGID_1_);}
	.st1{fill:#E8ECF7;}
	.st2{fill:#FFFFFF;}
	.st3{fill:url(#SVGID_2_);}
	.st4{fill:#DAE0F5;}
	.st5{fill:url(#SVGID_3_);}
	.st6{fill:#F1F1F6;}
	.st7{fill:#CED3F8;}
	.st8{fill:#BBC0E6;}
	.st9{fill:#F6F6FB;}
	.st10{fill:url(#SVGID_4_);}
	.st11{fill:url(#SVGID_5_);}
	.st12{fill:#C6B4BB;}
	.st13{fill:#D8DEF3;}
	.st14{fill:#423EAF;}
	.st15{fill:url(#SVGID_6_);}
	.st16{fill:#D7DDFD;}
	.st17{fill:url(#SVGID_7_);}
	.st18{fill:url(#SVGID_8_);}
	.st19{fill:url(#SVGID_9_);}
	.st20{fill:url(#SVGID_10_);}
	.st21{fill:url(#SVGID_11_);}
	.st22{fill:url(#SVGID_12_);}
	.st23{fill:url(#SVGID_13_);}
	.st24{fill:url(#SVGID_14_);}
	.st25{fill:url(#SVGID_15_);}
	.st26{fill:url(#SVGID_16_);}
	.st27{fill:url(#SVGID_17_);}
	.st28{fill:#B9BEE4;}
	.st29{fill:#CCD1F6;}
	.st30{fill:#F4F4F9;}
	.st31{fill:url(#SVGID_18_);}
	.st32{fill:url(#SVGID_19_);}
	.st33{fill:url(#SVGID_20_);}
	.st34{fill:#362E94;}
	.st35{fill:#5652CC;}
	.st36{fill:#FC780B;}
	.st37{fill:#807DFB;}
	.st38{fill:#EF4E16;}
	.st39{fill:#6B67E9;}
	.st40{fill:url(#SVGID_21_);}
	.st41{fill:#F7F7FC;}
	.st42{fill:#D0D4F6;}
	.st43{fill:url(#SVGID_22_);}
	.st44{fill:url(#SVGID_23_);}
	.st45{fill:url(#SVGID_24_);}
	.st46{fill:url(#SVGID_25_);}
	.st47{fill:#20196F;}
	.st48{fill:url(#SVGID_26_);}
	.st49{fill:url(#SVGID_27_);}
	.st50{fill:url(#SVGID_28_);}
	.st51{fill:url(#SVGID_29_);}
	.st52{fill:url(#SVGID_30_);}
	.st53{fill:url(#SVGID_31_);}
	.st54{fill:url(#SVGID_32_);}
	.st55{fill:url(#SVGID_33_);}
	.st56{fill:#FCD1A9;}
	.st57{fill:#DD3B10;}
	.st58{fill:url(#SVGID_34_);}
	.st59{fill:url(#SVGID_35_);}
	.st60{fill:url(#SVGID_36_);}
	.st61{fill:url(#SVGID_37_);}
	.st62{fill:#BBBFE2;}
	.st63{fill:#CED2F4;}
	.st64{fill:#242D3C;}
	.st65{fill:url(#SVGID_38_);}
	.st66{fill:url(#SVGID_39_);}
	.st67{fill:url(#SVGID_40_);}
	.st68{fill:url(#SVGID_41_);}
	.st69{fill:url(#SVGID_42_);}
	.st70{fill:#F0F0F5;}
	.st71{fill:#E0E0EB;}
	.st72{fill:url(#SVGID_43_);}
	.st73{fill:url(#SVGID_44_);}
	.st74{fill:url(#SVGID_45_);}
	.st75{fill:#D1D7F3;}
</style>
<g>
	<g id="Background">
	</g>
	<g id="Name">
	</g>
	<g id="Wave_shape">
		
			<linearGradient id="SVGID_1_" gradientUnits="userSpaceOnUse" x1="1802.4789" y1="326.0232" x2="450.5592" y2="1393.0079" gradientTransform="matrix(1 0 0 -1 0 2019.8898)">
			<stop  offset="0" style="stop-color:#EFEFF3"/>
			<stop  offset="0.4995" style="stop-color:#FBFBFC;stop-opacity:0.5005"/>
			<stop  offset="1" style="stop-color:#FFFFFF;stop-opacity:0"/>
		</linearGradient>
		<path class="st0" d="M1660.493,1738.196c786.328-127.169,739.416-941.216,275.716-961.717
			c-1006.77-44.511-763.258-380.682-1069.864-429.906C613.331,305.952,623.07,600.896,502.591,729.984
			c-137.32,147.132-549.813,235.11-498.14,493.212C116.066,1780.707,1029.599,1840.227,1660.493,1738.196z"/>
	</g>
	<g id="Abstract_shapes">
		<path class="st1" d="M613.047,794.288l43.057,92.778c2.604,5.609,9.458,7.779,14.812,4.684l117.637-67.917
			c8.609-4.969,6.168-17.994-3.649-19.511l-160.7-24.863C615.892,778.167,609.507,786.658,613.047,794.288z"/>
		<path class="st1" d="M953.454,1743.608c-35.159-20.297-92.163-20.297-127.32,0c-35.159,20.301-35.159,53.214,0,73.51
			c35.159,20.301,92.163,20.301,127.323,0C988.616,1796.822,988.613,1763.909,953.454,1743.608z M856.176,1799.773
			c-18.566-10.721-18.569-28.1,0-38.82c18.566-10.721,48.67-10.721,67.236,0c18.569,10.721,18.569,28.1,0,38.82
			C904.846,1810.494,874.743,1810.494,856.176,1799.773z"/>
		<g>
			<path class="st1" d="M233.742,948.204c6.199,3.577,16.243,3.577,22.442,0c6.197-3.577,6.197-9.379,0-12.956
				c-6.199-3.577-16.243-3.577-22.442,0C227.546,938.825,227.546,944.626,233.742,948.204z"/>
			<path class="st1" d="M288.65,979.904c6.197,3.577,16.243,3.577,22.44,0c6.199-3.577,6.199-9.379,0-12.956
				c-6.197-3.577-16.243-3.577-22.44,0C282.454,970.523,282.454,976.326,288.65,979.904z"/>
			<path class="st1" d="M343.558,1011.601c6.197,3.577,16.243,3.577,22.44,0c6.197-3.577,6.197-9.377,0-12.954
				c-6.197-3.577-16.243-3.577-22.44,0C337.359,1002.224,337.359,1008.024,343.558,1011.601z"/>
			<ellipse class="st1" cx="409.684" cy="1036.822" rx="15.87" ry="9.162"/>
			<path class="st1" d="M178.838,979.904c6.197,3.577,16.244,3.577,22.44,0c6.199-3.577,6.199-9.379,0-12.956
				c-6.195-3.577-16.243-3.577-22.44,0C172.641,970.523,172.641,976.326,178.838,979.904z"/>
			<path class="st1" d="M233.742,1011.601c6.199,3.577,16.247,3.577,22.442,0c6.197-3.577,6.197-9.377,0-12.954
				c-6.195-3.577-16.243-3.577-22.442,0C227.546,1002.224,227.546,1008.024,233.742,1011.601z"/>
			<path class="st1" d="M288.65,1043.3c6.199,3.577,16.243,3.577,22.443,0c6.197-3.577,6.197-9.379-0.003-12.957
				c-6.197-3.577-16.241-3.577-22.44,0C282.454,1033.921,282.454,1039.723,288.65,1043.3z"/>
			<path class="st1" d="M365.997,1062.051c-6.197-3.577-16.243-3.585-22.44,0c-6.197,3.577-6.197,9.373,0,12.951
				c6.197,3.577,16.243,3.577,22.44,0C372.194,1071.425,372.194,1065.629,365.997,1062.051z"/>
			<path class="st1" d="M123.93,1011.601c6.199,3.577,16.247,3.577,22.442,0c6.195-3.577,6.195-9.377,0-12.954
				c-6.199-3.577-16.244-3.577-22.442,0C117.734,1002.224,117.734,1008.024,123.93,1011.601z"/>
			<path class="st1" d="M178.838,1043.3c6.197,3.577,16.244,3.577,22.44,0c6.199-3.577,6.199-9.379,0-12.957
				c-6.195-3.577-16.243-3.577-22.44,0C172.641,1033.921,172.641,1039.723,178.838,1043.3z"/>
			<path class="st1" d="M233.745,1075.002c6.195,3.577,16.243,3.577,22.44,0c6.197-3.577,6.197-9.373,0-12.951
				c-6.196-3.585-16.243-3.585-22.44,0C227.546,1065.629,227.546,1071.425,233.745,1075.002z"/>
			<path class="st1" d="M311.093,1093.748c-6.199-3.577-16.244-3.577-22.443,0c-6.197,3.577-6.197,9.38,0,12.958
				c6.199,3.577,16.243,3.577,22.443,0C317.289,1103.127,317.289,1097.325,311.093,1093.748z"/>
			<path class="st1" d="M69.025,1043.3c6.197,3.577,16.243,3.577,22.441,0c6.196-3.577,6.196-9.379,0-12.957
				c-6.197-3.577-16.244-3.577-22.441,0S62.829,1039.723,69.025,1043.3z"/>
			<path class="st1" d="M123.933,1075.002c6.196,3.577,16.243,3.577,22.44,0c6.196-3.577,6.196-9.373,0-12.96
				c-6.197-3.577-16.244-3.577-22.44,0C117.734,1065.629,117.734,1071.425,123.933,1075.002z"/>
			<path class="st1" d="M178.838,1106.704c6.197,3.577,16.244,3.577,22.44,0c6.199-3.583,6.199-9.38,0-12.958
				c-6.195-3.577-16.243-3.577-22.44,0C172.641,1097.325,172.641,1103.121,178.838,1106.704z"/>
			<path class="st1" d="M256.185,1125.446c-6.196-3.577-16.243-3.577-22.44,0s-6.197,9.381,0,12.959
				c6.195,3.577,16.243,3.577,22.44,0C262.382,1134.829,262.382,1129.024,256.185,1125.446z"/>
			<path class="st1" d="M36.56,1062.042c-6.199-3.577-16.244-3.577-22.442,0c-6.196,3.585-6.196,9.383,0,12.96
				c6.199,3.577,16.243,3.577,22.442,0C42.756,1071.425,42.756,1065.629,36.56,1062.042z"/>
			<path class="st1" d="M91.465,1093.748c-6.197-3.577-16.244-3.577-22.441,0s-6.197,9.375,0,12.958
				c6.197,3.577,16.243,3.577,22.441,0C97.664,1103.121,97.664,1097.325,91.465,1093.748z"/>
			<path class="st1" d="M146.373,1125.446c-6.197-3.577-16.244-3.577-22.44,0c-6.199,3.577-6.199,9.381,0,12.959
				c6.196,3.577,16.243,3.577,22.44,0C152.569,1134.829,152.569,1129.024,146.373,1125.446z"/>
			<path class="st1" d="M201.277,1157.146c-6.195-3.577-16.243-3.577-22.44,0c-6.197,3.577-6.197,9.379,0,12.957
				c6.199,3.577,16.244,3.577,22.443,0C207.476,1166.525,207.476,1160.724,201.277,1157.146z"/>
		</g>
		<g>
			<path class="st2" d="M2273.11,1054.345c-6.199-3.578-16.244-3.578-22.442,0c-6.193,3.581-6.193,9.377,0,12.956
				c6.199,3.578,16.247,3.578,22.442,0C2279.305,1063.724,2279.305,1057.924,2273.11,1054.345z"/>
			<path class="st2" d="M2218.202,1086.047c-6.195-3.578-16.244-3.578-22.44,0c-6.196,3.577-6.196,9.377,0,12.956
				c6.195,3.577,16.244,3.577,22.44,0C2224.401,1095.424,2224.401,1089.624,2218.202,1086.047z"/>
			<path class="st2" d="M2163.296,1117.746c-6.197-3.578-16.243-3.578-22.44,0c-6.199,3.577-6.199,9.38,0,12.958
				c6.197,3.577,16.244,3.577,22.44,0C2169.493,1127.126,2169.493,1121.323,2163.296,1117.746z"/>
			<path class="st2" d="M2108.392,1149.442c-6.199-3.578-16.247-3.578-22.442,0c-6.197,3.581-6.197,9.381,0,12.959
				c6.199,3.577,16.243,3.577,22.442,0C2114.585,1158.823,2114.585,1153.023,2108.392,1149.442z"/>
			<path class="st2" d="M2053.484,1181.145c-6.199-3.577-16.243-3.577-22.442,0c-6.193,3.577-6.193,9.378,0,12.959
				c6.199,3.577,16.243,3.577,22.442,0C2059.681,1190.523,2059.681,1184.723,2053.484,1181.145z"/>
		</g>
		<path class="st1" d="M2236.47,1324.01l49.335,28.482c7.523,4.343,6.579,11.929-2.107,16.943l-45.12,26.054
			c-8.683,5.014-21.825,5.557-29.346,1.216l-49.335-28.482c-7.523-4.343-6.579-11.929,2.107-16.945l45.12-26.05
			C2215.811,1320.212,2228.949,1319.667,2236.47,1324.01z"/>
	</g>
	<g id="Objects">
		<g id="Shadow_from_screen">
			
				<linearGradient id="SVGID_2_" gradientUnits="userSpaceOnUse" x1="1238.9872" y1="968.9892" x2="2060.7363" y2="968.9892" gradientTransform="matrix(1 0 0 -1 0 2019.8898)">
				<stop  offset="0" style="stop-color:#C2C8E6"/>
				<stop  offset="0.6331" style="stop-color:#ECEEF7;stop-opacity:0.5"/>
				<stop  offset="1" style="stop-color:#FFFFFF;stop-opacity:0"/>
			</linearGradient>
			<path class="st3" d="M1574.568,1202.298h486.168v-381.59l-443.802-0.868l-367.22,335.318c-14.304,8.256-14.304,21.78,0,30.035
				c0,0,152.571,88.034,153.269,88.386l-23.289,8.381c0,0,23.016,0,37.402,0c14.391,0,26.402-3.993,35.868-9.46L1574.568,1202.298z"
				/>
		</g>
		<g id="Wire">
			<g>
				<path class="st4" d="M488.144,1599.088l-3.429-4.584c0.979-0.733,99.139-73.375,208.841-86.488
					c164.565-19.669,199.399-27.662,199.399-137.543c0-46.728,8.007-74.884,25.961-91.291
					c27.847-25.447,80.539-22.787,157.747-15.822c56.998,5.143,94.921-0.736,115.938-17.965
					c18.596-15.246,22.886-37.642,27.431-61.353c0.464-2.421,0.93-4.848,1.41-7.274l5.614,1.116
					c-0.48,2.412-0.942,4.828-1.405,7.236c-4.536,23.668-9.226,48.141-29.423,64.701c-22.543,18.485-60.697,24.598-120.081,19.241
					c-75.693-6.829-127.258-9.52-153.372,14.345c-16.667,15.231-24.099,42.083-24.099,87.067
					c0,114.436-39.042,123.459-204.442,143.227C586.038,1526.633,489.111,1598.365,488.144,1599.088z"/>
			</g>
		</g>
		<g id="Back_frame">
			<g>
				
					<linearGradient id="SVGID_3_" gradientUnits="userSpaceOnUse" x1="2522.408" y1="1163.3705" x2="2846.927" y2="1725.454" gradientTransform="matrix(-1 0 0 -1 4450.5537 2019.8898)">
					<stop  offset="0.4004" style="stop-color:#423EAF"/>
					<stop  offset="0.459" style="stop-color:#5854CA"/>
					<stop  offset="0.5514" style="stop-color:#807DFB"/>
				</linearGradient>
				<path class="st5" d="M1546.292,327.595c4.367-3.091,10.673-3.016,17.684,1.027l264.664,152.802
					c13.089,7.561,23.803,26.119,23.803,41.24v366.224c0,7.404-2.579,12.649-6.739,15.203l0.009,0.016l-0.197,0.116
					c-0.045,0.026-0.093,0.053-0.135,0.081l-9.938,5.732l-0.011-0.019c4.16-2.551,6.743-7.795,6.743-15.197V528.591
					c0-15.113-10.721-33.676-23.81-41.236l-264.664-152.797c-6.083-3.513-11.633-4.027-15.854-2.088L1546.292,327.595z"/>
				<path class="st6" d="M1553.7,334.558l264.664,152.797c13.089,7.56,23.81,26.123,23.81,41.236v366.227
					c0,15.122-10.721,21.303-23.81,13.745L1553.7,755.761c-13.095-7.558-23.807-26.113-23.807-41.23V348.299
					C1529.893,333.186,1540.604,326.996,1553.7,334.558z"/>
			</g>
			<g>
				<path class="st7" d="M1767.644,580.273l-163.221-94.236c-11.408-6.586-20.655-24.255-20.655-39.466v-18.419
					c0-15.211,9.247-22.202,20.655-15.616l163.221,94.236c11.408,6.586,20.655,24.255,20.655,39.466v18.419
					C1788.299,579.868,1779.052,586.859,1767.644,580.273z"/>
				<path class="st4" d="M1793.481,659.736l-227.963-132.21c-5.203-3.004-9.423-10.312-9.423-16.32c0-6.008,4.22-8.444,9.423-5.44
					l227.963,132.21c5.203,3.004,9.423,10.312,9.423,16.32C1802.904,660.304,1798.685,662.74,1793.481,659.736z"/>
				<path class="st4" d="M1793.481,716.991L1565.519,584.78c-5.203-3.004-9.423-10.312-9.423-16.32s4.22-8.444,9.423-5.44
					l227.963,132.21c5.203,3.004,9.423,10.312,9.423,16.32C1802.904,717.557,1798.685,719.995,1793.481,716.991z"/>
				<path class="st4" d="M1793.481,774.244l-227.963-132.21c-5.203-3.004-9.423-10.311-9.423-16.32c0-6.009,4.22-8.444,9.423-5.44
					l227.963,132.21c5.203,3.004,9.423,10.312,9.423,16.32C1802.904,774.813,1798.685,777.248,1793.481,774.244z"/>
				<path class="st4" d="M1793.481,831.498l-227.963-132.21c-5.203-3.005-9.423-10.312-9.423-16.32c0-6.009,4.22-8.444,9.423-5.44
					l227.963,132.21c5.203,3.004,9.423,10.312,9.423,16.32C1802.904,832.067,1798.685,834.503,1793.481,831.498z"/>
			</g>
			<g>
				<g>
					<g>
						<g>
							<path class="st8" d="M1304.101,459.989c-0.495,0-0.975-0.256-1.241-0.715c-0.395-0.685-0.16-1.559,0.524-1.955l7.435-4.293
								c0.687-0.395,1.559-0.16,1.955,0.524c0.395,0.685,0.16,1.559-0.524,1.955l-7.435,4.293
								C1304.59,459.927,1304.344,459.989,1304.101,459.989z"/>
						</g>
						<g>
							<path class="st8" d="M1326.523,447.042c-0.495,0-0.975-0.256-1.241-0.715c-0.395-0.685-0.16-1.559,0.524-1.955l14.987-8.652
								c0.686-0.395,1.558-0.16,1.955,0.524c0.395,0.685,0.16,1.559-0.524,1.955l-14.987,8.652
								C1327.012,446.982,1326.766,447.042,1326.523,447.042z M1356.497,429.738c-0.495,0-0.974-0.256-1.241-0.715
								c-0.395-0.685-0.16-1.559,0.524-1.955l14.987-8.652c0.686-0.396,1.558-0.16,1.955,0.524c0.395,0.685,0.16,1.559-0.524,1.955
								l-14.987,8.652C1356.985,429.676,1356.74,429.738,1356.497,429.738z M1386.469,412.432c-0.495,0-0.975-0.256-1.241-0.715
								c-0.395-0.685-0.16-1.559,0.524-1.955l14.987-8.652c0.686-0.395,1.558-0.16,1.955,0.524c0.395,0.685,0.16,1.559-0.524,1.955
								l-14.987,8.652C1386.958,412.371,1386.712,412.432,1386.469,412.432z M1416.443,395.128c-0.495,0-0.975-0.256-1.241-0.715
								c-0.395-0.685-0.16-1.559,0.524-1.955l14.987-8.653c0.686-0.396,1.558-0.16,1.955,0.524c0.395,0.685,0.16,1.559-0.524,1.955
								l-14.987,8.653C1416.932,395.066,1416.686,395.128,1416.443,395.128z M1446.417,377.823c-0.495,0-0.975-0.256-1.241-0.715
								c-0.395-0.685-0.16-1.559,0.524-1.955l14.987-8.653c0.686-0.396,1.558-0.161,1.955,0.524c0.395,0.685,0.16,1.559-0.524,1.954
								l-14.987,8.653C1446.904,377.761,1446.658,377.823,1446.417,377.823z M1476.39,360.517c-0.495,0-0.975-0.256-1.241-0.715
								c-0.395-0.685-0.16-1.559,0.524-1.955l14.986-8.652c0.686-0.395,1.558-0.161,1.955,0.524c0.395,0.685,0.16,1.559-0.524,1.955
								l-14.986,8.652C1476.879,360.456,1476.633,360.517,1476.39,360.517z"/>
						</g>
						<g>
							<path class="st8" d="M1506.363,343.213c-0.495,0-0.975-0.256-1.241-0.715c-0.395-0.685-0.16-1.559,0.524-1.954l7.435-4.293
								c0.687-0.396,1.558-0.16,1.955,0.523c0.395,0.685,0.16,1.559-0.524,1.955l-7.435,4.293
								C1506.851,343.151,1506.605,343.213,1506.363,343.213z"/>
						</g>
					</g>
				</g>
			</g>
			<g>
				<g>
					<g>
						<g>
							<path class="st8" d="M1616.114,640.125c-0.495,0-0.975-0.256-1.241-0.716c-0.395-0.685-0.16-1.559,0.524-1.954l7.435-4.293
								c0.687-0.395,1.558-0.16,1.955,0.523c0.395,0.685,0.16,1.559-0.524,1.955l-7.435,4.293
								C1616.603,640.065,1616.357,640.125,1616.114,640.125z"/>
						</g>
						<g>
							<path class="st8" d="M1638.536,627.18c-0.495,0-0.975-0.256-1.241-0.716c-0.395-0.685-0.16-1.559,0.524-1.954l14.987-8.652
								c0.687-0.395,1.558-0.16,1.955,0.524c0.395,0.685,0.16,1.559-0.524,1.954l-14.987,8.652
								C1639.024,627.119,1638.778,627.18,1638.536,627.18z M1668.508,609.876c-0.495,0-0.975-0.256-1.241-0.715
								c-0.395-0.685-0.16-1.559,0.524-1.954l14.987-8.652c0.687-0.396,1.558-0.16,1.955,0.524c0.395,0.685,0.16,1.559-0.524,1.954
								l-14.987,8.652C1668.997,609.814,1668.751,609.876,1668.508,609.876z M1698.482,592.57c-0.495,0-0.975-0.256-1.241-0.716
								c-0.395-0.685-0.16-1.559,0.524-1.955l14.987-8.652c0.687-0.396,1.558-0.161,1.955,0.524c0.395,0.685,0.16,1.559-0.524,1.954
								l-14.987,8.652C1698.97,592.508,1698.724,592.57,1698.482,592.57z M1728.455,575.266c-0.495,0-0.975-0.256-1.241-0.716
								c-0.395-0.685-0.16-1.559,0.524-1.955l14.987-8.653c0.686-0.395,1.558-0.16,1.955,0.524c0.395,0.685,0.16,1.559-0.524,1.954
								l-14.987,8.653C1728.943,575.204,1728.698,575.266,1728.455,575.266z M1758.427,557.96c-0.495,0-0.975-0.256-1.241-0.715
								c-0.395-0.685-0.16-1.559,0.524-1.955l14.987-8.652c0.686-0.395,1.558-0.16,1.955,0.524c0.395,0.685,0.16,1.559-0.524,1.954
								l-14.987,8.652C1758.916,557.898,1758.67,557.96,1758.427,557.96z M1788.402,540.655c-0.495,0-0.975-0.256-1.241-0.716
								c-0.395-0.685-0.16-1.559,0.524-1.955l14.986-8.652c0.686-0.396,1.558-0.16,1.955,0.523c0.395,0.685,0.16,1.559-0.524,1.954
								l-14.986,8.652C1788.891,540.594,1788.645,540.655,1788.402,540.655z"/>
						</g>
						<g>
							<path class="st8" d="M1818.375,523.35c-0.495,0-0.975-0.256-1.241-0.715c-0.395-0.685-0.16-1.559,0.524-1.955l7.435-4.293
								c0.686-0.395,1.558-0.16,1.955,0.524c0.395,0.685,0.16,1.559-0.524,1.954l-7.435,4.293
								C1818.863,523.289,1818.617,523.35,1818.375,523.35z"/>
						</g>
					</g>
				</g>
			</g>
			<g>
				<g>
					<g>
						<g>
							<path class="st8" d="M1616.114,1058.398c-0.495,0-0.975-0.256-1.241-0.716c-0.395-0.685-0.16-1.559,0.524-1.955l7.435-4.293
								c0.687-0.395,1.558-0.16,1.955,0.524c0.395,0.685,0.16,1.559-0.524,1.955l-7.435,4.293
								C1616.603,1058.338,1616.357,1058.398,1616.114,1058.398z"/>
						</g>
						<g>
							<path class="st8" d="M1638.536,1045.453c-0.495,0-0.975-0.256-1.241-0.716c-0.395-0.685-0.16-1.559,0.524-1.955l14.987-8.652
								c0.687-0.395,1.558-0.16,1.955,0.524c0.395,0.685,0.16,1.559-0.524,1.955l-14.987,8.652
								C1639.024,1045.393,1638.778,1045.453,1638.536,1045.453z M1668.508,1028.149c-0.495,0-0.975-0.256-1.241-0.716
								c-0.395-0.685-0.16-1.559,0.524-1.955l14.987-8.652c0.687-0.396,1.558-0.161,1.955,0.524c0.395,0.685,0.16,1.559-0.524,1.955
								l-14.987,8.652C1668.997,1028.087,1668.751,1028.149,1668.508,1028.149z M1698.482,1010.843
								c-0.495,0-0.975-0.256-1.241-0.716c-0.395-0.685-0.16-1.559,0.524-1.955l14.987-8.652c0.687-0.395,1.558-0.16,1.955,0.524
								c0.395,0.685,0.16,1.559-0.524,1.955l-14.987,8.652C1698.97,1010.782,1698.724,1010.843,1698.482,1010.843z
								 M1728.455,993.539c-0.495,0-0.975-0.256-1.241-0.715c-0.395-0.685-0.16-1.559,0.524-1.955l14.987-8.653
								c0.686-0.396,1.558-0.16,1.955,0.524c0.395,0.685,0.16,1.559-0.524,1.955l-14.987,8.653
								C1728.943,993.477,1728.698,993.539,1728.455,993.539z M1758.427,976.233c-0.495,0-0.975-0.256-1.241-0.715
								c-0.395-0.685-0.16-1.559,0.524-1.955l14.987-8.652c0.686-0.396,1.558-0.16,1.955,0.524c0.395,0.685,0.16,1.559-0.524,1.955
								l-14.987,8.652C1758.916,976.172,1758.67,976.233,1758.427,976.233z M1788.402,958.928c-0.495,0-0.975-0.256-1.241-0.715
								c-0.395-0.685-0.16-1.559,0.524-1.955l14.986-8.652c0.686-0.395,1.558-0.161,1.955,0.524c0.395,0.685,0.16,1.559-0.524,1.955
								l-14.986,8.652C1788.891,958.867,1788.645,958.928,1788.402,958.928z"/>
						</g>
						<g>
							<path class="st8" d="M1818.375,941.624c-0.495,0-0.975-0.256-1.241-0.715c-0.395-0.685-0.16-1.559,0.524-1.955l7.435-4.293
								c0.686-0.395,1.558-0.16,1.955,0.524c0.395,0.685,0.16,1.559-0.524,1.955l-7.435,4.293
								C1818.863,941.562,1818.617,941.624,1818.375,941.624z"/>
						</g>
					</g>
				</g>
			</g>
			<path class="st2" d="M1708.735,518.897l-99.168-57.255c-2.934-1.694-5.313-5.814-5.313-9.202c0-3.387,2.379-4.761,5.313-3.067
				l99.168,57.255c2.934,1.693,5.313,5.813,5.313,9.202C1714.048,519.218,1711.669,520.592,1708.735,518.897z"/>
			<path class="st2" d="M1751.235,543.434l-13.128-7.58c-2.934-1.693-5.313-5.813-5.313-9.202c0-3.387,2.379-4.761,5.313-3.067
				l13.128,7.58c2.934,1.694,5.313,5.814,5.313,9.202C1756.548,543.755,1754.169,545.129,1751.235,543.434z"/>
		</g>
		<g id="Screen">
			<g>
				<path class="st9" d="M1211.875,965.515c14.31-8.254,37.714-8.254,52.02,0l293.027,169.178c14.31,8.276,14.31,21.777,0,30.04
					l-151.217,87.323c-14.308,8.242-37.714,8.242-52.023,0l-293.037-169.195c-14.313-8.255-14.313-21.76,0-30.033L1211.875,965.515z
					"/>
				
					<linearGradient id="SVGID_4_" gradientUnits="userSpaceOnUse" x1="2593.4824" y1="844.6577" x2="3111.1655" y2="844.6577" gradientTransform="matrix(-1 0 0 -1 4161.1201 2019.8898)">
					<stop  offset="0.2416" style="stop-color:#423EAC"/>
					<stop  offset="0.3041" style="stop-color:#4440AE"/>
					<stop  offset="0.3369" style="stop-color:#4945B6"/>
					<stop  offset="0.3628" style="stop-color:#524EC4"/>
					<stop  offset="0.3849" style="stop-color:#605BD7"/>
					<stop  offset="0.3989" style="stop-color:#6B66E7"/>
				</linearGradient>
				<path class="st10" d="M1060.643,1082.861l293.035,169.196c14.31,8.242,37.714,8.242,52.023,0l151.217-87.323
					c6.877-3.959,10.411-9.144,10.68-14.369c0.039,0,0.039,23.048,0.039,23.048c0.008,5.443-3.547,10.898-10.719,15.035
					l-151.217,87.322c-14.309,8.26-37.714,8.26-52.023,0l-293.035-169.186c-7.441-4.297-10.97-10.008-10.672-15.654V1068.5
					C1050.233,1073.72,1053.776,1078.9,1060.643,1082.861z"/>
			</g>
			
				<linearGradient id="SVGID_5_" gradientUnits="userSpaceOnUse" x1="1233.8531" y1="903.9244" x2="1560.7393" y2="903.9244" gradientTransform="matrix(1 0 0 -1 0 2019.8898)">
				<stop  offset="0" style="stop-color:#DAE0F5"/>
				<stop  offset="0.3194" style="stop-color:#E0E5F7"/>
				<stop  offset="0.7654" style="stop-color:#F3F5FC"/>
				<stop  offset="1" style="stop-color:#FFFFFF"/>
			</linearGradient>
			<path class="st11" d="M1371.7,1053.384l-2.554-0.026h-135.292c0.611,4.915,4.124,9.732,10.597,13.461l161.45,93.213l-1.153,2.499
				l-27.803,16.042h156.005l27.789-16.042L1371.7,1053.384z"/>
			<g>
				<path class="st7" d="M1208.809,1023.609c11.772-36.102,11.793-66.824,11.793-79.504l20.808-12.006
					c0,5.315-0.014,13.411-0.708,23.618l168.948,97.539c0,17.833-0.03,71.311-32.706,125.319l-189.05-109.138L1208.809,1023.609z"/>
				<polygon class="st12" points="1220.604,944.104 1409.653,1053.255 1430.457,1041.252 1241.412,932.098 				"/>
				<path class="st8" d="M1376.946,1178.574c32.676-54.007,32.706-107.485,32.706-125.319l20.804-12.003
					c0,17.745-0.017,66.328-25.708,121.281L1376.946,1178.574z"/>
				<path class="st13" d="M1399.229,1128.461l22.348-12.908c3.845-14.929,6.023-28.546,7.254-40.231l-21.025,12.154
					C1406.358,1099.457,1403.79,1113.421,1399.229,1128.461z"/>
			</g>
			<g>
				<path class="st14" d="M907.588,203.873c0.008-16.52,11.708-23.275,26.002-15.016l700.871,404.64
					c14.3,8.258,26.002,28.524,26.007,45.051l-0.005,469.773L907.596,673.661L907.588,203.873z"/>
				
					<linearGradient id="SVGID_6_" gradientUnits="userSpaceOnUse" x1="3104.0542" y1="2048.5488" x2="2459.2561" y2="931.7258" gradientTransform="matrix(-1 0 0 -1 4161.1201 2019.8898)">
					<stop  offset="0.6348" style="stop-color:#6B67E9"/>
					<stop  offset="0.6966" style="stop-color:#1F196F"/>
				</linearGradient>
				<path class="st15" d="M961.796,172.58l700.867,404.642c14.3,8.255,26.007,28.524,26.007,45.047v469.782l-28.206,16.271
					l0.005-469.773c-0.005-16.527-11.708-36.793-26.007-45.051L933.59,188.857c-5.836-3.367-11.208-4.204-15.575-2.928l22.56-12.839
					C945.297,168.121,953.055,167.534,961.796,172.58z"/>
				<path class="st16" d="M1660.465,1108.322l0.005,94.983c-0.005,16.518-11.708,23.269-26.007,15.014L933.59,813.677
					c-14.296-8.254-26.002-28.531-26.002-45.042l0.008-94.974L1660.465,1108.322z"/>
				<path class="st8" d="M1660.468,1203.303l-0.005-94.983l28.206-16.271v94.981c0,8.298-2.971,14.139-7.727,16.83l-27.039,15.501
					C1657.962,1216.401,1660.468,1210.902,1660.468,1203.303z"/>
				<polygon class="st2" points="933.594,688.673 1634.461,1093.315 1634.461,623.531 933.59,218.887 				"/>
			</g>
		</g>
		<g id="Mouse">
			<g>
				
					<linearGradient id="SVGID_7_" gradientUnits="userSpaceOnUse" x1="1197.4105" y1="598.7065" x2="1382.5698" y2="598.7065" gradientTransform="matrix(1 0 0 -1 0 2019.8898)">
					<stop  offset="0" style="stop-color:#C4CAE9"/>
					<stop  offset="1" style="stop-color:#FFFFFF"/>
				</linearGradient>
				<path class="st17" d="M1360.969,1372.39c0,0-4.793,17.728-14.77,23.496l-94.16,54.356l-4.759-3.25
					c0,0-22.263,11.577-49.87,22.985c52.987,0,60.85-3.647,70.883-8.639c58.734-26.177,84.63-40.291,113.261-64.698
					C1388.085,1390.704,1360.969,1372.39,1360.969,1372.39z"/>
				<path class="st6" d="M1346.121,1344.54c9.344,5.393,14.686,11.014,14.847,16.198c0.188,5.754-5.809,10.958-16.092,14.729
					c-42.272,16.531-66.72,31.481-112.061,65.391c-19.696,15.577-51.943,21.859-71.666,10.485
					c-9.191-5.301-13.775-7.953-22.966-13.261c-9.859-5.698-14.442-14.262-14.652-23.335c-0.216-9.086,3.952-18.694,13.872-26.618
					c43.191-35.009,72.21-50.969,112.854-66.365c19.522-7.069,53.173-1.872,72.905,9.525
					C1332.346,1336.581,1336.931,1339.238,1346.121,1344.54z"/>
				
					<linearGradient id="SVGID_8_" gradientUnits="userSpaceOnUse" x1="1123.4985" y1="604.5333" x2="1360.9705" y2="604.5333" gradientTransform="matrix(1 0 0 -1 0 2019.8898)">
					<stop  offset="0.264" style="stop-color:#6B67E9"/>
					<stop  offset="0.3409" style="stop-color:#605CD9"/>
					<stop  offset="0.4898" style="stop-color:#433FB0"/>
					<stop  offset="0.4944" style="stop-color:#423EAF"/>
				</linearGradient>
				<path class="st18" d="M1344.875,1375.466c-42.272,16.531-66.72,31.481-112.061,65.391
					c-19.696,15.577-51.943,21.859-71.666,10.485c-9.191-5.301-13.775-7.953-22.966-13.261
					c-9.859-5.698-14.442-14.262-14.652-23.335v11.765c-0.042,0.703-0.042,1.391,0,2.08v0.375h0.027
					c0.591,6.985,5.447,13.88,14.679,19.209l22.966,13.26c19.73,11.382,51.706,11.397,71.444,0l113.535-65.558
					c9.99-5.76,14.896-13.35,14.777-20.914h0.007v-14.227C1361.156,1366.489,1355.159,1371.694,1344.875,1375.466z"/>
				<path class="st8" d="M1272.319,1361.737c-4.501-2.573-4.64-6.359-0.18-7.882c4.466-1.51,11.903,0.07,16.398,2.616
					c4.056,2.276,4.327,5.127-0.138,6.658C1283.93,1364.667,1276.535,1364.159,1272.319,1361.737z"/>
			</g>
		</g>
		<g id="Flat_blocks">
			
				<linearGradient id="SVGID_9_" gradientUnits="userSpaceOnUse" x1="156.4367" y1="645.0659" x2="243.1279" y2="645.0659" gradientTransform="matrix(1 0 0 -1 0 2019.8898)">
				<stop  offset="0" style="stop-color:#CFD5F1"/>
				<stop  offset="0.2826" style="stop-color:#E1E5F6"/>
				<stop  offset="0.7193" style="stop-color:#F7F8FD"/>
				<stop  offset="1" style="stop-color:#FFFFFF"/>
			</linearGradient>
			<polygon class="st19" points="209.469,1355.387 156.437,1355.387 190.1,1374.827 156.437,1394.26 209.469,1394.26 
				243.128,1374.827 			"/>
			<g>
				
					<linearGradient id="SVGID_10_" gradientUnits="userSpaceOnUse" x1="265.7166" y1="703.3126" x2="428.9791" y2="703.3126" gradientTransform="matrix(1 0 0 -1 0 2019.8898)">
					<stop  offset="0" style="stop-color:#D1D7F3"/>
					<stop  offset="0.5002" style="stop-color:#E6E9F8"/>
					<stop  offset="1" style="stop-color:#FFFFFF"/>
				</linearGradient>
				<path class="st20" d="M414.75,1296.291l-83.677-48.244c-3.769-2.176-8.036-3.9-12.571-5.211l58.312,33.591
					c9.489,5.479,14.234,12.701,14.234,19.92l0,0l0,0v19.745l0,0c0,7.221-4.745,14.446-14.234,19.921L297.032,1382
					c-8.635,4.99-19.793,7.68-31.163,8.129l-0.152,0.089h30.612c13.851,0.671,28.105-2.025,38.645-8.105l79.777-45.987
					C433.725,1325.17,433.719,1307.24,414.75,1296.291z"/>
				
					<linearGradient id="SVGID_11_" gradientUnits="userSpaceOnUse" x1="130.1273" y1="725.9351" x2="395.4435" y2="725.9351" gradientTransform="matrix(1 0 0 -1 0 2019.8898)">
					<stop  offset="0" style="stop-color:#6B67E9"/>
					<stop  offset="0.0073" style="stop-color:#6A66E8"/>
					<stop  offset="0.4793" style="stop-color:#423DA7"/>
					<stop  offset="0.8229" style="stop-color:#2A237E"/>
					<stop  offset="1" style="stop-color:#20196F"/>
				</linearGradient>
				<path class="st21" d="M144.365,1274.182c-18.984,10.956-18.984,28.885,0,39.836l83.668,48.237c18.972,10.958,50.03,10.958,69,0
					l84.18-48.523c18.975-10.958,18.975-28.888,0-39.844l-83.67-48.235c-18.978-10.955-50.033-10.955-69.006,0L144.365,1274.182z"/>
				
					<linearGradient id="SVGID_12_" gradientUnits="userSpaceOnUse" x1="130.131" y1="677.8771" x2="395.4455" y2="677.8771" gradientTransform="matrix(1 0 0 -1 0 2019.8898)">
					<stop  offset="0.4232" style="stop-color:#CED3F8"/>
					<stop  offset="0.5916" style="stop-color:#BBC0E6"/>
				</linearGradient>
				<path class="st22" d="M395.445,1293.808c0,7.224-4.745,14.44-14.234,19.924l-84.18,48.523c-18.969,10.958-50.028,10.958-69,0
					l-83.668-48.237c-9.465-5.457-14.201-12.653-14.227-19.853h-0.006v19.653c0,0.019,0,0.04,0,0.058v0.032h0.006
					c0.026,7.197,4.762,14.397,14.227,19.858L228.032,1382c18.972,10.957,50.03,10.957,69,0l84.18-48.527
					c9.489-5.478,14.234-12.701,14.234-19.924l0,0V1293.808L395.445,1293.808z"/>
			</g>
			<g>
				
					<linearGradient id="SVGID_13_" gradientUnits="userSpaceOnUse" x1="130.1273" y1="764.698" x2="395.4435" y2="764.698" gradientTransform="matrix(1 0 0 -1 0 2019.8898)">
					<stop  offset="0" style="stop-color:#6B67E9"/>
					<stop  offset="0.0073" style="stop-color:#6A66E8"/>
					<stop  offset="0.4793" style="stop-color:#423DA7"/>
					<stop  offset="0.8229" style="stop-color:#2A237E"/>
					<stop  offset="1" style="stop-color:#20196F"/>
				</linearGradient>
				<path class="st23" d="M144.365,1235.418c-18.984,10.955-18.984,28.887,0,39.837l83.668,48.238c18.972,10.957,50.03,10.957,69,0
					l84.18-48.525c18.975-10.957,18.975-28.888,0-39.844l-83.67-48.235c-18.978-10.955-50.033-10.955-69.006,0L144.365,1235.418z"/>
				
					<linearGradient id="SVGID_14_" gradientUnits="userSpaceOnUse" x1="130.131" y1="716.6402" x2="395.4455" y2="716.6402" gradientTransform="matrix(1 0 0 -1 0 2019.8898)">
					<stop  offset="0.4232" style="stop-color:#CED3F8"/>
					<stop  offset="0.5916" style="stop-color:#BBC0E6"/>
				</linearGradient>
				<path class="st24" d="M395.445,1255.045c0,7.222-4.745,14.441-14.234,19.924l-84.18,48.525c-18.969,10.957-50.028,10.957-69,0
					l-83.668-48.238c-9.465-5.458-14.201-12.656-14.227-19.854h-0.006v19.654c0,0.021,0,0.04,0,0.059v0.03h0.006
					c0.026,7.197,4.762,14.399,14.227,19.858l83.668,48.235c18.972,10.957,50.03,10.957,69,0l84.18-48.527
					c9.489-5.477,14.234-12.701,14.234-19.925l0,0V1255.045L395.445,1255.045z"/>
			</g>
			<g>
				<path class="st9" d="M144.365,1196.655c-18.984,10.955-18.984,28.886,0,39.837l83.668,48.238c18.972,10.957,50.03,10.957,69,0
					l84.18-48.525c18.975-10.957,18.975-28.888,0-39.844l-83.67-48.235c-18.978-10.955-50.033-10.955-69.006,0L144.365,1196.655z"/>
				
					<linearGradient id="SVGID_15_" gradientUnits="userSpaceOnUse" x1="130.131" y1="755.4028" x2="395.4455" y2="755.4028" gradientTransform="matrix(1 0 0 -1 0 2019.8898)">
					<stop  offset="0.4232" style="stop-color:#CED3F8"/>
					<stop  offset="0.5916" style="stop-color:#BBC0E6"/>
				</linearGradient>
				<path class="st25" d="M395.445,1216.282c0,7.224-4.745,14.441-14.234,19.924l-84.18,48.525c-18.969,10.957-50.028,10.957-69,0
					l-83.668-48.238c-9.465-5.458-14.201-12.656-14.227-19.854h-0.006v19.654c0,0.021,0,0.041,0,0.059v0.032h0.006
					c0.026,7.197,4.762,14.397,14.227,19.858l83.668,48.233c18.972,10.958,50.03,10.958,69,0l84.18-48.527
					c9.489-5.477,14.234-12.701,14.234-19.925l0,0V1216.282L395.445,1216.282z"/>
			</g>
		</g>
		<g id="Blocks">
			
				<linearGradient id="SVGID_16_" gradientUnits="userSpaceOnUse" x1="1787.2218" y1="590.2582" x2="2077.1924" y2="590.2582" gradientTransform="matrix(1 0 0 -1 0 2019.8898)">
				<stop  offset="0" style="stop-color:#C2C8E6"/>
				<stop  offset="0.6331" style="stop-color:#ECEEF7;stop-opacity:0.5"/>
				<stop  offset="1" style="stop-color:#FFFFFF;stop-opacity:0"/>
			</linearGradient>
			<rect x="1787.222" y="1348.417" class="st26" width="289.971" height="162.429"/>
			<g>
				<polygon class="st9" points="1787.222,1343.289 1642.113,1259.511 1787.222,1175.733 1932.331,1259.512 				"/>
				<polygon class="st7" points="1787.222,1510.847 1642.113,1427.067 1642.113,1259.511 1787.222,1343.289 				"/>
				<polygon class="st8" points="1787.222,1510.847 1932.332,1427.067 1932.332,1259.511 1787.222,1343.289 				"/>
				<g>
					<polygon class="st4" points="1787.222,1203.797 1775.618,1197.096 1787.222,1190.397 1798.825,1197.096 					"/>
					<polygon class="st4" points="1814.248,1219.4 1802.644,1212.701 1814.248,1206.002 1825.851,1212.701 					"/>
					<polygon class="st4" points="1841.273,1235.003 1829.67,1228.304 1841.273,1221.605 1852.877,1228.304 					"/>
					<polygon class="st4" points="1868.3,1250.607 1856.697,1243.907 1868.3,1237.208 1879.904,1243.907 					"/>
					<polygon class="st4" points="1895.326,1266.211 1883.723,1259.512 1895.326,1252.811 1906.929,1259.512 					"/>
					<polygon class="st4" points="1760.196,1219.4 1748.592,1212.701 1760.196,1206 1771.8,1212.701 					"/>
					<polygon class="st4" points="1787.222,1235.003 1775.618,1228.304 1787.222,1221.605 1798.825,1228.304 					"/>
					<polygon class="st4" points="1814.248,1250.607 1802.644,1243.907 1814.248,1237.208 1825.851,1243.907 					"/>
					<polygon class="st4" points="1841.275,1266.211 1829.67,1259.511 1841.275,1252.811 1852.878,1259.512 					"/>
					<polygon class="st4" points="1868.3,1281.814 1856.697,1275.115 1868.3,1268.416 1879.904,1275.115 					"/>
					<polygon class="st4" points="1733.169,1235.003 1721.566,1228.304 1733.169,1221.605 1744.774,1228.304 					"/>
					<polygon class="st4" points="1760.196,1250.607 1748.593,1243.907 1760.196,1237.208 1771.8,1243.907 					"/>
					<polygon class="st4" points="1787.222,1266.211 1775.618,1259.511 1787.222,1252.811 1798.825,1259.511 					"/>
					<polygon class="st4" points="1814.248,1281.814 1802.644,1275.115 1814.248,1268.416 1825.851,1275.115 					"/>
					<polygon class="st4" points="1841.275,1297.417 1829.671,1290.718 1841.275,1284.019 1852.878,1290.718 					"/>
					<polygon class="st4" points="1706.143,1250.607 1694.54,1243.907 1706.143,1237.208 1717.747,1243.907 					"/>
					<polygon class="st4" points="1733.17,1266.21 1721.566,1259.511 1733.17,1252.811 1744.774,1259.511 					"/>
					<polygon class="st4" points="1760.196,1281.814 1748.593,1275.115 1760.196,1268.415 1771.8,1275.115 					"/>
					<polygon class="st4" points="1787.222,1297.417 1775.618,1290.718 1787.222,1284.019 1798.825,1290.718 					"/>
					<polygon class="st4" points="1814.249,1313.021 1802.644,1306.321 1814.249,1299.622 1825.852,1306.321 					"/>
					<polygon class="st4" points="1679.118,1266.21 1667.514,1259.511 1679.118,1252.811 1690.721,1259.511 					"/>
					<polygon class="st4" points="1706.143,1281.814 1694.54,1275.114 1706.143,1268.415 1717.748,1275.114 					"/>
					<polygon class="st4" points="1733.17,1297.417 1721.567,1290.718 1733.17,1284.019 1744.774,1290.718 					"/>
					<polygon class="st4" points="1760.196,1313.021 1748.593,1306.321 1760.196,1299.622 1771.8,1306.321 					"/>
					<polygon class="st4" points="1787.222,1328.624 1775.618,1321.925 1787.222,1315.225 1798.825,1321.925 					"/>
					<polygon class="st4" points="1666.418,1301.607 1654.814,1294.907 1654.814,1281.509 1666.418,1288.208 					"/>
					<polygon class="st4" points="1693.443,1317.21 1681.84,1310.511 1681.84,1297.112 1693.443,1303.812 					"/>
					<polygon class="st4" points="1720.469,1332.814 1708.866,1326.115 1708.866,1312.716 1720.469,1319.415 					"/>
					<polygon class="st4" points="1747.496,1348.417 1735.893,1341.718 1735.893,1328.319 1747.496,1335.019 					"/>
					<polygon class="st4" points="1774.522,1364.021 1762.918,1357.322 1762.918,1343.923 1774.522,1350.622 					"/>
					<polygon class="st4" points="1666.418,1332.814 1654.814,1326.115 1654.814,1312.716 1666.418,1319.415 					"/>
					<polygon class="st4" points="1693.443,1348.417 1681.84,1341.718 1681.84,1328.319 1693.443,1335.019 					"/>
					<polygon class="st4" points="1720.469,1364.02 1708.866,1357.321 1708.866,1343.923 1720.469,1350.622 					"/>
					<polygon class="st4" points="1747.496,1379.625 1735.893,1372.925 1735.893,1359.526 1747.496,1366.226 					"/>
					<polygon class="st4" points="1774.522,1395.228 1762.918,1388.529 1762.918,1375.13 1774.522,1381.829 					"/>
					<polygon class="st4" points="1666.418,1364.02 1654.814,1357.321 1654.814,1343.923 1666.418,1350.622 					"/>
					<polygon class="st4" points="1693.443,1379.623 1681.84,1372.925 1681.84,1359.526 1693.443,1366.225 					"/>
					<polygon class="st4" points="1720.469,1395.228 1708.866,1388.529 1708.866,1375.13 1720.469,1381.829 					"/>
					<polygon class="st4" points="1747.496,1410.831 1735.893,1404.132 1735.893,1390.734 1747.496,1397.433 					"/>
					<polygon class="st4" points="1774.522,1426.434 1762.918,1419.735 1762.918,1406.337 1774.522,1413.036 					"/>
					<polygon class="st4" points="1666.418,1395.228 1654.814,1388.529 1654.814,1375.129 1666.418,1381.829 					"/>
					<polygon class="st4" points="1693.443,1410.831 1681.84,1404.132 1681.84,1390.734 1693.443,1397.433 					"/>
					<polygon class="st4" points="1720.469,1426.434 1708.866,1419.735 1708.866,1406.337 1720.469,1413.036 					"/>
					<polygon class="st4" points="1747.496,1442.037 1735.893,1435.339 1735.893,1421.94 1747.496,1428.639 					"/>
					<polygon class="st4" points="1774.522,1457.642 1762.918,1450.943 1762.918,1437.544 1774.522,1444.242 					"/>
					<polygon class="st4" points="1666.418,1426.434 1654.814,1419.735 1654.814,1406.337 1666.418,1413.036 					"/>
					<polygon class="st4" points="1693.443,1442.037 1681.84,1435.338 1681.84,1421.94 1693.443,1428.639 					"/>
					<polygon class="st4" points="1720.469,1457.641 1708.866,1450.943 1708.866,1437.543 1720.469,1444.242 					"/>
					<polygon class="st4" points="1747.496,1473.245 1735.893,1466.546 1735.893,1453.148 1747.496,1459.847 					"/>
					<polygon class="st4" points="1774.522,1488.848 1762.918,1482.149 1762.918,1468.751 1774.522,1475.45 					"/>
					<polygon class="st4" points="1908.027,1301.607 1919.631,1294.907 1919.631,1281.509 1908.027,1288.208 					"/>
					<polygon class="st4" points="1881.002,1317.21 1892.605,1310.511 1892.605,1297.112 1881.002,1303.812 					"/>
					<polygon class="st4" points="1853.976,1332.814 1865.579,1326.115 1865.579,1312.716 1853.976,1319.415 					"/>
					<polygon class="st4" points="1826.949,1348.417 1838.552,1341.718 1838.552,1328.319 1826.949,1335.019 					"/>
					<polygon class="st4" points="1799.923,1364.021 1811.527,1357.322 1811.527,1343.923 1799.923,1350.622 					"/>
					<polygon class="st4" points="1908.027,1332.814 1919.631,1326.115 1919.631,1312.716 1908.027,1319.415 					"/>
					<polygon class="st4" points="1881.002,1348.417 1892.605,1341.718 1892.605,1328.319 1881.002,1335.019 					"/>
					<polygon class="st4" points="1853.976,1364.02 1865.579,1357.321 1865.579,1343.923 1853.976,1350.622 					"/>
					<polygon class="st4" points="1826.949,1379.625 1838.552,1372.925 1838.552,1359.526 1826.949,1366.226 					"/>
					<polygon class="st4" points="1799.923,1395.228 1811.527,1388.529 1811.527,1375.13 1799.923,1381.829 					"/>
					<polygon class="st4" points="1908.027,1364.02 1919.631,1357.321 1919.631,1343.923 1908.027,1350.622 					"/>
					<polygon class="st4" points="1881.002,1379.623 1892.605,1372.925 1892.605,1359.526 1881.002,1366.225 					"/>
					<polygon class="st4" points="1853.976,1395.228 1865.579,1388.529 1865.579,1375.13 1853.976,1381.829 					"/>
					<polygon class="st4" points="1826.949,1410.831 1838.552,1404.132 1838.552,1390.734 1826.949,1397.433 					"/>
					<polygon class="st4" points="1799.923,1426.434 1811.527,1419.735 1811.527,1406.337 1799.923,1413.036 					"/>
					<polygon class="st4" points="1908.027,1395.228 1919.631,1388.529 1919.631,1375.129 1908.027,1381.829 					"/>
					<polygon class="st4" points="1881.002,1410.831 1892.605,1404.132 1892.605,1390.734 1881.002,1397.433 					"/>
					<polygon class="st4" points="1853.976,1426.434 1865.579,1419.735 1865.579,1406.337 1853.976,1413.036 					"/>
					<polygon class="st4" points="1826.949,1442.037 1838.552,1435.339 1838.552,1421.94 1826.949,1428.639 					"/>
					<polygon class="st4" points="1799.923,1457.642 1811.527,1450.943 1811.527,1437.544 1799.923,1444.242 					"/>
					<polygon class="st4" points="1908.027,1426.434 1919.631,1419.735 1919.631,1406.337 1908.027,1413.036 					"/>
					<polygon class="st4" points="1881.002,1442.037 1892.605,1435.338 1892.605,1421.94 1881.002,1428.639 					"/>
					<polygon class="st4" points="1853.976,1457.641 1865.579,1450.943 1865.579,1437.543 1853.976,1444.242 					"/>
					<polygon class="st4" points="1826.949,1473.245 1838.552,1466.546 1838.552,1453.148 1826.949,1459.847 					"/>
					<polygon class="st4" points="1799.923,1488.848 1811.527,1482.149 1811.527,1468.751 1799.923,1475.45 					"/>
				</g>
			</g>
			<g>
				
					<linearGradient id="SVGID_17_" gradientUnits="userSpaceOnUse" x1="1946.8604" y1="574.0648" x2="2067.9622" y2="574.0648" gradientTransform="matrix(1 0 0 -1 0 2019.8898)">
					<stop  offset="0" style="stop-color:#CFD5F1"/>
					<stop  offset="0.2826" style="stop-color:#E1E5F6"/>
					<stop  offset="0.7193" style="stop-color:#F7F8FD"/>
					<stop  offset="1" style="stop-color:#FFFFFF"/>
				</linearGradient>
				<polygon class="st27" points="2020.944,1418.674 1946.86,1418.674 1993.885,1445.829 1946.86,1472.976 2020.944,1472.976 
					2067.962,1445.829 				"/>
				<polygon class="st28" points="1946.86,1472.976 1993.885,1445.829 1993.885,1390.701 1946.86,1417.839 				"/>
				<polygon class="st29" points="1946.86,1472.976 1899.835,1445.829 1899.835,1390.701 1946.86,1417.839 				"/>
				<polygon class="st30" points="1946.86,1417.839 1899.835,1390.701 1946.86,1363.559 1993.885,1390.701 				"/>
			</g>
			<g>
				<polygon class="st28" points="156.437,1394.26 190.1,1374.827 190.1,1335.363 156.437,1354.79 				"/>
				<polygon class="st29" points="156.437,1394.26 122.774,1374.827 122.774,1335.363 156.437,1354.79 				"/>
				<polygon class="st30" points="156.437,1354.79 122.774,1335.363 156.437,1315.933 190.1,1335.363 				"/>
			</g>
			<g>
				
					<linearGradient id="SVGID_18_" gradientUnits="userSpaceOnUse" x1="523.9152" y1="1007.4866" x2="610.6064" y2="1007.4866" gradientTransform="matrix(1 0 0 -1 0 2019.8898)">
					<stop  offset="0" style="stop-color:#CFD5F1"/>
					<stop  offset="0.2826" style="stop-color:#E1E5F6"/>
					<stop  offset="0.7193" style="stop-color:#F7F8FD"/>
					<stop  offset="1" style="stop-color:#FFFFFF"/>
				</linearGradient>
				<polygon class="st31" points="576.949,992.967 523.915,992.967 557.578,1012.406 523.915,1031.84 576.949,1031.84 
					610.606,1012.406 				"/>
				<polygon class="st28" points="523.915,1031.84 557.578,1012.406 557.578,972.943 523.915,992.37 				"/>
				<polygon class="st29" points="523.915,1031.84 490.252,1012.406 490.252,972.943 523.915,992.37 				"/>
				<polygon class="st30" points="523.915,992.37 490.252,972.943 523.915,953.513 557.578,972.943 				"/>
			</g>
			<g>
				
					<linearGradient id="SVGID_19_" gradientUnits="userSpaceOnUse" x1="1387.6497" y1="229.5636" x2="1473.9037" y2="229.5636" gradientTransform="matrix(1 0 0 -1 0 2019.8898)">
					<stop  offset="0" style="stop-color:#CFD5F1"/>
					<stop  offset="0.2826" style="stop-color:#E1E5F6"/>
					<stop  offset="0.7193" style="stop-color:#F7F8FD"/>
					<stop  offset="1" style="stop-color:#FFFFFF"/>
				</linearGradient>
				<polygon class="st32" points="1440.416,1770.988 1387.65,1770.988 1421.142,1790.33 1387.65,1809.665 1440.416,1809.665 
					1473.904,1790.33 				"/>
				<polygon class="st28" points="1387.65,1809.665 1421.142,1790.33 1421.142,1751.065 1387.65,1770.395 				"/>
				<polygon class="st29" points="1387.65,1809.665 1354.156,1790.33 1354.156,1751.065 1387.65,1770.395 				"/>
				<polygon class="st30" points="1387.65,1770.395 1354.156,1751.065 1387.65,1731.733 1421.142,1751.065 				"/>
			</g>
			<g>
				
					<linearGradient id="SVGID_20_" gradientUnits="userSpaceOnUse" x1="1814.2477" y1="771.9265" x2="1935.3507" y2="771.9265" gradientTransform="matrix(1 0 0 -1 0 2019.8898)">
					<stop  offset="0" style="stop-color:#CFD5F1"/>
					<stop  offset="0.2826" style="stop-color:#E1E5F6"/>
					<stop  offset="0.7193" style="stop-color:#F7F8FD"/>
					<stop  offset="1" style="stop-color:#FFFFFF"/>
				</linearGradient>
				<polygon class="st33" points="1888.333,1220.812 1814.248,1220.812 1861.274,1247.968 1814.248,1275.115 1888.333,1275.115 
					1935.351,1247.968 				"/>
				<polygon class="st34" points="1814.248,1275.115 1861.274,1247.968 1861.274,1192.839 1814.248,1219.977 				"/>
				<polygon class="st35" points="1814.248,1275.115 1767.223,1247.968 1767.223,1192.839 1814.248,1219.977 				"/>
				<polygon class="st30" points="1814.248,1219.977 1767.223,1192.839 1814.248,1165.697 1861.274,1192.839 				"/>
			</g>
			<g>
				<polygon class="st28" points="1814.248,1219.977 1861.274,1192.83 1861.274,1137.702 1814.248,1164.84 				"/>
				<polygon class="st29" points="1814.248,1219.977 1767.223,1192.83 1767.223,1137.702 1814.248,1164.84 				"/>
				<polygon class="st2" points="1814.248,1164.84 1767.223,1137.702 1814.248,1110.56 1861.274,1137.702 				"/>
			</g>
			<path class="st7" d="M313.273,1224.301c3.532-2.042,3.674-3.999,0.427-5.874l-18.548-10.705
				c-3.986-2.303-4.441-4.736-1.367-7.303c-4.386,1.809-8.571,1.564-12.558-0.74l-20.084-11.594c-1.48-0.854-2.919-1.208-4.315-1.06
				c-1.395,0.15-3.26,0.895-5.597,2.247l-7.949-4.588l2.905-1.677c7.748-4.475,15.382-4.538,22.903-0.198l18.454,10.657
				c1.881,1.084,3.549,1.653,5.001,1.701c1.453,0.05,2.923-0.354,4.403-1.208l2.05-1.186l7.946,4.588l-2.05,1.186
				c-1.481,0.854-2.165,1.707-2.051,2.564c0.111,0.854,1.138,1.842,3.074,2.959l17.774,10.262c7.521,4.343,7.408,8.749-0.34,13.221
				l-2.905,1.677l-7.947-4.586C312.729,1224.577,312.988,1224.462,313.273,1224.301z"/>
			<path class="st7" d="M208.078,1205.008l2.905-1.677l7.949,4.588c-2.336,1.347-3.632,2.423-3.888,3.228
				c-0.258,0.806,0.356,1.638,1.836,2.492l20.083,11.594c3.987,2.303,4.412,4.721,1.279,7.252c4.445-1.777,8.659-1.513,12.646,0.791
				l18.548,10.705c1.761,1.019,3.502,1.479,5.21,1.381c1.708-0.098,3.021-0.41,3.931-0.934l0.256-0.15l1.367-0.986l7.947,4.586
				l-2.905,1.677c-7.746,4.471-15.381,4.541-22.902,0.198l-17.774-10.262c-1.935-1.117-3.645-1.71-5.125-1.777
				c-1.481-0.065-2.96,0.33-4.442,1.186l-2.051,1.184l-7.946-4.588l2.051-1.184c1.481-0.856,2.176-1.701,2.09-2.542
				c-0.084-0.836-1.069-1.801-2.95-2.885l-18.454-10.658C200.218,1213.889,200.332,1209.481,208.078,1205.008z"/>
		</g>
		<g id="Shapes_on_screen">
			<g>
				<polygon class="st7" points="1346.764,527.756 1308.781,505.825 1308.781,496.787 1346.764,518.716 				"/>
				<polygon class="st7" points="1540.031,639.339 1367.027,539.454 1367.027,530.415 1540.031,630.3 				"/>
				<polygon class="st8" points="1373.782,567.968 1308.781,530.439 1308.781,521.401 1373.782,558.929 				"/>
				<polygon class="st8" points="1540.031,663.952 1394.044,579.665 1394.044,570.627 1540.031,654.913 				"/>
				<polygon class="st36" points="1333.966,569.594 1308.781,555.053 1308.781,546.013 1333.966,560.554 				"/>
				<polygon class="st37" points="1540.031,688.565 1354.228,581.292 1354.228,572.253 1540.031,679.527 				"/>
				<polygon class="st8" points="1391.874,627.64 1308.781,579.665 1308.781,570.627 1391.874,618.601 				"/>
				<polygon class="st36" points="1540.031,713.179 1412.136,639.339 1412.136,630.3 1540.031,704.14 				"/>
				<polygon class="st7" points="1346.764,626.209 1308.781,604.279 1308.781,595.241 1346.764,617.17 				"/>
				<polygon class="st7" points="1540.031,737.792 1367.027,637.908 1367.027,628.869 1540.031,728.753 				"/>
				<polygon class="st37" points="1336.002,644.609 1308.781,628.893 1308.781,619.854 1336.002,635.57 				"/>
				<polygon class="st37" points="1540.031,762.405 1356.265,656.308 1356.265,647.269 1540.031,753.367 				"/>
				<polygon class="st8" points="1346.764,675.436 1308.781,653.506 1308.781,644.467 1346.764,666.398 				"/>
				<polygon class="st8" points="1528.708,780.481 1355.704,680.596 1355.704,671.558 1528.708,771.443 				"/>
				<polygon class="st7" points="1346.764,700.049 1308.781,678.119 1308.781,669.081 1346.764,691.01 				"/>
				<polygon class="st7" points="1540.031,811.633 1367.027,711.748 1367.027,702.709 1540.031,802.593 				"/>
				<polygon class="st7" points="1359.052,731.757 1321.069,709.827 1321.069,700.789 1359.052,722.718 				"/>
				<polygon class="st7" points="1540.031,836.245 1367.027,736.362 1367.027,727.322 1540.031,827.207 				"/>
				<polygon class="st36" points="1333.357,741.536 1308.781,727.346 1308.781,718.307 1333.357,732.497 				"/>
				<polygon class="st37" points="1526.976,853.322 1340.564,745.696 1340.564,736.658 1526.976,844.283 				"/>
				<polygon class="st8" points="1346.764,773.889 1308.781,751.96 1308.781,742.921 1346.764,764.85 				"/>
				<polygon class="st8" points="1430.357,822.152 1367.027,785.588 1367.027,776.55 1430.357,813.113 				"/>
				<polygon class="st37" points="1346.764,798.503 1308.781,776.573 1308.781,767.535 1346.764,789.464 				"/>
				<polygon class="st37" points="1540.031,910.086 1367.027,810.202 1367.027,801.162 1540.031,901.047 				"/>
				<polygon class="st38" points="1336.002,816.671 1308.781,801.187 1308.781,792.148 1336.002,807.632 				"/>
				<polygon class="st38" points="1495.389,908.888 1356.265,828.369 1356.265,819.33 1495.389,899.85 				"/>
				<polygon class="st7" points="1346.764,847.729 1308.781,825.8 1308.781,816.761 1346.764,838.69 				"/>
				<polygon class="st7" points="1540.031,959.313 1367.027,859.428 1367.027,850.39 1540.031,950.275 				"/>
				<polygon class="st8" points="1346.764,872.343 1308.781,850.413 1308.781,841.375 1346.764,863.304 				"/>
				<polygon class="st8" points="1510.658,966.967 1367.027,884.042 1367.027,875.002 1510.658,957.929 				"/>
				<polygon class="st8" points="1373.782,912.511 1308.781,875.027 1308.781,865.989 1373.782,903.473 				"/>
				<polygon class="st8" points="1446.287,954.416 1394.044,924.211 1394.044,915.171 1446.287,945.377 				"/>
			</g>
			<g>
				
					<ellipse transform="matrix(0.866 -0.5 0.5 0.866 -133.4609 885.9294)" class="st39" cx="1586.394" cy="692" rx="29.263" ry="50.686"/>
				<path class="st2" d="M1591.562,674.852c-0.873-0.785-1.778-0.717-2.018,0.156l-9.378,33.708c-0.243,0.87,0.27,2.209,1.144,2.992
					c0.873,0.783,1.774,0.71,2.018-0.155l9.378-33.708C1592.945,676.972,1592.436,675.635,1591.562,674.852z M1578.627,675.429
					c-0.512-1.156-1.534-1.967-2.279-1.802l-15.714,3.411c-0.446,0.094-0.712,0.525-0.712,1.148c0,0.625,0.266,1.362,0.712,1.976
					l15.714,21.555c0.745,1.022,1.767,1.393,2.282,0.829c0.512-0.564,0.325-1.853-0.421-2.877l-13.751-18.862l13.751-2.984
					C1578.955,677.661,1579.141,676.587,1578.627,675.429z M1613.373,707.487l-15.713-21.555c-0.745-1.025-1.77-1.398-2.283-0.831
					c-0.514,0.564-0.325,1.853,0.42,2.876l13.751,18.861l-13.751,2.984c-0.745,0.163-0.935,1.234-0.42,2.391
					c0.512,1.159,1.534,1.967,2.283,1.806l15.713-3.411c0.447-0.096,0.712-0.524,0.712-1.149
					C1614.086,708.834,1613.82,708.098,1613.373,707.487z"/>
			</g>
		</g>
		<g id="Front_frame">
			<polygon class="st4" points="1264.815,854.142 952.801,674.006 952.801,255.733 1264.815,435.869 			"/>
			<g>
				
					<linearGradient id="SVGID_21_" gradientUnits="userSpaceOnUse" x1="3325.5962" y1="1097.8538" x2="3650.1155" y2="1659.9382" gradientTransform="matrix(-1 0 0 -1 4450.5537 2019.8898)">
					<stop  offset="0.4004" style="stop-color:#423EAF"/>
					<stop  offset="0.459" style="stop-color:#5854CA"/>
					<stop  offset="0.5514" style="stop-color:#807DFB"/>
				</linearGradient>
				<path class="st40" d="M743.105,393.11c4.367-3.091,10.673-3.016,17.684,1.028l264.664,152.802
					c13.089,7.561,23.803,26.119,23.803,41.24v366.224c0,7.404-2.579,12.649-6.739,15.203l0.009,0.016l-0.197,0.116
					c-0.045,0.027-0.093,0.053-0.135,0.081l-9.939,5.732l-0.011-0.019c4.16-2.551,6.743-7.796,6.743-15.197V594.107
					c0-15.114-10.721-33.676-23.81-41.236L750.512,400.073c-6.083-3.513-11.633-4.027-15.854-2.088L743.105,393.11z"/>
				<path class="st6" d="M750.512,400.073l264.664,152.797c13.089,7.56,23.81,26.121,23.81,41.236v366.227
					c0,15.122-10.721,21.303-23.81,13.745L750.512,821.277c-13.096-7.558-23.807-26.113-23.807-41.23V413.815
					C726.706,398.701,737.416,392.511,750.512,400.073z"/>
			</g>
			<g>
				<path class="st35" d="M944.512,250.946c0-5.287,3.711-7.428,8.289-4.786c4.578,2.643,8.289,9.071,8.289,14.358
					c0,5.287-3.711,7.428-8.289,4.785C948.224,262.661,944.512,256.233,944.512,250.946z"/>
				<path class="st35" d="M1256.525,431.084c0-5.287,3.711-7.428,8.289-4.785c4.578,2.643,8.289,9.071,8.289,14.358
					s-3.711,7.428-8.289,4.785S1256.525,436.371,1256.525,431.084z"/>
				<path class="st35" d="M1256.525,849.357c0-5.286,3.711-7.428,8.289-4.786c4.578,2.643,8.289,9.071,8.289,14.358
					c0,5.285-3.711,7.428-8.289,4.785C1260.237,861.072,1256.525,854.644,1256.525,849.357z"/>
				<g>
					<g>
						<g>
							<g>
								<path class="st8" d="M743.106,378.232c-0.495,0-0.975-0.256-1.24-0.715c-0.395-0.685-0.16-1.559,0.523-1.955l7.435-4.293
									c0.683-0.395,1.559-0.161,1.955,0.524c0.395,0.685,0.16,1.559-0.524,1.954l-7.435,4.293
									C743.596,378.171,743.35,378.232,743.106,378.232z"/>
							</g>
							<g>
								<path class="st8" d="M765.528,365.286c-0.495,0-0.975-0.256-1.24-0.715c-0.395-0.685-0.16-1.559,0.524-1.955l14.986-8.652
									c0.682-0.395,1.559-0.161,1.955,0.524c0.395,0.685,0.16,1.559-0.524,1.955l-14.986,8.652
									C766.017,365.225,765.771,365.286,765.528,365.286z M795.501,347.982c-0.495,0-0.975-0.256-1.24-0.715
									c-0.395-0.685-0.16-1.559,0.524-1.955l14.986-8.652c0.683-0.395,1.559-0.161,1.955,0.524
									c0.395,0.685,0.16,1.559-0.524,1.955l-14.986,8.652C795.991,347.92,795.745,347.982,795.501,347.982z M825.475,330.677
									c-0.495,0-0.975-0.256-1.24-0.715c-0.395-0.685-0.16-1.559,0.524-1.955l14.986-8.653c0.682-0.395,1.559-0.161,1.955,0.524
									c0.395,0.685,0.16,1.559-0.524,1.955l-14.986,8.653C825.964,330.616,825.718,330.677,825.475,330.677z M855.448,313.372
									c-0.495,0-0.975-0.256-1.24-0.715c-0.395-0.685-0.16-1.559,0.524-1.955l14.986-8.652c0.683-0.395,1.559-0.161,1.954,0.523
									c0.395,0.685,0.16,1.559-0.523,1.955l-14.986,8.652C855.937,313.31,855.692,313.372,855.448,313.372z M885.421,296.066
									c-0.495,0-0.975-0.256-1.24-0.715c-0.395-0.685-0.16-1.559,0.523-1.955l14.986-8.652c0.683-0.395,1.559-0.161,1.955,0.524
									c0.395,0.685,0.16,1.559-0.524,1.954l-14.986,8.652C885.91,296.005,885.664,296.066,885.421,296.066z M915.395,278.762
									c-0.495,0-0.975-0.256-1.24-0.715c-0.395-0.685-0.16-1.559,0.523-1.955l14.986-8.653c0.682-0.395,1.559-0.161,1.955,0.524
									c0.395,0.685,0.16,1.559-0.524,1.954l-14.986,8.653C915.884,278.7,915.638,278.762,915.395,278.762z"/>
							</g>
							<g>
								<path class="st8" d="M945.367,261.457c-0.495,0-0.975-0.256-1.24-0.715c-0.395-0.685-0.16-1.559,0.524-1.954l7.436-4.293
									c0.683-0.395,1.559-0.161,1.955,0.523c0.395,0.685,0.16,1.559-0.524,1.955l-7.436,4.293
									C945.856,261.395,945.61,261.457,945.367,261.457z"/>
							</g>
						</g>
					</g>
				</g>
				<g>
					<g>
						<g>
							<g>
								<path class="st8" d="M1055.119,558.369c-0.495,0-0.975-0.256-1.241-0.715c-0.395-0.685-0.16-1.559,0.524-1.954l7.435-4.293
									c0.683-0.395,1.559-0.161,1.955,0.523c0.395,0.685,0.16,1.559-0.524,1.955l-7.435,4.293
									C1055.608,558.308,1055.361,558.369,1055.119,558.369z"/>
							</g>
							<g>
								<path class="st8" d="M1077.54,545.424c-0.495,0-0.975-0.256-1.24-0.716c-0.395-0.685-0.16-1.559,0.524-1.955l14.987-8.652
									c0.686-0.396,1.558-0.16,1.955,0.523c0.395,0.685,0.16,1.559-0.524,1.954l-14.987,8.652
									C1078.029,545.362,1077.783,545.424,1077.54,545.424z M1107.514,528.118c-0.495,0-0.975-0.256-1.241-0.716
									c-0.395-0.685-0.16-1.559,0.524-1.955l14.987-8.652c0.686-0.396,1.558-0.161,1.955,0.523
									c0.395,0.685,0.16,1.559-0.524,1.954l-14.987,8.652C1108.002,528.057,1107.757,528.118,1107.514,528.118z M1137.486,510.814
									c-0.495,0-0.975-0.256-1.241-0.715c-0.395-0.685-0.16-1.559,0.524-1.955l14.987-8.653c0.686-0.395,1.558-0.16,1.955,0.523
									c0.395,0.685,0.16,1.559-0.524,1.954l-14.987,8.653C1137.975,510.752,1137.729,510.814,1137.486,510.814z M1167.46,493.509
									c-0.495,0-0.975-0.256-1.241-0.715c-0.395-0.685-0.16-1.559,0.524-1.955l14.987-8.652c0.686-0.395,1.558-0.16,1.955,0.524
									c0.395,0.685,0.16,1.559-0.524,1.954l-14.987,8.652C1167.949,493.448,1167.703,493.509,1167.46,493.509z M1197.433,476.204
									c-0.495,0-0.975-0.256-1.241-0.715c-0.395-0.685-0.16-1.559,0.524-1.954l14.986-8.652c0.687-0.396,1.558-0.16,1.955,0.524
									c0.395,0.685,0.16,1.559-0.524,1.954l-14.986,8.652C1197.922,476.142,1197.676,476.204,1197.433,476.204z M1227.407,458.899
									c-0.495,0-0.975-0.256-1.24-0.715c-0.396-0.685-0.161-1.559,0.523-1.954l14.986-8.653c0.687-0.395,1.558-0.161,1.954,0.524
									c0.396,0.685,0.161,1.559-0.523,1.955l-14.986,8.653C1227.896,458.838,1227.65,458.899,1227.407,458.899z"/>
							</g>
							<g>
								<path class="st8" d="M1257.38,441.594c-0.495,0-0.975-0.256-1.241-0.715c-0.395-0.685-0.16-1.559,0.524-1.954l7.435-4.293
									c0.687-0.395,1.558-0.16,1.955,0.523c0.395,0.685,0.16,1.559-0.524,1.955l-7.435,4.293
									C1257.869,441.533,1257.623,441.594,1257.38,441.594z"/>
							</g>
						</g>
					</g>
				</g>
				<g>
					<g>
						<g>
							<g>
								<path class="st8" d="M1055.119,976.642c-0.495,0-0.975-0.256-1.241-0.716c-0.395-0.685-0.16-1.559,0.524-1.955l7.435-4.293
									c0.683-0.396,1.559-0.16,1.955,0.524c0.395,0.685,0.16,1.559-0.524,1.955l-7.435,4.293
									C1055.608,976.581,1055.361,976.642,1055.119,976.642z"/>
							</g>
							<g>
								<path class="st8" d="M1077.54,963.697c-0.495,0-0.975-0.256-1.24-0.716c-0.395-0.685-0.16-1.559,0.524-1.955l14.987-8.652
									c0.686-0.396,1.558-0.16,1.955,0.524c0.395,0.685,0.16,1.559-0.524,1.955l-14.987,8.652
									C1078.029,963.636,1077.783,963.697,1077.54,963.697z M1107.514,946.393c-0.495,0-0.975-0.256-1.241-0.716
									c-0.395-0.685-0.16-1.559,0.524-1.955l14.987-8.652c0.686-0.396,1.558-0.161,1.955,0.523
									c0.395,0.685,0.16,1.559-0.524,1.955l-14.987,8.652C1108.002,946.331,1107.757,946.393,1107.514,946.393z M1137.486,929.087
									c-0.495,0-0.975-0.256-1.241-0.715c-0.395-0.685-0.16-1.559,0.524-1.955l14.987-8.652c0.686-0.395,1.558-0.16,1.955,0.524
									c0.395,0.685,0.16,1.559-0.524,1.955l-14.987,8.652C1137.975,929.025,1137.729,929.087,1137.486,929.087z M1167.46,911.783
									c-0.495,0-0.975-0.256-1.241-0.715c-0.395-0.685-0.16-1.559,0.524-1.955l14.987-8.653c0.686-0.396,1.558-0.16,1.955,0.524
									c0.395,0.685,0.16,1.559-0.524,1.955l-14.987,8.653C1167.949,911.721,1167.703,911.783,1167.46,911.783z M1197.432,894.477
									c-0.495,0-0.975-0.256-1.241-0.716c-0.395-0.685-0.16-1.559,0.524-1.955l14.987-8.652c0.687-0.396,1.558-0.16,1.955,0.524
									c0.395,0.685,0.16,1.559-0.524,1.955l-14.987,8.652C1197.921,894.415,1197.675,894.477,1197.432,894.477z M1227.407,877.172
									c-0.495,0-0.975-0.256-1.241-0.715c-0.395-0.685-0.16-1.559,0.524-1.955l14.986-8.652c0.687-0.395,1.558-0.161,1.955,0.524
									c0.395,0.685,0.16,1.559-0.524,1.955l-14.986,8.652C1227.896,877.111,1227.65,877.172,1227.407,877.172z"/>
							</g>
							<g>
								<path class="st8" d="M1257.38,859.867c-0.495,0-0.975-0.256-1.241-0.715c-0.395-0.685-0.16-1.559,0.524-1.955l7.435-4.293
									c0.687-0.396,1.558-0.16,1.955,0.524c0.395,0.685,0.16,1.559-0.524,1.955l-7.435,4.293
									C1257.869,859.806,1257.623,859.867,1257.38,859.867z"/>
							</g>
						</g>
					</g>
				</g>
			</g>
			<g>
				<polygon class="st36" points="1004.783,702.033 760.908,561.231 760.908,473.946 1004.783,614.747 				"/>
				<path class="st2" d="M872.367,581.94c0-6.682,4.691-9.391,10.478-6.05c5.787,3.342,10.478,11.467,10.478,18.149
					c0,6.682-4.691,9.391-10.478,6.049C877.059,596.747,872.367,588.622,872.367,581.94z"/>
				<path class="st2" d="M913.993,605.972c0-6.682,4.691-9.391,10.478-6.05c5.787,3.342,10.478,11.467,10.478,18.149
					c0,6.682-4.691,9.391-10.478,6.049C918.684,620.78,913.993,612.654,913.993,605.972z"/>
				<path class="st2" d="M851.699,570.007c0-6.682-4.691-14.808-10.478-18.149s-10.478-0.633-10.478,6.049
					c0,6.682,4.691,14.808,10.478,18.149C847.007,579.397,851.699,576.689,851.699,570.007z"/>
				<polygon class="st7" points="779.038,773.612 760.908,763.145 760.908,584.497 779.038,594.965 				"/>
				<polygon class="st8" points="879.976,692.879 879.976,677.887 1004.783,749.944 1004.783,764.936 				"/>
				<polygon class="st7" points="879.976,778.759 879.976,763.766 1004.783,835.825 1004.783,850.817 				"/>
				<polygon class="st8" points="798.922,785.092 798.922,770.1 1004.783,888.955 1004.783,903.947 				"/>
				
					<ellipse transform="matrix(0.866 -0.5 0.5 0.866 -217.6056 504.9752)" class="st39" cx="833.47" cy="658.535" rx="22.727" ry="39.364"/>
				<path class="st7" d="M805.656,728.354c0-17.751,12.462-24.946,27.835-16.07c15.373,8.875,27.835,30.461,27.835,48.212
					s-12.462,24.947-27.835,16.07C818.118,767.69,805.656,746.106,805.656,728.354z"/>
			</g>
		</g>
		<g id="Man_with_work_panel_1_">
			<g id="Work_station_2_">
				
					<image style="overflow:visible;enable-background:new    ;" width="263" height="153" xlink:href="60195E06D49D3238.png"  transform="matrix(1.1448 0 0 1.1448 447.4779 1439.7245)">
				</image>
				<g>
					<path class="st41" d="M673.182,1459.819c5.7-3.291,5.7-8.677,0-11.97l-156.378-90.283c-5.7-3.292-15.029-3.292-20.728,0
						l-71.341,41.188c-5.7,3.291-5.7,8.677,0,11.969l156.378,90.285c5.7,3.291,15.029,3.291,20.729,0L673.182,1459.819z"/>
					<g>
						<g>
							<path class="st42" d="M450.961,1405.578c-0.001,0.033-0.007,0.065-0.007,0.102
								C450.954,1405.678,450.954,1405.578,450.961,1405.578z"/>
						</g>
						<g>
							<g>
								<polygon class="st42" points="512.81,1383.031 506.121,1379.174 512.81,1375.31 519.499,1379.174 								"/>
								<polygon class="st42" points="524.072,1389.541 517.383,1385.676 524.072,1381.812 530.761,1385.676 								"/>
								<polygon class="st42" points="535.338,1396.041 528.649,1392.179 535.338,1388.318 542.027,1392.179 								"/>
								<polygon class="st42" points="546.601,1402.543 539.914,1398.685 546.601,1394.821 553.288,1398.685 								"/>
								<polygon class="st42" points="557.867,1409.049 551.178,1405.187 557.867,1401.327 564.552,1405.187 								"/>
								<polygon class="st42" points="569.13,1415.551 562.441,1411.691 569.13,1407.829 575.817,1411.691 								"/>
								<polygon class="st42" points="580.394,1422.057 573.706,1418.193 580.394,1414.333 587.081,1418.193 								"/>
								<polygon class="st42" points="591.658,1428.557 584.969,1424.697 591.658,1420.839 598.345,1424.697 								"/>
								<polygon class="st42" points="602.922,1435.062 596.235,1431.202 602.922,1427.339 609.608,1431.202 								"/>
								<polygon class="st42" points="614.187,1441.562 607.498,1437.705 614.187,1433.841 620.873,1437.705 								"/>
								<polygon class="st42" points="625.45,1448.068 618.762,1444.207 625.45,1440.347 632.137,1444.207 								"/>
								<polygon class="st42" points="636.714,1454.57 630.026,1450.71 636.714,1446.849 643.4,1450.71 								"/>
							</g>
							<polygon class="st42" points="506.882,1392.616 494.857,1385.676 501.544,1381.812 513.571,1388.759 							"/>
							<polygon class="st42" points="500.66,1401.494 484.062,1391.91 490.75,1388.046 507.349,1397.631 							"/>
							<polygon class="st42" points="493.974,1410.639 472.797,1398.413 479.485,1394.549 500.66,1406.779 							"/>
							<polygon class="st42" points="471.19,1413.224 459.167,1406.284 468.222,1401.055 480.247,1407.998 							"/>
							<polygon class="st42" points="487.79,1422.809 475.767,1415.866 484.82,1410.639 496.845,1417.583 							"/>
							<polygon class="st42" points="504.391,1432.394 492.366,1425.451 501.42,1420.222 513.445,1427.165 							"/>
							<polygon class="st42" points="561.627,1465.438 549.604,1458.495 558.659,1453.269 570.681,1460.211 							"/>
							<polygon class="st42" points="589.759,1481.679 566.173,1468.065 575.228,1462.836 598.813,1476.452 							"/>
							<polygon class="st42" points="545.053,1455.871 508.967,1435.036 518.023,1429.807 554.111,1450.644 							"/>
							<polygon class="st42" points="521.297,1400.944 511.458,1395.261 518.144,1391.397 527.985,1397.082 							"/>
							<polygon class="st42" points="515.078,1409.816 505.237,1404.136 511.926,1400.275 521.765,1405.958 							"/>
							<polygon class="st42" points="508.697,1418.786 498.857,1413.101 505.546,1409.24 515.385,1414.922 							"/>
							<polygon class="st42" points="523.115,1427.107 513.272,1421.425 519.961,1417.565 529.804,1423.246 							"/>
							<polygon class="st42" points="537.53,1435.429 527.691,1429.748 534.377,1425.888 544.217,1431.57 							"/>
							<polygon class="st42" points="551.945,1443.755 542.106,1438.073 548.793,1434.212 558.633,1439.895 							"/>
							<polygon class="st42" points="566.361,1452.076 556.522,1446.397 563.209,1442.537 573.05,1448.215 							"/>
							<polygon class="st42" points="580.777,1460.4 570.938,1454.718 577.627,1450.857 587.466,1456.538 							"/>
							<polygon class="st42" points="603.699,1473.633 585.354,1463.042 592.042,1459.181 610.385,1469.773 							"/>
							<polygon class="st42" points="529.494,1418.143 519.654,1412.46 526.341,1408.599 536.183,1414.278 							"/>
							<polygon class="st42" points="543.91,1426.463 534.069,1420.781 540.757,1416.92 550.596,1422.603 							"/>
							<polygon class="st42" points="558.326,1434.786 548.487,1429.105 555.173,1425.244 565.014,1430.923 							"/>
							<polygon class="st42" points="572.741,1443.108 562.901,1437.429 569.59,1433.568 579.43,1439.246 							"/>
							<polygon class="st42" points="587.159,1451.433 577.318,1445.752 584.007,1441.889 593.846,1447.571 							"/>
							<polygon class="st42" points="614.653,1467.307 591.734,1454.074 598.421,1450.212 621.341,1463.446 							"/>
							<polygon class="st42" points="535.714,1409.267 525.874,1403.582 532.562,1399.724 542.402,1405.404 							"/>
							<polygon class="st42" points="550.128,1417.589 540.289,1411.906 546.977,1408.046 556.816,1413.727 							"/>
							<polygon class="st42" points="564.545,1425.912 554.706,1420.231 561.395,1416.369 571.234,1422.049 							"/>
							<polygon class="st42" points="578.96,1434.236 569.121,1428.554 575.81,1424.693 585.649,1430.372 							"/>
							<polygon class="st42" points="593.379,1442.557 583.536,1436.878 590.225,1433.017 600.064,1438.696 							"/>
							<polygon class="st42" points="607.794,1450.881 597.953,1445.202 604.641,1441.338 614.481,1447.021 							"/>
							<polygon class="st42" points="625.45,1461.074 612.37,1453.523 619.057,1449.662 632.137,1457.213 							"/>
						</g>
					</g>
					
						<linearGradient id="SVGID_22_" gradientUnits="userSpaceOnUse" x1="420.4586" y1="563.5044" x2="677.4565" y2="563.5044" gradientTransform="matrix(1 0 0 -1 0 2019.8898)">
						<stop  offset="0.6155" style="stop-color:#BBC0E6"/>
						<stop  offset="0.6505" style="stop-color:#B4B9DD"/>
						<stop  offset="0.7356" style="stop-color:#A5ABCC"/>
					</linearGradient>
					<path class="st43" d="M424.734,1410.723l156.378,90.285c5.7,3.291,15.029,3.291,20.729,0l71.34-41.188
						c2.848-1.645,4.275-3.813,4.275-5.979v4.523l0,0c0.011,2.177-1.414,4.358-4.275,6.011l-71.34,41.188
						c-5.7,3.292-15.029,3.292-20.729,0l-156.378-90.283c-2.905-1.677-4.32-3.9-4.265-6.111l-0.01-0.003v-4.427
						C420.459,1406.907,421.885,1409.076,424.734,1410.723z"/>
				</g>
				<g>
					
						<linearGradient id="SVGID_23_" gradientUnits="userSpaceOnUse" x1="3538.8901" y1="669.8241" x2="3358.8677" y2="725.1774" gradientTransform="matrix(-1 0 0 -1 4044.8115 2019.8898)">
						<stop  offset="0" style="stop-color:#34318F"/>
						<stop  offset="1" style="stop-color:#6A6AE2"/>
					</linearGradient>
					<path class="st44" d="M683.546,1305.745c0-6.58-4.664-14.659-10.364-17.951l-156.378-90.286
						c-5.701-3.292-10.366-0.599-10.366,5.984v136.12c0,6.584,4.664,14.662,10.366,17.955l156.378,90.283
						c5.7,3.291,10.364,0.599,10.364-5.985V1305.745z"/>
					
						<linearGradient id="SVGID_24_" gradientUnits="userSpaceOnUse" x1="3337.9297" y1="586.5768" x2="3489.6914" y2="849.4359" gradientTransform="matrix(-1 0 0 -1 4044.8115 2019.8898)">
						<stop  offset="0.396" style="stop-color:#34318F"/>
						<stop  offset="0.4786" style="stop-color:#4141AA"/>
					</linearGradient>
					<path class="st45" d="M683.546,1441.865v-136.12c0-6.58-4.664-14.659-10.364-17.951l-156.378-90.286
						c-2.817-1.627-5.378-1.787-7.252-0.744l5.424-3.132l0.008,0.01c1.891-1.213,4.558-1.126,7.511,0.578l156.378,90.283
						c5.703,3.292,10.367,11.37,10.367,17.953v136.121c0,3.445-1.284,5.811-3.319,6.826l-5.17,2.983
						C682.48,1447.244,683.546,1445.005,683.546,1441.865z"/>
				</g>
				<g>
					<polygon class="st39" points="567.429,1261.002 536.153,1242.945 536.153,1236.277 567.429,1254.335 					"/>
					<polygon class="st8" points="551.229,1286.086 536.153,1277.382 536.153,1284.049 551.229,1292.754 					"/>
					<polygon class="st39" points="627.516,1404.934 612.439,1396.229 612.439,1389.562 627.516,1398.267 					"/>
					<polygon class="st36" points="653.832,1310.887 572.722,1264.058 572.722,1257.391 653.832,1304.22 					"/>
					<polygon class="st8" points="634.182,1313.058 553.073,1266.23 553.073,1259.562 634.182,1306.391 					"/>
					<polygon class="st39" points="621.801,1319.427 546.738,1276.089 546.738,1269.422 621.801,1312.76 					"/>
					<polygon class="st36" points="567.429,1316.179 536.153,1298.121 536.153,1291.454 567.429,1309.511 					"/>
					<polygon class="st39" points="653.832,1366.064 572.722,1319.234 572.722,1312.567 653.832,1359.395 					"/>
					<polygon class="st39" points="634.182,1368.235 553.073,1321.406 553.073,1314.739 634.182,1361.568 					"/>
					<polygon class="st36" points="634.182,1388.601 553.073,1341.772 553.073,1348.439 634.182,1395.267 					"/>
					<polygon class="st39" points="647.095,1389.206 567.429,1343.211 567.429,1336.543 647.095,1382.539 					"/>
				</g>
			</g>
			<g id="Man_1_">
				<g>
					<g>
						
							<linearGradient id="SVGID_25_" gradientUnits="userSpaceOnUse" x1="3084.6399" y1="431.2652" x2="3127.4114" y2="431.2652" gradientTransform="matrix(-1 0 0 -1 3613.7998 2019.8898)">
							<stop  offset="0" style="stop-color:#362E94"/>
							<stop  offset="1" style="stop-color:#362E94"/>
						</linearGradient>
						<path class="st46" d="M486.388,1596.808c0-16.758,10.617-17.235,10.617-17.235s5.75,0,15.094-3.882
							c9.213-3.828,22.203-2.351,14.942,11.04c-0.063,0.165-0.143,0.33-0.246,0.495c-0.446,0.713-1.203,1.401-2.351,2.07
							l-23.203,13.607C497.703,1604.922,486.467,1600.256,486.388,1596.808z"/>
						<path class="st47" d="M486.447,1595.304c0-0.004,0-0.009,0-0.009c0.205,3.454,11.284,8.031,14.794,6.026l23.203-13.61
							c0.765-0.441,2.086-1.327,3.267-2.381c-0.218,0.465-0.398,0.904-0.671,1.402c-0.063,0.165-0.143,0.33-0.246,0.495
							c-0.446,0.713-1.203,1.401-2.351,2.07l-23.203,13.607c-3.312,1.894-13.378-2.085-14.707-5.43
							c-0.057-0.252-0.098-0.491-0.103-0.678C486.388,1596.272,486.428,1595.808,486.447,1595.304z"/>
						<path class="st2" d="M490.706,1577.369c2.729,0,12.358,2.444,12.358,2.444s0.063,1.333,0.859,2.489
							c0.1,0.108,0.179,0.215,0.266,0.33c0-0.003,0.009-0.006,0.009-0.006c1.895,1.327,3.827,3.415-0.678,6.239
							c-3.692,2.318-6.693,0.847-8.113-0.572c-0.578-1.078-1.429-2.283-2.618-2.969c-1.22-0.704-1.976-1.021-2.507-1.063
							c0.001-0.074-0.031-0.231-0.031-0.231S489.554,1577.369,490.706,1577.369z"/>
						<path class="st47" d="M400.247,1552.7c4.305-15.573,6.221-32.05,10.432-50.336c10.064-2.001,90.399-41.017,101.244-20.021
							c0.379,0.734,0.544,1.569,0.524,2.483h0.003c3.849,19.55-9.028,95.99-9.028,95.99h-0.014c-0.2,0.752-0.788,1.48-1.793,2.057
							c-2.53,1.458-6.617,1.456-9.142,0c-1.146-0.662-2.095-1.512-2.2-2.378h-0.025c0,0-5.591-45.471-3.881-65.588
							C458.758,1536.324,416.912,1558.256,400.247,1552.7z"/>
					</g>
				</g>
				<g>
					
						<linearGradient id="SVGID_26_" gradientUnits="userSpaceOnUse" x1="3051.6887" y1="408.7513" x2="3094.4636" y2="408.7513" gradientTransform="matrix(-1 0 0 -1 3613.7998 2019.8898)">
						<stop  offset="0" style="stop-color:#423EAF"/>
						<stop  offset="0.375" style="stop-color:#3D37A3"/>
						<stop  offset="1" style="stop-color:#362E94"/>
					</linearGradient>
					<path class="st48" d="M519.336,1619.321c0-16.756,10.62-17.238,10.62-17.238s5.749,0,15.09-3.876
						c9.217-3.832,22.205-2.351,14.946,11.04c-0.064,0.161-0.149,0.326-0.251,0.495c-0.446,0.713-1.203,1.402-2.355,2.064
						l-23.2,13.61C530.652,1627.438,519.42,1622.768,519.336,1619.321z"/>
					<path class="st47" d="M519.399,1617.821c0-0.004,0-0.009,0-0.009c0.2,3.447,11.279,8.027,14.789,6.024l23.2-13.608
						c0.768-0.443,2.091-1.327,3.273-2.385c-0.214,0.461-0.4,0.904-0.667,1.405c-0.064,0.161-0.149,0.326-0.251,0.495
						c-0.446,0.713-1.203,1.402-2.355,2.064l-23.2,13.61c-3.31,1.893-13.377-2.081-14.703-5.431
						c-0.055-0.254-0.102-0.491-0.105-0.68C519.336,1618.784,519.375,1618.317,519.399,1617.821z"/>
					<path class="st2" d="M523.654,1599.879c2.731,0,12.36,2.448,12.36,2.448s0.066,1.33,0.857,2.492
						c0.097,0.104,0.181,0.215,0.268,0.326c0-0.006,0.005-0.006,0.008-0.006c1.895,1.327,3.825,3.414-0.68,6.241
						c-3.688,2.318-6.688,0.848-8.113-0.575c-0.577-1.078-1.428-2.286-2.615-2.972c-1.223-0.704-1.975-1.025-2.51-1.06
						c0.005-0.072-0.025-0.228-0.025-0.228S522.507,1599.879,523.654,1599.879z"/>
					
						<linearGradient id="SVGID_27_" gradientUnits="userSpaceOnUse" x1="3067.6812" y1="462.9813" x2="3233.1655" y2="462.9813" gradientTransform="matrix(-1 0 0 -1 3613.7998 2019.8898)">
						<stop  offset="0" style="stop-color:#5652CC"/>
						<stop  offset="0.0872" style="stop-color:#4E49BE"/>
						<stop  offset="0.2646" style="stop-color:#413AA7"/>
						<stop  offset="0.4316" style="stop-color:#393199"/>
						<stop  offset="0.5761" style="stop-color:#362E94"/>
					</linearGradient>
					<path class="st49" d="M545.4,1507.339c3.85,19.553-9.028,95.99-9.028,95.99h-0.011c-0.204,0.754-0.791,1.477-1.794,2.057
						c-2.525,1.458-6.616,1.455-9.14-0.004c-1.147-0.658-2.095-1.509-2.205-2.375h-0.018c0,0-5.593-45.471-3.883-65.587
						C528.61,1530.541,545.4,1519.141,545.4,1507.339z"/>
				</g>
				<g>
					
						<linearGradient id="SVGID_28_" gradientUnits="userSpaceOnUse" x1="993.9634" y1="369.6979" x2="1233.5916" y2="369.6979" gradientTransform="matrix(1 0 0 -1 -581.9153 2019.8898)">
						<stop  offset="0" style="stop-color:#D3D8F2"/>
						<stop  offset="0.5474" style="stop-color:#EEF0FA"/>
						<stop  offset="1" style="stop-color:#FFFFFF"/>
					</linearGradient>
					<polygon class="st50" points="533.028,1581.682 412.048,1581.682 530.706,1650.188 412.048,1718.701 533.028,1718.701 
						651.676,1650.188 					"/>
					<g>
						<polygon class="st7" points="412.048,1718.701 293.39,1650.188 293.39,1561.528 412.048,1630.038 						"/>
						<polygon class="st8" points="412.048,1718.701 530.695,1650.196 530.695,1561.536 412.048,1630.038 						"/>
						<polygon class="st6" points="412.048,1630.038 530.695,1561.536 412.048,1493.037 293.39,1561.528 						"/>
						
							<linearGradient id="SVGID_29_" gradientUnits="userSpaceOnUse" x1="443.6037" y1="466.739" x2="530.6945" y2="466.739" gradientTransform="matrix(1 0 0 -1 0 2019.8898)">
							<stop  offset="0" style="stop-color:#D3D8F2"/>
							<stop  offset="0.5474" style="stop-color:#EEF0FA"/>
							<stop  offset="1" style="stop-color:#FFFFFF"/>
						</linearGradient>
						<polygon class="st51" points="443.604,1575.796 505.994,1575.796 530.695,1561.536 476.945,1530.505 						"/>
					</g>
				</g>
				<g>
					<g>
						
							<linearGradient id="SVGID_30_" gradientUnits="userSpaceOnUse" x1="3556.0259" y1="580.5519" x2="3559.8623" y2="589.7591" gradientTransform="matrix(-1 0 0 -1 4044.8115 2019.8898)">
							<stop  offset="0" style="stop-color:#C4CAE9"/>
							<stop  offset="0.292" style="stop-color:#D1D6EE"/>
							<stop  offset="0.8298" style="stop-color:#F3F4FA"/>
							<stop  offset="1" style="stop-color:#FFFFFF"/>
						</linearGradient>
						<path class="st52" d="M470.591,1441.749c2.714-2.325,2.409-1.935,5.47-4.299c0.2-0.596,0.286-1.184,0.297-1.758
							c0.807-0.335,1.528-0.58,1.875-0.56c2.429,0.156,4.228-0.039,5.611-0.467c0,0.004,0,0.004,0,0.004
							c2.058-0.527,6.523-12.865,17.093-12.251c-2.941,2.357-6.871,7.237-6.048,6.724c-0.057,0.093,2.336-1.827,4.814,0.411
							c-1.686,1.396-7.557,5.368-12.531,6.641c0-0.002,0-0.002,0-0.002c-1.382,0.425-3.181,0.623-5.611,0.467
							c-0.347-0.024-1.066,0.222-1.874,0.558c-0.011,0.575-0.097,1.162-0.298,1.758c-2.437,1.896-4.547,3.658-5.649,4.597
							C473.251,1443.288,471.107,1442.051,470.591,1441.749z"/>
						
							<linearGradient id="SVGID_31_" gradientUnits="userSpaceOnUse" x1="3506.6538" y1="557.4852" x2="3513.1819" y2="573.1525" gradientTransform="matrix(-1 0 0 -1 4044.8115 2019.8898)">
							<stop  offset="0" style="stop-color:#C4CAE9"/>
							<stop  offset="1" style="stop-color:#FFFFFF"/>
						</linearGradient>
						<path class="st53" d="M525.415,1456.254c0.159-0.47,0.234-0.938,0.272-1.395c9.95,0.611,12.615-6.102,15.628-9.126
							c3.018-3.031,3.711-4.095,7.09-4.095c3.378,0,5.957-2.693,2.73-4.718c-0.791-0.497-1.678-0.967-2.507-1.377
							c0.211,0.074,0.419,0.159,0.618,0.252c0.751,0.359,3.281,1.434,5.218,2.648c3.226,2.027,0.647,4.718-2.731,4.718
							c-3.379,0-4.071,1.066-7.09,4.095c-3.012,3.026-5.678,9.737-15.628,9.127c-0.039,0.461-0.113,0.925-0.272,1.399
							c-6.011,4.636-7.328,6.392-12.542,10.306l-3.551-1.989C517.76,1462.221,519.518,1460.807,525.415,1456.254z"/>
						
							<linearGradient id="SVGID_32_" gradientUnits="userSpaceOnUse" x1="353.5252" y1="558.0153" x2="355.376" y2="562.4574" gradientTransform="matrix(1 0 0 -1 85.7625 2019.8898)">
							<stop  offset="0" style="stop-color:#E19100"/>
							<stop  offset="0.5836" style="stop-color:#F3AC04"/>
							<stop  offset="1" style="stop-color:#FCBA06"/>
						</linearGradient>
						<path class="st54" d="M445.451,1458.063c-2.949,0.682-6.135,0.934-9.678,0.626c-0.822-0.074-1.63-0.237-2.42-0.476
							c1.779,1.093,3.721,1.821,5.748,1.998c3.084,0.269,5.884,0.093,8.507-0.402
							C446.894,1459.238,446.178,1458.665,445.451,1458.063z"/>
					</g>
					
						<linearGradient id="SVGID_33_" gradientUnits="userSpaceOnUse" x1="3067.6816" y1="482.5101" x2="3233.1692" y2="482.5101" gradientTransform="matrix(-1 0 0 -1 3613.7998 2019.8898)">
						<stop  offset="0" style="stop-color:#5652CC"/>
						<stop  offset="0.0872" style="stop-color:#4E49BE"/>
						<stop  offset="0.2646" style="stop-color:#413AA7"/>
						<stop  offset="0.4316" style="stop-color:#393199"/>
						<stop  offset="0.5761" style="stop-color:#362E94"/>
					</linearGradient>
					<path class="st55" d="M443.63,1524.88c10.066-2.001,90.398-41.015,101.242-20.021c0.379,0.73,0.544,1.567,0.524,2.48h0.003
						c0,11.801-16.79,23.201-26.08,30.081c-27.612,21.419-69.461,43.351-86.126,37.791c-26.989-9.004-40.568-16.115-49.154-34.467
						c-2.824-6.026-3.41-22.905-3.41-30.124C410.48,1495.834,433.81,1509.16,443.63,1524.88z"/>
					<path class="st56" d="M500.465,1418.66c-1.935-1.216-4.466-2.292-5.218-2.65c-3.377-1.606-8.763-0.321-10.257,0.719
						c-1.495,1.039-10.777,6.739-12.543,10.417c0,0-3.482,1.8-4.839,2.498l5.099,7.797c0,0,4.473-2.375,5.525-2.309
						c2.429,0.156,4.228-0.039,5.611-0.467c0,0.004,0,0.004,0,0.004c4.974-1.273,10.844-5.245,12.531-6.637
						c-2.477-2.24-5.222,0.243-7.083,1.234c0.389-0.638,0.813-1.252,1.352-1.79c3.019-3.031,3.711-4.095,7.088-4.095
						C501.11,1423.379,503.69,1420.685,500.465,1418.66z"/>
					<path class="st57" d="M476.06,1437.45c1.79-5.335-4.548-10.031-8.294-9.678c-17.512,7.634-26.007,12.176-31.993,10.406
						c-25.183-11.768-14.92,19.202,0,20.512C453.236,1460.22,462.096,1448.22,476.06,1437.45z"/>
					<g>
						<path class="st57" d="M403.156,1398.083c-12.666,2.771-28.539,10.867-17.979,32.945
							C392.385,1446.097,403.156,1398.083,403.156,1398.083z"/>
						
							<linearGradient id="SVGID_34_" gradientUnits="userSpaceOnUse" x1="3145.2024" y1="544.2202" x2="3233.1699" y2="544.2202" gradientTransform="matrix(-1 0 0 -1 3613.7998 2019.8898)">
							<stop  offset="0" style="stop-color:#DD3B10"/>
							<stop  offset="0.1255" style="stop-color:#E3470F"/>
							<stop  offset="0.4665" style="stop-color:#F1620D"/>
							<stop  offset="0.769" style="stop-color:#F9720B"/>
							<stop  offset="1" style="stop-color:#FC780B"/>
						</linearGradient>
						<path class="st58" d="M405.461,1545.55c24.805,13.919,58.493,8.837,63.136-10.726c-16.888-56.667-20.692-94.34-20.289-117.383
							c-10.943-8.449-20.266-15.962-28.282-17.756c-8.373-1.875-19.45-3.324-24.333,1.357
							c-15.227,20.54-11.255,56.054-15.064,109.58C383.251,1527.756,393.246,1538.7,405.461,1545.55z"/>
						<path class="st56" d="M408.46,1399.089c4.224-3.984,5.506-10.421,6.209-17.712c-0.436-4.019-0.184-8.305,0.916-12.649
							c3.951-15.626,17.066-25.784,29.3-22.689c12.23,3.094,18.947,18.265,14.998,33.885c-3.66,14.476-16.368,22.473-27.762,23.66
							c-0.569,1.234,1.574,3.011,3.566,4.295c-9.346,2.481-18.011-2.418-22.61-4.921
							C410.697,1401.665,409.012,1400.419,408.46,1399.089z"/>
					</g>
					<path class="st56" d="M517.615,1447.392c1.357-0.697,3.573-1.855,3.573-1.855c0.037-0.788,2.802-9.558,10.275-11.757
						c1.536,2.331-1.107,4.221-3.265,6.402c2.594-2.075,5.971-4.154,7.464-5.192c1.495-1.039,6.88-2.327,10.258-0.719
						c0.751,0.356,3.282,1.432,5.216,2.648c3.227,2.025,0.648,4.718-2.73,4.718s-4.072,1.063-7.09,4.095
						c-3.018,3.028-5.685,9.761-15.68,9.124c-1.051-0.066-2.255,0.845-2.255,0.845L517.615,1447.392z"/>
					
						<linearGradient id="SVGID_35_" gradientUnits="userSpaceOnUse" x1="3614.6926" y1="582.3787" x2="3517.9941" y2="556.276" gradientTransform="matrix(-1 0 0 -1 4044.8115 2019.8898)">
						<stop  offset="0" style="stop-color:#FC780B"/>
						<stop  offset="0.1323" style="stop-color:#F76E0C"/>
						<stop  offset="0.6998" style="stop-color:#E4490F"/>
						<stop  offset="1" style="stop-color:#DD3B10"/>
					</linearGradient>
					<path class="st59" d="M525.415,1456.254c1.79-5.335-4.549-10.031-8.294-9.674c-17.513,7.632-26.007,12.172-31.993,10.405
						c-25.183-11.772-30.571-33.763-36.819-39.544c-14.052-10.002-30.968,12.128-12.54,32.065
						c19.445,18.211,34.438,26.679,49.359,27.987C502.589,1479.025,511.451,1467.028,525.415,1456.254z"/>
					<path class="st47" d="M412.421,1365.704c0.003-0.015-0.016-0.006-0.01-0.028c2.624-7.805,6.448-14.546,12.963-18.87
						c17.101-11.355,24.123-10.232,25.756-7.629c18.366-2.238,22.455,7.503,9.887,21.411c-3.58,4.769-1.967,17.951-8.329,19.877
						c0.74-2.992-3.858-11.501-7.214,1.777c-0.359,1.425,0.634,1.974-0.783,3.627c-1.42,1.651-8.649,4.895-13.635,7.86
						c-6.957,4.154-8.959-1.656-18.385-2.974c0.994-3.932,0.479-6.17-0.298-8.98
						C411.886,1379.994,411.012,1373.087,412.421,1365.704z"/>
				</g>
			</g>
		</g>
		<g id="Gear">
			
				<linearGradient id="SVGID_36_" gradientUnits="userSpaceOnUse" x1="676.7833" y1="856.5875" x2="938.5364" y2="856.5875" gradientTransform="matrix(1 0 0 -1 0 2019.8898)">
				<stop  offset="0" style="stop-color:#D1D6F0"/>
				<stop  offset="0.2899" style="stop-color:#D5DAF1"/>
				<stop  offset="0.5923" style="stop-color:#E2E5F5"/>
				<stop  offset="0.8994" style="stop-color:#F6F7FC"/>
				<stop  offset="1" style="stop-color:#FFFFFF"/>
			</linearGradient>
			<path class="st60" d="M912.697,1190.498c1.001-1.049,2.235-1.801,3.564-2.342h15.717l6.56-14.374l-5.915-0.913
				c-1.797-0.278-3.858-0.865-5.535-1.836c-1.908-1.099-3.313-2.689-3.289-4.868c0.143-1.911,0.132-3.822-0.011-5.72
				c-0.128-4.104,4.882-6.111,8.705-6.707l5.93-0.919l-6.734-14.359h-15.689c-0.515-0.207-1.019-0.443-1.497-0.719
				c-0.77-0.446-1.482-0.98-2.112-1.623c-1.503-1.692-3.166-3.346-4.964-4.966c-3.654-3.528-1.042-6.724,1.753-8.344l4.313-2.51
				l-18.209-10.519l-4.323,2.516c-2.783,1.618-8.3,3.148-14.401,1.039c-2.798-1.039-5.668-1.995-8.581-2.864
				c-1.121-0.362-2.048-0.773-2.818-1.216c-3.493-2.019-3.672-4.714-2.857-6.533l1.569-3.415l-24.822-3.854l-1.569,3.426
				c-1.004,2.216-4.451,5.133-11.531,5.083c-3.298-0.089-6.596-0.089-9.878-0.011c-3.769,0.039-6.521-0.776-8.435-1.881
				c-1.666-0.962-2.689-2.151-3.184-3.184l-1.594-3.433l-24.783,3.854l1.615,3.415c1.03,2.223,0.575,5.745-5.583,7.749
				c-2.911,0.869-5.766,1.825-8.555,2.866c-6.074,2.094-11.603,0.584-14.405-1.043l-4.358-2.516l-18.094,10.519l4.349,2.51
				c2.803,1.621,5.454,4.816,1.854,8.344c-1.792,1.621-3.433,3.277-4.921,4.973c-3.433,3.571-9.507,3.843-13.338,3.256l-5.94-0.919
				l-6.569,14.359l5.928,0.926c1.788,0.276,3.852,0.856,5.529,1.827c1.899,1.099,3.313,2.689,3.291,4.873
				c-0.149,1.899-0.141,3.81,0.007,5.712c0.045,1.509-0.599,2.728-1.627,3.708h-40.476v18.292h34.197l0,0l0,0h15.702
				c0.509,0.204,1.006,0.432,1.477,0.706c0.769,0.446,1.489,0.982,2.112,1.627c1.513,1.692,3.184,3.343,4.988,4.964
				c0.695,0.674,1.156,1.33,1.441,1.968h-23.507v19.404h35.551v-0.794l2.965-1.716c2.785-1.627,8.301-3.148,14.41-1.045
				c1.09,0.408,2.199,0.788,3.31,1.171v16.714h33.985v-0.036l0.207,0.036l1.575-3.43c0.102-0.243,0.252-0.495,0.419-0.745v4.175
				h34.2l24.777-3.843l-1.605-3.426c-0.926-1.983-0.644-5.008,3.837-7.06h29.058l18.098-10.519l-4.34-2.501
				c-2.815-1.623-5.464-4.825-1.86-8.351C909.57,1193.835,911.208,1192.181,912.697,1190.498z M854.393,1182.39
				c-18.214,10.591-47.886,10.597-66.235,0.006c-18.346-10.597-18.433-27.779-0.215-38.369c18.239-10.597,47.895-10.586,66.243,0
				C872.534,1154.623,872.626,1171.792,854.393,1182.39z"/>
			<g>
				
					<linearGradient id="SVGID_37_" gradientUnits="userSpaceOnUse" x1="740.5017" y1="893.2647" x2="833.5035" y2="893.2647" gradientTransform="matrix(1 0 0 -1 0 2019.8898)">
					<stop  offset="0" style="stop-color:#BBBFE2"/>
					<stop  offset="1" style="stop-color:#CED2F4"/>
				</linearGradient>
				<path class="st61" d="M819.78,1113.303c-18.214-10.525-47.669-10.532-65.774,0c-16.106,9.352-17.794,23.903-5.125,34.404
					c1.51-1.245,3.211-2.435,5.125-3.547c18.103-10.523,47.56-10.519,65.774,0c2.007,1.153,3.774,2.39,5.337,3.684
					C837.863,1137.335,836.077,1122.708,819.78,1113.303z"/>
				<path class="st62" d="M828.2,1071.761c-0.245,0.548-0.408,1.171-0.41,1.84l-0.087,30.959c0-0.662,0.156-1.291,0.408-1.842
					l1.569-3.415l0.087-30.968L828.2,1071.761z"/>
				<path class="st62" d="M745.577,1071.761l-1.605-3.426l-0.089,30.968l1.608,3.415c0.267,0.572,0.432,1.228,0.432,1.926
					l0.087-30.965C746.012,1072.986,745.842,1072.328,745.577,1071.761z"/>
				<path class="st62" d="M875.065,1091.842c-1.801,1.049-3.534,2.759-3.547,4.796l-0.084,30.963
					c0.006-2.027,1.734-3.747,3.547-4.795l4.319-2.51l0.087-30.963L875.065,1091.842z"/>
				<path class="st63" d="M698.932,1091.842l-4.343-2.51l-0.093,30.963l4.352,2.51c1.834,1.058,3.604,2.789,3.6,4.853l0.084-30.959
					C702.538,1094.639,700.771,1092.899,698.932,1091.842z"/>
				<path class="st62" d="M898.377,1122.775c-3.759,0.587-8.696,2.552-8.699,6.539l-0.096,30.965
					c0.015-3.992,4.945-5.952,8.716-6.541l5.928-0.919l0.087-30.963L898.377,1122.775z"/>
				<path class="st64" d="M889.794,1132.575l-0.09,30.965c0,0.872-0.035,1.753-0.104,2.624l0.093-30.959
					C889.755,1134.33,889.789,1133.455,889.794,1132.575z"/>
				<path class="st63" d="M684.756,1134.6l0.015-5.119c0.018-2.187-1.386-3.774-3.289-4.87c-1.683-0.967-3.747-1.558-5.531-1.836
					l-5.924-0.913l-0.089,30.956l5.928,0.926c1.788,0.276,3.846,0.856,5.529,1.827c1.615,0.932,2.861,2.22,3.196,3.917l-0.011,3.619
					c0,1.016,0.039,2.037,0.117,3.05l0.09-30.963C684.761,1134.995,684.77,1134.795,684.756,1134.6z"/>
				<path class="st64" d="M684.782,1135.354l-0.09,30.959c0-0.048,0-0.102,0-0.158l0.09-30.963
					C684.782,1135.243,684.782,1135.297,684.782,1135.354z"/>
				<polygon class="st62" points="904.433,1142.822 904.343,1173.781 897.778,1188.156 897.864,1157.188 				"/>
				<polygon class="st63" points="676.871,1157.188 676.782,1188.156 670.058,1173.79 670.151,1142.822 				"/>
				
					<linearGradient id="SVGID_38_" gradientUnits="userSpaceOnUse" x1="871.8351" y1="842.4082" x2="897.8638" y2="842.4082" gradientTransform="matrix(1 0 0 -1 0 2019.8898)">
					<stop  offset="0" style="stop-color:#A5ACD4"/>
					<stop  offset="0.6348" style="stop-color:#BEC3E7"/>
					<stop  offset="1" style="stop-color:#CED2F4"/>
				</linearGradient>
				<path class="st65" d="M891.927,1156.267c-3.822-0.591-9.902-0.315-13.338,3.268c-1.495,1.69-3.124,3.336-4.918,4.951
					c-1.249,1.223-1.749,2.403-1.749,3.487l-0.087,30.965c0-1.084,0.504-2.268,1.749-3.487c1.792-1.618,3.43-3.271,4.918-4.955
					c3.432-3.582,9.515-3.858,13.338-3.265l5.937,0.923l0.087-30.968L891.927,1156.267z"/>
				
					<linearGradient id="SVGID_39_" gradientUnits="userSpaceOnUse" x1="676.7822" y1="842.3779" x2="702.9379" y2="842.3779" gradientTransform="matrix(1 0 0 -1 0 2019.8898)">
					<stop  offset="0" style="stop-color:#BBBFE2"/>
					<stop  offset="1" style="stop-color:#CED2F4"/>
				</linearGradient>
				<path class="st66" d="M701.149,1164.486c-1.805-1.614-3.477-3.267-4.984-4.96c-0.623-0.647-1.339-1.18-2.112-1.62
					c-3.498-2.027-8.147-2.124-11.277-1.638l-5.904,0.919l-0.089,30.968l5.913-0.923c3.124-0.488,7.775-0.386,11.266,1.629
					c0.773,0.446,1.486,0.982,2.118,1.627c1.507,1.692,3.181,3.343,4.979,4.964c1.288,1.247,1.797,2.444,1.794,3.547l0.087-30.963
					C702.937,1166.936,702.427,1165.735,701.149,1164.486z"/>
				<polygon class="st62" points="879.868,1175.347 879.782,1206.304 861.693,1216.823 861.777,1185.861 				"/>
				<polygon class="st63" points="713.282,1185.861 713.193,1216.823 694.982,1206.304 695.071,1175.347 				"/>
				
					<linearGradient id="SVGID_40_" gradientUnits="userSpaceOnUse" x1="828.3614" y1="818.2623" x2="861.7761" y2="818.2623" gradientTransform="matrix(1 0 0 -1 0 2019.8898)">
					<stop  offset="0" style="stop-color:#A5ACD4"/>
					<stop  offset="0.5164" style="stop-color:#BCC2E6"/>
					<stop  offset="1" style="stop-color:#CED2F4"/>
				</linearGradient>
				<path class="st67" d="M857.419,1183.345c-2.813-1.615-8.331-3.133-14.405-1.025c-2.783,1.025-5.637,1.986-8.555,2.861
					c-4.583,1.488-6.009,3.816-6.011,5.826l-0.087,30.959c0.003-2.003,1.438-4.334,6.011-5.826c2.918-0.871,5.775-1.83,8.557-2.866
					c6.066-2.103,11.592-0.587,14.401,1.036l4.362,2.513l0.084-30.963L857.419,1183.345z"/>
				
					<linearGradient id="SVGID_41_" gradientUnits="userSpaceOnUse" x1="713.1928" y1="818.2279" x2="746.6751" y2="818.2279" gradientTransform="matrix(1 0 0 -1 0 2019.8898)">
					<stop  offset="0" style="stop-color:#BBBFE2"/>
					<stop  offset="1" style="stop-color:#CED2F4"/>
				</linearGradient>
				<path class="st68" d="M743.412,1186.394c-0.773-0.443-1.716-0.854-2.828-1.216c-2.924-0.871-5.778-1.833-8.576-2.869
					c-6.107-2.109-11.622-0.578-14.41,1.036l-4.316,2.516l-0.09,30.962l4.323-2.51c2.785-1.627,8.297-3.148,14.405-1.045
					c2.798,1.043,5.655,2.001,8.579,2.867c1.117,0.365,2.049,0.773,2.822,1.222c2.444,1.414,3.271,3.148,3.261,4.688l0.093-30.963
					C746.677,1189.544,745.851,1187.808,743.412,1186.394z"/>
				<polygon class="st62" points="830.488,1196.348 830.396,1227.309 805.615,1231.152 805.709,1200.191 				"/>
				
					<linearGradient id="SVGID_42_" gradientUnits="userSpaceOnUse" x1="769.4297" y1="808.4748" x2="805.7087" y2="808.4748" gradientTransform="matrix(1 0 0 -1 0 2019.8898)">
					<stop  offset="0" style="stop-color:#BBBFE2"/>
					<stop  offset="1" style="stop-color:#CED2F4"/>
				</linearGradient>
				<path class="st69" d="M804.103,1196.763c-0.485-1.039-1.51-2.231-3.181-3.196c-1.905-1.102-4.655-1.914-8.429-1.879
					c-3.276,0.078-6.581,0.078-9.878-0.009c-7.071-0.048-10.51,2.87-11.535,5.083l-1.566,3.426l-0.084,30.963l1.56-3.43
					c1.025-2.213,4.466-5.127,11.538-5.083c3.295,0.089,6.595,0.089,9.878,0.011c3.771-0.033,6.521,0.775,8.429,1.875
					c1.675,0.967,2.693,2.157,3.178,3.196l1.603,3.43l0.093-30.963L804.103,1196.763z"/>
				<path class="st70" d="M875.528,1172.84l4.34,2.507l-18.092,10.514l-4.358-2.516c-2.813-1.615-8.33-3.133-14.405-1.025
					c-2.783,1.025-5.637,1.986-8.555,2.861c-6.165,2.007-6.619,5.529-5.583,7.74l1.612,3.426l-24.78,3.843l-1.605-3.426
					c-0.485-1.039-1.51-2.231-3.181-3.196c-1.905-1.102-4.655-1.914-8.429-1.879c-3.276,0.078-6.581,0.078-9.878-0.009
					c-7.071-0.048-10.51,2.87-11.535,5.083l-1.566,3.426l-24.819-3.843l1.569-3.439c0.83-1.812,0.632-4.496-2.852-6.515
					c-0.773-0.443-1.716-0.854-2.828-1.216c-2.924-0.871-5.778-1.833-8.576-2.869c-6.107-2.109-11.622-0.578-14.41,1.036
					l-4.316,2.516l-18.211-10.514l4.319-2.516c2.789-1.62,5.407-4.807,1.758-8.345c-1.805-1.614-3.477-3.267-4.984-4.96
					c-0.623-0.647-1.339-1.18-2.112-1.627c-3.498-2.022-8.147-2.118-11.277-1.632l-5.904,0.919l-6.721-14.366l5.915-0.913
					c3.819-0.599,8.833-2.606,8.716-6.715c-0.15-1.899-0.159-3.807-0.011-5.712c0.018-2.186-1.386-3.774-3.289-4.87
					c-1.683-0.967-3.747-1.558-5.531-1.836l-5.924-0.914l6.565-14.363l5.942,0.917c3.819,0.59,9.894,0.306,13.335-3.259
					c1.488-1.693,3.133-3.348,4.921-4.969c3.6-3.528,0.949-6.727-1.857-8.344l-4.343-2.51l18.092-10.514l4.356,2.509
					c2.807,1.623,8.333,3.142,14.405,1.043c2.785-1.043,5.644-1.994,8.555-2.867c6.165-2.001,6.619-5.529,5.583-7.743l-1.605-3.426
					l24.78-3.845l1.594,3.43c0.485,1.036,1.51,2.223,3.184,3.191c1.905,1.099,4.66,1.914,8.435,1.881
					c3.276-0.078,6.581-0.078,9.878,0.006c7.078,0.05,10.532-2.867,11.535-5.083l1.567-3.426l24.822,3.849l-1.566,3.426
					c-0.826,1.809-0.647,4.508,2.848,6.53c0.769,0.443,1.701,0.851,2.815,1.214c2.92,0.871,5.79,1.824,8.588,2.866
					c6.104,2.099,11.616,0.582,14.398-1.045l4.328-2.513l18.209,10.519l-4.323,2.51c-2.785,1.618-5.4,4.817-1.746,8.348
					c1.794,1.618,3.459,3.274,4.966,4.96c0.623,0.647,1.342,1.186,2.112,1.633c3.495,2.016,8.162,2.112,11.279,1.627l5.907-0.91
					l6.73,14.357l-5.937,0.919c-3.813,0.599-8.827,2.605-8.696,6.706c0.144,1.905,0.156,3.813,0.011,5.724
					c-0.03,2.174,1.384,3.771,3.287,4.868c1.681,0.971,3.739,1.56,5.531,1.836l5.922,0.914l-6.569,14.366l-5.937-0.919
					c-3.822-0.591-9.902-0.315-13.338,3.268c-1.495,1.69-3.124,3.336-4.918,4.951
					C870.062,1168.015,872.716,1171.211,875.528,1172.84z M754.052,1151.436c18.35,10.591,48.014,10.58,66.235-0.009
					c18.235-10.601,18.139-27.77-0.207-38.36c-18.346-10.595-48.005-10.604-66.247,0
					C735.621,1123.655,735.705,1140.845,754.052,1151.436L754.052,1151.436z"/>
				<polygon class="st63" points="769.513,1200.191 769.43,1231.152 744.601,1227.309 744.695,1196.348 				"/>
				<path class="st71" d="M833.468,1107.825c-25.828-14.905-67.562-14.916-93.238,0c-12.218,7.104-18.57,16.31-19.104,25.615
					c0.5,9.418,6.958,18.766,19.413,25.945c25.826,14.913,67.568,14.896,93.22-0.009c12.233-7.108,18.589-16.313,19.115-25.613
					C852.372,1124.346,845.914,1115.013,833.468,1107.825z M819.987,1151.427c-18.092,10.514-47.547,10.525-65.771,0.009
					c-8.614-4.979-13.169-11.421-13.667-17.944c0.509-6.443,4.993-12.793,13.458-17.708c18.103-10.523,47.56-10.523,65.774,0
					c8.627,4.972,13.18,11.412,13.68,17.935C832.944,1140.156,828.461,1146.506,819.987,1151.427z"/>
				
					<linearGradient id="SVGID_43_" gradientUnits="userSpaceOnUse" x1="721.0949" y1="905.9399" x2="852.913" y2="905.9399" gradientTransform="matrix(1 0 0 -1 0 2019.8898)">
					<stop  offset="0" style="stop-color:#BBBFE2"/>
					<stop  offset="1" style="stop-color:#CED2F4"/>
				</linearGradient>
				<path class="st72" d="M740.231,1107.825c25.676-14.916,67.41-14.905,93.238,0c12.439,7.186,18.904,16.51,19.406,25.915
					c0.593-10.229-5.874-20.583-19.406-28.398c-25.828-14.907-67.562-14.913-93.238,0c-13.302,7.731-19.649,17.951-19.104,28.078
					C721.67,1124.12,728.02,1114.924,740.231,1107.825z"/>
			</g>
		</g>
		<g id="Person_symbol">
			<g>
				
					<linearGradient id="SVGID_44_" gradientUnits="userSpaceOnUse" x1="1030.3215" y1="335.2862" x2="1219.139" y2="335.2862" gradientTransform="matrix(1 0 0 -1 0 2019.8898)">
					<stop  offset="0.3656" style="stop-color:#C4CAE8"/>
					<stop  offset="0.5239" style="stop-color:#CDD2EC"/>
					<stop  offset="0.7815" style="stop-color:#E5E8F5"/>
					<stop  offset="1" style="stop-color:#FFFFFF"/>
				</linearGradient>
				<path class="st73" d="M1213.997,1677.408l-68.778-39.519c-6.856-3.96-34.121-3.96-40.973,0l-68.785,39.516
					c-6.854,3.959-6.854,10.432,0,14.391l64.406,37.007v5.484h32.886c4.517,0,9.036-0.989,12.463-2.967l68.78-39.519
					C1220.853,1687.843,1220.853,1681.363,1213.997,1677.408z"/>
				<path class="st2" d="M1112.34,1708.604c-6.856,3.959-18.073,3.959-24.924,0l-68.782-39.523c-6.854-3.959-6.854-10.432,0-14.387
					l68.785-39.519c6.851-3.959,18.068-3.959,24.924,0l68.78,39.519c6.854,3.959,6.854,10.435,0,14.393L1112.34,1708.604z"/>
				
					<linearGradient id="SVGID_45_" gradientUnits="userSpaceOnUse" x1="1013.4938" y1="321.8027" x2="1186.2438" y2="321.8027" gradientTransform="matrix(1 0 0 -1 0 2019.8898)">
					<stop  offset="0.4583" style="stop-color:#FC780B"/>
					<stop  offset="0.4604" style="stop-color:#FC770B"/>
					<stop  offset="0.576" style="stop-color:#E54C0F"/>
					<stop  offset="0.6347" style="stop-color:#DD3B10"/>
				</linearGradient>
				<path class="st74" d="M1018.634,1669.081l68.782,39.521c6.851,3.959,18.068,3.959,24.924,0l68.785-39.519
					c3.128-1.807,4.811-4.137,5.08-6.517h0.002v21.401c0.048,0.425,0.048,0.848,0,1.272v0.05h-0.002
					c-0.271,2.374-1.956,4.704-5.08,6.511l-68.785,39.519c-6.856,3.958-18.073,3.958-24.924,0l-68.782-39.521
					c-3.487-2.01-5.189-4.675-5.129-7.33l-0.011-16.896v-5.687C1013.493,1664.493,1015.209,1667.102,1018.634,1669.081z"/>
				<path class="st75" d="M1090.924,1658.031c-1.255-3.542,0.671-7.533,5.751-10.465c7.715-4.458,19.671-4.77,26.715-0.704
					c7.032,4.061,6.483,10.975-1.232,15.425c-5.073,2.932-11.979,4.034-18.114,3.312c7.143,8.316,4.716,17.631-2.859,21.998
					c-1.825-1.068-24.172-13.964-24.172-13.964s-22.34-12.891-24.19-13.959C1060.389,1655.303,1076.528,1653.901,1090.924,1658.031z
					"/>
			</g>
		</g>
	</g>
</g>
</svg>
