<svg id="Layer_1" xmlns="http://www.w3.org/2000/svg" viewBox="0 0 2290.884 2020.845"><style>.st0{fill:url(#SVGID_1_)}.st1{fill:#e8ecf7}.st2{fill:#fff}.st3{fill:url(#SVGID_2_)}.st4{fill:#bbc0e6}.st5{fill:url(#SVGID_3_)}.st6{fill:url(#SVGID_4_)}.st7{fill:url(#SVGID_5_)}.st8{fill:url(#SVGID_6_)}.st9{fill:url(#SVGID_7_)}.st10{fill:url(#SVGID_8_)}.st11{fill:url(#SVGID_9_)}.st12{fill:url(#SVGID_10_)}.st13{fill:#423eaf}.st14{fill:#807dfb}.st15{fill:url(#SVGID_11_)}.st16{fill:url(#SVGID_12_)}.st17{fill:url(#SVGID_13_)}.st18{fill:url(#SVGID_14_)}.st19{fill:#dae0f5}.st20{fill:url(#SVGID_15_)}.st21{fill:#f6f6fb}.st22{fill:#ced3f8}.st23{fill:url(#SVGID_16_)}.st24{fill:url(#SVGID_17_)}.st25{fill:url(#SVGID_18_)}.st26{fill:url(#SVGID_19_)}.st27{fill:url(#SVGID_20_)}.st28{fill:url(#SVGID_21_)}.st29{fill:url(#SVGID_22_)}.st30{fill:#5652cc}.st31{fill:#6b67e9}.st32{fill:#362e94}.st33{fill:url(#SVGID_23_)}.st34{fill:#d1d7f3}.st35{fill:#fc780b}.st36{fill:#ffad02}.st37{fill:#dd3b10}.st38{fill:#fcba06}.st39{fill:#ffef9a}.st40{fill:#e19100}.st41{fill:url(#SVGID_24_)}.st42{opacity:.5;fill:#dae0f5}.st43{fill:url(#SVGID_25_)}.st44{fill:url(#SVGID_26_)}.st45{fill:url(#SVGID_27_)}.st46{fill:url(#SVGID_28_)}.st47{fill:#131147}.st48{fill:url(#SVGID_29_)}.st49{fill:url(#SVGID_30_)}.st50{fill:#20196f}.st51{fill:url(#SVGID_31_)}.st52{fill:#e6eaf5}.st53{fill:#423ead}.st54{fill:url(#SVGID_32_)}.st55{fill:#facfa7}.st56{fill:url(#SVGID_33_)}.st57{fill:#f0c19b}.st58{fill:url(#SVGID_34_)}.st59{fill:url(#SVGID_35_)}.st60{fill:#e8edf9}</style><g id="Wave_shape"><linearGradient id="SVGID_1_" gradientUnits="userSpaceOnUse" x1=".945" y1="752.442" x2="2279.344" y2="1126.507" gradientTransform="matrix(1 0 0 -1 0 2019.89)"><stop offset="0" stop-color="#efeff3"/><stop offset="1" stop-color="#fff" stop-opacity="0"/></linearGradient><path class="st0" d="M342.898 1553.038c312.717 58.318 379.82-130.558 773.938 49.553 324.381 148.241 787.894 55.36 823.317-169.848 24.167-153.637 96.173-197.21 196.009-209.075 315.032-37.437 120.049-493.366-323.972-517.604-485.885-26.524-546.207-66.426-658.368-192.232-184.962-207.459-472.22 105.032-586.11 271.966-98.177 143.904-385.06 112.678-503.653 276.331-152.44 210.361-22.284 434.753 278.839 490.909z"/></g><g id="Abstract_shapes"><path class="st1" d="M199.766 880.688l42.342 91.237c2.561 5.516 9.301 7.648 14.566 4.607l115.682-66.789c8.466-4.887 6.066-17.695-3.59-19.187l-158.03-24.45c-8.173-1.271-14.45 7.079-10.97 14.582zM1624.373 1650.112c-34.574-19.958-90.631-19.958-125.204 0-34.575 19.964-34.575 52.329 0 72.289 34.575 19.964 90.632 19.964 125.207 0 34.574-19.96 34.572-52.325-.003-72.289zm-95.662 55.232c-18.257-10.543-18.261-27.633 0-38.175 18.257-10.543 47.861-10.543 66.119 0 18.261 10.543 18.261 27.633 0 38.175-18.258 10.542-47.862 10.542-66.119 0zM2073.868 793.214c6.096 3.518 15.973 3.518 22.069 0 6.094-3.518 6.094-9.223 0-12.741-6.096-3.518-15.974-3.518-22.069 0-6.094 3.517-6.094 9.223 0 12.741zM2127.864 824.387c6.093 3.518 15.973 3.518 22.067 0 6.096-3.518 6.096-9.223 0-12.741-6.093-3.518-15.973-3.518-22.067 0-6.094 3.517-6.094 9.223 0 12.741zM2181.859 855.558c6.094 3.518 15.974 3.518 22.067 0 6.094-3.518 6.094-9.221 0-12.739-6.093-3.518-15.973-3.518-22.067 0-6.096 3.518-6.096 9.221 0 12.739z"/><ellipse class="st1" cx="2246.886" cy="880.359" rx="15.606" ry="9.009"/><path class="st1" d="M2019.876 824.387c6.094 3.518 15.973 3.518 22.067 0 6.096-3.518 6.096-9.223 0-12.741-6.094-3.518-15.973-3.518-22.067 0-6.094 3.517-6.094 9.223 0 12.741zM2073.868 855.558c6.096 3.518 15.977 3.518 22.069 0 6.093-3.518 6.094-9.221 0-12.739-6.094-3.518-15.974-3.518-22.069 0-6.094 3.518-6.094 9.221 0 12.739zM2127.864 886.73c6.096 3.518 15.973 3.518 22.069 0 6.093-3.518 6.093-9.223-.003-12.741-6.093-3.518-15.971-3.518-22.067 0-6.093 3.518-6.093 9.223.001 12.741zM2203.926 905.17c-6.093-3.518-15.973-3.526-22.067 0-6.093 3.518-6.093 9.218 0 12.736 6.094 3.518 15.974 3.518 22.067 0 6.094-3.518 6.094-9.218 0-12.736zM1965.88 855.558c6.096 3.518 15.977 3.518 22.069 0 6.093-3.518 6.093-9.221 0-12.739-6.096-3.518-15.974-3.518-22.069 0-6.094 3.518-6.094 9.221 0 12.739zM2019.876 886.73c6.094 3.518 15.973 3.518 22.067 0 6.096-3.518 6.096-9.223 0-12.741-6.094-3.518-15.973-3.518-22.067 0-6.094 3.518-6.094 9.223 0 12.741zM2073.87 917.906c6.093 3.518 15.973 3.518 22.067 0 6.094-3.518 6.094-9.218 0-12.736-6.094-3.526-15.974-3.526-22.067 0-6.096 3.518-6.096 9.218 0 12.736zM2149.934 936.34c-6.096-3.518-15.974-3.518-22.069 0-6.094 3.518-6.094 9.223 0 12.741 6.096 3.518 15.973 3.518 22.069 0 6.093-3.518 6.093-9.223 0-12.741z"/><ellipse class="st1" cx="1922.92" cy="880.359" rx="15.604" ry="9.009"/><path class="st1" d="M1965.882 917.906c6.093 3.518 15.973 3.518 22.067 0 6.093-3.518 6.093-9.218 0-12.745-6.094-3.518-15.974-3.518-22.067 0-6.096 3.527-6.096 9.227 0 12.745zM2019.876 949.081c6.094 3.518 15.973 3.518 22.067 0 6.096-3.524 6.096-9.223 0-12.741-6.094-3.518-15.973-3.518-22.067 0-6.094 3.518-6.094 9.217 0 12.741zM2095.938 967.512c-6.094-3.518-15.974-3.518-22.067 0s-6.093 9.226 0 12.744c6.093 3.518 15.973 3.518 22.067 0 6.094-3.519 6.093-9.226 0-12.744zM1879.962 905.161c-6.096-3.518-15.973-3.518-22.069 0-6.093 3.526-6.093 9.227 0 12.745 6.096 3.518 15.974 3.518 22.069 0 6.093-3.518 6.093-9.218 0-12.745zM1933.955 936.34c-6.094-3.518-15.973-3.518-22.067 0-6.093 3.518-6.093 9.219 0 12.741 6.094 3.518 15.973 3.518 22.067 0 6.096-3.524 6.096-9.223 0-12.741zM1987.949 967.512c-6.094-3.518-15.974-3.518-22.067 0-6.096 3.518-6.096 9.226 0 12.744 6.093 3.518 15.973 3.518 22.067 0 6.094-3.519 6.094-9.226 0-12.744zM2041.943 998.684c-6.094-3.518-15.973-3.518-22.067 0-6.094 3.518-6.094 9.223 0 12.741 6.096 3.518 15.973 3.518 22.069 0 6.094-3.517 6.094-9.223-.002-12.741z"/><g><path class="st2" d="M251.398 1197.074c-6.096-3.518-15.973-3.518-22.069 0-6.09 3.521-6.09 9.221 0 12.742 6.096 3.518 15.977 3.518 22.069 0 6.093-3.517 6.093-9.22 0-12.742zM197.403 1228.25c-6.094-3.518-15.973-3.518-22.067 0s-6.094 9.221 0 12.741c6.094 3.518 15.973 3.518 22.067 0 6.096-3.52 6.096-9.223 0-12.741zM143.41 1259.422c-6.094-3.518-15.973-3.518-22.067 0-6.096 3.518-6.096 9.224 0 12.742 6.094 3.518 15.974 3.518 22.067 0s6.093-9.224 0-12.742zM89.417 1290.592c-6.096-3.518-15.977-3.518-22.069 0-6.094 3.521-6.094 9.226 0 12.744 6.096 3.518 15.973 3.518 22.069 0 6.09-3.519 6.09-9.223 0-12.744zM35.421 1321.769c-6.096-3.518-15.973-3.518-22.069 0-6.09 3.518-6.09 9.222 0 12.744 6.096 3.518 15.974 3.518 22.069 0 6.094-3.522 6.094-9.226 0-12.744z"/></g><path class="st1" d="M1857.794 663.544l48.515 28.009c7.398 4.271 6.47 11.73-2.073 16.661l-44.37 25.621c-8.539 4.931-21.463 5.464-28.859 1.196l-48.515-28.01c-7.398-4.271-6.47-11.73 2.073-16.663l44.37-25.618c8.543-4.931 21.463-5.467 28.859-1.196z"/></g><g id="Objects"><g id="Back_cloud"><linearGradient id="SVGID_2_" gradientUnits="userSpaceOnUse" x1="393.391" y1="939.2" x2="1278.703" y2="939.2" gradientTransform="matrix(1 0 0 -1 0 2019.89)"><stop offset="0" stop-color="#d1d7f3"/><stop offset="1" stop-color="#fff"/></linearGradient><path class="st3" d="M1278.703 851.163c-1.136-.006-14.279-.025-15.428-.025-110.691 0-245.289 25.904-300.634 57.857l-569.249 307.57 118.954 68.678.011-.007c17.26 13.926 60.864 23.196 125.445 24.719 6.163.168 12.461.285 19.061.285 136.547 0 302.587-31.954 370.86-71.373 13.192-7.616 21.656-14.942 25.924-21.824 74.293-1.437 154.979-11.139 225.057-25.828l-.001-340.052z"/><path class="st4" d="M960.886 760.54c-4.019 2.32-7.96 4.945-11.855 7.725-1.916-70.254-52.495-98.294-114.778-62.334-12.45 7.183-24.434 16.419-35.657 27.105-23.699-27.194-63.943-30.956-109.746-4.501C619.014 768.853 562 864.384 557.245 946.379c-11.921 2.463-24.609 7.351-37.801 14.967-68.274 39.417-123.62 135.281-123.62 214.116 0 3.811.204 7.447.494 11.005 4.998 70.656 58.154 97.879 123.127 60.366l441.441-254.865c55.345-31.953 100.212-109.665 100.212-173.572s-44.867-89.809-100.212-57.856z"/><linearGradient id="SVGID_3_" gradientUnits="userSpaceOnUse" x1="531.313" y1="1088.483" x2="685.818" y2="1356.094" gradientTransform="matrix(1 0 0 -1 0 2019.89)"><stop offset="0" stop-color="#ced3f8"/><stop offset=".41" stop-color="#dcdff6"/><stop offset=".843" stop-color="#efeff3"/></linearGradient><path class="st5" d="M705.485 675.28l-15.821-9.134-.009.009c-24.091-16.003-58.395-14.96-96.572 7.089-69.836 40.318-126.85 135.849-131.605 217.844l95.767 55.291C562 864.384 619.014 768.851 688.85 728.535c34.664-20.02 66.137-22.722 89.671-11.072l.001-.015-73.037-42.168z"/><linearGradient id="SVGID_4_" gradientUnits="userSpaceOnUse" x1="943.556" y1="1254.785" x2="970.612" y2="1301.648" gradientTransform="matrix(1 0 0 -1 0 2019.89)"><stop offset="0" stop-color="#ced3f8"/><stop offset=".41" stop-color="#dcdff6"/><stop offset=".843" stop-color="#efeff3"/></linearGradient><path class="st6" d="M936.604 698.608l-.011.011c-9.024-5.396-19.8-7.779-31.794-6.833l9.654 5.58-.003.006c20.569 11.34 33.625 35.866 34.581 70.894 3.895-2.779 7.836-5.406 11.855-7.725 27.514-15.885 52.432-17.459 70.541-7.187l-94.823-54.746z"/><linearGradient id="SVGID_5_" gradientUnits="userSpaceOnUse" x1="339.963" y1="817.659" x2="505.07" y2="1103.633" gradientTransform="matrix(1 0 0 -1 0 2019.89)"><stop offset="0" stop-color="#ced3f8"/><stop offset=".41" stop-color="#dcdff6"/><stop offset=".843" stop-color="#efeff3"/></linearGradient><path class="st7" d="M423.678 906.056c-68.274 39.418-123.621 135.281-123.621 214.117 0 3.811.204 7.447.494 11.005 2.33 32.938 15.133 56.426 34.714 68.329l-.006.006.125.072c.229.137.463.265.693.4l94.949 54.819.006-.006c-19.58-11.902-32.383-35.39-34.714-68.329-.29-3.558-.494-7.194-.494-11.005 0-78.835 55.346-174.699 123.621-214.116 13.192-7.617 25.879-12.504 37.799-14.967l-95.767-55.291c-11.919 2.462-24.608 7.35-37.799 14.966z"/><linearGradient id="SVGID_6_" gradientUnits="userSpaceOnUse" x1="786.898" y1="1293.608" x2="831.31" y2="1370.534" gradientTransform="matrix(1 0 0 -1 0 2019.89)"><stop offset="0" stop-color="#ced3f8"/><stop offset=".41" stop-color="#dcdff6"/><stop offset=".843" stop-color="#efeff3"/></linearGradient><path class="st8" d="M904.799 691.785l-85.124-49.146-.023.023c-20.768-12.016-49.439-10.339-81.167 7.978-11.476 6.622-22.548 15.003-33.001 24.64l73.035 42.167-.001.015c7.563 3.744 14.313 8.959 20.076 15.573 11.224-10.686 23.207-19.921 35.657-27.105 31.23-18.03 59.513-19.964 80.198-8.56l.003-.006-9.653-5.579z"/><g><path class="st4" d="M1144.463 454.018c5.815 3.427 11.513 7.296 17.142 11.39 3.838-101.948 77.882-141.897 168.011-88.776 18.017 10.612 35.324 24.197 51.502 39.873 34.904-39.12 93.542-43.983 159.824-4.9 101.059 59.56 182.629 199.077 188.328 318.168 17.316 3.753 35.713 11.037 54.803 22.288 98.797 58.232 177.936 198.204 176.761 312.637-.057 5.532-.408 10.806-.883 15.967-8.331 102.485-86.113 141.211-180.134 85.795l-638.804-376.512c-80.089-47.205-144.243-160.673-143.29-253.437.953-92.765 66.651-129.697 146.74-82.493z"/><linearGradient id="SVGID_7_" gradientUnits="userSpaceOnUse" x1="2682.446" y1="1292.888" x2="2906.985" y2="1681.801" gradientTransform="scale(-1) rotate(.584 196684.178 -435903.595)"><stop offset="0" stop-color="#ced3f8"/><stop offset=".41" stop-color="#dcdff6"/><stop offset=".843" stop-color="#efeff3"/></linearGradient><path class="st9" d="M1517.52 334.056l23.167-13.024.013.013c35.308-22.871 85.229-20.848 140.473 11.726 101.059 59.56 182.629 199.076 188.328 318.168l-140.231 78.834c-5.7-119.091-87.27-258.608-188.328-318.168-50.161-29.576-95.935-33.966-130.367-17.405l-.001-.021 106.946-60.123z"/><linearGradient id="SVGID_8_" gradientUnits="userSpaceOnUse" x1="3282.366" y1="1534.503" x2="3321.729" y2="1602.682" gradientTransform="scale(-1) rotate(.584 196684.178 -435903.595)"><stop offset="0" stop-color="#ced3f8"/><stop offset=".41" stop-color="#dcdff6"/><stop offset=".843" stop-color="#efeff3"/></linearGradient><path class="st10" d="M1180.734 364.481l.016.016c13.217-7.698 28.939-10.997 46.384-9.447l-14.137 7.956.005.009c-30.11 16.155-49.482 51.562-51.395 102.393-5.629-4.093-11.327-7.962-17.142-11.39-39.816-23.467-76.065-26.123-102.58-11.48l138.849-78.057z"/><linearGradient id="SVGID_9_" gradientUnits="userSpaceOnUse" x1="2403.779" y1="899.965" x2="2643.687" y2="1315.499" gradientTransform="scale(-1) rotate(.584 196684.178 -435903.595)"><stop offset="0" stop-color="#ced3f8"/><stop offset=".41" stop-color="#dcdff6"/><stop offset=".843" stop-color="#efeff3"/></linearGradient><path class="st11" d="M1924.304 673.227c98.797 58.232 177.938 198.204 176.762 312.637-.057 5.532-.409 10.806-.884 15.967-3.883 47.777-22.871 81.68-51.552 98.665l.009.009-.182.103c-.334.197-.678.378-1.014.57l-139.034 78.161-.009-.008c28.681-16.985 47.669-50.888 51.552-98.665.475-5.16.826-10.436.883-15.967 1.175-114.434-77.964-254.407-176.761-312.637-19.089-11.252-37.485-18.534-54.802-22.288l140.231-78.834c17.315 3.753 35.713 11.036 54.801 22.287z"/><linearGradient id="SVGID_10_" gradientUnits="userSpaceOnUse" x1="3054.354" y1="1590.966" x2="3118.943" y2="1702.84" gradientTransform="scale(-1) rotate(.584 196684.178 -435903.595)"><stop offset="0" stop-color="#ced3f8"/><stop offset=".41" stop-color="#dcdff6"/><stop offset=".843" stop-color="#efeff3"/></linearGradient><path class="st12" d="M1227.134 355.051l124.647-70.072.033.034c30.41-17.134 72.121-14.273 118.034 12.787 16.607 9.783 32.599 22.113 47.672 36.257l-106.947 60.122.001.021c-11.065 5.323-20.968 12.792-29.456 22.306-16.178-15.677-33.485-29.262-51.502-39.873-45.192-26.635-86.334-29.863-116.616-13.617l-.005-.009 14.139-7.956z"/></g></g><g id="Little_cloud"><path class="st13" d="M1989.564 1472.052c.035-.729.094-1.454.094-2.175 0-20.017-14.055-28.153-31.403-18.136-2.178 1.257-4.304 2.747-6.361 4.413.021-.578.05-1.157.051-1.736-.001-24.652-17.311-34.654-38.667-22.324-4.188 2.416-8.219 5.523-11.994 9.116-7.972-9.147-21.507-10.412-36.915-1.513-24.538 14.165-44.423 48.612-44.423 76.949v.002c-4.572.504-9.549 2.181-14.772 5.194-21.734 12.549-39.366 43.087-39.366 68.182 0 3.874.469 7.35 1.265 10.481l222.491-128.453z"/><path class="st14" d="M1954.483 1434.578l.009-.007 25.629 14.797c-5.654-3.076-13.362-2.537-21.865 2.373-2.178 1.257-4.304 2.747-6.361 4.413.021-.578.05-1.157.051-1.736 0-9.967-2.833-17.537-7.617-22.207 3.85-.273 7.295.553 10.154 2.367z"/><linearGradient id="SVGID_11_" gradientUnits="userSpaceOnUse" x1="2603.85" y1="605.139" x2="2618.799" y2="579.247" gradientTransform="rotate(180 2259.55 1009.945)"><stop offset=".157" stop-color="#807dfb"/><stop offset=".693" stop-color="#625fda"/><stop offset="1" stop-color="#5652cc"/></linearGradient><path class="st15" d="M1875.721 1425.064c3.506-3.227 7.209-6.051 11.056-8.27 10.871-6.276 20.689-6.755 27.713-2.471l.009-.006 25.932 14.971c-6.982-3.923-16.568-3.306-27.153 2.805-4.188 2.416-8.219 5.523-11.994 9.116a21.755 21.755 0 0 0-5.946-4.79l.018-.019-19.635-11.336z"/><linearGradient id="SVGID_12_" gradientUnits="userSpaceOnUse" x1="2652.499" y1="600.092" x2="2706.1" y2="507.253" gradientTransform="rotate(180 2259.55 1009.945)"><stop offset=".157" stop-color="#807dfb"/><stop offset=".693" stop-color="#625fda"/><stop offset="1" stop-color="#5652cc"/></linearGradient><path class="st16" d="M1793.446 1501.346c0-28.336 19.885-62.783 44.423-76.948 12.204-7.049 23.222-7.699 31.243-3.126l.018-.012 6.591 3.805 19.635 11.338-.018.019c-7.997-4.403-18.902-3.691-30.967 3.277-24.538 14.165-44.423 48.612-44.423 76.949l-26.501-15.298v-.002h-.001z"/><linearGradient id="SVGID_13_" gradientUnits="userSpaceOnUse" x1="2720.892" y1="515.795" x2="2770.423" y2="430.005" gradientTransform="rotate(180 2259.55 1009.945)"><stop offset=".157" stop-color="#807dfb"/><stop offset=".693" stop-color="#625fda"/><stop offset="1" stop-color="#5652cc"/></linearGradient><path class="st17" d="M1778.673 1506.542c5.224-3.014 10.2-4.69 14.773-5.194l26.501 15.298v.002c-4.572.504-9.549 2.181-14.772 5.194-21.734 12.549-39.366 43.087-39.366 68.182 0 3.874.469 7.35 1.265 10.481l-26.501-15.3c-.797-3.131-1.265-6.608-1.265-10.481 0-25.094 17.632-55.633 39.365-68.182z"/><linearGradient id="SVGID_14_" gradientUnits="userSpaceOnUse" x1="1767.076" y1="483.272" x2="2067.918" y2="483.272" gradientTransform="matrix(1 0 0 -1 0 2019.89)"><stop offset="0" stop-color="#d1d7f3"/><stop offset="1" stop-color="#fff"/></linearGradient><path class="st18" d="M1989.564 1472.053c1.264-.02 2.521-.055 3.767-.055 34.671 0 48.762 8.115 31.412 18.13-2.178 1.257-4.757 2.485-7.643 3.672 1-.012 2.005-.028 3.006-.029 42.698.001 60.023 9.995 38.667 22.325-4.186 2.417-9.565 4.745-15.791 6.924 15.843 4.602 18.035 12.417 2.622 21.313-24.536 14.167-84.199 25.648-133.279 25.648h-.003c-.874 2.64-3.777 5.513-8.996 8.529-21.735 12.548-74.63 22.728-118.096 22.728-6.709 0-12.731-.27-18.154-.731l222.488-128.454z"/></g><path class="st19" d="M854.44 1587.664c-12.285 7.09-12.285 18.593 0 25.688 12.286 7.093 32.195 7.091 44.482 0 12.295-7.094 12.295-18.593.028-25.688-12.305-7.094-32.223-7.098-44.51 0zm9.434-26.601l2.231 9.053c30.56-2.489 58.926 9.825 63.249 27.462.933 3.772.705 7.563-.666 11.262l15.522 1.899c1.737-4.754 2.021-9.611.841-14.44-5.541-22.624-41.96-38.442-81.177-35.236zm-5.256-21.2l2.23 9.062c24.6-2.008 49.127 1.634 69.009 10.266 19.865 8.636 32.746 21.211 36.228 35.435 1.545 6.283 1.18 12.572-1.078 18.703l15.505 1.896c2.641-7.179 3.07-14.538 1.27-21.879-4.077-16.634-19.142-31.383-42.389-41.463-23.267-10.103-51.952-14.369-80.775-12.02zm-5.293-21.193l2.239 9.062c71.112-5.813 137.195 22.87 147.261 63.948 2.157 8.761 1.645 17.561-1.508 26.141l15.505 1.901c3.537-9.629 4.094-19.501 1.682-29.326-11.274-46.06-85.376-78.243-165.179-71.726z" id="Wifi_sygnal"/><g id="Stairs"><linearGradient id="SVGID_15_" gradientUnits="userSpaceOnUse" x1="1447.086" y1="502.382" x2="1684.114" y2="502.382" gradientTransform="matrix(1 0 0 -1 0 2019.89)"><stop offset="0" stop-color="#dae0f5"/><stop offset="1" stop-color="#f6f6fb"/></linearGradient><path class="st20" d="M1447.086 1585.932l66.144-.004 170.884-98.655-66.139-38.19z"/><path class="st4" d="M1414.018 1528.643l170.879-98.656.01-38.775-170.884 98.656z"/><path class="st21" d="M1414.023 1489.868l170.884-98.656-33.067-19.096-170.89 98.656z"/><path class="st4" d="M1380.96 1470.772l170.88-98.656.01-38.775-170.885 98.655z"/><path class="st21" d="M1380.965 1431.996l170.885-98.655-33.068-19.097-170.889 98.656z"/><path class="st4" d="M1447.086 1585.932l170.885-98.661.004-38.188-170.879 98.651z"/><path class="st21" d="M1447.096 1547.734l170.879-98.651-33.078-19.096-170.879 98.656z"/><path class="st22" d="M1414.018 1528.643l.005-38.775-33.066-19.093.008-38.779-33.072-19.096-.025 115.738 99.218 57.294.01-38.198z"/><linearGradient id="SVGID_16_" gradientUnits="userSpaceOnUse" x1="1380.957" y1="598.444" x2="1584.908" y2="598.444" gradientTransform="matrix(1 0 0 -1 0 2019.89)"><stop offset="0" stop-color="#dae0f5"/><stop offset="1" stop-color="#f6f6fb"/></linearGradient><path class="st23" d="M1380.957 1470.775l66.144-.003 137.806-79.56-33.067-19.096z"/><linearGradient id="SVGID_17_" gradientUnits="userSpaceOnUse" x1="1414.018" y1="540.577" x2="1617.969" y2="540.577" gradientTransform="matrix(1 0 0 -1 0 2019.89)"><stop offset="0" stop-color="#dae0f5"/><stop offset="1" stop-color="#f6f6fb"/></linearGradient><path class="st24" d="M1414.018 1528.643l66.144-.004 137.807-79.559-33.068-19.097z"/></g><g id="Symbols"><linearGradient id="SVGID_18_" gradientUnits="userSpaceOnUse" x1="180.037" y1="610.175" x2="396.288" y2="610.175" gradientTransform="matrix(1 0 0 -1 0 2019.89)"><stop offset=".405" stop-color="#c6cbe7"/><stop offset=".636" stop-color="#d9ddef"/><stop offset="1" stop-color="#fff"/></linearGradient><path class="st25" d="M364.366 1365.409c-22.615-13.051-52.663-19.069-82.173-18.187h-46.277v7.57c-8.774 2.797-17.051 6.311-24.474 10.617-42.075 24.461-41.84 64.115.513 88.571 7.292 4.211 15.398 7.647 23.961 10.409v7.904h55.496c26.692-.454 53.149-6.501 73.447-18.3 42.097-24.469 41.876-64.117-.493-88.584z"/><linearGradient id="SVGID_19_" gradientUnits="userSpaceOnUse" x1="1258.288" y1="2168.856" x2="1142.583" y2="2359.568" gradientTransform="rotate(60 1445.952 1009.67)"><stop offset="0" stop-color="#dd3b10"/><stop offset=".467" stop-color="#ec780b"/><stop offset="1" stop-color="#fcba06"/></linearGradient><path class="st26" d="M164.293 1453.985c-21.321-12.311-31.962-28.469-31.917-44.598l.089-31.225c-.047 16.141 10.597 32.293 31.917 44.605 42.371 24.456 110.829 24.461 152.906.006 20.919-12.15 31.377-28.058 31.425-43.984l-.092 31.225c-.042 15.926-10.51 31.828-31.42 43.979-42.079 24.454-110.537 24.461-152.908-.008z"/><path class="st2" d="M164.383 1422.766c-42.353-24.456-42.591-64.121-.512-88.571 42.09-24.461 110.571-24.456 152.919 0 42.374 24.456 42.594 64.115.501 88.577-42.08 24.456-110.537 24.45-152.908-.006z"/><linearGradient id="SVGID_20_" gradientUnits="userSpaceOnUse" x1="1988.945" y1="851.928" x2="2205.196" y2="851.928" gradientTransform="matrix(1 0 0 -1 0 2019.89)"><stop offset=".405" stop-color="#c6cbe7"/><stop offset=".636" stop-color="#d9ddef"/><stop offset="1" stop-color="#fff"/></linearGradient><path class="st27" d="M2173.275 1123.654c-22.615-13.049-52.664-19.063-82.174-18.182h-46.277v7.566c-8.774 2.796-17.051 6.311-24.474 10.619-42.075 24.463-41.84 64.118.513 88.574 7.292 4.211 15.398 7.641 23.961 10.403v7.903h55.496c26.692-.454 53.149-6.496 73.448-18.293 42.095-24.468 41.875-64.122-.493-88.59z"/><linearGradient id="SVGID_21_" gradientUnits="userSpaceOnUse" x1="1953.413" y1="481.39" x2="1837.709" y2="672.103" gradientTransform="rotate(60 1445.952 1009.67)"><stop offset="0" stop-color="#362e94"/><stop offset=".347" stop-color="#514ab9"/><stop offset="1" stop-color="#807dfb"/></linearGradient><path class="st28" d="M1973.201 1212.237c-21.321-12.311-31.962-28.476-31.921-44.605l.092-31.22c-.047 16.138 10.597 32.295 31.917 44.606 42.371 24.456 110.828 24.456 152.906.006 20.915-12.157 31.378-28.059 31.426-43.989l-.093 31.224c-.042 15.926-10.51 31.828-31.42 43.984-42.078 24.449-110.536 24.455-152.907-.006z"/><path class="st2" d="M1973.291 1181.016c-42.353-24.457-42.592-64.124-.516-88.574 42.094-24.464 110.575-24.454 152.922 0 42.374 24.456 42.594 64.117.501 88.58-42.079 24.45-110.537 24.45-152.907-.006z"/><path class="st22" d="M2022.813 1107.521c-6.514-3.736-17.077-3.72-23.59.044-6.517 3.761-6.517 9.842 0 13.577 6.514 3.736 17.076 3.716 23.59-.045 6.513-3.761 6.513-9.84 0-13.576zm74.091 38.38l-6.675 3.856-36.851-21.276 6.675-3.855-9.639-5.57-31.208 18.016 9.645 5.571 6.669-3.852 36.853 21.272-6.671 3.854 9.642 5.569 31.208-18.015-9.648-5.57zM207.93 1394.196c6.169 3.561 6.311 8.985 0 12.63-6.311 3.644-15.705 3.563-21.873 0-6.311-3.645-6.313-8.988-.002-12.63 6.31-3.642 15.564-3.642 21.875 0zm82.169-45.172c19.911 11.496 22.433 26.553 6.028 36.025l-.701.404c-15.845 9.148-32.951 7.368-48.655 3.805l-4.911-1.215c-5.185-1.052-8.413-.645-12.899 1.942l-6.311 3.645-13.883-8.014 7.012-4.048c8.835-5.099 16.546-6.638 29.029-3.805l4.905 1.215c13.463 3.078 22.715 3.724 31.832-1.538 10.096-5.83 7.15-14.33-4.349-20.968-11.917-6.88-27.343-8.988-39.404-2.023l-4.486 2.589-13.881-8.013 5.048-2.913c19.213-11.094 45.433-8.748 65.626 2.912z"/></g><path class="st4" d="M1530.171 1149.896V852.701c10.898-8.342 19.226-24.038 19.226-37.202 0-14.624-10.267-20.551-22.932-13.239-12.665 7.312-22.932 25.094-22.932 39.718 0 13.163 8.326 19.244 19.224 15.003v297.195c-10.897 8.342-19.224 24.038-19.224 37.2 0 14.624 10.267 20.552 22.932 13.239 12.665-7.312 22.932-25.094 22.932-39.718-.001-13.161-8.329-19.243-19.226-15.001z" id="Book_1_1_"/><g id="Book_5"><linearGradient id="SVGID_22_" gradientUnits="userSpaceOnUse" x1="1046.435" y1="704.045" x2="1442.564" y2="704.045" gradientTransform="matrix(1 0 0 -1 0 2019.89)"><stop offset="0" stop-color="#d1d7f3"/><stop offset="1" stop-color="#fff"/></linearGradient><path class="st29" d="M1442.564 1315.843l-254.91-147.172c-18.405-10.627-63.185-19.244-99.995-19.245-36.822.001-51.754 8.618-33.332 19.245l254.908 147.173-254.908 147.174c-18.423 10.627-3.491 19.243 33.332 19.244 36.81-.001 81.59-8.618 99.995-19.244l254.91-147.175z"/><path class="st30" d="M1055.548 1455.214l-15.542 8.901-17.62-10.173c-.895-2.962-1.388-6.357-1.393-10.168.001-21.253 14.925-47.106 33.331-57.732l-.002.003-357.37-206.344 194.389-112.23 417.9 241.275-253.693 146.468z"/><path class="st22" d="M1039.727 1447.487s228.082-131.685 239.79-138.443c.006-10.519 0-52.269.001-62.781-11.712 6.765-239.792 138.436-239.792 138.436-14.988 8.661-27.187 29.79-27.187 47.09.008 17.305 12.2 24.349 27.188 15.698z"/><path class="st31" d="M636.43 1144.759l417.906 241.278 254.899-147.168-417.899-241.274z"/><path class="st32" d="M1020.993 1443.774c.002 21.26 14.925 29.88 33.332 19.244l254.915-147.174-.001-7.099-254.91 147.173c-14.988 8.651-27.182 1.606-27.184-15.694-.006-17.303 12.193-38.431 27.187-47.089l254.904-147.166-.002-7.099-254.91 147.172c-18.406 10.626-33.329 36.479-33.331 57.732z"/><linearGradient id="SVGID_23_" gradientUnits="userSpaceOnUse" x1="2256.296" y1="-114.318" x2="2336.782" y2="-114.318" gradientTransform="scale(-1 1) rotate(60 -494.348 -2113.45)"><stop offset="0" stop-color="#6b67e9"/><stop offset=".057" stop-color="#6763e3"/><stop offset=".468" stop-color="#4c48bd"/><stop offset=".685" stop-color="#423eaf"/></linearGradient><path class="st33" d="M1020.993 1443.774c.001-21.253 14.925-47.106 33.331-57.732l-.002.003-417.892-241.286-.005.008c-18.4 10.629-33.331 36.49-33.333 57.736-.001 10.626 3.735 18.1 9.766 21.582l417.897 241.272c-6.032-3.482-9.758-10.955-9.762-21.583z"/><path class="st34" d="M1063.909 1352.893h47.833l197.493-114.024-23.907-13.803z"/></g><g id="Book_4"><path class="st35" d="M1070.517 1341.449l-449.239-259.368 277.34-160.133 449.25 259.375z"/><path class="st22" d="M1314.821 1125.242l-.001 57.022-260.006 150.119-.001-57.026z"/><path class="st36" d="M1063.908 1280.607l-449.253-259.371 283.969-163.942 449.234 259.376z"/><path class="st37" d="M1063.903 1352.904l283.956-163.94.009-7.641-277.351 160.126.006-57.022 277.344-160.126-.009-7.631-283.95 163.937z"/><path class="st35" d="M1063.909 1352.893l-449.245-259.372-.007-72.284 449.251 259.37z"/><path class="st38" d="M981.255 957.333l91.374 52.755-193.326 111.617-91.373-52.755z"/><path class="st39" d="M935.543 1100.419c6.116-3.531 16.033-3.531 22.149 0s6.116 9.256 0 12.787c-6.116 3.531-16.033 3.531-22.149 0-6.117-3.53-6.117-9.255 0-12.787zM968.948 1081.132c6.116-3.531 16.033-3.531 22.149 0 6.116 3.532 6.116 9.256 0 12.787-6.116 3.531-16.033 3.531-22.149 0-6.116-3.53-6.116-9.256 0-12.787zM1002.355 1061.845c6.116-3.532 16.033-3.532 22.149 0 6.116 3.531 6.116 9.256 0 12.787s-16.033 3.531-22.149 0-6.116-9.256 0-12.787zM1035.761 1042.558c6.116-3.531 16.033-3.531 22.149 0s6.116 9.256 0 12.787-16.033 3.531-22.149 0-6.116-9.256 0-12.787z"/><path class="st37" d="M982.103 1251.198l31.737 18.324v36.648l-31.737-18.324z"/><path class="st40" d="M664.725 1067.96l31.738 18.324v36.648l-31.738-18.324z"/><g><path class="st14" d="M664.623 1150.194c5.191-2.997 13.607-2.997 18.798 0 5.191 2.997 5.191 7.856 0 10.853s-13.607 2.997-18.798 0c-5.191-2.997-5.191-7.857 0-10.853zM1026.127 1358.912c5.191-2.997 13.607-2.997 18.798 0 5.191 2.997 5.191 7.857 0 10.853-5.191 2.997-13.607 2.997-18.798 0-5.192-2.996-5.192-7.855 0-10.853z"/><path transform="rotate(-60 854.731 1260.02)" class="st14" d="M853.34 1051.28h2.812v417.42h-2.812z"/></g><linearGradient id="SVGID_24_" gradientUnits="userSpaceOnUse" x1="614.655" y1="1056.067" x2="1101.024" y2="1056.067" gradientTransform="matrix(1 0 0 -1 0 2019.89)"><stop offset="0" stop-color="#dae0f5"/><stop offset="1" stop-color="#fff" stop-opacity="0"/></linearGradient><path class="st41" d="M898.624 857.294l-283.969 163.942 85.072 49.116c64.871-12.826 121.281-30.228 154.508-49.412 13.192-7.616 21.657-14.941 25.924-21.824 72.817-1.407 151.772-10.76 220.865-24.962l-202.4-116.86z"/><path class="st42" d="M699.727 1070.352c3.504 20.44-4.228 49.945-16.984 62.475l-68.079-39.306-.009-72.285 85.072 49.116z"/></g><g id="Man_with_laptop"><linearGradient id="SVGID_25_" gradientUnits="userSpaceOnUse" x1="685.32" y1="674.218" x2="803.349" y2="674.218" gradientTransform="matrix(1 0 0 -1 0 2019.89)"><stop offset="0" stop-color="#d1d7f3"/><stop offset="1" stop-color="#fff"/></linearGradient><path class="st43" d="M685.32 1323.939h118.03v43.465H685.32z"/><linearGradient id="SVGID_26_" gradientUnits="userSpaceOnUse" x1="815.088" y1="816.6" x2="906.272" y2="816.6" gradientTransform="matrix(1 0 0 -1 0 2019.89)"><stop offset="0" stop-color="#c4c9e5"/><stop offset=".946" stop-color="#f3f3fa"/><stop offset="1" stop-color="#f6f6fb"/></linearGradient><path class="st44" d="M906.272 1189.598c-3.799 3.798-44.26 46.729-44.26 46.729l-46.924-27.092 57.677-38.983 33.507 19.346z"/><linearGradient id="SVGID_27_" gradientUnits="userSpaceOnUse" x1="883.805" y1="870.992" x2="1038.461" y2="870.992" gradientTransform="matrix(1 0 0 -1 0 2019.89)"><stop offset="0" stop-color="#c4c9e5"/><stop offset=".363" stop-color="#dfe2f1"/><stop offset=".754" stop-color="#f6f7fb" stop-opacity=".5"/><stop offset="1" stop-color="#fff" stop-opacity="0"/></linearGradient><path class="st45" d="M906.272 1189.598c17.304 2.13 99.804 2.512 132.189-4.242v-74.867c-20.194-4.779-94.56-6.62-132.098 5.451-37.539 12.071-16.894 63.956-16.894 63.956l16.803 9.702z"/><linearGradient id="SVGID_28_" gradientUnits="userSpaceOnUse" x1="3239.806" y1="338.039" x2="3263.366" y2="366.076" gradientTransform="rotate(-146.898 2101.149 1227.722)"><stop offset="0" stop-color="#20196f"/><stop offset=".527" stop-color="#312b8e"/><stop offset="1" stop-color="#423ead"/></linearGradient><path class="st46" d="M690.204 1326.082c6.549 5.978.969 19.19-7.547 24.214-3.931 1.062-11.25-.287-11.25-.287s-29.366-5.604-34.841-8.591c-5.495-2.962-15.793-12.47-10.931-21.974 4.44-4.87 9.98-3.385 17.763-3.053 10.134.419 20.502-1.797 28.29-.838 6.384.772 18.516 10.529 18.516 10.529z"/><path class="st47" d="M638.29 1339.145c5.629 3.07 35.85 8.853 35.85 8.853s7.08 1.278 11.18.345c-.854.729-1.724 1.394-2.661 1.954-3.931 1.062-11.25-.287-11.25-.287s-29.366-5.604-34.841-8.591c-5.495-2.962-15.793-12.47-10.931-21.974.153-.17.326-.295.489-.46-2.325 8.943 6.985 17.373 12.164 20.16z"/><path class="st2" d="M679.534 1307.934c3.194 2.912 11.856 16.058 11.856 16.058s-1.348 1.618-1.64 3.813c-.016.229-.038.451-.054.672.808 3.568.678 8.848-7.428 6.583-15.723-4.405-21.129-20.414-14.089-20.007 4.749.272 9.089-4.635 11.355-7.119z"/><linearGradient id="SVGID_29_" gradientUnits="userSpaceOnUse" x1="3204.934" y1="755.365" x2="3228.497" y2="783.407" gradientTransform="rotate(172.18 1940.264 971.662)"><stop offset="0" stop-color="#20196f"/><stop offset=".527" stop-color="#312b8e"/><stop offset="1" stop-color="#423ead"/></linearGradient><path class="st48" d="M722.053 1320.126c8.88.232 13.304 13.864 10.166 23.247-2.27 3.381-8.687 7.135-8.687 7.135s-25.863 15.008-31.949 16.344c-6.102 1.352-20.112.917-22.67-9.457.177-6.567 5.324-9.085 11.442-13.943 7.927-6.305 14.314-14.776 20.808-19.143 5.339-3.602 20.89-4.183 20.89-4.183z"/><path class="st47" d="M691.382 1364.005c6.279-1.373 32.896-16.796 32.896-16.796s6.186-3.659 8.672-7.061a20.428 20.428 0 0 1-.732 3.223c-2.27 3.381-8.687 7.135-8.687 7.135s-25.863 15.008-31.949 16.344c-6.102 1.352-20.112.917-22.67-9.457.019-.224.073-.431.073-.66 4.097 8.272 16.657 8.547 22.397 7.272z"/><path class="st2" d="M702.108 1313.397c4.333.116 19.476 4.368 19.476 4.368s.032 2.115 1.254 3.969c.131.178.27.352.415.531 2.939 2.169 6.294 6.247-1.316 9.844-14.752 6.965-29.325-1.581-23.739-5.907 3.757-2.883 3.826-9.449 3.91-12.805z"/><linearGradient id="SVGID_30_" gradientUnits="userSpaceOnUse" x1="2049.821" y1="955.75" x2="1828.489" y2="731.114" gradientTransform="scale(1 -1) rotate(2.476 48502.972 -27627.785)"><stop offset="0" stop-color="#20196f"/><stop offset="1" stop-color="#362e94"/></linearGradient><path class="st49" d="M856.727 1087.41s66.706 27.787 52.963 41.935c-13.75 14.155-136.113 37.273-172.756 40.865l-36.796-25.649c18.075-23.197 145.123-51.949 156.589-57.151z"/><path class="st50" d="M757.926 1180.848c11.304-6.72 111.043-72.345 111.043-72.345l67.645-4.379c5.494 9.73 8.74 55.15-15.782 71.025-27.955 18.103-99.855 38.467-138.961 44.473l-27.485-35.953c1.501-1.344 2.725-2.332 3.54-2.821z"/><path class="st50" d="M754.387 1183.669l27.485 35.953c-7.494 25.827-85.435 103.839-85.435 103.839-11.719 2.389-24.529-4.476-25.156-14.262 5.922-12.238 60.584-99.782 83.106-125.53z"/><linearGradient id="SVGID_31_" gradientUnits="userSpaceOnUse" x1="2041.918" y1="1001.423" x2="1835.484" y2="791.908" gradientTransform="scale(1 -1) rotate(7.932 16336.073 -8717.815)"><stop offset="0" stop-color="#20196f"/><stop offset="1" stop-color="#362e94"/></linearGradient><path class="st51" d="M700.139 1144.562l36.796 25.649c6.033 31.049-2.662 113.277-8.341 144.338-5.617 11.237-28.862 8.172-31.233 2.203 0 .001-11.511-148.063 2.778-172.19z"/><g><path class="st2" d="M773.647 1088.562c1.647-.95 4.37-.95 6.033 0l101.456 58.586c1.669.963 1.669 2.539 0 3.489l-69.154 39.932c-1.654.958-4.378.958-6.032 0l-101.48-58.578c-1.654-.963-1.654-2.526 0-3.492l69.177-39.937z"/><path class="st52" d="M805.834 1182.263l4.972 2.866-2.487 1.431-4.97-2.874zM797.477 1177.438l4.964 2.858-2.485 1.431-4.958-2.862zM789.121 1172.609l4.963 2.871-2.479 1.427-4.963-2.858zM780.764 1167.781l4.972 2.871-2.487 1.435-4.962-2.875zM772.408 1162.968l4.963 2.855-2.478 1.431-4.97-2.863zM764.043 1158.14l4.964 2.863-2.478 1.422-4.963-2.857zM755.687 1153.312l4.964 2.866-2.478 1.423-4.956-2.859zM747.346 1148.483l4.948 2.866-2.478 1.436-4.963-2.871zM738.982 1143.658l4.956 2.863-2.478 1.436-4.956-2.867zM730.618 1138.834l4.97 2.862-2.486 1.435-4.963-2.866zM722.261 1134.008l4.955 2.868-2.469 1.432-4.964-2.868zM713.905 1129.18l4.97 2.862-2.486 1.436-4.962-2.87zM810.235 1175.148l8.92 5.148-4.964 2.866-8.919-5.147zM814.852 1168.561l12.312 7.118-4.963 2.866-12.32-7.122zM819.808 1161.774l15.72 9.068-4.964 2.871-15.712-9.073zM836.705 1159.857l8.934 5.148-6.725 3.884-8.918-5.148zM824.394 1152.748l8.926 5.152-6.717 3.874-8.928-5.151zM812.082 1145.637l8.918 5.144-6.71 3.887-8.925-5.152zM769.622 1121.117l8.912 5.164-6.718 3.862-8.919-5.147zM748.747 1109.072l17.489 10.096-6.709 3.882-17.498-10.106zM781.919 1128.213l26.77 15.467-6.717 3.873-26.779-15.456zM799.54 1168.975l7.293 4.211-4.954 2.87-7.303-4.214zM804.147 1162.392l7.312 4.215-4.963 2.863-7.309-4.215zM808.896 1155.734l7.288 4.211-4.956 2.866-7.302-4.215zM798.184 1149.557l7.304 4.223-4.963 2.867-7.295-4.224zM787.496 1143.385l7.295 4.21-4.955 2.871-7.303-4.215zM776.802 1137.208l7.301 4.215-4.954 2.866-7.311-4.218zM766.098 1131.026l7.311 4.22-4.972 2.87-7.287-4.219zM755.41 1124.855l7.295 4.214-4.956 2.866-7.309-4.218zM738.405 1115.04l13.612 7.855-4.963 2.862-13.612-7.85zM793.454 1156.212l7.3 4.213-4.961 2.863-7.288-4.206zM782.758 1150.039l7.308 4.218-4.969 2.867-7.295-4.223zM772.069 1143.862l7.303 4.21-4.972 2.871-7.293-4.21zM761.366 1137.681l7.302 4.219-4.955 2.871-7.302-4.22zM750.671 1131.507l7.309 4.22-4.971 2.867-7.295-4.216zM730.271 1119.725l17.013 9.821-4.97 2.865-16.999-9.811zM788.836 1162.803l7.302 4.202-4.962 2.87-7.294-4.21zM778.14 1156.614l7.304 4.219-4.955 2.866-7.304-4.215zM767.461 1150.449l7.302 4.215-4.971 2.862-7.303-4.214zM756.758 1144.272l7.301 4.215-4.963 2.862-7.302-4.214zM746.061 1138.092l7.301 4.219-4.97 2.858-7.295-4.211zM735.366 1131.922l7.294 4.215-4.956 2.858-7.302-4.213zM722.261 1124.357l9.703 5.608-4.954 2.861-9.712-5.607z"/><path class="st53" d="M717.53 1136.744l80.178 46.29-2.408 1.393-80.181-46.289z"/><path class="st52" d="M781.919 1122.238l40.912 23.623 25.426-14.689-40.915-23.611z"/><linearGradient id="SVGID_32_" gradientUnits="userSpaceOnUse" x1="148.363" y1="858.219" x2="327.512" y2="858.219" gradientTransform="matrix(1 0 0 -1 554.87 2019.89)"><stop offset=".562" stop-color="#a3a9ca"/><stop offset=".612" stop-color="#ccd0f2"/></linearGradient><path class="st54" d="M881.135 1150.636l-69.154 39.932c-1.309.755-3.3.916-4.893.468-.009-.003-.994-.382-1.138-.468l-101.48-58.578a3.95 3.95 0 0 1-.308-.212c-.015 0-.015-.005-.029-.012-.016-.02-.038-.034-.061-.059-.062-.05-.116-.096-.17-.141-.03-.025-.061-.049-.084-.079-.046-.059-.116-.125-.17-.187-.008-.012-.015-.012-.015-.029-.009 0-.016-.008-.016-.008a1.22 1.22 0 0 1-.154-.236 1.616 1.616 0 0 1-.231-.718v1.457h.016c-.016.635.392 1.278 1.223 1.767l101.48 58.578c2.416 1.194 5.87.967 6.901.743 1.03-.232 1.955-.485 3.032-.717l65.252-37.679c.845-.49 1.255-1.129 1.246-1.771v-3.775c-.008.625-.423 1.251-1.247 1.724z"/></g><g><path class="st55" d="M768.469 1099.264c-7.734 4.134-24.332 6.654-29.164 10.9-4.855 4.252-5.902 16.775-2.279 20.779 3.617 4.017 7.772 3.859 5.694 0-2.085-3.855-1.539-11.339 4.224-11.934 11.135-1.165-2.917 11.157 2.347 11.27 4.887.108 7.011-6.206 12.966-10.755 5.956-4.555 10.134-5.959 15.712-10.873 4.95-4.331-9.5-9.387-9.5-9.387z"/><path class="st22" d="M850.289 944.603c-29.65 18.967-26.48 90.787-29.334 94.708-2.839 3.909-34.02 36.438-56.257 59.953 3.193 4.86 12.042 13.256 12.042 13.256 12.766-9.016 53.702-30.168 62.297-45.654 8.604-15.482 11.252-122.263 11.252-122.263z"/></g><g><linearGradient id="SVGID_33_" gradientUnits="userSpaceOnUse" x1="799.067" y1="987.924" x2="680.078" y2="987.924" gradientTransform="matrix(1 0 0 -1 145.255 2019.89)"><stop offset="0" stop-color="#dfe4f4"/><stop offset="1" stop-color="#fff"/></linearGradient><path class="st56" d="M933.708 966.687c-10.118-12.677-35.003-30.349-51.302-31.553-27.717-2.047-39.347 11.246-49.086 39.338-6.154 17.753-2.047 99.581-7.987 124.061 2.939 12.92 22.151 19.915 31.155 21.885 39.112 8.579 81.034 16.94 83.74-7.898 4.857-44.56 8.092-131.226-6.52-145.833z"/></g><g><path class="st55" d="M885.902 898.349c1.014-8.985-30.019 9.295-28.773 21.156 1.017 9.65 3.816 18.138-5.932 24.174-3.356 2.693-14.658 18.917 2.831 21.641 20.445 3.181 40.599-13.563 50.356-22.319-10.912-6.161-21.771-15.55-18.482-44.652z"/><path class="st55" d="M893.211 893.029l-12.605-17.733h-54.871v27.49c0 22.892 12.29 38.563 27.424 38.563 14.711 0 28.37-12.177 29.079-29.652l6.67-2.304 4.303-16.364z"/><path class="st57" d="M854.437 950.181c13.105 0 29.347-21.057 27.802-38.477-.662 16.42-14.707 28.27-28.359 29.644-1.153.966-1.755 1.316-2.683 2.331-.261.207-.576.534-.908.923 0 2.667 1.762 5.579 4.148 5.579z"/><path class="st50" d="M836.784 889.011c-20.113 11.03-50.399-3.932-19.906-22.727 28.355-17.472 50.592-21.784 66.643-2.479 24.178 29.102 7.019 65.626 5.117 63.048-6.309-8.495-.185-21.075-10.611-23.685.67-5.995-.591-19.644-5.333-9.761-4.986 10.393-8.593-3.913-10.879-9.388-2.346-5.623-9.303-3.621-25.031 4.992z"/></g><g><path class="st55" d="M823.802 1124.5c-11.551 8.065-14.714 3.082-20.901 5.866-6.185 2.783-12.066 7.053-14.181 8.517-2.132 1.465 5.086 1.179 8.158 0-7.019 5.866-7.618 13.569-6.309 17.016 1.507 3.945 11.464 7.687 13.749 5.476 9.589-9.247 7.919-12.892 21.016-16.319 4.693-1.219 11.412-8.122 11.412-8.122l-12.944-12.434z"/><linearGradient id="SVGID_34_" gradientUnits="userSpaceOnUse" x1="2501.037" y1="915.914" x2="2378.112" y2="1040.415" gradientTransform="rotate(180 1665.612 1009.945)"><stop offset="0" stop-color="#dfe4f4"/><stop offset="1" stop-color="#ced3f8"/></linearGradient><path class="st58" d="M919.334 962.558c10.472-1.797 19.729 6.652 21.691 24.492 3.186 29.098-15.353 71.243-25.149 86.909-9.796 15.664-72.601 63.779-79.941 67.011-2.917-4.219-13.482-16.845-13.99-17.675 7.433-8.383 58.159-61.411 64.022-77.124 8.542-22.804.511-77.973 33.367-83.613z"/></g><g><path class="st32" d="M679.55 1086.014l97.821 56.3a10.608 10.608 0 0 1 3.848 3.804l25.216 42.79c.477.796-.415 1.697-1.216 1.236l-102.094-58.756a5.598 5.598 0 0 1-1.97-1.941l-23.597-40.042c-1.757-2.967-.506-4.826 1.992-3.391z"/><linearGradient id="SVGID_35_" gradientUnits="userSpaceOnUse" x1="2523.312" y1="882.812" x2="2654.123" y2="882.812" gradientTransform="rotate(180 1665.612 1009.945)"><stop offset=".332" stop-color="#6b67e9"/><stop offset=".415" stop-color="#807dfb"/></linearGradient><path class="st59" d="M806.434 1188.908l-25.216-42.79a10.67 10.67 0 0 0-3.848-3.804l-97.821-56.3c-1.131-.639-1.97-.6-2.433-.104l-.016-.019s.723-.84 1.4-1.398l.008.017c.473-.444 1.3-.471 2.385.158l97.822 56.285a10.587 10.587 0 0 1 3.84 3.816l25.229 42.793c.215.36.131.726-.077.995v.009c0 .008-.015.02-.032.029a.729.729 0 0 1-.077.083c-.352.328-1.13 1.137-1.284 1.29a.86.86 0 0 0 .12-1.06z"/></g></g><path class="st60" d="M1226.911 249.663l-19.378 11.183c-11.313 6.534-26.893-29.134-39.558-21.823l-33.958 19.603c-25.319 14.612-16.182-27.945-54.051-6.078-44.5 25.695-40.858 77.269-66.176 91.89l-33.958 19.603c-12.655 7.312-16.115 37.574-27.431 44.109l-19.379 11.183c-4.211 2.437-12.271 9.168-12.275 17.984l159.221-91.923s153.456-88.606 159.222-91.928c-.002-8.817-8.063-6.243-12.279-3.803z" id="Cloud"/></g></svg>