<svg id="Layer_1" xmlns="http://www.w3.org/2000/svg" xmlns:xlink="http://www.w3.org/1999/xlink" viewBox="0 0 2290.884 2020.845"><style>.st0{fill:url(#SVGID_1_)}.st1{fill:#e8ecf7}.st2{fill:#fff}.st3{fill:url(#SVGID_2_)}.st4{fill:#423eaf}.st5{fill:#807dfb}.st6{fill:#dae0f5}.st7{fill:#bbc0e6}.st8{fill:#ced3f8}.st9{fill:url(#SVGID_3_)}.st10{fill:#5652cc}.st11{fill:#f1f1f6}.st12{fill:url(#SVGID_4_)}.st13{fill:url(#SVGID_5_)}.st14{fill:url(#SVGID_6_)}.st15{fill:url(#SVGID_7_)}.st16{fill:url(#SVGID_8_)}.st17{fill:#f6f6fb}.st18{fill:url(#SVGID_9_)}.st19{fill:url(#SVGID_10_)}.st20{fill:url(#SVGID_11_)}.st21{fill:url(#SVGID_12_)}.st22{fill:#6b67e9}.st23{fill:url(#SVGID_13_)}.st24{fill:#fc780b}.st25{fill:url(#SVGID_14_)}.st26{fill:url(#SVGID_15_)}.st27{fill:#c4cae9}.st28{fill:url(#SVGID_16_)}.st29{fill:url(#SVGID_17_)}.st30{fill:url(#SVGID_18_)}.st31{fill:url(#SVGID_19_)}.st32{fill:#fd9009}.st33{fill:url(#SVGID_20_)}.st34{fill:url(#SVGID_21_)}.st35{fill:url(#SVGID_22_)}.st36{fill:url(#SVGID_23_)}.st37{fill:url(#SVGID_24_)}.st38{fill:url(#SVGID_25_)}.st39{fill:url(#SVGID_26_)}.st40{fill:url(#SVGID_27_)}.st41{fill:url(#SVGID_28_)}.st42{fill:#ef4e16}.st43{fill:#ffad02}.st44{fill:#931d0a}.st45{fill:url(#SVGID_29_)}.st46{fill:url(#SVGID_30_)}.st47{fill:url(#SVGID_31_)}.st48{fill:url(#SVGID_32_)}.st49{fill:url(#SVGID_33_)}.st50{fill:#b9bee4}.st51{fill:#ccd1f6}.st52{fill:url(#SVGID_34_)}.st53{fill:url(#SVGID_35_)}.st54{fill:url(#SVGID_36_)}.st55{fill:url(#SVGID_37_)}.st56{fill:url(#SVGID_38_)}.st57{fill:url(#SVGID_39_)}.st58{fill:url(#SVGID_40_)}.st59{fill:url(#SVGID_41_)}.st60{fill:url(#SVGID_42_)}.st61{fill:url(#SVGID_43_)}.st62{fill:#121047}.st63{fill:#131147}.st64{fill:url(#SVGID_44_)}.st65{fill:url(#SVGID_45_)}.st66{fill:url(#SVGID_46_)}.st67{fill:url(#SVGID_47_)}.st68{fill:#fcd1a9}.st69{fill:#20196f}.st70{fill:url(#SVGID_48_)}.st71{fill:url(#SVGID_49_)}.st72{fill:url(#SVGID_50_)}.st73{fill:url(#SVGID_51_)}.st74{fill:url(#SVGID_52_)}.st75{fill:url(#SVGID_53_)}.st76{fill:#dfe5f1}.st77{fill:#dd3b10}.st78{fill:url(#SVGID_54_)}.st79{fill:url(#SVGID_55_)}.st80{fill:url(#SVGID_56_)}.st81{fill:url(#SVGID_57_)}.st82{fill:url(#SVGID_58_)}.st83{fill:url(#SVGID_59_)}.st84{fill:url(#SVGID_60_)}.st85{fill:#fcd1c7}.st86{fill:#1f196f}.st87{fill:url(#SVGID_61_)}.st88{fill:url(#SVGID_62_)}.st89{fill:url(#SVGID_63_)}.st90{fill:url(#SVGID_64_)}.st91{fill:url(#SVGID_65_)}.st92{fill:url(#SVGID_66_)}.st93{fill:url(#SVGID_67_)}.st94{fill:url(#SVGID_68_)}.st95{fill:url(#SVGID_69_)}.st96{fill:url(#SVGID_70_)}.st97{fill:url(#SVGID_71_)}.st98{fill:url(#SVGID_72_)}.st99{fill:#facfa7}.st100{fill:url(#SVGID_73_)}.st101{fill:url(#SVGID_74_)}.st102{fill:url(#SVGID_75_)}.st103{fill:#807cfb}</style><g id="Wave_shape"><linearGradient id="SVGID_1_" gradientUnits="userSpaceOnUse" x1="723.987" y1="318.876" x2="1621.269" y2="1567.267" gradientTransform="matrix(1 0 0 -1 0 2019.89)"><stop offset="0" stop-color="#fff" stop-opacity="0"/><stop offset=".526" stop-color="#f9f9fb" stop-opacity=".526"/><stop offset="1" stop-color="#efeff3"/></linearGradient><path class="st0" d="M1779.961 1610.718c502.061-185.359 685.144-742.438 247.052-818.77-719.483-125.36-839.916-268.929-1127.125-345.338-472.46-125.692-707.077 196.967-653.826 645.592 66.886 563.486 735.726 813.199 1533.899 518.516z"/></g><g id="Abstract_shapes"><path class="st1" d="M226.916 697.4l41.255 88.896c2.495 5.375 9.062 7.452 14.193 4.488l112.714-65.075c8.248-4.762 5.91-17.241-3.498-18.695l-153.975-23.823c-7.963-1.237-14.08 6.899-10.689 14.209zM1546.247 1659.33c-33.688-19.446-88.307-19.446-121.992 0-33.688 19.452-33.688 50.987 0 70.434 33.688 19.452 88.307 19.452 121.995 0 33.689-19.446 33.685-50.981-.003-70.434zm-93.206 53.816c-17.789-10.272-17.792-26.924 0-37.196 17.789-10.272 46.633-10.272 64.422 0 17.792 10.272 17.792 26.924 0 37.196-17.789 10.272-46.633 10.272-64.422 0zM214.886 1157.269c5.94 3.428 15.563 3.428 21.503 0 5.937-3.428 5.937-8.987 0-12.414-5.94-3.428-15.563-3.428-21.503 0-5.937 3.426-5.937 8.986 0 12.414zM267.497 1187.641c5.937 3.428 15.565 3.428 21.501 0 5.94-3.428 5.94-8.987 0-12.414-5.936-3.428-15.563-3.428-21.501 0-5.938 3.428-5.938 8.987 0 12.414zM320.107 1218.013c5.937 3.428 15.563 3.428 21.501 0 5.937-3.428 5.937-8.984 0-12.412-5.937-3.428-15.563-3.428-21.501 0-5.94 3.427-5.94 8.984 0 12.412z"/><ellipse class="st1" cx="383.465" cy="1242.178" rx="15.206" ry="8.778"/><path class="st1" d="M162.28 1187.641c5.936 3.428 15.563 3.428 21.501 0 5.94-3.428 5.94-8.987 0-12.414-5.937-3.428-15.563-3.428-21.501 0-5.938 3.428-5.938 8.987 0 12.414zM214.886 1218.013c5.94 3.428 15.567 3.428 21.503 0 5.937-3.428 5.937-8.984 0-12.412s-15.563-3.428-21.503 0c-5.937 3.427-5.937 8.984 0 12.412zM267.497 1248.386c5.94 3.428 15.565 3.428 21.503 0 5.937-3.428 5.937-8.988-.003-12.416-5.936-3.428-15.561-3.428-21.501 0-5.937 3.428-5.937 8.988.001 12.416zM341.608 1266.352c-5.937-3.428-15.563-3.435-21.501 0-5.937 3.428-5.937 8.982 0 12.41s15.563 3.428 21.501 0c5.936-3.429 5.936-8.983 0-12.41zM109.669 1218.013c5.94 3.428 15.567 3.428 21.503 0s5.936-8.984 0-12.412c-5.94-3.428-15.563-3.428-21.503 0-5.937 3.427-5.937 8.984 0 12.412zM162.28 1248.386c5.936 3.428 15.563 3.428 21.501 0 5.94-3.428 5.94-8.988 0-12.416-5.937-3.428-15.563-3.428-21.501 0s-5.938 8.988 0 12.416zM214.889 1278.76c5.937 3.428 15.563 3.428 21.501 0 5.937-3.428 5.937-8.982 0-12.41-5.937-3.435-15.563-3.435-21.501 0-5.94 3.429-5.94 8.983 0 12.41zM289 1296.722c-5.94-3.428-15.563-3.428-21.503 0-5.937 3.428-5.937 8.987 0 12.414 5.94 3.428 15.565 3.428 21.503 0 5.937-3.428 5.937-8.987 0-12.414z"/><ellipse class="st1" cx="67.812" cy="1242.178" rx="15.204" ry="8.778"/><path class="st1" d="M109.672 1278.76c5.936 3.428 15.563 3.428 21.501 0 5.937-3.428 5.936-8.982 0-12.418-5.936-3.428-15.563-3.428-21.501 0-5.94 3.437-5.94 8.991 0 12.418zM162.28 1309.136c5.936 3.428 15.563 3.428 21.501 0 5.94-3.433 5.94-8.987 0-12.414-5.937-3.428-15.563-3.428-21.501 0s-5.938 8.981 0 12.414zM236.39 1327.094c-5.937-3.428-15.563-3.428-21.501 0-5.936 3.428-5.936 8.989 0 12.417 5.937 3.428 15.563 3.428 21.501 0 5.937-3.427 5.937-8.989 0-12.417zM25.955 1266.344c-5.94-3.428-15.565-3.428-21.503 0-5.936 3.435-5.936 8.99 0 12.418 5.94 3.428 15.563 3.428 21.503 0 5.936-3.429 5.936-8.983 0-12.418zM78.562 1296.722c-5.937-3.428-15.563-3.428-21.501 0s-5.937 8.981 0 12.414c5.937 3.428 15.563 3.428 21.501 0 5.94-3.433 5.94-8.987 0-12.414zM131.172 1327.094c-5.936-3.428-15.563-3.428-21.501 0-5.94 3.428-5.94 8.989 0 12.417 5.936 3.428 15.563 3.428 21.501 0 5.938-3.428 5.938-8.989 0-12.417zM183.78 1357.467c-5.937-3.428-15.563-3.428-21.501 0-5.937 3.428-5.937 8.987 0 12.414 5.94 3.428 15.563 3.428 21.503 0 5.938-3.427 5.938-8.986-.002-12.414z"/><g><path class="st2" d="M2286.432 1028.234c-5.939-3.428-15.563-3.428-21.503 0-5.934 3.431-5.934 8.984 0 12.414 5.939 3.428 15.567 3.428 21.503 0 5.936-3.427 5.936-8.984 0-12.414zM2233.822 1058.61c-5.936-3.428-15.563-3.428-21.501 0-5.937 3.428-5.937 8.983 0 12.414 5.936 3.428 15.563 3.428 21.501 0 5.939-3.43 5.939-8.986 0-12.414zM2181.214 1088.982c-5.937-3.428-15.563-3.428-21.501 0-5.94 3.428-5.94 8.987 0 12.414 5.937 3.428 15.563 3.428 21.501 0 5.937-3.427 5.937-8.986 0-12.414zM2128.607 1119.353c-5.94-3.428-15.567-3.428-21.503 0-5.938 3.431-5.938 8.989 0 12.417 5.939 3.428 15.563 3.428 21.503 0 5.934-3.429 5.934-8.988 0-12.417zM2075.997 1149.729c-5.94-3.428-15.563-3.428-21.504 0-5.934 3.428-5.934 8.985 0 12.417 5.939 3.428 15.564 3.428 21.504 0 5.937-3.431 5.937-8.989 0-12.417z"/></g><path class="st1" d="M2146.106 786.901l47.271 27.29c7.208 4.161 6.303 11.429-2.019 16.234l-43.232 24.964c-8.321 4.804-20.912 5.324-28.118 1.165l-47.271-27.29c-7.208-4.161-6.303-11.429 2.019-16.236l43.232-24.96c8.323-4.806 20.912-5.328 28.118-1.167z"/></g><g id="Objects"><g id="Microscheme"><linearGradient id="SVGID_2_" gradientUnits="userSpaceOnUse" x1="501.088" y1="982.879" x2="537.101" y2="1045.255" gradientTransform="matrix(1 0 0 -1 0 2019.89)"><stop offset="0" stop-color="#d1d7f3"/><stop offset=".373" stop-color="#eaecf9"/><stop offset=".724" stop-color="#f9fafe"/><stop offset="1" stop-color="#fff"/></linearGradient><path class="st3" d="M559.438 1029.563l27.493-15.874-22.324-12.888 8.906-5.144-8.869-5.12H546.83l-29.868-17.245-27.493 15.874h-31.892l16.275 9.464h-29.687l8.869 5.12h1.993l-5.773 3.334h29.688l4.835-2.792 8.771 5.131H462.86l8.869 5.121h1.993l-5.773 3.334h29.688l4.835-2.792 8.771 5.131h-29.688l8.87 5.121h1.992l-5.772 3.333h29.687l4.835-2.791 6.38 3.683h14.295l29.161 16.836 5.621-3.246-23.539-13.59z"/><path class="st4" d="M528.981 987.088v6.666l9.07-5.236v10.473l5.774-3.334v-17.139z"/><path class="st5" d="M528.981 987.088l-8.869-5.121 14.844-8.57 8.869 5.121z"/><path class="st4" d="M510.286 976.294v6.667l9.07-5.237v10.474l5.774-3.334v-17.139z"/><path class="st5" d="M510.286 976.294l-8.869-5.121 14.844-8.57 8.869 5.122z"/><path class="st4" d="M491.591 965.5v6.667l9.07-5.237v10.475l5.774-3.334V956.93z"/><path class="st5" d="M491.591 965.5l-8.869-5.12 14.844-8.57 8.869 5.12z"/><path class="st6" d="M540.836 984.09l-69.969-40.397-27.493 15.873 69.969 40.397z"/><path class="st7" d="M513.343 999.963l-69.969-40.397v18.412l69.969 40.398z"/><path class="st8" d="M540.836 984.09l-27.493 15.873v18.413l27.493-15.874z"/><path class="st6" d="M533.209 1006.876l-8.061 4.655v-8.039h8.061z"/><linearGradient id="SVGID_3_" gradientUnits="userSpaceOnUse" x1="526.087" y1="1018.465" x2="590.985" y2="982.131" gradientTransform="matrix(1 0 0 -1 0 2019.89)"><stop offset="0" stop-color="#c6290a"/><stop offset=".036" stop-color="#cf3a0a"/><stop offset=".105" stop-color="#dd550a"/><stop offset=".184" stop-color="#e96b09"/><stop offset=".277" stop-color="#f27c09"/><stop offset=".392" stop-color="#f88709"/><stop offset=".553" stop-color="#fc8e09"/><stop offset="1" stop-color="#fd9009"/></linearGradient><path class="st9" d="M529.652 998.785a.088.088 0 0 1-.005.015c-.472-.264-1.119-.224-1.833.189-1.443.834-2.613 2.86-2.613 4.526 0 .825.289 1.405.753 1.682l-.009.01 59.992 34.363 7.415-4.28-63.7-36.505z"/><path class="st4" d="M501.488 1002.96v6.667l-9.071 5.238v10.473l-5.772 3.333v-17.141z"/><path class="st5" d="M486.645 1011.531l-8.87-5.121 14.843-8.57 8.87 5.12z"/><path class="st10" d="M486.645 1028.671l-8.87-5.121v-17.14l8.87 5.121z"/><path class="st4" d="M482.793 992.167v6.667l-9.071 5.236v10.474l-5.773 3.334v-17.141z"/><path class="st5" d="M467.949 1000.737l-8.87-5.121 14.844-8.57 8.87 5.121z"/><path class="st10" d="M467.949 1017.878l-8.87-5.121v-17.141l8.87 5.121z"/><path class="st4" d="M464.098 981.373v6.667l-9.071 5.237v10.473l-5.774 3.334v-17.141z"/><path class="st5" d="M449.253 989.944l-8.869-5.121 14.844-8.57 8.87 5.12z"/><path class="st10" d="M449.253 1007.084l-8.869-5.122v-17.139l8.869 5.121z"/><path class="st8" d="M497.284 985.294l12.603 7.276 18.146-10.476-12.604-7.276z"/><path class="st11" d="M492.618 997.84l8.87 5.12-3.676 2.123-8.871-5.12z"/><path class="st11" d="M497.812 1005.083l-2.111 7.885 5.787-3.341v-6.667zM473.923 987.046l8.87 5.121-3.676 2.123-8.871-5.12z"/><path class="st11" d="M479.117 994.29l-2.111 7.885 5.787-3.341v-6.667zM455.228 976.253l8.87 5.12-3.677 2.124-8.87-5.122z"/><path class="st11" d="M460.421 983.497l-2.11 7.884 5.787-3.341v-6.667z"/></g><g id="Back_blocks"><linearGradient id="SVGID_4_" gradientUnits="userSpaceOnUse" x1="2287.013" y1="1272.5" x2="2176.539" y2="1272.5" gradientTransform="matrix(-1.1093 0 0 -1 3666.525 2019.89)"><stop offset="0" stop-color="#c4cae9"/><stop offset="1" stop-color="#fff"/></linearGradient><path class="st12" d="M1252.091 715.796h-122.549v63.188h122.549z"/><linearGradient id="SVGID_5_" gradientUnits="userSpaceOnUse" x1="1237.511" y1="1246.142" x2="924.643" y2="1246.142" gradientTransform="matrix(1 0 0 -1 0 2019.89)"><stop offset="0" stop-color="#fff"/><stop offset=".298" stop-color="#f2f3fa"/><stop offset=".854" stop-color="#ced3ed"/><stop offset="1" stop-color="#c4cae9"/></linearGradient><path class="st13" d="M1237.51 698.385H924.643v107.112h33.243v21.537h42.016v22.076h237.608V741.999z"/><path class="st2" d="M1121.137 713.091l-42.235-24.385c-2.321-1.34-3.481-3.096-3.481-4.853s1.16-3.512 3.481-4.853l42.234-24.385c2.321-1.339 5.363-2.009 8.405-2.009 3.042 0 6.084.67 8.404 2.009L1180.18 679c2.321 1.34 3.481 3.096 3.481 4.853s-1.16 3.512-3.481 4.853l-42.235 24.385c-2.321 1.34-5.363 2.009-8.404 2.009-3.041.002-6.083-.669-8.404-2.009z"/><linearGradient id="SVGID_6_" gradientUnits="userSpaceOnUse" x1="1075.421" y1="1288.47" x2="1183.663" y2="1288.47" gradientTransform="matrix(1 0 0 -1 0 2019.89)"><stop offset=".396" stop-color="#ced3f8"/><stop offset=".552" stop-color="#bec3e9"/><stop offset=".574" stop-color="#bbc0e6"/></linearGradient><path class="st14" d="M1180.182 688.708l-42.235 24.385c-2.321 1.34-5.363 2.009-8.404 2.009-3.043 0-6.084-.67-8.405-2.009l-42.235-24.385c-2.321-1.34-3.482-3.096-3.482-4.853v63.883c0 1.756 1.161 3.513 3.482 4.853l42.235 24.384c2.321 1.34 5.363 2.01 8.405 2.01 3.042 0 6.084-.67 8.404-2.01l42.235-24.383c2.321-1.34 3.481-3.096 3.481-4.853v-63.883c0 1.755-1.16 3.511-3.481 4.852z"/><linearGradient id="SVGID_7_" gradientUnits="userSpaceOnUse" x1="1111.51" y1="1336.035" x2="1147.573" y2="1336.035" gradientTransform="matrix(1 0 0 -1 0 2019.89)"><stop offset="0" stop-color="#a3a9d0"/><stop offset="1" stop-color="#bbc0e6"/></linearGradient><ellipse class="st15" cx="1129.541" cy="683.855" rx="18.031" ry="10.41"/><g><linearGradient id="SVGID_8_" gradientUnits="userSpaceOnUse" x1="903.131" y1="1304.093" x2="1023.066" y2="1304.093" gradientTransform="matrix(1 0 0 -1 0 2019.89)"><stop offset="0" stop-color="#ced3f8"/><stop offset=".29" stop-color="#bec3e9"/><stop offset=".332" stop-color="#bbc0e6"/></linearGradient><path class="st16" d="M903.131 670.501v122.576c0 3.175 2.099 6.354 6.297 8.779 4.202 2.425 9.707 3.642 15.215 3.642 5.505 0 11.01-1.216 15.21-3.642l76.909-44.397c4.2-2.428 6.304-5.608 6.304-8.787V626.095l-119.935 44.406z"/><path class="st17" d="M1016.762 617.311c-4.331-2.499-10.041-3.707-15.716-3.633-5.334.075-10.635 1.282-14.709 3.642l-76.909 44.401c-4.199 2.421-6.297 5.596-6.297 8.779 0 3.175 2.099 6.355 6.297 8.776 4.202 2.433 9.707 3.642 15.215 3.642 5.505 0 11.01-1.209 15.21-3.637l76.909-44.401c4.2-2.425 6.304-5.604 6.304-8.784s-2.103-6.355-6.304-8.785z"/><linearGradient id="SVGID_9_" gradientUnits="userSpaceOnUse" x1="940.764" y1="1282.289" x2="1060.697" y2="1282.289" gradientTransform="matrix(1 0 0 -1 0 2019.89)"><stop offset="0" stop-color="#ced3f8"/><stop offset=".29" stop-color="#bec3e9"/><stop offset=".332" stop-color="#bbc0e6"/></linearGradient><path class="st18" d="M940.764 692.307v122.579c0 3.171 2.097 6.354 6.297 8.775 4.2 2.429 9.707 3.637 15.213 3.637 5.503 0 11.01-1.209 15.21-3.637l76.909-44.397c4.2-2.428 6.305-5.604 6.305-8.784V647.902l-119.934 44.405z"/><path class="st17" d="M1054.393 639.122c-4.33-2.499-10.044-3.712-15.716-3.633-5.336.07-10.635 1.282-14.71 3.633l-76.907 44.406c-4.2 2.424-6.303 5.599-6.297 8.779 0 3.183 2.097 6.354 6.297 8.779 4.2 2.425 9.707 3.642 15.212 3.642 5.503 0 11.01-1.216 15.21-3.642l76.909-44.401c4.2-2.425 6.305-5.605 6.305-8.784.001-3.175-2.103-6.35-6.303-8.779z"/><linearGradient id="SVGID_10_" gradientUnits="userSpaceOnUse" x1="978.393" y1="1260.479" x2="1098.322" y2="1260.479" gradientTransform="matrix(1 0 0 -1 0 2019.89)"><stop offset="0" stop-color="#ced3f8"/><stop offset=".29" stop-color="#bec3e9"/><stop offset=".332" stop-color="#bbc0e6"/></linearGradient><path class="st19" d="M978.393 714.118v122.575c0 3.175 2.099 6.355 6.295 8.779 4.202 2.425 9.709 3.637 15.215 3.637 5.503 0 11.013-1.212 15.21-3.633l76.91-44.405c4.199-2.425 6.299-5.605 6.299-8.784V669.713l-119.929 44.405z"/><path class="st17" d="M1092.024 660.929c-4.331-2.495-10.046-3.707-15.716-3.633-5.338.075-10.637 1.282-14.709 3.637l-76.911 44.4c-4.198 2.425-6.295 5.6-6.295 8.784 0 3.175 2.099 6.354 6.295 8.779 4.202 2.425 9.709 3.642 15.215 3.642 5.503 0 11.013-1.216 15.21-3.642l76.91-44.401c4.199-2.425 6.299-5.604 6.299-8.784.001-3.178-2.099-6.353-6.298-8.782z"/></g></g><g id="Shadow_from_laptop"><linearGradient id="SVGID_11_" gradientUnits="userSpaceOnUse" x1="989.36" y1="1037.158" x2="2155.126" y2="1037.158" gradientTransform="matrix(1 0 0 -1 0 2019.89)"><stop offset="0" stop-color="#c4c9e4"/><stop offset=".236" stop-color="#cacee7"/><stop offset=".541" stop-color="#daddee"/><stop offset=".881" stop-color="#f4f5fa" stop-opacity=".5"/><stop offset="1" stop-color="#fff" stop-opacity="0"/></linearGradient><path class="st20" d="M2155.126 728.864l-29.344-16.944c-8.751-5.053-30.219-9.182-47.721-9.182h-698.12c-17.497 0-384.021 229.306-384.021 229.306-8.746 5.058-8.746 13.315 0 18.373l534.377 308.523c4.401 2.542 10.21 3.796 16.008 3.787h13.895l376.202-217.203 15.529-8.965h203.195V728.864z"/></g><g id="Laptop"><path class="st4" d="M1915.146 1010.759c0 10.105-7.16 14.234-15.91 9.186l-534.375-308.522c-8.756-5.053-15.91-17.45-15.91-27.55V280.812c0-10.103 7.154-14.235 15.91-9.184l534.375 308.522c8.749 5.053 15.91 17.451 15.91 27.556v403.053z"/><linearGradient id="SVGID_12_" gradientUnits="userSpaceOnUse" x1="1499.07" y1="1833.325" x2="1963.257" y2="1029.328" gradientTransform="matrix(1 0 0 -1 0 2019.89)"><stop offset=".576" stop-color="#807cfb"/><stop offset=".612" stop-color="#1f196f"/></linearGradient><path class="st21" d="M1911.246 573.216l-534.379-308.522c-4.432-2.557-8.446-2.753-11.341-1.018v-.01l-11.429 6.629.032.004c2.834-1.373 6.598-1.058 10.734 1.327l534.375 308.522c8.749 5.053 15.91 17.451 15.91 27.556v403.055c0 5.014-1.768 8.556-4.612 10.235v.005l11.42-6.627-.032-.004c3.199-1.516 5.231-5.178 5.231-10.539v-403.06c-.003-10.101-7.163-22.5-15.909-27.553z"/><path class="st2" d="M1708.446 488.363l-343.584-198.367v396.736l534.374 308.522V598.518z"/><g><path class="st11" d="M1536.87 1236.138c-8.746 5.053-23.065 5.053-31.815 0L970.677 927.617c-8.744-5.048-8.744-13.316 0-18.368l364.24-210.293c8.744-5.048 23.063-5.048 31.814 0l534.379 308.526c8.749 5.048 8.749 13.311 0 18.364l-364.24 210.292z"/><path class="st6" d="M1367.292 742.709l-26.133-15.087 13.065-7.545 26.134 15.086zM1411.305 768.123l-26.135-15.092 13.065-7.545 26.136 15.091zM1455.319 793.532l-26.131-15.092 13.065-7.541 26.136 15.092zM1499.33 818.945l-26.129-15.086 13.071-7.545L1512.4 811.4zM1543.347 844.354l-26.133-15.086 13.071-7.541 26.132 15.086zM1587.366 869.773l-26.133-15.092 13.062-7.545 26.141 15.086zM1631.38 895.186l-26.129-15.09 13.067-7.547 26.126 15.087zM1675.397 920.591l-26.135-15.082 13.07-7.551 26.131 15.092zM1719.411 946.004l-26.132-15.082 13.066-7.549 26.135 15.09zM1763.426 971.419l-26.133-15.092 13.071-7.541 26.133 15.086zM1807.445 996.832l-26.134-15.092 13.066-7.541 26.135 15.087zM1851.462 1022.246l-26.141-15.091 13.071-7.547 26.136 15.092zM1344.126 780.158l-46.985-27.127 26.133-15.086 46.983 27.127zM1319.818 814.841l-64.864-37.455 26.138-15.086 64.863 37.455zM1293.683 850.577l-82.745-47.776 26.134-15.087 82.74 47.777zM1204.66 860.678l-46.984-27.122 35.379-20.428 46.986 27.122zM1269.526 898.132l-46.986-27.127 35.379-20.428 46.989 27.127zM1334.392 935.581l-46.984-27.122 35.383-20.433 46.982 27.132zM1558.044 1064.714l-46.98-27.136 35.379-20.424 46.992 27.128zM1667.977 1128.179l-92.154-53.21 35.381-20.423 92.155 53.205zM1493.288 1027.323l-141.01-81.419 35.377-20.424 141.017 81.415zM1400.461 812.684l-38.453-22.198 26.129-15.092 38.455 22.2zM1376.154 847.362l-38.458-22.199 26.136-15.091 38.452 22.198zM1351.222 882.405l-38.451-22.199 26.136-15.086 38.452 22.198zM1407.557 914.927l-38.453-22.2 26.133-15.09 38.453 22.204zM1463.882 947.448l-38.447-22.198 26.133-15.082 38.453 22.198zM1520.222 979.98l-38.453-22.2 26.132-15.096 38.449 22.204zM1576.553 1012.501l-38.448-22.204 26.131-15.086 38.447 22.204zM1632.882 1045.022l-38.447-22.198 26.131-15.097 38.453 22.204zM1722.447 1096.731l-71.681-41.386 26.13-15.087 71.682 41.386zM1432.487 879.884l-38.45-22.195 26.135-15.091 38.448 22.199zM1488.82 912.41l-38.453-22.204 26.136-15.087 38.452 22.204zM1545.145 944.936l-38.449-22.199 26.137-15.097 38.453 22.204zM1601.482 977.457l-38.451-22.198 26.137-15.092 38.448 22.199zM1657.818 1009.984l-38.458-22.204 26.141-15.091 38.453 22.204zM1765.255 1072.015l-89.56-51.713 26.135-15.086 89.565 51.707zM1456.789 845.206l-38.451-22.199 26.136-15.086 38.448 22.198zM1513.124 877.728l-38.453-22.2 26.133-15.086 38.453 22.194zM1569.453 910.249l-38.447-22.199 26.129-15.077 38.453 22.195zM1625.785 942.781l-38.453-22.204 26.134-15.092 38.451 22.204zM1682.12 975.297l-38.452-22.199 26.131-15.082 38.457 22.194zM1738.45 1007.823l-38.448-22.199 26.132-15.087 38.452 22.2zM1807.445 1047.655l-51.11-29.509 26.133-15.087 51.107 29.509z"/><path class="st22" d="M1832.374 982.438l-422.273-243.8 12.687-7.325 422.269 243.806z"/><path class="st6" d="M1493.281 1058.824l-215.48-124.412-133.901 77.309 215.48 124.408z"/><linearGradient id="SVGID_13_" gradientUnits="userSpaceOnUse" x1="964.115" y1="935.956" x2="1907.659" y2="935.956" gradientTransform="matrix(1 0 0 -1 0 2019.89)"><stop offset=".562" stop-color="#5652cc"/><stop offset=".612" stop-color="#1f196f"/></linearGradient><path class="st23" d="M1901.111 1025.846l-364.241 210.293c-6.946 4.014-17.394 4.827-25.794 2.469-.06-.02-5.219-2.006-6.021-2.469L970.677 927.617a19.171 19.171 0 0 1-1.689-1.102.535.535 0 0 0-.08-.062c-.143-.106-.262-.212-.395-.318a14.74 14.74 0 0 1-.883-.74c-.142-.125-.274-.26-.407-.391a12.313 12.313 0 0 1-.914-.996l-.111-.125a11.204 11.204 0 0 1-.891-1.313c-.717-1.236-1.111-2.522-1.165-3.816h-.029v7.7h.06c-.048 3.359 2.088 6.727 6.501 9.277l534.38 308.522c12.753 6.323 30.968 5.092 36.393 3.903 5.421-1.189 10.294-2.546 15.979-3.787l343.682-198.421c4.425-2.556 6.604-5.929 6.547-9.303v-19.884c-.033 3.295-2.218 6.581-6.544 9.085z"/></g></g><g id="Shapes_on_screen"><path class="st6" d="M1415.974 390.116l-27.571-15.919V342.36l27.571 15.919zM1443.848 709.268l-7.952-4.54V349.859l7.952 4.54zM1415.974 461.916l-27.571-15.918v-31.837l27.571 15.918z"/><path class="st24" d="M1415.974 533.716l-27.571-15.918v-31.837l27.571 15.918z"/><path class="st6" d="M1415.974 605.517l-27.571-15.919v-31.837l27.571 15.919zM1415.974 677.317l-27.571-15.919v-31.837l27.571 15.919z"/><path class="st8" d="M1511.328 428.082l-38.546-22.255v-9.172l38.546 22.255zM1852.719 625.183l-320.829-185.23v-9.172l320.829 185.23z"/><path class="st7" d="M1538.746 468.888l-65.964-38.083v-9.172l65.964 38.083zM1852.719 650.161L1559.308 480.76v-9.172l293.411 169.401z"/><path class="st24" d="M1498.34 470.538l-25.558-14.755v-9.173l25.558 14.756z"/><path class="st5" d="M1852.719 675.139l-333.816-192.728v-9.173l333.816 192.729z"/><path class="st7" d="M1557.106 529.444l-84.324-48.684v-9.172l84.324 48.684z"/><path class="st24" d="M1852.719 700.116l-275.051-158.8v-9.172l275.051 158.8z"/><path class="st8" d="M1511.328 527.992l-38.546-22.254v-9.172l38.546 22.254zM1852.719 725.094l-320.829-185.23v-9.173l320.829 185.231z"/><path class="st5" d="M1500.407 546.664l-27.625-15.948v-9.172l27.625 15.948zM1852.719 750.072l-331.75-191.536v-9.173l331.75 191.537z"/><path class="st7" d="M1511.328 577.947l-38.546-22.253v-9.174l38.546 22.255zM1841.228 768.415L1520.4 583.184v-9.172l320.828 185.231z"/><path class="st8" d="M1511.328 602.925l-38.546-22.255v-9.172l38.546 22.255zM1852.719 800.027L1531.89 614.796v-9.172l320.829 185.231zM1523.798 635.101l-38.545-22.253v-9.173l38.545 22.254zM1852.719 825.004l-320.829-185.23v-9.172l320.829 185.23z"/><path class="st24" d="M1497.723 645.025l-24.941-14.399v-9.173l24.941 14.4z"/><path class="st5" d="M1839.47 842.333l-334.434-193.085v-9.173l334.434 193.086z"/><path class="st7" d="M1511.328 677.857l-38.546-22.254v-9.172l38.546 22.254zM1741.421 810.702L1531.89 689.729v-9.172l209.531 120.972z"/><path class="st5" d="M1511.328 702.835l-38.546-22.254v-9.172l38.546 22.254zM1852.719 899.937l-320.829-185.23v-9.172l320.829 185.23z"/><path class="st24" d="M1500.407 721.271l-27.625-15.712v-9.172l27.625 15.712zM1807.415 898.722l-286.446-165.579v-9.172l286.446 165.579z"/></g><g id="Accept_symbol"><linearGradient id="SVGID_14_" gradientUnits="userSpaceOnUse" x1="1126.317" y1="886.026" x2="1254.077" y2="886.026" gradientTransform="matrix(1 0 0 -1 0 2019.89)"><stop offset=".421" stop-color="#c4cae9"/><stop offset=".712" stop-color="#e4e6f5"/><stop offset="1" stop-color="#fff"/></linearGradient><path class="st25" d="M1240.318 1114.464c-9.379-5.451-21.747-8.115-34.081-8.019l-32.206-.015c-12.187-.027-24.406 2.643-33.734 8.027-18.553 10.718-18.656 28.093-.212 38.813 9.344 5.428 21.651 8.094 33.94 8.021v.008h32.211c12.225.049 24.494-2.63 33.848-8.031 18.566-10.716 18.668-28.094.234-38.804z"/><linearGradient id="SVGID_15_" gradientUnits="userSpaceOnUse" x1="2667.887" y1="-385.079" x2="2715.277" y2="-467.16" gradientTransform="scale(-1 1) rotate(60 -596.42 -2991.083)"><stop offset="0" stop-color="#bbc0e6"/><stop offset="1" stop-color="#ced3f8"/></linearGradient><path class="st26" d="M1207.067 1153.261c9.344-5.388 14.006-12.471 13.986-19.537l-.043-17.271c.025 7.066-4.64 14.144-13.984 19.537-18.549 10.717-48.544 10.717-66.98.003-9.162-5.324-13.753-12.289-13.77-19.263l.043 17.268c.014 6.974 4.599 13.942 13.767 19.268 18.432 10.71 48.42 10.713 66.981-.005z"/><path class="st17" d="M1207.027 1135.991c18.563-10.712 18.666-28.091.233-38.801-18.439-10.717-48.442-10.72-67-.004-18.555 10.714-18.655 28.091-.212 38.807 18.435 10.714 48.43 10.714 66.979-.002z"/><g><path class="st27" d="M1195.837 1122.757h-39.128a2.746 2.746 0 0 1-2.732-2.975l1.174-13.722a2.747 2.747 0 0 1 2.966-2.499 2.744 2.744 0 0 1 2.499 2.966l-.92 10.746h36.141a2.741 2.741 0 1 1 0 5.484z"/></g></g><g id="Shadows_under_devops"><linearGradient id="SVGID_16_" gradientUnits="userSpaceOnUse" x1="821.463" y1="900.39" x2="1113.547" y2="900.39" gradientTransform="matrix(1 0 0 -1 0 2019.89)"><stop offset="0" stop-color="#c4cae9"/><stop offset="1" stop-color="#fff"/></linearGradient><path class="st28" d="M1027.094 1158.87v64.925h86.453v-64.925c-.001-79.216-111.629-143.665-248.838-143.667-14.755 0-29.192.783-43.246 2.213 116.674 11.852 205.63 70.75 205.631 141.454z"/><linearGradient id="SVGID_17_" gradientUnits="userSpaceOnUse" x1="1027.095" y1="652.428" x2="1182.781" y2="652.428" gradientTransform="matrix(1 0 0 -1 0 2019.89)"><stop offset="0" stop-color="#c4cae9"/><stop offset="1" stop-color="#fff"/></linearGradient><path class="st29" d="M1182.781 1427.393c-40.616-9.801-69.233-32.972-69.233-59.931l.001-9.147-.001-55.779h-86.453l.001 55.779-.001 9.147c0 35.796 50.445 64.925 112.457 64.925 15.311.001 29.914-1.779 43.229-4.994z"/><linearGradient id="SVGID_18_" gradientUnits="userSpaceOnUse" x1="665.803" y1="861.02" x2="880.553" y2="861.02" gradientTransform="matrix(1 0 0 -1 0 2019.89)"><stop offset="0" stop-color="#c4cae9"/><stop offset="1" stop-color="#fff"/></linearGradient><path class="st30" d="M793.076 1108.861c8.53-4.08 18.165-7.395 28.533-9.893-13.349-3.232-27.993-5.024-43.352-5.024-27.196 0-52.165 5.605-71.633 14.916-24.918 11.919-40.821 29.912-40.821 50.008 0 35.801 50.449 64.924 112.455 64.926h102.295-15.842c-62.006-.001-112.454-29.125-112.454-64.926-.001-20.095 15.901-38.088 40.819-50.007z"/><linearGradient id="SVGID_19_" gradientUnits="userSpaceOnUse" x1="1139.549" y1="652.428" x2="1474.838" y2="652.428" gradientTransform="matrix(1 0 0 -1 0 2019.89)"><stop offset="0" stop-color="#c4cae9"/><stop offset="1" stop-color="#fff"/></linearGradient><path class="st31" d="M1225.999 1223.795h-86.44c137.196.004 248.826 64.449 248.826 143.666-.001 37.6-25.181 71.855-66.275 97.488-45.486 28.373-110.478 46.179-182.561 46.179h86.453c72.083-.001 137.075-17.807 182.561-46.179 41.094-25.633 66.274-59.888 66.275-97.487 0-79.22-111.637-143.667-248.839-143.667z"/></g><g id="DevOps"><path class="st32" d="M890.71 1290.867v-3.566l.001-55.779h-96.636v71.014h96.635v-6.09z"/><linearGradient id="SVGID_20_" gradientUnits="userSpaceOnUse" x1="897.728" y1="616.102" x2="1388.668" y2="616.102" gradientTransform="matrix(1 0 0 -1 0 2019.89)"><stop offset="0" stop-color="#ef4e16"/><stop offset=".379" stop-color="#de3f11"/><stop offset="1" stop-color="#c6290a"/></linearGradient><path class="st33" d="M1139.55 1440.114c-137.206-.003-248.839-64.449-248.839-143.668v71.015c0 79.219 111.633 143.665 248.839 143.668 71.955-.001 136.838-17.747 182.313-46.032v-71.015c-45.475 28.285-110.358 46.031-182.313 46.032z"/><linearGradient id="SVGID_21_" gradientUnits="userSpaceOnUse" x1="897.729" y1="639.119" x2="1388.666" y2="639.119" gradientTransform="matrix(1 0 0 -1 0 2019.89)"><stop offset="0" stop-color="#fc780b"/><stop offset="1" stop-color="#ef4e16"/></linearGradient><path class="st34" d="M1322.111 1393.934c-.08.05-.168.098-.248.147v71.015c.08-.051.168-.098.248-.147 41.094-25.633 66.273-59.888 66.275-97.487v-71.015c-.002 37.599-25.182 71.854-66.275 97.487z"/><linearGradient id="SVGID_22_" gradientUnits="userSpaceOnUse" x1="665.802" y1="939.329" x2="706.842" y2="939.329" gradientTransform="matrix(1 0 0 -1 0 2019.89)"><stop offset="0" stop-color="#ef4e16"/><stop offset="1" stop-color="#fc780b"/></linearGradient><path class="st35" d="M706.623 1037.846c-24.919 11.919-40.821 29.91-40.821 50.008 0 13.103 6.78 25.302 18.389 35.517 6.201-5.457 13.754-10.359 22.432-14.51.071-.034.148-.062.219-.097v-71.015c-.07.035-.148.063-.219.097z"/><linearGradient id="SVGID_23_" gradientUnits="userSpaceOnUse" x1="662.298" y1="932.034" x2="891.558" y2="932.034" gradientTransform="matrix(1 0 0 -1 0 2019.89)"><stop offset="0" stop-color="#ef4e16"/><stop offset=".379" stop-color="#de3f11"/><stop offset="1" stop-color="#c6290a"/></linearGradient><path class="st36" d="M890.711 1087.856c-.003-35.8-50.446-64.926-112.454-64.926-27.097 0-51.977 5.57-71.414 14.821v71.015c19.438-9.251 44.318-14.821 71.414-14.821 58.451 0 106.606 25.883 111.944 58.836h.511v-54.235l-.001-10.69z"/><linearGradient id="SVGID_24_" gradientUnits="userSpaceOnUse" x1="1024.319" y1="752.861" x2="1255.139" y2="752.861" gradientTransform="matrix(1 0 0 -1 0 2019.89)"><stop offset="0" stop-color="#fd9009"/><stop offset="1" stop-color="#fc780b"/></linearGradient><path class="st37" d="M1027.095 1231.522l.001 55.779-.001 9.147c0 2.053.185 4.083.511 6.089h88.193v-71.015h-88.704z"/><path class="st8" d="M787.898 1231.522h12.352v71.013h-12.352zM1109.622 1231.523h12.352v71.013h-12.352zM700.667 1111.938a115.406 115.406 0 0 1 5.956-3.077c2.061-.985 4.215-1.906 6.395-2.807v-71.015c-2.179.901-4.334 1.821-6.395 2.807a114.697 114.697 0 0 0-5.956 3.088v71.004zM1316.905 1468.037c1.743-1.024 3.514-2.034 5.205-3.089 1.609-1.004 3.149-2.043 4.708-3.073v-71.015c-1.56 1.03-3.1 2.07-4.708 3.073-1.69 1.054-3.462 2.063-5.205 3.089v71.015z"/><linearGradient id="SVGID_25_" gradientUnits="userSpaceOnUse" x1="1024.319" y1="738.151" x2="1255.138" y2="738.151" gradientTransform="matrix(1 0 0 -1 0 2019.89)"><stop offset="0" stop-color="#fc780b"/><stop offset="1" stop-color="#ef4e16"/></linearGradient><path class="st38" d="M1139.549 1231.523h-23.75v71.015h23.75c39.316 0 73.965 11.719 94.074 29.417 11.604-10.212 18.379-22.409 18.379-35.508-.001-35.802-50.451-64.924-112.453-64.924z"/><linearGradient id="SVGID_26_" gradientUnits="userSpaceOnUse" x1="531.075" y1="824.695" x2="890.011" y2="824.695" gradientTransform="matrix(1 0 0 -1 0 2019.89)"><stop offset="0" stop-color="#fc780b"/><stop offset="1" stop-color="#ef4e16"/></linearGradient><path class="st39" d="M794.074 1231.522h-15.816c-68.604 0-130.814-16.112-175.873-42.126-45.058-26.014-72.965-61.93-72.965-101.54v71.015c0 39.609 27.906 75.526 72.965 101.539 45.059 26.014 107.269 42.126 175.873 42.126h15.817v-71.015h-.001v.001z"/><linearGradient id="SVGID_27_" gradientUnits="userSpaceOnUse" x1="770.327" y1="958.827" x2="821.672" y2="958.827" gradientTransform="matrix(1 0 0 -1 0 2019.89)"><stop offset="0" stop-color="#fff"/><stop offset="1" stop-color="#e8ecf7"/></linearGradient><path class="st40" d="M770.327 1023.133v71.015c2.626-.106 5.257-.203 7.929-.203 15.385 0 30.042 1.808 43.407 5.051l.009-.009c0-12.44-7.339-56.923-51.256-75.857-.029.002-.06.002-.089.003z"/><linearGradient id="SVGID_28_" gradientUnits="userSpaceOnUse" x1="1027.095" y1="752.86" x2="1113.547" y2="752.86" gradientTransform="matrix(1 0 0 -1 0 2019.89)"><stop offset="0" stop-color="#e8ecf7"/><stop offset="1" stop-color="#fff"/></linearGradient><path class="st41" d="M1027.095 1231.522l86.452 71.015h-86.452z"/><g><path class="st24" d="M1027.093 1098.546v-10.691c-.001-79.216-111.629-143.665-248.838-143.666-65.123 0-124.454 14.537-168.852 38.263l.001 55.394h97.219c19.468-9.311 44.437-14.916 71.633-14.916 62.009 0 112.452 29.126 112.455 64.926v10.691l68.191-39.37 68.191 39.369zM1322.111 1393.934h-95.945v-56.13c-20.643 14.387-51.806 23.568-86.615 23.568-62.011 0-112.455-29.128-112.457-64.925l.001-9.147-68.193-39.371-68.191 39.371v9.146c0 79.219 111.633 143.665 248.839 143.668 72.083-.001 137.074-17.807 182.561-46.18z"/><path class="st42" d="M1027.096 1287.301l-.003-188.755-68.19-39.37-68.192 39.37-.001 188.755 68.193-39.371z"/><path class="st32" d="M794.099 1152.781h-15.843c-62.006-.001-112.454-29.125-112.454-64.926 0-20.098 15.904-38.091 40.821-50.008h-97.219l-.001-55.394c-49.142 26.261-79.983 63.785-79.984 105.403 0 39.609 27.907 75.526 72.965 101.54 45.059 26.014 107.269 42.126 175.872 42.126h15.817l68.203-39.378-68.177-39.363zM1322.111 1393.934c41.094-25.633 66.274-59.889 66.275-97.488 0-79.219-111.636-143.666-248.839-143.666h-23.748l68.205 39.379-68.18 39.363h23.725c62.002 0 112.452 29.123 112.452 64.925 0 15.701-9.707 30.117-25.836 41.358v56.13h95.945v-.001z"/><path class="st43" d="M1115.797 1152.781H794.099l68.178 39.363-68.203 39.378 321.75.001 68.179-39.364z"/></g><path class="st2" d="M1229.254 1390.847l-.001-55.298a86.623 86.623 0 0 1-3.087 2.254 95.992 95.992 0 0 1-3.089 2.039l.002 57.18h93.826c1.743-1.026 3.514-2.034 5.205-3.089 1.616-1.008 3.163-2.052 4.73-3.087h-97.586zM890.71 1283.735v7.131l68.192-39.371 68.192 39.371v-7.131l-68.193-39.368-68.191 39.368zm-102.787-130.954l68.178 39.362-68.202 39.378h12.352l68.201-39.378-68.176-39.362h-12.353zm321.725 0l68.179 39.362-68.204 39.379h12.352l68.203-39.379-68.177-39.362h-12.353zm-218.937-50.669l68.191-39.37 68.19 39.37v-7.132l-68.19-39.369-68.191 39.37v7.131zM612.492 980.876c-1.023.529-2.08 1.038-3.088 1.577-1.042.557-2.062 1.125-3.088 1.691v56.79h94.35a115.89 115.89 0 0 1 5.956-3.088 128.527 128.527 0 0 1 7.035-3.088H612.49v-53.884h.002z"/></g><g id="Microscheme_1_"><path class="st44" d="M1303.973 1452.478c0-3.451 2.423-7.647 5.412-9.373 2.989-1.725 5.412-.327 5.412 3.125 0 3.451-2.423 7.647-5.412 9.373-2.989 1.724-5.412.326-5.412-3.125z"/><linearGradient id="SVGID_29_" gradientUnits="userSpaceOnUse" x1="1305.769" y1="572.176" x2="1370.667" y2="535.842" gradientTransform="matrix(1 0 0 -1 0 2019.89)"><stop offset="0" stop-color="#931d0a"/><stop offset=".057" stop-color="#ae3a0a"/><stop offset=".124" stop-color="#c6550a"/><stop offset=".202" stop-color="#db6b09"/><stop offset=".293" stop-color="#ea7c09"/><stop offset=".405" stop-color="#f58709"/><stop offset=".563" stop-color="#fb8e09"/><stop offset="1" stop-color="#fd9009"/></linearGradient><path class="st45" d="M1309.335 1445.074l-.005.016c-.472-.264-1.119-.224-1.833.189-1.444.834-2.613 2.86-2.613 4.526 0 .825.288 1.405.753 1.681l-.009.01 59.993 34.363 7.415-4.28-63.701-36.505z"/><linearGradient id="SVGID_30_" gradientUnits="userSpaceOnUse" x1="1413.19" y1="460.433" x2="1449.203" y2="522.808" gradientTransform="matrix(1 0 0 -1 0 2019.89)"><stop offset="0" stop-color="#d1d7f3"/><stop offset=".373" stop-color="#eaecf9"/><stop offset=".724" stop-color="#f9fafe"/><stop offset="1" stop-color="#fff"/></linearGradient><path class="st46" d="M1471.54 1552.009l27.492-15.874-22.324-12.888 8.907-5.143-8.87-5.12h-17.814l-29.868-17.245-27.493 15.874h.001-31.892l16.275 9.463h-29.688l8.871 5.121h1.992l-5.773 3.333h29.688l4.835-2.792 8.77 5.132h-29.688l8.871 5.121h1.992l-5.773 3.333h29.689l4.834-2.791 8.77 5.131h-29.687l8.87 5.12h1.993l-5.774 3.333h29.689l4.835-2.791 6.378 3.683h14.297l29.159 16.836 5.622-3.246-23.538-13.59z"/><path class="st4" d="M1441.083 1509.534v6.667l9.071-5.237v10.473l5.774-3.333v-17.14z"/><path class="st5" d="M1441.083 1509.534l-8.869-5.12 14.843-8.571 8.871 5.121z"/><path class="st4" d="M1422.388 1498.741v6.667l9.071-5.238v10.474l5.773-3.333v-17.14z"/><path class="st5" d="M1422.388 1498.741l-8.87-5.121 14.844-8.57 8.87 5.121z"/><path class="st4" d="M1403.693 1487.947v6.666l9.071-5.236v10.474l5.773-3.334v-17.14z"/><path class="st5" d="M1403.693 1487.947l-8.87-5.121 14.844-8.57 8.87 5.121z"/><path class="st6" d="M1452.938 1506.536l-69.97-40.396-27.493 15.872 69.97 40.397z"/><path class="st7" d="M1425.445 1522.409l-69.97-40.397v18.412l69.97 40.398z"/><path class="st8" d="M1452.938 1506.536l-27.493 15.873v18.413l27.493-15.874z"/><path class="st6" d="M1445.311 1529.323l-8.062 4.655v-8.039h8.062z"/><path class="st4" d="M1413.59 1525.407v6.666l-9.07 5.238v10.473l-5.774 3.333v-17.14z"/><path class="st5" d="M1398.746 1533.978l-8.87-5.122 14.844-8.569 8.87 5.12z"/><path class="st10" d="M1398.746 1551.117l-8.87-5.121v-17.14l8.87 5.122z"/><path class="st4" d="M1394.895 1514.614v6.666l-9.07 5.237v10.474l-5.774 3.333v-17.141z"/><path class="st5" d="M1380.051 1523.183l-8.869-5.121 14.843-8.57 8.87 5.122z"/><path class="st10" d="M1380.051 1540.324l-8.869-5.121v-17.141l8.869 5.121z"/><path class="st4" d="M1376.2 1503.819v6.667l-9.07 5.238v10.473l-5.774 3.333v-17.141z"/><path class="st5" d="M1361.356 1512.39l-8.87-5.121 14.844-8.57 8.87 5.12z"/><path class="st10" d="M1361.356 1529.53l-8.87-5.121v-17.14l8.87 5.121z"/><path class="st8" d="M1409.385 1507.741l12.603 7.275 18.146-10.476-12.603-7.276z"/><path class="st11" d="M1404.72 1520.287l8.87 5.12-3.677 2.122-8.87-5.12zM1409.913 1527.529l-2.11 7.886 5.787-3.342v-6.666zM1386.025 1509.492l8.87 5.122-3.677 2.122-8.869-5.12zM1391.218 1516.736l-2.11 7.885 5.787-3.341v-6.666zM1367.33 1498.699l8.87 5.12-3.677 2.124-8.869-5.121zM1372.523 1505.943l-2.11 7.884 5.787-3.341v-6.667z"/><path class="st8" d="M1491.208 1564.157c-2.979-1.72-7.81-1.72-10.789 0s-2.979 4.509 0 6.229c2.979 1.72 7.81 1.72 10.789 0s2.979-4.508 0-6.229z"/><linearGradient id="SVGID_31_" gradientUnits="userSpaceOnUse" x1="3067.702" y1="442.106" x2="3082.182" y2="485.544" gradientTransform="rotate(180 2271.296 1009.945)"><stop offset="0" stop-color="#dd3b10"/><stop offset=".114" stop-color="#e44d0f"/><stop offset=".343" stop-color="#ef6a0c"/><stop offset=".57" stop-color="#f77f0a"/><stop offset=".791" stop-color="#fb8c09"/><stop offset="1" stop-color="#fd9009"/></linearGradient><path class="st47" d="M1437.249 1525.939c0-1.672 1.174-3.705 2.622-4.541.739-.427 1.401-.45 1.877-.157l.005-.01 33.755 19.489c8.767 5.062 14.214 14.494 14.214 24.622 0 .649-.067 1.282-.167 1.906h-.013c.024.577-.328 1.156-1.09 1.597-1.478.852-3.872.852-5.349 0-.87-.502-1.165-1.183-1.008-1.837 0 0 .212-1.016.212-1.665a21.076 21.076 0 0 0-10.508-18.201l-33.597-19.398.034-.062c-.587-.217-.987-.798-.987-1.743z"/></g><g id="Ruller"><path class="st6" d="M2045.103 1089.112l-430.151 255.113h11.701l430.169-248.348z"/><path class="st43" d="M1544.807 1296.972l70.145 40.497 430.151-248.357-70.14-40.498z"/><path class="st17" d="M2035.92 1094.411l-12.459-7.187 1.729-1.01 12.464 7.198zM1998.418 1116.057l-12.448-7.194 1.724-1.002 12.458 7.204zM1960.923 1137.71l-12.453-7.202 1.732-.998 12.453 7.196zM1923.434 1159.35l-12.457-7.186 1.724-1.009 12.46 7.202zM1885.938 1181.006l-12.471-7.202 1.74-.99 12.467 7.187zM1848.439 1202.649l-12.459-7.192 1.725-1.01 12.468 7.209zM1810.947 1224.293l-12.462-7.19 1.729-.991 12.471 7.194zM1773.46 1245.95l-12.469-7.197 1.724-1.001 12.474 7.193zM1735.967 1267.594l-12.477-7.195 1.739-1.001 12.461 7.196zM1698.458 1289.242l-12.46-7.193 1.733-.999 12.456 7.187zM1660.967 1310.891l-12.466-7.197 1.733-.998 12.469 7.197zM1625.2 1331.541l-12.457-7.2-1.731 1.001 12.454 7.199z"/><path class="st24" d="M1852.182 1166.393l-11.075-6.394-103.379 59.687 11.084 6.392zM1614.952 1344.225l-70.145-40.493v-6.76l70.145 40.497z"/><path class="st42" d="M2045.103 1095.884l-430.151 248.341v-6.756l430.151-248.357z"/><path class="st7" d="M2037.654 1100.185v-6.773l-1.734.999v6.772zM2000.152 1121.837v-6.772l-1.734.998v6.772zM1962.651 1143.489v-6.773l-1.735.999v6.772zM1925.148 1165.141l-.001-6.772-1.734.998v6.772zM1887.646 1186.793v-6.773l-1.735 1v6.773zM1850.144 1208.446v-6.774l-1.735 1v6.773zM1812.642 1230.098v-6.773l-1.735.999v6.773zM1775.139 1251.75l.001-6.772-1.736.998v6.773zM1737.637 1273.402v-6.772l-1.735.998v6.773zM1700.135 1295.054v-6.772l-1.734.999v6.773zM1662.633 1316.707v-6.772l-1.734.998v6.773zM1625.13 1338.359v-6.772l-1.733.998-.001 6.773z"/><g><path class="st17" d="M2030.581 1097.494l-6.237-3.597 1.729-1.011 6.24 3.608zM2025.206 1100.596l-6.237-3.597 1.729-1.01 6.24 3.608zM2019.831 1103.699l-6.235-3.597 1.727-1.01 6.24 3.608zM2014.457 1106.802l-6.236-3.597 1.729-1.01 6.24 3.607zM2009.083 1109.905l-6.237-3.596 1.729-1.012 6.24 3.608zM2003.708 1113.008l-6.235-3.596 1.727-1.012 6.24 3.608z"/><path class="st7" d="M2030.581 1097.494l-.004 6.777 1.74-.992-.004-6.785zM2025.206 1100.596l-.003 6.778 1.739-.992-.004-6.785zM2019.831 1103.699l-.003 6.778 1.74-.992-.005-6.785zM2014.457 1106.802l-.002 6.778 1.739-.992-.004-6.786zM2009.083 1109.905l-.003 6.778 1.74-.992-.005-6.786zM2003.708 1113.008l-.003 6.778 1.74-.992-.005-6.786z"/></g><g><path class="st17" d="M1993.078 1119.146l-6.236-3.596 1.729-1.012 6.239 3.608zM1987.704 1122.248l-6.237-3.596 1.729-1.011 6.24 3.608zM1982.329 1125.351l-6.235-3.596 1.727-1.011 6.24 3.608zM1976.955 1128.454l-6.236-3.596 1.728-1.01 6.24 3.606zM1971.58 1131.557l-6.236-3.596 1.729-1.01 6.24 3.606zM1966.207 1134.66l-6.237-3.596 1.728-1.012 6.24 3.608z"/><path class="st7" d="M1993.078 1119.146l-.002 6.777 1.738-.991-.004-6.786zM1987.704 1122.248l-.003 6.778 1.739-.992-.004-6.785zM1982.329 1125.351l-.003 6.778 1.74-.992-.005-6.785zM1976.955 1128.454l-.004 6.778 1.74-.992-.004-6.786zM1971.58 1131.557l-.002 6.778 1.74-.992-.005-6.786zM1966.207 1134.66l-.004 6.778 1.74-.992-.005-6.786z"/></g><g><path class="st17" d="M1955.576 1140.798l-6.236-3.596 1.728-1.011 6.24 3.607zM1950.201 1143.901l-6.236-3.597 1.729-1.01 6.24 3.607zM1944.828 1147.003l-6.237-3.596 1.728-1.01 6.24 3.607zM1939.453 1150.107l-6.236-3.597 1.728-1.01 6.24 3.607zM1934.078 1153.21l-6.236-3.597 1.729-1.01 6.239 3.606zM1928.705 1156.313l-6.237-3.597 1.729-1.011 6.24 3.607z"/><path class="st7" d="M1955.576 1140.798l-.004 6.778 1.74-.992-.004-6.786zM1950.201 1143.901l-.002 6.777 1.739-.992-.004-6.785zM1944.828 1147.003l-.004 6.778 1.74-.992-.005-6.785zM1939.453 1150.107l-.003 6.777 1.739-.992-.004-6.785zM1934.078 1153.21l-.002 6.777 1.738-.991-.004-6.787zM1928.705 1156.313l-.004 6.777 1.74-.991-.004-6.787z"/></g><g><path class="st17" d="M1918.074 1162.451l-6.237-3.597 1.729-1.011 6.24 3.607zM1912.699 1165.554l-6.236-3.598 1.728-1.01 6.24 3.607zM1907.326 1168.656l-6.237-3.597 1.728-1.01 6.24 3.607zM1901.951 1171.759l-6.237-3.597 1.729-1.01 6.24 3.607zM1896.576 1174.862l-6.236-3.597 1.728-1.01 6.24 3.606zM1891.203 1177.965l-6.237-3.597 1.728-1.011 6.239 3.607z"/><path class="st7" d="M1918.074 1162.451l-.004 6.777 1.74-.991-.004-6.787zM1912.699 1165.554l-.003 6.776 1.739-.991-.004-6.786zM1907.326 1168.656l-.004 6.777 1.74-.991-.005-6.786zM1901.951 1171.759l-.003 6.777 1.739-.991-.004-6.786zM1896.576 1174.862l-.003 6.777 1.74-.991-.005-6.787zM1891.203 1177.965l-.004 6.777 1.739-.991-.005-6.787z"/></g><g><path class="st17" d="M1880.572 1184.103l-6.237-3.597 1.729-1.011 6.24 3.608zM1875.197 1187.206l-6.237-3.598 1.729-1.01 6.24 3.608zM1869.823 1190.308l-6.236-3.597 1.727-1.01 6.24 3.608zM1864.449 1193.411l-6.237-3.597 1.729-1.01 6.24 3.608zM1859.074 1196.514l-6.236-3.597 1.728-1.01 6.24 3.607zM1853.7 1199.617l-6.236-3.597 1.728-1.011 6.24 3.608z"/><path class="st7" d="M1880.572 1184.103l-.004 6.777 1.74-.991-.004-6.786zM1875.197 1187.206l-.003 6.776 1.739-.991-.004-6.785zM1869.823 1190.308l-.003 6.777 1.739-.991-.005-6.785zM1864.449 1193.411l-.003 6.777 1.739-.991-.004-6.785zM1859.074 1196.514l-.003 6.778 1.74-.992-.005-6.786zM1853.7 1199.617l-.003 6.778 1.739-.992-.004-6.786z"/></g><g><path class="st17" d="M1843.069 1205.755l-6.236-3.597 1.729-1.011 6.24 3.608zM1837.695 1208.858l-6.237-3.598 1.729-1.01 6.24 3.608zM1832.32 1211.96l-6.235-3.597 1.727-1.01 6.24 3.608zM1826.946 1215.063l-6.236-3.597 1.728-1.01 6.24 3.608zM1821.572 1218.166l-6.237-3.597 1.729-1.01 6.24 3.607zM1816.198 1221.269l-6.237-3.596 1.729-1.012 6.24 3.608z"/><path class="st7" d="M1843.069 1205.755l-.002 6.778 1.738-.992-.003-6.786zM1837.695 1208.858l-.003 6.777 1.74-.992-.005-6.785zM1832.32 1211.96l-.003 6.778 1.74-.992-.005-6.785zM1826.946 1215.063l-.002 6.778 1.738-.992-.004-6.785zM1821.572 1218.166l-.003 6.778 1.74-.992-.005-6.786zM1816.198 1221.269l-.004 6.778 1.74-.992-.004-6.786z"/></g><g><path class="st17" d="M1805.567 1227.407l-6.236-3.596 1.728-1.012 6.24 3.608zM1800.192 1230.51l-6.236-3.596 1.729-1.012 6.24 3.608zM1794.819 1233.612l-6.237-3.596 1.728-1.011 6.241 3.608zM1789.444 1236.715l-6.236-3.596 1.728-1.011 6.24 3.608zM1784.069 1239.818l-6.235-3.596 1.728-1.011 6.239 3.608zM1778.696 1242.921l-6.237-3.596 1.729-1.012 6.24 3.608z"/><path class="st7" d="M1805.567 1227.407l-.003 6.778 1.739-.992-.004-6.786zM1800.192 1230.51l-.002 6.777 1.74-.991-.005-6.786zM1794.819 1233.612l-.004 6.778 1.74-.992-.004-6.785zM1789.444 1236.715l-.003 6.778 1.739-.992-.004-6.785zM1784.069 1239.818l-.002 6.778 1.739-.992-.005-6.785zM1778.696 1242.921l-.004 6.778 1.74-.992-.004-6.786z"/></g><g><path class="st17" d="M1768.065 1249.059l-6.237-3.596 1.729-1.011 6.24 3.607zM1762.69 1252.162l-6.235-3.596 1.728-1.011 6.239 3.607zM1757.316 1255.266l-6.236-3.598 1.728-1.01 6.241 3.607zM1751.942 1258.368l-6.237-3.597 1.729-1.01 6.24 3.607zM1746.567 1261.47l-6.235-3.596 1.728-1.01 6.239 3.607zM1741.193 1264.573l-6.236-3.596 1.729-1.01 6.239 3.606z"/><path class="st7" d="M1768.065 1249.059l-.003 6.778 1.739-.992-.004-6.786zM1762.69 1252.162l-.003 6.777 1.74-.991-.005-6.786zM1757.316 1255.266l-.003 6.776 1.74-.992-.004-6.785zM1751.942 1258.368l-.003 6.777 1.739-.992-.004-6.785zM1746.567 1261.47l-.003 6.778 1.74-.992-.005-6.785zM1741.193 1264.573l-.002 6.778 1.739-.992-.005-6.786z"/></g><g><path class="st17" d="M1730.563 1270.712l-6.237-3.597 1.729-1.011 6.24 3.607zM1725.188 1273.815l-6.235-3.597 1.727-1.011 6.24 3.607zM1719.814 1276.918l-6.236-3.598 1.729-1.01 6.239 3.607zM1714.44 1280.02l-6.237-3.597 1.729-1.01 6.24 3.607zM1709.065 1283.123l-6.236-3.597 1.728-1.01 6.24 3.607zM1703.691 1286.226l-6.236-3.597 1.729-1.01 6.239 3.608z"/><path class="st7" d="M1730.563 1270.712l-.003 6.777 1.739-.991-.004-6.787zM1725.188 1273.815l-.003 6.777 1.74-.991-.005-6.787zM1719.814 1276.918l-.003 6.777 1.739-.992-.004-6.786zM1714.44 1280.02l-.003 6.777 1.739-.991-.004-6.786zM1709.065 1283.123l-.003 6.777 1.74-.991-.005-6.786zM1703.691 1286.226l-.003 6.777 1.739-.991-.004-6.785z"/></g><g><path class="st17" d="M1693.061 1292.364l-6.237-3.597 1.729-1.011 6.24 3.608zM1687.686 1295.467l-6.237-3.597 1.729-1.011 6.24 3.608zM1682.312 1298.57l-6.236-3.598 1.727-1.01 6.241 3.608zM1676.938 1301.672l-6.237-3.597 1.729-1.01 6.24 3.608zM1671.563 1304.775l-6.236-3.597 1.728-1.01 6.24 3.608zM1666.189 1307.878l-6.237-3.597 1.729-1.01 6.24 3.608z"/><path class="st7" d="M1693.061 1292.364l-.003 6.777 1.739-.991-.004-6.786zM1687.686 1295.467l-.003 6.777 1.74-.991-.005-6.786zM1682.312 1298.57l-.004 6.778 1.74-.993-.004-6.785zM1676.938 1301.672l-.003 6.777 1.738-.991-.003-6.785zM1671.563 1304.775l-.003 6.777 1.74-.991-.005-6.785zM1666.189 1307.878l-.004 6.778 1.74-.992-.004-6.785z"/></g><g><path class="st17" d="M1655.558 1314.016l-6.236-3.597 1.728-1.011 6.24 3.608zM1650.184 1317.119l-6.236-3.597 1.728-1.011 6.24 3.608zM1644.81 1320.222l-6.237-3.598 1.729-1.01 6.24 3.608zM1639.435 1323.324l-6.236-3.597 1.728-1.01 6.24 3.608zM1634.061 1326.427l-6.236-3.597 1.728-1.01 6.24 3.608zM1628.687 1329.53l-6.237-3.597 1.729-1.01 6.24 3.607z"/><path class="st7" d="M1655.558 1314.016l-.002 6.778 1.738-.992-.004-6.786zM1650.184 1317.119l-.003 6.778 1.74-.992-.005-6.786zM1644.81 1320.222l-.004 6.778 1.74-.993-.004-6.785zM1639.435 1323.324l-.002 6.778 1.738-.992-.004-6.785zM1634.061 1326.427l-.003 6.778 1.739-.992-.004-6.785zM1628.687 1329.53l-.003 6.778 1.739-.992-.004-6.786z"/></g></g><g id="Front_blocks"><linearGradient id="SVGID_32_" gradientUnits="userSpaceOnUse" x1="1600.82" y1="552.856" x2="1801.209" y2="552.856" gradientTransform="matrix(1 0 0 -1 0 2019.89)"><stop offset="0" stop-color="#c4cae9"/><stop offset=".082" stop-color="#cacfeb"/><stop offset=".684" stop-color="#f0f2fa"/><stop offset="1" stop-color="#fff"/></linearGradient><path class="st48" d="M1600.82 1406.49h200.389v121.089H1600.82z"/><path class="st17" d="M1600.82 1409.946l-101.877-58.819 101.877-58.821 101.877 58.821z"/><path class="st8" d="M1600.82 1527.577l-101.877-58.818v-117.632l101.877 58.819z"/><path class="st7" d="M1600.82 1527.577l101.879-58.818v-117.632l-101.879 58.819z"/><path class="st6" d="M1600.82 1312.011l-8.146-4.702 8.146-4.704 8.148 4.704zM1619.795 1322.966l-8.145-4.703 8.145-4.702 8.148 4.702zM1638.773 1333.921l-8.151-4.702 8.151-4.707 8.139 4.707zM1657.743 1344.875l-8.145-4.705 8.145-4.703 8.148 4.703zM1676.718 1355.828l-8.149-4.701 8.149-4.703 8.147 4.703zM1581.845 1322.966l-8.145-4.703 8.145-4.702 8.148 4.702zM1600.82 1333.921l-8.146-4.702 8.146-4.707 8.148 4.707zM1619.795 1344.875l-8.145-4.705 8.145-4.703 8.148 4.703zM1638.773 1355.828l-8.151-4.701 8.151-4.703 8.139 4.703zM1657.743 1366.782l-8.145-4.702 8.145-4.704 8.148 4.704zM1562.876 1333.921l-8.149-4.702 8.149-4.707 8.147 4.707zM1581.845 1344.875l-8.145-4.705 8.145-4.703 8.148 4.703zM1600.82 1355.828l-8.146-4.701 8.146-4.703 8.148 4.703zM1619.795 1366.782l-8.145-4.702 8.145-4.704 8.148 4.704zM1638.773 1377.734l-8.151-4.7 8.151-4.702 8.139 4.702zM1543.9 1344.875l-8.148-4.705 8.148-4.703 8.149 4.703zM1562.876 1355.828l-8.149-4.701 8.149-4.703 8.147 4.703zM1581.845 1366.782l-8.145-4.702 8.145-4.704 8.148 4.704zM1600.82 1377.734l-8.146-4.7 8.146-4.702 8.148 4.702zM1619.795 1388.694l-8.145-4.705 8.145-4.703 8.148 4.703zM1524.925 1355.828l-8.145-4.701 8.145-4.703 8.148 4.703zM1543.9 1366.782l-8.148-4.702 8.148-4.704 8.149 4.704zM1562.876 1377.734l-8.149-4.7 8.149-4.702 8.147 4.702zM1581.845 1388.694l-8.145-4.705 8.145-4.703 8.148 4.703zM1600.82 1399.646l-8.146-4.7 8.146-4.705 8.148 4.705zM1516.011 1380.679l-8.148-4.702v-9.406l8.148 4.703zM1534.98 1391.632l-8.142-4.701v-9.407l8.142 4.705zM1553.955 1402.589l-8.145-4.705v-9.403l8.145 4.7zM1572.931 1413.544l-8.146-4.706v-9.402l8.146 4.702zM1591.906 1424.499l-8.146-4.705v-9.406l8.146 4.702zM1516.011 1402.587l-8.148-4.703v-9.403l8.148 4.7zM1534.98 1413.542l-8.142-4.704v-9.402l8.142 4.702zM1553.955 1424.499l-8.145-4.705v-9.406l8.145 4.702zM1572.931 1435.454l-8.146-4.706v-9.403l8.146 4.7zM1591.906 1446.408l-8.146-4.702v-9.409l8.146 4.705zM1516.011 1424.496l-8.148-4.702v-9.406l8.148 4.702zM1534.98 1435.454l-8.142-4.706v-9.403l8.142 4.7zM1553.955 1446.408l-8.145-4.702v-9.409l8.145 4.705zM1572.931 1457.363l-8.146-4.706v-9.402l8.146 4.702zM1591.906 1468.318l-8.146-4.705v-9.406l8.146 4.702zM1516.011 1446.406l-8.148-4.7v-9.409l8.148 4.705zM1534.98 1457.363l-8.142-4.706v-9.402l8.142 4.702zM1553.955 1468.318l-8.145-4.705v-9.406l8.145 4.702zM1572.931 1479.276l-8.146-4.709v-9.406l8.146 4.704zM1591.906 1490.225l-8.146-4.704v-9.407l8.146 4.705zM1516.011 1468.318l-8.148-4.705v-9.406l8.148 4.702zM1534.98 1479.276l-8.142-4.709v-9.406l8.142 4.704zM1553.955 1490.225l-8.145-4.704v-9.407l8.145 4.705zM1572.931 1501.179l-8.146-4.702v-9.409l8.146 4.705zM1591.906 1512.134l-8.146-4.703v-9.405l8.146 4.705zM1685.634 1380.679l8.147-4.702v-9.406l-8.147 4.703zM1666.663 1391.632l8.144-4.701v-9.407l-8.144 4.705zM1647.687 1402.589l8.145-4.705v-9.403l-8.145 4.7zM1628.712 1413.544l8.145-4.706v-9.402l-8.145 4.702zM1609.737 1424.499l8.148-4.705v-9.406l-8.148 4.702zM1685.634 1402.587l8.147-4.703v-9.403l-8.147 4.7zM1666.663 1413.542l8.144-4.704v-9.402l-8.144 4.702zM1647.687 1424.499l8.145-4.705v-9.406l-8.145 4.702zM1628.712 1435.454l8.145-4.706v-9.403l-8.145 4.7zM1609.737 1446.408l8.148-4.702v-9.409l-8.148 4.705zM1685.634 1424.496l8.147-4.702v-9.406l-8.147 4.702zM1666.663 1435.454l8.144-4.706v-9.403l-8.144 4.7zM1647.687 1446.408l8.145-4.702v-9.409l-8.145 4.705zM1628.712 1457.363l8.145-4.706v-9.402l-8.145 4.702zM1609.737 1468.318l8.148-4.705v-9.406l-8.148 4.702zM1685.634 1446.406l8.147-4.7v-9.409l-8.147 4.705zM1666.663 1457.363l8.144-4.706v-9.402l-8.144 4.702zM1647.687 1468.318l8.145-4.705v-9.406l-8.145 4.702zM1628.712 1479.276l8.145-4.709v-9.406l-8.145 4.704zM1609.737 1490.225l8.148-4.704v-9.407l-8.148 4.705zM1685.634 1468.318l8.147-4.705v-9.406l-8.147 4.702zM1666.663 1479.276l8.144-4.709v-9.406l-8.144 4.704zM1647.687 1490.225l8.145-4.704v-9.407l-8.145 4.705zM1628.712 1501.179l8.145-4.702v-9.409l-8.145 4.705zM1609.737 1512.134l8.148-4.703v-9.405l-8.148 4.705z"/><g><linearGradient id="SVGID_33_" gradientUnits="userSpaceOnUse" x1="749.64" y1="1184.528" x2="858.75" y2="1184.528" gradientTransform="matrix(1 0 0 -1 0 2019.89)"><stop offset="0" stop-color="#cfd5f1"/><stop offset=".283" stop-color="#e1e5f6"/><stop offset=".719" stop-color="#f7f8fd"/><stop offset="1" stop-color="#fff"/></linearGradient><path class="st49" d="M816.387 810.9H749.64l42.367 24.467-42.367 24.458h66.747l42.363-24.458z"/><path class="st50" d="M749.64 859.825l42.367-24.458v-49.67l-42.367 24.45z"/><path class="st51" d="M749.64 859.825l-42.369-24.458v-49.67l42.369 24.45z"/><path class="st2" d="M749.64 810.147l-42.369-24.45 42.369-24.455 42.367 24.455z"/></g><g><linearGradient id="SVGID_34_" gradientUnits="userSpaceOnUse" x1="2088.383" y1="649.695" x2="2197.493" y2="649.695" gradientTransform="matrix(1 0 0 -1 0 2019.89)"><stop offset="0" stop-color="#cfd5f1"/><stop offset=".283" stop-color="#e1e5f6"/><stop offset=".719" stop-color="#f7f8fd"/><stop offset="1" stop-color="#fff"/></linearGradient><path class="st52" d="M2155.131 1345.732h-66.747l42.368 24.467-42.368 24.459h66.747l42.362-24.459z"/><path class="st50" d="M2088.384 1394.658l42.368-24.459v-49.67l-42.368 24.452z"/><path class="st51" d="M2088.384 1394.658l-42.368-24.459v-49.67l42.368 24.452z"/><path class="st2" d="M2088.384 1344.981l-42.368-24.452 42.368-24.455 42.368 24.455z"/></g></g><g id="Coding_symbol"><linearGradient id="SVGID_35_" gradientUnits="userSpaceOnUse" x1="1009.557" y1="1340.326" x2="1098.324" y2="1340.326" gradientTransform="matrix(1 0 0 -1 0 2019.89)"><stop offset="0" stop-color="#c4cae8"/><stop offset=".359" stop-color="#cdd2ec"/><stop offset=".944" stop-color="#e5e9f6"/><stop offset="1" stop-color="#e8ecf7"/></linearGradient><path class="st53" d="M1092.024 660.929c-4.331-2.495-10.046-3.707-15.716-3.633-5.338.075-10.637 1.282-14.71 3.637l-52.041 30.043 7.283 4.185v6.673h20.495c5.498 0 11-1.203 15.17-3.611l45.404-26.088c.274-.8.416-1.611.416-2.424-.002-3.178-2.102-6.353-6.301-8.782z"/><path class="st2" d="M1032.021 686.47c-8.346 4.819-21.998 4.819-30.337 0l-83.722-48.108c-8.342-4.817-8.342-12.697 0-17.513l83.725-48.102c8.34-4.819 21.992-4.819 30.337 0l83.72 48.102c8.343 4.817 8.343 12.701 0 17.519l-83.723 48.102z"/><linearGradient id="SVGID_36_" gradientUnits="userSpaceOnUse" x1="911.705" y1="1354.169" x2="1121.977" y2="1354.169" gradientTransform="matrix(1 0 0 -1 0 2019.89)"><stop offset=".429" stop-color="#ffad02"/><stop offset=".515" stop-color="#ef7709"/><stop offset=".595" stop-color="#e24c0e"/><stop offset=".635" stop-color="#dd3b10"/></linearGradient><path class="st54" d="M917.962 638.365l83.722 48.105c8.34 4.819 21.992 4.819 30.337 0l83.724-48.102c3.807-2.2 5.856-5.036 6.184-7.934h.003v10.154a6.791 6.791 0 0 1 0 1.548v.061h-.003c-.33 2.889-2.382 5.725-6.184 7.925l-83.724 48.102c-8.346 4.817-21.998 4.817-30.337 0l-83.722-48.105c-4.244-2.446-6.316-5.691-6.242-8.922l-.014-4.669v-6.922c-.002 3.174 2.087 6.349 6.256 8.759z"/><path class="st8" d="M1049.45 618.94c-.922-.943-2.997-1.277-4.63-.739l-63.338 20.713c-1.634.534-2.208 1.731-1.283 2.674.925.942 2.997 1.27 4.63.739l63.336-20.713c1.635-.537 2.21-1.732 1.285-2.674zm-9.003 10.438l6.282 19.621-33.984-3.626c-1.843-.197-3.613.509-3.954 1.572-.339 1.065.88 2.089 2.721 2.286l38.835 4.146c1.103.116 2.233-.087 3.026-.544.789-.455 1.141-1.108.934-1.743l-7.178-22.422c-.337-1.066-2.113-1.769-3.953-1.572-1.847.196-3.071 1.218-2.729 2.282zm-66.379-22.331c-.792.457-1.141 1.108-.937 1.744l7.178 22.422c.344 1.065 2.117 1.769 3.961 1.571 1.843-.194 3.062-1.219 2.724-2.284l-6.282-19.621 33.982 3.628c1.843.197 3.615-.507 3.954-1.572.343-1.064-.88-2.09-2.725-2.285l-38.835-4.145c-1.101-.117-2.228.084-3.02.542z"/></g><g id="Speech_bubble"><linearGradient id="SVGID_37_" gradientUnits="userSpaceOnUse" x1="1151.791" y1="1748.602" x2="1309.764" y2="1474.984" gradientTransform="matrix(1 0 0 -1 0 2019.89)"><stop offset=".573" stop-color="#ced3f8"/><stop offset=".703" stop-color="#bbc0e6"/></linearGradient><path class="st55" d="M1293.836 400.946l-176.621-101.971c-4.745-2.74-9.018-2.808-11.991-.744l.005-.033-7.175 4.114.013.004c2.93-1.606 6.917-1.347 11.305 1.186l176.621 101.972c8.923 5.152 16.225 17.799 16.225 28.105v107.959c0 5.129-1.813 8.748-4.732 10.455l7.76-4.481c.03-.019.059-.035.089-.052l.123-.071-.016-.003c2.85-1.734 4.617-5.315 4.617-10.378V429.05c.002-10.304-7.298-22.951-16.223-28.104z"/><path class="st1" d="M1302.22 490.249V433.58c0-10.306-7.303-22.953-16.225-28.105l-176.621-101.971c-8.925-5.153-16.228-.937-16.228 9.367V420.83c0 10.306 7.303 22.952 16.228 28.106l176.621 101.97c8.923 5.154 16.225.938 16.225-9.367v-23.981l29.34 16.939-29.34-44.248z"/><path class="st8" d="M1331.559 534.498l-29.339-44.249 7.841-4.527 29.34 44.249z"/><image width="281" height="163" xlink:href="4EDD02CE7D8FD861.png" transform="translate(1083.547 559.667) scale(1.0969)" overflow="visible"/><path class="st7" d="M1230.895 459.018c1.216-4.622 10.017-.666 13.546 1.372l.035-11.908c-3.53-2.039-12.321-8.24-13.511-14.253a68.77 68.77 0 0 0-1.77-5.977c-2.415-6.137 3.144-10.892 5.656-12.308l-7.303-12.647c-2.284 1.058-7.249 2.952-11.223.655a8.189 8.189 0 0 1-2.336-2.039 75.124 75.124 0 0 0-4.29-4.528c-4.633-4.062-5.585-14.73-5.573-18.789l-10.359-5.983c-.013 4.06-1.019 13.601-5.651 12.31a24.414 24.414 0 0 0-4.313-.439c-.711.072-1.515-.178-2.358-.667-4.027-2.326-9.099-10.017-11.153-13.574l-7.347 4.19c2.841 4.513 7.992 15.44 5.546 18.776a24.871 24.871 0 0 0-1.791 3.917c-1.216 4.623-10.016.671-13.546-1.37l-.035 11.906c3.531 2.04 12.327 8.24 13.511 14.254a73.185 73.185 0 0 0 1.765 5.976c2.415 6.139-3.135 10.893-5.633 12.316l7.294 12.657c2.068-1.188 7.166-3.008 11.198-.682a8.383 8.383 0 0 1 2.354 2.05 69.542 69.542 0 0 0 4.299 4.537c4.619 5.105 5.576 14.723 5.559 18.783l10.368 5.982c.009-4.06 1.015-13.601 5.647-12.312 1.484.292 2.924.428 4.312.439.712-.072 1.515.183 2.354.668 4.031 2.329 9.103 10.018 11.167 13.59l7.337-4.204c-2.485-4.302-7.992-15.44-5.546-18.776a23.253 23.253 0 0 0 1.79-3.922zm-32.152-9.85c-10.147-5.855-18.333-20.039-18.302-31.699.035-11.648 8.278-16.354 18.425-10.499 10.131 5.854 18.324 20.047 18.289 31.695-.035 11.662-8.277 16.357-18.412 10.503z"/></g><g id="Dollar_symbol"><linearGradient id="SVGID_38_" gradientUnits="userSpaceOnUse" x1="899.889" y1="355.839" x2="1163.167" y2="355.839" gradientTransform="matrix(1 0 0 -1 0 2019.89)"><stop offset=".366" stop-color="#c4cae8"/><stop offset=".524" stop-color="#cdd2ec"/><stop offset=".781" stop-color="#e5e8f5"/><stop offset="1" stop-color="#fff"/></linearGradient><path class="st56" d="M1155.332 1653.087l-104.809-60.221c-10.448-6.035-27.54-6.035-37.981 0l-104.819 60.218c-10.445 6.032-10.445 15.898 0 21.929l98.146 56.396v8.355h25.658c6.883 0 13.77-1.507 18.992-4.521l104.812-60.221c10.447-6.034 10.447-15.907.001-21.935z"/><path class="st17" d="M1024.875 1720.526c-10.449 6.032-27.54 6.032-37.981 0l-104.817-60.229c-10.443-6.032-10.443-15.897 0-21.925l104.82-60.221c10.44-6.032 27.534-6.032 37.98 0l104.812 60.221c10.444 6.032 10.444 15.901 0 21.933l-104.814 60.221z"/><linearGradient id="SVGID_39_" gradientUnits="userSpaceOnUse" x1="874.244" y1="325.34" x2="1137.495" y2="325.34" gradientTransform="matrix(1 0 0 -1 0 2019.89)"><stop offset=".429" stop-color="#ced3f8"/><stop offset=".544" stop-color="#b5badd"/><stop offset=".635" stop-color="#a5abcc"/></linearGradient><path class="st57" d="M882.077 1660.3l104.817 60.226c10.441 6.032 27.534 6.032 37.981 0l104.819-60.221c4.766-2.754 7.331-6.305 7.742-9.932h.003v12.712a8.374 8.374 0 0 1 0 1.938v.077h-.003c-.413 3.616-2.982 7.167-7.742 9.922l-104.819 60.221c-10.449 6.032-27.54 6.032-37.981 0l-104.817-60.226c-5.313-3.062-7.906-7.125-7.815-11.169l-.018-5.845v-8.667c0 3.972 2.615 7.946 7.833 10.964z"/><path class="st8" d="M1012.469 1647.003c-2.955-1.706-4.588-3.97-4.588-6.391 0-2.402 1.634-4.675 4.588-6.38 6.099-3.523 16.022-3.523 22.112-.005 6.108 3.523 6.108 9.259 0 12.776l10.042 5.791c9.898-5.715 11.347-14.477 4.389-21.103l7.927-4.567-10.042-5.797-7.922 4.573c-11.47-4.015-26.643-3.174-36.547 2.546-5.642 3.246-8.741 7.573-8.741 12.167 0 4.608 3.104 8.935 8.741 12.182 6.104 3.529 6.104 9.253 0 12.777-6.094 3.523-16.027 3.518-22.122 0-6.099-3.523-6.099-9.249 0-12.777l-10.031-5.791c-9.909 5.719-11.353 14.482-4.398 21.103l-7.306 4.214 10.042 5.801 7.312-4.225c11.466 4.016 26.644 3.195 36.548-2.525 11.62-6.729 11.62-17.646-.004-24.369z"/></g><g id="Star"><linearGradient id="SVGID_40_" gradientUnits="userSpaceOnUse" x1="421.364" y1="828.902" x2="506.005" y2="828.902" gradientTransform="matrix(1 0 0 -1 0 2019.89)"><stop offset="0" stop-color="#c4cae9"/><stop offset=".191" stop-color="#d2d6ee"/><stop offset=".713" stop-color="#f3f4fa"/><stop offset="1" stop-color="#fff"/></linearGradient><path class="st58" d="M506.005 1201.142l-28.802-16.63 18.491-20.954h-25.917l-48.413 54.859h25.916l18.492-20.953z"/><path class="st24" d="M404.683 1141.624v15.983l6.373 23.227v-15.982z"/><path class="st42" d="M469.78 1147.576v15.986l-18.491 20.953v-15.985z"/><path class="st24" d="M439.858 1181.481v15.985l40.234 3.678v-15.983z"/><path class="st42" d="M374.764 1175.526v15.985l40.228 3.681v-15.986zM439.858 1181.481v15.985l-18.494 20.951v-15.982z"/><path class="st24" d="M421.364 1202.435v15.982l-6.372-23.225v-15.986z"/><path class="st43" d="M469.78 1147.576l-18.491 20.954 28.803 16.631-40.234-3.68-18.494 20.954-6.372-23.229-40.228-3.68 36.292-10.674-6.373-23.228 28.802 16.629z"/></g><g id="Man"><linearGradient id="SVGID_41_" gradientUnits="userSpaceOnUse" x1="2139.919" y1="549.288" x2="2232.076" y2="549.288" gradientTransform="matrix(1 0 0 -1 -209.666 2019.89)"><stop offset="0" stop-color="#c4cae8"/><stop offset=".095" stop-color="#ced3ec"/><stop offset=".409" stop-color="#e9ebf6"/><stop offset=".687" stop-color="#f9fafd"/><stop offset=".899" stop-color="#fff"/></linearGradient><path class="st59" d="M1930.253 1462.132h92.157v16.941h-92.157z"/><linearGradient id="SVGID_42_" gradientUnits="userSpaceOnUse" x1="2112.598" y1="562.98" x2="2191.752" y2="562.98" gradientTransform="matrix(1 0 0 -1 -124.7 2019.89)"><stop offset="0" stop-color="#c4cae8"/><stop offset=".095" stop-color="#ced3ec"/><stop offset=".409" stop-color="#e9ebf6"/><stop offset=".687" stop-color="#f9fafd"/><stop offset=".899" stop-color="#fff"/></linearGradient><path class="st60" d="M1987.899 1449.726h79.153v14.367h-79.153z"/><linearGradient id="SVGID_43_" gradientUnits="userSpaceOnUse" x1="-651.291" y1="565.218" x2="-617.304" y2="565.218" gradientTransform="matrix(1 0 0 -1 2615.919 2019.89)"><stop offset="0" stop-color="#423eaf"/><stop offset=".304" stop-color="#3a35a0"/><stop offset=".891" stop-color="#241e77"/><stop offset="1" stop-color="#1f196f"/></linearGradient><path class="st61" d="M1998.615 1458.904c0-13.303-8.434-13.693-8.434-13.693s-6.524 4.691-12.15 3.97c-7.319-3.512-17.469-2.617-11.702 8.016.049.128.116.259.195.393.354.57.959 1.111 1.868 1.641l5.641 2.527 12.786 1.99c2.812 1.598 11.732-2.107 11.796-4.844z"/><path class="st62" d="M1998.562 1457.71c-.156 2.73-6.338 4.903-11.742 4.775 0 0-10.982-.143-12.873-1.25l-5.555-3.255a17.522 17.522 0 0 1-2.594-1.895c.166.364.315.716.53 1.111.049.128.116.259.195.393.354.57.959 1.111 1.868 1.641 0 0 3.795 2.277 5.554 3.259 1.759.982 12.873 1.645 12.873 1.645 4.099.358 10.623-2.044 11.678-4.704.042-.202.083-.388.083-.537.036-.413.006-.788-.017-1.183z"/><path class="st2" d="M1995.185 1443.463c-2.173 0-9.815 1.943-9.815 1.943s-.049 1.061-.686 1.982c-.076.08-.143.167-.214.259-1.507 1.046-3.041 2.704.537 4.949 2.934 1.841 5.313.67 6.444-.456.457-.861 1.132-1.818 2.079-2.361.969-.556 1.562-.817 1.99-.837-.003-.058.018-.183.018-.183s.556-5.296-.353-5.296z"/><path class="st63" d="M1987.43 1308.992c-8.334.152-29.157.528-37.482.671 3.099 25.043 9.34 47.785 13.504 72.043 4.473 23.567 17.396 44.762 21.795 64.374 1.611 3.65 8.98 2.269 10.471-1.244 1.164-18.067-3.456-43.019-8.812-63.865.892-22.464 1.048-49.289.524-71.979z"/><linearGradient id="SVGID_44_" gradientUnits="userSpaceOnUse" x1="-709.913" y1="552.537" x2="-675.946" y2="552.537" gradientTransform="matrix(1 0 0 -1 2615.919 2019.89)"><stop offset="0" stop-color="#423eaf"/><stop offset=".304" stop-color="#3a35a0"/><stop offset=".891" stop-color="#241e77"/><stop offset="1" stop-color="#1f196f"/></linearGradient><path class="st64" d="M1939.973 1473.852c0-13.305-8.429-13.692-8.429-13.692s-4.565 0-11.987-3.076c-7.315-3.042-17.633-1.867-11.87 8.764.056.133.125.263.2.397.354.566.956 1.111 1.875 1.636l18.419 10.811c2.809 1.598 11.728-2.1 11.792-4.84z"/><path class="st62" d="M1939.928 1472.656c-.16 2.728-8.964 6.37-11.747 4.774l-18.419-10.797a17.453 17.453 0 0 1-2.602-1.898c.175.366.315.72.528 1.112.056.133.125.263.2.397.354.566.956 1.111 1.875 1.636l18.419 10.811c2.628 1.503 10.624-1.657 11.678-4.31a2.44 2.44 0 0 0 .08-.544c.033-.411.004-.778-.012-1.181z"/><path class="st2" d="M1936.545 1458.407c-2.166 0-9.815 1.944-9.815 1.944s-.053 1.062-.678 1.983c-.079.086-.144.171-.213.258-1.513 1.046-3.05 2.704.534 4.951 2.93 1.841 5.308.672 6.44-.452.458-.859 1.14-1.818 2.075-2.364.975-.562 1.565-.813 1.995-.839-.001-.055.02-.179.02-.179s.552-5.302-.358-5.302z"/><linearGradient id="SVGID_45_" gradientUnits="userSpaceOnUse" x1="-693.358" y1="631.135" x2="-628.02" y2="631.135" gradientTransform="matrix(1 0 0 -1 2615.919 2019.89)"><stop offset="0" stop-color="#423eaf"/><stop offset=".301" stop-color="#353097"/><stop offset=".747" stop-color="#251f7a"/><stop offset="1" stop-color="#1f196f"/></linearGradient><path class="st65" d="M1960.995 1368.54c2.277-10.764 28.545-12.1 26.822-54.43-8.243-1.214-49.824 18.292-58.063 17.078-5.579 25.207-7.34 43.541-7.185 68.141.559 23.983 2.828 41.15 3.964 61.219.99 3.873 8.483 3.709 10.534.489 4.098-17.633 9.017-39.131 7.137-60.567 2.455-11.872 14.123-19.323 16.791-31.93z"/><path class="st4" d="M1968.808 1231.918c29.331 19.598 21.893 41.389-.708 62.753.001 0-11.347-42.898.708-62.753z"/><g><path class="st2" d="M1870.538 1311.684c6.614 3.819 17.436 3.816 24.051-.001l80.111-46.255c6.611-3.82 6.612-10.066-.002-13.885l-66.194-38.216c-6.616-3.82-17.436-3.82-24.049-.001l-80.111 46.254c-6.615 3.817-6.619 10.066-.005 13.883l66.199 38.221z"/><linearGradient id="SVGID_46_" gradientUnits="userSpaceOnUse" x1="2540.42" y1="158.085" x2="2630.547" y2="1.98" gradientTransform="scale(-1 1) rotate(60 -700.267 -3190.348)"><stop offset=".393" stop-color="#a5abcc"/><stop offset=".52" stop-color="#ced3f8"/></linearGradient><path class="st66" d="M1804.337 1273.464l66.2 38.22c6.614 3.819 17.436 3.816 24.051-.001l80.111-46.255c3.264-1.888 4.913-4.367 4.951-6.852l-.001 7.264-.013.002c.12 2.607-1.513 5.233-4.939 7.211l-80.111 46.255c-6.613 3.819-17.436 3.818-24.05-.001l-66.194-38.216c-3.464-2.001-5.094-4.664-4.93-7.291l-.003-6.927c.147 2.396 1.776 4.77 4.928 6.591z"/><path class="st8" d="M1915.142 1243.008l7.106 4.102c-1.361.876-2.23 1.629-2.605 2.256-.375.626-.41 1.336-.104 2.128s.992 1.61 2.058 2.453c.79.638 2.358 1.635 4.708 2.991 3.829 2.211 6.321 3.854 7.475 4.932 1.155 1.077 1.728 2.148 1.717 3.214-.01 1.065-.636 2.265-1.88 3.598-.848.899-2.566 2.096-5.152 3.59l-1.569.906-7.076-4.085c2.19-1.265 3.474-2.149 3.849-2.65.374-.501.458-.983.251-1.445-.207-.462-.922-1.045-2.147-1.753-1.244-.717-3.513-2.13-6.809-4.239-1.855-1.186-3.182-2.247-3.983-3.188-.8-.94-1.273-1.823-1.421-2.649-.148-.827.016-1.867.488-3.119-1.835.285-3.573.382-5.21.291a20.978 20.978 0 0 1-4.973-.906c-1.678-.512-3.651-1.357-5.921-2.529-3.415-1.812-5.575-2.979-6.484-3.505-1.303-.752-2.368-1.185-3.197-1.299-.829-.114-1.698-.062-2.605.154-.908.216-2.428.94-4.56 2.171l-7.105-4.102 1.568-.906c2.666-1.539 4.919-2.595 6.766-3.171a18.905 18.905 0 0 1 5.714-.856c1.964.005 3.839.33 5.625.974 1.787.644 4.239 1.866 7.357 3.667 3.632 2.096 6.148 3.367 7.55 3.812 2.013.66 3.8.935 5.358.82 1.559-.113 3.296-.665 5.211-1.657zM1857.852 1276.085c1.361-.878 2.231-1.63 2.605-2.256.375-.626.405-1.334.09-2.119-.317-.786-.998-1.607-2.044-2.461-.789-.638-2.348-1.63-4.677-2.975-3.829-2.21-6.33-3.854-7.506-4.93-1.174-1.077-1.756-2.148-1.747-3.214.011-1.066.647-2.271 1.91-3.615.849-.901 2.566-2.097 5.152-3.59l1.57-.906 7.105 4.102c-2.111 1.22-3.361 2.094-3.746 2.624-.385.53-.479 1.029-.281 1.496.198.467.894 1.051 2.087 1.752 1.194.701 3.41 2.076 6.647 4.127 1.953 1.242 3.33 2.344 4.13 3.308.8.962 1.269 1.9 1.406 2.811.138.911-.03 1.88-.503 2.906 2.409-.296 4.401-.376 5.98-.239 2.23.216 4.52.809 6.869 1.777 1.598.672 4.795 2.336 9.592 4.992 1.501.844 2.62 1.336 3.361 1.479s1.564.105 2.471-.111c.908-.216 2.478-.969 4.708-2.256l7.076 4.086-1.569.906c-2.666 1.539-4.914 2.599-6.75 3.18a18.277 18.277 0 0 1-5.699.846 17.173 17.173 0 0 1-5.64-.983c-1.796-.638-4.253-1.857-7.371-3.658-3.612-2.085-6.118-3.362-7.52-3.829-2.014-.661-3.805-.931-5.374-.812-1.57.12-3.312.675-5.226 1.666l-7.106-4.104z"/></g><g><linearGradient id="SVGID_47_" gradientUnits="userSpaceOnUse" x1="-688.673" y1="733.369" x2="-627.675" y2="733.369" gradientTransform="matrix(1 0 0 -1 2615.919 2019.89)"><stop offset="0" stop-color="#807dfb"/><stop offset=".974" stop-color="#5652cc"/></linearGradient><path class="st67" d="M1970.148 1338.103c-17.853 10.026-36.535 10.041-42.902-2.274 2.385-22.933 4.618-41.595.017-63.578 1.353-12.138 2.313-13.962.757-21.046.549-2.376 7.859-7.441 13.174-12.302 5.749-5.241 9.63-10.235 12.593-10.837 24.414-4.986 36.275 38.516 34.23 84.9-1.884 12.334-9.079 20.211-17.869 25.137z"/><path class="st68" d="M1967.325 1230.835c-5.294-3.831-4.869-11.741-4.425-16.994a25.834 25.834 0 0 0 .988-9.077c-.781-11.57-8.833-21.076-17.82-19.842-18.119 2.473-14.232 11.841-13.452 23.415.726 10.718 6.088 17.767 14.302 18.459.12 1.765-.601 7.12-2.821 9.345 5.959 3.565 14.656 1.885 18.099.338 3.658-1.66 7.613-3.077 5.129-5.644z"/><path class="st69" d="M1938.832 1179.269c.431-1.449 3.196-2.394 12.609 1.229.059.029 2.285.896 2.43.951 17.42 7.545 13.213 27.636 10.61 32.97-.924 1.893-1.564 3.41-1.37 6.323-6.848-.283-9.016 3.57-13.401-.269-3.148-2.747-7.851-5.976-8.643-7.324-.789-1.354-.642-2.229-.642-3.322-.017-9.626-4.464-3.748-4.319-1.533-1.825-.891-1.702-4.759-1.582-9.063-14.79-11.032-6.851-18.647 4.308-19.962z"/></g><g><path class="st68" d="M1875.386 1311.755c-1.826.025-2.821-4.448-5.769-5.041-2.949-.59-9.173-2.039-9.175-.211.001 1.533 5.392 1.678 4.601 2.411-2.274 2.103-7.155-.524-8.231-2.556-1.083-2.038-2.827-2.323-2.801-.339.026 1.982.502 10.901 7.477 13.425 6.971 2.521 15.351 1.963 15.351 1.963l-1.453-9.652z"/><linearGradient id="SVGID_48_" gradientUnits="userSpaceOnUse" x1="1871.549" y1="734.619" x2="1944.271" y2="734.619" gradientTransform="matrix(1 0 0 -1 0 2019.89)"><stop offset="0" stop-color="#807dfb"/><stop offset=".272" stop-color="#7b78f5"/><stop offset=".627" stop-color="#6c69e5"/><stop offset="1" stop-color="#5652cc"/></linearGradient><path class="st70" d="M1872.983 1321.922s-4.749-5.969 3.041-10.98c13.911-1.276 24.58-11.478 31.21-16.276 4.476-5.715 11.835-30.756 19.223-43.12 6.981-9.072 22.101 4.685 16.655 17.52-4.639 10.935-16.7 32.131-23.074 39.551-5.537 6.444-26.921 12.843-47.055 13.305z"/></g></g><g id="Exclamation_symbol"><linearGradient id="SVGID_49_" gradientUnits="userSpaceOnUse" x1="-204.728" y1="687.662" x2="-89.866" y2="687.662" gradientTransform="matrix(1 0 0 -1 475.166 2019.89)"><stop offset=".426" stop-color="#c4c9e4"/><stop offset=".577" stop-color="#d7daed"/><stop offset=".846" stop-color="#f4f5fa"/><stop offset="1" stop-color="#fff"/></linearGradient><path class="st71" d="M369.285 1309.994c-11.346-6.551-26.424-9.566-41.232-9.123h-29.575v3.801c-4.408 1.393-8.567 3.16-12.285 5.322-21.109 12.278-20.987 32.172.256 44.448 3.659 2.111 7.726 3.839 12.029 5.213v3.972h34.206c13.389-.219 26.66-3.262 36.85-9.177 21.116-12.284 21.011-32.178-.249-44.456z"/><linearGradient id="SVGID_50_" gradientUnits="userSpaceOnUse" x1="-228.252" y1="682.798" x2="-119.695" y2="682.798" gradientTransform="matrix(1 0 0 -1 475.166 2019.89)"><stop offset="0" stop-color="#807dfb"/><stop offset=".014" stop-color="#7f7cfa"/><stop offset=".448" stop-color="#5e5ad1"/><stop offset=".792" stop-color="#4a46b8"/><stop offset="1" stop-color="#423eaf"/></linearGradient><path class="st72" d="M262.932 1354.418c-10.696-6.182-16.041-14.282-16.018-22.376l.043-21.487c-.02 8.105 5.321 16.205 16.021 22.387 21.256 12.27 55.607 12.27 76.723.006 10.492-6.109 15.748-14.079 15.771-22.074l-.049 21.483c-.02 7.989-5.276 15.962-15.764 22.068-21.116 12.273-55.47 12.273-76.727-.007z"/><path class="st17" d="M262.978 1332.941c-21.257-12.273-21.371-32.172-.259-44.445 21.122-12.273 55.482-12.273 76.736 0 21.261 12.273 21.365 32.172.247 44.452-21.118 12.263-55.468 12.263-76.724-.007z"/><path class="st7" d="M279.484 1323.35c-2.416-1.396-2.43-3.659-.03-5.052 2.401-1.393 6.306-1.393 8.721 0 2.418 1.393 2.43 3.656.03 5.052-2.4 1.392-6.304 1.392-8.721 0zM292.249 1312.627l30.128-17.396 5.377 3.108-30.128 17.396z"/></g><g id="Pencil"><linearGradient id="SVGID_51_" gradientUnits="userSpaceOnUse" x1="3557.414" y1="526.697" x2="3570.7" y2="504.638" gradientTransform="matrix(-1 0 0 1 4080.555 956.213)"><stop offset="0" stop-color="#362e94"/><stop offset="1" stop-color="#6b67e9"/></linearGradient><path class="st73" d="M517.847 1484.577c2.155 0 4.088-.426 5.965-1.506 1.169-.675 5.377-3.105 8.411-4.854a11.304 11.304 0 0 1-2.319-1.017c-5.745-3.316-10.402-11.38-10.402-18.013 0-1.457.268-2.675.684-3.727l-9.113 5.263c-3.678 2.364-6.106 6.371-6.106 10.974.001 7.113 5.765 12.88 12.88 12.88z"/><linearGradient id="SVGID_52_" gradientUnits="userSpaceOnUse" x1="3337.418" y1="372.437" x2="3324.934" y2="394.339" gradientTransform="matrix(-1 0 0 1 4080.555 956.213)"><stop offset="0" stop-color="#f5f5fa"/><stop offset=".233" stop-color="#eeeff8"/><stop offset=".56" stop-color="#dcdff2"/><stop offset=".942" stop-color="#bec5e9"/><stop offset="1" stop-color="#b9c0e7"/></linearGradient><path class="st74" d="M762.278 1334.615c-1.859-1.076-3.363-3.682-3.363-5.824 0-1.304.559-2.127 1.411-2.337l-23.483 3.435-5.018 7.136 5.018 12.932 10.034 5.792 18.047-21.125c-.618.559-1.568.612-2.646-.009z"/><linearGradient id="SVGID_53_" gradientUnits="userSpaceOnUse" x1="3316.496" y1="368.712" x2="3311.238" y2="375.503" gradientTransform="matrix(-1 0 0 1 4080.555 956.213)"><stop offset="0" stop-color="#5751d0"/><stop offset="1" stop-color="#1d1272"/></linearGradient><path class="st75" d="M762.278 1334.615c1.078.621 2.029.568 2.645.011l.272-.317 8.361-9.792-12.995 1.902-.236.034c-.851.211-1.411 1.033-1.411 2.337 0 2.143 1.505 4.749 3.364 5.825z"/><path class="st76" d="M556.154 1443.659c.885.51 1.91 1.703 2.283 2.657l4.069 10.495c.369.951.19 2.414-.398 3.248l-3.911 5.571c-.586.834-1.793 1.097-2.676.593l-8.18-4.722c-.885-.51-1.911-1.706-2.278-2.661l-4.069-10.49c-.37-.953-.191-2.417.396-3.25l3.909-5.571c.589-.832 1.796-1.1 2.677-.589l8.178 4.719z"/><path class="st24" d="M541.711 1446.789l190.112-109.764 5.018 12.933-190.112 109.76z"/><path class="st43" d="M546.729 1439.648l190.112-109.759-5.018 7.136-190.112 109.764z"/><path class="st77" d="M546.729 1459.718l190.112-109.76 10.033 5.793-190.11 109.76z"/><linearGradient id="SVGID_54_" gradientUnits="userSpaceOnUse" x1="3550.678" y1="493.382" x2="3536.101" y2="517.893" gradientTransform="matrix(-1 0 0 1 4080.555 956.213)"><stop offset=".074" stop-color="#e8ecf7"/><stop offset=".137" stop-color="#d6def0"/><stop offset=".559" stop-color="#d6def0"/><stop offset=".69" stop-color="#a5abcc"/></linearGradient><path class="st78" d="M517.261 1462.051l4.069 10.489c.369.953 1.4 2.15 2.28 2.663l8.18 4.718c.616.358 1.38.315 1.989-.015.159-.075 23.621-13.626 23.621-13.626-.619.247-1.309.272-1.882-.055l-8.18-4.722c-.885-.51-1.911-1.706-2.278-2.661l-4.069-10.49c-.37-.953-.191-2.416.396-3.25l3.909-5.571a1.86 1.86 0 0 1 .543-.511l-23.511 13.572c-.274.165-.559.355-.76.643l-3.911 5.564c-.584.835-.763 2.298-.396 3.252z"/><linearGradient id="SVGID_55_" gradientUnits="userSpaceOnUse" x1="3542.846" y1="487.814" x2="3524.723" y2="510.838" gradientTransform="matrix(-1 0 0 1 4080.555 956.213)"><stop offset=".559" stop-color="#d6def0"/><stop offset=".69" stop-color="#e7edf6"/></linearGradient><path class="st79" d="M542.413 1440.996a1.979 1.979 0 0 0-.541.512l-3.911 5.567c-.587.838-.768 2.301-.394 3.252l4.067 10.493c.366.951 1.395 2.149 2.283 2.659l8.174 4.72c.574.33 1.268.304 1.855.041.027.018 1.714-.955 1.714-.955-.616.247-1.313.272-1.884-.055l-8.184-4.72c-.881-.51-1.909-1.71-2.276-2.663l-4.069-10.49c-.369-.955-.192-2.416.396-3.252l3.911-5.567c.145-.211.33-.376.537-.513l-1.678.971z"/><linearGradient id="SVGID_56_" gradientUnits="userSpaceOnUse" x1="3546.391" y1="489.859" x2="3528.268" y2="512.884" gradientTransform="matrix(-1 0 0 1 4080.555 956.213)"><stop offset=".559" stop-color="#d6def0"/><stop offset=".69" stop-color="#e7edf6"/></linearGradient><path class="st80" d="M538.865 1443.043a1.957 1.957 0 0 0-.541.514l-3.907 5.569c-.591.834-.77 2.297-.398 3.248l4.067 10.495c.369.951 1.397 2.148 2.283 2.659l8.178 4.718c.573.335 1.266.308 1.853.043.03.018 1.712-.954 1.712-.954-.613.249-1.309.272-1.882-.06l-8.18-4.715c-.885-.513-1.91-1.71-2.278-2.663l-4.072-10.49c-.367-.951-.189-2.414.398-3.25l3.909-5.567c.147-.211.331-.383.543-.517l-1.685.97z"/><linearGradient id="SVGID_57_" gradientUnits="userSpaceOnUse" x1="3549.938" y1="491.908" x2="3531.814" y2="514.933" gradientTransform="matrix(-1 0 0 1 4080.555 956.213)"><stop offset=".559" stop-color="#d6def0"/><stop offset=".69" stop-color="#e7edf6"/></linearGradient><path class="st81" d="M535.319 1445.089a2.001 2.001 0 0 0-.54.519l-3.909 5.564c-.587.836-.768 2.299-.398 3.252l4.069 10.491c.369.953 1.395 2.151 2.285 2.661l8.175 4.718c.574.329 1.266.306 1.855.043.027.015 1.712-.955 1.712-.955-.615.249-1.311.272-1.883-.059l-8.18-4.72c-.883-.509-1.912-1.703-2.28-2.657l-4.067-10.495c-.372-.951-.191-2.414.394-3.248l3.911-5.571c.147-.206.33-.378.541-.513l-1.685.97z"/></g><g id="Woman"><linearGradient id="SVGID_58_" gradientUnits="userSpaceOnUse" x1="863.058" y1="393.794" x2="951.563" y2="393.794" gradientTransform="matrix(1 0 0 -1 -228.072 2019.89)"><stop offset="0" stop-color="#c2c8e6"/><stop offset=".112" stop-color="#ced3eb"/><stop offset=".419" stop-color="#e9ebf6"/><stop offset=".691" stop-color="#f9fafd"/><stop offset=".899" stop-color="#fff"/></linearGradient><path class="st82" d="M634.986 1617.962h88.504v16.269h-88.504z"/><linearGradient id="SVGID_59_" gradientUnits="userSpaceOnUse" x1="779.64" y1="417.286" x2="868.138" y2="417.286" gradientTransform="matrix(1 0 0 -1 -186.014 2019.89)"><stop offset="0" stop-color="#c2c8e6"/><stop offset=".112" stop-color="#ced3eb"/><stop offset=".419" stop-color="#e9ebf6"/><stop offset=".691" stop-color="#f9fafd"/><stop offset=".899" stop-color="#fff"/></linearGradient><path class="st83" d="M593.627 1594.471h88.498v16.264h-88.498z"/><linearGradient id="SVGID_60_" gradientUnits="userSpaceOnUse" x1="1864.209" y1="420.397" x2="1896.833" y2="420.397" gradientTransform="rotate(180 1240.69 1009.945)"><stop offset="0" stop-color="#423ead"/><stop offset=".312" stop-color="#39359e"/><stop offset=".915" stop-color="#231d75"/><stop offset="1" stop-color="#1f196f"/></linearGradient><path class="st84" d="M584.548 1605.734c0-12.775 8.097-13.15 8.097-13.15s4.384 0 11.513-2.956c7.027-2.92 16.936-1.79 11.398 8.421a2.608 2.608 0 0 1-.19.382c-.339.543-.919 1.065-1.793 1.573l-17.697 10.382c-2.699 1.536-11.267-2.021-11.328-4.652z"/><path class="st62" d="M584.598 1604.589c.148 2.621 8.604 6.117 11.277 4.587l17.697-10.373a16.798 16.798 0 0 0 2.492-1.82c-.161.351-.301.687-.509 1.066a2.608 2.608 0 0 1-.19.382c-.339.543-.919 1.065-1.793 1.573l-17.697 10.382c-2.525 1.442-10.202-1.588-11.215-4.147a2.698 2.698 0 0 1-.079-.516c-.033-.394-.006-.755.017-1.134z"/><path class="st85" d="M587.842 1590.903c2.087 0 9.427 1.87 9.427 1.87s.046 1.015.657 1.902c.071.077.135.161.206.249 1.448 1.004 2.919 2.595-.516 4.753-2.817 1.769-5.102.646-6.189-.437-.439-.828-1.089-1.747-1.995-2.266-.932-.537-1.499-.785-1.913-.806.002-.055-.015-.174-.015-.174s-.537-5.091.338-5.091z"/><path class="st86" d="M591.157 1465.957c8.001.147 24.552.507 32.55.646-2.978 24.05-8.972 45.891-12.969 69.186-4.299 22.638-9.138 38.547-13.361 57.384-1.548 3.506-8.625 2.18-10.058-1.196-1.116-17.348.367-38.483 5.51-58.504-.857-21.572-2.176-45.725-1.672-67.516z"/><g><linearGradient id="SVGID_61_" gradientUnits="userSpaceOnUse" x1="1823.871" y1="396.916" x2="1856.493" y2="396.916" gradientTransform="rotate(180 1240.69 1009.945)"><stop offset="0" stop-color="#423ead"/><stop offset=".312" stop-color="#39359e"/><stop offset=".915" stop-color="#231d75"/><stop offset="1" stop-color="#1f196f"/></linearGradient><path class="st87" d="M624.887 1629.211c0-12.775 8.097-13.146 8.097-13.146s4.385 0 11.511-2.954c7.025-2.921 16.936-1.792 11.4 8.419-.052.125-.121.25-.192.378-.339.548-.919 1.067-1.799 1.574l-17.69 10.382c-2.7 1.536-11.265-2.02-11.327-4.653z"/><path class="st62" d="M624.932 1628.065c.154 2.621 8.606 6.118 11.281 4.587l17.69-10.369a17.042 17.042 0 0 0 2.498-1.824c-.167.352-.302.689-.507 1.069-.052.125-.121.25-.192.378-.339.548-.919 1.067-1.799 1.574l-17.69 10.382c-2.525 1.442-10.204-1.592-11.218-4.14a2.457 2.457 0 0 1-.078-.521c-.03-.398-.002-.748.015-1.136z"/><path class="st85" d="M628.182 1614.383c2.08 0 9.423 1.865 9.423 1.865s.05 1.018.65 1.907c.078.08.142.162.207.246 1.453 1.006 2.93 2.6-.513 4.757-2.812 1.767-5.097.644-6.19-.438-.435-.823-1.091-1.743-1.991-2.266-.936-.54-1.502-.779-1.917-.806.002-.052-.019-.171-.019-.171s-.527-5.094.35-5.094z"/><linearGradient id="SVGID_62_" gradientUnits="userSpaceOnUse" x1="1838.039" y1="474.865" x2="1890.68" y2="474.865" gradientTransform="rotate(180 1240.69 1009.945)"><stop offset="0" stop-color="#1f196f"/><stop offset=".036" stop-color="#201b72"/><stop offset=".674" stop-color="#39349c"/><stop offset="1" stop-color="#423ead"/></linearGradient><path class="st88" d="M615.035 1523.144c-2.185-10.336-25.905-15.69-24.252-52.27 7.918-1.167 44.403 17.566 52.314 16.399.992 24.209-1.347 46.749-1.495 70.372-.541 23.034-2.716 39.52-3.807 58.798-.952 3.714-8.148 3.557-10.12.467-3.936-16.936-5.678-37.582-3.873-58.171-2.356-11.403-6.2-23.487-8.767-35.595z"/></g><g><linearGradient id="SVGID_63_" gradientUnits="userSpaceOnUse" x1="4593.832" y1="570.433" x2="4674.714" y2="570.433" gradientTransform="rotate(180 2626.306 1009.945)"><stop offset="0" stop-color="#bbc0e6"/><stop offset=".249" stop-color="#c1c5e8"/><stop offset=".576" stop-color="#d1d4ed"/><stop offset=".944" stop-color="#ecedf5"/><stop offset="1" stop-color="#f1f1f6"/></linearGradient><path class="st89" d="M601.735 1507.164c18.491 10.375 62.243 3.506 56.536-20.453-5.232-25.094-21.588-72.964-26.212-88.12-8.092-6.38-11.859-9.302-19.77-10.689-4.766-.833-10.949-1.901-14.623 1.551-15.928 14.96-21.176 56.183-19.457 95.213 1.952 10.809 14.423 17.391 23.526 22.498z"/><path class="st85" d="M603.898 1389.651c2-3.068 1.717-8.943 1.069-13.517a22.548 22.548 0 0 1-1.311-7.889c.107-10.161 11.959-19.979 19.916-19.893 7.953.084 9.002 10.04 8.892 20.198-.101 9.414-6.475 16.118-13.284 18.527-.445 1.562 1.857 3.492 3.095 4.396-5.362 2.904-11.788.718-14.977-.134-1.648-.439-2.866-.954-3.4-1.688z"/></g><path class="st69" d="M553.76 1381.323c9.772-1.503 7.209-10.809 11.007-15.002 4.659-5.142 14.856-5.026 19.577-3.31 8.571 3.117 19.675-.583 19.675-3.507 0-2.921-4.675-4.869-1.753-10.908 2.921-6.04 15.194-.778 20.066-5.651 11.343-11.343 13.416 13.417 8.901 17.933-4.787 4.787-1.694 6.419-3.155 7.88-1.461 1.46-1.876-6.063-4.14-3.798-2.583 2.582 2.629 8.23 2.629 16.119 0 7.89-7.505 14.977-14.172 12.273-4.67-1.895-10.801 2.12-9.058 15.195 1.461 10.957 14.609 36.671-16.363 41.93-30.973 5.26-8.586-28.72-30.389-17.532-22.206 11.395-47.142-44.804-2.825-51.622z"/><g><path class="st85" d="M665.804 1406.208c-1.055-1.753-4.539-2.29-1.617-4.19 2.922-1.899 7.136-4.016 9.668-4.016 0 1.655-.883 2.711-1.464 6.943-.58 4.233-6.587 1.263-6.587 1.263z"/><linearGradient id="SVGID_64_" gradientUnits="userSpaceOnUse" x1="620.351" y1="601.195" x2="673.246" y2="601.195" gradientTransform="matrix(1 0 0 -1 0 2019.89)"><stop offset="0" stop-color="#f1f1f6"/><stop offset=".418" stop-color="#d9dbef"/><stop offset="1" stop-color="#bbc0e6"/></linearGradient><path class="st90" d="M636.648 1402.809c-3.588-4.164-5.54-7.539-13.17-2.715-5.522 3.491-7.995 20.777 30.508 38.794 12.905 6.037 19.26-24.744 19.26-33.921-2.798-.267-8.255 1.486-8.255 1.486-.974 5.648-6.429 15.812-8.469 15.812-3.31.001-15.537-14.424-19.874-19.456z"/></g></g><g id="Scientist"><linearGradient id="SVGID_65_" gradientUnits="userSpaceOnUse" x1="529.973" y1="1157.318" x2="639.262" y2="1157.318" gradientTransform="matrix(1 0 0 -1 0 2019.89)"><stop offset="0" stop-color="#dae0f5"/><stop offset=".578" stop-color="#f2f4fc"/><stop offset="1" stop-color="#fff"/></linearGradient><path class="st91" d="M561.152 843.086l12.517 18.63h-43.696l12.519 20.341h96.77v-38.971z"/><linearGradient id="SVGID_66_" gradientUnits="userSpaceOnUse" x1="362.102" y1="1240.265" x2="337.231" y2="1265.136" gradientTransform="scale(1 -1) rotate(3.279 37220.206 3914.367)"><stop offset="0" stop-color="#1f196f"/><stop offset=".212" stop-color="#1c1766"/><stop offset="1" stop-color="#121047"/></linearGradient><path class="st92" d="M548.123 839.034c-1.736.761-4.194 6.965-3.921 11.334 1.669 1.665 7.339 4.528 7.339 4.528s13.545 5.687 17.099 6.332c6.922 1.256 13.544.159 13.935-4.373.149-1.712-4.555-6.028-8.562-8.106-5.207-2.697-10.199-6.35-13.558-9.673-2.647-2.617-12.332-.042-12.332-.042z"/><linearGradient id="SVGID_67_" gradientUnits="userSpaceOnUse" x1="3514.157" y1="1287.112" x2="3556.633" y2="1277.118" gradientTransform="scale(-1) rotate(-.602 -193789.097 389521.41)"><stop offset="0" stop-color="#5652ca"/><stop offset=".363" stop-color="#443fac"/><stop offset="1" stop-color="#1f196f"/></linearGradient><path class="st93" d="M562.327 696.78c.246 23.179.69 58.575.907 78.816.242 23.153-1.724 44.429-1.767 63.834-3.677 4.654-13.139 3.593-15.165.048-2.646-17.582-4.379-36.945-3.224-56.181-6.13-25.267-13.711-64.768-11.531-84.674 5.624 1.726 25.151-3.567 30.78-1.843z"/><linearGradient id="SVGID_68_" gradientUnits="userSpaceOnUse" x1="296.941" y1="1135.895" x2="272.07" y2="1160.766" gradientTransform="matrix(1 0 0 -1 245.974 2019.89)"><stop offset="0" stop-color="#1f196f"/><stop offset=".212" stop-color="#1c1766"/><stop offset="1" stop-color="#121047"/></linearGradient><path class="st94" d="M517.071 857.914c-1.78.667-4.589 6.717-4.565 11.088 1.57 1.76 7.07 4.945 7.07 4.945s13.196 6.453 16.708 7.299c6.84 1.652 13.511.936 14.163-3.569.245-1.7-4.202-6.276-8.084-8.582-5.046-2.991-9.82-6.922-12.983-10.431-2.491-2.765-12.309-.75-12.309-.75z"/><linearGradient id="SVGID_69_" gradientUnits="userSpaceOnUse" x1="3596.028" y1="1154.717" x2="3643.166" y2="1143.625" gradientTransform="rotate(-177.312 2069.42 1004.379)"><stop offset="0" stop-color="#4241a8"/><stop offset=".553" stop-color="#302c8a"/><stop offset="1" stop-color="#1f196f"/></linearGradient><path class="st95" d="M545.16 717.601c-1.078 23.153-5.849 55.309-7.73 76.162-2.14 23.692-3.531 45.558-7.056 64.934-3.938 4.43-13.326 2.831-15.15-.822-1.637-17.706-4.011-39.441-1.757-58.579 0-25.578-7.619-61.866-4.306-81.615 5.514 2.048 30.481-2.125 35.999-.08z"/><linearGradient id="SVGID_70_" gradientUnits="userSpaceOnUse" x1="550.434" y1="1371.456" x2="568.184" y2="1371.456" gradientTransform="matrix(1 0 0 -1 0 2019.89)"><stop offset="0" stop-color="#f6f6fb"/><stop offset=".68" stop-color="#dcdff9"/><stop offset="1" stop-color="#ced3f8"/></linearGradient><path class="st96" d="M550.434 620.446c7.59 1.457 16.69 7.936 17.655 26.7.967 18.762-5.808 29.275-5.808 29.275l-11.847-55.975z"/><linearGradient id="SVGID_71_" gradientUnits="userSpaceOnUse" x1="561.844" y1="1343.24" x2="588.372" y2="1343.24" gradientTransform="matrix(1 0 0 -1 0 2019.89)"><stop offset="0" stop-color="#f6f6fb"/><stop offset=".68" stop-color="#dcdff9"/><stop offset="1" stop-color="#ced3f8"/></linearGradient><path class="st97" d="M584.898 663.22c1.066-.201 3.272.596 3.442 2.269.396 3.844-2.516 12.953-25.194 24.621-6.019-10.219 10.14-24.71 21.752-26.89z"/><linearGradient id="SVGID_72_" gradientUnits="userSpaceOnUse" x1="3608.726" y1="1305.727" x2="3547.788" y2="1305.727" gradientTransform="rotate(180 2056.862 1009.945)"><stop offset="0" stop-color="#f6f6fb"/><stop offset="1" stop-color="#ced3f8"/></linearGradient><path class="st98" d="M511.244 634.554c4.903-6.136 17.022-14.068 24.843-15.28 19.354-2.999 25.419 9.802 26.79 19.368 2.583 17.961.183 146.107 3.059 157.969-1.422 6.251-12.924 9.637-17.283 10.595-18.939 4.153-40.541 3.418-42.031-8.588-2.776-22.451-2.454-156.988 4.622-164.064z"/><g><path class="st99" d="M535.676 602.157c-.261-4.363 16.125 5.366 15.222 11.067-.739 4.642-4.161 8.578.406 11.745 1.553 1.384 3.096 10.404-1.918 10.396-12.264-.024-15.341-4.029-23.789-12.078 4.89-2.696 10.928-6.96 10.079-21.13z"/><linearGradient id="SVGID_73_" gradientUnits="userSpaceOnUse" x1="525.595" y1="1390.087" x2="554.4" y2="1390.087" gradientTransform="matrix(1 0 0 -1 0 2019.89)"><stop offset="0" stop-color="#5652cc"/><stop offset="1" stop-color="#362e93"/></linearGradient><path class="st100" d="M549.019 621.59c-.22 1.949-4.612 3.619-15.66-5.549-1.233 2.163-4.797 5.845-7.764 7.248 8.448 8.049 19.564 20.276 26.358 20.276 5.092 0 .903-17.209-.649-18.593-1.508-1.046-2.135-2.175-2.285-3.382z"/><path class="st99" d="M530.555 600.2l4.835-9.362 26.305-3.746.585 17.505c-.897 12.114-4.203 15.736-9.225 16.035-7.112.421-14.433-3.903-15.966-12.234l-3.35-.644-3.184-7.554z"/><linearGradient id="SVGID_74_" gradientUnits="userSpaceOnUse" x1="537.091" y1="1403.086" x2="548.996" y2="1403.086" gradientTransform="matrix(1 0 0 -1 0 2019.89)"><stop offset="0" stop-color="#dae0f5"/><stop offset="1" stop-color="#fff"/></linearGradient><path class="st101" d="M548.151 625.199c-6.994-1.369-10.972-8.046-11.061-16.801 1.237 6.73 6.291 11.219 11.905 12.171-.113 1.6.32 4.86-.844 4.63z"/><path class="st86" d="M559.143 580.159c2.349-.761 2.281-2.796-7.951-4.774-6.062-1.981-14.215-1.687-18.959 2.268-6.421 5.367-7.634 12.074-5.226 19.94 2.405 7.866 7.818 15.125 7.818 15.125.892.674 2.016-4.123.282-6.046-.337-.239-.749-.924-1.247-2.223-3.036-7.902 2.141-7.402 2.928-6.806 1.627.416-.394 7.604 4.033 6.281 2.14-.628.974-6.693.661-8.84.336.032.655.044 1.019.118 4.029 1.54 16.93 1.241 9.259-2.158 4.909-.703 11.919.611 13.731-2.826 2.156-4.084-2.719-7.514-6.348-10.059z"/></g><g><path class="st99" d="M521.756 718.871c1.847.533 7.601 6.83 7.601 6.83-3.5 1.192-9.893 4.203-9.893 4.203-.952-1.037-2.863-4.242-2.863-4.242l5.155-6.791z"/><linearGradient id="SVGID_75_" gradientUnits="userSpaceOnUse" x1="491.148" y1="1340.47" x2="528.466" y2="1340.47" gradientTransform="matrix(1 0 0 -1 0 2019.89)"><stop offset="0" stop-color="#f6f6fb"/><stop offset=".68" stop-color="#dcdff9"/><stop offset="1" stop-color="#ced3f8"/></linearGradient><path class="st102" d="M508.956 636.503c5.156-9.16 24.277-5.945 18.4 13.272-5.715 18.672-20.382 36.055-20.35 38.091.032 2.03 17.881 31.526 17.881 31.526-.618 3.008-3.562 6.906-8.397 7.859-7.919-4.484-26.096-27.688-25.318-40.404.775-12.716 10.267-36.993 17.784-50.344z"/></g><path class="st86" d="M542.076 600.366c.058 3.27 2.295 11.483 6.92 11.376 2.563-.058 2.5-1.618 4.228-3.343 1.391-1.388 4.114-3.021 8.994-3.021 1.17 1.575 2.274 10.821-3.664 14.531-5.942 3.714-14.091.109-16.555-2.199-3.016-2.824-4.282-16.543-4.282-16.543l4.359-.801z"/><g><path class="st4" d="M579.301 674.726l-29.723 17.161 23.098-36.313 29.723-17.162z"/><path class="st22" d="M549.578 691.887l-1.095-.815 23.103-36.315 1.09.817z"/><path class="st103" d="M572.676 655.574l-1.09-.817 29.723-17.16 1.09.815z"/></g><path class="st99" d="M578.206 676.445c-5.152.69-5.254-2.151-5.254-5.122 0-2.97 2.518-5.44 8.274-4.88 3.203.314 3.806-.726 3.806-.726l1.119-1.756c1.414.868 1.557 1.151 1.604 2.106.045.955-1.406 9.292-9.549 10.378z"/></g></g></svg>