<svg id="Layer_1" xmlns="http://www.w3.org/2000/svg" viewBox="0 0 2290.884 2020.845"><style>.st0{fill:url(#SVGID_1_)}.st1{fill:#e8ecf7}.st2{fill:#fff}.st3{fill:#dfe4f4}.st4{fill:url(#SVGID_2_)}.st5{fill:url(#SVGID_3_)}.st6{fill:#f0f3f8}.st7{fill:#dae0f5}.st8{fill:url(#SVGID_4_)}.st9{fill:#5652ca}.st10{fill:url(#SVGID_5_)}.st11{fill:#d8def3}.st12{fill:#6b67e9}.st13{fill:#f1f1f6}.st14{fill:#ced3f8}.st15{fill:url(#SVGID_6_)}.st16{fill:#fd9009}.st17{fill:#423eaf}.st18{fill:url(#SVGID_7_)}.st19{fill:#f6f6fb}.st20{fill:url(#SVGID_8_)}.st21{fill:url(#SVGID_9_)}.st22{fill:url(#SVGID_10_)}.st23{fill:url(#SVGID_11_)}.st24{fill:url(#SVGID_12_)}.st25{fill:url(#SVGID_13_)}.st26{fill:url(#SVGID_14_)}.st27{fill:url(#SVGID_15_)}.st28{fill:url(#SVGID_16_)}.st29{fill:url(#SVGID_17_)}.st30{fill:url(#SVGID_18_)}.st31{fill:url(#SVGID_19_)}.st32{fill:#ced2f4}.st33{fill:#bbbfe2}.st34{fill:#f5f5f9}.st35{fill:#fc780b}.st36{fill:#ef4e16}.st37{fill:url(#SVGID_20_)}.st38{fill:#ffad02}.st39{fill:url(#SVGID_21_)}.st40{fill:#5652cc}.st41{fill:#807cfb}.st42{fill:url(#SVGID_22_)}.st43{fill:url(#SVGID_23_)}.st44{fill:url(#SVGID_24_)}.st45{fill:#362e93}.st46{fill:#362b6e}.st47{fill:url(#SVGID_25_)}.st48{fill:#c2c7e3}.st49{fill:url(#SVGID_26_)}.st50{fill:url(#SVGID_27_)}.st51{fill:url(#SVGID_28_)}.st52{fill:url(#SVGID_29_)}.st53{fill:#121047}.st54{fill:url(#SVGID_30_)}.st55{fill:#1f196f}.st56{fill:url(#SVGID_31_)}.st57{fill:url(#SVGID_32_)}.st58{fill:#bbc0e6}.st59{fill:url(#SVGID_33_)}.st60{fill:url(#SVGID_34_)}.st61{fill:url(#SVGID_35_)}.st62{fill:url(#SVGID_36_)}.st63{fill:url(#SVGID_37_)}.st64{fill:url(#SVGID_38_)}.st65{fill:url(#SVGID_39_)}.st66{fill:url(#SVGID_40_)}.st67{fill:url(#SVGID_41_)}.st68{fill:url(#SVGID_42_)}.st69{fill:url(#SVGID_43_)}.st70{fill:#ffd03e}.st71{fill:url(#SVGID_44_)}.st72{fill:url(#SVGID_45_)}.st73{fill:url(#SVGID_46_)}.st74{fill:url(#SVGID_47_)}.st75{fill:url(#SVGID_48_)}.st76{fill:url(#SVGID_49_)}.st77{fill:url(#SVGID_50_)}.st78{fill:url(#SVGID_51_)}.st79{fill:url(#SVGID_52_)}.st80{fill:url(#SVGID_53_)}.st81{fill:url(#SVGID_54_)}.st82{fill:url(#SVGID_55_)}.st83{fill:url(#SVGID_56_)}.st84{fill:url(#SVGID_57_)}.st85{fill:url(#SVGID_58_)}.st86{fill:#d1d7f3}.st87{fill:url(#SVGID_59_)}.st88{fill:url(#SVGID_60_)}.st89{fill:url(#SVGID_61_)}.st90{fill:url(#SVGID_62_)}.st91{fill:url(#SVGID_63_)}.st92{fill:url(#SVGID_64_)}.st93{fill:url(#SVGID_65_)}.st94{fill:url(#SVGID_66_)}.st95{fill:url(#SVGID_67_)}.st96{fill:url(#SVGID_68_)}.st97{fill:url(#SVGID_69_)}.st98{fill:url(#SVGID_70_)}.st99{fill:url(#SVGID_71_)}.st100{fill:url(#SVGID_72_)}.st101{fill:url(#SVGID_73_)}.st102{fill:url(#SVGID_74_)}.st103{fill:url(#SVGID_75_)}.st104{fill:url(#SVGID_76_)}.st105{fill:url(#SVGID_77_)}.st106{fill:url(#SVGID_78_)}.st107{fill:url(#SVGID_79_)}.st108{fill:url(#SVGID_80_)}.st109{fill:#dd3b10}.st110{fill:url(#SVGID_81_)}.st111{fill:url(#SVGID_82_)}.st112{fill:url(#SVGID_83_)}.st113{fill:url(#SVGID_84_)}.st114{fill:url(#SVGID_85_)}.st115{fill:url(#SVGID_86_)}.st116{fill:url(#SVGID_87_)}.st117{fill:#bdc2de}.st118{fill:#dadff2}.st119{fill:#c4c9e4}.st120{fill:#a3a9d0}.st121{fill:url(#SVGID_88_)}.st122{fill:url(#SVGID_89_)}.st123{fill:url(#SVGID_90_)}.st124{fill:url(#SVGID_91_)}.st125{fill:url(#SVGID_92_)}.st126{fill:url(#SVGID_93_)}</style><g id="Wave_shape"><linearGradient id="SVGID_1_" gradientUnits="userSpaceOnUse" x1="568.482" y1="285.401" x2="1550.129" y2="1651.17" gradientTransform="matrix(1 0 0 -1 0 2019.89)"><stop offset="0" stop-color="#fff" stop-opacity="0"/><stop offset=".526" stop-color="#f9f9fb" stop-opacity=".526"/><stop offset="1" stop-color="#efeff3"/></linearGradient><path class="st0" d="M1750.323 1654.807c549.267-202.787 749.563-812.244 270.281-895.753-787.131-137.147-974.279-459.016-1295.679-508.219-567.514-86.88-710.982 345.896-652.724 836.703 73.175 616.468 804.901 889.658 1678.122 567.269z"/></g><g id="Abstract_shapes"><path class="st1" d="M616.715 189.713l45.135 97.254c2.731 5.877 9.914 8.15 15.527 4.91l123.31-71.198c9.023-5.209 6.469-18.861-3.826-20.452L628.41 174.165c-8.712-1.35-15.404 7.55-11.695 15.548zM2193.81 1385.546c-36.855-21.275-96.609-21.275-133.462 0-36.855 21.281-36.855 55.781 0 77.057 36.856 21.281 96.609 21.281 133.465 0 36.855-21.276 36.853-55.776-.003-77.057zm-101.971 58.875c-19.462-11.238-19.465-29.455 0-40.693 19.462-11.238 51.017-11.238 70.479 0 19.465 11.238 19.465 29.455 0 40.693-19.461 11.238-51.017 11.238-70.479 0zM1409.492 1477.676c6.498 3.75 17.027 3.75 23.525 0 6.495-3.75 6.495-9.832 0-13.582-6.498-3.75-17.027-3.75-23.525 0-6.496 3.75-6.496 9.832 0 13.582zM1467.048 1510.904c6.495 3.75 17.027 3.75 23.522 0 6.498-3.75 6.498-9.832 0-13.582-6.495-3.75-17.027-3.75-23.522 0s-6.495 9.832 0 13.582zM1524.605 1544.133c6.495 3.75 17.027 3.75 23.522 0s6.495-9.832 0-13.582-17.027-3.75-23.522 0c-6.498 3.75-6.498 9.832 0 13.582z"/><ellipse class="st1" cx="1593.921" cy="1570.57" rx="16.636" ry="9.604"/><path class="st1" d="M1351.938 1510.904c6.495 3.75 17.027 3.75 23.522 0 6.498-3.75 6.498-9.832 0-13.582-6.495-3.75-17.027-3.75-23.522 0s-6.495 9.832 0 13.582zM1409.492 1544.133c6.498 3.75 17.03 3.75 23.525 0s6.495-9.832 0-13.582-17.027-3.75-23.525 0c-6.496 3.75-6.496 9.832 0 13.582zM1467.048 1577.361c6.498 3.75 17.027 3.75 23.526 0 6.495-3.75 6.495-9.832-.003-13.582-6.495-3.75-17.024-3.75-23.522 0-6.496 3.75-6.496 9.832-.001 13.582zM1548.127 1597.014c-6.495-3.75-17.027-3.756-23.522 0-6.495 3.75-6.495 9.826 0 13.576s17.027 3.75 23.522 0c6.496-3.75 6.496-9.826 0-13.576zM1294.381 1544.133c6.498 3.75 17.03 3.75 23.525 0s6.495-9.832 0-13.582c-6.498-3.75-17.027-3.75-23.525 0-6.495 3.75-6.495 9.832 0 13.582zM1351.938 1577.361c6.495 3.75 17.027 3.75 23.522 0 6.498-3.75 6.498-9.832 0-13.582-6.495-3.75-17.027-3.75-23.522 0s-6.495 9.832 0 13.582zM1409.495 1610.59c6.495 3.75 17.027 3.75 23.523 0 6.495-3.75 6.495-9.826 0-13.576-6.495-3.756-17.027-3.756-23.523 0-6.499 3.75-6.499 9.826 0 13.576zM1490.574 1630.242c-6.498-3.75-17.027-3.75-23.526 0-6.495 3.75-6.495 9.832 0 13.582 6.498 3.75 17.027 3.75 23.526 0 6.495-3.75 6.495-9.832 0-13.582zM1236.828 1577.361c6.495 3.75 17.027 3.75 23.522 0s6.495-9.832 0-13.582-17.027-3.75-23.522 0c-6.496 3.75-6.496 9.832 0 13.582zM1294.384 1610.59c6.495 3.75 17.027 3.75 23.523 0 6.495-3.75 6.495-9.826 0-13.582-6.495-3.75-17.027-3.75-23.523 0-6.498 3.756-6.498 9.832 0 13.582zM1351.938 1643.824c6.495 3.75 17.027 3.75 23.522 0 6.498-3.756 6.498-9.832 0-13.582-6.495-3.75-17.027-3.75-23.522 0s-6.495 9.826 0 13.582z"/><ellipse class="st1" cx="1421.256" cy="1670.262" rx="16.633" ry="9.604"/><path class="st1" d="M1202.796 1597.008c-6.498-3.75-17.027-3.75-23.525 0-6.495 3.756-6.495 9.832 0 13.582 6.498 3.75 17.027 3.75 23.525 0 6.496-3.75 6.496-9.826 0-13.582zM1260.35 1630.242c-6.495-3.75-17.027-3.75-23.522 0s-6.495 9.826 0 13.582c6.495 3.75 17.027 3.75 23.522 0 6.498-3.756 6.498-9.832 0-13.582zM1317.907 1663.47c-6.495-3.75-17.027-3.75-23.523 0-6.498 3.75-6.498 9.832 0 13.582 6.495 3.75 17.027 3.75 23.523 0 6.495-3.749 6.495-9.832 0-13.582zM1375.46 1696.699c-6.495-3.75-17.027-3.75-23.522 0s-6.495 9.832 0 13.582c6.498 3.75 17.027 3.75 23.525 0 6.495-3.75 6.495-9.832-.003-13.582z"/><g><path class="st2" d="M1291.375 444.846c-6.498-3.75-17.027-3.75-23.525 0-6.492 3.753-6.492 9.829 0 13.582 6.498 3.75 17.03 3.75 23.525 0s6.495-9.829 0-13.582zM1233.819 478.078c-6.495-3.75-17.027-3.75-23.523 0-6.495 3.75-6.495 9.829 0 13.582 6.495 3.75 17.027 3.75 23.523 0 6.498-3.753 6.498-9.832 0-13.582zM1176.265 511.306c-6.495-3.75-17.027-3.75-23.522 0-6.498 3.75-6.498 9.832 0 13.582 6.495 3.75 17.027 3.75 23.522 0 6.495-3.749 6.495-9.831 0-13.582zM1118.711 544.534c-6.498-3.75-17.03-3.75-23.525 0-6.495 3.752-6.495 9.833 0 13.583 6.498 3.75 17.027 3.75 23.525 0 6.493-3.75 6.493-9.832 0-13.583zM1061.155 577.766c-6.498-3.75-17.027-3.75-23.525 0-6.492 3.75-6.492 9.829 0 13.582 6.498 3.75 17.027 3.75 23.525 0 6.495-3.752 6.495-9.832 0-13.582z"/></g><path class="st1" d="M564.745 1560.48l51.715 29.857c7.887 4.553 6.896 12.504-2.209 17.76l-47.297 27.31c-9.103 5.256-22.878 5.824-30.762 1.274l-51.715-29.856c-7.887-4.553-6.896-12.504 2.209-17.763l47.297-27.308c9.106-5.255 22.879-5.826 30.762-1.274z"/></g><g id="Objects"><g id="Wires"><path class="st3" d="M904.327 1461.234a51.13 51.13 0 0 1-25.57-6.829l-333.891-192.771 3-5.197 333.891 192.771c13.922 8.039 31.219 8.039 45.141 0l365.761-211.172 3 5.197-365.761 211.172a51.136 51.136 0 0 1-25.571 6.829z"/><path class="st3" d="M904.327 1440.577a27.72 27.72 0 0 1-13.866-3.703l-192.003-110.85c-4-2.312-6.39-6.448-6.39-11.068 0-4.623 2.389-8.76 6.39-11.071l405.746-234.255 3 5.197-405.746 234.255a6.714 6.714 0 0 0-3.39 5.874 6.711 6.711 0 0 0 3.39 5.871l192.003 110.851c6.702 3.87 15.028 3.876 21.729 0l358.537-206.997 3 5.197-358.537 206.996a27.7 27.7 0 0 1-13.863 3.703z"/></g><g id="Back_blocks"><linearGradient id="SVGID_2_" gradientUnits="userSpaceOnUse" x1="2044.777" y1="1399.522" x2="2044.777" y2="1806.426" gradientTransform="matrix(1 0 0 -1 0 2019.89)"><stop offset=".09" stop-color="#fff" stop-opacity="0"/><stop offset=".491" stop-color="#f4f5fb" stop-opacity=".5"/><stop offset="1" stop-color="#dfe4f4"/></linearGradient><path class="st4" d="M1975.727 620.368l138.1-79.731V213.464l-138.1 79.732z"/><linearGradient id="SVGID_3_" gradientUnits="userSpaceOnUse" x1="1906.677" y1="1399.522" x2="1906.677" y2="1806.426" gradientTransform="matrix(1 0 0 -1 0 2019.89)"><stop offset=".112" stop-color="#fff" stop-opacity="0"/><stop offset="1" stop-color="#e9edf7"/></linearGradient><path class="st5" d="M1975.727 620.368l-138.1-79.731V213.464l138.1 79.732z"/><path class="st6" d="M1975.727 293.196l-138.1-79.732 138.094-79.731 138.106 79.731z"/><g><path class="st7" d="M297.595 682.638l181.139-104.579v-473.48L297.595 209.158z"/><path class="st1" d="M297.595 682.638l-181.13-104.579v-473.48l181.13 104.579z"/><path class="st6" d="M297.595 209.158l-181.13-104.579L297.592 0l181.142 104.579z"/></g></g><g id="Vertical_pie_chart"><linearGradient id="SVGID_4_" gradientUnits="userSpaceOnUse" x1="3428.254" y1="1947.795" x2="3652.608" y2="1947.795" gradientTransform="matrix(-.866 .5 0 -1.1547 3739.434 968.653)"><stop offset="0" stop-color="#fcad6d"/><stop offset="1" stop-color="#fd806a"/></linearGradient><path class="st8" d="M673.421 433.661v32.856c-37.936 21.902-68.692 75.173-68.692 118.981l-28.453 16.427c-.001-61.951 43.493-137.285 97.145-168.264z"/><path class="st9" d="M673.421 466.517v-32.856c19.345-11.168 37.322-14.942 52.462-12.431l-15.366 36.495c-10.705-1.775-23.417.894-37.096 8.792z"/><linearGradient id="SVGID_5_" gradientUnits="userSpaceOnUse" x1="576.276" y1="1467.419" x2="753.079" y2="1467.419" gradientTransform="matrix(1 0 0 -1 0 2019.89)"><stop offset="0" stop-color="#ffad02"/><stop offset="1" stop-color="#fc780b"/></linearGradient><path class="st10" d="M729.75 558.647c-12.416 27.697-32.997 53.042-56.329 66.51-37.936 21.905-68.692 4.148-68.692-39.659 0-43.808 30.756-97.078 68.692-118.981v-32.856c-53.651 30.979-97.145 106.312-97.145 168.264 0 61.954 43.494 87.064 97.145 56.089 32.994-19.049 62.101-54.891 79.658-94.061l-23.329-5.306z"/><path class="st11" d="M742.116 506.177c0-28.014-12.61-45.302-31.6-48.451l15.366-36.495c26.857 4.452 44.687 28.901 44.687 68.52 0 23.853-6.495 49.676-17.49 74.203l-23.329-5.306c7.772-17.344 12.366-35.602 12.366-52.471z"/><g><path class="st12" d="M651.788 581.754l-6.92 3.998-.006-30.87-8.262 7.718v-6.454l14.444-14.316.744-.427v40.351zM686.59 545.004c.006 5.57-.993 10.406-2.991 14.51-1.995 4.103-4.919 7.265-8.768 9.488-3.8 2.194-6.709 2.427-8.719.691-2.016-1.733-3.041-5.288-3.094-10.664v-7.413c0-5.624 1.014-10.477 3.035-14.555 2.018-4.083 4.928-7.217 8.73-9.412 3.8-2.194 6.703-2.43 8.719-.706 2.01 1.723 3.044 5.272 3.088 10.648v7.413zm-6.92-4.152c0-3.338-.395-5.54-1.189-6.602-.788-1.069-2.022-1.118-3.698-.149-1.632.94-2.836 2.358-3.609 4.252-.77 1.897-1.181 4.399-1.23 7.506v9.797c0 3.283.387 5.496 1.16 6.65.776 1.148 2.021 1.229 3.727.242 1.693-.977 2.915-2.449 3.665-4.414.753-1.967 1.143-4.535 1.175-7.704l-.001-9.578zM691.169 526.479c.006-2.476.697-4.879 2.089-7.225 1.389-2.342 3.208-4.166 5.464-5.465 2.282-1.318 4.116-1.616 5.505-.897 1.392.721 2.083 2.38 2.083 4.984v1.992c.006 2.492-.691 4.894-2.08 7.209-1.392 2.313-3.211 4.12-5.461 5.421-2.271 1.31-4.105 1.608-5.502.892-1.392-.716-2.092-2.365-2.098-4.95v-1.961zm4.602-.495c0 1.113.275 1.856.829 2.215.548.357 1.271.278 2.168-.237.893-.517 1.602-1.27 2.133-2.262a6.814 6.814 0 0 0 .788-3.215l-.003-2.061c.003-1.118-.264-1.865-.788-2.25-.527-.383-1.251-.309-2.177.226-.882.507-1.591 1.257-2.136 2.25-.542.992-.811 2.09-.811 3.299l-.003 2.035zm4.36 24.831l-3.375-.15 17.033-41.297 3.375.149-17.033 41.298zm7.714-11.306c0-2.493.7-4.906 2.107-7.236 1.406-2.335 3.229-4.15 5.464-5.44 2.267-1.31 4.099-1.614 5.502-.918 1.394.699 2.092 2.365 2.092 5.005v1.989c0 2.476-.685 4.869-2.056 7.181-1.377 2.319-3.205 4.134-5.487 5.452-2.3 1.327-4.143 1.628-5.537.897-1.386-.728-2.083-2.354-2.083-4.883v-2.047h-.002zm4.602-.466c0 1.018.284 1.726.861 2.12.572.392 1.295.34 2.156-.158 1.948-1.125 2.924-2.941 2.921-5.449l.003-2.121c-.003-1.112-.272-1.853-.814-2.221-.545-.362-1.266-.287-2.159.228-.894.517-1.614 1.273-2.153 2.262a6.665 6.665 0 0 0-.815 3.246v2.093z"/></g></g><g id="Back_window"><path class="st13" d="M699.818 801.203c0 5.364 3.797 7.554 8.44 4.874l232.828-134.422c4.644-2.682 8.444-9.262 8.444-14.625V462.063c0-5.363-3.8-7.556-8.444-4.875L708.258 591.612c-4.643 2.68-8.44 9.261-8.44 14.623v194.968z"/><path class="st14" d="M702.627 806.814l-.009.009-.114-.068c.038.019.082.038.123.059z"/><linearGradient id="SVGID_6_" gradientUnits="userSpaceOnUse" x1="3365.42" y1="1600.65" x2="3578.176" y2="1232.146" gradientTransform="rotate(180 2123.872 1009.945)"><stop offset=".551" stop-color="#807cfb"/><stop offset=".585" stop-color="#5652c8"/><stop offset=".6" stop-color="#423eaf"/></linearGradient><path class="st15" d="M701.224 587.55l232.828-134.423c2.3-1.329 4.392-1.458 5.918-.601l.003-.001.015.01c.02.009.035.018.053.028l6.967 4.024-.003.001c-1.526-.857-3.618-.728-5.918.599L708.258 591.612c-4.643 2.68-8.44 9.261-8.44 14.623v194.969c0 2.565.873 4.393 2.288 5.323l-6.522-3.769.006-.009c-1.72-.796-2.81-2.744-2.81-5.608V602.174c0-5.363 3.8-11.943 8.444-14.624z"/><path class="st16" d="M880.951 530.36l50.655-29.244v-9.311l-50.655 29.247z"/><path class="st17" d="M859.767 676.214L933 633.933v-4.654l-73.233 42.281z"/><g><path class="st17" d="M880.69 676.132l37.606-21.71v-4.654l-37.606 21.71z"/></g><g><path class="st17" d="M923.25 651.561l9.75-5.628v-4.654l-9.75 5.628z"/></g><path class="st17" d="M709.432 655.821l171.973-99.287v-4.654l-171.973 99.287v4.654zM893.03 545.168v4.654l21.764-12.565v-4.654l-21.764 12.565z"/><path class="st14" d="M812.098 681.817l-14.649-20.84 14.649-37.753 29.294-16.917 14.648 20.841-14.648 37.755z"/></g><g id="Arrows"><path class="st3" d="M1774 1117.28l20.092-37.345 9.973 5.754 77.174-44.557 21.58 12.46-77.18 44.56 13.067 7.535zM395.315 1046.469l-20.081 37.345-9.987-5.76-77.168 44.558-21.577-12.454 77.174-44.555-13.058-7.541z"/></g><g id="Little_pedestal"><linearGradient id="SVGID_7_" gradientUnits="userSpaceOnUse" x1="213.967" y1="486.507" x2="364.803" y2="486.507" gradientTransform="matrix(1 0 0 -1 0 2019.89)"><stop offset=".205" stop-color="#d1d7f3"/><stop offset=".608" stop-color="#d3d9f4"/><stop offset=".764" stop-color="#dadff5"/><stop offset=".877" stop-color="#e6e9f8"/><stop offset=".968" stop-color="#f7f8fd"/><stop offset="1" stop-color="#fff"/></linearGradient><path class="st18" d="M358.457 1491.489l-10.563-6.1c3.628 2.364 5.467 5.338 5.467 8.32v6.659c0 3.22-2.115 6.439-6.346 8.883l-118.586 68.467c-3.996 2.309-9.198 3.486-14.462 3.612v.047H224.7v-.006c5.505-.032 10.995-1.242 15.171-3.653l118.586-68.467c8.462-4.883 8.462-12.878 0-17.762z"/><path class="st19" d="M228.429 1571.056c-8.461 4.887-22.305 4.887-30.765 0L73.27 1499.229c-8.459-4.884-8.459-12.879 0-17.763L191.858 1413c8.46-4.884 22.304-4.884 30.765 0l124.393 71.827c8.461 4.884 8.461 12.879 0 17.763l-118.587 68.466z"/><linearGradient id="SVGID_8_" gradientUnits="userSpaceOnUse" x1="66.926" y1="484.266" x2="353.362" y2="484.266" gradientTransform="matrix(1 0 0 -1 0 2019.89)"><stop offset=".294" stop-color="#ced3f8"/><stop offset=".385" stop-color="#bbc0e6"/></linearGradient><path class="st20" d="M347.016 1502.59l-118.586 68.467c-8.461 4.887-22.305 4.887-30.765 0L73.27 1499.229c-4.441-2.564-6.527-5.985-6.304-9.363h-.04v7.143c0 3.22 2.114 6.44 6.344 8.883l124.395 71.827c8.459 4.884 22.304 4.884 30.765 0l118.586-68.467c4.23-2.444 6.346-5.663 6.346-8.883v-6.659c-.001 3.219-2.116 6.439-6.346 8.88z"/></g><g id="Shadows_from_bar_graphs"><linearGradient id="SVGID_9_" gradientUnits="userSpaceOnUse" x1="497.956" y1="806.462" x2="876.258" y2="806.462" gradientTransform="matrix(1 0 0 -1 0 2019.89)"><stop offset="0" stop-color="#d1d7f3"/><stop offset=".331" stop-color="#e6e9f8"/><stop offset=".722" stop-color="#f8f9fd"/><stop offset="1" stop-color="#fff"/></linearGradient><path class="st21" d="M721.119 1123.86H497.956l155.13 89.567-155.13 89.569h223.163l155.139-89.569z"/><linearGradient id="SVGID_10_" gradientUnits="userSpaceOnUse" x1="1036.933" y1="910.186" x2="1415.237" y2="910.186" gradientTransform="matrix(1 0 0 -1 0 2019.89)"><stop offset="0" stop-color="#d1d7f3"/><stop offset=".331" stop-color="#e6e9f8"/><stop offset=".722" stop-color="#f8f9fd"/><stop offset="1" stop-color="#fff"/></linearGradient><path class="st22" d="M1260.098 1020.138h-223.165l155.132 89.566-155.132 89.566h223.165l155.139-89.566z"/><linearGradient id="SVGID_11_" gradientUnits="userSpaceOnUse" x1="857.276" y1="806.46" x2="1097.897" y2="806.46" gradientTransform="matrix(1 0 0 -1 0 2019.89)"><stop offset="0" stop-color="#d1d7f3"/><stop offset=".59" stop-color="#ebedfa"/><stop offset="1" stop-color="#fff"/></linearGradient><path class="st23" d="M942.762 1123.86l-85.486.003 155.127 89.569-155.127 89.567 85.486-.003 155.135-89.569z"/><linearGradient id="SVGID_12_" gradientUnits="userSpaceOnUse" x1="1575.907" y1="1013.907" x2="1816.528" y2="1013.907" gradientTransform="matrix(1 0 0 -1 0 2019.89)"><stop offset="0" stop-color="#d1d7f3"/><stop offset=".59" stop-color="#ebedfa"/><stop offset="1" stop-color="#fff"/></linearGradient><path class="st24" d="M1661.389 916.412l-85.482.006 155.126 89.566-155.126 89.569 85.482-.005 155.139-89.567z"/><linearGradient id="SVGID_13_" gradientUnits="userSpaceOnUse" x1="677.616" y1="910.186" x2="1331.131" y2="910.186" gradientTransform="matrix(1 0 0 -1 0 2019.89)"><stop offset="0" stop-color="#d1d7f3"/><stop offset=".224" stop-color="#e6e9f8"/><stop offset=".488" stop-color="#f8f9fd"/><stop offset=".676" stop-color="#fff"/></linearGradient><path class="st25" d="M1175.993 1020.138H677.616l155.13 89.566-155.13 89.566h498.377l155.138-89.566z"/><linearGradient id="SVGID_14_" gradientUnits="userSpaceOnUse" x1="1396.258" y1="1117.633" x2="2056.264" y2="1117.633" gradientTransform="matrix(1 0 0 -1 0 2019.89)"><stop offset="0" stop-color="#d1d7f3"/><stop offset=".331" stop-color="#e6e9f8"/><stop offset=".722" stop-color="#f8f9fd"/><stop offset="1" stop-color="#fff"/></linearGradient><path class="st26" d="M2056.264 812.689h-660.006l155.127 89.567-155.127 89.569h660.006v-89.569z"/><linearGradient id="SVGID_15_" gradientUnits="userSpaceOnUse" x1="1216.592" y1="1013.91" x2="1672.071" y2="1013.91" gradientTransform="matrix(1 0 0 -1 0 2019.89)"><stop offset="0" stop-color="#d1d7f3"/><stop offset="1" stop-color="#fff"/></linearGradient><path class="st27" d="M1516.938 916.412h-300.346l155.133 89.569-155.133 89.567h300.346l155.133-89.567z"/></g><g id="Big_pedestal"><linearGradient id="SVGID_16_" gradientUnits="userSpaceOnUse" x1="1155.116" y1="704.065" x2="1671.028" y2="704.065" gradientTransform="matrix(1 0 0 -1 0 2019.89)"><stop offset=".205" stop-color="#d1d7f3"/><stop offset=".608" stop-color="#d3d9f4"/><stop offset=".764" stop-color="#dadff5"/><stop offset=".877" stop-color="#e6e9f8"/><stop offset=".968" stop-color="#f7f8fd"/><stop offset="1" stop-color="#fff"/></linearGradient><path class="st28" d="M1664.682 1168.526l-10.558-6.1c3.627 2.364 5.467 5.338 5.467 8.32v6.662c0 3.22-2.115 6.439-6.346 8.883l-483.668 279.27c-3.996 2.308-9.199 3.486-14.461 3.615v.047h10.734v-.009c5.502-.032 10.992-1.242 15.17-3.653l483.662-279.27c8.461-4.886 8.461-12.878 0-17.765z"/><path class="st19" d="M1169.577 1458.902c-8.461 4.884-22.301 4.884-30.762 0l-241.601-139.503c-8.461-4.884-8.461-12.879 0-17.763l483.664-279.272c8.461-4.884 22.307-4.884 30.767 0l241.6 139.503c8.461 4.884 8.461 12.879 0 17.763l-483.668 279.272z"/><linearGradient id="SVGID_17_" gradientUnits="userSpaceOnUse" x1="890.868" y1="699.903" x2="1659.591" y2="699.903" gradientTransform="matrix(1 0 0 -1 0 2019.89)"><stop offset=".294" stop-color="#ced3f8"/><stop offset=".385" stop-color="#bbc0e6"/></linearGradient><path class="st29" d="M1653.245 1179.63l-483.668 279.273c-8.461 4.884-22.301 4.884-30.762 0L897.214 1319.4c-4.441-2.563-6.527-5.985-6.305-9.363h-.041v7.142c0 3.22 2.115 6.439 6.346 8.883l241.601 139.5c8.461 4.887 22.301 4.887 30.762 0l483.668-279.27c4.23-2.443 6.346-5.663 6.346-8.883v-6.662c-.001 3.22-2.116 6.439-6.346 8.883z"/><linearGradient id="SVGID_18_" gradientUnits="userSpaceOnUse" x1="1082.331" y1="913.165" x2="1523.746" y2="913.165" gradientTransform="matrix(1 0 0 -1 0 2019.89)"><stop offset="0" stop-color="#dae0f5"/><stop offset=".353" stop-color="#e3e8f7"/><stop offset=".931" stop-color="#fcfcfe"/><stop offset="1" stop-color="#fff"/></linearGradient><path class="st30" d="M1523.746 1087.093l-112.102-64.728c-8.461-4.884-22.307-4.884-30.767 0l-298.546 172.383h177.766l155.139-89.567-24.521-14.156h126.223l6.808-3.932z"/><linearGradient id="SVGID_19_" gradientUnits="userSpaceOnUse" x1="902.693" y1="771.988" x2="1097.897" y2="771.988" gradientTransform="matrix(1 0 0 -1 0 2019.89)"><stop offset="0" stop-color="#dae0f5"/><stop offset=".325" stop-color="#e1e6f7"/><stop offset=".797" stop-color="#f4f6fc"/><stop offset="1" stop-color="#fff"/></linearGradient><path class="st31" d="M902.693 1298.473l40.069-.004 155.135-89.566-20.041-11.572z"/></g><g id="Bar_graph"><path class="st32" d="M1241.137 629.44l155.121 89.568v272.817l-155.121-89.563z"/><path class="st33" d="M1551.391 629.44l-155.133 89.568v272.817l155.133-89.563z"/><path class="st34" d="M1396.258 539.875l-155.121 89.565 155.121 89.568 155.133-89.568z"/><path class="st35" d="M1061.473 799.154l155.119 89.561v206.833l-155.119-89.57z"/><path class="st36" d="M1371.731 799.154l-155.139 89.561v206.833l155.139-89.57z"/><path class="st34" d="M1216.592 709.585l-155.119 89.569 155.119 89.561 155.139-89.561z"/><path class="st32" d="M881.812 980.859l155.121 89.569v128.842l-155.121-89.563z"/><path class="st33" d="M1192.071 980.859l-155.138 89.569v128.842l155.138-89.563z"/><path class="st34" d="M1036.933 891.299l-155.121 89.56 155.121 89.569 155.138-89.569z"/><path class="st13" d="M1036.933 1199.27l-46.356-155.607-108.765-62.804v128.848z"/><linearGradient id="SVGID_20_" gradientUnits="userSpaceOnUse" x1="881.812" y1="1052.409" x2="1192.071" y2="1052.409" gradientTransform="matrix(1 0 0 -1 0 2019.89)"><stop offset="0" stop-color="#f1f1f6"/><stop offset=".982" stop-color="#fff"/></linearGradient><path class="st37" d="M990.577 1043.663h92.716l108.778-62.804-155.138-89.56-155.121 89.56z"/><g><path class="st35" d="M522.498 821.968l155.118 89.566v287.736l-155.118-89.563z"/><path class="st36" d="M832.752 821.968l-155.136 89.566v287.736l155.136-89.563z"/><path class="st38" d="M677.616 732.407l-155.118 89.561 155.118 89.566 155.136-89.566z"/></g><g><path class="st32" d="M702.152 1164.076l155.124 89.569v49.354l-155.124-89.57z"/><path class="st33" d="M1012.406 1164.076l-155.13 89.569v49.354l155.13-89.57z"/><path class="st34" d="M857.276 1074.507l-155.124 89.569 155.124 89.569 155.13-89.569z"/><path class="st13" d="M789.196 1263.691l-17.756-59.607-69.288-40.008v49.353z"/><linearGradient id="SVGID_21_" gradientUnits="userSpaceOnUse" x1="702.152" y1="880.606" x2="954.835" y2="880.606" gradientTransform="matrix(1 0 0 -1 0 2019.89)"><stop offset="0" stop-color="#dfe4f4"/><stop offset="1" stop-color="#fff"/></linearGradient><path class="st39" d="M876.258 1143.524l-21.982-12.688h100.559l-97.559-56.329-155.124 89.569 69.252 39.984z"/></g><g><path class="st40" d="M1061.473 749.792l155.119 89.569v49.354l-155.119-89.567z"/><path class="st17" d="M1371.725 749.792l-155.133 89.569v49.354l155.133-89.567z"/><path class="st41" d="M1216.592 660.224l-155.119 89.568 155.119 89.569 155.133-89.569z"/></g><g><path class="st40" d="M1241.137 521.199l155.121 89.567v108.242l-155.121-89.569z"/><path class="st17" d="M1551.385 521.199l-155.127 89.567v108.242l155.127-89.569z"/><path class="st41" d="M1396.258 431.631l-155.121 89.568 155.121 89.567 155.127-89.567z"/></g><g><path class="st35" d="M1420.786 956.628l155.121 89.569v49.356l-155.121-89.569z"/><path class="st36" d="M1731.033 956.628l-155.126 89.569v49.356l155.126-89.569z"/><path class="st38" d="M1575.907 867.061l-155.121 89.567 155.121 89.569 155.126-89.569z"/><path class="st13" d="M1546.417 1078.526l-17.754-59.607-107.877-62.291v49.356z"/><linearGradient id="SVGID_22_" gradientUnits="userSpaceOnUse" x1="1420.786" y1="1076.9" x2="1671.684" y2="1076.9" gradientTransform="matrix(1 0 0 -1 0 2019.89)"><stop offset="0" stop-color="#dfe4f4"/><stop offset="1" stop-color="#fff"/></linearGradient><path class="st42" d="M1575.907 867.061l-155.121 89.567 107.877 62.291 143.021-82.576-25.91-14.959h24.222z"/></g><g><path class="st40" d="M342.836 1084.582l155.12 89.569v128.845l-155.12-89.567z"/><path class="st17" d="M653.092 1084.582l-155.136 89.569v128.845l155.136-89.567z"/><path class="st41" d="M497.956 995.024l-155.12 89.558 155.12 89.569 155.136-89.569z"/></g></g><g id="Robots"><linearGradient id="SVGID_23_" gradientUnits="userSpaceOnUse" x1="1323.152" y1="771.749" x2="1389.707" y2="656.473" gradientTransform="matrix(1 0 0 -1 0 2019.89)"><stop offset="0" stop-color="#d1d7f3"/><stop offset=".308" stop-color="#dbe0f6"/><stop offset=".83" stop-color="#f6f7fd"/><stop offset=".989" stop-color="#fff"/></linearGradient><path class="st43" d="M1480.176 1311.184l-43.799-25.286 33.767-19.497c.205-.106.399-.22.58-.337l.176-.097-.006-.003c5.836-3.771 1.283-11.265-13.676-19.901-21.516-12.422-56.402-22.494-77.918-22.494-7.488 0-12.357 1.222-14.637 3.334l-.041-.026-34.846 20.115c-5.338 2.528-4.664 7.298 1.975 13.16l-43.635 25.189c-6.299-1.043-12.217-1.632-17.361-1.632-7.483 0-12.358 1.219-14.637 3.331l-.041-.023-34.84 20.115c-7.447 3.521-3.275 11.382 12.551 20.517 21.516 12.422 56.402 22.494 77.918 22.494 7.189 0 11.959-1.128 14.35-3.088l.006.006 31.295-18.068 45.985 26.552 76.834-44.361z"/><path class="st14" d="M1301.928 1199.593c0 22.494 15.785 49.84 35.267 61.087 19.477 11.244 35.268 2.127 35.268-20.361 0-22.494-15.791-49.834-35.268-61.084-19.482-11.248-35.267-2.128-35.267 20.358zm5.303 3.064c0-19.11 13.412-26.856 29.965-17.3 16.547 9.557 29.965 32.786 29.965 51.899 0 19.11-13.418 26.851-29.965 17.297-16.553-9.55-29.965-32.783-29.965-51.896z"/><linearGradient id="SVGID_24_" gradientUnits="userSpaceOnUse" x1="3566.685" y1="761.726" x2="3609.061" y2="835.123" gradientTransform="rotate(180 2461.226 1009.945)"><stop offset="0" stop-color="#f6f6fb"/><stop offset="1" stop-color="#bbc0e6"/></linearGradient><path class="st44" d="M1337.196 1254.553c-16.552-9.551-29.965-32.783-29.965-51.896 0-19.11 13.412-26.856 29.965-17.3.656.384 1.307.823 1.963 1.248 1.014 17.836 12.949 38.464 27.897 48.217.041.814.105 1.632.105 2.434 0 19.111-13.418 26.851-29.965 17.297z"/><path class="st45" d="M1298.231 1197.463c0 24.844 17.443 55.061 38.965 67.479 21.516 12.422 38.959 2.353 38.959-22.488 0-24.85-17.443-55.064-38.959-67.485-21.522-12.425-38.965-2.356-38.965 22.494zm3.697 2.13c0-22.485 15.791-31.605 35.267-20.358 19.477 11.244 35.268 38.593 35.268 61.084 0 22.488-15.791 31.606-35.268 20.361-19.476-11.248-35.267-38.593-35.267-61.087z"/><path class="st46" d="M1364.413 1267.851h-.006a.506.506 0 0 1 .064-.035l-.058.035z"/><linearGradient id="SVGID_25_" gradientUnits="userSpaceOnUse" x1="3528.488" y1="769.098" x2="3583.577" y2="864.517" gradientTransform="rotate(180 2461.226 1009.945)"><stop offset="0" stop-color="#1f196f"/><stop offset="1" stop-color="#5652cc"/></linearGradient><path class="st47" d="M1340.571 1154.437c7.113-4.735 17.268-4.412 28.541 2.101 21.521 12.422 38.965 42.633 38.965 67.485 0 12.612-4.5 21.41-11.748 25.397l.006.003-31.33 18.085c6.896-4.137 11.15-12.791 11.15-25.055 0-24.85-17.443-55.064-38.959-67.485-11.279-6.513-21.433-6.832-28.547-2.098l31.922-18.433z"/><path class="st48" d="M1235.688 1182.791c-6.117-3.53-6.117-9.304 0-12.832l51.961-30.006c6.117-3.53 16.119-3.53 22.225 0l50.713 29.279c6.111 3.53 6.111 9.302 0 12.829l-51.967 30.006c-6.117 3.53-16.113 3.53-22.23 0l-50.702-29.276z"/><path class="st19" d="M1235.688 1182.791c-6.117-3.53-6.117-9.304 0-12.832l51.961-30.006c6.117-3.53 16.119-3.53 22.225 0l50.713 29.279c6.111 3.53 6.111 9.302 0 12.829l-51.967 30.006c-6.117 3.53-16.113 3.53-22.23 0l-50.702-29.276z"/><linearGradient id="SVGID_26_" gradientUnits="userSpaceOnUse" x1="3557.278" y1="786.373" x2="3691.327" y2="786.373" gradientTransform="rotate(180 2461.226 1009.945)"><stop offset=".411" stop-color="#a3a9d0"/><stop offset=".456" stop-color="#a8add4"/><stop offset=".676" stop-color="#bbc0e6"/></linearGradient><path class="st49" d="M1231.13 1176.765c.164 2.194 1.67 4.362 4.558 6.026l50.701 29.276.023.012c6.111 3.519 16.096 3.513 22.207-.012l51.967-30.006c3.041-1.752 4.564-4.063 4.576-6.378l.006.003.006 52.125c-.006 7.277-6.123 23.291-16.547 28.787l-57.469 33.176c-.111.07-.228.138-.34.199l-.199.114v-.023c-3.99 2.101-9.387 1.702-15.34-1.732l-28.483-16.444c-16.254-9.384-15.668-26.906-15.668-34.711v-60.412h.002z"/><linearGradient id="SVGID_27_" gradientUnits="userSpaceOnUse" x1="3593.355" y1="752" x2="3657.305" y2="862.765" gradientTransform="rotate(180 2461.226 1009.945)"><stop offset="0" stop-color="#a7aed5"/><stop offset=".011" stop-color="#aeb5d8"/><stop offset=".07" stop-color="#d1d5e9"/><stop offset=".126" stop-color="#eaecf5"/><stop offset=".176" stop-color="#fafafc"/><stop offset=".217" stop-color="#fff"/></linearGradient><path class="st50" d="M1231.13 1176.765c.164 2.194 1.67 4.362 4.558 6.026l50.701 29.276.023.012c6.111 3.519 16.096 3.513 22.207-.012l51.967-30.006c3.041-1.752 4.564-4.063 4.576-6.378l.006.003.006 52.125c-.006 7.277-6.123 23.291-16.547 28.787l-57.469 33.176c-.111.07-.228.138-.34.199l-.199.114v-.023c-3.99 2.101-9.387 1.702-15.34-1.732l-28.483-16.444c-16.254-9.384-15.668-26.906-15.668-34.711v-60.412h.002z"/><g><path class="st14" d="M1195.915 1260.893c0 22.494 15.785 49.837 35.262 61.084 19.482 11.247 35.268 2.13 35.268-20.359 0-22.494-15.785-49.837-35.268-61.081-19.477-11.246-35.262-2.132-35.262 20.356zm5.302 3.059c0-19.108 13.412-26.848 29.959-17.297 16.553 9.562 29.965 32.789 29.965 51.899 0 19.113-13.412 26.854-29.965 17.3-16.546-9.556-29.959-32.789-29.959-51.902z"/><linearGradient id="SVGID_28_" gradientUnits="userSpaceOnUse" x1="3672.702" y1="700.425" x2="3715.078" y2="773.823" gradientTransform="rotate(180 2461.226 1009.945)"><stop offset="0" stop-color="#f6f6fb"/><stop offset="1" stop-color="#bbc0e6"/></linearGradient><path class="st51" d="M1231.176 1315.854c-16.547-9.557-29.959-32.789-29.959-51.902 0-19.108 13.412-26.848 29.959-17.297.668.384 1.312.826 1.963 1.251 1.019 17.833 12.949 38.461 27.896 48.217.047.808.106 1.629.106 2.432 0 19.113-13.412 26.853-29.965 17.299z"/><path class="st45" d="M1192.211 1258.761c0 24.847 17.449 55.06 38.965 67.485 21.521 12.422 38.965 2.35 38.965-22.494 0-24.853-17.444-55.061-38.965-67.483-21.515-12.425-38.965-2.355-38.965 22.492zm3.704 2.132c0-22.488 15.785-31.6 35.262-20.355 19.482 11.241 35.268 38.587 35.268 61.081 0 22.488-15.785 31.6-35.268 20.359-19.477-11.245-35.262-38.596-35.262-61.085z"/><path class="st46" d="M1258.399 1329.152l-.006-.006c.017-.006.041-.018.064-.029l-.058.035z"/><linearGradient id="SVGID_29_" gradientUnits="userSpaceOnUse" x1="3634.504" y1="707.798" x2="3689.593" y2="803.215" gradientTransform="rotate(180 2461.226 1009.945)"><stop offset="0" stop-color="#1f196f"/><stop offset="1" stop-color="#5652cc"/></linearGradient><path class="st52" d="M1234.551 1215.741c7.119-4.737 17.268-4.412 28.547 2.098 21.521 12.422 38.965 42.63 38.965 67.482 0 12.615-4.506 21.413-11.748 25.4h.006l-31.33 18.085c6.891-4.137 11.151-12.791 11.151-25.054 0-24.853-17.444-55.061-38.965-67.483-11.279-6.513-21.433-6.835-28.547-2.098l31.921-18.43z"/></g><g><path class="st53" d="M1283.911 965.417c-1.271-.858-2.578-1.608-3.861-2.168a4.814 4.814 0 0 0-6.34 2.484 4.824 4.824 0 0 0 2.49 6.337c3.082 1.348 7.295 5.2 9.023 7.348a4.81 4.81 0 0 0 6.768.73 4.818 4.818 0 0 0 .727-6.768c-1.647-2.045-5.075-5.45-8.807-7.963zM1287.977 997.107c1.219-.929 2.35-1.928 3.287-2.965a4.81 4.81 0 0 0-.334-6.797 4.815 4.815 0 0 0-6.797.334c-2.262 2.49-7.254 5.256-9.844 6.208a4.815 4.815 0 0 0 3.334 9.033c2.461-.911 6.786-3.071 10.354-5.813z"/><linearGradient id="SVGID_30_" gradientUnits="userSpaceOnUse" x1="1283.799" y1="995.79" x2="1369.875" y2="995.79" gradientTransform="matrix(1 0 0 -1 0 2019.89)"><stop offset="0" stop-color="#5652cc"/><stop offset=".282" stop-color="#4944b6"/><stop offset=".867" stop-color="#27227d"/><stop offset="1" stop-color="#1f196f"/></linearGradient><path class="st54" d="M1358.717 1071.184c11.115-9.381 14.238-27.46 7.957-46.063-7.781-23.039-30.885-48.39-72.404-50.443-5.502-.273-10.183 3.967-10.459 9.472-.269 5.502 3.967 10.187 9.469 10.459 31.517 1.562 48.808 20.083 54.486 36.896 3.938 11.654 2.016 21.109-1.916 24.425-4.213 3.554-4.746 9.847-1.195 14.062 3.556 4.21 9.85 4.743 14.062 1.192z"/><path class="st55" d="M1267.258 985.52a4.81 4.81 0 0 0 5.303 2.065c3.252-.867 8.953-.486 11.643.114a4.816 4.816 0 0 0 5.742-3.65 4.815 4.815 0 0 0-3.65-5.745c-3.439-.764-10.881-1.444-16.225-.014a4.812 4.812 0 0 0-2.813 7.23z"/></g><g><path d="M1217.272 1085.376l.012-.003c0 .062-.012.117-.012.176v-.173z"/><linearGradient id="SVGID_31_" gradientUnits="userSpaceOnUse" x1="3543.437" y1="876.841" x2="3705.185" y2="876.841" gradientTransform="rotate(180 2461.226 1009.945)"><stop offset=".514" stop-color="#bbc0e6"/><stop offset=".682" stop-color="#ced3f8"/></linearGradient><path class="st56" d="M1217.272 1085.874c.065 2.273 1.582 4.532 4.565 6.255l50.713 29.274c6.111 3.53 16.113 3.53 22.225 0l79.652-45.985c3.053-1.764 4.582-4.09 4.588-6.413v93.032c0 2.329-1.529 4.652-4.588 6.422l-79.652 45.984c-6.111 3.533-16.113 3.533-22.225 0l-50.713-29.276c-3.199-1.846-4.711-4.315-4.553-6.753l-.017.003.005-92.543z"/><path class="st2" d="M1221.836 1092.129c-6.111-3.527-6.111-9.305 0-12.832l79.658-45.987c6.112-3.53 16.113-3.527 22.225 0l50.707 29.276c6.111 3.53 6.111 9.302 0 12.832l-79.652 45.985c-6.111 3.53-16.113 3.53-22.225 0l-50.713-29.274z"/></g><linearGradient id="SVGID_32_" gradientUnits="userSpaceOnUse" x1="1244.327" y1="946.587" x2="1379.01" y2="946.587" gradientTransform="matrix(1 0 0 -1 0 2019.89)"><stop offset="0" stop-color="#d1d7f3"/><stop offset=".286" stop-color="#d9def5"/><stop offset=".725" stop-color="#eef0fb"/><stop offset="1" stop-color="#fff"/></linearGradient><path class="st57" d="M1374.426 1062.586l-35.443-20.461c-.211-.003-.422-.012-.633-.012h-18.938c-8.971 0-19.869 2.098-24.352 4.688l-48.815 28.184c-4.477 2.587-.85 4.684 8.115 4.684l34.383 20.139c-4.476 2.587-.85 4.685 8.115 4.685h18.938c2.807 0 5.66-.056 8.543-.155l50.086-28.919c6.113-3.531 6.113-9.303.001-12.833z"/><g><path class="st58" d="M1317.403 1030.62c17.959-10.368 32.525-1.966 32.525 18.776v10.931c0 5.179-3.633 11.473-8.121 14.059l-48.814 28.183c-4.483 2.584-8.115.489-8.115-4.684v-10.933c-.001-20.742 14.566-45.964 32.525-56.332z"/><linearGradient id="SVGID_33_" gradientUnits="userSpaceOnUse" x1="3614.632" y1="1010.357" x2="3660.302" y2="931.254" gradientTransform="rotate(180 2461.226 1009.945)"><stop offset="0" stop-color="#f6f6fb"/><stop offset=".464" stop-color="#e0e3f9"/><stop offset=".784" stop-color="#ced3f8"/></linearGradient><path class="st59" d="M1275.268 1006.295c9-5.2 17.15-5.675 23.033-2.253l42.07 24.284c-5.883-3.378-14.004-2.883-22.969 2.294-17.959 10.368-32.525 35.59-32.525 56.332v10.933c0 2.546.885 4.342 2.315 5.209l-41.906-24.202c-1.559-.806-2.543-2.651-2.543-5.335v-10.93c0-20.739 14.566-45.961 32.525-56.332z"/></g><g><linearGradient id="SVGID_34_" gradientUnits="userSpaceOnUse" x1="1152.395" y1="886.346" x2="1188.084" y2="886.346" gradientTransform="rotate(46.932 919.534 1109.042) scale(.9999)"><stop offset="0" stop-color="#d1d7f3"/><stop offset=".51" stop-color="#eef0fb"/><stop offset=".893" stop-color="#fff"/></linearGradient><path class="st60" d="M1271.852 1147.172l-24.164-26.262-12.715 11.886 24.164 26.258z"/><path class="st53" d="M1253.723 1134.343c0-6.357-4.459-14.086-9.967-17.265-5.508-3.178-9.967-.603-9.967 5.754-.006 6.36 4.459 14.086 9.967 17.265 5.502 3.178 9.967.597 9.967-5.754zM1172.53 1051.418c.838 1.28 1.746 2.485 2.713 3.504a4.81 4.81 0 0 0 6.802.179c1.934-1.828 2.004-4.878.182-6.803-2.314-2.443-4.693-7.632-5.449-10.286a4.81 4.81 0 0 0-5.947-3.31 4.809 4.809 0 0 0-3.305 5.947c.715 2.528 2.543 6.998 5.004 10.769z"/><linearGradient id="SVGID_35_" gradientUnits="userSpaceOnUse" x1="1167.658" y1="954.888" x2="1237.805" y2="874.462" gradientTransform="matrix(1 0 0 -1 0 2019.89)"><stop offset="0" stop-color="#5652cc"/><stop offset=".282" stop-color="#4944b6"/><stop offset=".867" stop-color="#27227d"/><stop offset="1" stop-color="#1f196f"/></linearGradient><path class="st61" d="M1253.7 1134.671c.006-.111.023-.214.023-.328 0-5.754-3.662-12.621-8.438-16.233-.117-.015-.229-.044-.346-.056-22.447 8.107-42.586-3.671-53.608-19.093-6.82-9.542-11.93-23.883-3.885-32.906 5.871-10.436-5.004-22.667-15.727-11.944-10.728 10.729-10.465 35.877 3.949 56.045 15.328 21.445 45.879 38.622 76.735 25.641.477-.353.904-.731 1.297-1.126z"/><path class="st53" d="M1200.502 1065.173c1.523-.179 3.006-.457 4.342-.867a4.815 4.815 0 0 0 3.199-6.015c-.779-2.54-3.481-3.964-6.018-3.19-3.217.984-8.924.802-11.637.302a4.803 4.803 0 0 0-5.607 3.852 4.816 4.816 0 0 0 3.85 5.611c2.59.477 7.401.831 11.871.307z"/><path class="st55" d="M1183.85 1055.724a4.82 4.82 0 0 0 4.166-3.882c.633-3.307 3.451-8.273 5.156-10.436a4.808 4.808 0 0 0-.791-6.756 4.806 4.806 0 0 0-6.756.791c-2.186 2.763-6.029 9.17-7.067 14.605a4.815 4.815 0 0 0 5.292 5.678z"/></g><g><path class="st40" d="M1328.137 1096.142a1.873 1.873 0 0 1-1.875-1.875v-6.803c0-3.047-2.071-6.914-4.43-8.276l-5.367-3.1a1.875 1.875 0 0 1-.688-2.563 1.872 1.872 0 0 1 2.563-.689l5.367 3.1c3.536 2.042 6.305 7.104 6.305 11.528v6.803a1.873 1.873 0 0 1-1.875 1.875z"/></g><g><path class="st40" d="M1337.618 1090.717a1.873 1.873 0 0 1-1.875-1.875v-6.806c0-3.047-2.071-6.914-4.43-8.276l-5.367-3.097a1.878 1.878 0 0 1 1.875-3.252l5.367 3.097c3.536 2.042 6.305 7.104 6.305 11.528v6.806a1.873 1.873 0 0 1-1.875 1.875z"/></g><g><linearGradient id="SVGID_36_" gradientUnits="userSpaceOnUse" x1="150.095" y1="788.174" x2="226.486" y2="920.487" gradientTransform="matrix(1 0 0 -1 0 2019.89)"><stop offset="0" stop-color="#d1d7f3"/><stop offset=".308" stop-color="#dbe0f6"/><stop offset=".83" stop-color="#f6f7fd"/><stop offset=".989" stop-color="#fff"/></linearGradient><path class="st62" d="M269.202 1193.698l60.303-34.817-105.992-61.192-59.758 34.5c-.825-.006-1.647-.018-2.492-.018-41.998 0-93.07 9.829-114.072 21.955-20.789 12.003-4.295 21.75 36.785 21.943-1.456 2.988-.166 6.34 3.889 8.681l33.269 19.21 27.797 16.046c-10.381 10.04 7.237 17.599 44.064 17.599 42.005 0 93.073-9.829 114.072-21.955 20.976-12.108 4.022-21.926-37.865-21.952z"/><path class="st58" d="M70.885 1081.389c-19.481 11.247-35.267 38.59-35.267 61.081s15.788 31.606 35.267 20.361c19.478-11.247 35.265-38.593 35.265-61.084.001-22.488-15.787-31.606-35.265-20.358zm0 75.316c-16.551 9.557-29.965 1.817-29.965-17.294 0-19.116 13.414-42.346 29.965-51.899 16.55-9.557 29.963-1.81 29.963 17.3.001 19.11-13.413 42.345-29.963 51.893z"/><linearGradient id="SVGID_37_" gradientUnits="userSpaceOnUse" x1="930.589" y1="859.571" x2="972.964" y2="932.968" gradientTransform="matrix(1 0 0 -1 -878.276 2019.89)"><stop offset="0" stop-color="#f6f6fb"/><stop offset="1" stop-color="#ced3f8"/></linearGradient><path class="st63" d="M70.885 1156.705c16.55-9.548 29.963-32.783 29.963-51.893s-13.414-26.857-29.963-17.3c-.662.381-1.312.82-1.964 1.245-1.014 17.836-12.949 38.467-27.896 48.22-.045.812-.104 1.632-.104 2.435-.001 19.109 13.413 26.85 29.964 17.293z"/><path class="st55" d="M70.885 1077.123c-21.518 12.422-38.962 42.633-38.962 67.482 0 24.844 17.443 34.913 38.962 22.488 21.517-12.419 38.965-42.633 38.963-67.479.002-24.849-17.446-34.919-38.963-22.491zm0 85.708c-19.478 11.244-35.267 2.127-35.267-20.361s15.788-49.837 35.267-61.081c19.472-11.247 35.265-2.13 35.265 20.358.001 22.491-15.79 49.837-35.265 61.084z"/><path class="st46" d="M43.667 1170.003h.004c-.023-.014-.042-.023-.064-.035l.06.035z"/><linearGradient id="SVGID_38_" gradientUnits="userSpaceOnUse" x1="892.391" y1="866.946" x2="947.48" y2="962.362" gradientTransform="matrix(1 0 0 -1 -878.276 2019.89)"><stop offset="0" stop-color="#362e93"/><stop offset="1" stop-color="#5652cc"/></linearGradient><path class="st64" d="M67.509 1056.592c-7.116-4.734-17.27-4.412-28.545 2.098C17.444 1071.111 0 1101.322 0 1126.178c0 12.612 4.503 21.41 11.748 25.394l-.003.003 31.329 18.085c-6.895-4.137-11.15-12.791-11.15-25.055 0-24.85 17.443-55.061 38.962-67.482 11.276-6.513 21.429-6.835 28.546-2.098l-31.923-18.433z"/><path class="st48" d="M172.393 1084.942c6.113-3.527 6.113-9.302 0-12.829l-51.965-30.009c-6.114-3.527-16.116-3.527-22.225 0l-50.711 29.279c-6.11 3.53-6.113 9.302 0 12.832l51.965 30.003c6.116 3.53 16.118 3.53 22.231 0l50.705-29.276z"/><path class="st19" d="M172.393 1084.942c6.113-3.527 6.113-9.302 0-12.829l-51.965-30.009c-6.114-3.527-16.116-3.527-22.225 0l-50.711 29.279c-6.11 3.53-6.113 9.302 0 12.832l51.965 30.003c6.116 3.53 16.118 3.53 22.231 0l50.705-29.276z"/><linearGradient id="SVGID_39_" gradientUnits="userSpaceOnUse" x1="921.181" y1="884.221" x2="1055.225" y2="884.221" gradientTransform="matrix(1 0 0 -1 -878.276 2019.89)"><stop offset=".411" stop-color="#bbc0e6"/><stop offset=".456" stop-color="#b6bce2"/><stop offset=".676" stop-color="#a3a9d0"/></linearGradient><path class="st65" d="M176.947 1078.916c-.16 2.197-1.668 4.362-4.554 6.026l-50.706 29.276-.02.012c-6.113 3.519-16.1 3.516-22.21-.012l-51.965-30.003c-3.04-1.755-4.564-4.063-4.578-6.381l-.006.003-.003 52.125c.003 7.28 6.12 23.294 16.542 28.787l57.47 33.176c.116.07.228.138.344.199l.196.114.002-.021c3.987 2.101 9.385 1.702 15.34-1.734l28.481-16.444c16.254-9.384 15.666-26.903 15.666-34.708l.001-60.415z"/><linearGradient id="SVGID_40_" gradientUnits="userSpaceOnUse" x1="957.255" y1="849.848" x2="1021.205" y2="960.614" gradientTransform="matrix(1 0 0 -1 -878.276 2019.89)"><stop offset="0" stop-color="#a7aed5"/><stop offset=".011" stop-color="#aeb5d8"/><stop offset=".07" stop-color="#d1d5e9"/><stop offset=".126" stop-color="#eaecf5"/><stop offset=".176" stop-color="#fafafc"/><stop offset=".217" stop-color="#fff"/></linearGradient><path class="st66" d="M176.947 1078.916c-.16 2.197-1.668 4.362-4.554 6.026l-50.706 29.276-.02.012c-6.113 3.519-16.1 3.516-22.21-.012l-51.965-30.003c-3.04-1.755-4.564-4.063-4.578-6.381l-.006.003-.003 52.125c.003 7.28 6.12 23.294 16.542 28.787l57.47 33.176c.116.07.228.138.344.199l.196.114.002-.021c3.987 2.101 9.385 1.702 15.34-1.734l28.481-16.444c16.254-9.384 15.666-26.903 15.666-34.708l.001-60.415z"/><g><path class="st58" d="M176.9 1142.689c-19.482 11.244-35.265 38.59-35.265 61.081s15.787 31.606 35.265 20.358c19.48-11.247 35.265-38.59 35.265-61.084.002-22.488-15.785-31.599-35.265-20.355zm0 75.317c-16.55 9.557-29.963 1.813-29.963-17.297 0-19.113 13.414-42.34 29.963-51.899 16.55-9.554 29.963-1.814 29.963 17.297s-13.413 42.345-29.963 51.899z"/><linearGradient id="SVGID_41_" gradientUnits="userSpaceOnUse" x1="1036.603" y1="798.273" x2="1078.979" y2="871.67" gradientTransform="matrix(1 0 0 -1 -878.276 2019.89)"><stop offset="0" stop-color="#f6f6fb"/><stop offset="1" stop-color="#ced3f8"/></linearGradient><path class="st67" d="M176.9 1218.006c16.55-9.553 29.963-32.789 29.963-51.899s-13.414-26.851-29.963-17.297c-.665.384-1.31.823-1.963 1.251-1.017 17.83-12.949 38.461-27.896 48.214-.046.808-.104 1.632-.104 2.435 0 19.109 13.414 26.852 29.963 17.296z"/><path class="st55" d="M176.9 1138.424c-21.519 12.422-38.96 42.63-38.96 67.479 0 24.847 17.442 34.916 38.96 22.494 21.519-12.425 38.963-42.636 38.963-67.485.001-24.847-17.444-34.916-38.963-22.488zm0 85.705c-19.478 11.244-35.265 2.13-35.265-20.358 0-22.491 15.787-49.837 35.265-61.081 19.475-11.244 35.265-2.133 35.265 20.355.002 22.491-15.789 49.843-35.265 61.084z"/><path class="st46" d="M149.682 1231.303l.001-.003c-.019-.009-.038-.021-.06-.029l.059.032z"/><linearGradient id="SVGID_42_" gradientUnits="userSpaceOnUse" x1="998.406" y1="805.646" x2="1053.495" y2="901.063" gradientTransform="matrix(1 0 0 -1 -878.276 2019.89)"><stop offset="0" stop-color="#362e93"/><stop offset="1" stop-color="#5652cc"/></linearGradient><path class="st68" d="M173.525 1117.892c-7.115-4.734-17.269-4.412-28.548 2.098-21.517 12.425-38.962 42.633-38.962 67.482 0 12.615 4.504 21.413 11.747 25.4l-.002.003 31.33 18.082c-6.896-4.134-11.15-12.791-11.15-25.055 0-24.849 17.442-55.057 38.96-67.479 11.279-6.516 21.432-6.835 28.547-2.101l-31.922-18.43z"/></g><g><linearGradient id="SVGID_43_" gradientUnits="userSpaceOnUse" x1="-333.623" y1="1021.205" x2="-235.066" y2="1021.205" gradientTransform="matrix(1 0 0 -1 475.166 2019.89)"><stop offset="0" stop-color="#fc780b"/><stop offset=".144" stop-color="#fa700d"/><stop offset=".676" stop-color="#f25714"/><stop offset="1" stop-color="#ef4e16"/></linearGradient><path class="st69" d="M156.086 1020.601c-9.712-5.605-14.563-12.961-14.543-20.315l.041-31.881c-.017 7.354 4.831 14.71 14.54 20.323 19.304 11.142 50.49 11.142 69.662.009 9.521-5.546 14.291-12.785 14.314-20.042l-.044 31.875c-.02 7.257-4.787 14.496-14.312 20.039-19.17 11.142-50.36 11.142-69.658-.008z"/><path class="st38" d="M156.124 988.728c-19.298-11.141-19.4-29.206-.234-40.348 19.18-11.144 50.376-11.144 69.668 0 19.304 11.142 19.398 29.206.229 40.357-19.172 11.133-50.359 11.133-69.663-.009z"/><path class="st70" d="M176.915 979.983l-6.885-3.976 26.576-15.343-10.756-3.281 5.55-3.205 19.513 5.323.738.425-34.736 20.057z"/></g><g><path d="M190.809 987.527l-.013-.003c0 .062.012.12.013.179v-.176z"/><linearGradient id="SVGID_44_" gradientUnits="userSpaceOnUse" x1="907.344" y1="974.689" x2="1069.087" y2="974.689" gradientTransform="matrix(1 0 0 -1 -878.276 2019.89)"><stop offset=".514" stop-color="#ced3f8"/><stop offset=".682" stop-color="#bbc0e6"/></linearGradient><path class="st71" d="M190.809 988.025c-.067 2.273-1.583 4.532-4.57 6.255l-50.708 29.276c-6.114 3.527-16.115 3.527-22.228 0l-79.649-45.984c-3.057-1.767-4.585-4.093-4.586-6.416v93.032c0 2.332 1.525 4.655 4.586 6.425l79.649 45.984c6.113 3.53 16.113 3.53 22.228 0l50.708-29.279c3.204-1.846 4.711-4.316 4.557-6.75l.015.003-.002-92.546z"/><path class="st2" d="M186.239 994.28c6.111-3.527 6.111-9.302 0-12.832l-79.652-45.987c-6.113-3.527-16.116-3.527-22.226 0l-50.707 29.276c-6.116 3.53-6.116 9.302 0 12.835l79.649 45.984c6.113 3.527 16.113 3.527 22.228 0l50.708-29.276z"/><linearGradient id="SVGID_45_" gradientUnits="userSpaceOnUse" x1="184.314" y1="-360.214" x2="219.108" y2="-360.214" gradientTransform="scale(1 -1) rotate(-38.071 -799.433 -665.49)"><stop offset="0" stop-color="#d1d7f3"/><stop offset=".51" stop-color="#eef0fb"/><stop offset=".893" stop-color="#fff"/></linearGradient><path class="st72" d="M185.496 1059.741l-27.558-21.24 10.465-13.36 27.556 21.241z"/></g><g><linearGradient id="SVGID_46_" gradientUnits="userSpaceOnUse" x1="70.499" y1="1037.899" x2="190.822" y2="1037.899" gradientTransform="matrix(1 0 0 -1 0 2019.89)"><stop offset="0" stop-color="#d1d7f3"/><stop offset=".571" stop-color="#eef0fb"/><stop offset="1" stop-color="#fff"/></linearGradient><path class="st73" d="M186.239 981.448l-50.54-29.18h-11.572c-13.352 0-18.784 3.135-12.107 6.99L85.463 973.64c-13.352 0-18.785 3.138-12.107 6.99l41.727 24.094c6.677 3.855 22.972 6.99 36.324 6.99h4.634l30.198-17.435c6.111-3.526 6.111-9.301 0-12.831z"/><path class="st14" d="M90.677 932.771c-17.962-10.368-32.525-1.966-32.524 18.776v10.933c0 5.177 3.631 11.47 8.115 14.057l48.816 28.186c4.481 2.584 8.115.489 8.115-4.688v-10.934c0-20.74-14.562-45.961-32.522-56.33z"/><linearGradient id="SVGID_47_" gradientUnits="userSpaceOnUse" x1="978.533" y1="1108.207" x2="1024.204" y2="1029.102" gradientTransform="matrix(1 0 0 -1 -878.276 2019.89)"><stop offset="0" stop-color="#f6f6fb"/><stop offset=".33" stop-color="#e0e2f3"/><stop offset=".784" stop-color="#bbc0e6"/></linearGradient><path class="st74" d="M132.81 908.446c-8.998-5.197-17.149-5.675-23.035-2.25 0-.003-42.07 24.281-42.07 24.281 5.884-3.378 14.005-2.88 22.972 2.294 17.96 10.368 32.522 35.59 32.522 56.332v10.934c0 2.546-.883 4.345-2.315 5.209l41.906-24.202c1.561-.805 2.543-2.651 2.543-5.332v-10.934c.001-20.739-14.563-45.961-32.523-56.332z"/></g><g><path class="st53" d="M154.357 1036.494c0-6.357 4.46-14.086 9.967-17.265 5.508-3.178 9.968-.603 9.968 5.754.002 6.36-4.46 14.086-9.968 17.265-5.506 3.179-9.967.601-9.967-5.754zM242.587 1012.515c-.836 1.283-1.746 2.487-2.708 3.504a4.81 4.81 0 0 1-6.807.179c-1.93-1.828-2.001-4.875-.178-6.803 2.313-2.44 4.69-7.632 5.446-10.286a4.811 4.811 0 1 1 9.253 2.637c-.719 2.527-2.544 6.998-5.006 10.769z"/><linearGradient id="SVGID_48_" gradientUnits="userSpaceOnUse" x1="3814.424" y1="1012.803" x2="3860.985" y2="959.42" gradientTransform="rotate(180 2022.088 1009.945)"><stop offset="0" stop-color="#5652cc"/><stop offset=".282" stop-color="#4944b6"/><stop offset=".867" stop-color="#27227d"/><stop offset="1" stop-color="#1f196f"/></linearGradient><path class="st75" d="M154.378 1036.822c-.005-.111-.022-.214-.022-.328 0-5.754 3.659-12.621 8.436-16.23.118-.015.226-.047.347-.059 23.048 22.236 35.319 34.105 54.133 31.802 13.146-1.608 17.735-17.522 9.69-26.549-5.873-10.432 5.001-22.667 15.727-11.944 10.729 10.728 11.328 50.862-21.781 55.016-26.159 3.281-38.659-5.25-65.232-30.583a10.758 10.758 0 0 1-1.298-1.125z"/><path class="st53" d="M214.614 1026.269c-1.523-.176-3.003-.457-4.343-.867a4.814 4.814 0 0 1-3.193-6.015c.778-2.54 3.478-3.961 6.012-3.19 3.218.987 8.924.805 11.638.302a4.809 4.809 0 0 1 5.61 3.853 4.819 4.819 0 0 1-3.851 5.61c-2.589.477-7.402.832-11.873.307z"/></g><g><path class="st40" d="M79.939 998.298a1.877 1.877 0 0 1-1.876-1.877v-6.806c0-4.419 2.77-9.483 6.306-11.527l5.37-3.098a1.878 1.878 0 0 1 1.875 3.252l-5.369 3.097c-2.358 1.364-4.43 5.231-4.43 8.276v6.806a1.876 1.876 0 0 1-1.876 1.877z"/></g><g><path class="st40" d="M70.459 992.872a1.878 1.878 0 0 1-1.877-1.877v-6.806c0-4.424 2.77-9.489 6.305-11.53l5.369-3.098a1.88 1.88 0 0 1 2.563.688c.517.898.21 2.045-.688 2.564l-5.367 3.095c-2.358 1.362-4.428 5.232-4.428 8.281v6.806a1.877 1.877 0 0 1-1.877 1.877z"/></g></g><g><linearGradient id="SVGID_49_" gradientUnits="userSpaceOnUse" x1="1986.765" y1="948.293" x2="2063.081" y2="1080.477" gradientTransform="matrix(1 0 0 -1 0 2019.89)"><stop offset="0" stop-color="#d1d7f3"/><stop offset=".308" stop-color="#dbe0f6"/><stop offset=".83" stop-color="#f6f7fd"/><stop offset=".989" stop-color="#fff"/></linearGradient><path class="st76" d="M2105.752 1033.617l60.246-34.784-105.885-61.134-59.701 34.468c-.826-.009-1.646-.017-2.49-.017-41.959 0-92.977 9.82-113.959 21.932-20.771 11.991-4.295 21.73 36.75 21.923-1.453 2.986-.164 6.334 3.885 8.672l33.234 19.192 27.774 16.031c-10.371 10.028 7.225 17.578 44.021 17.578 41.959 0 92.982-9.818 113.959-21.932 20.954-12.097 4.014-21.906-37.834-21.929z"/><path class="st58" d="M1906.053 923.273c-18.996 10.966-34.383 37.623-34.383 59.555 0 21.929 15.393 30.815 34.383 19.849 18.99-10.963 34.383-37.626 34.383-59.552 0-21.932-15.393-30.818-34.383-19.852zm0 73.436c-16.137 9.317-29.215 1.767-29.215-16.869 0-18.63 13.078-41.279 29.215-50.596 16.137-9.316 29.215-1.766 29.215 16.863 0 18.636-13.078 41.285-29.215 50.602z"/><linearGradient id="SVGID_50_" gradientUnits="userSpaceOnUse" x1="1887.944" y1="1019.661" x2="1929.26" y2="1091.223" gradientTransform="matrix(1 0 0 -1 0 2019.89)"><stop offset="0" stop-color="#f6f6fb"/><stop offset="1" stop-color="#ced3f8"/></linearGradient><path class="st77" d="M1906.053 996.709c16.137-9.316 29.215-31.966 29.215-50.602 0-18.63-13.078-26.18-29.215-16.863-.645.369-1.277.8-1.916 1.216-.99 17.388-12.621 37.5-27.199 47.01-.041.791-.1 1.591-.1 2.37 0 18.636 13.079 26.185 29.215 16.869z"/><path class="st55" d="M1906.053 919.113c-20.983 12.111-37.986 41.566-37.986 65.795 0 24.223 17.004 34.043 37.986 21.932 20.977-12.114 37.986-41.573 37.986-65.795.001-24.229-17.009-34.046-37.986-21.932zm0 83.564c-18.99 10.963-34.383 2.077-34.383-19.849 0-21.929 15.393-48.592 34.383-59.555 18.984-10.963 34.383-2.077 34.383 19.852 0 21.926-15.393 48.589-34.383 59.552z"/><path class="st46" d="M1879.516 1009.673v-.003a.27.27 0 0 0-.059-.029l.059.032z"/><linearGradient id="SVGID_51_" gradientUnits="userSpaceOnUse" x1="1850.704" y1="1026.852" x2="1904.414" y2="1119.88" gradientTransform="matrix(1 0 0 -1 0 2019.89)"><stop offset="0" stop-color="#362e93"/><stop offset="1" stop-color="#5652cc"/></linearGradient><path class="st78" d="M1902.76 899.097c-6.938-4.617-16.834-4.304-27.832 2.045-20.977 12.114-37.986 41.569-37.986 65.795 0 12.299 4.389 20.877 11.455 24.765v.003l30.539 17.631c-6.721-4.031-10.869-12.472-10.869-24.428 0-24.229 17.004-53.684 37.986-65.795 10.992-6.352 20.894-6.665 27.832-2.045l-31.125-17.971z"/><linearGradient id="SVGID_52_" gradientUnits="userSpaceOnUse" x1="1668.418" y1="1085.124" x2="1640.006" y2="1095.551" gradientTransform="scale(1 -1) rotate(-16.333 -5028.872 -575.498)"><stop offset="0" stop-color="#1f196f"/><stop offset=".134" stop-color="#27227d"/><stop offset=".718" stop-color="#4944b6"/><stop offset="1" stop-color="#5652cc"/></linearGradient><path class="st79" d="M1881.971 825.888c-10.576-.557-21.926 5.182-31.969 16.157-11.244 12.293-21.481 32.464-19.002 49.828l18.574-2.648c-1.324-9.325 4.811-24.161 14.273-34.509 6.006-6.562 12.41-10.336 17.139-10.087l.985-18.741z"/><path class="st48" d="M2005.018 926.739c5.959-3.439 5.959-9.07 0-12.51l-50.66-29.253c-5.965-3.44-15.715-3.44-21.674 0l-49.435 28.544c-5.959 3.44-5.965 9.07 0 12.51l50.66 29.253c5.965 3.439 15.715 3.439 21.674 0l49.435-28.544z"/><path class="st19" d="M2005.018 926.739c5.959-3.439 5.959-9.07 0-12.51l-50.66-29.253c-5.965-3.44-15.715-3.44-21.674 0l-49.435 28.544c-5.959 3.44-5.965 9.07 0 12.51l50.66 29.253c5.965 3.439 15.715 3.439 21.674 0l49.435-28.544z"/><linearGradient id="SVGID_53_" gradientUnits="userSpaceOnUse" x1="1878.772" y1="1043.692" x2="2009.461" y2="1043.692" gradientTransform="matrix(1 0 0 -1 0 2019.89)"><stop offset=".411" stop-color="#ced3f8"/><stop offset=".532" stop-color="#bac0e6"/><stop offset=".676" stop-color="#a7aed5"/></linearGradient><path class="st80" d="M2009.459 920.865c-.158 2.138-1.629 4.251-4.441 5.874l-49.436 28.544-.017.009c-5.959 3.431-15.697 3.428-21.656-.009l-50.66-29.253c-2.965-1.711-4.453-3.964-4.471-6.22l-.006 50.821c.006 7.099 5.965 22.711 16.131 28.07l56.033 32.344c.106.071.223.135.334.196l.188.109.006-.018c3.885 2.045 9.146 1.661 14.953-1.693l27.767-16.028c15.849-9.152 15.275-26.238 15.275-33.844v-58.902z"/><linearGradient id="SVGID_54_" gradientUnits="userSpaceOnUse" x1="1913.944" y1="1010.18" x2="1976.294" y2="1118.173" gradientTransform="matrix(1 0 0 -1 0 2019.89)"><stop offset="0" stop-color="#a7aed5"/><stop offset=".011" stop-color="#aeb5d8"/><stop offset=".07" stop-color="#d1d5e9"/><stop offset=".126" stop-color="#eaecf5"/><stop offset=".176" stop-color="#fafafc"/><stop offset=".217" stop-color="#fff"/></linearGradient><path class="st81" d="M2009.459 920.865c-.158 2.138-1.629 4.251-4.441 5.874l-49.436 28.544-.017.009c-5.959 3.431-15.697 3.428-21.656-.009l-50.66-29.253c-2.965-1.711-4.453-3.964-4.471-6.22l-.006 50.821c.006 7.099 5.965 22.711 16.131 28.07l56.033 32.344c.106.071.223.135.334.196l.188.109.006-.018c3.885 2.045 9.146 1.661 14.953-1.693l27.767-16.028c15.849-9.152 15.275-26.238 15.275-33.844v-58.902z"/><g><path class="st58" d="M2009.412 983.039c-18.99 10.966-34.383 37.623-34.383 59.555 0 21.929 15.392 30.814 34.383 19.852 18.99-10.966 34.383-37.626 34.383-59.555 0-21.929-15.392-30.815-34.383-19.852zm0 73.435c-16.137 9.316-29.215 1.766-29.215-16.869 0-18.63 13.078-41.279 29.215-50.596s29.215-1.767 29.215 16.866c0 18.634-13.078 41.283-29.215 50.599z"/><linearGradient id="SVGID_55_" gradientUnits="userSpaceOnUse" x1="1991.305" y1="959.895" x2="2032.621" y2="1031.456" gradientTransform="matrix(1 0 0 -1 0 2019.89)"><stop offset="0" stop-color="#f6f6fb"/><stop offset="1" stop-color="#ced3f8"/></linearGradient><path class="st82" d="M2009.412 1056.474c16.137-9.317 29.215-31.966 29.215-50.599 0-18.633-13.078-26.183-29.215-16.866-.644.369-1.277.8-1.91 1.216-.996 17.388-12.627 37.503-27.199 47.01-.047.791-.106 1.591-.106 2.37.001 18.636 13.079 26.186 29.215 16.869z"/><path class="st55" d="M2009.412 978.879c-20.977 12.112-37.986 41.567-37.986 65.795 0 24.223 17.01 34.043 37.986 21.932 20.977-12.114 37.986-41.572 37.986-65.795.001-24.226-17.009-34.046-37.986-21.932zm0 83.566c-18.984 10.963-34.383 2.074-34.383-19.852 0-21.928 15.392-48.592 34.383-59.555 18.99-10.963 34.383-2.077 34.383 19.851 0 21.927-15.392 48.59-34.383 59.556z"/><path class="st46" d="M1982.875 1069.438v-.003l-.053-.029.053.032z"/><linearGradient id="SVGID_56_" gradientUnits="userSpaceOnUse" x1="1954.063" y1="967.085" x2="2007.774" y2="1060.114" gradientTransform="matrix(1 0 0 -1 0 2019.89)"><stop offset="0" stop-color="#362e93"/><stop offset="1" stop-color="#5652cc"/></linearGradient><path class="st83" d="M2006.12 958.863c-6.938-4.617-16.834-4.301-27.832 2.048-20.977 12.111-37.986 41.566-37.986 65.792 0 12.302 4.394 20.877 11.455 24.765v.003l30.539 17.634c-6.721-4.034-10.869-12.475-10.869-24.431 0-24.229 17.01-53.683 37.986-65.795 10.998-6.349 20.894-6.665 27.832-2.045l-31.125-17.971z"/></g><g><path d="M2022.971 831.765l-.012-.003c.006.059.012.114.012.173v-.17z"/><linearGradient id="SVGID_57_" gradientUnits="userSpaceOnUse" x1="1865.284" y1="1131.897" x2="2022.977" y2="1131.897" gradientTransform="matrix(1 0 0 -1 0 2019.89)"><stop offset=".514" stop-color="#ced3f8"/><stop offset=".682" stop-color="#bbc0e6"/></linearGradient><path class="st84" d="M2022.971 832.251c-.064 2.215-1.541 4.418-4.453 6.097l-49.441 28.544c-5.959 3.44-15.709 3.44-21.668 0l-77.66-44.836c-2.977-1.72-4.465-3.984-4.465-6.252v90.7c-.006 2.271 1.483 4.541 4.465 6.264l77.66 44.833c5.959 3.442 15.709 3.442 21.668 0l49.441-28.544c3.123-1.802 4.594-4.207 4.441-6.583l.018.003-.006-90.226z"/><path class="st19" d="M2018.518 838.347c5.959-3.439 5.959-9.07 0-12.513L1940.864 781c-5.965-3.441-15.715-3.44-21.674 0l-49.441 28.542c-5.959 3.443-5.959 9.07 0 12.513l77.66 44.836c5.959 3.44 15.709 3.44 21.668 0l49.441-28.544z"/></g><path class="st53" d="M1836.567 891.641a4.66 4.66 0 0 1-4.471.662c-2.853-1.072-8.724-.439-11.121.035a4.663 4.663 0 0 1-5.479-3.665 4.662 4.662 0 0 1 3.668-5.477c1.014-.204 10.119-1.906 16.213.381a4.663 4.663 0 0 1 2.725 6.001 4.642 4.642 0 0 1-1.535 2.063z"/><g><linearGradient id="SVGID_58_" gradientUnits="userSpaceOnUse" x1="1350.538" y1="1091.776" x2="1449.092" y2="1091.776" gradientTransform="matrix(1 0 0 -1 475.166 2019.89)"><stop offset="0" stop-color="#ced3f8"/><stop offset=".417" stop-color="#c4c9ef"/><stop offset="1" stop-color="#bbc0e6"/></linearGradient><path class="st85" d="M1840.241 950.03c-9.709-5.604-14.561-12.961-14.537-20.315l.035-31.881c-.012 7.354 4.834 14.71 14.543 20.323 19.306 11.142 50.49 11.142 69.662.009 9.521-5.546 14.291-12.785 14.314-20.042l-.041 31.876c-.023 7.257-4.787 14.496-14.314 20.039-19.172 11.141-50.361 11.141-69.662-.009z"/><path class="st13" d="M1840.282 918.158c-19.295-11.142-19.4-29.206-.235-40.348 19.184-11.145 50.379-11.145 69.668 0 19.301 11.142 19.4 29.206.229 40.356-19.172 11.134-50.356 11.134-69.662-.008z"/><path class="st86" d="M1859.553 910.646l-6.885-3.976 26.572-15.343-10.752-3.281 5.549-3.205 19.512 5.324.738.427-34.734 20.054z"/></g><path class="st53" d="M1916.746 950.836c-1.494 0-2.959-.103-4.301-.349a4.687 4.687 0 0 1-3.773-5.461 4.691 4.691 0 0 1 5.455-3.771c3.229.586 8.73-.237 11.303-1.031 2.478-.771 5.103.618 5.871 3.094s-.615 5.104-3.094 5.868c-2.449.759-7.066 1.65-11.461 1.65z"/><linearGradient id="SVGID_59_" gradientUnits="userSpaceOnUse" x1="1526.539" y1="896.917" x2="1561.333" y2="896.917" gradientTransform="scale(1 -1) rotate(-38.071 -799.433 -665.49)"><stop offset="0" stop-color="#d1d7f3"/><stop offset=".51" stop-color="#eef0fb"/><stop offset=".893" stop-color="#fff"/></linearGradient><path class="st87" d="M2017.241 897.744l-27.557-21.24 10.465-13.36 27.557 21.241z"/><linearGradient id="SVGID_60_" gradientUnits="userSpaceOnUse" x1="1897.395" y1="1192.731" x2="2022.987" y2="1192.731" gradientTransform="matrix(1 0 0 -1 0 2019.89)"><stop offset="0" stop-color="#d1d7f3"/><stop offset=".571" stop-color="#eef0fb"/><stop offset="1" stop-color="#fff"/></linearGradient><path class="st88" d="M2018.518 825.835l-49.189-28.399h-18.305c-13.354 0-18.785 3.136-12.111 6.989l-26.555 14.385c-13.353 0-18.785 3.135-12.105 6.99l41.725 24.091c6.68 3.856 22.975 6.99 36.322 6.99h8.115l32.104-18.533c5.958-3.44 5.958-9.071-.001-12.513z"/><g><path class="st53" d="M1928.787 943.605a4.691 4.691 0 0 1-4.471-3.284c-.985-3.135-4.283-7.617-6.182-9.521a4.686 4.686 0 0 1 0-6.633 4.693 4.693 0 0 1 6.639 0c2.426 2.426 6.879 8.195 8.496 13.339a4.694 4.694 0 0 1-4.482 6.099z"/><path class="st55" d="M1987.434 879.504c0-6.199 4.348-13.734 9.715-16.834 5.373-3.097 9.721-.583 9.721 5.61 0 6.199-4.348 13.735-9.721 16.834-5.367 3.1-9.715.586-9.715-5.61z"/><linearGradient id="SVGID_61_" gradientUnits="userSpaceOnUse" x1="2012.86" y1="1147.234" x2="1937.398" y2="1060.628" gradientTransform="matrix(1 0 0 -1 0 2019.89)"><stop offset="0" stop-color="#5652cc"/><stop offset=".282" stop-color="#4944b6"/><stop offset=".867" stop-color="#27227d"/><stop offset="1" stop-color="#1f196f"/></linearGradient><path class="st89" d="M2005.475 868.491s-4.277-5.182-6.264-6.75c-.668.217-1.354.522-2.062.929-4.459 2.575-8.203 8.212-9.346 13.597.85 1.89 1.81 3.337 2.344 3.87 7.84 8.798 2.86 22.781-3.791 32.083-10.74 15.035-30.381 26.517-52.266 18.615-11.127 1.154-14.467 12.035-7.271 17.297 30.082 12.656 59.865-4.09 74.813-24.999 14.05-19.662 14.818-42.141 3.843-54.642z"/></g><g><path class="st14" d="M1900.252 825.8c-6.68-3.856-12.111-13.263-12.111-20.974v-23.861c0-7.71 5.432-10.846 12.111-6.99l41.725 24.091c6.68 3.854 12.111 13.264 12.111 20.972V842.9c0 7.708-5.431 10.846-12.111 6.99l-41.725-24.09z"/><linearGradient id="SVGID_62_" gradientUnits="userSpaceOnUse" x1="1892.81" y1="1240.795" x2="1935.401" y2="1167.026" gradientTransform="matrix(1 0 0 -1 0 2019.89)"><stop offset=".202" stop-color="#bbc0e6"/><stop offset=".275" stop-color="#c4c8e9"/><stop offset=".392" stop-color="#dbdef1"/><stop offset=".497" stop-color="#f6f6fb"/></linearGradient><path class="st90" d="M1904.283 818.809c-4.435-2.564-8.068-8.857-8.068-13.983v-23.861c0-1.363.264-2.504.721-3.407-2.795-.148-4.758 1.973-4.758 5.738v23.862c0 5.127 3.633 11.417 8.074 13.981l41.725 24.091c3.258 1.884 6.076 1.245 7.348-1.251-1.014-.052-2.133-.398-3.31-1.078l-41.732-24.092z"/><linearGradient id="SVGID_63_" gradientUnits="userSpaceOnUse" x1="1950.236" y1="1175.523" x2="1894.052" y2="1245.17" gradientTransform="matrix(1 0 0 -1 0 2019.89)"><stop offset="0" stop-color="#1f196f"/><stop offset=".255" stop-color="#2a2582"/><stop offset=".772" stop-color="#4843b4"/><stop offset="1" stop-color="#5652cc"/></linearGradient><path class="st91" d="M1950.051 816.709c0-5.127-3.633-11.42-8.074-13.983l-41.725-24.091c-1.184-.681-2.303-1.024-3.317-1.077-.457.904-.721 2.045-.721 3.407v23.861c0 5.127 3.633 11.42 8.068 13.983l41.731 24.091c1.178.68 2.297 1.025 3.31 1.078.463-.905.727-2.045.727-3.407l.001-23.862z"/><linearGradient id="SVGID_64_" gradientUnits="userSpaceOnUse" x1="1896.214" y1="1223.535" x2="1947.233" y2="1223.535" gradientTransform="matrix(1 0 0 -1 0 2019.89)"><stop offset="0" stop-color="#c4cae8"/><stop offset=".436" stop-color="#e5e7f5"/><stop offset=".717" stop-color="#f6f6fb"/></linearGradient><path class="st92" d="M1900.141 814.066v-23.862c0-3.763 1.963-5.886 4.758-5.738 1.014.054 2.133.397 3.311 1.078l39.023 22.528c-1.418-2.238-3.24-4.184-5.256-5.347l-41.725-24.091c-1.184-.681-2.303-1.024-3.317-1.077-.457.904-.721 2.045-.721 3.407v23.861c0 3.416 1.629 7.324 4.014 10.327-.028-.362-.087-.731-.087-1.086z"/><path class="st58" d="M1891.147 773.509v.002c.006-.003.006-.006.012-.009l-.012.007z"/><linearGradient id="SVGID_65_" gradientUnits="userSpaceOnUse" x1="1924.464" y1="1265.658" x2="1972.751" y2="1182.022" gradientTransform="matrix(1 0 0 -1 0 2019.89)"><stop offset=".472" stop-color="#f6f6fb"/><stop offset=".594" stop-color="#dbdef1"/><stop offset=".73" stop-color="#c4c8e9"/><stop offset=".815" stop-color="#bbc0e6"/></linearGradient><path class="st93" d="M1977.526 777.543l-41.731-24.092c-3.627-2.095-6.879-2.111-9.1-.464l-34.418 19.869c2.133-.93 4.916-.644 7.975 1.119l41.725 24.091c6.68 3.854 12.111 13.264 12.111 20.972V842.9c0 3.401-1.06 5.909-2.818 7.324 0 0 35.075-20.147 35.531-20.514l.018-.009v-.003c1.752-1.412 2.813-3.92 2.813-7.321v-23.864c-.001-7.707-5.432-17.116-12.106-20.97z"/><path class="st35" d="M1915.774 803.698l-6.387-3.688v-3.107l6.387 3.69zM1940.917 818.212l-6.393-3.689v-3.108l6.393 3.691zM1929.479 821.613l-11.186-6.46v-3.108l11.186 6.46z"/></g></g></g><g id="Data_pieces"><linearGradient id="SVGID_66_" gradientUnits="userSpaceOnUse" x1="-290.479" y1="522.417" x2="-176.442" y2="522.417" gradientTransform="matrix(1 0 0 -1 475.166 2019.89)"><stop offset=".426" stop-color="#d1d7f3"/><stop offset=".486" stop-color="#d7dcf5"/><stop offset=".813" stop-color="#f4f6fc"/><stop offset="1" stop-color="#fff"/></linearGradient><path class="st94" d="M284.182 1477.283c-10.298-5.944-23.985-8.68-37.432-8.279h-36.606v3.449c-4.002 1.268-7.775 2.874-11.153 4.831-19.166 11.15-19.055 29.212.231 40.357 3.325 1.919 7.017 3.486 10.922 4.734v3.606h40.81c12.158-.202 24.205-2.965 33.46-8.332 19.166-11.154 19.072-29.216-.232-40.366z"/><linearGradient id="SVGID_67_" gradientUnits="userSpaceOnUse" x1="-311.836" y1="524.189" x2="-213.279" y2="524.189" gradientTransform="matrix(1 0 0 -1 475.166 2019.89)"><stop offset="0" stop-color="#6b67e9"/><stop offset=".327" stop-color="#5a56d1"/><stop offset=".745" stop-color="#4945b8"/><stop offset="1" stop-color="#423eaf"/></linearGradient><path class="st95" d="M177.873 1517.616c-9.712-5.604-14.564-12.961-14.543-20.314l.041-31.881c-.017 7.354 4.831 14.71 14.54 20.323 19.304 11.142 50.49 11.142 69.662.009 9.521-5.546 14.291-12.785 14.314-20.042l-.044 31.875c-.021 7.257-4.787 14.496-14.312 20.039-19.171 11.141-50.36 11.141-69.658-.009z"/><path class="st41" d="M177.911 1485.744c-19.298-11.141-19.4-29.206-.234-40.348 19.18-11.144 50.376-11.144 69.668 0 19.304 11.142 19.398 29.206.229 40.356-19.173 11.134-50.359 11.134-69.663-.008z"/><linearGradient id="SVGID_68_" gradientUnits="userSpaceOnUse" x1="172.696" y1="562.631" x2="261.848" y2="562.631" gradientTransform="matrix(1 0 0 -1 0 2019.89)"><stop offset=".426" stop-color="#d1d7f3"/><stop offset=".593" stop-color="#d9def5"/><stop offset=".853" stop-color="#eff1fb"/><stop offset="1" stop-color="#fff"/></linearGradient><path class="st96" d="M238.954 1477.479c7.034-.117 14.014-1.119 20.455-2.959 5.583-9.911 1.588-21.246-12.064-29.124-19.292-11.144-50.487-11.144-69.668 0a40.162 40.162 0 0 0-4.981 3.445c-.012 7.342 4.828 14.693 14.525 20.297 3.325 1.919 7.017 3.486 10.922 4.734v3.606h40.811v.001z"/><linearGradient id="SVGID_69_" gradientUnits="userSpaceOnUse" x1="-323.836" y1="572.691" x2="-225.279" y2="572.691" gradientTransform="matrix(1 0 0 -1 475.166 2019.89)"><stop offset="0" stop-color="#fd9009"/><stop offset=".387" stop-color="#f6700f"/><stop offset=".769" stop-color="#f15714"/><stop offset="1" stop-color="#ef4e16"/></linearGradient><path class="st97" d="M165.873 1469.115c-9.712-5.605-14.564-12.961-14.543-20.315l.041-31.881c-.017 7.354 4.831 14.71 14.54 20.323 19.304 11.142 50.49 11.142 69.662.009 9.521-5.546 14.291-12.785 14.314-20.042l-.044 31.875c-.021 7.257-4.787 14.496-14.312 20.039-19.171 11.142-50.36 11.142-69.658-.008z"/><path class="st38" d="M165.911 1437.243c-19.298-11.141-19.4-29.206-.234-40.348 19.18-11.144 50.376-11.144 69.668 0 19.304 11.142 19.398 29.206.229 40.357-19.173 11.133-50.359 11.133-69.663-.009z"/><path class="st70" d="M210.516 1425.568c-4.797 2.769-9.459 4.315-13.985 4.635-4.528.323-8.704-.624-12.533-2.833-3.779-2.182-5.424-4.57-4.93-7.166.492-2.596 3.041-5.25 7.646-7.966l6.385-3.685c4.846-2.798 9.527-4.339 14.045-4.629 4.519-.29 8.669.659 12.45 2.842 3.779 2.183 5.427 4.568 4.944 7.157-.485 2.593-3.031 5.244-7.636 7.96l-6.386 3.685zm.134-8.027c2.878-1.664 4.578-3.099 5.106-4.312.525-1.21-.047-2.297-1.715-3.258-1.62-.938-3.439-1.266-5.457-.99-2.02.275-4.38 1.166-7.084 2.672l-8.442 4.875c-2.83 1.632-4.545 3.067-5.153 4.309-.604 1.236-.056 2.347 1.643 3.328 1.683.973 3.558 1.292 5.624.964 2.068-.334 4.475-1.274 7.226-2.824l8.252-4.764z"/><g><linearGradient id="SVGID_70_" gradientUnits="userSpaceOnUse" x1="1448.176" y1="761.028" x2="1562.215" y2="761.028" gradientTransform="matrix(1 0 0 -1 475.166 2019.89)"><stop offset=".426" stop-color="#d1d7f3"/><stop offset=".486" stop-color="#d7dcf5"/><stop offset=".813" stop-color="#f4f6fc"/><stop offset="1" stop-color="#fff"/></linearGradient><path class="st98" d="M2022.836 1238.672c-10.295-5.944-23.982-8.681-37.429-8.279h-36.61v3.448c-4.002 1.269-7.775 2.874-11.15 4.831-19.166 11.15-19.055 29.212.229 40.356 3.328 1.919 7.019 3.487 10.922 4.735v3.606h40.81c12.158-.202 24.205-2.965 33.463-8.332 19.166-11.153 19.072-29.215-.235-40.365z"/><linearGradient id="SVGID_71_" gradientUnits="userSpaceOnUse" x1="1426.821" y1="762.801" x2="1525.375" y2="762.801" gradientTransform="matrix(1 0 0 -1 475.166 2019.89)"><stop offset="0" stop-color="#ced3f8"/><stop offset=".417" stop-color="#c4c9ef"/><stop offset="1" stop-color="#bbc0e6"/></linearGradient><path class="st99" d="M1916.53 1279.005c-9.715-5.604-14.567-12.961-14.543-20.315l.041-31.881c-.018 7.354 4.828 14.71 14.537 20.323 19.307 11.142 50.49 11.142 69.662.009 9.521-5.546 14.291-12.785 14.314-20.042l-.041 31.875c-.023 7.257-4.787 14.496-14.315 20.039-19.171 11.142-50.36 11.142-69.655-.008z"/><path class="st13" d="M1916.565 1247.133c-19.295-11.142-19.4-29.206-.234-40.348 19.184-11.145 50.379-11.145 69.668 0 19.307 11.142 19.4 29.206.229 40.356-19.173 11.133-50.357 11.133-69.663-.008z"/></g><g><linearGradient id="SVGID_72_" gradientUnits="userSpaceOnUse" x1="1911.35" y1="801.243" x2="2000.502" y2="801.243" gradientTransform="matrix(1 0 0 -1 0 2019.89)"><stop offset=".426" stop-color="#d1d7f3"/><stop offset=".593" stop-color="#d9def5"/><stop offset=".853" stop-color="#eff1fb"/><stop offset="1" stop-color="#fff"/></linearGradient><path class="st100" d="M1977.608 1238.868c7.037-.117 14.016-1.119 20.455-2.959 5.584-9.911 1.588-21.243-12.064-29.124-19.289-11.145-50.484-11.145-69.668 0a40.464 40.464 0 0 0-4.981 3.445c-.012 7.342 4.828 14.693 14.526 20.297 3.328 1.919 7.019 3.486 10.922 4.734v3.606h40.81v.001z"/><linearGradient id="SVGID_73_" gradientUnits="userSpaceOnUse" x1="1414.821" y1="811.301" x2="1513.375" y2="811.301" gradientTransform="matrix(1 0 0 -1 475.166 2019.89)"><stop offset="0" stop-color="#fd9009"/><stop offset=".387" stop-color="#f6700f"/><stop offset=".769" stop-color="#f15714"/><stop offset="1" stop-color="#ef4e16"/></linearGradient><path class="st101" d="M1904.53 1230.504c-9.715-5.604-14.567-12.961-14.543-20.314l.041-31.881c-.018 7.354 4.828 14.71 14.537 20.323 19.307 11.142 50.49 11.142 69.662.009 9.521-5.546 14.291-12.785 14.314-20.042l-.041 31.875c-.023 7.257-4.787 14.496-14.315 20.039-19.171 11.141-50.36 11.141-69.655-.009z"/><path class="st38" d="M1904.565 1198.632c-19.295-11.141-19.4-29.206-.234-40.348 19.184-11.144 50.379-11.144 69.668 0 19.307 11.142 19.4 29.206.229 40.356-19.173 11.133-50.357 11.133-69.663-.008z"/><path class="st70" d="M1925.336 1190.162l-6.885-3.976 26.578-15.343-10.758-3.281 5.549-3.205 19.518 5.323.738.428-34.74 20.054z"/></g><g><linearGradient id="SVGID_74_" gradientUnits="userSpaceOnUse" x1="14.181" y1="553.94" x2="128.219" y2="553.94" gradientTransform="matrix(1 0 0 -1 475.166 2019.89)"><stop offset=".426" stop-color="#d1d7f3"/><stop offset=".486" stop-color="#d7dcf5"/><stop offset=".813" stop-color="#f4f6fc" stop-opacity=".5"/><stop offset="1" stop-color="#fff" stop-opacity="0"/></linearGradient><path class="st102" d="M588.844 1445.76c-10.298-5.945-23.986-8.681-37.433-8.279h-36.606v3.448c-4.002 1.269-7.775 2.874-11.153 4.831-19.166 11.15-19.055 29.212.231 40.356 3.325 1.919 7.017 3.487 10.922 4.735v3.606h40.81c12.158-.202 24.205-2.965 33.46-8.332 19.166-11.153 19.072-29.215-.231-40.365z"/><linearGradient id="SVGID_75_" gradientUnits="userSpaceOnUse" x1="-7.175" y1="555.713" x2="91.383" y2="555.713" gradientTransform="matrix(1 0 0 -1 475.166 2019.89)"><stop offset="0" stop-color="#ced3f8"/><stop offset=".417" stop-color="#c4c9ef"/><stop offset="1" stop-color="#bbc0e6"/></linearGradient><path class="st103" d="M482.534 1486.093c-9.712-5.604-14.563-12.961-14.543-20.315l.041-31.881c-.017 7.354 4.831 14.71 14.54 20.323 19.304 11.142 50.49 11.142 69.662.009 9.522-5.546 14.291-12.785 14.315-20.042l-.044 31.875c-.021 7.257-4.787 14.496-14.312 20.039-19.172 11.142-50.361 11.142-69.659-.008z"/><path class="st13" d="M482.572 1454.22c-19.298-11.142-19.4-29.206-.234-40.348 19.181-11.145 50.376-11.145 69.668 0 19.304 11.142 19.397 29.206.228 40.356-19.172 11.134-50.358 11.134-69.662-.008z"/><path class="st86" d="M504.85 1445.543l-6.885-3.976 26.575-15.343-10.755-3.281 5.549-3.205 19.515 5.323.738.428-34.737 20.054z"/></g><g><linearGradient id="SVGID_76_" gradientUnits="userSpaceOnUse" x1="1171.461" y1="674.28" x2="1285.501" y2="674.28" gradientTransform="matrix(1 0 0 -1 475.166 2019.89)"><stop offset=".426" stop-color="#d1d7f3"/><stop offset=".486" stop-color="#d7dcf5"/><stop offset=".813" stop-color="#f4f6fc"/><stop offset="1" stop-color="#fff"/></linearGradient><path class="st104" d="M1746.127 1325.42c-10.301-5.944-23.988-8.68-37.436-8.279h-36.604v3.448c-4.002 1.268-7.775 2.874-11.156 4.831-19.166 11.15-19.054 29.212.235 40.357 3.322 1.919 7.014 3.486 10.922 4.734v3.606h40.811c12.158-.202 24.205-2.965 33.457-8.332 19.166-11.153 19.072-29.215-.229-40.365z"/><linearGradient id="SVGID_77_" gradientUnits="userSpaceOnUse" x1="1150.106" y1="676.052" x2="1248.666" y2="676.052" gradientTransform="matrix(1 0 0 -1 475.166 2019.89)"><stop offset="0" stop-color="#ced3f8"/><stop offset=".417" stop-color="#c4c9ef"/><stop offset="1" stop-color="#bbc0e6"/></linearGradient><path class="st105" d="M1639.815 1365.753c-9.709-5.604-14.56-12.961-14.543-20.314l.041-31.881c-.018 7.354 4.834 14.71 14.543 20.323 19.301 11.142 50.49 11.142 69.662.009 9.521-5.546 14.291-12.785 14.314-20.042l-.047 31.875c-.017 7.257-4.787 14.496-14.308 20.039-19.172 11.141-50.361 11.141-69.662-.009z"/><path class="st13" d="M1639.856 1333.881c-19.301-11.141-19.4-29.206-.234-40.348 19.178-11.144 50.373-11.144 69.668 0 19.301 11.142 19.394 29.206.229 40.357-19.173 11.132-50.362 11.132-69.663-.009z"/><path class="st86" d="M1684.287 1322.056c-4.799 2.769-9.457 4.316-13.986 4.635-4.529.322-8.701-.621-12.533-2.833-3.779-2.182-5.426-4.57-4.928-7.166.492-2.596 3.041-5.25 7.646-7.966l6.381-3.686c4.846-2.798 9.527-4.339 14.045-4.629 4.523-.287 8.672.659 12.451 2.842s5.426 4.568 4.945 7.16c-.486 2.59-3.029 5.241-7.635 7.957l-6.386 3.686zm.135-8.027c2.877-1.664 4.576-3.1 5.104-4.312.527-1.21-.047-2.297-1.711-3.258-1.623-.938-3.439-1.266-5.461-.99-2.016.275-4.377 1.166-7.084 2.672l-8.438 4.875c-2.83 1.635-4.547 3.071-5.156 4.31-.604 1.236-.053 2.347 1.646 3.328 1.682.973 3.557 1.295 5.619.964 2.068-.334 4.477-1.271 7.23-2.824l8.251-4.765z"/></g><g><linearGradient id="SVGID_78_" gradientUnits="userSpaceOnUse" x1="594.771" y1="663.669" x2="708.809" y2="663.669" gradientTransform="matrix(1 0 0 -1 475.166 2019.89)"><stop offset=".426" stop-color="#d1d7f3"/><stop offset=".486" stop-color="#d7dcf5"/><stop offset=".813" stop-color="#f4f6fc"/><stop offset="1" stop-color="#fff"/></linearGradient><path class="st106" d="M1169.43 1336.031c-10.295-5.944-23.983-8.681-37.43-8.279h-36.608v3.448c-4.002 1.268-7.775 2.874-11.15 4.831-19.166 11.15-19.055 29.212.228 40.357 3.328 1.919 7.02 3.486 10.922 4.734v3.606h40.809c12.158-.202 24.205-2.965 33.463-8.332 19.167-11.153 19.073-29.215-.234-40.365z"/><linearGradient id="SVGID_79_" gradientUnits="userSpaceOnUse" x1="573.416" y1="665.442" x2="671.969" y2="665.442" gradientTransform="matrix(1 0 0 -1 475.166 2019.89)"><stop offset="0" stop-color="#ced3f8"/><stop offset=".417" stop-color="#c4c9ef"/><stop offset="1" stop-color="#bbc0e6"/></linearGradient><path class="st107" d="M1063.125 1376.364c-9.715-5.605-14.567-12.961-14.543-20.315l.041-31.881c-.017 7.354 4.828 14.71 14.537 20.323 19.307 11.142 50.489 11.142 69.661.009 9.522-5.546 14.291-12.785 14.314-20.042l-.041 31.875c-.024 7.257-4.787 14.496-14.314 20.039-19.172 11.143-50.36 11.143-69.655-.008z"/><path class="st2" d="M1063.16 1344.492c-19.295-11.141-19.4-29.206-.234-40.348 19.183-11.144 50.378-11.144 69.667 0 19.307 11.142 19.4 29.206.228 40.357-19.172 11.133-50.354 11.133-69.661-.009z"/></g><g><linearGradient id="SVGID_80_" gradientUnits="userSpaceOnUse" x1="598.916" y1="702.192" x2="697.469" y2="702.192" gradientTransform="matrix(1 0 0 -1 475.166 2019.89)"><stop offset="0" stop-color="#6b67e9"/><stop offset=".327" stop-color="#5a56d1"/><stop offset=".745" stop-color="#4945b8"/><stop offset="1" stop-color="#423eaf"/></linearGradient><path class="st108" d="M1088.625 1339.614c-9.715-5.605-14.567-12.961-14.543-20.315l.041-31.881c-.017 7.354 4.828 14.71 14.537 20.323 19.305 11.142 50.489 11.142 69.661.009 9.522-5.546 14.291-12.785 14.314-20.042l-.041 31.875c-.024 7.257-4.787 14.496-14.314 20.039-19.172 11.143-50.361 11.143-69.655-.008z"/><path class="st41" d="M1088.66 1307.742c-19.295-11.141-19.4-29.206-.234-40.348 19.182-11.144 50.378-11.144 69.667 0 19.307 11.142 19.4 29.206.228 40.357-19.172 11.133-50.356 11.133-69.661-.009z"/><path class="st12" d="M1132.094 1296.067c-4.799 2.769-9.457 4.315-13.987 4.635-4.523.322-8.701-.624-12.533-2.833-3.778-2.182-5.421-4.57-4.929-7.166s3.041-5.25 7.648-7.966l6.387-3.685c4.84-2.798 9.521-4.339 14.045-4.629 4.518-.29 8.666.659 12.445 2.842 3.779 2.182 5.432 4.567 4.946 7.157-.486 2.593-3.029 5.244-7.635 7.96l-6.387 3.685zm.135-8.03c2.877-1.661 4.576-3.097 5.103-4.309.527-1.21-.047-2.297-1.711-3.261-1.623-.935-3.439-1.263-5.455-.99-2.022.278-4.383 1.169-7.084 2.675l-8.443 4.875c-2.83 1.632-4.547 3.067-5.156 4.309-.603 1.236-.052 2.347 1.647 3.328 1.682.973 3.557 1.292 5.619.964 2.068-.334 4.477-1.274 7.231-2.827l8.249-4.764z"/></g></g><g id="Marker"><path class="st38" d="M1937.999 724.362l30.931 17.857-30.931 17.858-30.926-17.858z"/><path class="st35" d="M1937.999 760.077v16.583l-30.926-34.441z"/><path class="st109" d="M1937.999 776.66l30.931-34.441-30.931 17.858z"/><linearGradient id="SVGID_81_" gradientUnits="userSpaceOnUse" x1="1937.999" y1="1246.975" x2="1975.996" y2="1246.975" gradientTransform="matrix(1 0 0 -1 0 2019.89)"><stop offset="0" stop-color="#c2c7e2"/><stop offset=".079" stop-color="#ccd0e7"/><stop offset=".339" stop-color="#e8eaf4"/><stop offset=".567" stop-color="#f9f9fc"/><stop offset=".736" stop-color="#fff"/></linearGradient><path class="st110" d="M1937.999 776.66l25.019-7.491 12.978 7.491z"/></g><g id="Front_block"><linearGradient id="SVGID_82_" gradientUnits="userSpaceOnUse" x1="957.898" y1="-.955" x2="957.898" y2="420.914" gradientTransform="matrix(1 0 0 -1 0 2019.89)"><stop offset="0" stop-color="#fff" stop-opacity="0"/><stop offset=".357" stop-color="#f8f9fd" stop-opacity=".5"/><stop offset=".873" stop-color="#e5e9f6"/><stop offset="1" stop-color="#dfe4f4"/></linearGradient><path class="st111" d="M1057.295 1598.976L858.501 1713.75v307.095h198.794z"/><path class="st6" d="M858.501 1713.75l-198.785-114.774 198.785-114.764 198.794 114.764z"/><linearGradient id="SVGID_83_" gradientUnits="userSpaceOnUse" x1="759.109" y1="-.955" x2="759.109" y2="420.914" gradientTransform="matrix(1 0 0 -1 0 2019.89)"><stop offset=".152" stop-color="#fff" stop-opacity="0"/><stop offset="1" stop-color="#e9edf7"/></linearGradient><path class="st112" d="M858.501 1713.75l-198.785-114.774v421.869h198.785z"/></g><g id="Data_pieces_with__x22_v_x22_"><linearGradient id="SVGID_84_" gradientUnits="userSpaceOnUse" x1="1371.455" y1="1498.554" x2="1471.326" y2="1498.554" gradientTransform="matrix(1 0 0 -1 0 2019.89)"><stop offset="0" stop-color="#c4cae8"/><stop offset=".247" stop-color="#c9ceea"/><stop offset=".523" stop-color="#d6daef"/><stop offset=".811" stop-color="#eceef8"/><stop offset="1" stop-color="#fff"/></linearGradient><path class="st113" d="M1457.161 501.666c-10.037-5.79-23.373-8.461-36.474-8.068h-24.428v3.365c-3.896 1.23-7.576 2.796-10.869 4.703-18.674 10.862-18.562 28.462.229 39.319 3.24 1.867 6.838 3.397 10.64 4.616v3.511h28.524c11.842-.198 23.59-2.889 32.601-8.123 18.673-10.861 18.579-28.461-.223-39.323z"/><linearGradient id="SVGID_85_" gradientUnits="userSpaceOnUse" x1="1350.291" y1="1509.887" x2="1446.32" y2="1509.887" gradientTransform="matrix(1 0 0 -1 0 2019.89)"><stop offset="0" stop-color="#d8def0"/><stop offset=".551" stop-color="#c6cce7"/><stop offset="1" stop-color="#bdc3e3"/></linearGradient><path class="st114" d="M1364.465 520.863c-9.463-5.467-14.185-12.634-14.174-19.795l.047-10.074c-.023 7.168 4.705 14.331 14.162 19.802 18.808 10.849 49.195 10.849 67.875 0 9.281-5.394 13.922-12.451 13.945-19.519l-.041 10.066c-.018 7.069-4.664 14.122-13.946 19.521-18.678 10.863-49.059 10.863-67.868-.001z"/><linearGradient id="SVGID_86_" gradientUnits="userSpaceOnUse" x1="1350.291" y1="1499.821" x2="1446.32" y2="1499.821" gradientTransform="matrix(1 0 0 -1 0 2019.89)"><stop offset="0" stop-color="#807cfb"/><stop offset=".014" stop-color="#7f7bfa"/><stop offset=".448" stop-color="#5e5ad1"/><stop offset=".792" stop-color="#4a46b8"/><stop offset="1" stop-color="#423eaf"/></linearGradient><path class="st115" d="M1364.465 530.928c-9.463-5.464-14.185-12.634-14.174-19.794l.047-10.074c-.023 7.169 4.705 14.33 14.162 19.803 18.808 10.847 49.195 10.847 67.875 0 9.281-5.394 13.922-12.453 13.945-19.519l-.041 10.065c-.018 7.069-4.664 14.122-13.946 19.523-18.678 10.861-49.059 10.861-67.868-.004z"/><linearGradient id="SVGID_87_" gradientUnits="userSpaceOnUse" x1="1350.291" y1="1489.755" x2="1446.32" y2="1489.755" gradientTransform="matrix(1 0 0 -1 0 2019.89)"><stop offset="0" stop-color="#d8def0"/><stop offset=".551" stop-color="#c6cce7"/><stop offset="1" stop-color="#bdc3e3"/></linearGradient><path class="st116" d="M1364.465 540.993c-9.463-5.462-14.185-12.634-14.174-19.794l.047-10.074c-.023 7.169 4.705 14.335 14.162 19.803 18.808 10.85 49.195 10.85 67.875 0 9.281-5.393 13.922-12.45 13.945-19.519l-.041 10.065c-.018 7.072-4.664 14.125-13.946 19.525-18.678 10.862-49.059 10.862-67.868-.006z"/><path class="st19" d="M1364.5 510.797c-18.797-10.856-18.902-28.465-.223-39.312 18.686-10.857 49.072-10.857 67.875 0 18.809 10.847 18.902 28.456.223 39.312-18.679 10.848-49.066 10.848-67.875 0z"/><path class="st117" d="M1423.481 490.027l-34.588 1.761 1.072-7.777h-9.556l-2.596 14.172 45.668-2.637z"/></g><g id="Horizontal_pie_chart"><path class="st118" d="M988.049 954.012l12.381 7.145c18.838-10.878 49.383-10.878 68.221 0 18.841 10.878 18.841 28.515 0 39.39-18.838 10.878-49.383 10.878-68.221 0l-12.381 7.148c25.676 14.821 67.304 14.824 92.983 0 25.674-14.824 25.674-38.859 0-53.684-25.679-14.824-67.307-14.824-92.983.001z"/><path class="st119" d="M1000.43 961.157l-12.381-7.145c-25.676 14.824-25.676 38.859 0 53.684l12.381-7.148c-18.844-10.876-18.844-28.513 0-39.391z"/><path class="st120" d="M1016.69 989.476c-2.939-.12-5.69-.926-8.259-2.399-2.555-1.48-3.935-3.07-4.146-4.773-.211-1.702.806-3.196 3.035-4.485 2.23-1.286 4.82-1.881 7.767-1.778 2.944.097 5.716.896 8.306 2.393 2.593 1.497 3.973 3.1 4.154 4.796.182 1.702-.847 3.199-3.085 4.486-2.23 1.291-4.819 1.874-7.772 1.76zm6.061-6.024c-.29-.932-1.292-1.904-3.023-2.898-1.714-1.005-3.39-1.582-5.021-1.743-1.614-.167-3.047.108-4.266.812-1.16.668-1.606 1.485-1.336 2.452.266.961 1.245 1.925 2.947 2.909 1.699.981 3.378 1.553 5.042 1.702 1.67.155 3.085-.103 4.245-.776 1.218-.703 1.693-1.52 1.412-2.458zm3.636-16.283l4.377-2.525 9.905 30.366-4.371 2.531-9.911-30.372zm25.535 18.97a17.66 17.66 0 0 1-8.259-2.394c-2.555-1.477-3.938-3.065-4.148-4.772-.211-1.693.8-3.19 3.035-4.482 2.224-1.286 4.828-1.881 7.79-1.761 2.965.109 5.725.905 8.285 2.379s3.943 3.079 4.134 4.784c.188 1.708-.829 3.211-3.064 4.503-2.23 1.285-4.823 1.869-7.773 1.743zm6.011-6.012c-.284-.955-1.274-1.922-2.971-2.903-1.696-.979-3.366-1.55-5.024-1.711-1.652-.164-3.073.094-4.269.779-1.183.692-1.646 1.509-1.383 2.452.27.946 1.269 1.919 2.994 2.918 1.731.99 3.407 1.567 5.042 1.728 1.641.152 3.056-.114 4.245-.802 1.197-.686 1.648-1.512 1.366-2.461z"/></g><g id="Front_window"><path class="st19" d="M1506.286 822.712c0 5.364 3.797 7.554 8.444 4.874l232.828-134.421c4.641-2.682 8.444-9.262 8.444-14.625V483.571c0-5.363-3.803-7.556-8.444-4.875L1514.729 613.12c-4.647 2.681-8.444 9.261-8.444 14.623l.001 194.969z"/><path class="st14" d="M1509.098 828.322l-.012.009-.111-.067c.035.018.082.038.123.058z"/><linearGradient id="SVGID_88_" gradientUnits="userSpaceOnUse" x1="2558.951" y1="1579.143" x2="2771.707" y2="1210.639" gradientTransform="rotate(180 2123.872 1009.945)"><stop offset=".551" stop-color="#807cfb"/><stop offset=".585" stop-color="#5652c8"/><stop offset=".6" stop-color="#423eaf"/></linearGradient><path class="st121" d="M1507.692 609.058l232.828-134.423c2.303-1.329 4.395-1.458 5.918-.601l.006-.002.012.01c.023.009.035.018.052.028l6.967 4.024v.002c-1.529-.857-3.621-.728-5.918.599L1514.729 613.12c-4.647 2.681-8.444 9.261-8.444 14.623v194.969c0 2.565.873 4.393 2.291 5.323l-6.521-3.769.006-.009c-1.723-.795-2.812-2.743-2.812-5.607V623.682c0-5.363 3.802-11.943 8.443-14.624z"/><path class="st41" d="M1687.422 551.868l50.655-29.244v-9.311l-50.655 29.247z"/><path class="st17" d="M1515.901 780.315l73.236-42.281v-4.654l-73.236 42.281zM1515.901 792.214l37.605-21.711v-4.654l-37.605 21.711z"/><g><path class="st17" d="M1558.463 767.642l9.75-5.627v-4.654l-9.75 5.628z"/></g><path class="st17" d="M1515.901 677.329l171.973-99.287v-4.654l-171.973 99.287v4.654zm183.598-110.653v4.654l21.768-12.565v-4.654l-21.768 12.565z"/><path class="st14" d="M1607.454 700.846l23.689-61.067 23.695 33.708z"/></g><path class="st41" d="M144.91 763.45c-19.403-33.602-50.858-51.782-70.268-40.573-19.409 11.197-19.409 47.528 0 81.135l35.134 60.85 35.134-20.279c19.403-11.197 19.394-47.524 0-81.133zm-35.132 47.353c-12.946-7.475-23.439-25.655-23.439-40.6 0-14.956 10.493-21.012 23.439-13.539 12.943 7.472 23.433 25.652 23.433 40.605 0 14.943-10.489 21.004-23.433 13.534z" id="Location_mark"/><g id="Gear"><linearGradient id="SVGID_89_" gradientUnits="userSpaceOnUse" x1="1740.41" y1="466.623" x2="1948.311" y2="466.623" gradientTransform="matrix(1 0 0 -1 0 2019.89)"><stop offset=".332" stop-color="#c4cae8"/><stop offset=".584" stop-color="#d7dbef"/><stop offset="1" stop-color="#fff"/></linearGradient><path class="st122" d="M1925.249 1542.615c-.838-1.448-1.857-2.865-3.029-4.254-4.113-4.087 5.367-10.922 9.644-13.392.082 0-12.469-7.248-12.469-7.248l-36.89.035c-2.473-3.155-3.117-7.436-3.106-9.636l-17.701-.006c-.006 2.886-1.183 9.337-6.07 12.155-1.025.595-2.203 1.022-3.574 1.228a85.425 85.425 0 0 0-7.365 1.769 1.216 1.216 0 0 1-.31-.052 87.263 87.263 0 0 0-7.348-1.767c-7.904-1.19-9.527-9.894-9.51-13.38l-17.701-.003c-.006 2.88-1.184 9.337-6.07 12.158a10.064 10.064 0 0 1-3.574 1.222 86.174 86.174 0 0 0-7.365 1.77c-8.151 1.755-18.826-3.073-23.08-5.543l-12.557 7.248c4.254 2.47 13.652 9.305 9.492 13.383a28.721 28.721 0 0 0-3.065 4.262c-.363.791-1.113 1.477-2.133 2.068-4.881 2.818-16.025 3.481-21.023 3.481l-.035 10.251c6.023-.003 21.047.964 23.069 5.546a27.93 27.93 0 0 0 3.023 4.263c4.119 4.078-5.367 10.913-9.645 13.386l12.475 7.251c.434-.252.967-.539 1.547-.844l-1.459.844 36.867.038c2.414 3.149 3.047 7.38 3.023 9.568l69.568.053c0-.006 17.338-9.633 17.338-9.633l22.775.02c0 .003 12.562-7.245 12.562-7.245-4.266-2.473-13.658-9.31-9.504-13.386a30.13 30.13 0 0 0 1.969-2.578l11.672.015 12.551-7.248c.012 0 .07-10.245.07-10.245-6.457.253-21.041-.969-23.062-5.554z"/><path class="st19" d="M1767.707 1506.047c-.012-3.979-7.025-8.991-10.535-11.03l.088 29.903c3.504 2.036 10.523 7.046 10.529 11.027l-.082-29.9z"/><path class="st58" d="M1880.073 1524.92l-.082-29.903c-3.551 2.045-10.676 7.099-10.658 11.086l.082 29.903c-.012-3.991 7.113-9.038 10.658-11.086z"/><linearGradient id="SVGID_90_" gradientUnits="userSpaceOnUse" x1="1787.067" y1="490.639" x2="1849.874" y2="490.639" gradientTransform="matrix(1 0 0 -1 0 2019.89)"><stop offset="0" stop-color="#bbc0e6"/><stop offset="1" stop-color="#dae0f5"/></linearGradient><path class="st123" d="M1796.401 1540.403c12.299-7.101 32.139-7.101 44.356-.003 6.064 3.524 9.099 8.136 9.117 12.759l-.088-29.903c-.017-4.617-3.053-9.234-9.117-12.759-12.211-7.096-32.057-7.096-44.35 0-6.182 3.568-9.264 8.253-9.252 12.926l.082 29.903c-.006-4.676 3.076-9.357 9.252-12.923z"/><path class="st14" d="M1769.331 1558.907l-12.475-7.248.088 29.9 12.474 7.251z"/><path class="st58" d="M1879.756 1581.559l-.082-29.9-12.562 7.248.088 29.903z"/><linearGradient id="SVGID_91_" gradientUnits="userSpaceOnUse" x1="1769.331" y1="444.365" x2="1809.397" y2="444.365" gradientTransform="matrix(1 0 0 -1 0 2019.89)"><stop offset="0" stop-color="#bbc0e6"/><stop offset="1" stop-color="#ced3f8"/></linearGradient><path class="st124" d="M1792.557 1583.265a84.586 84.586 0 0 0 7.348 1.763c7.799 1.172 9.48 9.677 9.492 13.251l-.082-29.901c-.018-3.577-1.699-12.076-9.498-13.251a84.45 84.45 0 0 1-7.342-1.763c-7.037-2.394-18.867 3.067-23.144 5.543l.088 29.903c4.277-2.475 16.107-7.942 23.138-5.545z"/><linearGradient id="SVGID_92_" gradientUnits="userSpaceOnUse" x1="2010.818" y1="-270.779" x2="2030.573" y2="-303.817" gradientTransform="matrix(-.5 .866 .866 .5 3105.164 -30.81)"><stop offset="0" stop-color="#ced3f8"/><stop offset="1" stop-color="#bbc0e6"/></linearGradient><path class="st125" d="M1833.198 1586.241c1.008-.58 2.185-1.005 3.562-1.21a89.332 89.332 0 0 0 7.348-1.761c7.067-2.402 18.838 3.065 23.092 5.54l-.088-29.903c-4.248-2.473-16.019-7.937-23.086-5.537a89.14 89.14 0 0 1-7.354 1.758c-1.371.208-2.543.633-3.557 1.213-4.822 2.783-5.842 9.141-6.117 12.173l.088 29.9c.276-3.029 1.295-9.39 6.112-12.173z"/><path class="st13" d="M1766.5 1538.27c4.119 4.078-5.367 10.916-9.645 13.389l12.475 7.248c4.277-2.476 16.107-7.937 23.144-5.543a84.45 84.45 0 0 0 7.342 1.763c7.898 1.184 9.521 9.894 9.492 13.386h17.69c.275-3.032 1.295-9.39 6.117-12.173 1.014-.58 2.185-1.005 3.557-1.213a88.834 88.834 0 0 0 7.354-1.758c7.067-2.399 18.838 3.065 23.086 5.537l12.562-7.248c-4.26-2.47-13.664-9.311-9.504-13.389 1.19-1.389 2.227-2.81 3.076-4.26.358-.791 1.108-1.477 2.133-2.066 4.875-2.824 16.019-3.483 20.994-3.48l.058-10.248c-6.463.252-21.041-.97-23.068-5.557-.832-1.447-1.846-2.865-3.023-4.254-4.113-4.084 5.367-10.919 9.65-13.389l-12.475-7.248c-4.283 2.47-16.119 7.939-23.139 5.543a87.256 87.256 0 0 0-7.348-1.764c-7.904-1.193-9.527-9.896-9.51-13.38l-17.701-.009c-.006 2.889-1.184 9.343-6.07 12.161a10.046 10.046 0 0 1-3.574 1.225 85.052 85.052 0 0 0-7.365 1.767c-8.151 1.758-18.826-3.073-23.08-5.543l-12.557 7.248c4.254 2.47 13.652 9.308 9.492 13.383a28.803 28.803 0 0 0-3.065 4.266c-.363.791-1.113 1.474-2.133 2.068-4.881 2.816-16.025 3.481-21.023 3.481l-.035 10.251c6.023-.003 21.047.964 23.069 5.546a28.036 28.036 0 0 0 3.024 4.26zm29.819-27.773c12.293-7.096 32.138-7.096 44.35 0 12.205 7.096 12.152 18.595-.141 25.693-12.281 7.093-32.139 7.084-44.344-.006-12.211-7.101-12.147-18.591.135-25.687z"/><path class="st14" d="M1756.856 1551.659c4.277-2.473 13.764-9.311 9.645-13.389a27.987 27.987 0 0 1-3.023-4.26c-2.021-4.582-17.045-5.549-23.069-5.546l.088 29.897c3.744 0 10.969.375 16.383 1.761l-.024-8.463z"/><path class="st58" d="M1827.086 1598.414l-.087-29.9h-17.69l.088 29.903z"/><linearGradient id="SVGID_93_" gradientUnits="userSpaceOnUse" x1="1869.132" y1="475.532" x2="1896.461" y2="475.532" gradientTransform="matrix(1 0 0 -1 0 2019.89)"><stop offset=".405" stop-color="#bbc0e6"/><stop offset="1" stop-color="#ced3f8"/></linearGradient><path class="st126" d="M1896.461 1558.362l-.088-29.897c-4.975-.003-16.119.656-20.994 3.48-1.026.589-1.776 1.274-2.133 2.066-.85 1.45-1.887 2.871-3.076 4.26-4.16 4.078 5.244 10.919 9.504 13.389l.023 8.59c5.468-1.475 12.933-1.888 16.764-1.888z"/></g></g></svg>