<svg id="Layer_1" xmlns="http://www.w3.org/2000/svg" viewBox="0 0 2290.884 2020.845"><style>.st0{fill:url(#SVGID_1_)}.st1{fill:#e8ecf7}.st2{fill:#fff}.st3{fill:url(#SVGID_2_)}.st4{fill:#bbc0e6}.st5{fill:#ced3f8}.st6{fill:#f6f6fb}.st7{fill:url(#SVGID_3_)}.st8{fill:#cc360e}.st9{fill:#fc780b}.st10{fill:#ffad02}.st11{fill:url(#SVGID_4_)}.st12{fill:#423eaf}.st13{fill:#5652cc}.st14{fill:#807dfb}.st15{fill:#dae0f5}.st16{fill:url(#SVGID_5_)}.st17{fill:url(#SVGID_6_)}.st18{fill:#ef4e16}.st19{fill:url(#SVGID_7_)}.st20{fill:url(#SVGID_8_)}.st21{fill:url(#SVGID_9_)}.st22{fill:#f1f1f6}.st23{fill:#6b67e9}.st24{fill:url(#SVGID_10_)}.st25{fill:url(#SVGID_11_)}.st26{fill:url(#SVGID_12_)}.st27{fill:url(#SVGID_13_)}.st28{fill:url(#SVGID_14_)}.st29{fill:url(#SVGID_15_)}.st30{fill:url(#SVGID_16_)}.st31{fill:url(#SVGID_17_)}.st32{fill:url(#SVGID_18_)}.st33{fill:url(#SVGID_19_)}.st34{fill:url(#SVGID_20_)}.st35{fill:#c4cae9}.st36{fill:url(#SVGID_21_)}.st37{fill:url(#SVGID_22_)}.st38{fill:url(#SVGID_23_)}.st39{fill:#1e1c6b}.st40{fill:url(#SVGID_24_)}.st41{fill:url(#SVGID_25_)}.st42{fill:url(#SVGID_26_)}.st43{fill:#ffd3ab}.st44{fill:url(#SVGID_27_)}.st45{fill:url(#SVGID_28_)}.st46{fill:#dce1f4}.st47{fill:#f7f7fc}.st48{fill:#a3a9d0}.st49{fill:url(#SVGID_29_)}.st50{fill:url(#SVGID_30_)}.st51{fill:url(#SVGID_31_)}.st52{fill:#fcba06}.st53{fill:#dfe4f4}.st54{fill:url(#SVGID_32_)}.st55{fill:url(#SVGID_33_)}.st56{fill:url(#SVGID_34_)}.st57{fill:url(#SVGID_35_)}.st58{fill:url(#SVGID_36_)}.st59{fill:url(#SVGID_37_)}.st60{fill:#f5f5fa}.st61{fill:#bbbfe2}.st62{fill:url(#SVGID_38_)}.st63{fill:#ced2f4}.st64{fill:url(#SVGID_39_)}.st65{fill:url(#SVGID_40_)}.st66{fill:url(#SVGID_41_)}</style><g id="Wave_shape"><linearGradient id="SVGID_1_" gradientUnits="userSpaceOnUse" x1="990.009" y1="412.952" x2="1368.83" y2="1371.148" gradientTransform="matrix(1 0 0 -1 0 2019.89)"><stop offset="0" stop-color="#efeff3"/><stop offset=".753" stop-color="#fafafb" stop-opacity=".246"/><stop offset="1" stop-color="#fff" stop-opacity="0"/></linearGradient><path class="st0" d="M342.899 1618.406c312.716 58.318 379.819-130.557 773.938 49.553 324.38 148.241 787.893 55.36 823.317-169.847 24.167-153.637 96.173-197.21 196.009-209.074 315.031-37.438 120.05-493.365-323.973-517.604-485.884-26.524-546.206-66.426-658.369-192.233-184.96-207.46-472.217 105.031-586.107 271.965-98.179 143.904-385.062 112.678-503.655 276.33-152.44 210.361-22.283 434.754 278.84 490.91z"/></g><g id="Abstract_shapes"><path class="st1" d="M314.622 945.105l41.91 90.299c2.533 5.457 9.202 7.568 14.414 4.559l114.494-66.105c8.375-4.837 6.003-17.513-3.555-18.992l-156.404-24.199c-8.087-1.252-14.303 7.012-10.859 14.438zM1899.912 1625.473c-34.22-19.753-89.7-19.753-123.915 0-34.22 19.759-34.22 51.792 0 71.546 34.22 19.759 89.701 19.759 123.92 0 34.22-19.753 34.215-51.786-.005-71.546zm-94.678 54.665c-18.068-10.434-18.073-27.349 0-37.783 18.073-10.434 47.37-10.434 65.441 0 18.073 10.434 18.073 27.349 0 37.783-18.072 10.434-47.369 10.434-65.441 0zM1985.985 623.967c6.033 3.482 15.809 3.482 21.842 0 6.031-3.482 6.031-9.13 0-12.611-6.033-3.482-15.81-3.482-21.842 0-6.032 3.482-6.032 9.129 0 12.611zM2039.425 654.82c6.03 3.482 15.809 3.482 21.84 0 6.033-3.482 6.033-9.128 0-12.61-6.031-3.482-15.809-3.482-21.84 0s-6.031 9.128 0 12.61zM2092.865 685.671c6.031 3.482 15.81 3.482 21.84 0 6.031-3.482 6.031-9.128 0-12.61-6.03-3.482-15.809-3.482-21.84 0-6.034 3.482-6.034 9.128 0 12.61zM2168.146 703.913c-6.033-3.482-15.81-3.482-21.844 0-6.031 3.482-6.031 9.128 0 12.61 6.033 3.482 15.81 3.482 21.844 0 6.031-3.481 6.031-9.129 0-12.61zM1932.546 654.82c6.031 3.482 15.809 3.482 21.84 0 6.033-3.482 6.033-9.128 0-12.61-6.031-3.482-15.809-3.482-21.84 0-6.03 3.48-6.03 9.128 0 12.61zM1985.985 685.671c6.033 3.482 15.812 3.482 21.842 0 6.031-3.482 6.031-9.128 0-12.61-6.03-3.482-15.81-3.482-21.842 0-6.032 3.482-6.032 9.128 0 12.61zM2039.425 716.524c6.033 3.482 15.809 3.482 21.842 0 6.03-3.482 6.03-9.128-.003-12.61-6.031-3.482-15.807-3.482-21.84 0-6.03 3.48-6.03 9.128.001 12.61zM2114.705 734.771c-6.03-3.482-15.809-3.487-21.84 0-6.03 3.482-6.03 9.124 0 12.606 6.031 3.482 15.81 3.482 21.84 0 6.031-3.483 6.031-9.124 0-12.606zM1879.106 685.671c6.033 3.482 15.812 3.482 21.844 0s6.03-9.128 0-12.61c-6.033-3.482-15.81-3.482-21.844 0-6.03 3.482-6.03 9.128 0 12.61zM1932.546 716.524c6.031 3.482 15.809 3.482 21.84 0 6.033-3.482 6.033-9.128 0-12.61-6.031-3.482-15.809-3.482-21.84 0-6.03 3.48-6.03 9.128 0 12.61zM1985.987 747.376c6.03 3.482 15.81 3.482 21.84 0 6.031-3.482 6.031-9.124 0-12.606-6.03-3.487-15.81-3.487-21.84 0-6.034 3.483-6.034 9.124 0 12.606zM2061.268 765.623c-6.033-3.482-15.81-3.482-21.842 0-6.03 3.482-6.03 9.128 0 12.61 6.033 3.482 15.809 3.482 21.842 0 6.031-3.482 6.031-9.129 0-12.61z"/><ellipse class="st1" cx="1836.589" cy="710.219" rx="15.444" ry="8.917"/><path class="st1" d="M1879.109 747.376c6.03 3.482 15.81 3.482 21.84 0 6.03-3.482 6.03-9.124 0-12.611-6.03-3.482-15.81-3.482-21.84 0-6.033 3.488-6.033 9.129 0 12.611zM1932.546 778.233c6.031 3.482 15.809 3.482 21.84 0 6.033-3.487 6.033-9.128 0-12.61-6.031-3.482-15.809-3.482-21.84 0-6.03 3.481-6.03 9.123 0 12.61zM2007.827 796.474c-6.03-3.482-15.81-3.482-21.84 0-6.03 3.482-6.03 9.128 0 12.61 6.03 3.482 15.81 3.482 21.84 0 6.031-3.48 6.031-9.128 0-12.61zM1794.071 734.765c-6.033-3.482-15.809-3.482-21.842 0-6.03 3.487-6.03 9.13 0 12.611 6.033 3.482 15.81 3.482 21.842 0 6.03-3.482 6.03-9.123 0-12.611zM1847.509 765.623c-6.03-3.482-15.809-3.482-21.84 0-6.03 3.482-6.03 9.123 0 12.61 6.031 3.482 15.809 3.482 21.84 0 6.033-3.487 6.033-9.129 0-12.61zM1900.949 796.474c-6.03-3.482-15.81-3.482-21.84 0-6.033 3.482-6.033 9.128 0 12.61 6.03 3.482 15.81 3.482 21.84 0 6.03-3.481 6.031-9.128 0-12.61zM1954.386 827.327c-6.031-3.482-15.809-3.482-21.84 0-6.03 3.482-6.03 9.128 0 12.61 6.034 3.482 15.809 3.482 21.842 0 6.032-3.481 6.032-9.128-.002-12.61z"/><g><path class="st2" d="M584.453 1491.58c-6.033-3.482-15.81-3.482-21.844 0-6.028 3.484-6.028 9.126 0 12.61 6.033 3.482 15.812 3.482 21.844 0 6.031-3.481 6.031-9.125 0-12.61zM531.012 1522.435c-6.031-3.482-15.809-3.482-21.84 0-6.03 3.482-6.03 9.126 0 12.61 6.031 3.482 15.81 3.482 21.84 0 6.034-3.484 6.034-9.129 0-12.61zM477.575 1553.287c-6.031-3.482-15.81-3.482-21.84 0-6.033 3.482-6.033 9.129 0 12.61 6.03 3.482 15.809 3.482 21.84 0 6.031-3.481 6.03-9.128 0-12.61zM424.137 1584.139c-6.033-3.482-15.812-3.482-21.842 0-6.031 3.482-6.031 9.128 0 12.61 6.033 3.482 15.81 3.482 21.842 0 6.028-3.482 6.028-9.128 0-12.61zM370.696 1614.994c-6.033-3.482-15.81-3.482-21.842 0-6.028 3.482-6.028 9.126 0 12.61 6.033 3.482 15.809 3.482 21.842 0 6.031-3.484 6.031-9.128 0-12.61z"/></g><path class="st1" d="M864.958 526.615l48.017 27.721c7.322 4.227 6.403 11.61-2.051 16.492l-43.914 25.354c-8.452 4.88-21.242 5.408-28.562 1.183l-48.017-27.721c-7.322-4.227-6.403-11.61 2.051-16.492l43.914-25.354c8.455-4.88 21.242-5.41 28.562-1.183z"/></g><g id="Little_blocks"><linearGradient id="SVGID_2_" gradientUnits="userSpaceOnUse" x1="1933.359" y1="962.866" x2="2149.684" y2="962.866" gradientTransform="matrix(1 0 0 -1 0 2019.89)"><stop offset="0" stop-color="#cfd5f1"/><stop offset=".283" stop-color="#e1e5f6"/><stop offset=".719" stop-color="#f7f8fd"/><stop offset="1" stop-color="#fff"/></linearGradient><path class="st3" d="M2065.694 1008.523h-132.335l84 48.508-84 48.493h132.335l83.99-48.493z"/><path class="st4" d="M1933.359 1105.524l84-48.493v-98.475l-84 48.477z"/><path class="st5" d="M1933.359 1105.524l-84.002-48.493v-98.475l84.002 48.477z"/><path class="st6" d="M1933.359 1007.033l-84.002-48.477 84.002-48.484 84 48.484z"/><linearGradient id="SVGID_3_" gradientUnits="userSpaceOnUse" x1="1274.32" y1="397.602" x2="1540.536" y2="397.602" gradientTransform="matrix(1 0 0 -1 0 2019.89)"><stop offset="0" stop-color="#cfd5f1"/><stop offset=".283" stop-color="#e1e5f6"/><stop offset=".719" stop-color="#f7f8fd"/><stop offset="1" stop-color="#fff"/></linearGradient><path class="st7" d="M1437.177 1562.601h-162.858l103.374 59.698-103.374 59.675h162.858l103.359-59.675z"/><path class="st8" d="M1274.319 1681.974l103.374-59.675v-121.188l-103.374 59.657z"/><path class="st9" d="M1274.319 1681.974l-103.374-59.675v-121.188l103.374 59.657z"/><path class="st10" d="M1274.319 1560.768l-103.374-59.657 103.374-59.666 103.374 59.666z"/><g><linearGradient id="SVGID_4_" gradientUnits="userSpaceOnUse" x1="1364.844" y1="355.849" x2="1517.993" y2="355.849" gradientTransform="matrix(1 0 0 -1 0 2019.89)"><stop offset="0" stop-color="#cfd5f1"/><stop offset=".283" stop-color="#e1e5f6"/><stop offset=".719" stop-color="#f7f8fd"/><stop offset="1" stop-color="#fff"/></linearGradient><path class="st11" d="M1458.532 1629.705h-93.688l59.469 34.342-59.469 34.33h93.688l59.461-34.33z"/><path class="st12" d="M1364.844 1698.377l59.469-34.33v-69.717l-59.469 34.319z"/><path class="st13" d="M1364.844 1698.377l-59.469-34.33v-69.717l59.469 34.319z"/><path class="st14" d="M1364.844 1628.649l-59.469-34.319 59.469-34.324 59.469 34.324z"/></g><path class="st15" d="M1305.375 1594.33l20.631 11.907 59.47-34.319-20.635-11.911z"/><path class="st15" d="M1336.431 1681.974l-10.425-75.737-20.631-11.907v69.717z"/><linearGradient id="SVGID_5_" gradientUnits="userSpaceOnUse" x1="272.244" y1="765.87" x2="552.19" y2="765.87" gradientTransform="matrix(1 0 0 -1 0 2019.89)"><stop offset="0" stop-color="#c4cae9"/><stop offset=".082" stop-color="#cacfeb"/><stop offset=".685" stop-color="#f0f2fa" stop-opacity=".5"/><stop offset="1" stop-color="#fff" stop-opacity="0"/></linearGradient><path class="st16" d="M272.244 1169.439H552.19v169.162H272.244z"/><g><path class="st6" d="M272.244 1174.267l-142.323-82.169 142.323-82.175 142.323 82.175z"/><path class="st5" d="M272.244 1338.601l-142.323-82.17v-164.333l142.323 82.169z"/><path class="st4" d="M272.244 1338.601l142.328-82.17v-164.333l-142.328 82.169z"/><path class="st15" d="M272.244 1037.452l-11.379-6.571 11.379-6.569 11.384 6.569zM298.753 1052.756l-11.38-6.57 11.38-6.57 11.383 6.57zM325.266 1068.059l-11.387-6.569 11.387-6.575 11.37 6.575zM351.765 1083.364l-11.378-6.574 11.378-6.57 11.384 6.57zM378.274 1098.664l-11.383-6.566 11.383-6.571 11.382 6.571zM245.736 1052.756l-11.38-6.57 11.38-6.57 11.383 6.57zM272.244 1068.059l-11.379-6.569 11.379-6.575 11.384 6.575zM298.753 1083.364l-11.38-6.574 11.38-6.57 11.383 6.57zM325.266 1098.664l-11.387-6.566 11.387-6.571 11.37 6.571zM351.765 1113.967l-11.378-6.569 11.378-6.571 11.384 6.571zM219.236 1068.059l-11.384-6.569 11.384-6.575 11.382 6.575zM245.736 1083.364l-11.38-6.574 11.38-6.57 11.383 6.57zM272.244 1098.664l-11.379-6.566 11.379-6.571 11.384 6.571zM298.753 1113.967l-11.38-6.569 11.38-6.571 11.383 6.571zM325.266 1129.268l-11.387-6.566 11.387-6.57 11.37 6.57zM192.727 1083.364l-11.382-6.574 11.382-6.57 11.383 6.57zM219.236 1098.664l-11.384-6.566 11.384-6.571 11.382 6.571zM245.736 1113.967l-11.38-6.569 11.38-6.571 11.383 6.571zM272.244 1129.268l-11.379-6.566 11.379-6.57 11.384 6.57zM298.753 1144.579l-11.38-6.574 11.38-6.569 11.383 6.569zM166.218 1098.664l-11.379-6.566 11.379-6.571 11.384 6.571zM192.727 1113.967l-11.382-6.569 11.382-6.571 11.383 6.571zM219.236 1129.268l-11.384-6.566 11.384-6.57 11.382 6.57zM245.736 1144.579l-11.38-6.574 11.38-6.569 11.383 6.569zM272.244 1159.879l-11.379-6.566 11.379-6.574 11.384 6.574zM153.765 1133.383l-11.382-6.571v-13.139l11.382 6.569zM180.266 1148.682l-11.376-6.565v-13.144l11.376 6.573zM206.774 1163.99l-11.38-6.573v-13.137l11.38 6.566zM233.282 1179.295l-11.379-6.574v-13.136l11.379 6.569zM259.791 1194.598l-11.379-6.574v-13.139l11.379 6.57zM153.765 1163.987l-11.382-6.57v-13.137l11.382 6.566zM180.266 1179.29l-11.376-6.569v-13.136l11.376 6.569zM206.774 1194.598l-11.38-6.574v-13.139l11.38 6.57zM233.282 1209.902l-11.379-6.573v-13.136l11.379 6.565zM259.791 1225.206l-11.379-6.57v-13.144l11.379 6.574zM153.765 1194.595l-11.382-6.571v-13.139l11.382 6.57zM180.266 1209.902l-11.376-6.573v-13.136l11.376 6.565zM206.774 1225.206l-11.38-6.57v-13.144l11.38 6.574zM233.282 1240.51l-11.379-6.574V1220.8l11.379 6.569zM259.791 1255.813l-11.379-6.573v-13.14l11.379 6.57zM153.765 1225.202l-11.382-6.566v-13.144l11.382 6.574zM180.266 1240.51l-11.376-6.574V1220.8l11.376 6.569zM206.774 1255.813l-11.38-6.573v-13.14l11.38 6.57zM233.282 1271.122l-11.379-6.578v-13.14l11.379 6.57zM259.791 1286.418l-11.379-6.57v-13.144l11.379 6.574zM153.765 1255.813l-11.382-6.573v-13.14l11.382 6.57zM180.266 1271.122l-11.376-6.578v-13.14l11.376 6.57zM206.774 1286.418l-11.38-6.57v-13.144l11.38 6.574zM233.282 1301.722l-11.379-6.57v-13.144l11.379 6.573zM259.791 1317.025l-11.379-6.569v-13.141l11.379 6.574zM390.732 1133.383l11.379-6.571v-13.139l-11.379 6.569zM364.226 1148.682l11.379-6.565v-13.144l-11.379 6.573zM337.719 1163.99l11.378-6.573v-13.137l-11.378 6.566zM311.21 1179.295l11.379-6.574v-13.136l-11.379 6.569zM284.702 1194.598l11.382-6.574v-13.139l-11.382 6.57zM390.732 1163.987l11.379-6.57v-13.137l-11.379 6.566zM364.226 1179.29l11.379-6.569v-13.136l-11.379 6.569zM337.719 1194.598l11.378-6.574v-13.139l-11.378 6.57zM311.21 1209.902l11.379-6.573v-13.136l-11.379 6.565zM284.702 1225.206l11.382-6.57v-13.144l-11.382 6.574zM390.732 1194.595l11.379-6.571v-13.139l-11.379 6.57zM364.226 1209.902l11.379-6.573v-13.136l-11.379 6.565zM337.719 1225.206l11.378-6.57v-13.144l-11.378 6.574zM311.21 1240.51l11.379-6.574V1220.8l-11.379 6.569zM284.702 1255.813l11.382-6.573v-13.14l-11.382 6.57zM390.732 1225.202l11.379-6.566v-13.144l-11.379 6.574zM364.226 1240.51l11.379-6.574V1220.8l-11.379 6.569zM337.719 1255.813l11.378-6.573v-13.14l-11.378 6.57zM311.21 1271.122l11.379-6.578v-13.14l-11.379 6.57zM284.702 1286.418l11.382-6.57v-13.144l-11.382 6.574zM390.732 1255.813l11.379-6.573v-13.14l-11.379 6.57zM364.226 1271.122l11.379-6.578v-13.14l-11.379 6.57zM337.719 1286.418l11.378-6.57v-13.144l-11.378 6.574zM311.21 1301.722l11.379-6.57v-13.144l-11.379 6.573zM284.702 1317.025l11.382-6.569v-13.141l-11.382 6.574z"/></g><g><linearGradient id="SVGID_6_" gradientUnits="userSpaceOnUse" x1="298.755" y1="946.829" x2="414.567" y2="946.829" gradientTransform="matrix(1 0 0 -1 0 2019.89)"><stop offset="0" stop-color="#cfd5f1"/><stop offset=".283" stop-color="#e1e5f6"/><stop offset=".719" stop-color="#f7f8fd"/><stop offset="1" stop-color="#fff"/></linearGradient><path class="st17" d="M322.127 1038.724h-23.372l59.468 34.342-59.468 34.332h89.313l26.499-15.3z"/><path class="st18" d="M298.755 1107.398l59.468-34.332v-69.716l-59.468 34.32z"/><path class="st9" d="M298.755 1107.398l-59.47-34.332v-69.716l59.47 34.32z"/><path class="st10" d="M298.755 1037.67l-59.47-34.32 59.47-34.325 59.468 34.325z"/></g></g><g id="Coding_symbol"><path class="st2" d="M825.189 719.706c0-19.368-13.726-43.131-30.498-52.818L591.53 549.598c-16.772-9.674-30.491-1.758-30.491 17.611v193.828c0 19.376 13.719 43.138 30.491 52.819l203.161 117.29c16.772 9.688 30.498 1.77 30.498-17.591V719.706z"/><linearGradient id="SVGID_7_" gradientUnits="userSpaceOnUse" x1="1264.337" y1="1510.526" x2="1492.891" y2="1114.659" gradientTransform="matrix(1 0 0 -1 -628.294 2019.89)"><stop offset=".455" stop-color="#fc780b"/><stop offset=".543" stop-color="#f66610"/><stop offset=".635" stop-color="#ef4e16"/></linearGradient><path class="st19" d="M825.189 913.556v-193.85c0-19.368-13.726-43.131-30.498-52.818L591.53 549.598c-8.285-4.776-15.819-5.253-21.326-2.187l7.983-4.644.02.027c5.575-3.569 13.411-3.314 22.1 1.705l203.161 117.289c16.772 9.68 30.492 33.449 30.492 52.818v193.828c0 10.145-3.784 17.102-9.761 20.073l-7.24 4.228c5.083-3.361 8.23-9.948 8.23-19.179z"/><path class="st5" d="M622.526 709.128V693.17c2.802 1.441 4.914 2.17 6.334 2.193 1.419.022 2.648-.608 3.685-1.894s1.747-3.236 2.131-5.852c.307-1.951.461-5.562.461-10.839 0-8.599.345-14.396 1.037-17.389.691-2.993 1.938-4.998 3.743-6.018 1.803-1.021 4.433-1.131 7.89-.333 2.341.554 6.027 2.283 11.057 5.188l3.052 1.761v15.892c-4.262-2.46-6.998-3.761-8.207-3.906-1.209-.141-2.101.183-2.677.981-.576.799-.865 2.572-.865 5.32 0 2.792-.173 7.99-.518 15.593-.193 4.277-.692 7.546-1.496 9.808-.807 2.261-1.834 3.917-3.082 4.969-1.248 1.053-3.159 1.79-5.729 2.212 2.265 2.814 4.117 5.647 5.556 8.495s2.543 5.935 3.311 9.259c.769 3.326 1.267 7.469 1.497 12.435.267 7.514.403 12.289.403 14.329 0 2.926.308 5.142.921 6.649.614 1.508 1.545 2.92 2.793 4.24 1.247 1.318 3.945 3.175 8.091 5.569v15.96l-3.052-1.761c-5.183-2.993-9.156-5.764-11.921-8.313a36.765 36.765 0 0 1-6.997-8.794c-1.901-3.315-3.178-6.788-3.829-10.423-.653-3.636-.978-8.955-.978-15.958 0-8.156-.307-13.631-.923-16.424-.845-4.033-2.121-7.308-3.828-9.824-1.709-2.519-4.329-4.905-7.86-7.167zM755.322 785.799c-2.803-1.441-4.915-2.173-6.334-2.194-1.422-.022-2.641.615-3.658 1.911-1.016 1.299-1.736 3.243-2.159 5.835-.307 1.95-.461 5.542-.461 10.772 0 8.6-.335 14.412-1.007 17.439-.673 3.024-1.911 5.047-3.715 6.068-1.806 1.018-4.454 1.119-7.947.299-2.342-.554-6.028-2.283-11.057-5.187l-3.052-1.763v-15.958c4.107 2.371 6.795 3.623 8.062 3.757 1.267.133 2.198-.194 2.793-.98.595-.788.901-2.528.921-5.22.019-2.694.182-7.764.49-15.211.192-4.499.71-7.891 1.555-10.174.843-2.282 1.967-3.984 3.368-5.103 1.402-1.12 3.197-1.778 5.384-1.978-2.842-3.769-4.913-7.048-6.218-9.842-1.805-3.968-3.033-8.401-3.686-13.299-.423-3.346-.73-10.351-.921-21.011-.039-3.347-.299-5.714-.778-7.098-.48-1.385-1.345-2.738-2.591-4.056-1.248-1.319-4.041-3.23-8.38-5.736v-15.893l3.052 1.763c5.184 2.993 9.156 5.751 11.921 8.278a35.491 35.491 0 0 1 6.968 8.778c1.881 3.326 3.158 6.81 3.831 10.457.671 3.647 1.007 8.971 1.007 15.975 0 8.112.289 13.576.863 16.391.845 4.034 2.131 7.315 3.858 9.842 1.728 2.527 4.358 4.921 7.89 7.182l.001 15.956zM663.64 723.361c0-4.186 2.938-5.882 6.562-3.789 3.624 2.092 6.564 7.182 6.564 11.368 0 4.185-2.939 5.882-6.564 3.789-3.624-2.094-6.562-7.184-6.562-11.368zM686.55 736.587c0-4.186 2.938-5.882 6.564-3.789 3.624 2.092 6.564 7.182 6.564 11.368 0 4.185-2.939 5.882-6.564 3.789-3.626-2.092-6.564-7.182-6.564-11.368z"/><path class="st5" d="M709.461 749.813c0-4.186 2.938-5.882 6.563-3.789 3.626 2.092 6.564 7.182 6.564 11.368 0 4.185-2.938 5.882-6.564 3.788-3.625-2.091-6.563-7.18-6.563-11.367z"/></g><g id="Shadow_from_laptop"><linearGradient id="SVGID_8_" gradientUnits="userSpaceOnUse" x1="794.064" y1="894.456" x2="2160.962" y2="894.456" gradientTransform="matrix(1 0 0 -1 0 2019.89)"><stop offset="0" stop-color="#c4c9e4"/><stop offset=".236" stop-color="#cacee7"/><stop offset=".541" stop-color="#daddee"/><stop offset=".881" stop-color="#f4f5fa" stop-opacity=".5"/><stop offset="1" stop-color="#fff" stop-opacity="0"/></linearGradient><path class="st20" d="M2160.961 827.766l-34.406-19.868c-10.261-5.924-35.433-10.766-55.954-10.766h-818.569c-20.516 0-450.277 268.869-450.277 268.869-10.255 5.931-10.255 15.613 0 21.544l626.574 361.751c5.16 2.979 11.971 4.452 18.769 4.441h16.294l441.109-254.677 18.209-10.512h238.252l-.001-360.782z"/></g><g id="Laptop"><path class="st12" d="M1879.578 1158.297c0 11.849-8.396 16.69-18.655 10.772l-626.572-361.751c-10.266-5.925-18.654-20.46-18.654-32.303V302.41c0-11.847 8.388-16.69 18.654-10.769l626.572 361.751c10.258 5.925 18.655 20.463 18.655 32.31v472.595z"/><linearGradient id="SVGID_9_" gradientUnits="userSpaceOnUse" x1="1391.715" y1="1827.988" x2="1935.99" y2="885.276" gradientTransform="matrix(1 0 0 -1 0 2019.89)"><stop offset=".576" stop-color="#807cfb"/><stop offset=".612" stop-color="#1f196f"/></linearGradient><path class="st21" d="M1875.004 645.263l-626.577-361.752c-5.198-2.998-9.903-3.228-13.297-1.193v-.011l-13.4 7.773.037.006c3.324-1.609 7.736-1.241 12.586 1.556l626.572 361.751c10.258 5.925 18.655 20.463 18.655 32.31v472.595c0 5.88-2.073 10.032-5.408 12.002v.006l13.39-7.77-.037-.005c3.753-1.777 6.134-6.072 6.134-12.357V677.57c-.003-11.844-8.4-26.382-18.655-32.307z"/><path class="st2" d="M1234.351 313.178v465.188l626.572 361.751V674.929z"/><g><path class="st22" d="M1436.037 1422.562c-10.255 5.925-27.044 5.925-37.303 0L772.157 1060.81c-10.253-5.919-10.253-15.613 0-21.538l427.083-246.575c10.253-5.919 27.042-5.919 37.303 0l626.578 361.758c10.258 5.919 10.258 15.607 0 21.532l-427.084 246.575z"/><path class="st15" d="M1237.202 844l-30.643-17.69 15.319-8.848 30.642 17.69zM1288.808 873.798l-30.644-17.695 15.319-8.848 30.645 17.696zM1340.415 903.591l-30.639-17.695 15.32-8.842 30.644 17.694zM1392.019 933.389l-30.636-17.69 15.325-8.847 30.637 17.69zM1443.631 963.182l-30.641-17.689 15.325-8.842 30.642 17.689zM1495.245 992.986l-30.642-17.695 15.316-8.847 30.651 17.689zM1546.851 1022.784l-30.635-17.695 15.322-8.847 30.633 17.689zM1598.465 1052.572l-30.646-17.684 15.326-8.853 30.639 17.695zM1650.071 1082.37l-30.639-17.683 15.319-8.854 30.646 17.696zM1701.681 1112.169l-30.642-17.695 15.326-8.842 30.642 17.689zM1753.293 1141.967l-30.641-17.695 15.319-8.842 30.645 17.69zM1804.907 1171.766l-30.651-17.695 15.325-8.848 30.645 17.695zM1210.038 887.911l-55.091-31.808 30.641-17.69 55.089 31.808zM1181.537 928.576l-76.056-43.915 30.648-17.69 76.053 43.915zM1150.893 970.478l-97.022-56.02 30.642-17.688 97.015 56.018zM1046.51 982.322l-55.091-31.802 41.484-23.953 55.091 31.802zM1122.567 1026.237l-55.092-31.806 41.482-23.953 55.096 31.807zM1198.625 1070.148l-55.09-31.802 41.486-23.957 55.088 31.812zM1460.865 1221.561l-55.087-31.819 41.482-23.946 55.1 31.807zM1589.764 1295.976l-108.053-62.391 41.484-23.947 108.055 62.385zM1384.935 1177.718l-165.339-95.466 41.481-23.947 165.348 95.46zM1276.092 926.048l-45.086-26.028 30.636-17.696 45.09 26.029zM1247.592 966.709l-45.093-26.03 30.645-17.695 45.087 26.029zM1218.357 1007.798l-45.084-26.03 30.646-17.689 45.086 26.03zM1284.413 1045.931l-45.088-26.03 30.642-17.694 45.088 26.034zM1350.456 1084.063l-45.081-26.029 30.642-17.684 45.087 26.029zM1416.517 1122.207l-45.088-26.029 30.64-17.701 45.084 26.035zM1482.565 1160.339l-45.081-26.034 30.639-17.69 45.082 26.035zM1548.615 1198.472l-45.082-26.03 30.64-17.699 45.087 26.033zM1653.632 1259.101l-84.049-48.526 30.639-17.69 84.049 48.527zM1313.644 1004.842l-45.084-26.024 30.645-17.696 45.08 26.03zM1379.696 1042.979l-45.087-26.034 30.645-17.69 45.087 26.035zM1445.739 1081.117l-45.082-26.029 30.646-17.7 45.086 26.034zM1511.797 1119.25l-45.086-26.029 30.646-17.696 45.082 26.03zM1577.852 1157.389l-45.093-26.035 30.651-17.696 45.087 26.035zM1703.825 1230.121l-105.01-60.635 30.644-17.689 105.017 60.629zM1342.138 964.181l-45.084-26.03 30.646-17.688 45.081 26.028zM1408.194 1002.314l-45.087-26.03 30.641-17.69 45.088 26.024zM1474.24 1040.447l-45.078-26.03 30.636-17.679 45.087 26.024zM1540.292 1078.589l-45.087-26.034 30.642-17.695 45.087 26.035zM1606.348 1116.717l-45.088-26.03 30.639-17.683 45.093 26.023zM1672.396 1154.855l-45.082-26.029 30.64-17.69 45.087 26.029zM1753.293 1201.558l-59.926-34.6 30.641-17.689 59.924 34.601z"/><path class="st23" d="M1782.525 1125.09l-495.131-285.863 14.878-8.589 495.124 285.87z"/><path class="st15" d="M1384.926 1214.655l-252.657-145.878-157.003 90.648 252.659 145.872z"/><linearGradient id="SVGID_10_" gradientUnits="userSpaceOnUse" x1="764.465" y1="775.794" x2="1870.801" y2="775.794" gradientTransform="matrix(1 0 0 -1 0 2019.89)"><stop offset=".562" stop-color="#5652cc"/><stop offset=".612" stop-color="#1f196f"/></linearGradient><path class="st24" d="M1863.121 1175.987l-427.085 246.575c-8.145 4.706-20.395 5.66-30.245 2.895-.07-.023-6.119-2.353-7.059-2.895L772.157 1060.81a22.8 22.8 0 0 1-1.98-1.292 1.064 1.064 0 0 0-.092-.074c-.167-.125-.308-.248-.462-.372a16.88 16.88 0 0 1-1.035-.869c-.166-.146-.322-.304-.477-.457a14.243 14.243 0 0 1-1.072-1.169c-.046-.05-.09-.101-.13-.147a13.174 13.174 0 0 1-1.043-1.541c-.841-1.451-1.304-2.957-1.365-4.474h-.035v9.028h.07c-.057 3.939 2.449 7.888 7.623 10.879l626.578 361.751c14.953 7.415 36.31 5.97 42.672 4.576 6.356-1.394 12.07-2.985 18.736-4.44l402.979-232.654c5.188-2.996 7.744-6.951 7.677-10.907v-23.315c-.046 3.865-2.608 7.719-7.68 10.654z"/></g></g><g id="Shapes_on_screen"><path class="st9" d="M1830.459 683.44l-115.371-66.609-450.276-259.966c-7.114-4.104-12.933-.745-12.933 7.469v44.712c0 8.218 5.819 18.297 12.933 22.403l450.276 259.966 115.371 66.61c7.114 4.109 12.936.751 12.936-7.462v-44.721c.001-8.214-5.822-18.294-12.936-22.402z"/><path class="st2" d="M1335.417 409.396l438.809 253.346v51.842l-438.809-253.346z"/><path class="st8" d="M1786.603 677.677v5.828l41.22 23.799v-5.829l-41.22-23.798zm0 19.915l41.22 23.799v-5.828l-41.22-23.799v5.828zm0 14.086l41.22 23.799v-5.829l-41.22-23.799v5.829z"/><path class="st2" d="M1294.233 390.426l11.896 6.868c-3.837-5.537-8.605-10.258-13.77-13.241-12.689-7.327-22.978-1.387-22.978 13.265 0 3.769.685 7.749 1.913 11.706l1.589-5.931 21.35-12.667zm12.258 7.405l-3.156 11.782c-.519 1.938-2.056 3.11-4.005 3.054l-7.452-.212 14.414 8.322-2.272 8.478-5.151-2.974-1.591 5.936-9.559-5.519 1.59-5.936-17.468-10.086c3.784 10.84 11.548 21.261 20.518 26.44 12.691 7.327 22.978 1.387 22.978-13.265 0-8.498-3.464-18.056-8.846-26.02zm-21.647 10.564l7.034 4.061 2.704-10.093-9.738 6.032z"/><path class="st15" d="M1462.626 887.784l-204.462-118.047V468.774l204.462 118.046zM1835.603 940.04l-354.641-204.75V597.406l354.641 204.752zM1835.603 1101.631L1480.962 896.88V754.471l354.641 204.751z"/><path class="st2" d="M1375.352 684.026l-12.455-7.192v-14.383l-5.004-2.889v14.382l-12.457-7.19v5.778l12.457 7.191v14.383l5.004 2.889v-14.383l12.455 7.192z"/><path class="st14" d="M1567.819 721.585l-59.044-34.09V675.94l59.044 34.088zM1755.009 829.659l-161.303-93.129v-11.556l161.303 93.129zM1542.396 851.174l-33.621-19.41v-11.557l33.621 19.411zM1755.009 973.927L1568.281 866.12v-11.557l186.728 107.808zM1584.022 914.94l-75.247-43.443V859.94l75.247 43.443zM1755.009 1013.659l-145.101-83.774v-11.556l145.101 83.774z"/><path class="st23" d="M1415.508 473.926l-4.05-2.339 6.425 25.163 4.47 2.582 4.4-12.138 4.401 17.219 4.47 2.58 6.427-17.743-4.051-2.34-4.609 13.55-4.609-18.872-4.051-2.339-4.609 13.548-4.614-18.871zm-31.848-18.389l-4.05-2.339 6.425 25.163 4.47 2.58 4.4-12.138 4.4 17.219 4.47 2.58 6.426-17.743-4.05-2.339-4.61 13.55-4.609-18.872-4.051-2.339-4.609 13.551-4.612-18.873zm-31.849-18.387l-4.051-2.339 6.427 25.164 4.469 2.58 4.402-12.137 4.399 17.219 4.469 2.58 6.427-17.742-4.051-2.339-4.608 13.55-4.61-18.873-4.051-2.339-4.609 13.55-4.613-18.874zm88.92 69.492c0 .833.256 1.694.768 2.58.512.887 1.129 1.539 1.851 1.955.721.417 1.333.474 1.833.172s.751-.871.751-1.705c0-.833-.25-1.682-.751-2.55-.5-.867-1.112-1.509-1.833-1.925-.722-.417-1.339-.484-1.851-.202-.512.285-.768.842-.768 1.675z"/></g><g id="Ruller"><path class="st15" d="M1970.187 1295.816l-456.852 270.95h12.427l456.871-263.764z"/><path class="st10" d="M1970.189 1295.819l-74.499-43.012-456.853 263.775 74.494 43.011z"/><path class="st6" d="M1448.591 1510.953l13.233 7.632-1.836 1.074-13.239-7.645zM1488.42 1487.963l13.22 7.641-1.83 1.064-13.231-7.65zM1528.242 1464.966l13.228 7.649-1.84 1.061-13.227-7.644zM1568.059 1441.983l13.231 7.632-1.832 1.072-13.233-7.65zM1607.883 1418.983l13.245 7.649-1.848 1.051-13.241-7.633zM1647.708 1395.996l13.234 7.64-1.833 1.071-13.241-7.656zM1687.529 1373.008l13.234 7.637-1.835 1.053-13.245-7.64zM1727.342 1350.008l13.243 7.643-1.83 1.064-13.248-7.64zM1767.162 1327.019l13.252 7.643-1.846 1.061-13.235-7.641zM1807 1304.028l13.234 7.64-1.842 1.061-13.229-7.633zM1846.818 1281.035l13.24 7.643-1.84 1.061-13.243-7.643zM1884.805 1259.104l13.231 7.646 1.838-1.063-13.228-7.645z"/><path class="st9" d="M1643.734 1434.503l11.762 6.791 109.796-63.392-11.771-6.789zM1513.335 1566.766l-74.499-43.008v-7.18l74.499 43.012z"/><path class="st18" d="M1970.187 1303.009l-456.852 263.757v-7.176l456.852-263.774z"/><g><path class="st6" d="M1454.262 1507.679l6.624 3.82-1.837 1.074-6.627-3.832zM1459.97 1504.384l6.624 3.819-1.837 1.074-6.627-3.832zM1465.678 1501.088l6.624 3.82-1.837 1.073-6.627-3.831zM1471.386 1497.792l6.623 3.821-1.836 1.073-6.627-3.831zM1477.094 1494.497l6.622 3.82-1.835 1.073-6.627-3.831zM1482.802 1491.202l6.623 3.819-1.836 1.074-6.627-3.831z"/></g><g><path class="st6" d="M1494.092 1484.683l6.623 3.819-1.836 1.074-6.627-3.831zM1499.799 1481.387l6.624 3.821-1.836 1.072-6.627-3.83zM1505.509 1478.091l6.622 3.821-1.835 1.073-6.628-3.831zM1511.215 1474.797l6.624 3.819-1.835 1.073-6.628-3.831zM1516.923 1471.501l6.624 3.819-1.836 1.074-6.627-3.831zM1522.631 1468.205l6.624 3.821-1.836 1.073-6.627-3.832z"/></g><g><path class="st6" d="M1533.922 1461.686l6.623 3.821-1.835 1.072-6.627-3.831zM1539.63 1458.391l6.623 3.82-1.835 1.073-6.627-3.831zM1545.337 1455.096l6.624 3.819-1.835 1.074-6.628-3.832zM1551.046 1451.8l6.623 3.82-1.835 1.073-6.627-3.831zM1556.754 1448.504l6.623 3.821-1.835 1.073-6.628-3.831zM1562.461 1445.208l6.624 3.821-1.835 1.073-6.627-3.831z"/></g><g><path class="st6" d="M1573.752 1438.691l6.624 3.819-1.836 1.074-6.627-3.832zM1579.46 1435.395l6.624 3.82-1.836 1.073-6.627-3.831zM1585.168 1432.099l6.623 3.82-1.835 1.073-6.628-3.831zM1590.876 1428.803l6.623 3.821-1.835 1.073-6.628-3.831zM1596.584 1425.509l6.623 3.819-1.835 1.074-6.628-3.832zM1602.292 1422.213l6.623 3.82-1.836 1.073-6.627-3.831z"/></g><g><path class="st6" d="M1613.582 1415.694l6.624 3.82-1.836 1.073-6.628-3.832zM1619.29 1412.399l6.624 3.82-1.837 1.073-6.627-3.831zM1624.998 1409.103l6.624 3.82-1.837 1.074-6.627-3.832zM1630.706 1405.808l6.624 3.819-1.837 1.074-6.627-3.832zM1636.414 1402.512l6.624 3.82-1.837 1.073-6.627-3.831zM1642.122 1399.216l6.623 3.821-1.836 1.073-6.627-3.831z"/></g><g><path class="st6" d="M1653.413 1392.698l6.623 3.82-1.836 1.074-6.628-3.832zM1659.121 1389.402l6.622 3.82-1.835 1.074-6.627-3.832zM1664.829 1386.107l6.622 3.82-1.835 1.073-6.628-3.832zM1670.536 1382.811l6.623 3.82-1.835 1.073-6.628-3.83zM1676.244 1379.515l6.623 3.821-1.835 1.073-6.627-3.831zM1681.951 1376.221l6.624 3.819-1.835 1.074-6.628-3.832z"/></g><g><path class="st6" d="M1693.243 1369.701l6.622 3.82-1.835 1.074-6.627-3.832zM1698.95 1366.406l6.623 3.82-1.835 1.073-6.627-3.83zM1704.658 1363.11l6.623 3.821-1.835 1.072-6.627-3.83zM1710.366 1359.815l6.623 3.82-1.835 1.074-6.627-3.832zM1716.074 1356.52l6.624 3.82-1.836 1.073-6.627-3.832zM1721.782 1353.224l6.623 3.82-1.835 1.073-6.627-3.831z"/></g><g><path class="st6" d="M1733.072 1346.705l6.624 3.82-1.836 1.073-6.627-3.83zM1738.78 1343.41l6.624 3.819-1.836 1.073-6.627-3.83zM1744.489 1340.114l6.623 3.82-1.836 1.074-6.627-3.832zM1750.196 1336.819l6.624 3.82-1.836 1.073-6.627-3.832zM1755.904 1333.523l6.624 3.82-1.836 1.073-6.628-3.83zM1761.612 1330.228l6.624 3.82-1.836 1.074-6.628-3.832z"/></g><g><path class="st6" d="M1772.902 1323.709l6.624 3.82-1.835 1.074-6.629-3.832zM1778.61 1320.413l6.624 3.821-1.836 1.073-6.627-3.832zM1784.318 1317.118l6.624 3.82-1.836 1.073-6.628-3.83zM1790.026 1313.822l6.624 3.82-1.837 1.073-6.627-3.83zM1795.734 1310.527l6.624 3.82-1.837 1.074-6.627-3.832zM1801.442 1307.232l6.624 3.82-1.837 1.073-6.627-3.832z"/></g><g><path class="st6" d="M1812.733 1300.713l6.622 3.82-1.834 1.073-6.628-3.832zM1818.441 1297.417l6.622 3.82-1.834 1.073-6.628-3.83zM1824.149 1294.122l6.622 3.82-1.835 1.074-6.627-3.832zM1829.857 1290.826l6.622 3.821-1.835 1.073-6.627-3.832zM1835.563 1287.531l6.624 3.82-1.835 1.073-6.627-3.832zM1841.271 1284.235l6.624 3.82-1.835 1.073-6.627-3.83z"/></g><g><path class="st6" d="M1852.563 1277.716l6.623 3.82-1.836 1.074-6.627-3.831zM1858.271 1274.421l6.623 3.82-1.836 1.074-6.627-3.832zM1863.979 1271.125l6.622 3.821-1.835 1.073-6.627-3.832zM1869.687 1267.83l6.623 3.82-1.836 1.073-6.627-3.83zM1875.394 1264.534l6.624 3.82-1.836 1.073-6.627-3.83zM1881.102 1261.239l6.624 3.821-1.836 1.073-6.627-3.832z"/></g></g><g id="Pencil"><linearGradient id="SVGID_11_" gradientUnits="userSpaceOnUse" x1="1668.855" y1="582.731" x2="2081.632" y2="582.731" gradientTransform="matrix(1 0 0 -1 0 2019.89)"><stop offset="0" stop-color="#dae0f5"/><stop offset=".327" stop-color="#dee3f6"/><stop offset=".66" stop-color="#eaeef9"/><stop offset=".996" stop-color="#fff"/><stop offset="1" stop-color="#fff"/></linearGradient><path class="st25" d="M2066.082 1312.611c-2.783 0-5.287.539-7.711 1.944-1.238.72-5.154 2.969-8.689 5.007l-1.618-.938c-.799-.467-1.792-.407-2.577.012-.206.1-30.524 17.612-30.524 17.612-.367.207-.753.46-1.025.839l-1.438 2.051-318.205 194.456-18.146 28.113 47.451-14.862 303.562-175.265c.799.459 1.798.399 2.59-.027.154-.073 30.531-17.619 30.531-17.619.352-.214.719-.452.985-.819l2.192-3.123 11.374-6.566c4.746-3.051 7.897-8.23 7.897-14.183-.002-9.187-7.454-16.632-16.649-16.632z"/><linearGradient id="SVGID_12_" gradientUnits="userSpaceOnUse" x1="2032.384" y1="710.898" x2="2049.552" y2="682.397" gradientTransform="matrix(1 0 0 -1 0 2019.89)"><stop offset="0" stop-color="#6b67e9"/><stop offset="1" stop-color="#362e93"/></linearGradient><path class="st26" d="M2039.227 1306.845c-2.79 0-5.287.546-7.711 1.938-1.512.872-6.951 4.016-10.873 6.279.965.293 1.964.705 3.003 1.306 7.425 4.295 13.437 14.709 13.437 23.279 0 1.877-.347 3.463-.879 4.808l11.766-6.792c4.761-3.051 7.897-8.23 7.897-14.183 0-9.191-7.457-16.635-16.64-16.635z"/><linearGradient id="SVGID_13_" gradientUnits="userSpaceOnUse" x1="1688.602" y1="477.212" x2="1672.467" y2="505.519" gradientTransform="matrix(1 0 0 -1 0 2019.89)"><stop offset="0" stop-color="#bbc0e6"/><stop offset="1" stop-color="#f6f6fb"/></linearGradient><path class="st27" d="M1663.869 1534.968c2.403 1.385 4.349 4.768 4.349 7.539 0 1.678-.733 2.743-1.825 3.009l30.338-4.434 6.492-9.229-6.492-16.714-12.958-7.485-23.319 27.302c.798-.72 2.024-.788 3.415.012z"/><linearGradient id="SVGID_14_" gradientUnits="userSpaceOnUse" x1="1661.567" y1="472.398" x2="1654.773" y2="481.174" gradientTransform="matrix(1 0 0 -1 0 2019.89)"><stop offset="0" stop-color="#362e93"/><stop offset="1" stop-color="#807cfb"/></linearGradient><path class="st28" d="M1663.869 1534.968c-1.392-.8-2.617-.732-3.416-.013l-.36.413-10.8 12.651 16.786-2.465.313-.04c1.092-.266 1.825-1.331 1.825-3.009.001-2.77-1.944-6.152-4.348-7.537z"/><path class="st5" d="M1989.718 1359.709c-1.144-.66-2.47-2.205-2.949-3.429l-5.261-13.564c-.479-1.224-.24-3.123.519-4.188l5.054-7.204c.759-1.078 2.318-1.425 3.456-.772l10.573 6.099c1.145.666 2.465 2.211 2.937 3.443l5.261 13.557c.479 1.232.253 3.123-.514 4.202l-5.047 7.198c-.76 1.079-2.317 1.418-3.456.767l-10.573-6.109z"/><path class="st9" d="M2008.383 1355.667l-305.16 176.185-6.492-16.714 305.166-176.178z"/><path class="st18" d="M2001.897 1364.896l-305.166 176.184 6.492-9.228 305.16-176.185z"/><path class="st10" d="M2001.897 1338.96l-305.166 176.178-12.959-7.485 305.161-176.184z"/><linearGradient id="SVGID_15_" gradientUnits="userSpaceOnUse" x1="2023.676" y1="667.843" x2="2004.837" y2="699.518" gradientTransform="matrix(1 0 0 -1 0 2019.89)"><stop offset=".074" stop-color="#a3a9d0"/><stop offset=".137" stop-color="#ced3f8"/><stop offset=".559" stop-color="#ced3f8"/><stop offset=".69" stop-color="#f6f6fb"/></linearGradient><path class="st29" d="M2039.973 1335.944l-5.254-13.551c-.479-1.232-1.797-2.777-2.949-3.443l-10.561-6.099c-.807-.452-1.791-.4-2.577.027-.206.094-30.524 17.606-30.524 17.606.799-.325 1.691-.345 2.431.067l10.573 6.099c1.145.666 2.465 2.211 2.937 3.443l5.261 13.557c.479 1.232.253 3.123-.514 4.202l-5.047 7.198a2.767 2.767 0 0 1-.7.666l30.385-17.539c.353-.221.719-.459.972-.832l5.061-7.192c.752-1.086.986-2.977.506-4.209z"/><linearGradient id="SVGID_16_" gradientUnits="userSpaceOnUse" x1="2013.556" y1="660.651" x2="1990.137" y2="690.404" gradientTransform="matrix(1 0 0 -1 0 2019.89)"><stop offset=".559" stop-color="#d1d7f3"/><stop offset=".69" stop-color="#f1f1f6"/></linearGradient><path class="st30" d="M2007.484 1363.152c.266-.174.506-.393.693-.666l5.054-7.192c.759-1.078.992-2.969.506-4.202l-5.253-13.551c-.472-1.238-1.798-2.783-2.943-3.443l-10.568-6.092c-.752-.433-1.644-.4-2.397-.055-.047-.027-2.211 1.224-2.211 1.224.786-.319 1.691-.346 2.43.08l10.575 6.094c1.139.66 2.464 2.211 2.943 3.443l5.255 13.557c.48 1.231.246 3.116-.506 4.195l-5.061 7.204a2.656 2.656 0 0 1-.692.666l2.175-1.262z"/><linearGradient id="SVGID_17_" gradientUnits="userSpaceOnUse" x1="2018.133" y1="663.297" x2="1994.715" y2="693.05" gradientTransform="matrix(1 0 0 -1 0 2019.89)"><stop offset=".559" stop-color="#d1d7f3"/><stop offset=".69" stop-color="#f1f1f6"/></linearGradient><path class="st31" d="M2012.059 1360.502c.266-.161.506-.387.706-.666l5.041-7.191c.766-1.078.999-2.963.512-4.195l-5.253-13.564c-.479-1.224-1.805-2.777-2.944-3.436l-10.567-6.092c-.745-.426-1.638-.4-2.403-.052-.033-.027-2.211 1.231-2.211 1.231.792-.319 1.698-.352 2.431.073l10.574 6.099c1.145.66 2.47 2.21 2.95 3.436l5.261 13.557c.479 1.232.246 3.123-.52 4.208l-5.054 7.192a2.372 2.372 0 0 1-.699.665l2.176-1.265z"/><linearGradient id="SVGID_18_" gradientUnits="userSpaceOnUse" x1="2022.72" y1="665.942" x2="1999.299" y2="695.697" gradientTransform="matrix(1 0 0 -1 0 2019.89)"><stop offset=".559" stop-color="#d1d7f3"/><stop offset=".69" stop-color="#f1f1f6"/></linearGradient><path class="st32" d="M2016.64 1357.865c.273-.173.513-.4.699-.666l5.061-7.192c.759-1.091.985-2.969.513-4.208l-5.26-13.557c-.479-1.224-1.811-2.77-2.949-3.436l-10.567-6.099c-.745-.426-1.638-.4-2.397-.053-.033-.019-2.217 1.239-2.217 1.239.799-.319 1.705-.352 2.443.073l10.561 6.106c1.144.653 2.477 2.198 2.949 3.423l5.26 13.571c.48 1.225.246 3.116-.512 4.195l-5.054 7.199a2.556 2.556 0 0 1-.7.66l2.17-1.255z"/></g><g id="Frame"><linearGradient id="SVGID_19_" gradientUnits="userSpaceOnUse" x1="3397.295" y1="792.635" x2="2932.245" y2="935.628" gradientTransform="rotate(180 2023.512 1009.945)"><stop offset="0" stop-color="#5652cc"/><stop offset="1" stop-color="#807dfb"/></linearGradient><path class="st33" d="M1108.582 1112.76c0-17.005-12.05-37.873-26.776-46.377L677.839 833.154c-14.726-8.501-26.776-1.545-26.776 15.459v351.637c0 17.005 12.05 37.873 26.776 46.377l403.966 233.23c14.726 8.502 26.776 1.545 26.776-15.458V1112.76z"/><linearGradient id="SVGID_20_" gradientUnits="userSpaceOnUse" x1="2881.394" y1="575.721" x2="3273.433" y2="1254.752" gradientTransform="rotate(180 2023.512 1009.945)"><stop offset=".396" stop-color="#20196f"/><stop offset=".479" stop-color="#362e94"/></linearGradient><path class="st34" d="M1108.582 1464.398V1112.76c0-17.005-12.05-37.873-26.776-46.377L677.839 833.155c-7.277-4.202-13.893-4.615-18.732-1.921l7.551-4.359.018.028c4.889-3.138 11.778-2.909 19.405 1.493l403.968 233.229c14.726 8.502 26.775 29.372 26.775 46.376v351.638c0 8.898-3.319 15.009-8.575 17.63l-6.887 3.976c4.461-2.953 7.22-8.741 7.22-16.847z"/><path class="st14" d="M806.797 986.971l-7.885-8.538-47.662 98.172 7.885 8.539 47.662-98.173zm6.391 105.589l38.515-18.695-38.515-63.167-5.83 3.949 31.635 51.882-31.635 15.354 5.83 10.677zm-73.192-42.256l5.832-3.943-31.635-51.886 31.635-15.35-5.832-10.683-38.513 18.695 38.513 63.167z"/><g><path class="st12" d="M1067.758 1442.778l-203.975-117.766c-8.324-4.807-15.073-17.7-15.073-28.799v-52.889c0-11.099 6.749-16.201 15.073-11.395l203.975 117.764c8.324 4.807 15.073 17.7 15.073 28.799v52.889c0 11.102-6.749 16.204-15.073 11.397z"/><ellipse transform="rotate(-30 965.702 1337.382)" class="st2" cx="965.746" cy="1337.328" rx="20.876" ry="36.158"/><path class="st23" d="M971.769 1322.652v38.502l-5.526-3.191v-31.735l-.57-.329-5.289 7.343-5.857-3.381 8.812-12.076 8.43 4.867z"/></g><g><path class="st23" d="M929.305 1036.918l-55.573-32.085v-11.847l55.573 32.085z"/><path class="st5" d="M900.522 1081.49l-26.79-15.467v11.847l26.79 15.467z"/><path class="st18" d="M1082.831 1125.555l-144.121-83.208v-11.846l144.121 83.208z"/><path class="st35" d="M1047.917 1129.415l-144.121-83.208v-11.847l144.121 83.208z"/><path class="st23" d="M1025.918 1140.731l-133.376-77.005v-11.847l133.376 77.005z"/><path class="st18" d="M944.1 1143.5l-70.368-40.626v-11.847l70.368 40.626z"/><path class="st23" d="M1082.831 1223.597l-129.327-74.667v-11.847l129.327 74.667z"/><path class="st5" d="M902.565 1147.236l-28.833-16.647v-11.847l28.833 16.647zM1082.831 1251.312l-170.862-98.646v-11.847l170.862 98.646zM929.305 1190.391l-55.573-32.086v-11.847l55.573 32.086z"/><path class="st23" d="M1082.831 1279.027l-144.121-83.208v-11.846l144.121 83.208z"/><path class="st18" d="M1047.917 1287.501l-144.121-83.209v-11.847l144.121 83.208z"/><path class="st23" d="M1070.861 1324.763l-141.556-81.727v-11.846l141.556 81.726z"/></g></g><g id="Man"><linearGradient id="SVGID_21_" gradientUnits="userSpaceOnUse" x1="684.929" y1="537.837" x2="790.935" y2="537.837" gradientTransform="matrix(1 0 0 -1 21.463 2019.89)"><stop offset="0" stop-color="#c6cbe7"/><stop offset=".077" stop-color="#ced2ea"/><stop offset=".398" stop-color="#e9ebf6"/><stop offset=".682" stop-color="#f9fafd"/><stop offset=".899" stop-color="#fff"/></linearGradient><path class="st36" d="M706.391 1472.312h106.007v19.483H706.391z"/><linearGradient id="SVGID_22_" gradientUnits="userSpaceOnUse" x1="670.221" y1="565.972" x2="776.232" y2="565.972" gradientTransform="matrix(1 0 0 -1 -11.626 2019.89)"><stop offset="0" stop-color="#c6cbe7"/><stop offset=".077" stop-color="#ced2ea"/><stop offset=".398" stop-color="#e9ebf6"/><stop offset=".682" stop-color="#f9fafd"/><stop offset=".899" stop-color="#fff"/></linearGradient><path class="st37" d="M658.595 1444.177h106.011v19.483H658.595z"/><linearGradient id="SVGID_23_" gradientUnits="userSpaceOnUse" x1="3079.343" y1="569.702" x2="3118.417" y2="569.702" gradientTransform="rotate(180 1882.64 1009.945)"><stop offset="0" stop-color="#6a6ae2"/><stop offset=".284" stop-color="#5857c7"/><stop offset=".755" stop-color="#3e3c9e"/><stop offset="1" stop-color="#34318f"/></linearGradient><path class="st38" d="M646.865 1457.663c0-15.307 9.701-15.748 9.701-15.748s5.252 0 13.782-3.541c8.421-3.499 20.285-2.147 13.655 10.086a3.142 3.142 0 0 1-.228.452c-.41.651-1.099 1.28-2.15 1.886l-21.194 12.433c-3.231 1.848-13.489-2.419-13.566-5.568z"/><path class="st39" d="M646.921 1456.292c.186 3.144 10.305 7.325 13.513 5.495l21.194-12.431a19.326 19.326 0 0 0 2.987-2.178c-.194.422-.363.826-.608 1.282a3.142 3.142 0 0 1-.228.452c-.41.651-1.099 1.28-2.15 1.886l-21.194 12.433c-3.025 1.728-12.219-1.903-13.431-4.961a3.608 3.608 0 0 1-.097-.621c-.042-.474-.007-.901.014-1.357z"/><path class="st2" d="M650.808 1439.903c2.497 0 11.29 2.235 11.29 2.235s.064 1.217.786 2.277c.089.097.165.196.245.297 1.736 1.207 3.499 3.114-.617 5.698-3.367 2.117-6.11.773-7.41-.526-.524-.985-1.301-2.088-2.387-2.714-1.116-.643-1.805-.934-2.295-.968.005-.066-.021-.209-.021-.209s-.639-6.09.409-6.09z"/><path class="st39" d="M650.651 1290.245c9.583.172 33.536.598 43.114.771-3.567 28.807-10.741 54.973-15.536 82.869-5.142 27.114-10.939 46.165-16.001 68.732-1.851 4.202-10.326 2.612-12.047-1.433-1.339-20.78-2.881-46.097 3.279-70.071-1.03-25.846-3.413-54.775-2.809-80.868z"/><linearGradient id="SVGID_24_" gradientUnits="userSpaceOnUse" x1="3031.029" y1="541.579" x2="3070.105" y2="541.579" gradientTransform="rotate(180 1882.64 1009.945)"><stop offset="0" stop-color="#6a6ae2"/><stop offset=".284" stop-color="#5857c7"/><stop offset=".755" stop-color="#3e3c9e"/><stop offset="1" stop-color="#34318f"/></linearGradient><path class="st40" d="M695.177 1485.786c0-15.306 9.701-15.748 9.701-15.748s5.252 0 13.787-3.541c8.417-3.499 20.285-2.146 13.652 10.086a3.249 3.249 0 0 1-.228.452c-.406.651-1.099 1.28-2.15 1.886l-21.194 12.432c-3.229 1.849-13.492-2.417-13.568-5.567z"/><path class="st39" d="M695.236 1484.415c.182 3.143 10.305 7.325 13.507 5.495l21.194-12.43a19.618 19.618 0 0 0 2.992-2.178c-.198.422-.368.826-.613 1.282a3.249 3.249 0 0 1-.228.452c-.406.651-1.099 1.28-2.15 1.886l-21.194 12.432c-3.021 1.728-12.219-1.903-13.431-4.96a3.131 3.131 0 0 1-.092-.621c-.044-.475-.006-.902.015-1.358z"/><path class="st2" d="M699.123 1468.026c2.494 0 11.29 2.235 11.29 2.235s.059 1.217.782 2.277c.088.098.165.196.244.297 1.737 1.207 3.503 3.114-.613 5.698-3.371 2.117-6.109.773-7.41-.526-.528-.985-1.306-2.088-2.391-2.715-1.115-.642-1.801-.934-2.291-.967.005-.066-.026-.209-.026-.209s-.633-6.09.415-6.09z"/><linearGradient id="SVGID_25_" gradientUnits="userSpaceOnUse" x1="3047.994" y1="634.945" x2="3115.172" y2="634.945" gradientTransform="rotate(180 1882.64 1009.945)"><stop offset="0" stop-color="#3366a3"/><stop offset=".016" stop-color="#4a5abb"/><stop offset=".027" stop-color="#5555c6"/><stop offset="1" stop-color="#1e1c6b"/></linearGradient><path class="st41" d="M681.06 1358.741c-2.624-12.384-32.838-13.922-30.857-62.614 9.482-1.394 57.316 21.037 66.793 19.643 1.187 29.002-1.618 55.989-1.796 84.293-.642 27.591-3.253 47.33-4.559 70.422-1.141 4.449-9.76 4.264-12.118.557-4.715-20.283-10.373-45.012-8.209-69.67-2.823-13.655-6.182-28.133-9.254-42.631z"/><path class="st18" d="M672.069 1201.576c-33.743 22.548-37.765 67.325-19.521 95.742 0 0-3.92-62.963 19.521-95.742z"/><g><linearGradient id="SVGID_26_" gradientUnits="userSpaceOnUse" x1="3045.4" y1="755.5" x2="3115.571" y2="755.5" gradientTransform="rotate(180 1882.64 1009.945)"><stop offset="0" stop-color="#ef4e16"/><stop offset=".291" stop-color="#f15414"/><stop offset=".672" stop-color="#f66410"/><stop offset="1" stop-color="#fc780b"/></linearGradient><path class="st42" d="M670.527 1323.731c20.539 11.526 42.028 11.552 49.355-2.619-2.742-26.382-5.307-47.851-.021-73.137-1.563-13.964-4.711-22.448-2.924-30.596-11.299-1.547-21.029-18.898-27.587-20.232-28.085-5.734-41.728 44.31-39.38 97.664 2.168 14.188 10.446 23.246 20.557 28.92z"/><path class="st43" d="M673.776 1200.329c6.093-4.401 5.189-7.282 4.276-13.273a29.802 29.802 0 0 1-1.834-10.344c0-13.344 8.497-24.874 18.912-24.155 20.987 1.441 17.252 12.483 17.252 25.827 0 12.363-5.607 20.869-14.982 22.303 0 2.03 3.883 6.375 6.439 8.932-10.255 7.99-20.209-1.009-24.16-2.795-4.213-1.905-8.759-3.539-5.903-6.495z"/></g><g><linearGradient id="SVGID_27_" gradientUnits="userSpaceOnUse" x1="3065.368" y1="784.551" x2="2962.645" y2="841.562" gradientTransform="rotate(180 1882.64 1009.945)"><stop offset="0" stop-color="#fc780b"/><stop offset=".357" stop-color="#fb750c"/><stop offset=".624" stop-color="#f86b0e"/><stop offset=".861" stop-color="#f35b12"/><stop offset="1" stop-color="#ef4e16"/></linearGradient><path class="st44" d="M709.987 1218.873c32.395-6.054 53.474-29.945 66.607-53.213l10.974 4.853c-6.676 29.902-29.889 71.184-72.378 78.883-21.492 0-19.802-27.795-5.203-30.523z"/><path class="st43" d="M777.889 1161.741l-.042.121c0-5.428 1.136-8.586 3.228-9.511.452-1.297.926-2.652 1.386-3.942 2.704-7.572 11.18-14.063 12.98-12.262 1.086 1.087-3.223 4.419-5.496 8.023-1.5 2.379-1.513 3.697-1.893 5.679 0 0 10.141.946 10.141 9.376 0 6.85-3.697 4.146-3.697 2.793-2.615 6.94-5.725 2.839-6.929 8.495l-10.974-4.853c-.001-.001.515-1.568 1.296-3.919z"/></g><path class="st39" d="M685.907 1149.179c2.709-1.395 5.146-.674 6.655-1.641 3.583-2.194 6.976-3.592 8.877-2.55.922.505 2.666 2.124 2.666 2.124 1.868 1.865 5.696-2.107 6.613 2.71.271 1.424.33 2.593.316 3.746 8.963 1.152 4.551 9.312-2.653 25.034-.009-2.553-5.429-8.451-5.429 2.89 0 1.219.912 1.457.11 3.076-.803 1.61-5.954 5.679-9.35 9.076-4.741 4.741-7.525.49-15.363 1.344 0-3.358-.866-5.046-2.062-7.149-.752-1.327-5.053-5.547-5.057-12.912 6.082.748-4.734-15.747 14.677-25.748z"/></g><g id="Pie_chart"><path class="st14" d="M1011.938 450.748V582.47l-114.074 65.861c-.001-72.746 51.072-161.209 114.074-197.583z"/><linearGradient id="SVGID_28_" gradientUnits="userSpaceOnUse" x1="2756.925" y1="1605.537" x2="2916.884" y2="1326.633" gradientTransform="rotate(180 1899.113 1009.945)"><stop offset="0" stop-color="#ffad02"/><stop offset=".12" stop-color="#fea204"/><stop offset=".441" stop-color="#fd8b08"/><stop offset=".742" stop-color="#fc7d0a"/><stop offset="1" stop-color="#fc780b"/></linearGradient><path class="st45" d="M990.399 438.313l77.986 45.024-111.752 198.925-80.308-46.364c.001-72.751 51.073-161.21 114.074-197.585z"/><path class="st18" d="M1011.938 450.748V582.47l-114.074 65.861c-.001-72.746 51.072-161.209 114.074-197.583z"/><path class="st13" d="M897.863 648.332l114.074-65.863-101.004 119.528c-8.332-13.486-13.07-31.563-13.07-53.665z"/><path class="st46" d="M1011.938 582.469V450.748c63.003-36.374 114.074-6.887 114.074 65.86 0 72.748-51.072 161.209-114.074 197.583-43.861 25.322-81.917 18.695-101.005-12.195l101.005-119.527z"/><path class="st47" d="M990.399 438.313c31.687-18.295 60.35-19.915 81.021-7.766l20.103 11.606-.016.032c-20.553-11.249-48.612-9.311-79.569 8.562l-21.539-12.434z"/><path class="st48" d="M907.7 708.456c-7.207-4.608-13.39-10.941-18.306-18.894l21.538 12.435c4.916 7.953 11.099 14.286 18.308 18.894l-21.54-12.435z"/><path class="st23" d="M889.394 689.562c-8.331-13.484-13.068-31.564-13.068-53.665l21.538 12.434h-.002c0 22.101 4.74 40.18 13.07 53.665l-21.538-12.434z"/></g><g id="Picture"><linearGradient id="SVGID_29_" gradientUnits="userSpaceOnUse" x1="231.661" y1="605.058" x2="512.976" y2="605.058" gradientTransform="matrix(1 0 0 -1 0 2019.89)"><stop offset="0" stop-color="#c4c9e4"/><stop offset=".254" stop-color="#ced2e8"/><stop offset=".677" stop-color="#e7e9f4"/><stop offset="1" stop-color="#fff"/></linearGradient><path class="st49" d="M505.738 1405.249l-116.822-67.451c-9.643-5.569-25.421-5.569-35.07.002l-114.951 66.367c-9.645 5.569-9.643 14.677-.004 20.248l61.118 35.288v36.338H373.284c6.345-.005 12.687-1.395 17.5-4.174l114.962-66.374c9.643-5.565 9.639-14.677-.008-20.244z"/><path class="st6" d="M321.584 1450.795c-9.646 5.569-25.426 5.565-35.071-.002l-116.822-67.45c-9.64-5.571-9.642-14.679.003-20.248l114.952-66.367c9.649-5.571 25.427-5.571 35.07-.002l116.822 67.451c9.647 5.568 9.65 14.678.009 20.246l-114.963 66.372z"/><path class="st2" d="M304.054 1446.522c-5.111 0-9.965-1.11-13.319-3.046l-116.82-67.45c-2.382-1.378-2.985-2.586-3.006-2.811.021-.216.625-1.425 3.009-2.803l114.951-66.366c3.354-1.936 8.207-3.046 13.314-3.046 5.105 0 9.956 1.11 13.304 3.045l116.824 67.449c2.389 1.378 2.993 2.588 3.014 2.813-.02.217-.625 1.424-3.005 2.799l-114.962 66.375c-3.348 1.931-8.198 3.041-13.304 3.041z"/><linearGradient id="SVGID_30_" gradientUnits="userSpaceOnUse" x1="2899.12" y1="1781.637" x2="3039.76" y2="2025.232" gradientTransform="scale(-1 1) rotate(-60 927.244 4503.237)"><stop offset=".409" stop-color="#bbc0e6"/><stop offset=".413" stop-color="#bcc1e7"/><stop offset=".565" stop-color="#ced3f8"/></linearGradient><path class="st50" d="M162.473 1413.898l.019.002c-.174 3.803 2.205 7.631 7.202 10.516l116.822 67.45c9.643 5.569 25.424 5.566 35.07-.002l114.952-66.367c5.052-2.917 7.428-6.801 7.19-10.633l.004-40.057c-.212 3.499-2.588 6.959-7.185 9.613l-114.962 66.374c-9.645 5.569-25.426 5.565-35.071-.002l-116.822-67.45c-4.761-2.753-7.164-6.368-7.221-9.992l.002 40.548z"/><linearGradient id="SVGID_31_" gradientUnits="userSpaceOnUse" x1="2897.635" y1="1782.494" x2="3038.275" y2="2026.089" gradientTransform="scale(-1 1) rotate(-60 927.244 4503.237)"><stop offset=".409" stop-color="#5652cc"/><stop offset=".496" stop-color="#706ce9"/><stop offset=".565" stop-color="#807dfb"/></linearGradient><path class="st51" d="M162.473 1399.56l.019.002c-.174 3.803 2.205 7.631 7.202 10.515l116.822 67.451c9.643 5.57 25.424 5.568 35.07-.001l114.952-66.367c5.052-2.917 7.428-6.801 7.19-10.633l.004-7.958c-.212 3.499-2.588 6.96-7.185 9.613l-114.962 66.374c-9.645 5.569-25.426 5.565-35.071-.001l-116.822-67.451c-4.761-2.752-7.164-6.368-7.221-9.991l.002 8.447z"/><path class="st52" d="M305.591 1328.303c5.747-3.317 15.059-3.317 20.805 0 5.747 3.316 5.747 8.694 0 12.012-5.745 3.316-15.058 3.316-20.804-.001-5.745-3.316-5.746-8.694-.001-12.011z"/><path class="st15" d="M314.217 1432.151l38.327-62.792c2.653-4.346-4.595-8.53-12.123-6.999l-108.76 22.128 82.556 47.663z"/><path class="st53" d="M262.028 1402.019l26.453-43.337c2.653-4.346-4.595-8.531-12.123-6.999l-75.063 15.272 60.733 35.064z"/></g><g id="Frame_on_the_ground"><linearGradient id="SVGID_32_" gradientUnits="userSpaceOnUse" x1="834.132" y1="376.08" x2="1136.951" y2="376.08" gradientTransform="matrix(1 0 0 -1 0 2019.89)"><stop offset="0" stop-color="#c4c9e4"/><stop offset=".254" stop-color="#ced2e8"/><stop offset=".677" stop-color="#e7e9f4"/><stop offset="1" stop-color="#fff"/></linearGradient><path class="st54" d="M1133.173 1683.837l-216.951-125.256c-5.034-2.907-13.27-2.907-18.307.001l-60.006 34.644c-5.035 2.907-5.034 7.661-.002 10.569l206.243 119.074v8.35h19.376v-.013c3.478.075 6.998-.628 9.64-2.153l60.012-34.648c5.033-2.906 5.031-7.661-.005-10.568z"/><path class="st10" d="M896.852 1547.251c-5.034-2.907-13.27-2.907-18.307.001l-60.006 34.644c-5.035 2.907-5.034 7.661-.001 10.569l67.519 38.983 78.315-45.216-67.52-38.981z"/><path class="st18" d="M880.093 1585.543c-.968-2.734.518-5.817 4.441-8.081 5.958-3.442 15.19-3.682 20.629-.544 5.428 3.135 5.005 8.474-.952 11.911-3.917 2.264-9.249 3.115-13.987 2.557 5.516 6.421 3.642 13.613-2.207 16.986-1.408-.824-18.665-10.782-18.665-10.782l-18.678-10.778c5.843-3.376 18.304-4.458 29.419-1.269z"/><path class="st2" d="M1113.802 1672.507l-149.432-86.273-78.315 45.216 149.431 86.273c5.036 2.906 13.273 2.908 18.308.001l60.012-34.648c5.034-2.906 5.032-7.662-.004-10.569z"/><path class="st18" d="M818.536 1592.466c-2.486-1.437-3.74-3.325-3.769-5.217l.003 11.057.01.001c-.091 1.984 1.151 3.983 3.759 5.488l67.516 38.981v-11.33l-67.519-38.98z"/><linearGradient id="SVGID_33_" gradientUnits="userSpaceOnUse" x1="1964.445" y1="1262.967" x2="2115.847" y2="1525.203" gradientTransform="scale(-1 1) rotate(-60 785.787 4141.332)"><stop offset=".409" stop-color="#bbc0e6"/><stop offset=".413" stop-color="#bcc1e7"/><stop offset=".565" stop-color="#ced3f8"/></linearGradient><path class="st55" d="M1113.807 1683.076l-60.012 34.648c-5.035 2.907-13.272 2.906-18.308-.001l-149.431-86.273v11.33l149.434 86.276c5.034 2.907 13.272 2.906 18.307-.001l60.006-34.644c2.637-1.522 3.877-3.551 3.753-5.55l.001-10.802c-.111 1.825-1.35 3.631-3.75 5.017z"/><linearGradient id="SVGID_34_" gradientUnits="userSpaceOnUse" x1="2384.387" y1="-424.584" x2="2528.715" y2="-174.601" gradientTransform="matrix(-1 -.5774 .866 -.5 3694.81 2991.009)"><stop offset=".409" stop-color="#bbc0e6"/><stop offset=".565" stop-color="#c4cae9"/></linearGradient><path class="st56" d="M942.573 1610.689l119.36 68.912 8.287-4.784-119.36-68.913z"/><linearGradient id="SVGID_35_" gradientUnits="userSpaceOnUse" x1="2489.408" y1="-330.723" x2="2556.126" y2="-215.164" gradientTransform="matrix(-1 -.5774 .866 -.5 3694.81 2991.009)"><stop offset=".409" stop-color="#bbc0e6"/><stop offset=".565" stop-color="#c4cae9"/></linearGradient><path class="st57" d="M921.151 1623.057l46.262 26.709 8.287-4.784-46.262-26.709z"/><linearGradient id="SVGID_36_" gradientUnits="userSpaceOnUse" x1="2483.78" y1="-274.505" x2="2513.711" y2="-222.663" gradientTransform="matrix(-1 -.5774 .866 -.5 3694.81 2991.009)"><stop offset=".409" stop-color="#bbc0e6"/><stop offset=".565" stop-color="#c4cae9"/></linearGradient><path class="st58" d="M976.561 1655.049l11.614 6.705 8.288-4.784-11.616-6.707z"/></g><g id="Gear"><linearGradient id="SVGID_37_" gradientUnits="userSpaceOnUse" x1="453.864" y1="357.121" x2="650.086" y2="357.121" gradientTransform="matrix(1 0 0 -1 0 2019.89)"><stop offset=".332" stop-color="#c4c9e5"/><stop offset=".584" stop-color="#d7dbed"/><stop offset="1" stop-color="#fff"/></linearGradient><path class="st59" d="M628.314 1652.712c-.789-1.366-1.747-2.703-2.853-4.016-3.883-3.857 5.065-10.306 9.105-12.637.076 0-11.777-6.84-11.777-6.84l-34.817.032c-2.33-2.979-2.939-7.019-2.926-9.095l-16.709-.007c-.003 2.724-1.115 8.815-5.725 11.476a9.505 9.505 0 0 1-3.38 1.159 80.814 80.814 0 0 0-6.948 1.67 1.591 1.591 0 0 1-.296-.05 80.938 80.938 0 0 0-6.93-1.667c-7.461-1.125-8.995-9.339-8.977-12.63l-16.71-.003c-.003 2.721-1.111 8.815-5.725 11.476a9.434 9.434 0 0 1-3.377 1.154 79.638 79.638 0 0 0-6.948 1.67c-7.693 1.656-17.771-2.9-21.787-5.234l-11.849 6.84c4.016 2.333 12.889 8.786 8.959 12.634a26.768 26.768 0 0 0-2.892 4.022c-.341.749-1.047 1.395-2.011 1.954-4.61 2.657-15.125 3.285-19.847 3.285l-.028 9.676c5.682-.003 19.86.91 21.768 5.234a26.964 26.964 0 0 0 2.857 4.022c3.886 3.849-5.066 10.299-9.102 12.634l11.769 6.844c.412-.241.914-.509 1.463-.796l-1.38.796 34.8.036c2.276 2.973 2.871 6.966 2.853 9.03l65.66.05c0-.003 16.365-9.092 16.365-9.092l21.496.018c0 .003 11.856-6.837 11.856-6.837-4.026-2.334-12.892-8.787-8.97-12.634a28.333 28.333 0 0 0 1.857-2.435l11.017.014 11.845-6.841c.01 0 .068-9.669.068-9.669-6.096.239-19.863-.912-21.774-5.243z"/><path class="st60" d="M479.625 1618.199c-.011-3.757-6.628-8.486-9.942-10.411l.082 28.221c3.31 1.925 9.931 6.654 9.937 10.411l-.077-28.221z"/><path class="st61" d="M585.681 1636.01l-.082-28.221c-3.348 1.932-10.07 6.701-10.055 10.464l.076 28.221c-.009-3.764 6.713-8.529 10.061-10.464z"/><linearGradient id="SVGID_38_" gradientUnits="userSpaceOnUse" x1="497.898" y1="379.792" x2="557.179" y2="379.792" gradientTransform="matrix(1 0 0 -1 0 2019.89)"><stop offset="0" stop-color="#bbbfe2"/><stop offset="1" stop-color="#dce0f7"/></linearGradient><path class="st62" d="M506.71 1650.625c11.604-6.703 30.334-6.703 41.859-.003 5.725 3.327 8.593 7.679 8.61 12.041l-.086-28.224c-.014-4.356-2.882-8.712-8.604-12.042-11.53-6.696-30.255-6.696-41.862 0-5.833 3.37-8.74 7.79-8.73 12.204l.076 28.221c-.007-4.413 2.908-8.834 8.737-12.197z"/><path class="st63" d="M481.156 1668.088l-11.769-6.84.078 28.221 11.774 6.845z"/><path class="st61" d="M585.383 1689.469l-.082-28.221-11.852 6.84.083 28.226z"/><linearGradient id="SVGID_39_" gradientUnits="userSpaceOnUse" x1="481.157" y1="336.115" x2="518.975" y2="336.115" gradientTransform="matrix(1 0 0 -1 0 2019.89)"><stop offset="0" stop-color="#bbbfe2"/><stop offset="1" stop-color="#ced2f4"/></linearGradient><path class="st64" d="M503.079 1691.079a80.421 80.421 0 0 0 6.934 1.663c7.364 1.108 8.952 9.134 8.962 12.508l-.078-28.221c-.014-3.377-1.602-11.397-8.962-12.504a82.497 82.497 0 0 1-6.934-1.667c-6.636-2.258-17.803 2.896-21.844 5.23l.082 28.226c4.036-2.338 15.207-7.497 21.84-5.235z"/><linearGradient id="SVGID_40_" gradientUnits="userSpaceOnUse" x1="2801.227" y1="-722.723" x2="2819.873" y2="-753.906" gradientTransform="scale(-1 1) rotate(60 -969.102 -2440.72)"><stop offset="0" stop-color="#ced2f4"/><stop offset="1" stop-color="#bbbfe2"/></linearGradient><path class="st65" d="M541.442 1693.889c.947-.548 2.058-.95 3.356-1.143a84.305 84.305 0 0 0 6.937-1.66c6.672-2.27 17.782 2.889 21.797 5.227l-.082-28.226c-4.012-2.334-15.122-7.49-21.793-5.223a85.645 85.645 0 0 1-6.937 1.66c-1.297.194-2.406.595-3.359 1.143-4.549 2.624-5.513 8.626-5.771 11.49l.082 28.218c.256-2.857 1.217-8.861 5.77-11.486z"/><path class="st2" d="M478.489 1648.614c3.886 3.847-5.066 10.299-9.102 12.634l11.769 6.84c4.04-2.334 15.207-7.49 21.844-5.23a82.403 82.403 0 0 0 6.934 1.667c7.454 1.114 8.988 9.335 8.959 12.634h16.695c.258-2.865 1.222-8.866 5.771-11.491.954-.548 2.061-.949 3.359-1.143a86.596 86.596 0 0 0 6.937-1.66c6.672-2.265 17.782 2.889 21.793 5.223l11.852-6.84c-4.016-2.331-12.891-8.786-8.966-12.634 1.122-1.311 2.1-2.656 2.904-4.022.338-.745 1.047-1.395 2.011-1.95 4.603-2.664 15.122-3.287 19.818-3.287l.05-9.672c-6.099.24-19.861-.915-21.768-5.242-.786-1.369-1.746-2.706-2.855-4.016-3.882-3.854 5.063-10.304 9.103-12.637l-11.774-6.84c-4.04 2.331-15.207 7.493-21.84 5.23a82.85 82.85 0 0 0-6.93-1.663c-7.461-1.125-8.995-9.339-8.977-12.63l-16.71-.007c-.003 2.724-1.111 8.82-5.725 11.479a9.552 9.552 0 0 1-3.377 1.154 80.362 80.362 0 0 0-6.948 1.667c-7.693 1.66-17.771-2.9-21.787-5.23l-11.849 6.84c4.016 2.333 12.889 8.783 8.959 12.63a26.747 26.747 0 0 0-2.892 4.026c-.341.745-1.047 1.391-2.011 1.953-4.611 2.657-15.125 3.285-19.847 3.285l-.028 9.672c5.682 0 19.86.91 21.768 5.238a27.24 27.24 0 0 0 2.86 4.022zm28.139-26.216c11.609-6.696 30.332-6.696 41.862 0 11.518 6.696 11.468 17.553-.136 24.252-11.586 6.694-30.334 6.686-41.849-.007-11.528-6.7-11.467-17.549.123-24.245z"/><path class="st63" d="M469.387 1661.248c4.037-2.333 12.988-8.786 9.102-12.634a27.046 27.046 0 0 1-2.857-4.022c-1.908-4.328-16.087-5.238-21.768-5.238l.079 28.221c3.539 0 10.354.355 15.462 1.665l-.018-7.992z"/><path class="st61" d="M535.671 1705.376l-.084-28.217h-16.696l.084 28.221z"/><linearGradient id="SVGID_41_" gradientUnits="userSpaceOnUse" x1="575.356" y1="365.536" x2="601.147" y2="365.536" gradientTransform="matrix(1 0 0 -1 0 2019.89)"><stop offset=".405" stop-color="#bbbfe2"/><stop offset="1" stop-color="#ced2f4"/></linearGradient><path class="st66" d="M601.147 1667.576l-.079-28.221c-4.696 0-15.214.623-19.818 3.287-.964.556-1.675 1.204-2.011 1.95-.802 1.366-1.782 2.711-2.904 4.022-3.925 3.847 4.95 10.303 8.966 12.634l.026 8.106c5.162-1.387 12.202-1.778 15.82-1.778z"/></g></svg>