<svg id="Layer_1" xmlns="http://www.w3.org/2000/svg" xmlns:xlink="http://www.w3.org/1999/xlink" viewBox="0 0 2290.884 2020.845"><style>.st0{fill:url(#SVGID_1_)}.st1{fill:#e8ecf7}.st2{fill:#fff}.st3{fill:url(#SVGID_2_)}.st4{fill:#dae0f5}.st5{fill:url(#SVGID_3_)}.st6{fill:#f1f1f6}.st7{fill:#ced3f8}.st8{fill:#bbc0e6}.st9{fill:#f6f6fb}.st10{fill:url(#SVGID_4_)}.st11{fill:url(#SVGID_5_)}.st12{fill:#c6b4bb}.st13{fill:#d8def3}.st14{fill:#423eaf}.st15{fill:url(#SVGID_6_)}.st16{fill:#d7ddfd}.st17{fill:url(#SVGID_7_)}.st18{fill:url(#SVGID_8_)}.st19{fill:url(#SVGID_9_)}.st20{fill:url(#SVGID_10_)}.st21{fill:url(#SVGID_11_)}.st22{fill:url(#SVGID_12_)}.st23{fill:url(#SVGID_13_)}.st24{fill:url(#SVGID_14_)}.st25{fill:url(#SVGID_15_)}.st26{fill:url(#SVGID_16_)}.st27{fill:url(#SVGID_17_)}.st28{fill:#b9bee4}.st29{fill:#ccd1f6}.st30{fill:#f4f4f9}.st31{fill:url(#SVGID_18_)}.st32{fill:url(#SVGID_19_)}.st33{fill:url(#SVGID_20_)}.st34{fill:#362e94}.st35{fill:#5652cc}.st36{fill:#fc780b}.st37{fill:#807dfb}.st38{fill:#ef4e16}.st39{fill:#6b67e9}.st40{fill:url(#SVGID_21_)}.st41{fill:#f7f7fc}.st42{fill:#d0d4f6}.st43{fill:url(#SVGID_22_)}.st44{fill:url(#SVGID_23_)}.st45{fill:url(#SVGID_24_)}.st46{fill:url(#SVGID_25_)}.st47{fill:#20196f}.st48{fill:url(#SVGID_26_)}.st49{fill:url(#SVGID_27_)}.st50{fill:url(#SVGID_28_)}.st51{fill:url(#SVGID_29_)}.st52{fill:url(#SVGID_30_)}.st53{fill:url(#SVGID_31_)}.st54{fill:url(#SVGID_32_)}.st55{fill:url(#SVGID_33_)}.st56{fill:#fcd1a9}.st57{fill:#dd3b10}.st58{fill:url(#SVGID_34_)}.st59{fill:url(#SVGID_35_)}.st60{fill:url(#SVGID_36_)}.st61{fill:url(#SVGID_37_)}.st62{fill:#bbbfe2}.st63{fill:#ced2f4}.st64{fill:#242d3c}.st65{fill:url(#SVGID_38_)}.st66{fill:url(#SVGID_39_)}.st67{fill:url(#SVGID_40_)}.st68{fill:url(#SVGID_41_)}.st69{fill:url(#SVGID_42_)}.st70{fill:#f0f0f5}.st71{fill:#e0e0eb}.st72{fill:url(#SVGID_43_)}.st73{fill:url(#SVGID_44_)}.st74{fill:url(#SVGID_45_)}.st75{fill:#d1d7f3}</style><g id="Wave_shape"><linearGradient id="SVGID_1_" gradientUnits="userSpaceOnUse" x1="1802.479" y1="326.023" x2="450.559" y2="1393.008" gradientTransform="matrix(1 0 0 -1 0 2019.89)"><stop offset="0" stop-color="#efeff3"/><stop offset=".499" stop-color="#fbfbfc" stop-opacity=".5"/><stop offset="1" stop-color="#fff" stop-opacity="0"/></linearGradient><path class="st0" d="M1660.493 1738.196c786.328-127.169 739.416-941.216 275.716-961.717-1006.77-44.511-763.258-380.682-1069.864-429.906-253.014-40.621-243.275 254.323-363.754 383.411-137.32 147.132-549.813 235.11-498.14 493.212 111.615 557.511 1025.148 617.031 1656.042 515z"/></g><g id="Abstract_shapes"><path class="st1" d="M613.047 794.288l43.057 92.778c2.604 5.609 9.458 7.779 14.812 4.684l117.637-67.917c8.609-4.969 6.168-17.994-3.649-19.511l-160.7-24.863c-8.312-1.292-14.697 7.199-11.157 14.829zM953.454 1743.608c-35.159-20.297-92.163-20.297-127.32 0-35.159 20.301-35.159 53.214 0 73.51 35.159 20.301 92.163 20.301 127.323 0 35.159-20.296 35.156-53.209-.003-73.51zm-97.278 56.165c-18.566-10.721-18.569-28.1 0-38.82 18.566-10.721 48.67-10.721 67.236 0 18.569 10.721 18.569 28.1 0 38.82-18.566 10.721-48.669 10.721-67.236 0zM233.742 948.204c6.199 3.577 16.243 3.577 22.442 0 6.197-3.577 6.197-9.379 0-12.956-6.199-3.577-16.243-3.577-22.442 0-6.196 3.577-6.196 9.378 0 12.956zM288.65 979.904c6.197 3.577 16.243 3.577 22.44 0 6.199-3.577 6.199-9.379 0-12.956-6.197-3.577-16.243-3.577-22.44 0-6.196 3.575-6.196 9.378 0 12.956zM343.558 1011.601c6.197 3.577 16.243 3.577 22.44 0 6.197-3.577 6.197-9.377 0-12.954s-16.243-3.577-22.44 0c-6.199 3.577-6.199 9.377 0 12.954z"/><ellipse class="st1" cx="409.684" cy="1036.822" rx="15.87" ry="9.162"/><path class="st1" d="M178.838 979.904c6.197 3.577 16.244 3.577 22.44 0 6.199-3.577 6.199-9.379 0-12.956-6.195-3.577-16.243-3.577-22.44 0-6.197 3.575-6.197 9.378 0 12.956zM233.742 1011.601c6.199 3.577 16.247 3.577 22.442 0 6.197-3.577 6.197-9.377 0-12.954-6.195-3.577-16.243-3.577-22.442 0-6.196 3.577-6.196 9.377 0 12.954zM288.65 1043.3c6.199 3.577 16.243 3.577 22.443 0 6.197-3.577 6.197-9.379-.003-12.957-6.197-3.577-16.241-3.577-22.44 0-6.196 3.578-6.196 9.38 0 12.957zM365.997 1062.051c-6.197-3.577-16.243-3.585-22.44 0-6.197 3.577-6.197 9.373 0 12.951 6.197 3.577 16.243 3.577 22.44 0 6.197-3.577 6.197-9.373 0-12.951zM123.93 1011.601c6.199 3.577 16.247 3.577 22.442 0s6.195-9.377 0-12.954c-6.199-3.577-16.244-3.577-22.442 0-6.196 3.577-6.196 9.377 0 12.954zM178.838 1043.3c6.197 3.577 16.244 3.577 22.44 0 6.199-3.577 6.199-9.379 0-12.957-6.195-3.577-16.243-3.577-22.44 0-6.197 3.578-6.197 9.38 0 12.957zM233.745 1075.002c6.195 3.577 16.243 3.577 22.44 0 6.197-3.577 6.197-9.373 0-12.951-6.196-3.585-16.243-3.585-22.44 0-6.199 3.578-6.199 9.374 0 12.951zM311.093 1093.748c-6.199-3.577-16.244-3.577-22.443 0-6.197 3.577-6.197 9.38 0 12.958 6.199 3.577 16.243 3.577 22.443 0 6.196-3.579 6.196-9.381 0-12.958zM69.025 1043.3c6.197 3.577 16.243 3.577 22.441 0 6.196-3.577 6.196-9.379 0-12.957-6.197-3.577-16.244-3.577-22.441 0s-6.196 9.38 0 12.957zM123.933 1075.002c6.196 3.577 16.243 3.577 22.44 0 6.196-3.577 6.196-9.373 0-12.96-6.197-3.577-16.244-3.577-22.44 0-6.199 3.587-6.199 9.383 0 12.96zM178.838 1106.704c6.197 3.577 16.244 3.577 22.44 0 6.199-3.583 6.199-9.38 0-12.958-6.195-3.577-16.243-3.577-22.44 0-6.197 3.579-6.197 9.375 0 12.958zM256.185 1125.446c-6.196-3.577-16.243-3.577-22.44 0s-6.197 9.381 0 12.959c6.195 3.577 16.243 3.577 22.44 0 6.197-3.576 6.197-9.381 0-12.959zM36.56 1062.042c-6.199-3.577-16.244-3.577-22.442 0-6.196 3.585-6.196 9.383 0 12.96 6.199 3.577 16.243 3.577 22.442 0 6.196-3.577 6.196-9.373 0-12.96zM91.465 1093.748c-6.197-3.577-16.244-3.577-22.441 0s-6.197 9.375 0 12.958c6.197 3.577 16.243 3.577 22.441 0 6.199-3.585 6.199-9.381 0-12.958zM146.373 1125.446c-6.197-3.577-16.244-3.577-22.44 0-6.199 3.577-6.199 9.381 0 12.959 6.196 3.577 16.243 3.577 22.44 0 6.196-3.576 6.196-9.381 0-12.959zM201.277 1157.146c-6.195-3.577-16.243-3.577-22.44 0-6.197 3.577-6.197 9.379 0 12.957 6.199 3.577 16.244 3.577 22.443 0 6.196-3.578 6.196-9.379-.003-12.957z"/><g><path class="st2" d="M2273.11 1054.345c-6.199-3.578-16.244-3.578-22.442 0-6.193 3.581-6.193 9.377 0 12.956 6.199 3.578 16.247 3.578 22.442 0 6.195-3.577 6.195-9.377 0-12.956zM2218.202 1086.047c-6.195-3.578-16.244-3.578-22.44 0-6.196 3.577-6.196 9.377 0 12.956 6.195 3.577 16.244 3.577 22.44 0 6.199-3.579 6.199-9.379 0-12.956zM2163.296 1117.746c-6.197-3.578-16.243-3.578-22.44 0-6.199 3.577-6.199 9.38 0 12.958 6.197 3.577 16.244 3.577 22.44 0 6.197-3.578 6.197-9.381 0-12.958zM2108.392 1149.442c-6.199-3.578-16.247-3.578-22.442 0-6.197 3.581-6.197 9.381 0 12.959 6.199 3.577 16.243 3.577 22.442 0 6.193-3.578 6.193-9.378 0-12.959zM2053.484 1181.145c-6.199-3.577-16.243-3.577-22.442 0-6.193 3.577-6.193 9.378 0 12.959 6.199 3.577 16.243 3.577 22.442 0 6.197-3.581 6.197-9.381 0-12.959z"/></g><path class="st1" d="M2236.47 1324.01l49.335 28.482c7.523 4.343 6.579 11.929-2.107 16.943l-45.12 26.054c-8.683 5.014-21.825 5.557-29.346 1.216l-49.335-28.482c-7.523-4.343-6.579-11.929 2.107-16.945l45.12-26.05c8.687-5.016 21.825-5.561 29.346-1.218z"/></g><g id="Objects"><g id="Shadow_from_screen"><linearGradient id="SVGID_2_" gradientUnits="userSpaceOnUse" x1="1238.987" y1="968.989" x2="2060.736" y2="968.989" gradientTransform="matrix(1 0 0 -1 0 2019.89)"><stop offset="0" stop-color="#c2c8e6"/><stop offset=".633" stop-color="#eceef7" stop-opacity=".5"/><stop offset="1" stop-color="#fff" stop-opacity="0"/></linearGradient><path class="st3" d="M1574.568 1202.298h486.168v-381.59l-443.802-.868-367.22 335.318c-14.304 8.256-14.304 21.78 0 30.035 0 0 152.571 88.034 153.269 88.386l-23.289 8.381h37.402c14.391 0 26.402-3.993 35.868-9.46l121.604-70.202z"/></g><path class="st4" d="M488.144 1599.088l-3.429-4.584c.979-.733 99.139-73.375 208.841-86.488 164.565-19.669 199.399-27.662 199.399-137.543 0-46.728 8.007-74.884 25.961-91.291 27.847-25.447 80.539-22.787 157.747-15.822 56.998 5.143 94.921-.736 115.938-17.965 18.596-15.246 22.886-37.642 27.431-61.353.464-2.421.93-4.848 1.41-7.274l5.614 1.116c-.48 2.412-.942 4.828-1.405 7.236-4.536 23.668-9.226 48.141-29.423 64.701-22.543 18.485-60.697 24.598-120.081 19.241-75.693-6.829-127.258-9.52-153.372 14.345-16.667 15.231-24.099 42.083-24.099 87.067 0 114.436-39.042 123.459-204.442 143.227-108.196 12.932-205.123 84.664-206.09 85.387z" id="Wire"/><g id="Back_frame"><linearGradient id="SVGID_3_" gradientUnits="userSpaceOnUse" x1="2522.408" y1="1163.37" x2="2846.927" y2="1725.454" gradientTransform="rotate(180 2225.277 1009.945)"><stop offset=".4" stop-color="#423eaf"/><stop offset=".459" stop-color="#5854ca"/><stop offset=".551" stop-color="#807dfb"/></linearGradient><path class="st5" d="M1546.292 327.595c4.367-3.091 10.673-3.016 17.684 1.027l264.664 152.802c13.089 7.561 23.803 26.119 23.803 41.24v366.224c0 7.404-2.579 12.649-6.739 15.203l.009.016-.197.116c-.045.026-.093.053-.135.081l-9.938 5.732-.011-.019c4.16-2.551 6.743-7.795 6.743-15.197V528.591c0-15.113-10.721-33.676-23.81-41.236l-264.664-152.797c-6.083-3.513-11.633-4.027-15.854-2.088l8.445-4.875z"/><path class="st6" d="M1553.7 334.558l264.664 152.797c13.089 7.56 23.81 26.123 23.81 41.236v366.227c0 15.122-10.721 21.303-23.81 13.745L1553.7 755.761c-13.095-7.558-23.807-26.113-23.807-41.23V348.299c0-15.113 10.711-21.303 23.807-13.741z"/><path class="st7" d="M1767.644 580.273l-163.221-94.236c-11.408-6.586-20.655-24.255-20.655-39.466v-18.419c0-15.211 9.247-22.202 20.655-15.616l163.221 94.236c11.408 6.586 20.655 24.255 20.655 39.466v18.419c0 15.211-9.247 22.202-20.655 15.616z"/><path class="st4" d="M1793.481 659.736l-227.963-132.21c-5.203-3.004-9.423-10.312-9.423-16.32 0-6.008 4.22-8.444 9.423-5.44l227.963 132.21c5.203 3.004 9.423 10.312 9.423 16.32 0 6.008-4.219 8.444-9.423 5.44zM1793.481 716.991L1565.519 584.78c-5.203-3.004-9.423-10.312-9.423-16.32s4.22-8.444 9.423-5.44l227.963 132.21c5.203 3.004 9.423 10.312 9.423 16.32-.001 6.007-4.22 8.445-9.424 5.441zM1793.481 774.244l-227.963-132.21c-5.203-3.004-9.423-10.311-9.423-16.32s4.22-8.444 9.423-5.44l227.963 132.21c5.203 3.004 9.423 10.312 9.423 16.32 0 6.009-4.219 8.444-9.423 5.44zM1793.481 831.498l-227.963-132.21c-5.203-3.005-9.423-10.312-9.423-16.32 0-6.009 4.22-8.444 9.423-5.44l227.963 132.21c5.203 3.004 9.423 10.312 9.423 16.32 0 6.009-4.219 8.445-9.423 5.44z"/><g><path class="st8" d="M1304.101 459.989a1.431 1.431 0 0 1-.717-2.67l7.435-4.293a1.431 1.431 0 0 1 1.431 2.479l-7.435 4.293a1.433 1.433 0 0 1-.714.191zM1326.523 447.042a1.431 1.431 0 0 1-.717-2.67l14.987-8.652a1.432 1.432 0 0 1 1.431 2.479l-14.987 8.652a1.412 1.412 0 0 1-.714.191zm29.974-17.304a1.432 1.432 0 0 1-.717-2.67l14.987-8.652a1.431 1.431 0 1 1 1.431 2.479l-14.987 8.652a1.435 1.435 0 0 1-.714.191zm29.972-17.306a1.431 1.431 0 0 1-.717-2.67l14.987-8.652a1.432 1.432 0 0 1 1.431 2.479l-14.987 8.652c-.225.13-.471.191-.714.191zm29.974-17.304a1.431 1.431 0 0 1-.717-2.67l14.987-8.653a1.431 1.431 0 1 1 1.431 2.479l-14.987 8.653a1.433 1.433 0 0 1-.714.191zm29.974-17.305a1.431 1.431 0 0 1-.717-2.67l14.987-8.653a1.43 1.43 0 1 1 1.431 2.478l-14.987 8.653c-.227.13-.473.192-.714.192zm29.973-17.306a1.431 1.431 0 0 1-.717-2.67l14.986-8.652a1.431 1.431 0 1 1 1.431 2.479l-14.986 8.652c-.225.13-.471.191-.714.191zM1506.363 343.213a1.431 1.431 0 0 1-.717-2.669l7.435-4.293a1.431 1.431 0 1 1 1.431 2.478l-7.435 4.293a1.438 1.438 0 0 1-.714.191z"/></g><g><path class="st8" d="M1616.114 640.125a1.43 1.43 0 0 1-.717-2.67l7.435-4.293a1.432 1.432 0 0 1 1.431 2.478l-7.435 4.293a1.403 1.403 0 0 1-.714.192zM1638.536 627.18a1.43 1.43 0 0 1-.717-2.67l14.987-8.652a1.432 1.432 0 0 1 1.431 2.478l-14.987 8.652a1.419 1.419 0 0 1-.714.192zm29.972-17.304a1.431 1.431 0 0 1-.717-2.669l14.987-8.652a1.43 1.43 0 1 1 1.431 2.478l-14.987 8.652a1.433 1.433 0 0 1-.714.191zm29.974-17.306a1.43 1.43 0 0 1-.717-2.671l14.987-8.652a1.43 1.43 0 1 1 1.431 2.478l-14.987 8.652a1.42 1.42 0 0 1-.714.193zm29.973-17.304a1.43 1.43 0 0 1-.717-2.671l14.987-8.653a1.432 1.432 0 0 1 1.431 2.478l-14.987 8.653a1.417 1.417 0 0 1-.714.193zm29.972-17.306a1.431 1.431 0 0 1-.717-2.67l14.987-8.652a1.432 1.432 0 0 1 1.431 2.478l-14.987 8.652c-.225.13-.471.192-.714.192zm29.975-17.305a1.43 1.43 0 0 1-.717-2.671l14.986-8.652a1.43 1.43 0 0 1 1.431 2.477l-14.986 8.652a1.396 1.396 0 0 1-.714.194zM1818.375 523.35a1.431 1.431 0 0 1-.717-2.67l7.435-4.293a1.432 1.432 0 0 1 1.431 2.478l-7.435 4.293a1.419 1.419 0 0 1-.714.192z"/></g><g><path class="st8" d="M1616.114 1058.398a1.43 1.43 0 0 1-.717-2.671l7.435-4.293a1.432 1.432 0 0 1 1.431 2.479l-7.435 4.293a1.403 1.403 0 0 1-.714.192zM1638.536 1045.453a1.43 1.43 0 0 1-.717-2.671l14.987-8.652a1.432 1.432 0 0 1 1.431 2.479l-14.987 8.652a1.409 1.409 0 0 1-.714.192zm29.972-17.304a1.43 1.43 0 0 1-.717-2.671l14.987-8.652a1.432 1.432 0 0 1 1.431 2.479l-14.987 8.652c-.225.13-.471.192-.714.192zm29.974-17.306a1.43 1.43 0 0 1-.717-2.671l14.987-8.652a1.432 1.432 0 0 1 1.431 2.479l-14.987 8.652a1.419 1.419 0 0 1-.714.192zm29.973-17.304a1.431 1.431 0 0 1-.717-2.67l14.987-8.653a1.431 1.431 0 1 1 1.431 2.479l-14.987 8.653a1.435 1.435 0 0 1-.714.191zm29.972-17.306a1.431 1.431 0 0 1-.717-2.67l14.987-8.652a1.431 1.431 0 1 1 1.431 2.479l-14.987 8.652c-.225.13-.471.191-.714.191zm29.975-17.305a1.431 1.431 0 0 1-.717-2.67l14.986-8.652a1.431 1.431 0 1 1 1.431 2.479l-14.986 8.652c-.225.13-.471.191-.714.191zM1818.375 941.624a1.431 1.431 0 0 1-.717-2.67l7.435-4.293a1.432 1.432 0 0 1 1.431 2.479l-7.435 4.293a1.438 1.438 0 0 1-.714.191z"/></g><path class="st2" d="M1708.735 518.897l-99.168-57.255c-2.934-1.694-5.313-5.814-5.313-9.202 0-3.387 2.379-4.761 5.313-3.067l99.168 57.255c2.934 1.693 5.313 5.813 5.313 9.202 0 3.388-2.379 4.762-5.313 3.067zM1751.235 543.434l-13.128-7.58c-2.934-1.693-5.313-5.813-5.313-9.202 0-3.387 2.379-4.761 5.313-3.067l13.128 7.58c2.934 1.694 5.313 5.814 5.313 9.202s-2.379 4.762-5.313 3.067z"/></g><g id="Screen"><path class="st9" d="M1211.875 965.515c14.31-8.254 37.714-8.254 52.02 0l293.027 169.178c14.31 8.276 14.31 21.777 0 30.04l-151.217 87.323c-14.308 8.242-37.714 8.242-52.023 0l-293.037-169.195c-14.313-8.255-14.313-21.76 0-30.033l151.23-87.313z"/><linearGradient id="SVGID_4_" gradientUnits="userSpaceOnUse" x1="2593.482" y1="844.658" x2="3111.166" y2="844.658" gradientTransform="rotate(180 2080.56 1009.945)"><stop offset=".242" stop-color="#423eac"/><stop offset=".304" stop-color="#4440ae"/><stop offset=".337" stop-color="#4945b6"/><stop offset=".363" stop-color="#524ec4"/><stop offset=".385" stop-color="#605bd7"/><stop offset=".399" stop-color="#6b66e7"/></linearGradient><path class="st10" d="M1060.643 1082.861l293.035 169.196c14.31 8.242 37.714 8.242 52.023 0l151.217-87.323c6.877-3.959 10.411-9.144 10.68-14.369.039 0 .039 23.048.039 23.048.008 5.443-3.547 10.898-10.719 15.035l-151.217 87.322c-14.309 8.26-37.714 8.26-52.023 0l-293.035-169.186c-7.441-4.297-10.97-10.008-10.672-15.654v-22.43c.262 5.22 3.805 10.4 10.672 14.361z"/><linearGradient id="SVGID_5_" gradientUnits="userSpaceOnUse" x1="1233.853" y1="903.924" x2="1560.739" y2="903.924" gradientTransform="matrix(1 0 0 -1 0 2019.89)"><stop offset="0" stop-color="#dae0f5"/><stop offset=".319" stop-color="#e0e5f7"/><stop offset=".765" stop-color="#f3f5fc"/><stop offset="1" stop-color="#fff"/></linearGradient><path class="st11" d="M1371.7 1053.384l-2.554-.026h-135.292c.611 4.915 4.124 9.732 10.597 13.461l161.45 93.213-1.153 2.499-27.803 16.042h156.005l27.789-16.042-189.039-109.147z"/><g><path class="st7" d="M1208.809 1023.609c11.772-36.102 11.793-66.824 11.793-79.504l20.808-12.006c0 5.315-.014 13.411-.708 23.618l168.948 97.539c0 17.833-.03 71.311-32.706 125.319l-189.05-109.138 20.915-45.828z"/><path class="st12" d="M1220.604 944.104l189.049 109.151 20.804-12.003-189.045-109.154z"/><path class="st8" d="M1376.946 1178.574c32.676-54.007 32.706-107.485 32.706-125.319l20.804-12.003c0 17.745-.017 66.328-25.708 121.281l-27.802 16.041z"/><path class="st13" d="M1399.229 1128.461l22.348-12.908a278.084 278.084 0 0 0 7.254-40.231l-21.025 12.154c-1.448 11.981-4.016 25.945-8.577 40.985z"/></g><g><path class="st14" d="M907.588 203.873c.008-16.52 11.708-23.275 26.002-15.016l700.871 404.64c14.3 8.258 26.002 28.524 26.007 45.051l-.005 469.773-752.867-434.66-.008-469.788z"/><linearGradient id="SVGID_6_" gradientUnits="userSpaceOnUse" x1="3104.054" y1="2048.549" x2="2459.256" y2="931.726" gradientTransform="rotate(180 2080.56 1009.945)"><stop offset=".635" stop-color="#6b67e9"/><stop offset=".697" stop-color="#1f196f"/></linearGradient><path class="st15" d="M961.796 172.58l700.867 404.642c14.3 8.255 26.007 28.524 26.007 45.047v469.782l-28.206 16.271.005-469.773c-.005-16.527-11.708-36.793-26.007-45.051L933.59 188.857c-5.836-3.367-11.208-4.204-15.575-2.928l22.56-12.839c4.722-4.969 12.48-5.556 21.221-.51z"/><path class="st16" d="M1660.465 1108.322l.005 94.983c-.005 16.518-11.708 23.269-26.007 15.014L933.59 813.677c-14.296-8.254-26.002-28.531-26.002-45.042l.008-94.974 752.869 434.661z"/><path class="st8" d="M1660.468 1203.303l-.005-94.983 28.206-16.271v94.981c0 8.298-2.971 14.139-7.727 16.83l-27.039 15.501c4.059-2.96 6.565-8.459 6.565-16.058z"/><path class="st2" d="M933.594 688.673l700.867 404.642V623.531L933.59 218.887z"/></g></g><g id="Mouse"><linearGradient id="SVGID_7_" gradientUnits="userSpaceOnUse" x1="1197.41" y1="598.707" x2="1382.57" y2="598.707" gradientTransform="matrix(1 0 0 -1 0 2019.89)"><stop offset="0" stop-color="#c4cae9"/><stop offset="1" stop-color="#fff"/></linearGradient><path class="st17" d="M1360.969 1372.39s-4.793 17.728-14.77 23.496l-94.16 54.356-4.759-3.25s-22.263 11.577-49.87 22.985c52.987 0 60.85-3.647 70.883-8.639 58.734-26.177 84.63-40.291 113.261-64.698 6.531-5.936-20.585-24.25-20.585-24.25z"/><path class="st6" d="M1346.121 1344.54c9.344 5.393 14.686 11.014 14.847 16.198.188 5.754-5.809 10.958-16.092 14.729-42.272 16.531-66.72 31.481-112.061 65.391-19.696 15.577-51.943 21.859-71.666 10.485-9.191-5.301-13.775-7.953-22.966-13.261-9.859-5.698-14.442-14.262-14.652-23.335-.216-9.086 3.952-18.694 13.872-26.618 43.191-35.009 72.21-50.969 112.854-66.365 19.522-7.069 53.173-1.872 72.905 9.525 9.184 5.292 13.769 7.949 22.959 13.251z"/><linearGradient id="SVGID_8_" gradientUnits="userSpaceOnUse" x1="1123.498" y1="604.533" x2="1360.97" y2="604.533" gradientTransform="matrix(1 0 0 -1 0 2019.89)"><stop offset=".264" stop-color="#6b67e9"/><stop offset=".341" stop-color="#605cd9"/><stop offset=".49" stop-color="#433fb0"/><stop offset=".494" stop-color="#423eaf"/></linearGradient><path class="st18" d="M1344.875 1375.466c-42.272 16.531-66.72 31.481-112.061 65.391-19.696 15.577-51.943 21.859-71.666 10.485-9.191-5.301-13.775-7.953-22.966-13.261-9.859-5.698-14.442-14.262-14.652-23.335v11.765a17.184 17.184 0 0 0 0 2.08v.375h.027c.591 6.985 5.447 13.88 14.679 19.209l22.966 13.26c19.73 11.382 51.706 11.397 71.444 0l113.535-65.558c9.99-5.76 14.896-13.35 14.777-20.914h.007v-14.227c.191 5.753-5.806 10.958-16.09 14.73z"/><path class="st8" d="M1272.319 1361.737c-4.501-2.573-4.64-6.359-.18-7.882 4.466-1.51 11.903.07 16.398 2.616 4.056 2.276 4.327 5.127-.138 6.658-4.469 1.538-11.864 1.03-16.08-1.392z"/></g><g id="Flat_blocks"><linearGradient id="SVGID_9_" gradientUnits="userSpaceOnUse" x1="156.437" y1="645.066" x2="243.128" y2="645.066" gradientTransform="matrix(1 0 0 -1 0 2019.89)"><stop offset="0" stop-color="#cfd5f1"/><stop offset=".283" stop-color="#e1e5f6"/><stop offset=".719" stop-color="#f7f8fd"/><stop offset="1" stop-color="#fff"/></linearGradient><path class="st19" d="M209.469 1355.387h-53.032l33.663 19.44-33.663 19.433h53.032l33.659-19.433z"/><linearGradient id="SVGID_10_" gradientUnits="userSpaceOnUse" x1="265.717" y1="703.313" x2="428.979" y2="703.313" gradientTransform="matrix(1 0 0 -1 0 2019.89)"><stop offset="0" stop-color="#d1d7f3"/><stop offset=".5" stop-color="#e6e9f8"/><stop offset="1" stop-color="#fff"/></linearGradient><path class="st20" d="M414.75 1296.291l-83.677-48.244c-3.769-2.176-8.036-3.9-12.571-5.211l58.312 33.591c9.489 5.479 14.234 12.701 14.234 19.92v19.745c0 7.221-4.745 14.446-14.234 19.921L297.032 1382c-8.635 4.99-19.793 7.68-31.163 8.129l-.152.089h30.612c13.851.671 28.105-2.025 38.645-8.105l79.777-45.987c18.974-10.956 18.968-28.886-.001-39.835z"/><linearGradient id="SVGID_11_" gradientUnits="userSpaceOnUse" x1="130.127" y1="725.935" x2="395.443" y2="725.935" gradientTransform="matrix(1 0 0 -1 0 2019.89)"><stop offset="0" stop-color="#6b67e9"/><stop offset=".007" stop-color="#6a66e8"/><stop offset=".479" stop-color="#423da7"/><stop offset=".823" stop-color="#2a237e"/><stop offset="1" stop-color="#20196f"/></linearGradient><path class="st21" d="M144.365 1274.182c-18.984 10.956-18.984 28.885 0 39.836l83.668 48.237c18.972 10.958 50.03 10.958 69 0l84.18-48.523c18.975-10.958 18.975-28.888 0-39.844l-83.67-48.235c-18.978-10.955-50.033-10.955-69.006 0l-84.172 48.529z"/><linearGradient id="SVGID_12_" gradientUnits="userSpaceOnUse" x1="130.131" y1="677.877" x2="395.445" y2="677.877" gradientTransform="matrix(1 0 0 -1 0 2019.89)"><stop offset=".423" stop-color="#ced3f8"/><stop offset=".592" stop-color="#bbc0e6"/></linearGradient><path class="st22" d="M395.445 1293.808c0 7.224-4.745 14.44-14.234 19.924l-84.18 48.523c-18.969 10.958-50.028 10.958-69 0l-83.668-48.237c-9.465-5.457-14.201-12.653-14.227-19.853h-.006v19.743h.006c.026 7.197 4.762 14.397 14.227 19.858L228.032 1382c18.972 10.957 50.03 10.957 69 0l84.18-48.527c9.489-5.478 14.234-12.701 14.234-19.924v-19.741h-.001z"/><g><linearGradient id="SVGID_13_" gradientUnits="userSpaceOnUse" x1="130.127" y1="764.698" x2="395.443" y2="764.698" gradientTransform="matrix(1 0 0 -1 0 2019.89)"><stop offset="0" stop-color="#6b67e9"/><stop offset=".007" stop-color="#6a66e8"/><stop offset=".479" stop-color="#423da7"/><stop offset=".823" stop-color="#2a237e"/><stop offset="1" stop-color="#20196f"/></linearGradient><path class="st23" d="M144.365 1235.418c-18.984 10.955-18.984 28.887 0 39.837l83.668 48.238c18.972 10.957 50.03 10.957 69 0l84.18-48.525c18.975-10.957 18.975-28.888 0-39.844l-83.67-48.235c-18.978-10.955-50.033-10.955-69.006 0l-84.172 48.529z"/><linearGradient id="SVGID_14_" gradientUnits="userSpaceOnUse" x1="130.131" y1="716.64" x2="395.445" y2="716.64" gradientTransform="matrix(1 0 0 -1 0 2019.89)"><stop offset=".423" stop-color="#ced3f8"/><stop offset=".592" stop-color="#bbc0e6"/></linearGradient><path class="st24" d="M395.445 1255.045c0 7.222-4.745 14.441-14.234 19.924l-84.18 48.525c-18.969 10.957-50.028 10.957-69 0l-83.668-48.238c-9.465-5.458-14.201-12.656-14.227-19.854h-.006V1275.145h.006c.026 7.197 4.762 14.399 14.227 19.858l83.668 48.235c18.972 10.957 50.03 10.957 69 0l84.18-48.527c9.489-5.477 14.234-12.701 14.234-19.925v-19.741z"/></g><g><path class="st9" d="M144.365 1196.655c-18.984 10.955-18.984 28.886 0 39.837l83.668 48.238c18.972 10.957 50.03 10.957 69 0l84.18-48.525c18.975-10.957 18.975-28.888 0-39.844l-83.67-48.235c-18.978-10.955-50.033-10.955-69.006 0l-84.172 48.529z"/><linearGradient id="SVGID_15_" gradientUnits="userSpaceOnUse" x1="130.131" y1="755.403" x2="395.445" y2="755.403" gradientTransform="matrix(1 0 0 -1 0 2019.89)"><stop offset=".423" stop-color="#ced3f8"/><stop offset=".592" stop-color="#bbc0e6"/></linearGradient><path class="st25" d="M395.445 1216.282c0 7.224-4.745 14.441-14.234 19.924l-84.18 48.525c-18.969 10.957-50.028 10.957-69 0l-83.668-48.238c-9.465-5.458-14.201-12.656-14.227-19.854h-.006v19.745h.006c.026 7.197 4.762 14.397 14.227 19.858l83.668 48.233c18.972 10.958 50.03 10.958 69 0l84.18-48.527c9.489-5.477 14.234-12.701 14.234-19.925v-19.741z"/></g></g><g id="Blocks"><linearGradient id="SVGID_16_" gradientUnits="userSpaceOnUse" x1="1787.222" y1="590.258" x2="2077.192" y2="590.258" gradientTransform="matrix(1 0 0 -1 0 2019.89)"><stop offset="0" stop-color="#c2c8e6"/><stop offset=".633" stop-color="#eceef7" stop-opacity=".5"/><stop offset="1" stop-color="#fff" stop-opacity="0"/></linearGradient><path class="st26" d="M1787.222 1348.417h289.971v162.429h-289.971z"/><path class="st9" d="M1787.222 1343.289l-145.109-83.778 145.109-83.778 145.109 83.779z"/><path class="st7" d="M1787.222 1510.847l-145.109-83.78v-167.556l145.109 83.778z"/><path class="st8" d="M1787.222 1510.847l145.11-83.78v-167.556l-145.11 83.778z"/><path class="st4" d="M1787.222 1203.797l-11.604-6.701 11.604-6.699 11.603 6.699zM1814.248 1219.4l-11.604-6.699 11.604-6.699 11.603 6.699zM1841.273 1235.003l-11.603-6.699 11.603-6.699 11.604 6.699zM1868.3 1250.607l-11.603-6.7 11.603-6.699 11.604 6.699zM1895.326 1266.211l-11.603-6.699 11.603-6.701 11.603 6.701zM1760.196 1219.4l-11.604-6.699 11.604-6.701 11.604 6.701zM1787.222 1235.003l-11.604-6.699 11.604-6.699 11.603 6.699zM1814.248 1250.607l-11.604-6.7 11.604-6.699 11.603 6.699zM1841.275 1266.211l-11.605-6.7 11.605-6.7 11.603 6.701zM1868.3 1281.814l-11.603-6.699 11.603-6.699 11.604 6.699zM1733.169 1235.003l-11.603-6.699 11.603-6.699 11.605 6.699zM1760.196 1250.607l-11.603-6.7 11.603-6.699 11.604 6.699zM1787.222 1266.211l-11.604-6.7 11.604-6.7 11.603 6.7zM1814.248 1281.814l-11.604-6.699 11.604-6.699 11.603 6.699zM1841.275 1297.417l-11.604-6.699 11.604-6.699 11.603 6.699zM1706.143 1250.607l-11.603-6.7 11.603-6.699 11.604 6.699zM1733.17 1266.21l-11.604-6.699 11.604-6.7 11.604 6.7zM1760.196 1281.814l-11.603-6.699 11.603-6.7 11.604 6.7zM1787.222 1297.417l-11.604-6.699 11.604-6.699 11.603 6.699zM1814.249 1313.021l-11.605-6.7 11.605-6.699 11.603 6.699zM1679.118 1266.21l-11.604-6.699 11.604-6.7 11.603 6.7zM1706.143 1281.814l-11.603-6.7 11.603-6.699 11.605 6.699zM1733.17 1297.417l-11.603-6.699 11.603-6.699 11.604 6.699zM1760.196 1313.021l-11.603-6.7 11.603-6.699 11.604 6.699zM1787.222 1328.624l-11.604-6.699 11.604-6.7 11.603 6.7zM1666.418 1301.607l-11.604-6.7v-13.398l11.604 6.699zM1693.443 1317.21l-11.603-6.699v-13.399l11.603 6.7zM1720.469 1332.814l-11.603-6.699v-13.399l11.603 6.699zM1747.496 1348.417l-11.603-6.699v-13.399l11.603 6.7zM1774.522 1364.021l-11.604-6.699v-13.399l11.604 6.699zM1666.418 1332.814l-11.604-6.699v-13.399l11.604 6.699zM1693.443 1348.417l-11.603-6.699v-13.399l11.603 6.7zM1720.469 1364.02l-11.603-6.699v-13.398l11.603 6.699zM1747.496 1379.625l-11.603-6.7v-13.399l11.603 6.7zM1774.522 1395.228l-11.604-6.699v-13.399l11.604 6.699zM1666.418 1364.02l-11.604-6.699v-13.398l11.604 6.699zM1693.443 1379.623l-11.603-6.698v-13.399l11.603 6.699zM1720.469 1395.228l-11.603-6.699v-13.399l11.603 6.699zM1747.496 1410.831l-11.603-6.699v-13.398l11.603 6.699zM1774.522 1426.434l-11.604-6.699v-13.398l11.604 6.699zM1666.418 1395.228l-11.604-6.699v-13.4l11.604 6.7zM1693.443 1410.831l-11.603-6.699v-13.398l11.603 6.699zM1720.469 1426.434l-11.603-6.699v-13.398l11.603 6.699zM1747.496 1442.037l-11.603-6.698v-13.399l11.603 6.699zM1774.522 1457.642l-11.604-6.699v-13.399l11.604 6.698zM1666.418 1426.434l-11.604-6.699v-13.398l11.604 6.699zM1693.443 1442.037l-11.603-6.699v-13.398l11.603 6.699zM1720.469 1457.641l-11.603-6.698v-13.4l11.603 6.699zM1747.496 1473.245l-11.603-6.699v-13.398l11.603 6.699zM1774.522 1488.848l-11.604-6.699v-13.398l11.604 6.699zM1908.027 1301.607l11.604-6.7v-13.398l-11.604 6.699zM1881.002 1317.21l11.603-6.699v-13.399l-11.603 6.7zM1853.976 1332.814l11.603-6.699v-13.399l-11.603 6.699zM1826.949 1348.417l11.603-6.699v-13.399l-11.603 6.7zM1799.923 1364.021l11.604-6.699v-13.399l-11.604 6.699zM1908.027 1332.814l11.604-6.699v-13.399l-11.604 6.699zM1881.002 1348.417l11.603-6.699v-13.399l-11.603 6.7zM1853.976 1364.02l11.603-6.699v-13.398l-11.603 6.699zM1826.949 1379.625l11.603-6.7v-13.399l-11.603 6.7zM1799.923 1395.228l11.604-6.699v-13.399l-11.604 6.699zM1908.027 1364.02l11.604-6.699v-13.398l-11.604 6.699zM1881.002 1379.623l11.603-6.698v-13.399l-11.603 6.699zM1853.976 1395.228l11.603-6.699v-13.399l-11.603 6.699zM1826.949 1410.831l11.603-6.699v-13.398l-11.603 6.699zM1799.923 1426.434l11.604-6.699v-13.398l-11.604 6.699zM1908.027 1395.228l11.604-6.699v-13.4l-11.604 6.7zM1881.002 1410.831l11.603-6.699v-13.398l-11.603 6.699zM1853.976 1426.434l11.603-6.699v-13.398l-11.603 6.699zM1826.949 1442.037l11.603-6.698v-13.399l-11.603 6.699zM1799.923 1457.642l11.604-6.699v-13.399l-11.604 6.698zM1908.027 1426.434l11.604-6.699v-13.398l-11.604 6.699zM1881.002 1442.037l11.603-6.699v-13.398l-11.603 6.699zM1853.976 1457.641l11.603-6.698v-13.4l-11.603 6.699zM1826.949 1473.245l11.603-6.699v-13.398l-11.603 6.699zM1799.923 1488.848l11.604-6.699v-13.398l-11.604 6.699z"/><g><linearGradient id="SVGID_17_" gradientUnits="userSpaceOnUse" x1="1946.86" y1="574.065" x2="2067.962" y2="574.065" gradientTransform="matrix(1 0 0 -1 0 2019.89)"><stop offset="0" stop-color="#cfd5f1"/><stop offset=".283" stop-color="#e1e5f6"/><stop offset=".719" stop-color="#f7f8fd"/><stop offset="1" stop-color="#fff"/></linearGradient><path class="st27" d="M2020.944 1418.674h-74.084l47.025 27.155-47.025 27.147h74.084l47.018-27.147z"/><path class="st28" d="M1946.86 1472.976l47.025-27.147v-55.128l-47.025 27.138z"/><path class="st29" d="M1946.86 1472.976l-47.025-27.147v-55.128l47.025 27.138z"/><path class="st30" d="M1946.86 1417.839l-47.025-27.138 47.025-27.142 47.025 27.142z"/></g><g><path class="st28" d="M156.437 1394.26l33.663-19.433v-39.464l-33.663 19.427z"/><path class="st29" d="M156.437 1394.26l-33.663-19.433v-39.464l33.663 19.427z"/><path class="st30" d="M156.437 1354.79l-33.663-19.427 33.663-19.43 33.663 19.43z"/></g><g><linearGradient id="SVGID_18_" gradientUnits="userSpaceOnUse" x1="523.915" y1="1007.487" x2="610.606" y2="1007.487" gradientTransform="matrix(1 0 0 -1 0 2019.89)"><stop offset="0" stop-color="#cfd5f1"/><stop offset=".283" stop-color="#e1e5f6"/><stop offset=".719" stop-color="#f7f8fd"/><stop offset="1" stop-color="#fff"/></linearGradient><path class="st31" d="M576.949 992.967h-53.034l33.663 19.439-33.663 19.434h53.034l33.657-19.434z"/><path class="st28" d="M523.915 1031.84l33.663-19.434v-39.463l-33.663 19.427z"/><path class="st29" d="M523.915 1031.84l-33.663-19.434v-39.463l33.663 19.427z"/><path class="st30" d="M523.915 992.37l-33.663-19.427 33.663-19.43 33.663 19.43z"/></g><g><linearGradient id="SVGID_19_" gradientUnits="userSpaceOnUse" x1="1387.65" y1="229.564" x2="1473.904" y2="229.564" gradientTransform="matrix(1 0 0 -1 0 2019.89)"><stop offset="0" stop-color="#cfd5f1"/><stop offset=".283" stop-color="#e1e5f6"/><stop offset=".719" stop-color="#f7f8fd"/><stop offset="1" stop-color="#fff"/></linearGradient><path class="st32" d="M1440.416 1770.988h-52.766l33.492 19.342-33.492 19.335h52.766l33.488-19.335z"/><path class="st28" d="M1387.65 1809.665l33.492-19.335v-39.265l-33.492 19.33z"/><path class="st29" d="M1387.65 1809.665l-33.494-19.335v-39.265l33.494 19.33z"/><path class="st30" d="M1387.65 1770.395l-33.494-19.33 33.494-19.332 33.492 19.332z"/></g><g><linearGradient id="SVGID_20_" gradientUnits="userSpaceOnUse" x1="1814.248" y1="771.927" x2="1935.351" y2="771.927" gradientTransform="matrix(1 0 0 -1 0 2019.89)"><stop offset="0" stop-color="#cfd5f1"/><stop offset=".283" stop-color="#e1e5f6"/><stop offset=".719" stop-color="#f7f8fd"/><stop offset="1" stop-color="#fff"/></linearGradient><path class="st33" d="M1888.333 1220.812h-74.085l47.026 27.156-47.026 27.147h74.085l47.018-27.147z"/><path class="st34" d="M1814.248 1275.115l47.026-27.147v-55.129l-47.026 27.138z"/><path class="st35" d="M1814.248 1275.115l-47.025-27.147v-55.129l47.025 27.138z"/><path class="st30" d="M1814.248 1219.977l-47.025-27.138 47.025-27.142 47.026 27.142z"/></g><g><path class="st28" d="M1814.248 1219.977l47.026-27.147v-55.128l-47.026 27.138z"/><path class="st29" d="M1814.248 1219.977l-47.025-27.147v-55.128l47.025 27.138z"/><path class="st2" d="M1814.248 1164.84l-47.025-27.138 47.025-27.142 47.026 27.142z"/></g><path class="st7" d="M313.273 1224.301c3.532-2.042 3.674-3.999.427-5.874l-18.548-10.705c-3.986-2.303-4.441-4.736-1.367-7.303-4.386 1.809-8.571 1.564-12.558-.74l-20.084-11.594c-1.48-.854-2.919-1.208-4.315-1.06-1.395.15-3.26.895-5.597 2.247l-7.949-4.588 2.905-1.677c7.748-4.475 15.382-4.538 22.903-.198l18.454 10.657c1.881 1.084 3.549 1.653 5.001 1.701 1.453.05 2.923-.354 4.403-1.208l2.05-1.186 7.946 4.588-2.05 1.186c-1.481.854-2.165 1.707-2.051 2.564.111.854 1.138 1.842 3.074 2.959l17.774 10.262c7.521 4.343 7.408 8.749-.34 13.221l-2.905 1.677-7.947-4.586c.23-.067.489-.182.774-.343zM208.078 1205.008l2.905-1.677 7.949 4.588c-2.336 1.347-3.632 2.423-3.888 3.228-.258.806.356 1.638 1.836 2.492l20.083 11.594c3.987 2.303 4.412 4.721 1.279 7.252 4.445-1.777 8.659-1.513 12.646.791l18.548 10.705c1.761 1.019 3.502 1.479 5.21 1.381 1.708-.098 3.021-.41 3.931-.934l.256-.15 1.367-.986 7.947 4.586-2.905 1.677c-7.746 4.471-15.381 4.541-22.902.198l-17.774-10.262c-1.935-1.117-3.645-1.71-5.125-1.777-1.481-.065-2.96.33-4.442 1.186l-2.051 1.184-7.946-4.588 2.051-1.184c1.481-.856 2.176-1.701 2.09-2.542-.084-.836-1.069-1.801-2.95-2.885l-18.454-10.658c-7.521-4.338-7.407-8.746.339-13.219z"/></g><g id="Shapes_on_screen"><path class="st7" d="M1346.764 527.756l-37.983-21.931v-9.038l37.983 21.929zM1540.031 639.339l-173.004-99.885v-9.039l173.004 99.885z"/><path class="st8" d="M1373.782 567.968l-65.001-37.529v-9.038l65.001 37.528zM1540.031 663.952l-145.987-84.287v-9.038l145.987 84.286z"/><path class="st36" d="M1333.966 569.594l-25.185-14.541v-9.04l25.185 14.541z"/><path class="st37" d="M1540.031 688.565l-185.803-107.273v-9.039l185.803 107.274z"/><path class="st8" d="M1391.874 627.64l-83.093-47.975v-9.038l83.093 47.974z"/><path class="st36" d="M1540.031 713.179l-127.895-73.84V630.3l127.895 73.84z"/><path class="st7" d="M1346.764 626.209l-37.983-21.93v-9.038l37.983 21.929zM1540.031 737.792l-173.004-99.884v-9.039l173.004 99.884z"/><path class="st37" d="M1336.002 644.609l-27.221-15.716v-9.039l27.221 15.716zM1540.031 762.405l-183.766-106.097v-9.039l183.766 106.098z"/><path class="st8" d="M1346.764 675.436l-37.983-21.93v-9.039l37.983 21.931zM1528.708 780.481l-173.004-99.885v-9.038l173.004 99.885z"/><path class="st7" d="M1346.764 700.049l-37.983-21.93v-9.038l37.983 21.929zM1540.031 811.633l-173.004-99.885v-9.039l173.004 99.884zM1359.052 731.757l-37.983-21.93v-9.038l37.983 21.929zM1540.031 836.245l-173.004-99.883v-9.04l173.004 99.885z"/><path class="st36" d="M1333.357 741.536l-24.576-14.19v-9.039l24.576 14.19z"/><path class="st37" d="M1526.976 853.322l-186.412-107.626v-9.038l186.412 107.625z"/><path class="st8" d="M1346.764 773.889l-37.983-21.929v-9.039l37.983 21.929zM1430.357 822.152l-63.33-36.564v-9.038l63.33 36.563z"/><path class="st37" d="M1346.764 798.503l-37.983-21.93v-9.038l37.983 21.929zM1540.031 910.086l-173.004-99.884v-9.04l173.004 99.885z"/><path class="st38" d="M1336.002 816.671l-27.221-15.484v-9.039l27.221 15.484zM1495.389 908.888l-139.124-80.519v-9.039l139.124 80.52z"/><path class="st7" d="M1346.764 847.729l-37.983-21.929v-9.039l37.983 21.929zM1540.031 959.313l-173.004-99.885v-9.038l173.004 99.885z"/><path class="st8" d="M1346.764 872.343l-37.983-21.93v-9.038l37.983 21.929zM1510.658 966.967l-143.631-82.925v-9.04l143.631 82.927zM1373.782 912.511l-65.001-37.484v-9.038l65.001 37.484zM1446.287 954.416l-52.243-30.205v-9.04l52.243 30.206z"/><g><ellipse transform="rotate(-30 1586.383 692.073)" class="st39" cx="1586.394" cy="692" rx="29.263" ry="50.686"/><path class="st2" d="M1591.562 674.852c-.873-.785-1.778-.717-2.018.156l-9.378 33.708c-.243.87.27 2.209 1.144 2.992.873.783 1.774.71 2.018-.155l9.378-33.708c.239-.873-.27-2.21-1.144-2.993zm-12.935.577c-.512-1.156-1.534-1.967-2.279-1.802l-15.714 3.411c-.446.094-.712.525-.712 1.148 0 .625.266 1.362.712 1.976l15.714 21.555c.745 1.022 1.767 1.393 2.282.829.512-.564.325-1.853-.421-2.877l-13.751-18.862 13.751-2.984c.746-.162.932-1.236.418-2.394zm34.746 32.058l-15.713-21.555c-.745-1.025-1.77-1.398-2.283-.831-.514.564-.325 1.853.42 2.876l13.751 18.861-13.751 2.984c-.745.163-.935 1.234-.42 2.391.512 1.159 1.534 1.967 2.283 1.806l15.713-3.411c.447-.096.712-.524.712-1.149.001-.625-.265-1.361-.712-1.972z"/></g></g><g id="Front_frame"><path class="st4" d="M1264.815 854.142L952.801 674.006V255.733l312.014 180.136z"/><linearGradient id="SVGID_21_" gradientUnits="userSpaceOnUse" x1="3325.596" y1="1097.854" x2="3650.115" y2="1659.938" gradientTransform="rotate(180 2225.277 1009.945)"><stop offset=".4" stop-color="#423eaf"/><stop offset=".459" stop-color="#5854ca"/><stop offset=".551" stop-color="#807dfb"/></linearGradient><path class="st40" d="M743.105 393.11c4.367-3.091 10.673-3.016 17.684 1.028l264.664 152.802c13.089 7.561 23.803 26.119 23.803 41.24v366.224c0 7.404-2.579 12.649-6.739 15.203l.009.016-.197.116c-.045.027-.093.053-.135.081l-9.939 5.732-.011-.019c4.16-2.551 6.743-7.796 6.743-15.197V594.107c0-15.114-10.721-33.676-23.81-41.236L750.512 400.073c-6.083-3.513-11.633-4.027-15.854-2.088l8.447-4.875z"/><path class="st6" d="M750.512 400.073l264.664 152.797c13.089 7.56 23.81 26.121 23.81 41.236v366.227c0 15.122-10.721 21.303-23.81 13.745L750.512 821.277c-13.096-7.558-23.807-26.113-23.807-41.23V413.815c.001-15.114 10.711-21.304 23.807-13.742z"/><g><path class="st35" d="M944.512 250.946c0-5.287 3.711-7.428 8.289-4.786 4.578 2.643 8.289 9.071 8.289 14.358 0 5.287-3.711 7.428-8.289 4.785-4.577-2.642-8.289-9.07-8.289-14.357zM1256.525 431.084c0-5.287 3.711-7.428 8.289-4.785 4.578 2.643 8.289 9.071 8.289 14.358s-3.711 7.428-8.289 4.785-8.289-9.071-8.289-14.358zM1256.525 849.357c0-5.286 3.711-7.428 8.289-4.786 4.578 2.643 8.289 9.071 8.289 14.358 0 5.285-3.711 7.428-8.289 4.785-4.577-2.642-8.289-9.07-8.289-14.357z"/><path class="st8" d="M743.106 378.232a1.432 1.432 0 0 1-.717-2.67l7.435-4.293a1.432 1.432 0 0 1 1.431 2.478l-7.435 4.293c-.224.131-.47.192-.714.192zM765.528 365.286a1.432 1.432 0 0 1-.716-2.67l14.986-8.652a1.432 1.432 0 0 1 1.431 2.479l-14.986 8.652c-.226.13-.472.191-.715.191zm29.973-17.304a1.432 1.432 0 0 1-.716-2.67l14.986-8.652a1.432 1.432 0 0 1 1.431 2.479l-14.986 8.652a1.433 1.433 0 0 1-.715.191zm29.974-17.305a1.432 1.432 0 0 1-.716-2.67l14.986-8.653a1.432 1.432 0 0 1 1.431 2.479l-14.986 8.653c-.226.13-.472.191-.715.191zm29.973-17.305a1.432 1.432 0 0 1-.716-2.67l14.986-8.652a1.43 1.43 0 0 1 1.431 2.478l-14.986 8.652c-.226.13-.471.192-.715.192zm29.973-17.306a1.432 1.432 0 0 1-.717-2.67l14.986-8.652a1.432 1.432 0 0 1 1.431 2.478l-14.986 8.652a1.413 1.413 0 0 1-.714.192zm29.974-17.304a1.432 1.432 0 0 1-.717-2.67l14.986-8.653a1.432 1.432 0 0 1 1.431 2.478l-14.986 8.653c-.225.13-.471.192-.714.192zM945.367 261.457a1.43 1.43 0 0 1-.716-2.669l7.436-4.293a1.432 1.432 0 0 1 1.431 2.478l-7.436 4.293a1.439 1.439 0 0 1-.715.191z"/><g><path class="st8" d="M1055.119 558.369a1.431 1.431 0 0 1-.717-2.669l7.435-4.293a1.432 1.432 0 0 1 1.431 2.478l-7.435 4.293c-.225.13-.472.191-.714.191zM1077.54 545.424a1.432 1.432 0 0 1-.716-2.671l14.987-8.652a1.43 1.43 0 0 1 1.431 2.477l-14.987 8.652a1.412 1.412 0 0 1-.715.194zm29.974-17.306a1.43 1.43 0 0 1-.717-2.671l14.987-8.652a1.43 1.43 0 1 1 1.431 2.477l-14.987 8.652a1.398 1.398 0 0 1-.714.194zm29.972-17.304a1.431 1.431 0 0 1-.717-2.67l14.987-8.653a1.43 1.43 0 0 1 1.431 2.477l-14.987 8.653a1.414 1.414 0 0 1-.714.193zm29.974-17.305a1.431 1.431 0 0 1-.717-2.67l14.987-8.652a1.432 1.432 0 0 1 1.431 2.478l-14.987 8.652a1.413 1.413 0 0 1-.714.192zm29.973-17.305a1.431 1.431 0 0 1-.717-2.669l14.986-8.652a1.43 1.43 0 1 1 1.431 2.478l-14.986 8.652a1.433 1.433 0 0 1-.714.191zm29.974-17.305a1.43 1.43 0 0 1-.717-2.669l14.986-8.653a1.43 1.43 0 1 1 1.431 2.479l-14.986 8.653c-.225.129-.471.19-.714.19zM1257.38 441.594a1.431 1.431 0 0 1-.717-2.669l7.435-4.293a1.432 1.432 0 0 1 1.431 2.478l-7.435 4.293c-.225.13-.471.191-.714.191z"/></g><g><path class="st8" d="M1055.119 976.642a1.43 1.43 0 0 1-.717-2.671l7.435-4.293a1.432 1.432 0 0 1 1.431 2.479l-7.435 4.293a1.416 1.416 0 0 1-.714.192zM1077.54 963.697a1.432 1.432 0 0 1-.716-2.671l14.987-8.652a1.431 1.431 0 1 1 1.431 2.479l-14.987 8.652a1.42 1.42 0 0 1-.715.192zm29.974-17.304a1.43 1.43 0 0 1-.717-2.671l14.987-8.652a1.43 1.43 0 1 1 1.431 2.478l-14.987 8.652a1.417 1.417 0 0 1-.714.193zm29.972-17.306a1.431 1.431 0 0 1-.717-2.67l14.987-8.652a1.432 1.432 0 0 1 1.431 2.479l-14.987 8.652a1.433 1.433 0 0 1-.714.191zm29.974-17.304a1.431 1.431 0 0 1-.717-2.67l14.987-8.653a1.431 1.431 0 1 1 1.431 2.479l-14.987 8.653a1.433 1.433 0 0 1-.714.191zm29.972-17.306a1.43 1.43 0 0 1-.717-2.671l14.987-8.652a1.43 1.43 0 1 1 1.431 2.479l-14.987 8.652c-.225.13-.471.192-.714.192zm29.975-17.305a1.431 1.431 0 0 1-.717-2.67l14.986-8.652a1.43 1.43 0 1 1 1.431 2.479l-14.986 8.652c-.225.13-.471.191-.714.191zM1257.38 859.867a1.431 1.431 0 0 1-.717-2.67l7.435-4.293a1.43 1.43 0 1 1 1.431 2.479l-7.435 4.293c-.225.13-.471.191-.714.191z"/></g></g><g><path class="st36" d="M1004.783 702.033L760.908 561.231v-87.285l243.875 140.801z"/><path class="st2" d="M872.367 581.94c0-6.682 4.691-9.391 10.478-6.05 5.787 3.342 10.478 11.467 10.478 18.149s-4.691 9.391-10.478 6.049c-5.786-3.341-10.478-11.466-10.478-18.148zM913.993 605.972c0-6.682 4.691-9.391 10.478-6.05 5.787 3.342 10.478 11.467 10.478 18.149s-4.691 9.391-10.478 6.049c-5.787-3.34-10.478-11.466-10.478-18.148zM851.699 570.007c0-6.682-4.691-14.808-10.478-18.149s-10.478-.633-10.478 6.049 4.691 14.808 10.478 18.149c5.786 3.341 10.478.633 10.478-6.049z"/><path class="st7" d="M779.038 773.612l-18.13-10.467V584.497l18.13 10.468z"/><path class="st8" d="M879.976 692.879v-14.992l124.807 72.057v14.992z"/><path class="st7" d="M879.976 778.759v-14.993l124.807 72.059v14.992z"/><path class="st8" d="M798.922 785.092V770.1l205.861 118.855v14.992z"/><ellipse transform="rotate(-30 833.452 658.576)" class="st39" cx="833.47" cy="658.535" rx="22.727" ry="39.364"/><path class="st7" d="M805.656 728.354c0-17.751 12.462-24.946 27.835-16.07 15.373 8.875 27.835 30.461 27.835 48.212s-12.462 24.947-27.835 16.07c-15.373-8.876-27.835-30.46-27.835-48.212z"/></g></g><g id="Man_with_work_panel_1_"><g id="Work_station_2_"><image width="263" height="153" xlink:href="60195E06D49D3238.png" transform="translate(447.478 1439.725) scale(1.1448)" overflow="visible"/><path class="st41" d="M673.182 1459.819c5.7-3.291 5.7-8.677 0-11.97l-156.378-90.283c-5.7-3.292-15.029-3.292-20.728 0l-71.341 41.188c-5.7 3.291-5.7 8.677 0 11.969l156.378 90.285c5.7 3.291 15.029 3.291 20.729 0l71.34-41.189z"/><path class="st42" d="M450.961 1405.578c-.001.033-.007.065-.007.102 0-.002 0-.102.007-.102zM512.81 1383.031l-6.689-3.857 6.689-3.864 6.689 3.864zM524.072 1389.541l-6.689-3.865 6.689-3.864 6.689 3.864zM535.338 1396.041l-6.689-3.862 6.689-3.861 6.689 3.861zM546.601 1402.543l-6.687-3.858 6.687-3.864 6.687 3.864zM557.867 1409.049l-6.689-3.862 6.689-3.86 6.685 3.86zM569.13 1415.551l-6.689-3.86 6.689-3.862 6.687 3.862zM580.394 1422.057l-6.688-3.864 6.688-3.86 6.687 3.86zM591.658 1428.557l-6.689-3.86 6.689-3.858 6.687 3.858zM602.922 1435.062l-6.687-3.86 6.687-3.863 6.686 3.863zM614.187 1441.562l-6.689-3.857 6.689-3.864 6.686 3.864zM625.45 1448.068l-6.688-3.861 6.688-3.86 6.687 3.86zM636.714 1454.57l-6.688-3.86 6.688-3.861 6.686 3.861zM506.882 1392.616l-12.025-6.94 6.687-3.864 12.027 6.947zM500.66 1401.494l-16.598-9.584 6.688-3.864 16.599 9.585zM493.974 1410.639l-21.177-12.226 6.688-3.864 21.175 12.23zM471.19 1413.224l-12.023-6.94 9.055-5.229 12.025 6.943zM487.79 1422.809l-12.023-6.943 9.053-5.227 12.025 6.944zM504.391 1432.394l-12.025-6.943 9.054-5.229 12.025 6.943zM561.627 1465.438l-12.023-6.943 9.055-5.226 12.022 6.942zM589.759 1481.679l-23.586-13.614 9.055-5.229 23.585 13.616zM545.053 1455.871l-36.086-20.835 9.056-5.229 36.088 20.837zM521.297 1400.944l-9.839-5.683 6.686-3.864 9.841 5.685zM515.078 1409.816l-9.841-5.68 6.689-3.861 9.839 5.683zM508.697 1418.786l-9.84-5.685 6.689-3.861 9.839 5.682zM523.115 1427.107l-9.843-5.682 6.689-3.86 9.843 5.681zM537.53 1435.429l-9.839-5.681 6.686-3.86 9.84 5.682zM551.945 1443.755l-9.839-5.682 6.687-3.861 9.84 5.683zM566.361 1452.076l-9.839-5.679 6.687-3.86 9.841 5.678zM580.777 1460.4l-9.839-5.682 6.689-3.861 9.839 5.681zM603.699 1473.633l-18.345-10.591 6.688-3.861 18.343 10.592zM529.494 1418.143l-9.84-5.683 6.687-3.861 9.842 5.679zM543.91 1426.463l-9.841-5.682 6.688-3.861 9.839 5.683zM558.326 1434.786l-9.839-5.681 6.686-3.861 9.841 5.679zM572.741 1443.108l-9.84-5.679 6.689-3.861 9.84 5.678zM587.159 1451.433l-9.841-5.681 6.689-3.863 9.839 5.682zM614.653 1467.307l-22.919-13.233 6.687-3.862 22.92 13.234zM535.714 1409.267l-9.84-5.685 6.688-3.858 9.84 5.68zM550.128 1417.589l-9.839-5.683 6.688-3.86 9.839 5.681zM564.545 1425.912l-9.839-5.681 6.689-3.862 9.839 5.68zM578.96 1434.236l-9.839-5.682 6.689-3.861 9.839 5.679zM593.379 1442.557l-9.843-5.679 6.689-3.861 9.839 5.679zM607.794 1450.881l-9.841-5.679 6.688-3.864 9.84 5.683zM625.45 1461.074l-13.08-7.551 6.687-3.861 13.08 7.551z"/><linearGradient id="SVGID_22_" gradientUnits="userSpaceOnUse" x1="420.459" y1="563.504" x2="677.457" y2="563.504" gradientTransform="matrix(1 0 0 -1 0 2019.89)"><stop offset=".616" stop-color="#bbc0e6"/><stop offset=".65" stop-color="#b4b9dd"/><stop offset=".736" stop-color="#a5abcc"/></linearGradient><path class="st43" d="M424.734 1410.723l156.378 90.285c5.7 3.291 15.029 3.291 20.729 0l71.34-41.188c2.848-1.645 4.275-3.813 4.275-5.979v4.523c.011 2.177-1.414 4.358-4.275 6.011l-71.34 41.188c-5.7 3.292-15.029 3.292-20.729 0l-156.378-90.283c-2.905-1.677-4.32-3.9-4.265-6.111l-.01-.003v-4.427c0 2.168 1.426 4.337 4.275 5.984z"/><g><linearGradient id="SVGID_23_" gradientUnits="userSpaceOnUse" x1="3538.89" y1="669.824" x2="3358.868" y2="725.177" gradientTransform="rotate(180 2022.406 1009.945)"><stop offset="0" stop-color="#34318f"/><stop offset="1" stop-color="#6a6ae2"/></linearGradient><path class="st44" d="M683.546 1305.745c0-6.58-4.664-14.659-10.364-17.951l-156.378-90.286c-5.701-3.292-10.366-.599-10.366 5.984v136.12c0 6.584 4.664 14.662 10.366 17.955l156.378 90.283c5.7 3.291 10.364.599 10.364-5.985v-136.12z"/><linearGradient id="SVGID_24_" gradientUnits="userSpaceOnUse" x1="3337.93" y1="586.577" x2="3489.691" y2="849.436" gradientTransform="rotate(180 2022.406 1009.945)"><stop offset=".396" stop-color="#34318f"/><stop offset=".479" stop-color="#4141aa"/></linearGradient><path class="st45" d="M683.546 1441.865v-136.12c0-6.58-4.664-14.659-10.364-17.951l-156.378-90.286c-2.817-1.627-5.378-1.787-7.252-.744l5.424-3.132.008.01c1.891-1.213 4.558-1.126 7.511.578l156.378 90.283c5.703 3.292 10.367 11.37 10.367 17.953v136.121c0 3.445-1.284 5.811-3.319 6.826l-5.17 2.983c1.729-1.142 2.795-3.381 2.795-6.521z"/></g><g><path class="st39" d="M567.429 1261.002l-31.276-18.057v-6.668l31.276 18.058z"/><path class="st8" d="M551.229 1286.086l-15.076-8.704v6.667l15.076 8.705z"/><path class="st39" d="M627.516 1404.934l-15.077-8.705v-6.667l15.077 8.705z"/><path class="st36" d="M653.832 1310.887l-81.11-46.829v-6.667l81.11 46.829z"/><path class="st8" d="M634.182 1313.058l-81.109-46.828v-6.668l81.109 46.829z"/><path class="st39" d="M621.801 1319.427l-75.063-43.338v-6.667l75.063 43.338z"/><path class="st36" d="M567.429 1316.179l-31.276-18.058v-6.667l31.276 18.057z"/><path class="st39" d="M653.832 1366.064l-81.11-46.83v-6.667l81.11 46.828zM634.182 1368.235l-81.109-46.829v-6.667l81.109 46.829z"/><path class="st36" d="M634.182 1388.601l-81.109-46.829v6.667l81.109 46.828z"/><path class="st39" d="M647.095 1389.206l-79.666-45.995v-6.668l79.666 45.996z"/></g></g><g id="Man_1_"><linearGradient id="SVGID_25_" gradientUnits="userSpaceOnUse" x1="3084.64" y1="431.265" x2="3127.411" y2="431.265" gradientTransform="rotate(180 1806.9 1009.945)"><stop offset="0" stop-color="#362e94"/><stop offset="1" stop-color="#362e94"/></linearGradient><path class="st46" d="M486.388 1596.808c0-16.758 10.617-17.235 10.617-17.235s5.75 0 15.094-3.882c9.213-3.828 22.203-2.351 14.942 11.04-.063.165-.143.33-.246.495-.446.713-1.203 1.401-2.351 2.07l-23.203 13.607c-3.538 2.019-14.774-2.647-14.853-6.095z"/><path class="st47" d="M486.447 1595.304v-.009c.205 3.454 11.284 8.031 14.794 6.026l23.203-13.61a21.441 21.441 0 0 0 3.267-2.381c-.218.465-.398.904-.671 1.402-.063.165-.143.33-.246.495-.446.713-1.203 1.401-2.351 2.07l-23.203 13.607c-3.312 1.894-13.378-2.085-14.707-5.43a3.749 3.749 0 0 1-.103-.678c-.042-.524-.002-.988.017-1.492z"/><path class="st2" d="M490.706 1577.369c2.729 0 12.358 2.444 12.358 2.444s.063 1.333.859 2.489c.1.108.179.215.266.33 0-.003.009-.006.009-.006 1.895 1.327 3.827 3.415-.678 6.239-3.692 2.318-6.693.847-8.113-.572-.578-1.078-1.429-2.283-2.618-2.969-1.22-.704-1.976-1.021-2.507-1.063.001-.074-.031-.231-.031-.231s-.697-6.661.455-6.661z"/><path class="st47" d="M400.247 1552.7c4.305-15.573 6.221-32.05 10.432-50.336 10.064-2.001 90.399-41.017 101.244-20.021.379.734.544 1.569.524 2.483h.003c3.849 19.55-9.028 95.99-9.028 95.99h-.014c-.2.752-.788 1.48-1.793 2.057-2.53 1.458-6.617 1.456-9.142 0-1.146-.662-2.095-1.512-2.2-2.378h-.025s-5.591-45.471-3.881-65.588c-27.609 21.417-69.455 43.349-86.12 37.793z"/><g><linearGradient id="SVGID_26_" gradientUnits="userSpaceOnUse" x1="3051.689" y1="408.751" x2="3094.464" y2="408.751" gradientTransform="rotate(180 1806.9 1009.945)"><stop offset="0" stop-color="#423eaf"/><stop offset=".375" stop-color="#3d37a3"/><stop offset="1" stop-color="#362e94"/></linearGradient><path class="st48" d="M519.336 1619.321c0-16.756 10.62-17.238 10.62-17.238s5.749 0 15.09-3.876c9.217-3.832 22.205-2.351 14.946 11.04a3.394 3.394 0 0 1-.251.495c-.446.713-1.203 1.402-2.355 2.064l-23.2 13.61c-3.534 2.022-14.766-2.648-14.85-6.095z"/><path class="st47" d="M519.399 1617.821v-.009c.2 3.447 11.279 8.027 14.789 6.024l23.2-13.608a21.279 21.279 0 0 0 3.273-2.385c-.214.461-.4.904-.667 1.405a3.394 3.394 0 0 1-.251.495c-.446.713-1.203 1.402-2.355 2.064l-23.2 13.61c-3.31 1.893-13.377-2.081-14.703-5.431a3.79 3.79 0 0 1-.105-.68c-.044-.522-.005-.989.019-1.485z"/><path class="st2" d="M523.654 1599.879c2.731 0 12.36 2.448 12.36 2.448s.066 1.33.857 2.492c.097.104.181.215.268.326 0-.006.005-.006.008-.006 1.895 1.327 3.825 3.414-.68 6.241-3.688 2.318-6.688.848-8.113-.575-.577-1.078-1.428-2.286-2.615-2.972-1.223-.704-1.975-1.025-2.51-1.06.005-.072-.025-.228-.025-.228s-.697-6.666.45-6.666z"/><linearGradient id="SVGID_27_" gradientUnits="userSpaceOnUse" x1="3067.681" y1="462.981" x2="3233.166" y2="462.981" gradientTransform="rotate(180 1806.9 1009.945)"><stop offset="0" stop-color="#5652cc"/><stop offset=".087" stop-color="#4e49be"/><stop offset=".265" stop-color="#413aa7"/><stop offset=".432" stop-color="#393199"/><stop offset=".576" stop-color="#362e94"/></linearGradient><path class="st49" d="M545.4 1507.339c3.85 19.553-9.028 95.99-9.028 95.99h-.011c-.204.754-.791 1.477-1.794 2.057-2.525 1.458-6.616 1.455-9.14-.004-1.147-.658-2.095-1.509-2.205-2.375h-.018s-5.593-45.471-3.883-65.587c9.289-6.879 26.079-18.279 26.079-30.081z"/></g><g><linearGradient id="SVGID_28_" gradientUnits="userSpaceOnUse" x1="993.963" y1="369.698" x2="1233.592" y2="369.698" gradientTransform="matrix(1 0 0 -1 -581.915 2019.89)"><stop offset="0" stop-color="#d3d8f2"/><stop offset=".547" stop-color="#eef0fa"/><stop offset="1" stop-color="#fff"/></linearGradient><path class="st50" d="M533.028 1581.682h-120.98l118.658 68.506-118.658 68.513h120.98l118.648-68.513z"/><path class="st7" d="M412.048 1718.701l-118.658-68.513v-88.66l118.658 68.51z"/><path class="st8" d="M412.048 1718.701l118.647-68.505v-88.66l-118.647 68.502z"/><path class="st6" d="M412.048 1630.038l118.647-68.502-118.647-68.499-118.658 68.491z"/><linearGradient id="SVGID_29_" gradientUnits="userSpaceOnUse" x1="443.604" y1="466.739" x2="530.694" y2="466.739" gradientTransform="matrix(1 0 0 -1 0 2019.89)"><stop offset="0" stop-color="#d3d8f2"/><stop offset=".547" stop-color="#eef0fa"/><stop offset="1" stop-color="#fff"/></linearGradient><path class="st51" d="M443.604 1575.796h62.39l24.701-14.26-53.75-31.031z"/></g><g><linearGradient id="SVGID_30_" gradientUnits="userSpaceOnUse" x1="3556.026" y1="580.552" x2="3559.862" y2="589.759" gradientTransform="rotate(180 2022.406 1009.945)"><stop offset="0" stop-color="#c4cae9"/><stop offset=".292" stop-color="#d1d6ee"/><stop offset=".83" stop-color="#f3f4fa"/><stop offset="1" stop-color="#fff"/></linearGradient><path class="st52" d="M470.591 1441.749c2.714-2.325 2.409-1.935 5.47-4.299.2-.596.286-1.184.297-1.758.807-.335 1.528-.58 1.875-.56 2.429.156 4.228-.039 5.611-.467v.004c2.058-.527 6.523-12.865 17.093-12.251-2.941 2.357-6.871 7.237-6.048 6.724-.057.093 2.336-1.827 4.814.411-1.686 1.396-7.557 5.368-12.531 6.641v-.002c-1.382.425-3.181.623-5.611.467-.347-.024-1.066.222-1.874.558a5.797 5.797 0 0 1-.298 1.758 171.183 171.183 0 0 0-5.649 4.597c-.489-.284-2.633-1.521-3.149-1.823z"/><linearGradient id="SVGID_31_" gradientUnits="userSpaceOnUse" x1="3506.654" y1="557.485" x2="3513.182" y2="573.153" gradientTransform="rotate(180 2022.406 1009.945)"><stop offset="0" stop-color="#c4cae9"/><stop offset="1" stop-color="#fff"/></linearGradient><path class="st53" d="M525.415 1456.254a5.81 5.81 0 0 0 .272-1.395c9.95.611 12.615-6.102 15.628-9.126 3.018-3.031 3.711-4.095 7.09-4.095 3.378 0 5.957-2.693 2.73-4.718a28.86 28.86 0 0 0-2.507-1.377c.211.074.419.159.618.252.751.359 3.281 1.434 5.218 2.648 3.226 2.027.647 4.718-2.731 4.718-3.379 0-4.071 1.066-7.09 4.095-3.012 3.026-5.678 9.737-15.628 9.127a5.891 5.891 0 0 1-.272 1.399c-6.011 4.636-7.328 6.392-12.542 10.306l-3.551-1.989c5.11-3.878 6.868-5.292 12.765-9.845z"/><linearGradient id="SVGID_32_" gradientUnits="userSpaceOnUse" x1="353.525" y1="558.015" x2="355.376" y2="562.457" gradientTransform="matrix(1 0 0 -1 85.763 2019.89)"><stop offset="0" stop-color="#e19100"/><stop offset=".584" stop-color="#f3ac04"/><stop offset="1" stop-color="#fcba06"/></linearGradient><path class="st54" d="M445.451 1458.063c-2.949.682-6.135.934-9.678.626a12.096 12.096 0 0 1-2.42-.476c1.779 1.093 3.721 1.821 5.748 1.998 3.084.269 5.884.093 8.507-.402-.714-.571-1.43-1.144-2.157-1.746z"/><linearGradient id="SVGID_33_" gradientUnits="userSpaceOnUse" x1="3067.682" y1="482.51" x2="3233.169" y2="482.51" gradientTransform="rotate(180 1806.9 1009.945)"><stop offset="0" stop-color="#5652cc"/><stop offset=".087" stop-color="#4e49be"/><stop offset=".265" stop-color="#413aa7"/><stop offset=".432" stop-color="#393199"/><stop offset=".576" stop-color="#362e94"/></linearGradient><path class="st55" d="M443.63 1524.88c10.066-2.001 90.398-41.015 101.242-20.021.379.73.544 1.567.524 2.48h.003c0 11.801-16.79 23.201-26.08 30.081-27.612 21.419-69.461 43.351-86.126 37.791-26.989-9.004-40.568-16.115-49.154-34.467-2.824-6.026-3.41-22.905-3.41-30.124 29.851-14.786 53.181-1.46 63.001 14.26z"/><path class="st56" d="M500.465 1418.66c-1.935-1.216-4.466-2.292-5.218-2.65-3.377-1.606-8.763-.321-10.257.719-1.495 1.039-10.777 6.739-12.543 10.417 0 0-3.482 1.8-4.839 2.498l5.099 7.797s4.473-2.375 5.525-2.309c2.429.156 4.228-.039 5.611-.467v.004c4.974-1.273 10.844-5.245 12.531-6.637-2.477-2.24-5.222.243-7.083 1.234.389-.638.813-1.252 1.352-1.79 3.019-3.031 3.711-4.095 7.088-4.095 3.379-.002 5.959-2.696 2.734-4.721z"/><path class="st57" d="M476.06 1437.45c1.79-5.335-4.548-10.031-8.294-9.678-17.512 7.634-26.007 12.176-31.993 10.406-25.183-11.768-14.92 19.202 0 20.512 17.463 1.53 26.323-10.47 40.287-21.24z"/><g><path class="st57" d="M403.156 1398.083c-12.666 2.771-28.539 10.867-17.979 32.945 7.208 15.069 17.979-32.945 17.979-32.945z"/><linearGradient id="SVGID_34_" gradientUnits="userSpaceOnUse" x1="3145.202" y1="544.22" x2="3233.17" y2="544.22" gradientTransform="rotate(180 1806.9 1009.945)"><stop offset="0" stop-color="#dd3b10"/><stop offset=".126" stop-color="#e3470f"/><stop offset=".467" stop-color="#f1620d"/><stop offset=".769" stop-color="#f9720b"/><stop offset="1" stop-color="#fc780b"/></linearGradient><path class="st58" d="M405.461 1545.55c24.805 13.919 58.493 8.837 63.136-10.726-16.888-56.667-20.692-94.34-20.289-117.383-10.943-8.449-20.266-15.962-28.282-17.756-8.373-1.875-19.45-3.324-24.333 1.357-15.227 20.54-11.255 56.054-15.064 109.58 2.622 17.134 12.617 28.078 24.832 34.928z"/><path class="st56" d="M408.46 1399.089c4.224-3.984 5.506-10.421 6.209-17.712-.436-4.019-.184-8.305.916-12.649 3.951-15.626 17.066-25.784 29.3-22.689 12.23 3.094 18.947 18.265 14.998 33.885-3.66 14.476-16.368 22.473-27.762 23.66-.569 1.234 1.574 3.011 3.566 4.295-9.346 2.481-18.011-2.418-22.61-4.921-2.38-1.293-4.065-2.539-4.617-3.869z"/></g><path class="st56" d="M517.615 1447.392c1.357-.697 3.573-1.855 3.573-1.855.037-.788 2.802-9.558 10.275-11.757 1.536 2.331-1.107 4.221-3.265 6.402 2.594-2.075 5.971-4.154 7.464-5.192 1.495-1.039 6.88-2.327 10.258-.719.751.356 3.282 1.432 5.216 2.648 3.227 2.025.648 4.718-2.73 4.718s-4.072 1.063-7.09 4.095c-3.018 3.028-5.685 9.761-15.68 9.124-1.051-.066-2.255.845-2.255.845l-5.766-8.309z"/><linearGradient id="SVGID_35_" gradientUnits="userSpaceOnUse" x1="3614.693" y1="582.379" x2="3517.994" y2="556.276" gradientTransform="rotate(180 2022.406 1009.945)"><stop offset="0" stop-color="#fc780b"/><stop offset=".132" stop-color="#f76e0c"/><stop offset=".7" stop-color="#e4490f"/><stop offset="1" stop-color="#dd3b10"/></linearGradient><path class="st59" d="M525.415 1456.254c1.79-5.335-4.549-10.031-8.294-9.674-17.513 7.632-26.007 12.172-31.993 10.405-25.183-11.772-30.571-33.763-36.819-39.544-14.052-10.002-30.968 12.128-12.54 32.065 19.445 18.211 34.438 26.679 49.359 27.987 17.461 1.532 26.323-10.465 40.287-21.239z"/><path class="st47" d="M412.421 1365.704c.003-.015-.016-.006-.01-.028 2.624-7.805 6.448-14.546 12.963-18.87 17.101-11.355 24.123-10.232 25.756-7.629 18.366-2.238 22.455 7.503 9.887 21.411-3.58 4.769-1.967 17.951-8.329 19.877.74-2.992-3.858-11.501-7.214 1.777-.359 1.425.634 1.974-.783 3.627-1.42 1.651-8.649 4.895-13.635 7.86-6.957 4.154-8.959-1.656-18.385-2.974.994-3.932.479-6.17-.298-8.98-.487-1.781-1.361-8.688.048-16.071z"/></g></g></g><g id="Gear"><linearGradient id="SVGID_36_" gradientUnits="userSpaceOnUse" x1="676.783" y1="856.587" x2="938.536" y2="856.587" gradientTransform="matrix(1 0 0 -1 0 2019.89)"><stop offset="0" stop-color="#d1d6f0"/><stop offset=".29" stop-color="#d5daf1"/><stop offset=".592" stop-color="#e2e5f5"/><stop offset=".899" stop-color="#f6f7fc"/><stop offset="1" stop-color="#fff"/></linearGradient><path class="st60" d="M912.697 1190.498c1.001-1.049 2.235-1.801 3.564-2.342h15.717l6.56-14.374-5.915-.913c-1.797-.278-3.858-.865-5.535-1.836-1.908-1.099-3.313-2.689-3.289-4.868a38.184 38.184 0 0 0-.011-5.72c-.128-4.104 4.882-6.111 8.705-6.707l5.93-.919-6.734-14.359H916a11.768 11.768 0 0 1-1.497-.719 9.837 9.837 0 0 1-2.112-1.623 63.351 63.351 0 0 0-4.964-4.966c-3.654-3.528-1.042-6.724 1.753-8.344l4.313-2.51-18.209-10.519-4.323 2.516c-2.783 1.618-8.3 3.148-14.401 1.039a138.04 138.04 0 0 0-8.581-2.864c-1.121-.362-2.048-.773-2.818-1.216-3.493-2.019-3.672-4.714-2.857-6.533l1.569-3.415-24.822-3.854-1.569 3.426c-1.004 2.216-4.451 5.133-11.531 5.083a194.812 194.812 0 0 0-9.878-.011c-3.769.039-6.521-.776-8.435-1.881-1.666-.962-2.689-2.151-3.184-3.184l-1.594-3.433-24.783 3.854 1.615 3.415c1.03 2.223.575 5.745-5.583 7.749a134.464 134.464 0 0 0-8.555 2.866c-6.074 2.094-11.603.584-14.405-1.043l-4.358-2.516-18.094 10.519 4.349 2.51c2.803 1.621 5.454 4.816 1.854 8.344a60.721 60.721 0 0 0-4.921 4.973c-3.433 3.571-9.507 3.843-13.338 3.256l-5.94-.919-6.569 14.359 5.928.926c1.788.276 3.852.856 5.529 1.827 1.899 1.099 3.313 2.689 3.291 4.873a36.675 36.675 0 0 0 .007 5.712c.045 1.509-.599 2.728-1.627 3.708h-40.476v18.292h49.899c.509.204 1.006.432 1.477.706a9.648 9.648 0 0 1 2.112 1.627 64.613 64.613 0 0 0 4.988 4.964c.695.674 1.156 1.33 1.441 1.968h-23.507v19.404h35.551v-.794l2.965-1.716c2.785-1.627 8.301-3.148 14.41-1.045 1.09.408 2.199.788 3.31 1.171v16.714h33.985v-.036l.207.036 1.575-3.43a4.58 4.58 0 0 1 .419-.745v4.175h34.2l24.777-3.843-1.605-3.426c-.926-1.983-.644-5.008 3.837-7.06h29.058l18.098-10.519-4.34-2.501c-2.815-1.623-5.464-4.825-1.86-8.351a63.333 63.333 0 0 0 4.916-4.958zm-58.304-8.108c-18.214 10.591-47.886 10.597-66.235.006-18.346-10.597-18.433-27.779-.215-38.369 18.239-10.597 47.895-10.586 66.243 0 18.348 10.596 18.44 27.765.207 38.363z"/><linearGradient id="SVGID_37_" gradientUnits="userSpaceOnUse" x1="740.502" y1="893.265" x2="833.504" y2="893.265" gradientTransform="matrix(1 0 0 -1 0 2019.89)"><stop offset="0" stop-color="#bbbfe2"/><stop offset="1" stop-color="#ced2f4"/></linearGradient><path class="st61" d="M819.78 1113.303c-18.214-10.525-47.669-10.532-65.774 0-16.106 9.352-17.794 23.903-5.125 34.404a38.194 38.194 0 0 1 5.125-3.547c18.103-10.523 47.56-10.519 65.774 0a38.094 38.094 0 0 1 5.337 3.684c12.746-10.509 10.96-25.136-5.337-34.541z"/><path class="st62" d="M828.2 1071.761a4.542 4.542 0 0 0-.41 1.84l-.087 30.959c0-.662.156-1.291.408-1.842l1.569-3.415.087-30.968-1.567 3.426zM745.577 1071.761l-1.605-3.426-.089 30.968 1.608 3.415a4.56 4.56 0 0 1 .432 1.926l.087-30.965a4.523 4.523 0 0 0-.433-1.918zM875.065 1091.842c-1.801 1.049-3.534 2.759-3.547 4.796l-.084 30.963c.006-2.027 1.734-3.747 3.547-4.795l4.319-2.51.087-30.963-4.322 2.509z"/><path class="st63" d="M698.932 1091.842l-4.343-2.51-.093 30.963 4.352 2.51c1.834 1.058 3.604 2.789 3.6 4.853l.084-30.959c.006-2.06-1.761-3.8-3.6-4.857z"/><path class="st62" d="M898.377 1122.775c-3.759.587-8.696 2.552-8.699 6.539l-.096 30.965c.015-3.992 4.945-5.952 8.716-6.541l5.928-.919.087-30.963-5.936.919z"/><path class="st64" d="M889.794 1132.575l-.09 30.965c0 .872-.035 1.753-.104 2.624l.093-30.959c.062-.875.096-1.75.101-2.63z"/><path class="st63" d="M684.756 1134.6l.015-5.119c.018-2.187-1.386-3.774-3.289-4.87-1.683-.967-3.747-1.558-5.531-1.836l-5.924-.913-.089 30.956 5.928.926c1.788.276 3.846.856 5.529 1.827 1.615.932 2.861 2.22 3.196 3.917l-.011 3.619c0 1.016.039 2.037.117 3.05l.09-30.963c-.026-.199-.017-.399-.031-.594z"/><path class="st64" d="M684.782 1135.354l-.09 30.959v-.158l.09-30.963v.162z"/><path class="st62" d="M904.433 1142.822l-.09 30.959-6.565 14.375.086-30.968z"/><path class="st63" d="M676.871 1157.188l-.089 30.968-6.724-14.366.093-30.968z"/><linearGradient id="SVGID_38_" gradientUnits="userSpaceOnUse" x1="871.835" y1="842.408" x2="897.864" y2="842.408" gradientTransform="matrix(1 0 0 -1 0 2019.89)"><stop offset="0" stop-color="#a5acd4"/><stop offset=".635" stop-color="#bec3e7"/><stop offset="1" stop-color="#ced2f4"/></linearGradient><path class="st65" d="M891.927 1156.267c-3.822-.591-9.902-.315-13.338 3.268a61.292 61.292 0 0 1-4.918 4.951c-1.249 1.223-1.749 2.403-1.749 3.487l-.087 30.965c0-1.084.504-2.268 1.749-3.487a61.977 61.977 0 0 0 4.918-4.955c3.432-3.582 9.515-3.858 13.338-3.265l5.937.923.087-30.968-5.937-.919z"/><linearGradient id="SVGID_39_" gradientUnits="userSpaceOnUse" x1="676.782" y1="842.378" x2="702.938" y2="842.378" gradientTransform="matrix(1 0 0 -1 0 2019.89)"><stop offset="0" stop-color="#bbbfe2"/><stop offset="1" stop-color="#ced2f4"/></linearGradient><path class="st66" d="M701.149 1164.486a61.942 61.942 0 0 1-4.984-4.96 9.29 9.29 0 0 0-2.112-1.62c-3.498-2.027-8.147-2.124-11.277-1.638l-5.904.919-.089 30.968 5.913-.923c3.124-.488 7.775-.386 11.266 1.629a9.802 9.802 0 0 1 2.118 1.627c1.507 1.692 3.181 3.343 4.979 4.964 1.288 1.247 1.797 2.444 1.794 3.547l.087-30.963c-.003-1.1-.513-2.301-1.791-3.55z"/><path class="st62" d="M879.868 1175.347l-.086 30.957-18.089 10.519.084-30.962z"/><path class="st63" d="M713.282 1185.861l-.089 30.962-18.211-10.519.089-30.957z"/><linearGradient id="SVGID_40_" gradientUnits="userSpaceOnUse" x1="828.361" y1="818.262" x2="861.776" y2="818.262" gradientTransform="matrix(1 0 0 -1 0 2019.89)"><stop offset="0" stop-color="#a5acd4"/><stop offset=".516" stop-color="#bcc2e6"/><stop offset="1" stop-color="#ced2f4"/></linearGradient><path class="st67" d="M857.419 1183.345c-2.813-1.615-8.331-3.133-14.405-1.025a146.59 146.59 0 0 1-8.555 2.861c-4.583 1.488-6.009 3.816-6.011 5.826l-.087 30.959c.003-2.003 1.438-4.334 6.011-5.826 2.918-.871 5.775-1.83 8.557-2.866 6.066-2.103 11.592-.587 14.401 1.036l4.362 2.513.084-30.963-4.357-2.515z"/><linearGradient id="SVGID_41_" gradientUnits="userSpaceOnUse" x1="713.193" y1="818.228" x2="746.675" y2="818.228" gradientTransform="matrix(1 0 0 -1 0 2019.89)"><stop offset="0" stop-color="#bbbfe2"/><stop offset="1" stop-color="#ced2f4"/></linearGradient><path class="st68" d="M743.412 1186.394c-.773-.443-1.716-.854-2.828-1.216a138.794 138.794 0 0 1-8.576-2.869c-6.107-2.109-11.622-.578-14.41 1.036l-4.316 2.516-.09 30.962 4.323-2.51c2.785-1.627 8.297-3.148 14.405-1.045a131.275 131.275 0 0 0 8.579 2.867c1.117.365 2.049.773 2.822 1.222 2.444 1.414 3.271 3.148 3.261 4.688l.093-30.963c.002-1.538-.824-3.274-3.263-4.688z"/><path class="st62" d="M830.488 1196.348l-.092 30.961-24.781 3.843.094-30.961z"/><linearGradient id="SVGID_42_" gradientUnits="userSpaceOnUse" x1="769.43" y1="808.475" x2="805.709" y2="808.475" gradientTransform="matrix(1 0 0 -1 0 2019.89)"><stop offset="0" stop-color="#bbbfe2"/><stop offset="1" stop-color="#ced2f4"/></linearGradient><path class="st69" d="M804.103 1196.763c-.485-1.039-1.51-2.231-3.181-3.196-1.905-1.102-4.655-1.914-8.429-1.879-3.276.078-6.581.078-9.878-.009-7.071-.048-10.51 2.87-11.535 5.083l-1.566 3.426-.084 30.963 1.56-3.43c1.025-2.213 4.466-5.127 11.538-5.083 3.295.089 6.595.089 9.878.011 3.771-.033 6.521.775 8.429 1.875 1.675.967 2.693 2.157 3.178 3.196l1.603 3.43.093-30.963-1.606-3.424z"/><path class="st70" d="M875.528 1172.84l4.34 2.507-18.092 10.514-4.358-2.516c-2.813-1.615-8.33-3.133-14.405-1.025a146.59 146.59 0 0 1-8.555 2.861c-6.165 2.007-6.619 5.529-5.583 7.74l1.612 3.426-24.78 3.843-1.605-3.426c-.485-1.039-1.51-2.231-3.181-3.196-1.905-1.102-4.655-1.914-8.429-1.879-3.276.078-6.581.078-9.878-.009-7.071-.048-10.51 2.87-11.535 5.083l-1.566 3.426-24.819-3.843 1.569-3.439c.83-1.812.632-4.496-2.852-6.515-.773-.443-1.716-.854-2.828-1.216a138.794 138.794 0 0 1-8.576-2.869c-6.107-2.109-11.622-.578-14.41 1.036l-4.316 2.516-18.211-10.514 4.319-2.516c2.789-1.62 5.407-4.807 1.758-8.345a61.942 61.942 0 0 1-4.984-4.96 9.525 9.525 0 0 0-2.112-1.627c-3.498-2.022-8.147-2.118-11.277-1.632l-5.904.919-6.721-14.366 5.915-.913c3.819-.599 8.833-2.606 8.716-6.715a36.55 36.55 0 0 1-.011-5.712c.018-2.186-1.386-3.774-3.289-4.87-1.683-.967-3.747-1.558-5.531-1.836l-5.924-.914 6.565-14.363 5.942.917c3.819.59 9.894.306 13.335-3.259a61.824 61.824 0 0 1 4.921-4.969c3.6-3.528.949-6.727-1.857-8.344l-4.343-2.51 18.092-10.514 4.356 2.509c2.807 1.623 8.333 3.142 14.405 1.043a134.886 134.886 0 0 1 8.555-2.867c6.165-2.001 6.619-5.529 5.583-7.743l-1.605-3.426 24.78-3.845 1.594 3.43c.485 1.036 1.51 2.223 3.184 3.191 1.905 1.099 4.66 1.914 8.435 1.881 3.276-.078 6.581-.078 9.878.006 7.078.05 10.532-2.867 11.535-5.083l1.567-3.426 24.822 3.849-1.566 3.426c-.826 1.809-.647 4.508 2.848 6.53.769.443 1.701.851 2.815 1.214 2.92.871 5.79 1.824 8.588 2.866 6.104 2.099 11.616.582 14.398-1.045l4.328-2.513 18.209 10.519-4.323 2.51c-2.785 1.618-5.4 4.817-1.746 8.348a65.47 65.47 0 0 1 4.966 4.96 9.62 9.62 0 0 0 2.112 1.633c3.495 2.016 8.162 2.112 11.279 1.627l5.907-.91 6.73 14.357-5.937.919c-3.813.599-8.827 2.605-8.696 6.706.144 1.905.156 3.813.011 5.724-.03 2.174 1.384 3.771 3.287 4.868 1.681.971 3.739 1.56 5.531 1.836l5.922.914-6.569 14.366-5.937-.919c-3.822-.591-9.902-.315-13.338 3.268a61.292 61.292 0 0 1-4.918 4.951c-3.608 3.525-.954 6.721 1.858 8.35zm-121.476-21.404c18.35 10.591 48.014 10.58 66.235-.009 18.235-10.601 18.139-27.77-.207-38.36-18.346-10.595-48.005-10.604-66.247 0-18.212 10.588-18.128 27.778.219 38.369z"/><path class="st63" d="M769.513 1200.191l-.083 30.961-24.829-3.843.094-30.961z"/><path class="st71" d="M833.468 1107.825c-25.828-14.905-67.562-14.916-93.238 0-12.218 7.104-18.57 16.31-19.104 25.615.5 9.418 6.958 18.766 19.413 25.945 25.826 14.913 67.568 14.896 93.22-.009 12.233-7.108 18.589-16.313 19.115-25.613-.502-9.417-6.96-18.75-19.406-25.938zm-13.481 43.602c-18.092 10.514-47.547 10.525-65.771.009-8.614-4.979-13.169-11.421-13.667-17.944.509-6.443 4.993-12.793 13.458-17.708 18.103-10.523 47.56-10.523 65.774 0 8.627 4.972 13.18 11.412 13.68 17.935-.517 6.437-5 12.787-13.474 17.708z"/><linearGradient id="SVGID_43_" gradientUnits="userSpaceOnUse" x1="721.095" y1="905.94" x2="852.913" y2="905.94" gradientTransform="matrix(1 0 0 -1 0 2019.89)"><stop offset="0" stop-color="#bbbfe2"/><stop offset="1" stop-color="#ced2f4"/></linearGradient><path class="st72" d="M740.231 1107.825c25.676-14.916 67.41-14.905 93.238 0 12.439 7.186 18.904 16.51 19.406 25.915.593-10.229-5.874-20.583-19.406-28.398-25.828-14.907-67.562-14.913-93.238 0-13.302 7.731-19.649 17.951-19.104 28.078.543-9.3 6.893-18.496 19.104-25.595z"/></g><g id="Person_symbol"><linearGradient id="SVGID_44_" gradientUnits="userSpaceOnUse" x1="1030.322" y1="335.286" x2="1219.139" y2="335.286" gradientTransform="matrix(1 0 0 -1 0 2019.89)"><stop offset=".366" stop-color="#c4cae8"/><stop offset=".524" stop-color="#cdd2ec"/><stop offset=".781" stop-color="#e5e8f5"/><stop offset="1" stop-color="#fff"/></linearGradient><path class="st73" d="M1213.997 1677.408l-68.778-39.519c-6.856-3.96-34.121-3.96-40.973 0l-68.785 39.516c-6.854 3.959-6.854 10.432 0 14.391l64.406 37.007v5.484h32.886c4.517 0 9.036-.989 12.463-2.967l68.78-39.519c6.857-3.958 6.857-10.438.001-14.393z"/><path class="st2" d="M1112.34 1708.604c-6.856 3.959-18.073 3.959-24.924 0l-68.782-39.523c-6.854-3.959-6.854-10.432 0-14.387l68.785-39.519c6.851-3.959 18.068-3.959 24.924 0l68.78 39.519c6.854 3.959 6.854 10.435 0 14.393l-68.783 39.517z"/><linearGradient id="SVGID_45_" gradientUnits="userSpaceOnUse" x1="1013.494" y1="321.803" x2="1186.244" y2="321.803" gradientTransform="matrix(1 0 0 -1 0 2019.89)"><stop offset=".458" stop-color="#fc780b"/><stop offset=".46" stop-color="#fc770b"/><stop offset=".576" stop-color="#e54c0f"/><stop offset=".635" stop-color="#dd3b10"/></linearGradient><path class="st74" d="M1018.634 1669.081l68.782 39.521c6.851 3.959 18.068 3.959 24.924 0l68.785-39.519c3.128-1.807 4.811-4.137 5.08-6.517h.002v21.401c.048.425.048.848 0 1.272v.05h-.002c-.271 2.374-1.956 4.704-5.08 6.511l-68.785 39.519c-6.856 3.958-18.073 3.958-24.924 0l-68.782-39.521c-3.487-2.01-5.189-4.675-5.129-7.33l-.011-16.896v-5.687c-.001 2.608 1.715 5.217 5.14 7.196z"/><path class="st75" d="M1090.924 1658.031c-1.255-3.542.671-7.533 5.751-10.465 7.715-4.458 19.671-4.77 26.715-.704 7.032 4.061 6.483 10.975-1.232 15.425-5.073 2.932-11.979 4.034-18.114 3.312 7.143 8.316 4.716 17.631-2.859 21.998-1.825-1.068-24.172-13.964-24.172-13.964l-24.19-13.959c7.566-4.371 23.705-5.773 38.101-1.643z"/></g></g></svg>