<svg id="Layer_1" xmlns="http://www.w3.org/2000/svg" viewBox="0 0 2290.884 2020.845"><style>.st0{fill:#f6f6fb}.st1{fill:#e8ecf7}.st2{fill:url(#SVGID_1_)}.st3{fill:url(#SVGID_2_)}.st4{fill:url(#SVGID_3_)}.st5{fill:url(#SVGID_4_)}.st6{fill:url(#SVGID_5_)}.st7{fill:url(#SVGID_6_)}.st8{fill:url(#SVGID_7_)}.st9{fill:url(#SVGID_8_)}.st10{fill:url(#SVGID_9_)}.st11{fill:url(#SVGID_10_)}.st12{fill:url(#SVGID_11_)}.st13{fill:url(#SVGID_12_)}.st14{fill:url(#SVGID_13_)}.st15{fill:url(#SVGID_14_)}.st16{fill:url(#SVGID_15_)}.st17{fill:#f1f3f9}.st18{fill:url(#SVGID_16_)}.st19{fill:url(#SVGID_17_)}.st20{fill:url(#SVGID_18_)}.st21{fill:url(#SVGID_19_)}.st22{fill:url(#SVGID_20_)}.st23{fill:#bbc0e6}.st24{fill:url(#SVGID_21_)}.st25{fill:url(#SVGID_22_)}.st26{fill:#efeff3}.st27{fill:#ced3f8}.st28{fill:#fff}.st29{fill:#dae0f5}.st30{fill:url(#SVGID_23_)}.st31{fill:url(#SVGID_24_)}.st32{fill:#423eaf}.st33{fill:#362e94}.st34{fill:#ff4f5b}.st35{fill:#5652cc}.st36{fill:#ffad02}.st37{fill:url(#SVGID_25_)}.st38{fill:#eff2f9}.st39{fill:url(#SVGID_26_)}.st40{fill:url(#SVGID_27_)}.st41{fill:url(#SVGID_28_)}.st42{fill:url(#SVGID_29_)}.st43{fill:url(#SVGID_30_)}.st44{fill:url(#SVGID_31_)}.st45{fill:url(#SVGID_32_)}.st46{fill:url(#SVGID_33_)}.st47{fill:url(#SVGID_34_)}.st48{fill:url(#SVGID_35_)}.st49{fill:url(#SVGID_36_)}.st50{fill:#1967a7}.st51{fill:#f1f1f6}.st52{fill:url(#SVGID_37_)}.st53{fill:url(#SVGID_38_)}.st54{fill:url(#SVGID_39_)}.st55{fill:#a5abcc}.st56{fill:#ff826a}.st57{fill:url(#SVGID_40_)}.st58{fill:url(#SVGID_41_)}.st59{fill:url(#SVGID_42_)}.st60{fill:url(#SVGID_43_)}.st61{fill:url(#SVGID_44_)}.st62{fill:url(#SVGID_45_)}.st63{fill:url(#SVGID_46_)}.st64{fill:url(#SVGID_47_)}.st65{fill:url(#SVGID_48_)}.st66{fill:url(#SVGID_49_)}.st67{fill:#d1d7f3}.st68{fill:url(#SVGID_50_)}.st69{fill:url(#SVGID_51_)}.st70{fill:#facfa7}.st71{fill:url(#SVGID_52_)}.st72{fill:url(#SVGID_53_)}.st73{fill:url(#SVGID_54_)}.st74{fill:#131147}.st75{fill:#fcd1a9}.st76{fill:#20196f}.st77{fill:url(#SVGID_55_)}.st78{fill:url(#SVGID_56_)}.st79{fill:url(#SVGID_57_)}.st80{fill:url(#SVGID_58_)}.st81{fill:url(#SVGID_59_)}</style><g id="Objects"><path class="st0" d="M1262.56 1451.015l154.633 89.277-154.632 89.276-154.631-89.276z"/><path class="st1" d="M1107.929 1361.739l154.631 89.276-154.63 89.277-154.632-89.278z"/><path class="st0" d="M953.297 1272.462l154.633 89.277-154.632 89.276-154.631-89.277z"/><path class="st1" d="M798.666 1183.185l154.631 89.277-154.63 89.276-154.632-89.277z"/><path class="st0" d="M644.035 1093.909l154.632 89.276-154.631 89.276-154.632-89.276z"/><path class="st1" d="M489.403 1004.632l154.632 89.277-154.631 89.276-154.632-89.278z"/><path class="st0" d="M1262.56 1272.462l154.633 89.277-154.632 89.276-154.631-89.276z"/><path class="st1" d="M1107.929 1183.185l154.631 89.277-154.63 89.277-154.632-89.278z"/><path class="st0" d="M953.297 1093.909l154.633 89.276-154.632 89.277-154.631-89.277z"/><path class="st1" d="M798.666 1004.632l154.631 89.277-154.63 89.276-154.632-89.276z"/><path class="st0" d="M644.035 915.356l154.632 89.276-154.631 89.277-154.632-89.277z"/><path class="st1" d="M1417.193 1361.739l154.631 89.277-154.631 89.276-154.632-89.277z"/><path class="st0" d="M1571.823 1272.462l154.632 89.278-154.631 89.276-154.631-89.277z"/><path class="st1" d="M1417.191 1183.186l154.632 89.276-154.63 89.277-154.633-89.277z"/><path class="st0" d="M1262.56 1093.91l154.632 89.276-154.631 89.276-154.631-89.277z"/><path class="st1" d="M1107.928 1004.632l154.632 89.278-154.63 89.275-154.633-89.276z"/><path class="st0" d="M953.297 915.357l154.633 89.276-154.632 89.277-154.631-89.278z"/><path class="st1" d="M798.666 826.079l154.631 89.278-154.63 89.275-154.632-89.276z"/><path class="st0" d="M1571.823 1093.91l154.632 89.277-154.631 89.275-154.631-89.276z"/><path class="st1" d="M1417.191 1004.633l154.632 89.277-154.63 89.276-154.633-89.276z"/><path class="st0" d="M1262.56 915.357l154.632 89.276-154.631 89.277-154.631-89.278z"/><path class="st1" d="M1107.928 826.079l154.632 89.278-154.63 89.275-154.633-89.276z"/><path class="st0" d="M953.297 736.803l154.633 89.276-154.632 89.278-154.631-89.278z"/><path class="st1" d="M1726.455 1183.187l154.631 89.277-154.63 89.276-154.632-89.278z"/><path class="st0" d="M1881.086 1093.911l154.632 89.276-154.632 89.277-154.631-89.277z"/><path class="st1" d="M1726.455 1004.633l154.631 89.278-154.631 89.276-154.632-89.277z"/><path class="st0" d="M1571.823 915.357l154.632 89.277-154.631 89.276-154.632-89.277z"/><path class="st1" d="M1417.191 826.081l154.632 89.276-154.631 89.276-154.632-89.276z"/><path class="st0" d="M1262.56 736.804l154.632 89.277-154.631 89.276-154.631-89.278z"/><path class="st1" d="M1107.928 647.528l154.632 89.276-154.63 89.275-154.633-89.276z"/><path class="st0" d="M1881.086 915.357l154.632 89.277-154.632 89.277-154.631-89.278z"/><path class="st1" d="M1726.455 826.081l154.631 89.276-154.631 89.276-154.632-89.276z"/><path class="st0" d="M1571.823 736.804l154.632 89.277-154.631 89.276-154.632-89.276z"/><path class="st1" d="M1417.191 647.528l154.632 89.276-154.631 89.277-154.632-89.277z"/><path class="st0" d="M1262.56 558.251l154.632 89.277-154.631 89.276-154.631-89.276z"/><path class="st1" d="M2035.718 1004.634l154.632 89.277-154.631 89.276-154.633-89.276z"/><linearGradient id="SVGID_1_" gradientUnits="userSpaceOnUse" x1="1093.31" y1="152.684" x2="1238.523" y2="404.2" gradientTransform="matrix(1 0 0 -1 0 2019.89)"><stop offset=".188" stop-color="#fff"/><stop offset="1" stop-color="#efeff3"/></linearGradient><path class="st2" d="M1107.93 1875.646h154.631v-246.078l-154.631-89.276z"/><linearGradient id="SVGID_2_" gradientUnits="userSpaceOnUse" x1="938.678" y1="241.96" x2="1083.892" y2="493.477" gradientTransform="matrix(1 0 0 -1 0 2019.89)"><stop offset=".194" stop-color="#fff"/><stop offset="1" stop-color="#d1d7f3"/></linearGradient><path class="st3" d="M953.298 1786.37h154.632v-246.078l-154.632-89.278z"/><linearGradient id="SVGID_3_" gradientUnits="userSpaceOnUse" x1="784.046" y1="331.238" x2="929.26" y2="582.754" gradientTransform="matrix(1 0 0 -1 0 2019.89)"><stop offset=".188" stop-color="#fff"/><stop offset="1" stop-color="#efeff3"/></linearGradient><path class="st4" d="M798.666 1697.093h154.632v-246.079l-154.632-89.276z"/><linearGradient id="SVGID_4_" gradientUnits="userSpaceOnUse" x1="629.414" y1="420.514" x2="774.628" y2="672.03" gradientTransform="matrix(1 0 0 -1 0 2019.89)"><stop offset=".194" stop-color="#fff"/><stop offset="1" stop-color="#d1d7f3"/></linearGradient><path class="st5" d="M644.034 1607.816h154.632v-246.078l-154.632-89.277z"/><linearGradient id="SVGID_5_" gradientUnits="userSpaceOnUse" x1="474.783" y1="509.791" x2="619.996" y2="761.308" gradientTransform="matrix(1 0 0 -1 0 2019.89)"><stop offset=".188" stop-color="#fff"/><stop offset="1" stop-color="#efeff3"/></linearGradient><path class="st6" d="M489.403 1518.54h154.631v-246.079l-154.631-89.277z"/><linearGradient id="SVGID_6_" gradientUnits="userSpaceOnUse" x1="320.151" y1="599.068" x2="465.364" y2="850.584" gradientTransform="matrix(1 0 0 -1 0 2019.89)"><stop offset=".194" stop-color="#fff"/><stop offset="1" stop-color="#d1d7f3"/></linearGradient><path class="st7" d="M334.771 1429.262h154.632v-246.078l-154.632-89.277z"/><linearGradient id="SVGID_7_" gradientUnits="userSpaceOnUse" x1="2800.61" y1="152.684" x2="2945.823" y2="404.2" gradientTransform="rotate(180 2116.211 1009.945)"><stop offset=".188" stop-color="#fff"/><stop offset="1" stop-color="#dae0f5"/></linearGradient><path class="st8" d="M1417.193 1875.646h-154.632v-246.078l154.632-89.276z"/><linearGradient id="SVGID_8_" gradientUnits="userSpaceOnUse" x1="2645.977" y1="241.96" x2="2791.191" y2="493.477" gradientTransform="rotate(180 2116.211 1009.945)"><stop offset=".194" stop-color="#fff"/><stop offset="1" stop-color="#bbc0e6"/></linearGradient><path class="st9" d="M1571.826 1786.37h-154.633v-246.078l154.633-89.278z"/><linearGradient id="SVGID_9_" gradientUnits="userSpaceOnUse" x1="2491.346" y1="331.238" x2="2636.559" y2="582.754" gradientTransform="rotate(180 2116.211 1009.945)"><stop offset=".188" stop-color="#fff"/><stop offset="1" stop-color="#dae0f5"/></linearGradient><path class="st10" d="M1726.457 1697.093h-154.631v-246.079l154.631-89.276z"/><linearGradient id="SVGID_10_" gradientUnits="userSpaceOnUse" x1="2336.714" y1="420.514" x2="2481.927" y2="672.03" gradientTransform="rotate(180 2116.211 1009.945)"><stop offset=".194" stop-color="#fff"/><stop offset="1" stop-color="#bbc0e6"/></linearGradient><path class="st11" d="M1881.089 1607.816h-154.632v-246.078l154.632-89.277z"/><linearGradient id="SVGID_11_" gradientUnits="userSpaceOnUse" x1="2182.082" y1="509.791" x2="2327.296" y2="761.308" gradientTransform="rotate(180 2116.211 1009.945)"><stop offset=".188" stop-color="#fff"/><stop offset="1" stop-color="#dae0f5"/></linearGradient><path class="st12" d="M2035.72 1518.54h-154.631v-246.079l154.631-89.277z"/><linearGradient id="SVGID_12_" gradientUnits="userSpaceOnUse" x1="2027.45" y1="599.068" x2="2172.664" y2="850.585" gradientTransform="rotate(180 2116.211 1009.945)"><stop offset=".194" stop-color="#fff"/><stop offset="1" stop-color="#bbc0e6"/></linearGradient><path class="st13" d="M2190.353 1429.262H2035.72v-246.078l154.633-89.277z"/><linearGradient id="SVGID_13_" gradientUnits="userSpaceOnUse" x1="1881.086" y1="925.979" x2="2132.291" y2="925.979" gradientTransform="matrix(1 0 0 -1 0 2019.89)"><stop offset="0" stop-color="#cfd5f1"/><stop offset=".168" stop-color="#d8ddf3"/><stop offset=".675" stop-color="#eeeff9"/><stop offset="1" stop-color="#f6f6fb"/></linearGradient><path class="st14" d="M2074.231 1093.911l58.059-33.521-96.572-55.756-154.632 89.277 154.633 89.276 96.572-55.756z"/><linearGradient id="SVGID_14_" gradientUnits="userSpaceOnUse" x1="1571.826" y1="716.732" x2="1774.751" y2="716.732" gradientTransform="matrix(1 0 0 -1 0 2019.89)"><stop offset="0" stop-color="#dae0f5"/><stop offset=".588" stop-color="#eef0f9"/><stop offset="1" stop-color="#f6f6fb"/></linearGradient><path class="st15" d="M1620.12 1244.578l154.631 89.277-48.294 27.883-154.631-89.278z"/><linearGradient id="SVGID_15_" gradientUnits="userSpaceOnUse" x1="736.153" y1="820.43" x2="736.153" y2="1770.784" gradientTransform="matrix(1 0 0 -1 0 2019.89)"><stop offset=".466" stop-color="#fff"/><stop offset=".829" stop-color="#dfe4f4"/></linearGradient><path class="st16" d="M826.146 249.103L646.16 353.016v427.856h179.986z"/><path class="st17" d="M646.16 353.016L466.181 249.103 646.16 145.199l179.986 103.904z"/><linearGradient id="SVGID_16_" gradientUnits="userSpaceOnUse" x1="556.17" y1="820.43" x2="556.17" y2="1770.784" gradientTransform="matrix(1 0 0 -1 0 2019.89)"><stop offset=".474" stop-color="#fff"/><stop offset=".89" stop-color="#e9edf7"/></linearGradient><path class="st18" d="M646.16 353.016L466.181 249.103v531.769H646.16z"/><linearGradient id="SVGID_17_" gradientUnits="userSpaceOnUse" x1="2201.957" y1="-194.727" x2="2201.957" y2="632.86" gradientTransform="matrix(1 0 0 -1 0 2019.89)"><stop offset=".466" stop-color="#fff"/><stop offset=".829" stop-color="#dfe4f4"/></linearGradient><path class="st19" d="M2290.884 1387.029l-177.854 102.679v360.394h177.854z"/><path class="st0" d="M2113.03 1489.708l-177.84-102.679 177.84-102.674 177.854 102.674z"/><linearGradient id="SVGID_18_" gradientUnits="userSpaceOnUse" x1="2024.11" y1="-194.727" x2="2024.11" y2="632.86" gradientTransform="matrix(1 0 0 -1 0 2019.89)"><stop offset=".474" stop-color="#fff"/><stop offset=".89" stop-color="#e9edf7"/></linearGradient><path class="st20" d="M2113.03 1489.708l-177.84-102.679v463.073h177.84z"/><linearGradient id="SVGID_19_" gradientUnits="userSpaceOnUse" x1="214.516" y1="-95.42" x2="214.516" y2="448.708" gradientTransform="matrix(1 0 0 -1 0 2019.89)"><stop offset=".466" stop-color="#fff"/><stop offset=".829" stop-color="#dfe4f4"/></linearGradient><path class="st21" d="M285.082 1571.181l-141.131 81.479v222.986h141.131z"/><path class="st0" d="M143.951 1652.66L2.828 1571.181l141.123-81.473 141.131 81.473z"/><linearGradient id="SVGID_20_" gradientUnits="userSpaceOnUse" x1="73.39" y1="-95.42" x2="73.39" y2="448.708" gradientTransform="matrix(1 0 0 -1 0 2019.89)"><stop offset=".474" stop-color="#fff"/><stop offset=".89" stop-color="#e9edf7"/></linearGradient><path class="st22" d="M143.951 1652.66L2.828 1571.181v304.465h141.123z"/><path class="st23" d="M1881.086 647.528l-154.631 89.276v57.228l154.631-89.277z"/><path class="st0" d="M1881.086 704.755l154.632 89.277-154.632 89.276-154.631-89.276z"/><linearGradient id="SVGID_21_" gradientUnits="userSpaceOnUse" x1="1726.455" y1="1270.496" x2="1918.555" y2="1270.496" gradientTransform="matrix(1 0 0 -1 0 2019.89)"><stop offset="0" stop-color="#cfd5f1"/><stop offset=".168" stop-color="#d8ddf3"/><stop offset=".675" stop-color="#eeeff9"/><stop offset="1" stop-color="#f6f6fb"/></linearGradient><path class="st24" d="M1918.555 726.388l-117.166 67.645-74.934-.001 154.631-89.277z"/><linearGradient id="SVGID_22_" gradientUnits="userSpaceOnUse" x1="1726.455" y1="19.153" x2="1918.555" y2="19.153" gradientTransform="translate(0 819.517)"><stop offset="0" stop-color="#cfd5f1"/><stop offset=".168" stop-color="#d8ddf3"/><stop offset=".675" stop-color="#eeeff9"/><stop offset="1" stop-color="#f6f6fb"/></linearGradient><path class="st25" d="M1918.555 861.677l-117.166-67.645h-74.934l154.631 89.276z"/><path class="st1" d="M1726.455 736.804l154.631 89.277-154.631 89.276-154.632-89.276zM1417.191 558.251l154.632 89.277-154.631 89.276-154.632-89.277z"/><path class="st0" d="M1262.56 468.974l154.632 89.277-154.631 89.277-154.631-89.278z"/><path class="st26" d="M1107.93 558.25l154.63 89.278v267.829l-154.63-89.278z"/><path class="st27" d="M1262.56 647.528l154.632 89.276v267.83l-154.632-89.277zM1571.823 826.081l154.632 89.276v267.83l-154.632-89.277z"/><path class="st26" d="M1417.191 635.702l154.632 89.277v368.931l-154.632-89.277z"/><path class="st1" d="M1726.455 558.251l154.631 89.277-154.631 89.276-154.632-89.276z"/><path class="st0" d="M1571.823 468.975l154.632 89.276-154.631 89.277-154.632-89.277z"/><path class="st27" d="M1262.56 425.711l154.632 89.277-.001 43.263-154.632-89.277z"/><path class="st23" d="M1571.823 425.711l-154.632 89.277.001 43.263 154.632-89.277z"/><path class="st1" d="M1417.191 336.435l154.632 89.276-154.631 89.277-154.632-89.277z"/><path class="st28" d="M1571.823 546.426l154.632 89.276-154.631 89.277-154.632-89.278z"/><path class="st29" d="M1726.455 635.702l-154.632 89.277.001 101.102 154.632-89.277z"/><path class="st23" d="M1881.086 826.081l-154.631 89.276.001 267.83 154.632-89.277z"/><path class="st29" d="M2035.719 794.032l-154.633 89.276.002 210.602 154.632-89.277z"/><linearGradient id="SVGID_23_" gradientUnits="userSpaceOnUse" x1="1417.191" y1="1506.277" x2="1609.29" y2="1506.277" gradientTransform="matrix(1 0 0 -1 0 2019.89)"><stop offset="0" stop-color="#cfd5f1"/><stop offset=".283" stop-color="#e1e5f6"/><stop offset=".719" stop-color="#f7f8fd"/><stop offset="1" stop-color="#fff"/></linearGradient><path class="st30" d="M1609.29 490.606l-117.165 67.645h-74.934l154.632-89.277z"/><linearGradient id="SVGID_24_" gradientUnits="userSpaceOnUse" x1="1571.823" y1="1238.447" x2="1814.158" y2="1238.447" gradientTransform="matrix(1 0 0 -1 0 2019.89)"><stop offset="0" stop-color="#cfd5f1"/><stop offset=".168" stop-color="#d8ddf3"/><stop offset=".675" stop-color="#eeeff9"/><stop offset="1" stop-color="#f6f6fb"/></linearGradient><path class="st31" d="M1814.157 787.44l-67.22 38.641h-175.114l154.632-89.277z"/><path class="st32" d="M1107.93 558.25l154.63 89.278v267.829l-154.63-89.278zM1262.56 647.528l154.632 89.276v267.83l-154.632-89.277zM1571.823 826.081l154.632 89.276v267.83l-154.632-89.277z"/><path class="st33" d="M1417.191 635.702l154.632 89.277v368.931l-154.632-89.277z"/><path class="st34" d="M1417.191 818.769l-200.565-115.797v-36.036l200.565 115.796zM1572.113 807.111l-154.922-89.445V681.63l154.922 89.444z"/><path class="st35" d="M1460.944 775.309l-43.753-25.26v-9.096l43.753 25.261z"/><path class="st34" d="M1606.343 928.088l-35.272-20.364v-36.037l35.272 20.365z"/><path class="st35" d="M1249.917 745.479l-33.291-19.22v9.095l33.291 19.22zM1269.23 756.63v9.095l147.961 85.426v-9.096zM1241.148 765.677l-24.522-14.157v9.095l24.522 14.157zM1260.462 776.829v9.095l137.784 79.549v-9.095zM1241.148 814.986l-24.522-14.159v9.095l24.522 14.159zM1260.462 826.136v9.095l102.789 59.346v-9.096zM1433.162 809.665l-15.971-9.095v-9.095l15.971 9.095zM1268.026 806.456l-51.4-29.676v9.095l51.4 29.676zM1287.341 817.608v9.095l129.85 74.969v-9.096z"/><path class="st36" d="M1564.599 833.166c-25.992-15.007-47.062-2.841-47.062 27.17 0 30.013 21.07 66.507 47.062 81.512 2.201 1.271 4.351 2.276 6.472 3.163V837.475c-2.121-1.562-4.27-3.038-6.472-4.309zM1571.071 938.577v107.536c22.922 9.583 40.59-2.864 40.59-30.334 0-27.468-17.669-60.318-40.59-77.202z"/><path class="st26" d="M1726.456 1033.247l154.632 89.278-.002 149.939-154.631-89.277z"/><path class="st29" d="M2035.719 1033.247l-154.631 89.278.001 149.939 154.631-89.277z"/><path class="st0" d="M1881.086 943.971l154.633 89.276-154.631 89.276-154.632-89.276z"/><linearGradient id="SVGID_25_" gradientUnits="userSpaceOnUse" x1="1726.456" y1="1031.28" x2="1968.791" y2="1031.28" gradientTransform="matrix(1 0 0 -1 0 2019.89)"><stop offset="0" stop-color="#cfd5f1"/><stop offset=".168" stop-color="#d8ddf3"/><stop offset=".675" stop-color="#eeeff9"/><stop offset="1" stop-color="#f6f6fb"/></linearGradient><path class="st37" d="M1968.791 994.607l-67.221 38.641-175.114-.001 154.633-89.276z"/><path class="st23" d="M1571.824 1135.544l-154.631 89.277v136.917l154.633-89.278z"/><path class="st38" d="M1417.192 1046.267l154.632 89.277-154.631 89.276-154.633-89.276z"/><path class="st27" d="M1417.193 1224.821l-154.632-89.276v136.916l154.631 89.277z"/><linearGradient id="SVGID_26_" gradientUnits="userSpaceOnUse" x1="798.667" y1="1059.895" x2="1107.93" y2="1059.895" gradientTransform="matrix(1 0 0 -1 0 2019.89)"><stop offset="0" stop-color="#dae0f5"/><stop offset=".588" stop-color="#eef0f9"/><stop offset="1" stop-color="#f6f6fb"/></linearGradient><path class="st39" d="M953.298 915.356l154.632 89.277-309.263-.001z"/><path class="st23" d="M953.298 711.552l-154.632 89.276.001 203.804 154.631-89.276z"/><path class="st38" d="M798.665 622.275l154.632 89.277-154.63 89.275-154.633-89.276z"/><path class="st27" d="M798.667 800.828l-154.632-89.276v203.805l154.631 89.275z"/><path class="st29" d="M1726.456 1305.067l-154.632 89.277.002 56.67 154.631-89.276z"/><path class="st28" d="M1571.823 1215.791l154.633 89.276-154.63 89.276-154.633-89.276z"/><path class="st26" d="M1571.826 1394.344l-154.633-89.276v56.671l154.631 89.275z"/><path class="st29" d="M1262.56 858.687l-154.632 89.277.002 56.669 154.631-89.276z"/><linearGradient id="SVGID_27_" gradientUnits="userSpaceOnUse" x1="953.296" y1="1161.203" x2="1262.56" y2="1161.203" gradientTransform="matrix(1 0 0 -1 0 2019.89)"><stop offset="0" stop-color="#dae0f5"/><stop offset=".328" stop-color="#e1e6f7"/><stop offset=".814" stop-color="#f5f7fc"/><stop offset="1" stop-color="#fff"/></linearGradient><path class="st40" d="M1107.928 769.41l154.632 89.277-154.631 89.277-154.633-89.278z"/><linearGradient id="SVGID_28_" gradientUnits="userSpaceOnUse" x1="953.297" y1="1088.229" x2="1107.929" y2="1088.229" gradientTransform="matrix(1 0 0 -1 0 2019.89)"><stop offset="0" stop-color="#d1d7f3"/><stop offset=".378" stop-color="#d8ddf3"/><stop offset=".94" stop-color="#ecedf3"/><stop offset="1" stop-color="#efeff3"/></linearGradient><path class="st41" d="M1107.929 947.964l-154.632-89.277v56.671l154.631 89.275z"/><path class="st29" d="M798.668 1154.851l-154.632 89.277v28.336l154.633-89.276z"/><linearGradient id="SVGID_29_" gradientUnits="userSpaceOnUse" x1="644.036" y1="792.063" x2="823.21" y2="792.063" gradientTransform="matrix(1 0 0 -1 0 2019.89)"><stop offset="0" stop-color="#dae0f5"/><stop offset=".588" stop-color="#eef0f9"/><stop offset="1" stop-color="#f6f6fb"/></linearGradient><path class="st42" d="M823.21 1197.355l-130.093 75.109h-49.081l154.633-89.276z"/><path class="st28" d="M644.035 1065.574l154.633 89.277-154.632 89.276-154.632-89.276z"/><path class="st26" d="M644.036 1244.128l-154.631-89.276v28.336l154.631 89.276z"/><linearGradient id="SVGID_30_" gradientUnits="userSpaceOnUse" x1="1417.193" y1="759.461" x2="1642.147" y2="759.461" gradientTransform="matrix(1 0 0 -1 0 2019.89)"><stop offset="0" stop-color="#dae0f5"/><stop offset=".588" stop-color="#eef0f9"/><stop offset="1" stop-color="#f6f6fb"/></linearGradient><path class="st43" d="M1571.823 1215.791l70.323 40.6-84.31 48.677-140.643-.001z"/><linearGradient id="SVGID_31_" gradientUnits="userSpaceOnUse" x1="1107.93" y1="1059.894" x2="1312.121" y2="1059.894" gradientTransform="matrix(1 0 0 -1 0 2019.89)"><stop offset="0" stop-color="#dae0f5"/><stop offset=".588" stop-color="#eef0f9"/><stop offset="1" stop-color="#f6f6fb"/></linearGradient><path class="st44" d="M1312.121 943.971l-105.126 60.663-99.065-.001 154.631-89.276z"/><linearGradient id="SVGID_32_" gradientUnits="userSpaceOnUse" x1="1262.56" y1="1118.561" x2="1312.121" y2="1118.561" gradientTransform="matrix(1 0 0 -1 0 2019.89)"><stop offset="0" stop-color="#dae0f5"/><stop offset=".588" stop-color="#eef0f9"/><stop offset="1" stop-color="#f6f6fb"/></linearGradient><path class="st45" d="M1312.121 943.971l-49.561-85.284.001 56.67z"/><path class="st23" d="M1262.56 1198.495l-154.631 89.276.001 73.968 154.631-89.278z"/><linearGradient id="SVGID_33_" gradientUnits="userSpaceOnUse" x1="1107.93" y1="702.79" x2="1326.619" y2="702.79" gradientTransform="matrix(1 0 0 -1 0 2019.89)"><stop offset="0" stop-color="#dae0f5"/><stop offset=".588" stop-color="#eef0f9"/><stop offset="1" stop-color="#f6f6fb"/></linearGradient><path class="st46" d="M1326.619 1309.446l-90.575 52.293H1107.93l154.631-89.278z"/><path class="st0" d="M953.296 1019.942l154.633 89.277-154.631 89.277-154.632-89.277z"/><path class="st38" d="M1107.928 1109.219l154.632 89.276-154.63 89.276-154.633-89.276z"/><path class="st26" d="M798.666 1109.219l-.001 73.966 154.633 89.277v-73.966z"/><path class="st27" d="M1107.93 1287.771l-154.632-89.275v73.966l154.631 89.277z"/><path class="st1" d="M823.21 1197.355l-24.542-42.504-.003 28.334z"/><linearGradient id="SVGID_34_" gradientUnits="userSpaceOnUse" x1="1262.56" y1="765.919" x2="1326.619" y2="765.919" gradientTransform="matrix(1 0 0 -1 0 2019.89)"><stop offset="0" stop-color="#dae0f5"/><stop offset=".588" stop-color="#eef0f9"/><stop offset="1" stop-color="#f6f6fb"/></linearGradient><path class="st47" d="M1326.619 1309.446l-64.059-110.951.001 73.966z"/><linearGradient id="SVGID_35_" gradientUnits="userSpaceOnUse" x1="1082.726" y1="795.745" x2="1224.38" y2="795.745" gradientTransform="matrix(1 0 0 -1 13.375 2019.89)"><stop offset="0" stop-color="#c4cae9"/><stop offset="1" stop-color="#fff"/></linearGradient><path class="st48" d="M1233.521 1191.666l-14.574-8.415c5.642 3.259 5.642 8.592 0 11.847l-102.322 59.08c-5.643 3.259-14.879 3.259-20.524 0l14.282 8.243-4.529 2.615h14.578c3.92.048 7.829-.746 10.771-2.443l102.319-59.077c5.645-3.258 5.645-8.588-.001-11.85z"/><linearGradient id="SVGID_36_" gradientUnits="userSpaceOnUse" x1="3097.099" y1="837.013" x2="3485.459" y2="837.013" gradientTransform="rotate(180 2160.384 1009.945)"><stop offset=".264" stop-color="#5652cc"/><stop offset=".293" stop-color="#6460dc"/><stop offset=".337" stop-color="#807dfb"/></linearGradient><path class="st49" d="M839.538 1106.637l255.543 147.542c5.643 3.259 14.879 3.259 20.524 0l103.831-59.946c2.665-1.538 4.056-3.542 4.204-5.574.028 0 .028 8.064.028 8.064 0 2.148-1.412 4.296-4.23 5.927l-103.831 59.943c-5.645 3.259-14.882 3.259-20.524 0l-255.544-147.537c-3.063-1.767-4.446-4.145-4.19-6.469-.041 0-.041-7.87-.041-7.87-.001 2.146 1.407 4.294 4.23 5.92z"/><path class="st50" d="M835.321 1100.519c-.004.069-.014.13-.014.199 0 0 0-.199.014-.199z"/><path class="st28" d="M1115.607 1254.179c-5.645 3.259-14.882 3.259-20.524 0l-255.544-147.542c-5.643-3.254-5.643-8.589 0-11.847l103.829-59.951c5.646-3.254 14.879-3.254 20.524 0l255.544 147.542c5.642 3.262 5.642 8.592 0 11.85l-103.829 59.948z"/><g><path class="st51" d="M955.674 1056.65l-13.015-7.509 13.015-7.517 13.015 7.517zM977.59 1069.312l-13.015-7.517 13.015-7.515 13.015 7.515zM999.512 1081.965l-13.015-7.514 13.015-7.516 13.016 7.516zM1021.431 1094.62l-13.015-7.51 13.015-7.52 13.012 7.52zM1043.35 1107.275l-13.015-7.513 13.015-7.513 13.012 7.513zM1065.269 1119.93l-13.014-7.513 13.014-7.513 13.012 7.513zM1087.189 1132.589l-13.016-7.516 13.016-7.517 13.011 7.517zM1109.107 1145.242l-13.015-7.514 13.015-7.512 13.013 7.512zM1131.028 1157.896l-13.016-7.512 13.016-7.517 13.011 7.517zM1152.946 1170.549l-13.015-7.511 13.015-7.517 13.011 7.517zM1174.862 1183.208l-13.012-7.514 13.012-7.516 13.015 7.516zM1196.785 1195.862l-13.016-7.516 13.016-7.512 13.01 7.512zM944.139 1075.301l-23.399-13.506 13.012-7.515 23.401 13.511zM932.032 1092.578l-32.3-18.655 13.015-7.517 32.3 18.656zM919.02 1110.372l-41.207-23.79 13.015-7.52 41.204 23.797zM874.685 1115.405l-23.395-13.509 17.619-10.175 23.399 13.512zM906.988 1134.056l-23.396-13.513 17.616-10.171 23.399 13.508zM939.291 1152.703l-23.398-13.509 17.619-10.174 23.398 13.511zM1050.668 1217.007l-23.396-13.508 17.621-10.175 23.395 13.512zM1105.411 1248.612l-45.893-26.493 17.619-10.175 45.894 26.496zM1018.42 1198.387l-70.225-40.541 17.623-10.176 70.225 40.546zM972.19 1091.503l-19.148-11.056 13.013-7.517 19.15 11.059zM960.087 1108.772l-19.148-11.056 13.015-7.513 19.148 11.056zM947.671 1126.224l-19.148-11.059 13.016-7.513 19.147 11.055zM975.726 1142.419l-19.151-11.056 13.015-7.514 19.151 11.056zM1003.778 1158.612l-19.148-11.051 13.011-7.517 19.148 11.059zM1031.829 1174.81l-19.148-11.055 13.016-7.513 19.147 11.055zM1059.881 1191.005l-19.148-11.053 13.016-7.512 19.147 11.052zM1087.936 1207.203l-19.148-11.056 13.015-7.514 19.148 11.056zM1132.538 1232.952l-35.699-20.607 13.015-7.514 35.696 20.608zM988.138 1124.97l-19.147-11.056 13.015-7.512 19.148 11.051zM1016.193 1141.165l-19.15-11.056 13.014-7.513 19.148 11.055zM1044.244 1157.362l-19.147-11.055 13.015-7.517 19.148 11.056zM1072.296 1173.557l-19.147-11.053 13.015-7.517 19.148 11.056zM1100.351 1189.755l-19.147-11.056 13.015-7.516 19.147 11.058zM1153.854 1220.642l-44.599-25.749 13.012-7.513 44.602 25.75zM1000.245 1107.699l-19.151-11.058 13.016-7.51 19.148 11.053zM1028.294 1123.894l-19.148-11.056 13.015-7.512 19.147 11.056zM1056.348 1140.092l-19.148-11.056 13.016-7.515 19.147 11.054zM1084.4 1156.29l-19.147-11.059 13.014-7.512 19.148 11.054zM1112.455 1172.481l-19.151-11.052 13.014-7.514 19.148 11.053zM1140.506 1188.678l-19.148-11.051 13.012-7.517 19.151 11.056zM1174.865 1208.515l-25.455-14.694 13.016-7.513 25.451 14.694z"/></g><path class="st29" d="M689.589 1145.663l-2.393-3.532-84.457 19.063 2.391 3.532 84.459-19.063zm-44.172 29.485l39.912.956-1.656-23.043-6.564.157 1.361 18.927-32.782-.785-.271 3.788zm-39.496-22.803l6.563-.156-1.359-18.927 32.78.786.272-3.791-39.911-.956 1.655 23.044zM1608.58 1282.506c-9.006 0-17.014-.414-23.278-4.037-5.894-3.397-6.995-7.864-6.984-13.433l-33.37 19.258c-19.117 11.041-17.542 32.048-10.124 40.791 15.169 4.289 51.542 5.198 70.663-5.846l33.362-19.253c-9.014 0-17.015-.422-23.287-4.041-5.889-3.402-6.982-7.86-6.982-13.439zM1152.459 878.893l2.166 1.25-9.027 5.246-2.174-1.255c-1.404-.805-4.157-1.565-7.187-.515a68.455 68.455 0 0 1-4.269 1.43c-3.074 1.001-3.302 2.759-2.783 3.861l.801 1.711-12.362 1.919-.802-1.711c-.242-.518-.75-1.112-1.586-1.594-.949-.548-2.321-.953-4.205-.936-1.635.04-3.284.04-4.928-.004-3.53-.023-5.246 1.432-5.754 2.536l-.783 1.711-12.384-1.919.786-1.714c.41-.904.316-2.246-1.427-3.251a7.453 7.453 0 0 0-1.408-.61 68.083 68.083 0 0 1-4.278-1.43c-3.049-1.05-5.798-.288-7.188.519l-2.155 1.252-9.087-5.246 2.156-1.252c1.39-.807 2.696-2.403.877-4.163a31.586 31.586 0 0 1-2.486-2.475 4.872 4.872 0 0 0-1.055-.813c-1.744-1.006-4.064-1.056-5.624-.815l-2.948.461-3.353-7.167 2.952-.458c1.904-.299 4.407-1.3 4.347-3.349a18.471 18.471 0 0 1-.004-2.852c.01-1.088-.693-1.881-1.643-2.43-.837-.483-1.866-.776-2.758-.915l-2.956-.459 3.276-7.164 2.965.459c1.907.294 4.937.154 6.651-1.628a31.25 31.25 0 0 1 2.454-2.478c1.799-1.76.476-3.355-.925-4.164l-2.169-1.252 9.027-5.246 2.174 1.255c1.4.808 4.157 1.564 7.186.519a67.176 67.176 0 0 1 4.269-1.43c3.074-1.001 3.3-2.759 2.784-3.865l-.801-1.707 12.362-1.923.798 1.714c.244.515.753 1.108 1.588 1.59.951.549 2.325.955 4.207.938 1.636-.04 3.284-.04 4.928.004 3.533.026 5.253-1.432 5.754-2.536l.783-1.711 12.384 1.923-.783 1.707c-.41.905-.32 2.251 1.424 3.258.384.221.847.426 1.404.607a67.44 67.44 0 0 1 4.285 1.43c3.045 1.048 5.795.287 7.183-.521l2.156-1.252 9.087 5.246-2.156 1.252c-1.39.808-2.695 2.403-.873 4.166a31.798 31.798 0 0 1 2.478 2.475c.314.321.67.589 1.053.812 1.746 1.007 4.071 1.056 5.629.814l2.948-.456 3.357 7.165-2.961.459c-1.904.298-4.407 1.299-4.342 3.346.073.948.078 1.903.008 2.855-.014 1.086.689 1.88 1.639 2.429.836.483 1.865.776 2.761.915l2.953.456-3.276 7.17-2.962-.461c-1.907-.294-4.941-.156-6.656 1.63a30.22 30.22 0 0 1-2.454 2.473c-1.794 1.759-.471 3.354.932 4.164zm-60.604-10.679c9.153 5.285 23.953 5.28 33.043-.002 9.098-5.287 9.05-13.855-.103-19.14s-23.949-5.287-33.047 0c-9.092 5.284-9.047 13.857.107 19.142z"/><g><path class="st29" d="M1220.852 1516.21c5.332-3.079 13.978-3.079 19.31 0 5.332 3.079 5.332 8.07 0 11.148-5.332 3.079-13.978 3.079-19.31 0-5.332-3.077-5.332-8.069 0-11.148zM1252.906 1534.717c5.332-3.079 13.978-3.079 19.31 0 5.332 3.079 5.332 8.069 0 11.148s-13.978 3.079-19.31 0c-5.332-3.078-5.332-8.069 0-11.148zM1284.959 1553.223c5.332-3.079 13.978-3.079 19.31 0 5.332 3.079 5.332 8.07 0 11.148-5.332 3.079-13.978 3.079-19.31 0-5.331-3.077-5.331-8.069 0-11.148z"/></g><linearGradient id="SVGID_37_" gradientUnits="userSpaceOnUse" x1="1384.524" y1="887.006" x2="1509.851" y2="887.006" gradientTransform="matrix(1 0 0 -1 0 2019.89)"><stop offset=".453" stop-color="#c4c9e4"/><stop offset="1" stop-color="#fff"/></linearGradient><path class="st52" d="M1491.346 1107.204c-13.102-7.565-30.519-11.051-47.622-10.538h-26.813v4.394c-5.088 1.607-9.891 3.653-14.192 6.143-24.379 14.178-24.241 37.16.302 51.337 4.226 2.435 8.922 4.428 13.89 6.022v4.587h32.163c15.464-.258 30.796-3.767 42.567-10.605 24.392-14.181 24.266-37.162-.295-51.34z"/><g><path class="st28" d="M1355.808 1116.226c-.002-9.068 5.992-18.133 17.978-25.061 11.984-6.917 27.695-10.378 43.404-10.378 15.703 0 31.412 3.461 43.397 10.378 11.983 6.928 17.976 15.987 17.979 25.059.002 9.068-5.997 18.141-17.979 25.059-11.984 6.92-27.688 10.38-43.394 10.38-15.71 0-31.419-3.465-43.404-10.38-11.987-6.919-17.976-15.991-17.981-25.057z"/><linearGradient id="SVGID_38_" gradientUnits="userSpaceOnUse" x1="1355.808" y1="877.202" x2="1478.566" y2="877.202" gradientTransform="matrix(1 0 0 -1 0 2019.89)"><stop offset="0" stop-color="#ced3f8"/><stop offset="1" stop-color="#a5abcc"/></linearGradient><path class="st53" d="M1460.587 1141.282c-11.984 6.92-27.688 10.38-43.394 10.38-15.71 0-31.419-3.465-43.404-10.38-11.987-6.918-17.976-15.991-17.981-25.056v17.495c.005 9.061 5.995 18.133 17.981 25.05 11.985 6.927 27.694 10.381 43.404 10.381 15.705 0 31.409-3.454 43.394-10.374 11.983-6.923 17.981-15.997 17.979-25.062v-17.492c.002 9.068-5.997 18.14-17.979 25.058z"/><path class="st1" d="M1381.944 1136.571c9.733 5.624 22.489 8.434 35.25 8.434 12.752 0 25.51-2.81 35.24-8.43 8.977-5.185 13.809-11.859 14.497-18.639-.688-6.788-5.52-13.46-14.497-18.645-9.735-5.625-22.492-8.432-35.248-8.431-12.756-.001-25.511 2.806-35.25 8.431-8.977 5.185-13.803 11.853-14.499 18.641.698 6.782 5.523 13.456 14.507 18.639z"/><linearGradient id="SVGID_39_" gradientUnits="userSpaceOnUse" x1="1367.338" y1="917.2" x2="1467.033" y2="917.2" gradientTransform="matrix(1 0 0 -1 0 2019.89)"><stop offset="0" stop-color="#a5abcc"/><stop offset="1" stop-color="#ced3f8"/></linearGradient><path class="st54" d="M1381.936 1099.289c9.739-5.625 22.495-8.432 35.25-8.431 12.756-.001 25.513 2.806 35.248 8.431 8.977 5.185 13.809 11.858 14.497 18.645.059-.57.101-1.14.101-1.71 0-7.365-4.868-14.728-14.599-20.349-9.735-5.619-22.492-8.43-35.248-8.43s-25.511 2.811-35.25 8.43c-9.731 5.62-14.599 12.987-14.597 20.351 0 .57.042 1.14.098 1.704.699-6.788 5.524-13.456 14.5-18.641z"/><g><path class="st55" d="M1441.744 1108.907l4.713-2.723v-3.409l-4.713 2.723z"/><path class="st28" d="M1419.995 1114.605c-1.756-1.016-2.725-2.367-2.725-3.801 0-1.433.97-2.781 2.729-3.797 3.63-2.096 9.536-2.096 13.164 0 3.627 2.093 3.627 5.505 0 7.602l5.972 3.446c5.895-3.401 6.755-8.616 2.61-12.556l4.713-2.723-5.972-3.452-4.714 2.727c-6.825-2.389-15.855-1.898-21.747 1.508-3.359 1.937-5.203 4.511-5.201 7.246-.002 2.743 1.845 5.311 5.201 7.25 3.627 2.092 3.628 5.501 0 7.603-3.63 2.095-9.539 2.095-13.168 0-3.628-2.102-3.628-5.504.003-7.603l-5.972-3.446c-5.897 3.406-6.755 8.613-2.619 12.557l-4.346 2.506 5.975 3.452 4.349-2.515c6.828 2.392 15.858 1.901 21.752-1.503 6.919-3.996 6.919-10.504-.004-14.501z"/><path class="st27" d="M1387.922 1133.082l5.975 3.451v-3.41l-5.975-3.454z"/><path class="st55" d="M1393.897 1136.533l4.349-2.511v-3.414l-4.349 2.515z"/><path class="st27" d="M1433.162 1118.015l5.972 3.445v-3.407l-5.972-3.445z"/><path class="st55" d="M1400.859 1121.46v-3.407c-2.579 1.489-3.316 3.634-2.236 5.501.44-.757 1.181-1.484 2.236-2.094z"/><path class="st27" d="M1389.705 1121.68l.006 3.847.009-.009c.044.903.29 1.812.743 2.691l1.806-1.045c-1.756-1.676-2.599-3.577-2.555-5.472l-.009-.012zM1414.024 1121.46c1.048.609 1.789 1.333 2.234 2.095 1.078-1.867.339-4.013-2.234-5.501-3.356-1.939-5.203-4.508-5.201-7.25v3.416c-.003 2.733 1.844 5.306 5.201 7.24z"/><path class="st56" d="M1425.188 1121.835v-.067h-.007c0 .02.007.045.007.067z"/><path class="st55" d="M1444.303 1110.799c.009 2.629-1.708 5.257-5.17 7.255v3.407c3.554-2.046 5.264-4.754 5.167-7.446l.012.017v-3.232l-.009-.001z"/><linearGradient id="SVGID_40_" gradientUnits="userSpaceOnUse" x1="1398.246" y1="891.2" x2="1425.188" y2="891.2" gradientTransform="matrix(1 0 0 -1 0 2019.89)"><stop offset="0" stop-color="#ced3f8"/><stop offset="1" stop-color="#a5abcc"/></linearGradient><path class="st57" d="M1419.998 1129.105c-5.894 3.404-14.924 3.894-21.752 1.503v3.414c6.828 2.39 15.858 1.899 21.752-1.506 3.433-1.987 5.159-4.583 5.185-7.186l.005.006v-3.465c-.013 2.621-1.738 5.24-5.19 7.234z"/><path class="st55" d="M1433.162 1107.006c-3.628-2.096-9.534-2.096-13.164 0-1.76 1.015-2.729 2.364-2.729 3.797 0 .592.17 1.162.484 1.708.455-.777 1.207-1.498 2.246-2.096 3.63-2.093 9.536-2.093 13.164-.002 1.053.612 1.789 1.331 2.234 2.1 1.079-1.873.34-4.023-2.235-5.507z"/></g></g><linearGradient id="SVGID_41_" gradientUnits="userSpaceOnUse" x1="1391.56" y1="1594.038" x2="1500.905" y2="1594.038" gradientTransform="matrix(1 0 0 -1 0 2019.89)"><stop offset=".325" stop-color="#c4c9e4"/><stop offset="1" stop-color="#fff"/></linearGradient><path class="st58" d="M1486.262 405.524c-10.368-5.982-24.152-8.739-37.686-8.339h-31.384v3.479c-4.026 1.273-7.828 2.891-11.227 4.86-19.301 11.226-19.19 29.415.232 40.636 3.349 1.929 7.062 3.508 10.995 4.761v3.636h35.613c12.246-.205 24.375-2.983 33.689-8.395 19.301-11.223 19.205-29.412-.232-40.638z"/><g><linearGradient id="SVGID_42_" gradientUnits="userSpaceOnUse" x1="1369.695" y1="1603.425" x2="1468.932" y2="1603.425" gradientTransform="matrix(1 0 0 -1 0 2019.89)"><stop offset="0" stop-color="#d1d7f3"/><stop offset=".173" stop-color="#c7cdea"/><stop offset=".687" stop-color="#aeb4d4"/><stop offset="1" stop-color="#a5abcc"/></linearGradient><path class="st59" d="M1384.336 427.221c-9.773-5.646-14.666-13.059-14.64-20.455l.042-9.479c-.018 7.407 4.86 14.818 14.64 20.464 19.436 11.217 50.834 11.217 70.138.004 9.595-5.58 14.394-12.87 14.417-20.177l-.046 9.472c-.021 7.305-4.821 14.595-14.411 20.175-19.304 11.224-50.707 11.224-70.14-.004z"/><linearGradient id="SVGID_43_" gradientUnits="userSpaceOnUse" x1="1369.695" y1="1593.953" x2="1468.932" y2="1593.953" gradientTransform="matrix(1 0 0 -1 0 2019.89)"><stop offset="0" stop-color="#d8def0"/><stop offset=".551" stop-color="#c6cce7"/><stop offset="1" stop-color="#bdc3e3"/></linearGradient><path class="st60" d="M1384.336 436.696c-9.773-5.646-14.666-13.059-14.64-20.457l.042-9.479c-.018 7.408 4.86 14.815 14.64 20.462 19.436 11.219 50.834 11.219 70.138.009 9.595-5.584 14.394-12.874 14.417-20.179l-.046 9.473c-.021 7.307-4.821 14.595-14.411 20.175-19.304 11.22-50.707 11.22-70.14-.004z"/><linearGradient id="SVGID_44_" gradientUnits="userSpaceOnUse" x1="1369.695" y1="1584.479" x2="1468.932" y2="1584.479" gradientTransform="matrix(1 0 0 -1 0 2019.89)"><stop offset="0" stop-color="#d1d7f3"/><stop offset=".173" stop-color="#c7cdea"/><stop offset=".687" stop-color="#aeb4d4"/><stop offset="1" stop-color="#a5abcc"/></linearGradient><path class="st61" d="M1384.336 446.167c-9.773-5.646-14.666-13.057-14.64-20.455l.042-9.479c-.018 7.407 4.86 14.818 14.64 20.464 19.436 11.217 50.834 11.217 70.138.004 9.595-5.582 14.394-12.87 14.417-20.177l-.046 9.472c-.021 7.305-4.821 14.597-14.411 20.177-19.304 11.221-50.707 11.221-70.14-.006z"/><path class="st28" d="M1384.378 417.749c-19.43-11.217-19.535-29.415-.233-40.626 19.307-11.224 50.717-11.224 70.145 0 19.438 11.211 19.529 29.408.228 40.631-19.307 11.214-50.704 11.214-70.14-.005z"/><path class="st23" d="M1447.079 393.72l-39.714 2.023 1.23-8.928h-10.971l-2.982 16.271 52.437-3.027z"/></g><g><linearGradient id="SVGID_45_" gradientUnits="userSpaceOnUse" x1="767.831" y1="1313.997" x2="884.463" y2="1313.997" gradientTransform="matrix(1 0 0 -1 0 2019.89)"><stop offset="0" stop-color="#d1d7f3"/><stop offset=".38" stop-color="#e4e7f8"/><stop offset="1" stop-color="#fff"/></linearGradient><path class="st62" d="M767.831 705.892l.002 33.669 58.317-.002c32.208.003 58.32-15.071 58.313-33.667.005-18.6-26.12-33.667-58.319-33.668-32.205.009-58.316 15.079-58.313 33.668zm38.859-11.225c10.751-6.207 28.169-6.21 38.913-.008 10.739 6.203 10.744 16.259-.008 22.466-10.74 6.201-28.16 6.2-38.906.001-10.739-6.205-10.739-16.258.001-22.459z"/></g><linearGradient id="SVGID_46_" gradientUnits="userSpaceOnUse" x1="750.149" y1="1304.137" x2="866.78" y2="1304.137" gradientTransform="matrix(1 0 0 -1 0 2019.89)"><stop offset=".468" stop-color="#ced3f8"/><stop offset="1" stop-color="#bbc0e6"/></linearGradient><path class="st63" d="M862.646 691.944v12.45c-8.573 12.43-29.591 21.219-54.179 21.216l-50.352.002h-7.966l.001 13.949 58.317-.002c32.208.003 58.319-15.072 58.313-33.667v-13.949h-4.134z"/><linearGradient id="SVGID_47_" gradientUnits="userSpaceOnUse" x1="780.968" y1="1332.398" x2="835.956" y2="1332.398" gradientTransform="matrix(1 0 0 -1 0 2019.89)"><stop offset="0" stop-color="#bbc0e6"/><stop offset="1" stop-color="#ced3f8"/></linearGradient><path class="st64" d="M827.919 680.711c-10.744-6.202-28.161-6.199-38.913.009-8.532 4.925-10.26 12.276-5.239 18.203 1.301-1.534 3.029-2.979 5.239-4.254 10.751-6.207 28.169-6.21 38.913-.008 2.209 1.276 3.938 2.721 5.239 4.256 5.022-5.93 3.29-13.28-5.239-18.206z"/><g><path class="st28" d="M750.148 691.943l.002 33.67 58.317-.002c32.208.003 58.319-15.072 58.313-33.667.005-18.6-26.12-33.667-58.319-33.668-32.205.008-58.316 15.077-58.313 33.667zm38.858-11.225c10.751-6.207 28.169-6.211 38.913-.009 10.739 6.204 10.744 16.259-.008 22.467-10.74 6.201-28.159 6.2-38.906.001-10.739-6.205-10.739-16.258.001-22.459z"/></g><linearGradient id="SVGID_48_" gradientUnits="userSpaceOnUse" x1="1858.322" y1="983.06" x2="1938.795" y2="983.06" gradientTransform="matrix(1 0 0 -1 0 2019.89)"><stop offset="0" stop-color="#c2c7e2"/><stop offset="1" stop-color="#fff"/></linearGradient><path class="st65" d="M1925.792 1018.774c-9.211-5.315-21.453-7.762-33.472-7.407h-11.232v3.093c-3.576 1.129-6.953 2.565-9.971 4.314-17.142 9.97-17.045 26.127.206 36.095 2.973 1.716 6.273 3.113 9.765 4.23v3.228h14.984c10.875-.181 21.654-2.651 29.922-7.452 17.142-9.974 17.061-26.131-.202-36.101z"/><linearGradient id="SVGID_49_" gradientUnits="userSpaceOnUse" x1="1838.899" y1="974.567" x2="1927.046" y2="974.567" gradientTransform="matrix(1 0 0 -1 0 2019.89)"><stop offset="0" stop-color="#d6dcee"/><stop offset=".551" stop-color="#c4cae5"/><stop offset="1" stop-color="#bbc1e1"/></linearGradient><path class="st66" d="M1851.904 1054.876c-8.683-5.014-13.024-11.597-13.005-18.167l.038-8.42c-.014 6.577 4.315 13.159 13.005 18.175 17.261 9.963 45.152 9.963 62.297.005 8.52-4.959 12.785-11.431 12.808-17.923l-.043 8.415c-.017 6.489-4.282 12.966-12.801 17.921-17.143 9.967-45.038 9.967-62.299-.006z"/><path class="st28" d="M1851.942 1046.464c-17.258-9.963-17.35-26.125-.211-36.084 17.154-9.969 45.052-9.969 62.305 0 17.266 9.959 17.346 26.122.202 36.09-17.145 9.957-45.035 9.957-62.296-.006z"/><path class="st67" d="M1876.667 1032.999l-13.78-2.473 11.78-4.81-.185-8.331 11.568 4.981 13.666-2.673-4.637 7.89 8.633 6.677-14.43-.108-8.331 6.803z"/><linearGradient id="SVGID_50_" gradientUnits="userSpaceOnUse" x1="1839.127" y1="1005.457" x2="1926.823" y2="1005.457" gradientTransform="matrix(1 0 0 -1 0 2019.89)"><stop offset="0" stop-color="#dae0f5"/><stop offset="1" stop-color="#fff"/></linearGradient><path class="st68" d="M1851.731 1010.38c-7.494 4.354-11.692 9.895-12.604 15.584h87.696c-.975-5.69-5.239-11.23-12.787-15.584-17.254-9.97-45.151-9.97-62.305 0z"/><path class="st29" d="M1575.547 671.269l-.001-19.753c8.972-.564 17.685-2.815 24.55-6.777 16.004-9.241 16.004-24.275.001-33.515-16.007-9.241-42.047-9.241-58.052-.001-16.005 9.241-16.005 24.275.001 33.516 6.864 3.963 15.577 6.213 24.549 6.777l.001 19.753c0 .714.501 1.36 1.311 1.828.81.468 1.929.757 3.165.757 2.473-.001 4.476-1.158 4.475-2.585zm-27.172-56.392c12.515-7.225 32.876-7.225 45.392 0 12.514 7.224 12.514 18.981-.001 26.206-12.515 7.225-32.877 7.225-45.39.001-12.516-7.226-12.516-18.982-.001-26.207zM650.69 1026.358c-2.187-1.261-5.055-1.872-7.915-1.845l-12.219-25.832c1.557-.431 3.02-1.01 4.308-1.752 1.719-.989 2.94-2.164 3.684-3.405l38.372 3.465c.239 1.407 1.241 2.781 3.109 3.863 4.285 2.469 11.233 2.469 15.511 0 4.285-2.476 4.285-6.484.003-8.961-4.281-2.475-11.23-2.475-15.515 0-1.012.585-1.768 1.261-2.299 1.972l-38.336-3.464c-.087-2.224-1.587-4.435-4.526-6.133-6.06-3.505-15.886-3.505-21.946 0-6.059 3.497-6.059 9.166 0 12.663 3.385 1.958 7.935 2.821 12.351 2.589l12.229 25.844c-.83.272-1.627.591-2.33.996-4.287 2.476-4.287 6.485 0 8.954 4.284 2.476 11.229 2.476 15.514 0 4.286-2.469 4.286-6.478.005-8.954z"/><linearGradient id="SVGID_51_" gradientUnits="userSpaceOnUse" x1="1013.873" y1="834.856" x2="1073.761" y2="834.856" gradientTransform="matrix(1 0 0 -1 0 2019.89)"><stop offset="0" stop-color="#dae0f5"/><stop offset=".31" stop-color="#eceffa"/><stop offset=".68" stop-color="#fafbfe"/><stop offset=".994" stop-color="#fff"/></linearGradient><path class="st69" d="M1073.761 1191.312c-18.995-3.322-34.51-8.06-42.3-12.915 5.084.213 5.428-3.126 3.624-4.536-3.846-3.004-8.797-5.314-13.247-4.161-4.45 1.155-7.965 9.667-7.965 9.667 9.641 10.543 34.45 17.572 59.888 21.299v-9.354z"/><path class="st70" d="M1007.419 1171.464c1.042-.086 2.747-.24 2.747-.24.23-.489 4.274-5.316 9.579-4.752.363 1.876-1.804 2.38-3.74 3.196 2.183-.635 4.866-1.066 6.083-1.333 1.218-.267 4.964.328 6.68 2.229.382.424 1.703 1.766 2.609 3.041 1.512 2.126-.825 3.155-2.963 2.272-2.139-.884-2.855-.391-5.558.736-2.704 1.129-6.154 4.694-12.313 1.674-.648-.317-1.649-.056-1.649-.056l-1.475-6.767z"/><linearGradient id="SVGID_52_" gradientUnits="userSpaceOnUse" x1="3779.214" y1="717.383" x2="3859.517" y2="717.383" gradientTransform="rotate(180 2387.471 1009.945)"><stop offset=".006" stop-color="#fff"/><stop offset=".246" stop-color="#fafbfd"/><stop offset=".53" stop-color="#eceef8"/><stop offset=".835" stop-color="#d4d8ef"/><stop offset="1" stop-color="#c4cae9"/></linearGradient><path class="st71" d="M915.425 1294.098h80.303v16.817h-80.303z"/><linearGradient id="SVGID_53_" gradientUnits="userSpaceOnUse" x1="3760.498" y1="693.114" x2="3846.842" y2="693.114" gradientTransform="rotate(180 2402.185 1009.945)"><stop offset=".006" stop-color="#fff"/><stop offset=".246" stop-color="#fafbfd"/><stop offset=".53" stop-color="#eceef8"/><stop offset=".835" stop-color="#d4d8ef"/><stop offset="1" stop-color="#c4cae9"/></linearGradient><path class="st72" d="M957.529 1318.369h86.344v16.814h-86.344z"/><g><linearGradient id="SVGID_54_" gradientUnits="userSpaceOnUse" x1="2519.7" y1="720.447" x2="2553.697" y2="720.447" gradientTransform="rotate(180 1729.72 1009.945)"><stop offset="0" stop-color="#423eaf"/><stop offset=".304" stop-color="#3a35a0"/><stop offset=".891" stop-color="#241e77"/><stop offset="1" stop-color="#20196f"/></linearGradient><path class="st73" d="M905.745 1305.73c0-13.206 8.374-13.587 8.374-13.587s4.652.473 12.119-2.332c9.404-3.533 17.291-2.583 11.565 7.98-.053.126-.12.255-.198.391-.35.553-.95 1.107-1.851 1.623l-18.298 10.728c-2.788 1.599-11.65-2.084-11.711-4.803z"/><path class="st74" d="M905.794 1304.546c.157 2.711 8.893 6.326 11.66 4.747l18.298-10.729c.605-.344 1.645-1.048 2.579-1.878-.175.365-.316.711-.53 1.107-.053.126-.12.255-.198.391-.35.553-.95 1.107-1.851 1.623l-18.298 10.728c-2.606 1.495-10.549-1.642-11.591-4.281a2.426 2.426 0 0 1-.077-.532c-.041-.409-.005-.776.008-1.176z"/><path class="st75" d="M909.149 1290.404c1.086 0 3.543.487 5.719.973 1.8-.464 7.736-.679 11.621-1.825 1.154-.339 2.243-1.066 3.466-.139 1.536 1.887-2.46 6.499-10.702 10.054-2.914 1.836-5.277.671-6.401-.446-.458-.851-1.128-1.8-2.059-2.346-.966-.551-1.556-.802-1.978-.833.008-.055-.026-.18-.026-.18s-.538-5.258.36-5.258z"/><path class="st76" d="M913.287 1203.572c-3.673-11.266-1.98-24.275.747-37.351 8.268.149 23.925-4.479 32.195-4.329-3.079 24.858-10.012 46.71-14.15 70.787-4.441 23.401-9.713 40.586-14.084 60.066-1.6 3.628-9.384 1.99-9.384-.182-1.159-17.939-.382-38.743 4.93-59.433-.373-9.358 1.229-20.242-.254-29.558z"/></g><g><linearGradient id="SVGID_55_" gradientUnits="userSpaceOnUse" x1="2477.958" y1="696.273" x2="2511.992" y2="696.273" gradientTransform="rotate(180 1729.72 1009.945)"><stop offset="0" stop-color="#423eaf"/><stop offset=".304" stop-color="#3a35a0"/><stop offset=".891" stop-color="#241e77"/><stop offset="1" stop-color="#20196f"/></linearGradient><path class="st77" d="M947.45 1330.003c0-13.21 8.368-13.589 8.368-13.589s4.908.215 12.375-2.591c9.404-3.534 17.041-2.324 11.319 8.24-.06.125-.13.253-.205.393-.347.553-.947 1.104-1.854 1.622l-18.295 10.728c-2.788 1.598-11.647-2.086-11.708-4.803z"/><path class="st74" d="M947.492 1328.816c.161 2.711 8.897 6.327 11.663 4.753l18.295-10.734a17.183 17.183 0 0 0 2.582-1.878c-.172.361-.316.714-.523 1.107-.06.125-.13.253-.205.393-.347.553-.947 1.104-1.854 1.622l-18.295 10.728c-2.602 1.493-10.541-1.641-11.591-4.283a2.667 2.667 0 0 1-.078-.535c-.036-.403-.006-.775.006-1.173z"/><path class="st75" d="M950.85 1314.675c1.081 0 3.547.485 5.723.975 1.792-.47 7.733-.678 11.618-1.826 1.157-.339 2.246-1.066 3.466-.137 1.533 1.885-2.463 6.499-10.702 10.054-2.914 1.833-5.274.667-6.398-.446-.458-.851-1.131-1.802-2.067-2.347-.959-.557-1.551-.801-1.973-.834.003-.056-.023-.177-.023-.177s-.541-5.262.356-5.262z"/><linearGradient id="SVGID_56_" gradientUnits="userSpaceOnUse" x1="2495.971" y1="777.315" x2="2545.536" y2="777.315" gradientTransform="rotate(180 1729.72 1009.945)"><stop offset="0" stop-color="#423eaf"/><stop offset=".244" stop-color="#38339c"/><stop offset=".732" stop-color="#27207b"/><stop offset="1" stop-color="#20196f"/></linearGradient><path class="st78" d="M935.263 1220.348c-7.047-28.311-22.941-12.099-21.229-54.126 8.182-1.201 37.414 17.284 45.602 16.082 4.794 30.468 3.799 49.285 3.649 73.712-.553 23.817-2.113 40.109-3.244 60.03-.984 3.844-9.703 3.546-9.703 1.235-4.071-17.504-7.318-38.855-5.449-60.131-2.439-11.793-6.975-24.29-9.626-36.802z"/></g><g><linearGradient id="SVGID_57_" gradientUnits="userSpaceOnUse" x1="2609.276" y1="812.545" x2="2677.057" y2="812.545" gradientTransform="rotate(-164.029 1819.956 1102.085)"><stop offset="0" stop-color="#cc360e"/><stop offset=".17" stop-color="#d5470d"/><stop offset=".728" stop-color="#f27c0a"/><stop offset="1" stop-color="#fd9009"/></linearGradient><path class="st79" d="M918.25 1209.872c13.334 8.15 34.31 13.197 47.807 7.232 1.393-7.878-10.796-59.82-2.773-73.499 1.749-2.984 7.378-.547 8.9-3.789 3.95-8.409 7.712-25.893 7.712-28.548 0-5.655-4.542-11.523-9.24-14.647-6.429-4.284-15.557-10.012-23.614-8.441-17.584 4.931-30.033 50.313-42.944 102.817 1.307 5.948 6.138 13.972 14.152 18.875z"/><linearGradient id="SVGID_58_" gradientUnits="userSpaceOnUse" x1="3021.771" y1="854.548" x2="3047.655" y2="854.548" gradientTransform="rotate(180 2000.697 1009.945)"><stop offset="0" stop-color="#ecdbd6"/><stop offset=".474" stop-color="#f4eae7"/><stop offset="1" stop-color="#fff"/></linearGradient><path class="st80" d="M953.816 1157.206c-.865-6.478 5.829-17.92 9.654-19.217 3.826-1.295 7.187-2.806 7.187-7.207 0-4.403-1.813-11.334-.858-16.558l9.825-.645c-.934 5.697-4.122 19.172-7.439 26.238-1.523 3.241-7.152.804-8.9 3.789-8.02 13.679 4.166 65.621 2.773 73.499 0 0-4.901-24.921-6.421-34.801-1.524-9.879-4.958-18.621-5.821-25.098z"/><path class="st75" d="M950.042 1092.161c5.391-3.604 5.061-6.5 4.472-11.7a25.546 25.546 0 0 1-1.254-8.977c.431-11.512 8.129-21.185 17.088-20.228 18.058 1.922 14.484 11.328 14.053 22.838-.399 10.664-5.513 17.816-13.645 18.751-.07 1.75.464 3.398 2.645 5.021-6.046 3.319-15.431 1.529-19.214-.033-3.688-1.521-6.705-3.216-4.145-5.672z"/></g><g><linearGradient id="SVGID_59_" gradientUnits="userSpaceOnUse" x1="1519.469" y1="420.325" x2="1600.536" y2="420.325" gradientTransform="scale(1 -1) rotate(-66.134 71.376 78.692)"><stop offset="0" stop-color="#fd9009"/><stop offset="1" stop-color="#ef4e16"/></linearGradient><path class="st81" d="M1008.498 1178.83s6.325-2.064 3.056-9.455c-16.523-7.857-32.754-33.369-31.657-58.105-.725-9.958-12.642-6.412-13.69 5.702-1.652 19.083 11.903 52.595 42.291 61.858z"/></g><path class="st76" d="M986.803 1066.815c-.33-6.683-5.743-17.915-17.663-17.074-11.516.811-16.424 8.992-16.546 18.971-.095 7.831-7.089 29.987-24.676 28.702 7.526 13.913 61.204 16.4 58.885-30.599z"/></g></svg>