<svg id="Layer_1" xmlns="http://www.w3.org/2000/svg" xmlns:xlink="http://www.w3.org/1999/xlink" viewBox="0 0 2290.884 2020.845"><style>.st0{fill:url(#SVGID_1_)}.st1{fill:#e8ecf7}.st2{fill:#fff}.st3{fill:none;stroke:#fd9009;stroke-width:2.5;stroke-linecap:round;stroke-linejoin:round}.st4{fill:#fd9009}.st5{fill:url(#SVGID_2_)}.st6{fill:url(#SVGID_3_)}.st7{fill:url(#SVGID_4_)}.st8{fill:#423eaf}.st9{fill:#d1d7f3}.st10{fill:#5652cc}.st11{fill:#362e94}.st12{fill:#807dfb}.st13{fill:url(#SVGID_5_)}.st14{fill:url(#SVGID_6_)}.st15{fill:url(#SVGID_7_)}.st16{fill:url(#SVGID_8_)}.st17{fill:url(#SVGID_9_)}.st18{fill:url(#SVGID_10_)}.st19{fill:#eaeef9}.st20{fill:url(#SVGID_11_)}.st21{fill:#d3d8f2}.st22{fill:#ced3f8}.st23{fill:#bbc0e6}.st24{fill:url(#SVGID_12_)}.st25{fill:url(#SVGID_13_)}.st26{fill:#dae0f5}.st27{fill:#f6f6fb}.st28{fill:#f1f1f6}.st29{fill:#ef4e16}.st30{fill:#6b67e9}.st31{fill:#20196f}.st32{fill:#dc8b00}.st33{fill:#fcba06}.st34{fill:url(#SVGID_14_)}.st35{fill:url(#SVGID_15_)}.st36{fill:url(#SVGID_16_)}.st37{fill:url(#SVGID_17_)}.st38{clip-path:url(#SVGID_19_)}.st39{clip-path:url(#SVGID_21_)}.st40{clip-path:url(#SVGID_23_)}.st41{fill:url(#SVGID_24_)}.st42{fill:#dd3b10}.st43{fill:#fc780b}.st44{fill:#ffad02}.st45{fill:url(#SVGID_25_)}.st46{fill:url(#SVGID_26_)}.st47{fill:#dfe4f4}.st48{fill:url(#SVGID_27_)}.st49{fill:none;stroke:#fc780b;stroke-width:5;stroke-miterlimit:10}.st50{fill:url(#SVGID_28_)}.st51{fill:url(#SVGID_29_)}.st52{fill:url(#SVGID_30_)}.st53{fill:url(#SVGID_31_)}.st54{fill:url(#SVGID_32_)}.st55{fill:url(#SVGID_33_)}.st56{fill:url(#SVGID_34_)}.st57{fill:url(#SVGID_35_)}.st58{fill:url(#SVGID_36_)}.st59{fill:url(#SVGID_37_)}.st60{fill:url(#SVGID_38_)}.st61{fill:url(#SVGID_39_)}.st62{fill:url(#SVGID_40_)}.st63{fill:url(#SVGID_41_)}.st64{fill:#bbbfe2}.st65{fill:#ced2f4}.st66{fill:#242d3c}.st67{fill:url(#SVGID_42_)}.st68{fill:url(#SVGID_43_)}.st69{fill:url(#SVGID_44_)}.st70{fill:url(#SVGID_45_)}.st71{fill:url(#SVGID_46_)}.st72{fill:#f0f0f5}.st73{fill:#e0e0eb}.st74{fill:url(#SVGID_47_)}.st75{fill:url(#SVGID_48_)}.st76{fill:url(#SVGID_49_)}.st77{fill:#a3a9d0}.st78{fill:url(#SVGID_50_)}.st79{fill:url(#SVGID_51_)}</style><g id="Wave_shape"><linearGradient id="SVGID_1_" gradientUnits="userSpaceOnUse" x1="2134.405" y1="259.362" x2="142.955" y2="1028.154" gradientTransform="translate(0 508)"><stop offset="0" stop-color="#fff" stop-opacity="0"/><stop offset=".554" stop-color="#f8f8fa" stop-opacity=".554"/><stop offset="1" stop-color="#efeff3"/></linearGradient><path class="st0" d="M1731.028 1719.047c849.843-187.708 598.084-991.014 75.102-1057.459-657.558-83.544-728.516-249.32-982.121-196.689-169.76 35.23-200.522 315.979-393.771 369.614-276.123 76.636 11.274 179.359-249.738 374.779-547.088 409.605 841.73 666.31 1550.528 509.755z"/></g><g id="Abstract_shapes"><path class="st1" d="M1843.535 1706.017l48.904 105.377c2.959 6.372 10.743 8.834 16.824 5.321l133.612-77.141c9.778-5.644 7.006-20.437-4.146-22.161l-182.522-28.24c-9.441-1.467-16.692 8.178-12.672 16.844zM1762.811 554.03c-39.933-23.053-104.678-23.053-144.609 0-39.933 23.059-39.933 60.441 0 83.493 39.933 23.059 104.68 23.059 144.613 0 39.933-23.053 39.93-60.435-.004-83.493zm-110.488 63.792c-21.088-12.177-21.091-31.915 0-44.092 21.088-12.177 55.279-12.177 76.367 0 21.09 12.177 21.09 31.915 0 44.092-21.088 12.178-55.28 12.178-76.367 0zM2073.026 952.909c7.041 4.063 18.449 4.063 25.49 0 7.038-4.063 7.038-10.654 0-14.717-7.041-4.063-18.449-4.063-25.49 0-7.038 4.063-7.038 10.653 0 14.717zM2135.391 988.912c7.037 4.063 18.449 4.063 25.487 0 7.04-4.063 7.04-10.652 0-14.717-7.037-4.063-18.449-4.063-25.487 0-7.039 4.065-7.039 10.654 0 14.717zM2197.754 1024.915c7.039 4.063 18.449 4.063 25.487 0 7.037-4.063 7.037-10.65 0-14.713-7.038-4.063-18.449-4.063-25.487 0-7.041 4.063-7.041 10.649 0 14.713zM2285.606 1046.202c-7.041-4.063-18.449-4.063-25.491 0-7.037 4.063-7.037 10.654 0 14.716 7.041 4.063 18.449 4.063 25.491 0 7.037-4.062 7.037-10.652 0-14.716zM2010.665 988.912c7.037 4.063 18.449 4.063 25.487 0 7.041-4.063 7.041-10.652 0-14.717-7.037-4.063-18.449-4.063-25.487 0-7.038 4.065-7.038 10.654 0 14.717zM2073.026 1024.915c7.041 4.063 18.453 4.063 25.49 0 7.038-4.063 7.038-10.65 0-14.713-7.037-4.063-18.449-4.063-25.49 0-7.038 4.063-7.038 10.649 0 14.713zM2135.391 1060.918c7.041 4.063 18.449 4.063 25.491 0 7.037-4.062 7.037-10.652-.002-14.716-7.037-4.063-18.447-4.063-25.487 0-7.041 4.064-7.041 10.654-.002 14.716zM2223.241 1082.216c-7.038-4.063-18.449-4.072-25.487 0-7.037 4.063-7.037 10.646 0 14.711 7.039 4.063 18.449 4.063 25.487 0 7.038-4.065 7.038-10.648 0-14.711zM1948.301 1024.915c7.041 4.063 18.453 4.063 25.491 0 7.037-4.063 7.037-10.65 0-14.713-7.041-4.063-18.449-4.063-25.491 0-7.037 4.063-7.037 10.649 0 14.713zM2010.665 1060.918c7.037 4.063 18.449 4.063 25.487 0 7.041-4.062 7.041-10.652 0-14.716-7.037-4.063-18.449-4.063-25.487 0-7.038 4.064-7.038 10.654 0 14.716zM2073.03 1096.927c7.037 4.063 18.449 4.063 25.487 0 7.038-4.063 7.038-10.647 0-14.711-7.037-4.072-18.449-4.072-25.487 0-7.042 4.063-7.042 10.646 0 14.711zM2160.88 1118.217c-7.041-4.063-18.449-4.063-25.491 0-7.037 4.063-7.037 10.654 0 14.717 7.041 4.063 18.449 4.063 25.491 0 7.037-4.064 7.037-10.654 0-14.717zM1885.939 1060.918c7.037 4.063 18.449 4.063 25.488 0 7.037-4.062 7.037-10.652 0-14.716-7.039-4.063-18.449-4.063-25.488 0-7.038 4.064-7.038 10.654 0 14.716zM1948.304 1096.927c7.037 4.063 18.449 4.063 25.487 0 7.037-4.063 7.037-10.647 0-14.72-7.037-4.063-18.449-4.063-25.487 0-7.04 4.072-7.04 10.655 0 14.72zM2010.665 1132.934c7.037 4.063 18.449 4.063 25.487 0 7.041-4.069 7.041-10.654 0-14.717-7.037-4.063-18.449-4.063-25.487 0-7.038 4.063-7.038 10.646 0 14.717zM2098.516 1154.22c-7.037-4.063-18.449-4.063-25.487 0s-7.037 10.656 0 14.72 18.449 4.063 25.487 0c7.038-4.064 7.038-10.656 0-14.72zM1849.066 1082.206c-7.041-4.063-18.449-4.063-25.491 0-7.037 4.072-7.037 10.656 0 14.72 7.041 4.063 18.449 4.063 25.491 0 7.037-4.064 7.037-10.647 0-14.72zM1911.427 1118.217c-7.039-4.063-18.449-4.063-25.488 0-7.037 4.063-7.037 10.646 0 14.717 7.037 4.063 18.449 4.063 25.488 0 7.041-4.071 7.041-10.654 0-14.717zM1973.79 1154.22c-7.037-4.063-18.449-4.063-25.487 0-7.04 4.063-7.04 10.656 0 14.72 7.037 4.063 18.449 4.063 25.487 0 7.038-4.064 7.038-10.656 0-14.72zM2036.152 1190.225c-7.037-4.063-18.449-4.063-25.487 0-7.037 4.063-7.037 10.652 0 14.716 7.041 4.063 18.449 4.063 25.491 0 7.037-4.064 7.037-10.653-.004-14.716z"/><g><path class="st2" d="M849.079 1423.517c-7.041-4.063-18.449-4.063-25.491 0-7.035 4.067-7.035 10.65 0 14.717 7.041 4.063 18.452 4.063 25.491 0 7.038-4.063 7.038-10.65 0-14.717zM786.715 1459.525c-7.037-4.063-18.449-4.063-25.487 0s-7.037 10.65 0 14.717c7.037 4.063 18.449 4.063 25.487 0 7.041-4.068 7.041-10.654 0-14.717zM724.355 1495.529c-7.037-4.063-18.449-4.063-25.488 0-7.041 4.062-7.041 10.654 0 14.717 7.037 4.063 18.449 4.063 25.488 0 7.037-4.064 7.037-10.655 0-14.717zM661.994 1531.529c-7.041-4.063-18.453-4.063-25.491 0-7.037 4.066-7.037 10.655 0 14.718 7.041 4.063 18.449 4.063 25.491 0 7.033-4.062 7.033-10.651 0-14.718zM599.629 1567.539c-7.041-4.063-18.449-4.063-25.491 0-7.034 4.063-7.034 10.651 0 14.718 7.041 4.063 18.449 4.063 25.491 0 7.037-4.067 7.037-10.655 0-14.718z"/></g><path class="st1" d="M782.575 1669.784l56.035 32.35c8.545 4.933 7.472 13.549-2.394 19.242l-51.248 29.592c-9.863 5.695-24.789 6.31-33.331 1.381l-56.035-32.35c-8.545-4.933-7.472-13.549 2.394-19.246l51.248-29.589c9.866-5.695 24.788-6.314 33.331-1.38z"/></g><g id="Linear_block"><path class="st3" d="M552.652 414.275l-124.52-71.892 124.515-71.887 124.519 71.891z"/><path class="st4" d="M552.652 559.603c-.267 0-.534-.069-.772-.206l-124.52-71.892a1.542 1.542 0 0 1-.772-1.338V342.383a1.543 1.543 0 1 1 3.088 0v142.893l122.976 71.002 122.972-71.002V342.383a1.543 1.543 0 1 1 3.088 0v143.783c0 .552-.294 1.061-.772 1.338l-124.516 71.892a1.544 1.544 0 0 1-.772.207z"/><path class="st4" d="M552.652 559.603c-.853 0-1.544-.69-1.544-1.544V414.274a1.543 1.543 0 1 1 3.088 0V558.06a1.544 1.544 0 0 1-1.544 1.543z"/><g><path class="st4" d="M541.384 270.496c0-6.219 5.044-11.263 11.263-11.263 6.224 0 11.269 5.044 11.269 11.263 0 6.224-5.045 11.263-11.269 11.263-6.219 0-11.263-5.04-11.263-11.263zM416.863 342.383c0-6.219 5.045-11.263 11.268-11.263 6.224 0 11.268 5.044 11.268 11.263 0 6.224-5.044 11.268-11.268 11.268-6.223 0-11.268-5.044-11.268-11.268zM416.863 486.167c0-6.224 5.045-11.268 11.268-11.268 6.224 0 11.268 5.044 11.268 11.268 0 6.223-5.044 11.268-11.268 11.268-6.223 0-11.268-5.044-11.268-11.268zM541.384 558.058c0-6.222 5.044-11.268 11.268-11.268 6.219 0 11.264 5.045 11.264 11.268 0 6.224-5.045 11.268-11.264 11.268-6.224 0-11.268-5.044-11.268-11.268zM541.384 414.275c0-6.219 5.044-11.263 11.268-11.263 6.219 0 11.264 5.045 11.264 11.263 0 6.224-5.045 11.268-11.264 11.268-6.224 0-11.268-5.044-11.268-11.268zM665.899 342.387c0-6.224 5.045-11.268 11.268-11.268 6.224 0 11.268 5.044 11.268 11.268 0 6.219-5.044 11.264-11.268 11.264-6.223 0-11.268-5.044-11.268-11.264zM665.904 486.167c0-6.224 5.044-11.268 11.263-11.268 6.224 0 11.268 5.044 11.268 11.268 0 6.223-5.044 11.268-11.268 11.268-6.219 0-11.263-5.044-11.263-11.268z"/></g></g><g id="Screwdriver"><image width="263" height="152" xlink:href="A5727A2AACD03B56.png" transform="translate(999.605 1657.5) scale(1.2351)" overflow="visible"/><image width="300" height="173" xlink:href="A5727A2AACD03B5A.png" transform="translate(1250.324 1471.005) scale(1.2351)" overflow="visible"/><linearGradient id="SVGID_2_" gradientUnits="userSpaceOnUse" x1="1234.727" y1="1169.277" x2="1358.975" y2="1169.277" gradientTransform="translate(0 508)"><stop offset="0" stop-color="#cfd5f1"/><stop offset=".605" stop-color="#eff1fa"/><stop offset="1" stop-color="#fff"/></linearGradient><path class="st5" d="M1347.624 1661.62c-20.821-4.008-44.29-6.485-65.472-6.485-21.18 0-36.065 2.478-43.005 6.485-6.941 4.007-5.937 9.543 4.653 15.657 10.591 6.115 28.765 11.65 49.585 15.657 20.821 4.007 44.29 6.485 65.47 6.485l.121-.001v-35.4a311.417 311.417 0 0 0-11.352-2.398z"/><linearGradient id="SVGID_3_" gradientUnits="userSpaceOnUse" x1="4075.597" y1="-223.104" x2="4103.939" y2="-223.104" gradientTransform="rotate(-120 3261.938 1429.984)"><stop offset="0" stop-color="#bbc0e6"/><stop offset=".002" stop-color="#babfe5"/><stop offset=".035" stop-color="#adb3d9"/><stop offset=".079" stop-color="#a5abd2"/><stop offset=".164" stop-color="#a3a9d0"/><stop offset="1" stop-color="#dae0f5"/></linearGradient><path class="st6" d="M1281.885 1633.677l283.294-163.559c1.813-1.047 2.935-3.292 2.935-6.487 0-3.195-1.121-6.735-2.935-9.874s-4.318-5.881-7.084-7.478c-2.767-1.597-5.271-1.749-7.084-.702l-283.293 163.56c-1.813 1.046-2.934 3.292-2.934 6.487 0 3.194 1.121 6.734 2.934 9.874 1.813 3.14 4.318 5.881 7.084 7.478 2.765 1.596 5.271 1.748 7.083.701z"/><linearGradient id="SVGID_4_" gradientUnits="userSpaceOnUse" x1="4035.405" y1="-408.849" x2="4143.884" y2="-408.849" gradientTransform="rotate(-120 3261.938 1429.984)"><stop offset=".177" stop-color="#362e94"/><stop offset=".63" stop-color="#5e58cb"/><stop offset="1" stop-color="#807dfb"/></linearGradient><path class="st7" d="M1277.594 1682.569l10.361-5.981c6.941-4.007 11.233-12.6 11.232-24.83 0-12.229-4.292-25.778-11.233-37.799-6.941-12.021-16.528-22.513-27.118-28.629-10.591-6.114-20.18-6.692-27.12-2.685l-10.36 5.983c-6.941 4.007-11.234 12.599-11.233 24.829-.001 12.23 4.292 25.778 11.233 37.799 6.94 12.021 16.528 22.513 27.118 28.629 10.592 6.112 20.18 6.691 27.12 2.684z"/><path class="st8" d="M1250.476 1679.883c-10.591-6.115-20.179-16.607-27.12-28.628-6.94-12.021-11.233-25.571-11.233-37.799 0-12.23 4.293-20.822 11.233-24.83 6.941-4.007 16.529-3.428 27.118 2.688 10.591 6.115 20.179 16.607 27.119 28.628 6.941 12.021 11.233 25.57 11.233 37.799 0 12.228-4.292 20.822-11.233 24.829-6.939 4.006-16.527 3.428-27.117-2.687z"/><path class="st9" d="M1277.595 1682.569c6.784-3.917 11.009-12.242 11.197-24.034-4.814-12.831-11.617-29.943-15.772-35.953l-27.772 13.016.551 41.224c1.535 1.102 3.09 2.145 4.676 3.061 10.591 6.115 20.179 6.693 27.12 2.686z"/><path class="st10" d="M1606.766 1419.928l3.729 2.153-23.359 6.942-3.729-2.151z"/><path class="st11" d="M1615.268 1434.655v-4.305l-17.692 16.757v4.306z"/><path class="st12" d="M1597.576 1447.107l17.692-16.757-4.773-2.757-39.123 22.588c2.895 5.013 10.041 6.258 13.453 4.287 3.264-1.883 7.687-4.437 12.751-7.361z"/><path class="st11" d="M1587.136 1429.024l23.359-6.944v5.512l-39.123 22.588c-2.895-5.014-.399-11.824 3.013-13.794l12.751-7.362z"/><linearGradient id="SVGID_5_" gradientUnits="userSpaceOnUse" x1="4075.597" y1="-39.763" x2="4103.936" y2="-39.763" gradientTransform="rotate(-120 3261.938 1429.984)"><stop offset="0" stop-color="#807dfb"/><stop offset=".006" stop-color="#7875f1"/><stop offset=".025" stop-color="#6461d9"/><stop offset=".046" stop-color="#5551c6"/><stop offset=".07" stop-color="#4a46b9"/><stop offset=".102" stop-color="#4440b1"/><stop offset=".164" stop-color="#423eaf"/><stop offset=".385" stop-color="#534fc4"/><stop offset="1" stop-color="#807dfb"/></linearGradient><path class="st13" d="M1554.872 1443.346l-3.868 2.233c1.813-1.046 4.318-.895 7.084.702 2.767 1.598 5.271 4.339 7.084 7.48 1.813 3.141 2.934 6.681 2.934 9.874 0 3.191-1.119 5.434-2.93 6.483l28.856-16.66.002-.002 3.54-2.043v-4.305l-.63.364-12.121 6.999c-3.412 1.97-10.558.726-13.453-4.288-2.895-5.014-.399-11.824 3.013-13.794l12.121-6.999.63-.363-3.729-2.153-3.542 2.045-3.625 2.092-21.366 12.335z"/><g><linearGradient id="SVGID_6_" gradientUnits="userSpaceOnUse" x1="4043.022" y1="-424.007" x2="4136.266" y2="-424.007" gradientTransform="rotate(-120 3261.938 1429.984)"><stop offset=".177" stop-color="#362e94"/><stop offset=".63" stop-color="#5e58cb"/><stop offset="1" stop-color="#807dfb"/></linearGradient><path class="st14" d="M1258.657 1684.707l14.364-8.292c5.965-3.444 9.656-10.83 9.655-21.343 0-10.51-3.689-22.158-9.656-32.491-5.967-10.333-14.207-19.351-23.309-24.607-9.104-5.255-17.345-5.753-23.311-2.308l-14.364 8.293c-5.967 3.443-9.656 10.829-9.656 21.341-.001 10.512 3.689 22.158 9.656 32.491 5.965 10.333 14.207 19.351 23.309 24.607 9.105 5.256 17.346 5.754 23.312 2.309z"/><path class="st8" d="M1235.346 1682.399c-9.102-5.256-17.345-14.275-23.311-24.607s-9.656-21.979-9.656-32.491 3.69-17.897 9.656-21.342c5.965-3.445 14.207-2.947 23.311 2.31 9.104 5.255 17.344 14.274 23.311 24.607 5.965 10.333 9.656 21.979 9.656 32.491 0 10.51-3.689 17.897-9.655 21.342-5.967 3.443-14.208 2.945-23.312-2.31z"/></g><path class="st9" d="M1267.899 1668.856c-6.407-13.344-17.214-34.875-22.798-40.458l-24.484 41.449c4.438 5.129 9.43 9.492 14.731 12.552 9.104 5.256 17.345 5.753 23.311 2.31 4.855-2.805 8.164-8.262 9.24-15.853z"/><g><linearGradient id="SVGID_7_" gradientUnits="userSpaceOnUse" x1="4035.408" y1="-570.448" x2="4143.885" y2="-570.448" gradientTransform="rotate(-120 3261.938 1429.984)"><stop offset="0" stop-color="#ffad02"/><stop offset=".003" stop-color="#feaa02"/><stop offset=".06" stop-color="#ea7c05"/><stop offset=".115" stop-color="#da5807"/><stop offset=".166" stop-color="#cf3e09"/><stop offset=".211" stop-color="#c82e0a"/><stop offset=".247" stop-color="#c6290a"/><stop offset=".956" stop-color="#f9730b"/><stop offset="1" stop-color="#fc780b"/></linearGradient><path class="st15" d="M981.342 1790.983c22.177 38.411 62.948 26.286 136.523-16.194 48.872-28.216 89.172-68.18 132.212-93.028 5.091-2.938 8.238-9.242 8.238-18.21 0-8.969-3.148-18.906-8.238-27.724-5.091-8.817-12.122-16.513-19.89-20.996-7.767-4.484-14.799-4.909-19.89-1.97-43.04 24.85-97.798 39.769-146.671 67.986-73.574 42.478-104.461 71.725-82.284 110.136z"/><linearGradient id="SVGID_8_" gradientUnits="userSpaceOnUse" x1="4043.144" y1="-691.968" x2="4136.121" y2="-691.968" gradientTransform="rotate(-120 3261.938 1429.984)"><stop offset="0" stop-color="#fcba06"/><stop offset=".044" stop-color="#f18e09"/><stop offset=".087" stop-color="#e96a0c"/><stop offset=".128" stop-color="#e2500e"/><stop offset=".165" stop-color="#de4010"/><stop offset=".194" stop-color="#dd3b10"/><stop offset="1" stop-color="#fc780b"/></linearGradient><path class="st16" d="M981.342 1790.983c12.474 21.605 30.83 27.221 57.597 20.442.238-.225.462-.407.663-.525 5.935-3.426 9.605-10.775 9.605-21.231 0-10.457-3.671-22.044-9.605-32.323-5.934-10.28-14.133-19.252-23.19-24.48-9.057-5.229-17.255-5.725-23.19-2.297a6.26 6.26 0 0 1-.855.387c-19.193 19.763-23.483 38.449-11.025 60.027z"/></g></g><g id="Wrench"><linearGradient id="SVGID_9_" gradientUnits="userSpaceOnUse" x1="1544.059" y1="1087.585" x2="1951.164" y2="1087.585" gradientTransform="translate(0 508)"><stop offset="0" stop-color="#cfd5f1"/><stop offset=".53" stop-color="#e6e9f7"/><stop offset="1" stop-color="#f6f6fb"/></linearGradient><path class="st17" d="M1939.292 1461.488c-12.219-7.055-30.283-8.639-45.174-4.803 4.401 1.134 8.538 2.718 12.148 4.803 15.829 9.14 15.829 23.955 0 33.095l-287.391 165.925c12.923 20.039 5.526 43.456-22.376 59.564-14.828 8.562-33.241 13.745-52.441 15.635 30.139 2.969 62.201-2.201 85.467-15.635 27.903-16.108 35.298-39.525 22.376-59.564l287.391-165.925c15.829-9.138 15.829-23.955 0-33.095z"/><linearGradient id="SVGID_10_" gradientUnits="userSpaceOnUse" x1="1436.008" y1="1171.036" x2="1524.786" y2="1171.036" gradientTransform="translate(0 508)"><stop offset="0" stop-color="#cfd5f1"/><stop offset=".473" stop-color="#e1e4f4"/><stop offset="1" stop-color="#f1f1f6"/></linearGradient><path class="st18" d="M1508.273 1658.176l-72.265 41.722h33.026l55.752-32.188-16.513-9.534z"/><path class="st19" d="M1618.876 1635.027l287.391-165.925c15.829-9.14 15.829-23.955 0-33.095-15.829-9.138-41.493-9.14-57.322 0l-287.391 165.925c-34.71-7.461-75.268-3.19-103.169 12.919-27.901 16.109-35.298 39.523-22.377 59.565l72.265-41.722 57.322 33.095-72.264 41.722c34.71 7.461 75.268 3.189 103.169-12.92 27.902-16.108 35.298-39.525 22.376-59.564z"/><linearGradient id="SVGID_11_" gradientUnits="userSpaceOnUse" x1="1488.463" y1="1190.896" x2="1784.976" y2="1190.896" gradientTransform="translate(102.282 338.664)"><stop offset=".873" stop-color="#bdc1e4"/><stop offset="1" stop-color="#d0d4f6"/></linearGradient><path class="st20" d="M1594.708 1608.445l269.262-155.458c5.337-3.081 13.988-3.081 19.325 0 1.841 1.063 3 2.359 3.571 3.719 1.086-2.585-.074-5.419-3.571-7.439-5.337-3.081-13.988-3.081-19.325 0l-269.262 155.458c-3.497 2.019-4.656 4.853-3.571 7.439.571-1.36 1.731-2.655 3.571-3.719z"/><path class="st21" d="M1594.708 1615.884c5.337 3.08 13.99 3.08 19.325 0l269.261-155.458c1.84-1.062 3-2.359 3.572-3.72-.571-1.36-1.73-2.657-3.571-3.719-5.337-3.081-13.989-3.08-19.325 0l-269.263 155.458c-1.84 1.062-3 2.359-3.571 3.719.572 1.361 1.732 2.658 3.572 3.72z"/><path class="st22" d="M1508.272 1632.694v25.482l35.255 20.353 22.068-12.74z"/><path class="st23" d="M1436.008 1674.416v25.481l72.264-41.721v-25.482z"/><path class="st22" d="M1429.857 1654.871h-.006v23.4h.112c-.415 7.318 1.562 14.675 6.046 21.626v-25.482c-4.058-6.294-6.106-12.917-6.152-19.544z"/><linearGradient id="SVGID_12_" gradientUnits="userSpaceOnUse" x1="1391.049" y1="1358.069" x2="1522.751" y2="1358.069" gradientTransform="translate(102.282 338.664)"><stop offset="0" stop-color="#ced3f8"/><stop offset="1" stop-color="#abb2da"/></linearGradient><path class="st24" d="M1596.5 1694.59c-27.901 16.109-68.459 20.38-103.169 12.92v25.482c34.71 7.461 75.268 3.19 103.169-12.919 18.672-10.78 28.11-24.832 28.473-38.955h.059v-24.148l-.125-.052c-.886 13.689-10.301 27.22-28.407 37.672z"/><path class="st23" d="M1906.267 1469.101l-287.391 165.924c4.559 7.071 6.535 14.562 6.027 22.004l.115-.067.015.006v-.015l281.234-162.371c8.904-5.14 12.799-12.078 11.686-18.79l.185-.115v-23.124c0 5.99-3.957 11.98-11.871 16.548z"/><path class="st19" d="M1524.786 1667.709l-16.514-35.015v25.482z"/></g><g id="Server"><linearGradient id="SVGID_13_" gradientUnits="userSpaceOnUse" x1="1022.494" y1="382.332" x2="1683.636" y2="382.332" gradientTransform="translate(0 508)"><stop offset="0" stop-color="#f1f1f6"/><stop offset="1" stop-color="#fff"/></linearGradient><path class="st25" d="M1022.494 774.28h661.141v232.104h-661.141z"/><path class="st23" d="M1022.494 1006.384l316.927-182.978V306.288l-316.927 182.978z"/><path class="st26" d="M1022.494 1006.384L796.16 875.71V358.592l226.334 130.674z"/><path class="st27" d="M1022.494 489.266L796.16 358.592l316.927-182.978 226.334 130.674z"/><path class="st26" d="M826.378 410.771v470.401l185.878 107.316v-470.4l-9.989-17.143-175.889-90.174z"/><path class="st9" d="M1319.479 507.734l-256.93 148.338v116.115l256.93-148.338z"/><path class="st27" d="M1052.493 766.381l10.056 5.806V656.072l-10.056-5.805z"/><path class="st2" d="M1052.493 650.267l10.056 5.805 256.93-148.338-10.056-5.806z"/><path class="st23" d="M1294.003 522.443l-4.294 2.479v116.115l4.294-2.48zM1265.192 539.077l-4.296 2.48v116.115l4.296-2.48zM1236.379 555.712l-4.295 2.48v116.114l4.295-2.479zM1207.567 572.347l-4.296 2.479v116.115l4.296-2.48zM1178.755 588.981l-4.295 2.48v116.115l4.295-2.48zM1149.942 605.616l-4.294 2.48V724.21l4.294-2.479zM1121.131 622.251l-4.296 2.479v116.115l4.296-2.48zM1092.319 638.885l-4.296 2.48v116.114l4.296-2.479z"/><path class="st28" d="M1082.263 633.079l-4.296 2.48 10.056 5.806 4.296-2.48zM1111.075 616.445l-4.295 2.479 10.055 5.806 4.296-2.479zM1139.886 599.81l-4.294 2.48 10.056 5.806 4.294-2.48zM1168.699 583.175l-4.295 2.48 10.056 5.806 4.295-2.48zM1197.511 566.541l-4.294 2.479 10.054 5.806 4.296-2.479zM1226.323 549.906l-4.295 2.48 10.056 5.806 4.295-2.48zM1255.136 533.271l-4.296 2.48 10.056 5.806 4.296-2.48zM1283.947 516.637l-4.294 2.478 10.056 5.807 4.294-2.479z"/><g><path class="st12" d="M1274.225 553.993l6.449-3.723v-7.447l-6.449 3.723zM1245.413 570.628l6.45-3.724v-7.448l-6.45 3.724z"/><path class="st29" d="M1216.601 587.263l6.449-3.724v-7.447l-6.449 3.723z"/><path class="st12" d="M1187.789 603.897l6.449-3.724v-7.446l-6.449 3.722zM1158.977 620.532l6.449-3.724v-7.447l-6.449 3.723z"/><path class="st29" d="M1130.164 637.166l6.451-3.723v-7.447l-6.451 3.724zM1101.352 653.801l6.45-3.724v-7.446l-6.45 3.723z"/></g><g><path class="st9" d="M1319.479 366.828l-256.93 148.338v116.115l256.93-148.338z"/><path class="st27" d="M1052.493 625.475l10.056 5.806V515.166l-10.056-5.805z"/><path class="st2" d="M1052.493 509.361l10.056 5.805 256.93-148.338-10.056-5.806z"/><path class="st23" d="M1294.003 381.536l-4.294 2.479V500.13l4.294-2.48zM1265.192 398.17l-4.296 2.48v116.115l4.296-2.48zM1236.379 414.805l-4.295 2.479v116.115l4.295-2.479zM1207.567 431.44l-4.296 2.479v116.115l4.296-2.48zM1178.755 448.074l-4.295 2.48v116.115l4.295-2.48zM1149.942 464.709l-4.294 2.479v116.115l4.294-2.48zM1121.131 481.343l-4.296 2.48v116.115l4.296-2.48zM1092.319 497.978l-4.296 2.48v116.116l4.296-2.48z"/><path class="st28" d="M1082.263 492.172l-4.296 2.48 10.056 5.806 4.296-2.48zM1111.075 475.538l-4.295 2.479 10.055 5.806 4.296-2.48zM1139.886 458.903l-4.294 2.48 10.056 5.805 4.294-2.479zM1168.699 442.268l-4.295 2.48 10.056 5.806 4.295-2.48zM1197.511 425.634l-4.294 2.479 10.054 5.806 4.296-2.479zM1226.323 408.999l-4.295 2.48 10.056 5.805 4.295-2.479zM1255.136 392.365l-4.296 2.479 10.056 5.806 4.296-2.48zM1283.947 375.73l-4.294 2.48 10.056 5.805 4.294-2.479z"/></g><g><path class="st12" d="M1274.225 413.086l6.449-3.724v-7.446l-6.449 3.724zM1245.413 429.721l6.45-3.724v-7.447l-6.45 3.724z"/><path class="st29" d="M1216.601 446.355l6.449-3.722v-7.448l-6.449 3.724z"/><path class="st12" d="M1187.789 462.99l6.449-3.724v-7.447l-6.449 3.724zM1158.977 479.625l6.449-3.723v-7.448l-6.449 3.724z"/><path class="st29" d="M1130.164 496.259l6.451-3.722v-7.448l-6.451 3.724zM1101.352 512.894l6.45-3.723v-7.448l-6.45 3.724z"/></g><g><path class="st10" d="M1299.366 675.94l-246.873 142.532v-8.451l246.873-142.532z"/><path class="st12" d="M1309.423 681.744l-256.93 148.34v-11.612l246.873-142.532z"/><path class="st23" d="M1299.366 675.94l10.057 5.804v-20.06l-10.057 5.805z"/><path class="st30" d="M1309.423 681.744h-20.113l10.056-5.804z"/></g><g><path class="st10" d="M1299.366 716.365l-246.873 142.532v-8.449l246.873-142.534z"/><path class="st12" d="M1309.423 722.169l-256.93 148.339v-11.611l246.873-142.532z"/><path class="st23" d="M1299.366 716.365l10.057 5.804v-20.061l-10.057 5.806z"/><path class="st30" d="M1309.423 722.169h-20.113l10.056-5.804z"/></g><g><path class="st10" d="M1299.366 756.789l-246.873 142.533v-8.451l246.873-142.532z"/><path class="st12" d="M1309.423 762.595l-256.93 148.338v-11.611l246.873-142.533z"/><path class="st23" d="M1299.366 756.789l10.057 5.806v-20.062l-10.057 5.806z"/><path class="st30" d="M1309.423 762.595h-20.113l10.056-5.806z"/></g><path class="st31" d="M1255.088 780.078a5.417 5.417 0 0 0 5.459 0 5.404 5.404 0 0 0 2.726-4.724v-53.53a21.51 21.51 0 0 0-10.723-18.574l-7.56-4.365 6.966-4.021 4.077 2.354c8.764 5.058 14.207 14.485 14.207 24.606v53.53c0 4.491-2.322 8.512-6.21 10.756-1.946 1.123-4.079 1.686-6.214 1.686s-4.266-.563-6.212-1.686l-8.829-5.097 6.967-4.023 5.346 3.088z"/><path class="st28" d="M806.332 399.435v470.401l185.879 107.318V506.752L806.332 399.435zm20.228 35.036l145.422 83.959v423.686L826.56 858.157V434.471z"/><path class="st9" d="M1002.266 971.347l-10.056 5.806V506.752l10.056-5.806zM836.616 852.352l-10.056 5.805V434.471l10.056 5.806z"/><path class="st2" d="M1002.266 500.946l-10.056 5.806-185.878-107.317 10.056-5.806zM971.982 930.505v11.612l-145.422-83.96 10.056-5.805z"/><path class="st30" d="M971.982 518.431l-135.366-78.154v412.075l135.366 78.153z"/><g><path class="st31" d="M851.584 851.265l-6.448-3.724v-7.447l6.448 3.724zM865.957 859.562l-6.45-3.723v-7.447l6.45 3.723zM880.328 867.86l-6.45-3.724v-7.446l6.45 3.722zM894.698 876.157l-6.448-3.724v-7.447l6.448 3.724zM909.07 884.454l-6.449-3.724v-7.446l6.449 3.724zM923.442 892.751l-6.45-3.724v-7.446l6.45 3.724zM937.813 901.048l-6.45-3.722v-7.448l6.45 3.723zM952.184 909.346l-6.449-3.723v-7.447l6.449 3.723zM966.555 917.643l-6.449-3.723v-7.447l6.449 3.723zM851.584 458.564l-6.448-3.724v-7.448l6.448 3.724zM865.957 466.861l-6.45-3.724v-7.447l6.45 3.723zM880.328 475.158l-6.45-3.724v-7.447l6.45 3.724zM894.698 483.455l-6.448-3.723v-7.448l6.448 3.724zM909.07 491.752l-6.449-3.723v-7.448l6.449 3.724zM923.442 500.05l-6.45-3.724v-7.448l6.45 3.724zM937.813 508.347l-6.45-3.724v-7.446l6.45 3.722zM952.184 516.644l-6.449-3.724v-7.446l6.449 3.723zM966.555 524.941l-6.449-3.723v-7.447l6.449 3.723zM851.584 476.413l-6.448-3.724v-7.446l6.448 3.724zM865.957 484.71l-6.45-3.722v-7.448l6.45 3.724z"/><path class="st30" d="M880.328 493.007l-6.45-3.722v-7.448l6.45 3.724z"/><path class="st31" d="M894.698 501.304l-6.448-3.722v-7.447l6.448 3.723zM909.07 509.603l-6.449-3.724v-7.447l6.449 3.723zM923.442 517.9l-6.45-3.724v-7.447l6.45 3.724zM937.813 526.197l-6.45-3.723v-7.448l6.45 3.724zM952.184 534.495l-6.449-3.724v-7.448l6.449 3.724zM966.555 542.792l-6.449-3.724v-7.448l6.449 3.724zM851.584 494.263l-6.448-3.723v-7.448l6.448 3.724zM865.957 502.561l-6.45-3.724v-7.446l6.45 3.722zM880.328 510.858l-6.45-3.724v-7.446l6.45 3.722zM894.698 519.155l-6.448-3.724v-7.446l6.448 3.722zM909.07 527.452l-6.449-3.724v-7.446l6.449 3.724zM923.442 535.749l-6.45-3.723v-7.447l6.45 3.724zM937.813 544.047l-6.45-3.723v-7.447l6.45 3.723zM952.184 552.344l-6.449-3.723v-7.447l6.449 3.723zM966.555 560.641l-6.449-3.723v-7.447l6.449 3.724zM851.584 512.114l-6.448-3.724v-7.447l6.448 3.723zM865.957 520.411l-6.45-3.724v-7.447l6.45 3.724zM880.328 528.708l-6.45-3.724v-7.447l6.45 3.724zM894.698 537.005l-6.448-3.723v-7.448l6.448 3.724z"/><path class="st32" d="M909.07 545.303l-6.449-3.724v-7.448l6.449 3.724z"/><path class="st31" d="M923.442 553.6l-6.45-3.724v-7.447l6.45 3.723zM937.813 561.897l-6.45-3.724v-7.447l6.45 3.724zM952.184 570.194l-6.449-3.724v-7.446l6.449 3.723zM966.555 578.491l-6.449-3.723v-7.447l6.449 3.723z"/><path class="st33" d="M851.584 529.964l-6.448-3.723v-7.448l6.448 3.724z"/><path class="st31" d="M865.957 538.261l-6.45-3.723v-7.448l6.45 3.724zM880.328 546.559l-6.45-3.724v-7.448l6.45 3.724zM894.698 554.856l-6.448-3.724v-7.447l6.448 3.723zM909.07 563.153l-6.449-3.724v-7.447l6.449 3.724zM923.442 571.45l-6.45-3.723v-7.448l6.45 3.724z"/><path class="st30" d="M937.813 579.747l-6.45-3.723v-7.448l6.45 3.724z"/><path class="st31" d="M952.184 588.045l-6.449-3.724v-7.448l6.449 3.724zM966.555 596.342l-6.449-3.724v-7.447l6.449 3.723zM851.584 547.814l-6.448-3.724v-7.446l6.448 3.722zM865.957 556.111l-6.45-3.724v-7.446l6.45 3.723zM880.328 564.408l-6.45-3.724v-7.446l6.45 3.724zM894.698 572.705l-6.448-3.722v-7.448l6.448 3.724zM909.07 581.002l-6.449-3.722v-7.448l6.449 3.724zM923.442 589.299l-6.45-3.722v-7.447l6.45 3.723zM937.813 597.598l-6.45-3.724v-7.447l6.45 3.723zM952.184 605.895l-6.449-3.724v-7.447l6.449 3.724zM966.555 614.192l-6.449-3.723v-7.448l6.449 3.724zM851.584 565.664l-6.448-3.724v-7.447l6.448 3.723zM865.957 573.961l-6.45-3.724v-7.447l6.45 3.724z"/><path class="st32" d="M880.328 582.258l-6.45-3.723v-7.448l6.45 3.724z"/><path class="st31" d="M894.698 590.556l-6.448-3.724v-7.446l6.448 3.722zM909.07 598.853l-6.449-3.724v-7.446l6.449 3.722z"/><path class="st30" d="M923.442 607.15l-6.45-3.724v-7.446l6.45 3.723z"/><path class="st31" d="M937.813 615.447l-6.45-3.724v-7.446l6.45 3.724zM952.184 623.744l-6.449-3.723v-7.447l6.449 3.724zM966.555 632.042l-6.449-3.724v-7.446l6.449 3.723zM851.584 583.513l-6.448-3.722v-7.448l6.448 3.724zM865.957 591.812l-6.45-3.724v-7.448l6.45 3.724zM880.328 600.109l-6.45-3.724v-7.447l6.45 3.723zM894.698 608.406l-6.448-3.724v-7.447l6.448 3.724zM909.07 616.703l-6.449-3.724v-7.447l6.449 3.724zM923.442 625l-6.45-3.723v-7.448l6.45 3.724zM937.813 633.298l-6.45-3.724v-7.448l6.45 3.724zM952.184 641.595l-6.449-3.724v-7.447l6.449 3.723zM966.555 649.892l-6.449-3.724v-7.447l6.449 3.724zM851.584 601.364l-6.448-3.723v-7.447l6.448 3.723zM865.957 609.661l-6.45-3.723v-7.447l6.45 3.724zM880.328 617.958l-6.45-3.724v-7.446l6.45 3.724zM894.698 626.255l-6.448-3.724v-7.446l6.448 3.724zM909.07 634.552l-6.449-3.722v-7.448l6.449 3.724zM923.442 642.85l-6.45-3.723v-7.447l6.45 3.723zM937.813 651.147l-6.45-3.723v-7.447l6.45 3.724zM952.184 659.445l-6.449-3.724v-7.447l6.449 3.724zM966.555 667.742l-6.449-3.723v-7.448l6.449 3.724zM851.584 619.214l-6.448-3.724v-7.446l6.448 3.723z"/><path class="st30" d="M865.957 627.511l-6.45-3.723v-7.447l6.45 3.723z"/><path class="st31" d="M880.328 635.808l-6.45-3.723v-7.446l6.45 3.722zM894.698 644.106l-6.448-3.724v-7.446l6.448 3.723zM909.07 652.403l-6.449-3.724v-7.446l6.449 3.724zM923.442 660.7l-6.45-3.724v-7.446l6.45 3.724zM937.813 668.997l-6.45-3.722v-7.448l6.45 3.724z"/><path class="st30" d="M952.184 677.294l-6.449-3.723v-7.446l6.449 3.723z"/><path class="st31" d="M966.555 685.592l-6.449-3.724v-7.446l6.449 3.723zM851.584 637.065l-6.448-3.724v-7.448l6.448 3.724zM865.957 645.362l-6.45-3.724v-7.447l6.45 3.723zM880.328 653.659l-6.45-3.724v-7.447l6.45 3.723zM894.698 661.956l-6.448-3.724v-7.447l6.448 3.724zM909.07 670.253l-6.449-3.723v-7.448l6.449 3.724zM923.442 678.551l-6.45-3.724v-7.448l6.45 3.724z"/><path class="st32" d="M937.813 686.848l-6.45-3.724v-7.446l6.45 3.722z"/><path class="st31" d="M952.184 695.145l-6.449-3.724v-7.446l6.449 3.722zM966.555 703.442l-6.449-3.724v-7.446l6.449 3.724zM851.584 654.914l-6.448-3.724v-7.446l6.448 3.724zM865.957 663.211l-6.45-3.723v-7.447l6.45 3.724zM880.328 671.508l-6.45-3.722v-7.448l6.45 3.724zM894.698 679.807l-6.448-3.724v-7.448l6.448 3.724zM909.07 688.104l-6.449-3.724v-7.447l6.449 3.723zM923.442 696.401l-6.45-3.724v-7.447l6.45 3.723zM937.813 704.698l-6.45-3.724v-7.447l6.45 3.724zM952.184 712.995l-6.449-3.723v-7.448l6.449 3.724zM966.555 721.293l-6.449-3.724v-7.448l6.449 3.724zM851.584 672.764l-6.448-3.723v-7.448l6.448 3.724zM865.957 681.061l-6.45-3.723v-7.447l6.45 3.723zM880.328 689.359l-6.45-3.724v-7.446l6.45 3.722zM894.698 697.656l-6.448-3.724v-7.446l6.448 3.722zM909.07 705.953l-6.449-3.724v-7.446l6.449 3.724zM923.442 714.25l-6.45-3.724v-7.446l6.45 3.724zM937.813 722.547l-6.45-3.722v-7.448l6.45 3.724zM952.184 730.845l-6.449-3.723v-7.447l6.449 3.723zM966.555 739.142l-6.449-3.723v-7.447l6.449 3.724zM851.584 690.615l-6.448-3.724v-7.448l6.448 3.724zM865.957 698.912l-6.45-3.724v-7.447l6.45 3.723zM880.328 707.209l-6.45-3.724v-7.447l6.45 3.724zM894.698 715.506l-6.448-3.723v-7.448l6.448 3.724z"/><path class="st30" d="M909.07 723.803l-6.449-3.723v-7.448l6.449 3.724z"/><path class="st31" d="M923.442 732.101l-6.45-3.724v-7.447l6.45 3.723zM937.813 740.398l-6.45-3.724v-7.446l6.45 3.722zM952.184 748.695l-6.449-3.724v-7.446l6.449 3.723zM966.555 756.992l-6.449-3.723v-7.447l6.449 3.723z"/><path class="st33" d="M851.584 708.465l-6.448-3.724v-7.447l6.448 3.724z"/><path class="st31" d="M865.957 716.762l-6.45-3.723v-7.448l6.45 3.724zM880.328 725.06l-6.45-3.724v-7.448l6.45 3.724zM894.698 733.357l-6.448-3.724v-7.447l6.448 3.723zM909.07 741.654l-6.449-3.724v-7.447l6.449 3.723zM923.442 749.951l-6.45-3.724v-7.447l6.45 3.724zM937.813 758.248l-6.45-3.723v-7.448l6.45 3.724zM952.184 766.546l-6.449-3.724v-7.448l6.449 3.724zM966.555 774.843l-6.449-3.724v-7.447l6.449 3.723zM851.584 726.314l-6.448-3.723v-7.447l6.448 3.724zM865.957 734.612l-6.45-3.724v-7.446l6.45 3.723zM880.328 742.909l-6.45-3.724v-7.446l6.45 3.724zM894.698 751.206l-6.448-3.723v-7.447l6.448 3.724z"/><path class="st30" d="M909.07 759.503l-6.449-3.722v-7.448l6.449 3.724z"/><path class="st31" d="M923.442 767.8l-6.45-3.722v-7.448l6.45 3.724zM937.813 776.099l-6.45-3.724v-7.447l6.45 3.723zM952.184 784.396l-6.449-3.724v-7.447l6.449 3.724zM966.555 792.693l-6.449-3.724v-7.447l6.449 3.724zM851.584 744.165l-6.448-3.724v-7.447l6.448 3.723zM865.957 752.462l-6.45-3.724v-7.447l6.45 3.724z"/><path class="st32" d="M880.328 760.759l-6.45-3.723v-7.448l6.45 3.724z"/><path class="st31" d="M894.698 769.056l-6.448-3.723v-7.447l6.448 3.723zM909.07 777.354l-6.449-3.724v-7.446l6.449 3.722zM923.442 785.651l-6.45-3.724v-7.446l6.45 3.722zM937.813 793.948l-6.45-3.724v-7.446l6.45 3.724zM952.184 802.245l-6.449-3.724v-7.446l6.449 3.724zM966.555 810.542l-6.449-3.723v-7.447l6.449 3.724zM851.584 762.014l-6.448-3.722v-7.448l6.448 3.724zM865.957 770.312l-6.45-3.723v-7.448l6.45 3.724zM880.328 778.61l-6.45-3.724v-7.447l6.45 3.723zM894.698 786.907l-6.448-3.724v-7.447l6.448 3.723zM909.07 795.204l-6.449-3.724v-7.447l6.449 3.724zM923.442 803.501l-6.45-3.723v-7.448l6.45 3.724zM937.813 811.798l-6.45-3.723v-7.448l6.45 3.724zM952.184 820.096l-6.449-3.724v-7.448l6.449 3.724zM966.555 828.393l-6.449-3.724v-7.447l6.449 3.723zM851.584 779.865l-6.448-3.723v-7.447l6.448 3.723zM865.957 788.162l-6.45-3.724v-7.446l6.45 3.724zM880.328 796.459l-6.45-3.724v-7.446l6.45 3.724zM894.698 804.756l-6.448-3.724v-7.446l6.448 3.724zM909.07 813.053l-6.449-3.722v-7.448l6.449 3.724zM923.442 821.35l-6.45-3.722v-7.447l6.45 3.723zM937.813 829.648l-6.45-3.723v-7.447l6.45 3.723z"/><path class="st32" d="M952.184 837.946l-6.449-3.725v-7.446l6.449 3.724z"/><path class="st31" d="M966.555 846.243l-6.449-3.723v-7.448l6.449 3.724zM851.584 797.715l-6.448-3.724v-7.446l6.448 3.723zM865.957 806.012l-6.45-3.724v-7.446l6.45 3.723zM880.328 814.309l-6.45-3.723v-7.447l6.45 3.723zM894.698 822.607l-6.448-3.724v-7.446l6.448 3.723zM909.07 830.904l-6.449-3.724v-7.446l6.449 3.722zM923.442 839.201l-6.45-3.723v-7.447l6.45 3.724zM937.813 847.498l-6.45-3.724v-7.446l6.45 3.724zM952.184 855.795l-6.449-3.723v-7.447l6.449 3.724zM966.555 864.093l-6.449-3.724v-7.446l6.449 3.723zM851.584 815.565l-6.448-3.723v-7.448l6.448 3.724z"/><path class="st30" d="M865.957 823.861l-6.45-3.722v-7.448l6.45 3.724z"/><path class="st31" d="M880.328 832.16l-6.45-3.724v-7.447l6.45 3.723zM894.698 840.457l-6.448-3.724v-7.447l6.448 3.724zM909.07 848.754l-6.449-3.723v-7.448l6.449 3.724zM923.442 857.051l-6.45-3.723v-7.448l6.45 3.724zM937.813 865.349l-6.45-3.724v-7.446l6.45 3.722zM952.184 873.646l-6.449-3.724v-7.446l6.449 3.722zM966.555 881.943l-6.449-3.724v-7.447l6.449 3.725zM851.584 833.415l-6.448-3.724v-7.446l6.448 3.723zM865.957 841.712l-6.45-3.723v-7.447l6.45 3.724zM880.328 850.009l-6.45-3.724v-7.446l6.45 3.724z"/><path class="st33" d="M894.698 858.307l-6.448-3.723v-7.448l6.448 3.724z"/><path class="st31" d="M909.07 866.603l-6.449-3.722v-7.448l6.449 3.724zM923.442 874.902l-6.45-3.724v-7.447l6.45 3.723zM937.813 883.199l-6.45-3.724v-7.447l6.45 3.724zM952.184 891.496l-6.449-3.723v-7.448l6.449 3.724zM966.555 899.793l-6.449-3.723v-7.448l6.449 3.724z"/></g><path class="st26" d="M846.672 858.157l-10.056-5.805V440.277l10.056 5.806zM826.56 858.157h20.112l-10.056-5.805z"/></g><g id="Globe"><linearGradient id="SVGID_14_" gradientUnits="userSpaceOnUse" x1="1363.886" y1="462.026" x2="1947.436" y2="798.939" gradientTransform="translate(0 508)"><stop offset="0" stop-color="#c4cae9"/><stop offset=".656" stop-color="#eceef8"/><stop offset=".941" stop-color="#fff" stop-opacity="0"/></linearGradient><ellipse class="st34" cx="1655.661" cy="1138.483" rx="379.823" ry="145.089"/><radialGradient id="SVGID_15_" cx="1254.66" cy="359.15" r="535.231" gradientTransform="translate(0 508)" gradientUnits="userSpaceOnUse"><stop offset="0" stop-color="#6b67e9"/><stop offset=".368" stop-color="#4e4ac0"/><stop offset=".567" stop-color="#423eaf"/><stop offset=".724" stop-color="#3e39a6"/><stop offset=".916" stop-color="#362e94"/><stop offset=".93" stop-color="#3a339a"/><stop offset=".948" stop-color="#4740ab"/><stop offset=".97" stop-color="#5b56c8"/><stop offset=".994" stop-color="#7774ef"/><stop offset="1" stop-color="#807dfb"/></radialGradient><path class="st35" d="M1191.76 704.965c-40.199 54.749-63.986 122.299-63.986 195.432 0 182.583 148.003 330.595 330.586 330.595 182.585 0 330.594-148.012 330.594-330.595 0-73.133-23.79-140.683-63.989-195.432H1191.76z"/><radialGradient id="SVGID_16_" cx="1254.055" cy="350.088" r="538.5" gradientTransform="translate(0 508)" gradientUnits="userSpaceOnUse"><stop offset="0" stop-color="#423eaf"/><stop offset=".292" stop-color="#302d80"/><stop offset=".954" stop-color="#030309"/><stop offset="1"/></radialGradient><path class="st36" d="M1459.787 1209.441c31.628-.091 63.213-3.322 93.292-9.598-6.272 8.585-13.3 15.943-21.067 21.713l.698.939c1.02-.235 2.044-.462 3.061-.707 7.704-6.114 14.747-13.786 21.038-22.719 32.207-7.035 62.603-17.62 89.309-31.804-7.554 7.549-15.977 14.001-25.321 19.137l.797 1.44.189-.109a332.156 332.156 0 0 0 17.6-10.754c.335-.22.678-.427 1.011-.649 4.878-4.099 9.475-8.561 13.727-13.46.166-.091.331-.177.499-.273a236.472 236.472 0 0 0 25.378-16.927c.067-.061.137-.116.203-.177.908-.824 1.785-1.682 2.681-2.517a332.124 332.124 0 0 0 6.167-5.879 418.238 418.238 0 0 0 5.622-5.602l.035-.036-.984-1.042c-9.752 9.237-21.29 17.891-34.205 25.848 10.46-13.867 18.582-30.493 24.255-49.492.403-.235.828-.446 1.223-.676 31.394-18.125 55.38-39.173 71.496-62.685 1.8-3.721 3.468-7.51 5.122-11.312l-.993-.572c-15.372 26.97-40.881 50.942-75.723 71.299 5.485-19.885 8.401-42.226 8.463-66.76 30.473-17.696 54.229-38.219 70.567-60.555 1.603 18.068 1.239 35.311-1.33 51.237l1.225.196c.713-1.718 1.365-3.464 2.049-5.197 2.002-15.493 2.04-32.127.296-49.474 11.422-16.454 18.932-33.829 22.129-51.774 0-.014.002-.028.004-.041.135-2.269.229-4.55.327-6.83.173-4.396.335-8.795.335-13.232 0-3.86-.103-7.694-.235-11.523a318.025 318.025 0 0 0-.333-6.869 284.42 284.42 0 0 0-.188-3.072 352.724 352.724 0 0 0-1.75-18.606 229.537 229.537 0 0 0-8.246-32.149c.079-4.531-.119-9.064-.579-13.587l-.258-.962a308.927 308.927 0 0 0-3.503-11.979c-.169-.543-.336-1.087-.508-1.629l-1.074.275c1.599 6.426 2.55 12.913 2.957 19.418-8.891-23.426-21.697-45.721-38.099-66.39.173-16.349-3.92-32.64-12.09-48.244-.002-.001-.002-.004-.005-.006-.027-.037-.058-.073-.085-.11h-3.208c7.803 14.443 11.996 29.487 12.453 44.617-11.984-14.581-25.802-28.325-41.349-41.019-1.503-1.228-3.057-2.397-4.583-3.598h-5.039c19.31 14.783 36.489 31.394 50.994 49.572-.142 5.962-.768 11.922-2.076 17.857-3.368 15.27-10.426 29.924-20.913 43.676-14.024-23.818-30.384-46.968-48.789-68.587a448.596 448.596 0 0 0-23.565-25.583c3.92-5.476 7.067-11.138 9.468-16.935h-3.104c-2.205 5.095-4.997 10.087-8.427 14.933a419.646 419.646 0 0 0-15.895-14.933h-3.839a418.358 418.358 0 0 1 18.237 17.035c-9.479 12.617-23.081 24.228-40.469 34.263-.315.177-.656.326-.967.51-13.173-18.337-27.349-35.711-42.32-51.809h-3.834c15.461 16.447 30.084 34.271 43.645 53.117-16.567 9.111-35.322 16.088-55.177 21.156-9.696-27.24-20.199-52.172-31.25-74.273h-3.012c11.353 22.584 22.009 47.854 31.668 74.948-23.553 5.77-48.63 8.795-73.82 8.902v-83.847h-2.847v83.851c-25.518-.111-50.918-3.23-74.725-9.141 9.635-26.997 20.256-52.19 31.574-74.709h-3.002c-11.026 22.047-21.509 46.913-31.187 74.081-16.503-4.27-32.223-9.871-46.535-16.937 13.187-20.507 27.299-39.74 42.013-57.144h-3.396c-14.094 16.865-27.827 35.605-40.896 55.955-2.996-1.527-6.057-2.995-8.916-4.656-17.642-10.181-31.371-21.988-40.86-34.815a417.993 417.993 0 0 1 17.666-16.483h-3.829a420.935 420.935 0 0 0-15.342 14.377c-3.255-4.672-5.921-9.477-8.04-14.377h-3.088c2.317 5.602 5.326 11.082 9.062 16.387a445.587 445.587 0 0 0-24.172 26.166c-18.201 21.385-34.386 44.271-48.31 67.813-10.055-13.372-16.906-27.58-20.258-42.376-1.397-6.111-2.076-12.252-2.226-18.386 14.511-18.19 31.698-34.812 51.022-49.603h-5.042c-1.528 1.2-3.079 2.37-4.582 3.598-15.547 12.689-29.345 26.43-41.333 40.998.462-15.12 4.651-30.16 12.45-44.597h-3.229l-.01.015c-8.227 15.658-12.372 31.986-12.194 48.388-16.377 20.653-29.166 42.921-38.05 66.321.391-6.399 1.304-12.774 2.87-19.092l-1.098-.273c-.25.785-.493 1.573-.736 2.361a328.26 328.26 0 0 0-3.083 10.585c-.127.466-.251.932-.375 1.399a115.11 115.11 0 0 0-.558 13.497 229 229 0 0 0-8.252 32.169 355.91 355.91 0 0 0-1.75 18.659c-.062.976-.125 1.953-.179 2.931-.136 2.317-.251 4.64-.337 6.97-.131 3.821-.234 7.649-.234 11.502 0 4.503.161 8.968.338 13.426.095 2.151.18 4.307.309 6.452.004.069.011.137.016.206 3.099 17.49 10.303 34.445 21.232 50.525-1.719 16.303-1.849 31.966-.283 46.67-.699-1.641-1.384-3.278-2-4.93a.032.032 0 0 0 .002.006c.631 1.75 1.354 3.451 2.013 5.172.007.053.007.103.012.148 1.124 2.951 2.265 5.894 3.471 8.804.729 1.76 1.491 3.503 2.245 5.249 1.544 3.548 3.114 7.084 4.777 10.566 16.088 23.605 40.408 45.268 71.816 63.408a325.183 325.183 0 0 0 10.545 5.785c4.016 18.792 10.135 34.125 18.616 46.626-14.438-8.554-27.209-17.975-37.88-28.088l-.984 1.034c.073.074.142.151.215.225a414.037 414.037 0 0 0 5.397 5.371 333.41 333.41 0 0 0 5.9 5.626c1.047.978 2.074 1.976 3.136 2.939.058.052.12.101.178.153a237.293 237.293 0 0 0 25.257 16.828c.974.561 1.987 1.082 2.976 1.634 3.745 4.714 7.907 8.973 12.452 12.862a318.181 318.181 0 0 0 17.603 10.749l.794-1.443c-9.088-4.991-16.902-11.04-23.657-18.217 25.974 13.56 55.35 23.771 86.456 30.648 6.216 8.867 13.166 16.502 20.766 22.617 1.225.3 2.462.566 3.692.852l.526-.713c-7.86-5.831-14.944-13.281-21.267-21.983 30.442 6.441 62.45 9.739 94.495 9.835v21.508c.483.012.94.043 1.42.043.483 0 .94-.031 1.427-.043v-21.506h-.005zm192.491-48.802c-27.447 15.705-59.251 27.354-93.154 35.016 6.077-9.236 11.388-19.713 15.716-31.347 2.137-5.75 4.013-11.815 5.696-18.059 36.081-8.574 70.007-21.064 99.732-37.551-6.436 20.399-15.861 37.825-27.99 51.941zm29.084-55.794c-29.682 16.825-63.727 29.571-99.989 38.314 5.117-20.185 7.848-42.703 8.035-66.313 36.622-9.086 70.997-22.103 101.068-39.154-.195 24.78-3.299 47.274-9.114 67.153zm-91.91-30.918c-.016-24.846-1.446-50.861-4.197-77.483 35.076-8.75 68.013-21.236 96.844-37.573 5.39 25.651 8.35 51.047 8.408 75.554-29.994 17.215-64.384 30.349-101.055 39.502zm-4.505-80.308c-3.261-30.584-8.243-61.939-14.853-93.314 30.074-7.592 58.32-18.352 83.092-32.372 12.303 29.023 21.908 58.672 28.291 88.037-28.708 16.371-61.538 28.888-96.53 37.649zm108.371 39.151c-.193-24.466-3.2-49.776-8.635-75.334 26.963-15.616 48.415-33.384 64.084-53.025 7.474 22.862 12.505 45.373 14.757 66.762-15.911 22.693-39.56 43.587-70.206 61.597zm93.96-132.814c.095 23.603-7.376 46.534-21.596 67.951-2.483-21.201-7.587-43.416-15.068-65.96 4.554-5.935 8.667-12.01 12.172-18.279 8.539-15.283 13.469-31.278 14.953-47.39 6.167 20.419 9.493 41.736 9.539 63.678zm-52.354-126.952c1.108-5.009 1.665-10.02 1.96-15.038 16.813 21.769 29.874 45.641 38.475 71.016-.463 18.086-5.466 36.134-15.057 53.297-3.126 5.601-6.809 11.032-10.802 16.376-9.102-26.645-21.485-53.677-36.733-79.95 11.124-14.345 18.62-29.681 22.157-45.701zm12.771 128.131c-15.386 19.74-36.688 37.639-63.639 53.354-6.456-29.334-16.084-58.947-28.394-87.928 23.265-13.496 41.836-28.915 55.399-45.725 15.259 26.41 27.627 53.564 36.634 80.299zm-151.42-142.405c17.592-10.154 31.398-21.926 41.096-34.731a446.792 446.792 0 0 1 23.132 25.142c18.521 21.757 34.976 45.073 49.038 69.044-13.33 16.79-31.784 32.219-54.993 45.717-15.782-36.626-35.832-72.158-59.017-104.791.247-.132.504-.246.744-.381zm-3.242 1.688c23.221 32.637 43.274 68.208 59.056 104.872-24.616 13.971-52.683 24.695-82.589 32.26-5.428-25.382-11.884-50.761-19.356-75.704a896.405 896.405 0 0 0-13.013-39.936c20.136-5.143 39.133-12.227 55.902-21.492zm-133.246 31.199c25.521-.112 50.934-3.18 74.782-9.031 12.763 36.181 23.731 75.465 32.303 115.625-34.134 8.381-70.575 12.678-107.087 12.789l.002-119.383zm0 122.176c36.717-.112 73.356-4.415 107.68-12.827 6.514 30.946 11.57 62.381 14.899 93.3-39.078 9.54-80.801 14.411-122.579 14.516v-94.989zm0 97.799c41.882-.111 83.698-4.982 122.898-14.516 2.738 26.361 4.212 52.308 4.212 77.226 0 .088-.004.177-.004.276-40.528 9.882-83.79 14.926-127.106 15.033v-78.019zm0 80.82c43.289-.106 86.513-5.113 127.057-14.933-.246 23.964-3.115 46.389-8.37 66.401-37.961 8.896-78.3 13.407-118.685 13.518v-64.986h-.002zm0 67.787c40.059-.1 80.084-4.523 117.795-13.226-5.293 18.988-12.716 35.744-22.045 49.462-30.799 6.678-63.253 10.112-95.75 10.203v-46.439zM1331.507 764.5c14.5 7.188 30.426 12.873 47.167 17.216a892.98 892.98 0 0 0-13.1 40.174c-7.441 24.842-13.875 50.129-19.288 75.419-24.821-6.346-48.364-14.86-69.685-25.633 14.982-37.304 33.7-73.849 54.906-107.176zm-83.893 201.328c25.307 12.843 53.32 22.951 82.877 30.389-2.751 26.626-4.197 52.637-4.219 77.496-31.191-7.86-60.701-18.624-87.25-32.327.065-23.925 3.126-49.411 8.592-75.558zm-11.408 74.093c-3.621-1.922-7.215-3.871-10.729-5.896-32.26-18.632-56.88-40.42-73.137-64.126 2.348-21.294 7.426-43.67 14.922-66.386 15.786 20.086 37.581 38.233 65.124 54.134a322.096 322.096 0 0 0 12.624 6.889c-5.582 26.436-8.613 51.839-8.804 75.385zm12.018-76.966c6.299-29.172 15.609-59.109 27.316-88.626 21.474 10.809 45.173 19.367 70.141 25.736-6.621 31.375-11.611 62.738-14.876 93.329-29.472-7.453-57.39-17.577-82.581-30.439zm6.992-213.781a440.952 440.952 0 0 1 23.737-25.724c9.709 13.02 23.649 24.981 41.495 35.28 2.835 1.641 5.86 3.088 8.822 4.607a662.196 662.196 0 0 0-23.008 39.07 662.942 662.942 0 0 0-32.103 68.07c-3.818-1.979-7.583-4.013-11.248-6.133-23.886-13.778-42.798-29.598-56.302-46.845 13.969-23.726 30.272-46.789 48.607-68.325zm-50.124 70.951c13.683 17.192 32.607 32.952 56.393 46.684a274.052 274.052 0 0 0 11.611 6.31c-11.96 29.994-21.224 59.845-27.477 88.547a324.149 324.149 0 0 1-11.815-6.488c-27.938-16.124-49.803-34.586-65.455-54.993 9.061-26.663 21.464-53.74 36.743-80.06zm-25.252-62.158c.303 5.21.902 10.423 2.087 15.614 3.534 15.567 10.783 30.488 21.489 44.47-15.268 26.196-27.677 53.147-36.833 79.731-3.698-5.013-7.135-10.108-10.073-15.352-9.647-17.213-14.676-35.314-15.141-53.459 8.599-25.371 21.665-49.235 38.471-71.004zm-50.384 141.698c.073-21.835 3.396-43.052 9.522-63.375 1.499 16.15 6.459 32.195 15.048 47.528 3.295 5.893 7.173 11.6 11.405 17.2-7.523 22.46-12.621 44.59-15.188 65.734-13.754-21.17-20.942-43.806-20.787-67.087zm103.692 203.972c-37.915-21.884-65.374-48.89-80.199-78.205-2.444-15.935-2.723-33.147-1.036-51.176 16.487 22.993 40.75 44.107 72.148 62.235a340.625 340.625 0 0 0 12.104 6.648c.042 25.252 1.73 46.749 5.286 65.046-2.791-1.492-5.591-2.983-8.303-4.548zm5.881-59.071c26.602 13.591 56.118 24.251 87.281 32.057.161 23.607 2.876 46.116 7.975 66.305-32.092-7.806-62.424-18.766-89.502-32.912-3.803-18.274-5.65-39.864-5.754-65.45zm27.987 117.481c-9.877-12.605-16.917-28.474-21.462-48.457 27.163 13.948 57.497 24.727 89.551 32.427 1.699 6.343 3.598 12.489 5.774 18.323 4.284 11.511 9.536 21.892 15.531 31.064-32.414-7.437-62.864-18.554-89.394-33.357zm189.924 44.59c-32.928-.091-65.795-3.614-96.954-10.472-9.29-13.736-16.68-30.485-21.937-49.469 38.049 8.865 78.434 13.403 118.893 13.503v46.438h-.002zm0-49.239c-40.777-.104-81.499-4.729-119.775-13.791-5.237-19.997-8.071-42.402-8.286-66.336 40.815 9.981 84.42 15.033 128.062 15.139l-.001 64.988zm0-67.785c-43.672-.107-87.307-5.197-128.119-15.248v-.031c0-24.988 1.488-51.016 4.239-77.445 39.477 9.685 81.649 14.592 123.88 14.704v78.02zm0-80.833c-42.127-.104-84.205-5.021-123.558-14.715 3.337-30.934 8.401-62.37 14.926-93.318 34.581 8.573 71.58 12.934 108.63 13.046v94.987h.002zm0-97.779c-36.852-.111-73.647-4.461-108.036-13.015 8.589-40.16 19.568-79.456 32.345-115.648 24.106 6.004 49.838 9.168 75.693 9.28l-.002 119.383z"/><ellipse class="st12" cx="1458.36" cy="767.17" rx="287.728" ry="166.119"/><linearGradient id="SVGID_17_" gradientUnits="userSpaceOnUse" x1="1185.001" y1="259.171" x2="1731.719" y2="259.171" gradientTransform="translate(0 508)"><stop offset="0" stop-color="#20196f"/><stop offset=".474" stop-color="#3b359d"/><stop offset="1" stop-color="#5652cc"/></linearGradient><ellipse class="st37" cx="1458.36" cy="767.17" rx="273.359" ry="157.825"/></g><g id="Wires"><path class="st28" d="M510.909 1662.59c-.478 0-.963-.111-1.417-.347-173.806-90.064-261.741-145.018-260.001-195.44 1.023-29.632 32.836-56.444 103.149-86.928a3.08 3.08 0 0 1 4.062 1.604 3.084 3.084 0 0 1-1.604 4.058c-66.923 29.019-98.519 54.909-99.435 81.476-1.617 46.864 88.961 102.843 256.671 189.747a3.084 3.084 0 0 1 1.32 4.161 3.086 3.086 0 0 1-2.745 1.669z"/><path class="st28" d="M486.227 1676.758c-.487 0-.979-.115-1.441-.359-30.398-16.078-59.997-31.519-88.62-46.447-207.715-108.343-357.793-186.62-354.918-269.408 1.728-49.765 58.364-97.301 178.238-149.595a3.084 3.084 0 0 1 4.065 1.598 3.089 3.089 0 0 1-1.596 4.065c-115.831 50.53-172.923 97.682-174.536 144.146-2.739 78.899 145.891 156.422 351.603 263.718 28.631 14.935 58.237 30.377 88.653 46.466a3.087 3.087 0 0 1-1.448 5.816zM1763.526 992.304a3.087 3.087 0 0 1-3.088-3.088 3.087 3.087 0 0 1 3.088-3.088c30.241 0 183.951-15.31 219.849-58.77 5.918-7.167 8.06-14.482 6.543-22.365a3.088 3.088 0 0 1 6.067-1.167c1.858 9.668-.781 18.908-7.849 27.463-37.266 45.122-193.857 61.015-224.61 61.015z"/><path class="st11" d="M1328.824 1374.089a4.633 4.633 0 0 1-2.186-8.717c33.603-17.95 56.658-38.771 78.949-58.904 44.449-40.142 82.84-74.807 184.395-62.51 73.86 8.953 156.796.567 227.513-23.001 75.667-25.211 129.695-65.167 152.131-112.507 23.025-48.581 17.112-100.821-15.064-133.086-18.62-18.668-74.096-56.361-186.909-3.264a4.632 4.632 0 0 1-3.944-8.382c118.137-55.597 177.412-14.947 197.412 5.105 34.975 35.071 41.6 91.436 16.876 143.597-23.528 49.641-79.489 91.31-157.574 117.329-71.979 23.98-156.371 32.517-231.557 23.408-97.362-11.796-132.538 19.97-177.071 60.189-21.65 19.551-46.188 41.713-80.792 60.201a4.668 4.668 0 0 1-2.179.542z"/><path class="st10" d="M1768.947 943.398a3.09 3.09 0 0 1-1.65-5.701c54.9-34.593 112.16-28.746 158.168-24.042 15.106 1.544 29.379 3.001 42.359 3.001 13.455 0 21.469-2.523 22.564-7.104 2.232-9.324-21.243-32.521-63.05-53.742a3.086 3.086 0 0 1-1.357-4.151 3.084 3.084 0 0 1 4.149-1.355c34.694 17.61 70.23 44.109 66.264 60.684-1.881 7.857-11.491 11.843-28.57 11.843-13.294 0-27.716-1.475-42.987-3.035-47.409-4.843-101.148-10.335-154.248 23.125a3.068 3.068 0 0 1-1.642.477z"/><path class="st11" d="M510.909 1656.257c-.478 0-.963-.111-1.417-.347-173.806-90.064-261.741-145.018-260.001-195.44 1.023-29.628 32.836-56.44 103.149-86.925a3.08 3.08 0 0 1 4.062 1.604 3.084 3.084 0 0 1-1.604 4.058c-66.923 29.019-98.519 54.909-99.435 81.476-1.617 46.861 88.961 102.841 256.671 189.744a3.084 3.084 0 0 1 1.32 4.161 3.084 3.084 0 0 1-2.745 1.669z"/><path class="st11" d="M486.227 1670.43c-.487 0-.979-.115-1.441-.359-30.399-16.081-59.998-31.519-88.625-46.451-207.713-108.343-357.789-186.624-354.913-269.408 1.728-49.765 58.364-97.301 178.238-149.595a3.09 3.09 0 0 1 2.469 5.663c-115.831 50.53-172.923 97.682-174.536 144.147-2.739 78.895 145.889 156.422 351.598 263.718 28.634 14.935 58.241 30.379 88.657 46.469a3.087 3.087 0 0 1-1.447 5.816z"/></g><g id="Microscheme"><defs><path id="SVGID_18_" d="M1731.719 531.781h-546.718v235.388c0 40.391 26.689 80.782 80.066 111.598 106.755 61.635 279.836 61.635 386.589.001 53.377-30.818 80.066-71.209 80.065-111.6l-.002-235.387z"/></defs><clipPath id="SVGID_19_"><use xlink:href="#SVGID_18_" overflow="visible"/></clipPath><g class="st38"><path class="st30" d="M1458.586 566.799l209.563 120.99-209.562 120.991-209.562-120.991z"/><path class="st8" d="M1249.025 901.172l209.562 120.99V808.78l-209.562-120.991z"/><path class="st11" d="M1668.15 901.172l-209.563 120.99V808.78l209.563-120.991z"/></g><g><defs><path id="SVGID_20_" d="M1731.719 531.781h-546.718v235.388c0 40.391 26.689 80.782 80.066 111.598 106.755 61.635 279.836 61.635 386.589.001 53.377-30.818 80.066-71.209 80.065-111.6l-.002-235.387z"/></defs><clipPath id="SVGID_21_"><use xlink:href="#SVGID_20_" overflow="visible"/></clipPath><g class="st39"><path class="st11" d="M1668.15 901.172l-209.563 120.991V808.78l209.563-120.991z"/><path class="st8" d="M1570.944 793.003l-13.834 23.96-.241-40.828v-24.101l-3.064 1.769v13.843l-8.68 15.033v67.426l-44.561 77.182v70.637l31.052-17.928v-50.22l25.254-43.739v79.379l10.279-5.935V835.277l6.858-11.88v-81.256l-3.064 1.769.001 49.093zm-31.211-31.073l-3.064 1.77v9.726l-20.564 35.618v56.019l-24.283 42.057-33.234-19.188v42.243l15.699 9.064v73.86l17.536-10.124v-85.813l47.91-82.982v-72.25zm52.042-30.047l-3.064 1.769v30.973l-11.917 20.642v54.018l12.393 7.155v37.923l-12.393 21.466v48.087l16.254-9.384V903.49l6.351-11v-60.081l-7.623-4.401v-96.125zm76.375 59.805v-18.8l-58.755-33.922V721.71l-3.064 1.769V846.31l61.819 35.691v-18.799l-50.145-28.951v-11.305l50.145 28.951v-18.8l-50.145-28.951v-11.305l50.145 28.951v-18.8l-50.145-28.951v-11.305l50.145 28.952zm-187.098 75.14l-22.463-12.969v18.8l22.463 12.969v-18.8zm10.77-25.019l-33.234-19.188v18.8l33.234 19.188v-18.8z"/><path class="st31" d="M1502.084 863.69c-1.256-.725-1.256-3.077 0-5.253s3.294-3.352 4.55-2.627c1.256.726 1.256 3.078 0 5.254-1.256 2.175-3.293 3.352-4.55 2.626zM1501.143 846.426c0-2.051 1.44-4.546 3.217-5.573 1.777-1.025 3.217-.194 3.217 1.858s-1.44 4.546-3.217 5.573c-1.777 1.026-3.217.194-3.217-1.858zM1501.143 831.246c0-2.051 1.44-4.546 3.217-5.571 1.777-1.026 3.217-.194 3.217 1.858s-1.44 4.546-3.217 5.573c-1.777 1.023-3.217.191-3.217-1.86zM1501.143 816.064c0-2.052 1.44-4.546 3.217-5.573 1.777-1.025 3.217-.194 3.217 1.858s-1.44 4.546-3.217 5.573c-1.777 1.025-3.217.194-3.217-1.858zM1501.143 800.884c0-2.051 1.44-4.546 3.217-5.573 1.777-1.026 3.217-.194 3.217 1.858s-1.44 4.546-3.217 5.573c-1.777 1.025-3.217.194-3.217-1.858zM1606.178 927.173c0-2.052 1.44-4.546 3.217-5.573 1.777-1.025 3.217-.194 3.217 1.858 0 2.051-1.44 4.546-3.217 5.573-1.777 1.024-3.217.193-3.217-1.858zM1606.178 911.992c0-2.051 1.44-4.546 3.217-5.573 1.777-1.026 3.217-.194 3.217 1.858s-1.44 4.546-3.217 5.571c-1.777 1.027-3.217.196-3.217-1.856zM1606.178 896.811c0-2.051 1.44-4.546 3.217-5.571 1.777-1.026 3.217-.194 3.217 1.858s-1.44 4.546-3.217 5.573c-1.777 1.022-3.217.191-3.217-1.86zM1606.178 881.629c0-2.051 1.44-4.546 3.217-5.573 1.777-1.026 3.217-.194 3.217 1.858s-1.44 4.546-3.217 5.573c-1.777 1.026-3.217.195-3.217-1.858zM1606.178 866.449c0-2.052 1.44-4.546 3.217-5.573 1.777-1.026 3.217-.194 3.217 1.858 0 2.051-1.44 4.546-3.217 5.573-1.777 1.025-3.217.194-3.217-1.858z"/></g></g><g><defs><path id="SVGID_22_" d="M1731.719 531.781h-546.718v235.388c0 40.391 26.689 80.782 80.066 111.598 106.755 61.635 279.836 61.635 386.589.001 53.377-30.818 80.066-71.209 80.065-111.6l-.002-235.387z"/></defs><clipPath id="SVGID_23_"><use xlink:href="#SVGID_22_" overflow="visible"/></clipPath><g class="st40"><path class="st8" d="M1249.025 901.172l209.562 120.991V808.78l-209.562-120.991z"/><path class="st31" d="M1410.151 978.949c-1.256-2.176-1.256-4.528 0-5.253 1.256-.726 3.294.451 4.55 2.627 1.256 2.176 1.256 4.528 0 5.254-1.257.724-3.293-.452-4.55-2.628zM1409.208 960.597c0-2.051 1.44-2.883 3.217-1.858 1.777 1.025 3.217 3.521 3.217 5.573s-1.44 2.884-3.217 1.858c-1.776-1.027-3.217-3.521-3.217-5.573zM1409.208 945.416c0-2.051 1.44-2.883 3.217-1.858 1.777 1.026 3.217 3.52 3.217 5.573 0 2.051-1.44 2.883-3.217 1.858-1.777-1.026-3.217-3.521-3.217-5.573zM1409.208 930.235c0-2.051 1.44-2.883 3.217-1.858 1.777 1.026 3.217 3.521 3.217 5.573s-1.44 2.884-3.217 1.858c-1.776-1.026-3.217-3.521-3.217-5.573zM1409.208 915.054c0-2.051 1.44-2.883 3.217-1.858 1.777 1.025 3.217 3.52 3.217 5.573 0 2.051-1.44 2.884-3.217 1.858-1.776-1.025-3.217-3.52-3.217-5.573z"/><path class="st30" d="M1307.237 721.398l-5.307-3.063v141.963l-13.943 8.05v55.321l29.901 17.263V770.819l-10.652-18.449.001-30.972zm142.862 156.162l8.49-4.902v-18.8l-8.49 4.902v18.8zm0-50.037v18.8l8.49-4.902v-18.8l-8.49 4.902zm-49.628 36.5v-88.798l-3.064-1.769v27.712l-16.901-27.745V763.7l-3.064-1.77v72.25l47.91 82.982v85.811l17.536 10.125v-73.86l15.699-9.064v-42.243l-33.234 19.188-24.882-43.096zm30.478 18.835v-48.26l-10.054-17.412v-30.168l-3.064-1.769v47.035l.152.088-.152 4.062-8.928 5.154v31.487l9.748 16.883 12.298-7.1zm-62.171-77.239l-5.41-9.369v-42.446l-3.064-1.769v21.295l-8.852 5.111-5.223-9.046V743.91l-3.064-1.769v46.703l-6.081 3.511v85.441l31.693-18.298 31.693 54.894v-21.459l-31.693-54.893.001-32.421zm0 164.692l22.493 12.986v-70.503l-22.493-38.958v96.475zm-39.683-236.293l-3.064-1.769v213.383l13.371 7.719v-51.783l-10.307-17.852V734.018zm-37.988-21.933l-42.083-24.296v136.97l18.789 10.848 23.293-13.449V712.085z"/><path class="st8" d="M1265.54 802.844c-1.256-2.176-1.256-4.528 0-5.254 1.256-.725 3.294.451 4.55 2.627 1.256 2.176 1.256 4.528 0 5.254-1.257.725-3.294-.451-4.55-2.627zM1264.598 784.492c0-2.051 1.44-2.884 3.217-1.858 1.776 1.025 3.217 3.52 3.217 5.573 0 2.051-1.44 2.884-3.217 1.858-1.777-1.026-3.217-3.521-3.217-5.573zM1264.598 769.311c0-2.051 1.44-2.883 3.217-1.858 1.776 1.026 3.217 3.521 3.217 5.573 0 2.051-1.44 2.883-3.217 1.858-1.777-1.027-3.217-3.522-3.217-5.573zM1264.598 754.131c0-2.051 1.44-2.884 3.217-1.858 1.776 1.026 3.217 3.521 3.217 5.573s-1.44 2.884-3.217 1.858c-1.777-1.027-3.217-3.522-3.217-5.573zM1264.598 738.949c0-2.051 1.44-2.884 3.217-1.858 1.776 1.025 3.217 3.52 3.217 5.573 0 2.051-1.44 2.883-3.217 1.858-1.777-1.027-3.217-3.521-3.217-5.573z"/></g></g></g><g id="Microchip"><path class="st12" d="M1383.372 655.131c.527 0 1.044-.273 1.325-.766a1.528 1.528 0 0 0-.56-2.092l-36.799-21.246-3.064 1.769 38.332 22.13c.242.14.505.205.766.205zM1400.477 645.256c.527 0 1.044-.274 1.325-.766a1.529 1.529 0 0 0-.559-2.092l-36.799-21.246-3.064 1.769 38.332 22.13c.242.139.505.205.765.205zM1365.645 691.357a1.53 1.53 0 0 0-2.091-.561l-47.695 27.537h-13.929l5.307 3.063h9.032c.269 0 .532-.07.766-.205l48.05-27.742a1.528 1.528 0 0 0 .56-2.092zM1365.853 664.843c.527 0 1.045-.275 1.325-.766a1.528 1.528 0 0 0-.559-2.092l-36.449-21.044-3.064 1.769 37.982 21.929c.243.138.506.204.765.204zM1417.788 635.461c.526 0 1.044-.275 1.325-.766a1.529 1.529 0 0 0-.56-2.093l-36.972-21.346-3.064 1.769 38.505 22.23c.241.14.505.206.766.206zM1348.544 674.637c.526 0 1.045-.275 1.325-.766a1.528 1.528 0 0 0-.56-2.092l-36.276-20.944-3.064 1.77 37.809 21.829c.242.136.505.203.766.203zM1526.851 657.651a1.527 1.527 0 0 0 2.091.561l43.988-25.396-3.064-1.769-42.457 24.511a1.531 1.531 0 0 0-.558 2.093zM1544.162 667.445a1.527 1.527 0 0 0 2.091.561l43.813-25.297-3.064-1.769-42.281 24.412a1.529 1.529 0 0 0-.559 2.093zM1561.475 677.238a1.527 1.527 0 0 0 2.091.561l43.639-25.195-3.063-1.769-42.107 24.311a1.529 1.529 0 0 0-.56 2.092zM1492.228 638.062a1.526 1.526 0 0 0 2.091.561l44.336-25.597-3.064-1.769-42.805 24.711a1.532 1.532 0 0 0-.558 2.094zM1509.542 647.858a1.525 1.525 0 0 0 2.091.561l44.16-25.498-3.064-1.769-42.629 24.612a1.53 1.53 0 0 0-.558 2.094zM1435.098 625.667c.526 0 1.044-.275 1.325-.766a1.528 1.528 0 0 0-.559-2.092l-37.145-21.446-3.064 1.769 38.677 22.33c.242.14.505.205.766.205zM1499.599 720.739a1.529 1.529 0 0 0 .559 2.092l53.648 30.973 3.064-1.769-55.179-31.857a1.535 1.535 0 0 0-2.092.561zM1516.91 710.945a1.528 1.528 0 0 0 .559 2.092l53.475 30.873 3.064-1.769-55.006-31.757a1.535 1.535 0 0 0-2.092.561zM1482.286 730.532a1.528 1.528 0 0 0 .559 2.092l53.822 31.074 3.064-1.769-55.354-31.959a1.534 1.534 0 0 0-2.091.562zM1518.455 601.364l-42.978 24.813a1.528 1.528 0 0 0-.559 2.092 1.525 1.525 0 0 0 2.091.561l44.511-25.697-3.065-1.769zM1554.389 689.954a1.533 1.533 0 0 0-1.531 2.653l53.474 30.873 3.064-1.769-55.007-31.757zM1534.677 700.688a1.528 1.528 0 0 0 .56 2.092l53.475 30.873 3.064-1.769-55.006-31.757a1.534 1.534 0 0 0-2.093.561zM1434.889 730.532a1.528 1.528 0 0 0-2.092-.561l-34.623 19.99a1.532 1.532 0 0 0-.766 1.326v22.169l3.063 1.769v-23.054l33.857-19.546a1.531 1.531 0 0 0 .561-2.093zM1450.107 739.766l-31.509 18.191a1.537 1.537 0 0 0-.766 1.328v25.966l3.063 1.769v-26.85l30.743-17.749c.734-.424.984-1.36.559-2.092a1.524 1.524 0 0 0-2.09-.563zM1417.576 720.739a1.529 1.529 0 0 0-2.091-.561l-55.179 31.857 3.064 1.769 53.646-30.973a1.529 1.529 0 0 0 .56-2.092zM1400.265 710.945a1.525 1.525 0 0 0-2.091-.561l-55.005 31.757 3.064 1.769 53.474-30.873a1.53 1.53 0 0 0 .558-2.092zM1382.579 758.966l-5.136 2.965 3.064 1.769 5.136-2.965zM1382.955 701.152a1.53 1.53 0 0 0-2.092-.561l-54.832 31.657 3.064 1.77 53.299-30.773a1.53 1.53 0 0 0 .561-2.093z"/><g><linearGradient id="SVGID_24_" gradientUnits="userSpaceOnUse" x1="1458.587" y1="179.355" x2="1615.227" y2="179.355" gradientTransform="translate(0 508)"><stop offset="0" stop-color="#dae0f5"/><stop offset=".318" stop-color="#dfe4f6"/><stop offset=".676" stop-color="#eceffa"/><stop offset="1" stop-color="#fff"/></linearGradient><path class="st41" d="M1615.228 687.355l-115.02-66.407h-41.621l115.02 66.407-115.02 66.408h41.621z"/><path class="st8" d="M1458.586 729.733l-115.019-66.407 115.019-66.406 115.021 66.406z"/><path class="st11" d="M1458.587 753.763l-115.02-66.408v-24.029l115.019 66.407z"/><path class="st31" d="M1458.586 753.763l115.021-66.408v-24.029l-115.02 66.407z"/><path class="st42" d="M1472.167 749.356l8.1-4.676.001-17.78-8.101 4.677z"/><path class="st43" d="M1472.168 749.356l-2.975-1.717v-17.78l2.974 1.718z"/><path class="st44" d="M1472.167 731.577l-2.974-1.718 8.099-4.676 2.976 1.717z"/><path class="st42" d="M1489.478 739.362l8.101-4.676v-17.78l-8.1 4.676z"/><path class="st43" d="M1489.479 739.362l-2.975-1.717v-17.78l2.975 1.717z"/><path class="st44" d="M1489.479 721.582l-2.975-1.717 8.1-4.677 2.975 1.718z"/><path class="st42" d="M1506.79 729.367l8.099-4.677v-17.779l-8.099 4.676z"/><path class="st43" d="M1506.79 729.367l-2.974-1.717-.002-17.779 2.976 1.716z"/><path class="st44" d="M1506.79 711.587l-2.974-1.716 8.099-4.678 2.974 1.718z"/><path class="st42" d="M1524.1 719.373l8.1-4.677v-17.78l-8.1 4.677z"/><path class="st43" d="M1524.1 719.373l-2.974-1.718v-17.78l2.974 1.718z"/><path class="st44" d="M1524.1 701.593l-2.974-1.718 8.1-4.676 2.974 1.717z"/><path class="st42" d="M1541.411 709.378l8.1-4.676.001-17.78-8.101 4.677z"/><path class="st43" d="M1541.411 709.378l-2.974-1.717v-17.78l2.974 1.718z"/><path class="st44" d="M1541.411 691.599l-2.974-1.718 8.101-4.676 2.974 1.717z"/><path class="st42" d="M1558.722 699.384l8.101-4.676v-17.78l-8.1 4.676z"/><path class="st43" d="M1558.723 699.384l-2.974-1.717-.001-17.78 2.974 1.717z"/><path class="st44" d="M1558.723 681.604l-2.975-1.717 8.101-4.677 2.974 1.718z"/><path class="st43" d="M1445.007 749.356l-8.1-4.676V726.9l8.1 4.677z"/><path class="st42" d="M1445.007 749.356l2.974-1.717v-17.78l-2.974 1.718z"/><path class="st44" d="M1445.007 731.577l2.974-1.718-8.1-4.676-2.974 1.717z"/><g><path class="st43" d="M1427.696 739.362l-8.1-4.676v-17.78l8.1 4.676z"/><path class="st42" d="M1427.696 739.362l2.974-1.717v-17.78l-2.974 1.717z"/><path class="st44" d="M1427.696 721.582l2.974-1.717-8.1-4.677-2.974 1.718z"/></g><g><path class="st43" d="M1410.385 729.367l-8.099-4.677-.002-17.779 8.101 4.676z"/><path class="st42" d="M1410.384 729.367l2.975-1.717v-17.779l-2.974 1.716z"/><path class="st44" d="M1410.385 711.587l2.974-1.716-8.101-4.678-2.974 1.718z"/></g><g><path class="st43" d="M1393.074 719.373l-8.1-4.677v-17.78l8.099 4.677z"/><path class="st42" d="M1393.073 719.373l2.974-1.718.001-17.78-2.974 1.718z"/><path class="st44" d="M1393.073 701.593l2.974-1.718-8.099-4.676-2.974 1.717z"/></g><g><path class="st43" d="M1375.762 709.378l-8.099-4.676v-17.78l8.099 4.677z"/><path class="st42" d="M1375.762 709.378l2.974-1.717v-17.78l-2.974 1.718z"/><path class="st44" d="M1375.762 691.599l2.974-1.718-8.099-4.676-2.974 1.717z"/></g><g><path class="st43" d="M1358.452 699.384l-8.1-4.676-.001-17.78 8.101 4.676z"/><path class="st42" d="M1358.452 699.384l2.974-1.717v-17.78l-2.974 1.717z"/><path class="st44" d="M1358.452 681.604l2.974-1.717-8.1-4.677-2.975 1.718z"/></g><path class="st26" d="M1358.452 699.384h5.948v-15.52l-2.974-3.977v17.78zM1375.762 709.378h5.95v-15.52l-2.974-3.977v17.78zM1393.074 719.373h5.95v-15.521l-2.976-3.977v17.78zM1410.385 729.367h5.949v-15.521l-2.974-3.975v17.779zM1427.697 739.362h5.949v-15.52l-2.974-3.977v17.78zM1445.009 749.356h5.948v-15.52l-2.974-3.977v17.78z"/><path class="st11" d="M1470.68 707.836l-42.304-24.424 82.463-47.61 42.305 24.425z"/><path class="st23" d="M1466.988 653.009l-42.304-24.424 5.261-3.037 42.304 24.423zM1456.466 659.083l-31.48-18.174 5.262-3.038 31.479 18.175z"/></g><path class="st12" d="M1291.107 712.085v-48.592l-42.082 24.296z"/></g><g id="Laptop"><linearGradient id="SVGID_25_" gradientUnits="userSpaceOnUse" x1="231.766" y1="734.888" x2="1164.042" y2="734.888" gradientTransform="translate(0 508)"><stop offset="0" stop-color="#c4cae9"/><stop offset="1" stop-color="#f1f1f6"/></linearGradient><path class="st45" d="M1157.517 1186.593L795.376 977.511c-8.695-5.022-22.928-5.022-31.63 0l-525.457 303.371c-8.697 5.018-8.697 13.237 0 18.257 0 0 362.336 209.173 362.427 209.224l-12.299 3.622s23.34.101 28.257 0c4.919-.099 11.139-1.304 15.384-3.761l525.458-303.369c8.701-5.022 8.701-13.239.001-18.262z"/><path class="st11" d="M204.178 1275.035c0 10.051 7.113 14.156 15.813 9.133l531.298-306.743c8.702-5.024 15.818-17.352 15.818-27.395V549.296c0-10.045-7.115-14.156-15.818-9.133L219.991 846.908c-8.7 5.022-15.813 17.35-15.813 27.395v400.732z"/><linearGradient id="SVGID_26_" gradientUnits="userSpaceOnUse" x1="4326.899" y1="-52.408" x2="4788.41" y2="746.952" gradientTransform="matrix(-1 0 0 1 4944.752 508)"><stop offset=".576" stop-color="#6b67e9"/><stop offset=".612" stop-color="#5652cc"/></linearGradient><path class="st46" d="M208.05 840.014l531.3-306.743c4.407-2.543 8.397-2.738 11.275-1.014v-.009l11.369 6.592-.032.001c-2.82-1.364-6.558-1.051-10.672 1.322L219.991 846.908c-8.7 5.022-15.813 17.35-15.813 27.395v400.732c0 4.988 1.753 8.507 4.582 10.181l-11.361-6.585.04-.005c-3.184-1.51-5.203-5.147-5.203-10.48V867.41c0-10.049 7.12-22.372 15.814-27.396z"/><path class="st2" d="M219.991 1259.62l531.298-306.746V558.425L219.991 865.171z"/><g><path class="st27" d="M580.268 1499.12c8.7 5.023 22.933 5.023 31.633 0l531.302-306.747c8.695-5.023 8.695-13.242 0-18.268L781.059 965.027c-8.697-5.019-22.93-5.019-31.63 0l-531.297 306.75c-8.702 5.018-8.702 13.233 0 18.256l362.136 209.087z"/><path class="st47" d="M748.872 1008.531l25.983-15.002-12.995-7.502-25.981 15.003zM705.111 1033.797l25.988-15.003-12.997-7.498-25.981 14.997zM661.353 1059.058l25.978-15.001-12.988-7.498-25.986 15.002zM617.589 1084.326l25.98-14.998-12.994-7.506-25.976 15.009zM573.831 1109.592l25.98-15-12.992-7.497-25.984 14.997zM530.065 1134.859l25.977-15-12.984-7.501-25.989 15zM486.304 1160.129l25.982-15.005-12.994-7.499-25.981 14.997zM442.543 1185.392l25.982-14.999-12.996-7.504-25.982 15.001zM398.778 1210.654l25.983-14.998-12.99-7.506-25.987 15.005zM355.017 1235.919l25.986-14.999-12.996-7.5-25.978 15zM311.254 1261.191l25.985-15.007-12.995-7.497-25.985 15.003zM267.493 1286.457l25.985-15.006-12.992-7.5-25.986 15.004zM771.906 1045.761l46.708-26.967-25.972-14.999-46.721 26.969zM796.07 1080.246l64.493-37.234-25.983-15.003-64.496 37.234zM822.052 1115.771l82.27-47.492-25.979-15.001-82.27 47.5zM910.567 1125.82l46.716-26.968-35.178-20.312-46.717 26.972zM846.074 1163.056l46.716-26.972-35.179-20.313-46.714 26.977zM781.579 1200.291l46.713-26.972-35.179-20.308-46.706 26.972zM559.214 1328.68l46.717-26.981-35.181-20.304-46.719 26.972zM449.915 1391.778l91.627-52.901-35.178-20.311-91.626 52.899zM623.6 1291.502l140.2-80.942-35.177-20.314-140.205 80.948zM715.893 1078.102l38.231-22.07-25.976-15.003-38.236 22.072zM740.061 1112.58l38.233-22.068-25.986-15.008-38.232 22.071zM764.845 1147.421l38.228-22.068-25.98-15.009-38.228 22.076zM708.84 1179.759l38.228-22.071-25.978-15.006-38.235 22.072zM652.834 1212.089l38.229-22.07-25.982-14.999-38.23 22.07zM596.823 1244.431l38.227-22.072-25.98-15.002-38.226 22.07zM540.817 1276.766l38.229-22.07-25.984-15.009-38.228 22.081zM484.808 1309.102l38.23-22.07-25.982-15.01-38.228 22.076zM395.761 1360.515l71.271-41.146-25.983-15.006-71.268 41.148zM684.053 1144.915l38.23-22.068-25.985-14.997-38.228 22.068zM628.046 1177.255l38.231-22.075-25.987-14.998-38.231 22.066zM572.038 1209.587l38.235-22.067-25.99-15.005-38.23 22.076zM516.029 1241.923l38.231-22.071-25.986-15.001-38.227 22.072zM460.021 1274.263l38.233-22.076-25.988-14.996-38.23 22.072zM353.198 1335.938l89.047-51.413-25.985-15-89.051 51.41zM659.888 1110.433l38.229-22.07-25.982-14.998-38.231 22.075zM603.881 1142.77l38.228-22.07-25.981-14.999-38.23 22.068zM547.872 1175.104l38.228-22.068-25.982-14.995-38.226 22.068zM491.869 1207.448l38.23-22.081-25.986-14.996-38.228 22.077zM435.855 1239.783l38.233-22.075-25.98-14.999-38.23 22.072zM379.852 1272.114l38.228-22.071-25.984-14.999-38.228 22.072zM311.254 1311.718l50.814-29.337-25.98-15.001-50.814 29.34z"/><path class="st12" d="M286.469 1246.881l419.843-242.401-12.614-7.278-419.842 242.396z"/><path class="st47" d="M623.608 1322.822l214.24-123.692 133.128 76.863-214.24 123.694z"/><linearGradient id="SVGID_27_" gradientUnits="userSpaceOnUse" x1="3795.029" y1="839.785" x2="4733.138" y2="839.785" gradientTransform="matrix(-1 0 0 1 4944.752 508)"><stop offset=".564" stop-color="#362e94"/><stop offset=".626" stop-color="#6b67e9"/></linearGradient><path class="st48" d="M218.132 1290.033l362.136 209.086c6.91 3.988 17.296 4.798 25.644 2.448.064-.015 5.197-1.988 5.989-2.448l531.302-306.747c.604-.354 1.156-.72 1.676-1.097.03-.017.054-.042.084-.064.138-.101.257-.21.391-.315.306-.241.604-.485.876-.735.14-.128.271-.257.404-.386.335-.325.634-.656.909-.993.037-.047.077-.084.111-.127a.601.601 0 0 0 .059-.079c.315-.401.584-.807.825-1.223.71-1.228 1.102-2.506 1.156-3.795h.03v7.652h-.059c.047 3.344-2.075 6.689-6.462 9.227L611.9 1507.181c-12.678 6.284-30.788 5.055-36.18 3.882-5.395-1.182-10.235-2.533-15.892-3.768l-341.697-197.273c-4.402-2.544-6.568-5.9-6.516-9.25v-19.771c.04 3.277 2.211 6.545 6.517 9.032z"/></g></g><g id="Shapes_on_screen"><path class="st49" d="M374.351 955.357c.003 71.191 49.856 100.365 111.309 65.109 61.494-35.254 111.354-121.614 111.328-192.825.018-71.214-49.849-100.367-111.345-65.108-61.44 35.27-111.279 121.592-111.292 192.824z"/><path class="st43" d="M515.635 824.707l18.073 10.434-27.966 48.437 27.954 16.14-18.066 31.291-27.957-16.134-27.967 48.43-18.067-10.432 27.962-48.431-27.967-16.156 18.065-31.29 27.971 16.15z"/><path class="st22" d="M413.672 1105.281l-123.471 71.285v-11.45l123.471-71.286zM474.916 1069.921l-43.505 25.117v-11.449l43.505-25.119zM565.112 1017.846l-72.456 41.832v-11.449l72.456-41.833zM597.498 999.149l-14.646 8.455v-11.45l14.646-8.456zM623.487 984.143l-14.646 8.456v-11.45l14.646-8.456zM685.14 948.548l-50.309 29.046v-11.45l50.309-29.045z"/><path class="st27" d="M737.792 676.81l-120.204 69.401v-57.146l120.204-69.401zM737.792 883.518l-120.204 69.401v-57.147l120.204-69.4zM737.792 808.177l-87.427 50.476V745.621l87.427-50.476zM233.492 967.968l120.205-69.4v-57.146l-120.205 69.399zM233.492 1174.677l120.205-69.4v-57.147l-120.205 69.4zM233.492 1099.335l87.427-50.476V935.827l-87.427 50.476z"/></g><g id="Power_plug"><image width="153" height="89" xlink:href="A5727A2AACD03B5D.png" transform="translate(1152.753 1425.307) scale(1.2351)" overflow="visible"/><linearGradient id="SVGID_28_" gradientUnits="userSpaceOnUse" x1="1160.352" y1="997.454" x2="1368.829" y2="997.454" gradientTransform="translate(0 508)"><stop offset="0" stop-color="#cfd5f1"/><stop offset=".605" stop-color="#eff1fa"/><stop offset="1" stop-color="#fff"/></linearGradient><path class="st50" d="M1368.829 1485.987l-6.004-3.467c-7.157-4.132-26.358-7.482-42.887-7.482h-150.871c-16.528 0-5.758 13.954 1.399 18.086l61.078 35.264c7.157 4.131 26.358 7.482 42.887 7.482h94.398v-49.883z"/><linearGradient id="SVGID_29_" gradientUnits="userSpaceOnUse" x1="3562.876" y1="47.52" x2="3612.144" y2="47.52" gradientTransform="rotate(-120 2836.54 1365.003)"><stop offset="0" stop-color="#362e94"/><stop offset=".213" stop-color="#4a44b0"/><stop offset=".559" stop-color="#6763d9"/><stop offset=".834" stop-color="#7976f2"/><stop offset="1" stop-color="#807dfb"/></linearGradient><path class="st51" d="M1346.397 1378.28c-.001 5.605-1.973 9.548-5.161 11.372l-30.037 17.318c3.188-1.829 5.161-5.766 5.163-11.371 0-11.141-7.795-24.642-17.406-30.158-4.782-2.739-9.109-2.995-12.256-1.191l30.038-17.317c3.146-1.803 7.471-1.547 12.249 1.191 9.618 5.513 17.414 19.017 17.41 30.156z"/><path class="st10" d="M1316.423 1395.564c.001 11.135-7.796 15.698-17.407 10.183-9.618-5.513-17.415-19.02-17.412-30.158-.004-11.139 7.796-15.698 17.413-10.183 9.612 5.516 17.406 19.016 17.406 30.158z"/><linearGradient id="SVGID_30_" gradientUnits="userSpaceOnUse" x1="1317.561" y1="838.452" x2="1342.185" y2="881.102" gradientTransform="translate(0 508)"><stop offset="0" stop-color="#6b67e9"/><stop offset=".147" stop-color="#6561e0"/><stop offset=".389" stop-color="#5651c7"/><stop offset=".694" stop-color="#3d379e"/><stop offset="1" stop-color="#20196f"/></linearGradient><path class="st52" d="M1325.101 1350.365c-4.778-2.739-9.104-2.994-12.249-1.191l-2.87 1.654c.086-.049.183-.08.271-.127 3.13-1.682 7.368-1.401 12.047 1.282 9.611 5.516 17.405 19.016 17.406 30.158 0 5.565-1.948 9.489-5.096 11.333l2.741-1.581c3.189-1.824 5.16-5.768 5.16-11.373.003-11.138-7.794-24.643-17.41-30.155z"/><linearGradient id="SVGID_31_" gradientUnits="userSpaceOnUse" x1="1311.295" y1="842.065" x2="1335.919" y2="884.715" gradientTransform="translate(0 508)"><stop offset="0" stop-color="#6b67e9"/><stop offset=".147" stop-color="#6561e0"/><stop offset=".389" stop-color="#5651c7"/><stop offset=".694" stop-color="#3d379e"/><stop offset="1" stop-color="#20196f"/></linearGradient><path class="st53" d="M1318.836 1353.979c-4.778-2.739-9.104-2.994-12.249-1.192l-2.87 1.654c.086-.049.183-.08.271-.127 3.13-1.682 7.368-1.401 12.047 1.282 9.61 5.516 17.405 19.015 17.406 30.158.001 5.567-1.948 9.489-5.096 11.333l2.741-1.581c3.189-1.824 5.16-5.768 5.161-11.373.001-11.139-7.795-24.642-17.411-30.154z"/><linearGradient id="SVGID_32_" gradientUnits="userSpaceOnUse" x1="1305.03" y1="845.679" x2="1329.654" y2="888.329" gradientTransform="translate(0 508)"><stop offset="0" stop-color="#6b67e9"/><stop offset=".147" stop-color="#6561e0"/><stop offset=".389" stop-color="#5651c7"/><stop offset=".694" stop-color="#3d379e"/><stop offset="1" stop-color="#20196f"/></linearGradient><path class="st54" d="M1312.57 1357.592c-4.778-2.738-9.105-2.995-12.249-1.191l-2.87 1.654c.086-.051.183-.08.271-.127 3.13-1.682 7.368-1.401 12.047 1.282 9.61 5.516 17.405 19.016 17.406 30.158 0 5.567-1.948 9.489-5.096 11.333l2.741-1.58c3.189-1.824 5.16-5.769 5.161-11.373.001-11.141-7.795-24.644-17.411-30.156z"/><linearGradient id="SVGID_33_" gradientUnits="userSpaceOnUse" x1="1298.764" y1="849.292" x2="1323.388" y2="891.941" gradientTransform="translate(0 508)"><stop offset="0" stop-color="#6b67e9"/><stop offset=".147" stop-color="#6561e0"/><stop offset=".389" stop-color="#5651c7"/><stop offset=".694" stop-color="#3d379e"/><stop offset="1" stop-color="#20196f"/></linearGradient><path class="st55" d="M1306.303 1361.204c-4.778-2.738-9.105-2.994-12.249-1.191l-2.869 1.654c.086-.049.183-.08.271-.127 3.13-1.683 7.368-1.401 12.047 1.282 9.61 5.516 17.405 19.016 17.405 30.158 0 5.565-1.947 9.489-5.096 11.333l2.742-1.581c3.189-1.824 5.16-5.768 5.161-11.373.002-11.138-7.795-24.643-17.412-30.155z"/><g><linearGradient id="SVGID_34_" gradientUnits="userSpaceOnUse" x1="1229.081" y1="840.641" x2="1299.514" y2="962.634" gradientTransform="translate(0 508)"><stop offset=".452" stop-color="#f1f1f6"/><stop offset=".522" stop-color="#e6e7f3"/><stop offset=".643" stop-color="#caceea"/><stop offset=".699" stop-color="#bbc0e6"/></linearGradient><path class="st56" d="M1326.22 1377.168l-69.124-39.909c-2.492-1.439-4.774-1.644-6.639-.897l-.022-.039-.926.535c-.141.09-.296.144-.431.248l-82.595 47.686 83.552 114.409 83.951-48.469-.01-.017c2.158-1.493 3.519-4.551 3.519-8.837v-43.167c0-8.302-5.049-17.947-11.275-21.543z"/><linearGradient id="SVGID_35_" gradientUnits="userSpaceOnUse" x1="1178.294" y1="839.041" x2="1275.504" y2="1007.414" gradientTransform="translate(0 508)"><stop offset=".301" stop-color="#fff"/><stop offset=".368" stop-color="#fafafd"/><stop offset=".448" stop-color="#ecedf8"/><stop offset=".532" stop-color="#d4d7ef"/><stop offset=".602" stop-color="#bbc0e6"/></linearGradient><path class="st57" d="M1247.428 1404.403l-79.445-45.868c-3.403-1.965-6.473-1.953-8.785-.427l-.019-.031-9.953 5.747 90.729 157.927 6.12 10.654 9.953-5.747-.03-.053c2.672-1.623 4.388-5.196 4.388-10.336v-87.104c.001-9.544-5.8-20.63-12.958-24.762z"/><path class="st22" d="M1237.475 1531.812l-79.446-45.868c-7.157-4.132-12.958-15.217-12.958-24.761v-87.106c0-9.542 5.802-13.929 12.958-9.797l79.446 45.868c7.157 4.133 12.958 15.217 12.958 24.761v87.104c.001 9.546-5.802 13.931-12.958 9.799z"/></g><linearGradient id="SVGID_36_" gradientUnits="userSpaceOnUse" x1="1498.111" y1="232.09" x2="1525.338" y2="279.25" gradientTransform="rotate(-30.379 3550.76 1461.125)"><stop offset="0" stop-color="#d1d7f3"/><stop offset=".616" stop-color="#f0f2fb" stop-opacity=".5"/><stop offset="1" stop-color="#fff" stop-opacity="0"/></linearGradient><path class="st58" d="M1204.813 1467.433l-20.646 12.1-24.809-42.329 20.645-12.1z"/><linearGradient id="SVGID_37_" gradientUnits="userSpaceOnUse" x1="1523.304" y1="276.399" x2="1550.532" y2="323.559" gradientTransform="rotate(-30.379 3550.76 1461.125)"><stop offset="0" stop-color="#d1d7f3"/><stop offset=".615" stop-color="#f0f2fb" stop-opacity=".5"/><stop offset="1" stop-color="#fff" stop-opacity="0"/></linearGradient><path class="st59" d="M1248.954 1492.918l-20.644 12.1-24.81-42.328 20.645-12.1z"/><g><path class="st11" d="M1224.145 1450.59l-60.193 34.752c-4.091 2.361-7.407 8.697-7.407 14.151v3.393c0 5.454 3.316 7.961 7.407 5.599l60.193-34.752v-23.143z"/><linearGradient id="SVGID_38_" gradientUnits="userSpaceOnUse" x1="1163.116" y1="1003.166" x2="1204.603" y2="931.307" gradientTransform="translate(0 508)"><stop offset=".059" stop-color="#5652cc"/><stop offset=".28" stop-color="#807dfb"/></linearGradient><path class="st60" d="M1156.545 1502.887v-3.393c0-5.454 3.316-11.79 7.407-14.151l60.193-34.752-7.607-4.392-60.194 34.752c-4.091 2.361-7.407 8.697-7.407 14.151v3.393c0 2.816.894 4.825 2.312 5.805l-.01.01 7.607 4.392.011-.01c-1.418-.98-2.312-2.989-2.312-5.805z"/></g><g><path class="st11" d="M1180.003 1425.104l-60.194 34.752c-4.091 2.361-7.407 8.697-7.407 14.151v3.393c0 5.454 3.316 7.961 7.407 5.599l60.194-34.752v-23.143z"/><linearGradient id="SVGID_39_" gradientUnits="userSpaceOnUse" x1="1118.972" y1="977.682" x2="1160.461" y2="905.822" gradientTransform="translate(0 508)"><stop offset=".059" stop-color="#5652cc"/><stop offset=".28" stop-color="#807dfb"/></linearGradient><path class="st61" d="M1112.402 1477.401v-3.393c0-5.454 3.316-11.79 7.407-14.151l60.194-34.752-7.607-4.392-60.194 34.754c-4.091 2.361-7.407 8.697-7.407 14.151v3.393c0 2.816.894 4.825 2.312 5.805l-.011.01 7.608 4.392.01-.01c-1.417-.982-2.312-2.991-2.312-5.807z"/></g></g><g id="Gear"><linearGradient id="SVGID_40_" gradientUnits="userSpaceOnUse" x1="1946.963" y1="819.991" x2="2264.371" y2="819.991" gradientTransform="translate(0 508)"><stop offset="0" stop-color="#d1d6f0"/><stop offset=".29" stop-color="#d5daf1"/><stop offset=".592" stop-color="#e2e5f5"/><stop offset=".899" stop-color="#f6f7fc"/><stop offset="1" stop-color="#fff"/></linearGradient><path class="st62" d="M2233.031 1360.968c1.217-1.261 2.708-2.179 4.322-2.838h19.058l7.96-17.431-7.179-1.099c-2.174-.345-4.677-1.052-6.705-2.227-2.311-1.338-4.022-3.269-3.988-5.906a45.372 45.372 0 0 0-.021-6.937c-.158-4.98 5.928-7.407 10.559-8.143l7.192-1.108-8.159-17.412h-19.029a13.768 13.768 0 0 1-1.816-.87 11.638 11.638 0 0 1-2.562-1.977 77.343 77.343 0 0 0-6.025-6.011c-4.427-4.281-1.256-8.16 2.124-10.119l5.239-3.048-22.083-12.748-5.242 3.038c-3.375 1.969-10.062 3.823-17.464 1.271a164.677 164.677 0 0 0-10.409-3.478c-1.357-.441-2.488-.936-3.416-1.472-4.239-2.457-4.46-5.724-3.457-7.922l1.893-4.149-30.097-4.682-1.899 4.166c-1.214 2.686-5.398 6.231-13.991 6.164a238.979 238.979 0 0 0-11.973-.01c-4.571.038-7.911-.945-10.23-2.284-2.026-1.166-3.262-2.609-3.852-3.86l-1.941-4.176-30.048 4.682 1.948 4.149c1.254 2.694.705 6.966-6.762 9.394a166.256 166.256 0 0 0-10.376 3.478c-7.368 2.533-14.066.706-17.474-1.261l-5.28-3.048-21.938 12.748 5.27 3.048c3.4 1.969 6.62 5.838 2.245 10.11a78.003 78.003 0 0 0-5.965 6.021c-4.167 4.329-11.533 4.674-16.17 3.966l-7.205-1.118-7.96 17.412 7.188 1.108c2.164.345 4.664 1.061 6.704 2.237 2.301 1.329 4.015 3.259 3.989 5.906a44.878 44.878 0 0 0 .005 6.918c.061 1.835-.731 3.316-1.975 4.502h-49.074v22.179H2007.472c.61.248 1.214.525 1.79.859a11.986 11.986 0 0 1 2.559 1.969 75.944 75.944 0 0 0 6.049 6.021c.839.823 1.401 1.615 1.742 2.39h-28.497v23.527h43.108v-.956l3.598-2.084c3.38-1.979 10.06-3.823 17.466-1.261 1.325.478 2.665.946 4.015 1.414v20.269h41.209v-.047l.257.047 1.897-4.166c.138-.287.315-.593.524-.908v5.074h41.465l30.047-4.662-1.951-4.167c-1.119-2.399-.777-6.068 4.664-8.553h35.237l21.938-12.748-5.266-3.038c-3.406-1.979-6.625-5.858-2.253-10.13a71.761 71.761 0 0 0 5.961-6.013zm-70.691-9.823c-22.096 12.835-58.07 12.853-80.323 0-22.241-12.843-22.352-33.685-.258-46.519 22.118-12.853 58.073-12.853 80.324 0 22.251 12.843 22.37 33.667.257 46.519z"/><linearGradient id="SVGID_41_" gradientUnits="userSpaceOnUse" x1="2024.23" y1="775.521" x2="2137.006" y2="775.521" gradientTransform="translate(0 508)"><stop offset="0" stop-color="#bbbfe2"/><stop offset="1" stop-color="#ced2f4"/></linearGradient><path class="st63" d="M2120.374 1267.356c-22.098-12.747-57.81-12.757-79.765 0-19.535 11.344-21.58 28.993-6.216 41.722a46.937 46.937 0 0 1 6.216-4.291c21.955-12.767 57.667-12.757 79.765 0a47.113 47.113 0 0 1 6.463 4.462c15.454-12.746 13.29-30.493-6.463-41.893z"/><path class="st64" d="M2130.573 1216.985a5.481 5.481 0 0 0-.501 2.245l-.103 37.536c0-.803.19-1.567.496-2.235l1.9-4.149.105-37.546-1.897 4.149zM2030.383 1216.985l-1.945-4.147-.107 37.546 1.948 4.149c.32.688.522 1.49.522 2.331l.109-37.556a5.49 5.49 0 0 0-.527-2.323zM2187.401 1241.344c-2.186 1.271-4.286 3.336-4.293 5.811l-.11 37.546c.01-2.464 2.115-4.549 4.296-5.81l5.242-3.048.107-37.546-5.242 3.047z"/><path class="st65" d="M1973.825 1241.344l-5.275-3.048-.105 37.546 5.273 3.048c2.224 1.281 4.372 3.383 4.367 5.886l.105-37.556c.002-2.483-2.141-4.595-4.365-5.876z"/><path class="st64" d="M2215.676 1278.843c-4.567.718-10.545 3.096-10.557 7.941l-.11 37.547c.016-4.835 5.991-7.215 10.565-7.941l7.191-1.108.105-37.546-7.194 1.107z"/><path class="st66" d="M2205.261 1290.74l-.105 37.547a47.628 47.628 0 0 1-.122 3.182l.102-37.547c.087-1.06.121-2.121.125-3.182z"/><path class="st65" d="M1956.638 1293.187l.014-6.201c.02-2.657-1.688-4.578-3.994-5.906-2.035-1.184-4.534-1.892-6.698-2.227l-7.196-1.118-.101 37.546 7.187 1.108c2.166.344 4.669 1.061 6.699 2.237 1.961 1.128 3.468 2.685 3.879 4.75l-.019 4.386c0 1.233.051 2.467.143 3.689l.11-37.536c-.019-.25-.014-.479-.024-.728z"/><path class="st66" d="M1956.661 1294.104l-.105 37.546c0-.067 0-.135-.005-.201l.11-37.536v.191z"/><path class="st64" d="M2223.015 1303.163l-.107 37.538-7.961 17.43.101-37.537z"/><path class="st65" d="M1947.072 1320.594l-.107 37.537-8.15-17.421.106-37.547z"/><linearGradient id="SVGID_42_" gradientUnits="userSpaceOnUse" x1="2183.487" y1="837.191" x2="2215.048" y2="837.191" gradientTransform="translate(0 508)"><stop offset="0" stop-color="#a5acd4"/><stop offset=".635" stop-color="#bec3e7"/><stop offset="1" stop-color="#ced2f4"/></linearGradient><path class="st67" d="M2207.854 1319.456c-4.639-.706-12.01-.373-16.178 3.966a71.35 71.35 0 0 1-5.965 6.011c-1.508 1.482-2.117 2.915-2.122 4.224l-.101 37.556c.005-1.329.609-2.762 2.119-4.234a72.051 72.051 0 0 0 5.961-6.011c4.172-4.349 11.547-4.673 16.177-3.956l7.203 1.118.101-37.537-7.195-1.137z"/><linearGradient id="SVGID_43_" gradientUnits="userSpaceOnUse" x1="1946.965" y1="837.227" x2="1978.675" y2="837.227" gradientTransform="translate(0 508)"><stop offset="0" stop-color="#bbbfe2"/><stop offset="1" stop-color="#ced2f4"/></linearGradient><path class="st68" d="M1976.51 1329.433a74.726 74.726 0 0 1-6.04-6.011 11.605 11.605 0 0 0-2.57-1.977c-4.233-2.447-9.874-2.56-13.668-1.987l-7.16 1.138-.108 37.537 7.162-1.118c3.794-.583 9.435-.469 13.669 1.977a11.82 11.82 0 0 1 2.56 1.969 75.001 75.001 0 0 0 6.052 6.021c1.552 1.51 2.169 2.962 2.163 4.301l.105-37.537c.004-1.35-.61-2.803-2.165-4.313z"/><path class="st64" d="M2193.225 1342.593l-.102 37.555-21.939 12.748.103-37.546z"/><path class="st65" d="M1991.223 1355.35l-.106 37.546-22.088-12.748.105-37.555z"/><linearGradient id="SVGID_44_" gradientUnits="userSpaceOnUse" x1="2130.768" y1="866.47" x2="2171.286" y2="866.47" gradientTransform="translate(0 508)"><stop offset="0" stop-color="#a5acd4"/><stop offset=".516" stop-color="#bcc2e6"/><stop offset="1" stop-color="#ced2f4"/></linearGradient><path class="st69" d="M2166.007 1352.302c-3.414-1.959-10.105-3.804-17.469-1.252a162.719 162.719 0 0 1-10.374 3.469c-5.55 1.816-7.284 4.635-7.294 7.072l-.103 37.546c.004-2.437 1.734-5.265 7.288-7.072a157.019 157.019 0 0 0 10.373-3.468c7.364-2.552 14.058-.716 17.469 1.251l5.285 3.049.103-37.546-5.278-3.049z"/><linearGradient id="SVGID_45_" gradientUnits="userSpaceOnUse" x1="1991.117" y1="866.51" x2="2031.71" y2="866.51" gradientTransform="translate(0 508)"><stop offset="0" stop-color="#bbbfe2"/><stop offset="1" stop-color="#ced2f4"/></linearGradient><path class="st70" d="M2027.751 1356c-.935-.535-2.068-1.041-3.424-1.481a166.518 166.518 0 0 1-10.393-3.469c-7.41-2.562-14.095-.708-17.473 1.252l-5.237 3.048-.107 37.546 5.234-3.04c3.383-1.979 10.067-3.823 17.476-1.261a167.297 167.297 0 0 0 10.397 3.468c1.356.44 2.486.936 3.421 1.472 2.963 1.72 3.963 3.823 3.96 5.686l.105-37.537c.005-1.862-.999-3.974-3.959-5.684z"/><path class="st64" d="M2133.347 1368.07l-.108 37.546-30.047 4.663.105-37.547z"/><linearGradient id="SVGID_46_" gradientUnits="userSpaceOnUse" x1="2059.306" y1="878.34" x2="2103.298" y2="878.34" gradientTransform="translate(0 508)"><stop offset="0" stop-color="#bbbfe2"/><stop offset="1" stop-color="#ced2f4"/></linearGradient><path class="st71" d="M2101.352 1368.567c-.587-1.252-1.822-2.705-3.858-3.869-2.307-1.339-5.643-2.313-10.218-2.275-3.981.086-7.986.086-11.978-.02-8.583-.048-12.753 3.488-13.988 6.164l-1.9 4.166-.105 37.546 1.899-4.166c1.235-2.685 5.405-6.221 13.985-6.154 4 .105 8.006.095 11.977 0 4.58-.028 7.912.946 10.221 2.275 2.028 1.176 3.268 2.618 3.858 3.879l1.947 4.166.105-37.546-1.945-4.166z"/><path class="st72" d="M2187.972 1339.563l5.253 3.03-21.938 12.757-5.28-3.048c-3.414-1.959-10.105-3.804-17.469-1.252a162.719 162.719 0 0 1-10.374 3.469c-7.473 2.437-8.028 6.709-6.766 9.394l1.947 4.157-30.049 4.664-1.945-4.166c-.587-1.252-1.822-2.705-3.858-3.869-2.307-1.339-5.643-2.313-10.218-2.275-3.981.086-7.986.086-11.978-.02-8.584-.048-12.753 3.488-13.989 6.164l-1.9 4.166-30.102-4.664 1.916-4.167c.989-2.198.762-5.457-3.473-7.903-.935-.535-2.068-1.041-3.424-1.481a166.518 166.518 0 0 1-10.393-3.469c-7.41-2.561-14.095-.708-17.473 1.252l-5.237 3.048-22.089-12.757 5.244-3.04c3.378-1.959 6.55-5.839 2.13-10.12a74.888 74.888 0 0 1-6.04-6.011 11.605 11.605 0 0 0-2.57-1.977c-4.233-2.447-9.874-2.56-13.669-1.987l-7.16 1.137-8.151-17.43 7.174-1.109c4.632-.736 10.711-3.154 10.567-8.142a44.01 44.01 0 0 1-.01-6.927c.02-2.657-1.688-4.578-3.994-5.906-2.035-1.184-4.534-1.892-6.698-2.227l-7.196-1.118 7.968-17.412 7.207 1.119c4.638.716 12 .373 16.165-3.956a74.758 74.758 0 0 1 5.965-6.021c4.375-4.281 1.161-8.161-2.243-10.12l-5.275-3.048 21.941-12.757 5.29 3.058c3.395 1.969 10.098 3.803 17.459 1.261a169.629 169.629 0 0 1 10.376-3.479c7.47-2.427 8.024-6.699 6.768-9.393l-1.945-4.147 30.047-4.674 1.935 4.167c.591 1.261 1.829 2.694 3.858 3.859 2.313 1.338 5.656 2.332 10.23 2.284 3.973-.095 7.98-.095 11.979.02 8.586.058 12.764-3.478 13.981-6.173l1.907-4.157 30.095 4.674-1.897 4.147c-.998 2.207-.786 5.475 3.459 7.922.929.535 2.058 1.042 3.411 1.471a169.89 169.89 0 0 1 10.414 3.479c7.402 2.552 14.081.698 17.461-1.271l5.244-3.048 22.079 12.757-5.242 3.048c-3.375 1.959-6.551 5.83-2.118 10.13a74.595 74.595 0 0 1 6.022 6.011 12.247 12.247 0 0 0 2.563 1.967c4.239 2.457 9.891 2.562 13.677 1.979l7.171-1.118 8.154 17.421-7.193 1.108c-4.628.736-10.706 3.164-10.555 8.143a45.76 45.76 0 0 1 .017 6.937c-.026 2.638 1.676 4.568 3.989 5.906 2.033 1.166 4.534 1.882 6.709 2.227l7.178 1.109-7.967 17.43-7.194-1.137c-4.639-.707-12.01-.373-16.178 3.966a71.35 71.35 0 0 1-5.965 6.011c-4.372 4.278-1.151 8.159 2.265 10.127zm-147.304-25.955c22.245 12.844 58.215 12.825 80.312-.01 22.113-12.852 21.994-33.677-.253-46.52-22.245-12.843-58.209-12.852-80.323 0-22.098 12.845-21.991 33.687.264 46.53z"/><path class="st65" d="M2059.409 1372.732l-.105 37.547-30.097-4.663.101-37.546z"/><path class="st73" d="M2136.967 1260.724c-31.319-18.08-81.933-18.09-113.063 0-14.817 8.61-22.526 19.772-23.164 31.057.606 11.421 8.439 22.764 23.532 31.468 31.316 18.07 81.936 18.06 113.041-.02 14.831-8.62 22.542-19.771 23.188-31.057-.61-11.418-8.448-22.732-23.534-31.448zm-16.344 52.884c-21.943 12.739-57.664 12.748-79.753 0-10.457-6.039-15.985-13.856-16.586-21.759.626-7.818 6.059-15.52 16.325-21.473 21.955-12.767 57.667-12.758 79.765-.01 10.451 6.04 15.974 13.856 16.576 21.759-.627 7.809-6.059 15.501-16.327 21.483z"/><linearGradient id="SVGID_47_" gradientUnits="userSpaceOnUse" x1="2000.7" y1="760.151" x2="2160.545" y2="760.151" gradientTransform="translate(0 508)"><stop offset="0" stop-color="#bbbfe2"/><stop offset="1" stop-color="#ced2f4"/></linearGradient><path class="st74" d="M2023.903 1260.724c31.13-18.09 81.744-18.08 113.063 0 15.086 8.706 22.916 20.021 23.534 31.43.711-12.405-7.128-24.961-23.534-34.431-31.319-18.09-81.933-18.109-113.063 0-16.124 9.365-23.826 21.75-23.164 34.04.652-11.277 8.363-22.428 23.164-31.039z"/></g><g id="Column"><linearGradient id="SVGID_48_" gradientUnits="userSpaceOnUse" x1="2090.879" y1="334.097" x2="1902.174" y2="334.097" gradientTransform="translate(0 508)"><stop offset="0" stop-color="#fff" stop-opacity="0"/><stop offset=".636" stop-color="#eceff8"/><stop offset="1" stop-color="#dfe4f4"/></linearGradient><path class="st75" d="M1902.174 804.194h188.705V880h-188.705z"/><path class="st27" d="M1902.174 804.193l-65.652-37.903 65.652-37.904 65.65 37.904z"/><path class="st22" d="M1902.174 880l-65.652-37.904V766.29l65.652 37.903z"/><path class="st23" d="M1902.174 880l65.651-37.904V766.29l-65.651 37.903z"/><path class="st27" d="M1902.174 728.388l-65.652-37.903 65.652-37.904 65.65 37.904z"/><path class="st22" d="M1902.174 804.195l-65.652-37.905v-75.805l65.652 37.903z"/><path class="st23" d="M1902.174 804.195l65.651-37.905v-75.805l-65.651 37.903z"/><path class="st27" d="M1902.174 652.582l-65.652-37.902 65.652-37.904 65.65 37.904z"/><path class="st22" d="M1902.174 728.389l-65.652-37.904V614.68l65.652 37.902z"/><path class="st23" d="M1902.174 728.389l65.651-37.904V614.68l-65.651 37.902z"/><path class="st26" d="M1902.174 731.512l65.651-37.905v-6.252l-65.651 37.903zM1902.174 807.32l65.651-37.904v-6.251l-65.651 37.902zM1902.174 731.512l-65.653-37.905v-6.252l65.653 37.903zM1902.174 807.32l-65.653-37.904v-6.251l65.653 37.902z"/><path class="st47" d="M1845.156 689.466l48.966 28.272v-40.437l-8.59-16.434-40.376-11.837z"/><g><path class="st9" d="M1885.532 700.892l-10.634 6.14v-40.026l10.634-6.139z"/><path class="st2" d="M1885.532 660.867l-10.634 6.139-32.369-18.689 10.633-6.139z"/><path class="st27" d="M1874.898 707.032l-32.369-18.69v-40.025l32.369 18.689z"/><path class="st12" d="M1854.793 679.939l7.842 4.527v-9.055l-7.842-4.529z"/></g><path class="st47" d="M1845.156 765.272l48.966 28.271v-40.436l-8.59-16.435-40.376-11.837z"/><g><path class="st9" d="M1885.532 776.698l-10.634 6.139v-40.026l10.634-6.139z"/><path class="st2" d="M1885.532 736.672l-10.634 6.139-32.369-18.689 10.633-6.139z"/><path class="st27" d="M1874.898 782.837l-32.369-18.689v-40.026l32.369 18.689z"/><path class="st4" d="M1854.793 755.744l7.842 4.527v-9.055l-7.842-4.528z"/></g><path class="st47" d="M1845.156 841.077l48.966 28.272v-40.437l-8.59-16.434-40.376-11.838z"/><g><path class="st9" d="M1885.532 852.503l-10.634 6.139v-40.025l10.634-6.139z"/><path class="st2" d="M1885.532 812.478l-10.634 6.139-32.369-18.689 10.633-6.139z"/><path class="st27" d="M1874.898 858.642l-32.369-18.689v-40.025l32.369 18.689z"/><path class="st4" d="M1854.793 831.548l7.842 4.529v-9.056l-7.842-4.528z"/></g><g><path class="st27" d="M1918.813 700.892l10.635 6.14v-40.026l-10.635-6.139z"/><path class="st2" d="M1918.813 660.867l10.635 6.139 32.37-18.689-10.634-6.139z"/><path class="st26" d="M1929.448 707.032l32.37-18.69v-40.025l-32.37 18.689z"/><path class="st29" d="M1949.553 679.939l-7.842 4.527v-9.055l7.842-4.529z"/></g><g><path class="st27" d="M1918.813 776.698l10.635 6.139v-40.026l-10.635-6.139z"/><path class="st2" d="M1918.813 736.672l10.635 6.139 32.37-18.689-10.634-6.139z"/><path class="st26" d="M1929.448 782.837l32.37-18.689v-40.026l-32.37 18.689z"/><path class="st30" d="M1949.553 755.744l-7.842 4.527v-9.055l7.842-4.528z"/></g><g><path class="st27" d="M1918.813 852.503l10.635 6.139v-40.025l-10.635-6.139z"/><path class="st2" d="M1918.813 812.478l10.635 6.139 32.37-18.689-10.634-6.139z"/><path class="st26" d="M1929.448 858.642l32.37-18.689v-40.025l-32.37 18.689z"/><path class="st29" d="M1949.553 831.548l-7.842 4.529v-9.056l7.842-4.528z"/></g></g><g id="Big_block"><linearGradient id="SVGID_49_" gradientUnits="userSpaceOnUse" x1="813.733" y1="1205.146" x2="536.439" y2="1205.146" gradientTransform="translate(0 508)"><stop offset="0" stop-color="#fff" stop-opacity="0"/><stop offset=".636" stop-color="#eceff8"/><stop offset="1" stop-color="#dfe4f4"/></linearGradient><path class="st76" d="M536.439 1657.449h277.294v111.393H536.439z"/><path class="st22" d="M536.439 1768.843l-96.47-55.7V1601.75l96.47 55.697z"/><path class="st23" d="M536.439 1768.843l96.472-55.7V1601.75l-96.472 55.697z"/><path class="st2" d="M536.439 1657.449l96.472-55.699-96.47-55.695-96.472 55.695z"/><path class="st23" d="M477.837 1691.282l20.733 11.97v-23.941l-20.733-11.97z"/><g><path class="st77" d="M595.04 1691.282l-20.733 11.97v-23.941l20.733-11.97z"/></g><g><path class="st47" d="M515.707 1601.751l20.733 11.971 20.733-11.971-20.732-11.97z"/></g></g><g id="Little_blocks"><linearGradient id="SVGID_50_" gradientUnits="userSpaceOnUse" x1="2005.775" y1="1121.607" x2="2180.798" y2="1121.607" gradientTransform="translate(0 508)"><stop offset="0" stop-color="#cfd5f1"/><stop offset=".283" stop-color="#e1e5f6"/><stop offset=".719" stop-color="#f7f8fd"/><stop offset="1" stop-color="#fff"/></linearGradient><path class="st78" d="M2112.842 1590.365h-107.067l67.96 39.246-67.96 39.237h107.067l67.956-39.237z"/><path class="st42" d="M2005.775 1668.848l67.96-39.237v-79.669l-67.96 39.222z"/><path class="st43" d="M2005.775 1668.848l-67.963-39.237v-79.669l67.963 39.222z"/><path class="st44" d="M2005.775 1589.164l-67.963-39.222 67.963-39.226 67.96 39.226z"/><g><linearGradient id="SVGID_51_" gradientUnits="userSpaceOnUse" x1="52.847" y1="1040.024" x2="188.941" y2="1040.024" gradientTransform="translate(0 508)"><stop offset="0" stop-color="#cfd5f1"/><stop offset=".283" stop-color="#e1e5f6"/><stop offset=".719" stop-color="#f7f8fd"/><stop offset="1" stop-color="#fff" stop-opacity="0"/></linearGradient><path class="st79" d="M136.1 1517.511H52.847l52.844 30.516-52.844 30.51H136.1l52.841-30.51z"/><path class="st42" d="M52.847 1578.537l52.844-30.51v-61.949l-52.844 30.498z"/><path class="st43" d="M52.847 1578.537L0 1548.027v-61.949l52.847 30.498z"/><path class="st44" d="M52.847 1516.576L0 1486.078l52.847-30.501 52.844 30.501z"/></g></g></svg>