<svg id="Layer_1" xmlns="http://www.w3.org/2000/svg" viewBox="0 0 120 120"><style>.st0{fill:#e9e9ea}.st1{stroke:#5a4b9f;stroke-width:3;stroke-miterlimit:10}.st1,.st2{fill:#fff}.st3{fill:none;stroke:#5a4b9f;stroke-width:3;stroke-miterlimit:10}.st4{fill:#e6e3f2}</style><ellipse transform="rotate(-45.001 52.5 50)" class="st0" cx="52.5" cy="50" rx="36" ry="36"/><path class="st1" d="M84.75 43.542c-4.021 0-6.75-3.29-6.75-7.348v-2.413c0-4.058 2.729-7.348 6.75-7.348s6.75 3.29 6.75 7.348v2.413c0 4.058-2.729 7.348-6.75 7.348z"/><path class="st2" d="M91.5 48.5h-15c-5.254 0-7.815 5.4-8.576 6.9-.762 1.5-2.484 5.1-2.484 5.1L75 66.744V104h18V78.5h1.438c3.348 0 6.062-2.673 6.062-5.971V59.3c0-6.15-4.339-10.8-9-10.8z"/><path class="st3" d="M65.44 60.5s1.723-3.6 2.484-5.1c.762-1.5 3.322-6.9 8.576-6.9h15c4.661 0 9 4.65 9 10.8v13.229c0 3.298-2.714 5.971-6.062 5.971H93"/><path class="st3" d="M75 104V61.767l-7.397 8.529M93 59v45M84 78.5V104"/><path class="st1" d="M40.5 43.542c4.021 0 7.5-3.29 7.5-7.348v-2.413c0-4.058-3.479-7.348-7.5-7.348s-7.5 3.29-7.5 7.348v2.413c0 4.058 3.479 7.348 7.5 7.348z"/><path class="st4" d="M59.074 58.111C56.875 55.125 53.607 48.5 46.5 48.5h-12C29.839 48.5 24 52.756 24 59v12c0 3.348 4.152 7.5 7.5 7.5V104h18V62l10.205 10.138a4.277 4.277 0 0 0 6.052.003l1.846-1.846c0 .001-6.343-9.215-8.529-12.184z"/><path class="st3" d="M49.5 104V62l10.205 10.138a4.277 4.277 0 0 0 6.052.003l1.846-1.846s-6.343-9.215-8.529-12.184C56.875 55.125 53.607 48.5 46.5 48.5h-12C29.839 48.5 24 52.756 24 59v12c0 3.348 4.152 7.5 7.5 7.5M31.5 59v45M40.5 78.5V104"/></svg>