<svg id="Layer_1" xmlns="http://www.w3.org/2000/svg" viewBox="0 0 120 120"><style>.st0{fill:#e9eaeb}.st1,.st2,.st3,.st4{fill:#e9eaeb;stroke:#5a4b9f;stroke-width:3;stroke-miterlimit:10}.st2,.st3,.st4{fill:none}.st3,.st4{fill:#e6e3f2}.st4{fill:#fff}</style><path class="st0" d="M61.556 37.018c-.001 13.08-10.605 23.684-23.686 23.683-13.08 0-23.683-10.604-23.683-23.685s10.605-23.684 23.686-23.683c13.081 0 23.684 10.604 23.683 23.685z"/><path class="st1" d="M79.736 84.764c-4.57 3.606-10.327 5.776-16.601 5.776-13.754 0-25.075-10.351-26.64-23.684h-14.28c1.614 21.195 19.311 37.895 40.92 37.895 10.2 0 19.523-3.728 26.702-9.885L79.736 84.764z"/><path class="st2" d="M58.398 68.435a3.158 3.158 0 0 0 3.158 3.158h3.158a3.158 3.158 0 0 0 3.158-3.158v-.882c0-1.359-.87-2.566-2.159-2.996l-5.155-1.719a3.159 3.159 0 0 1-2.159-2.996v-.882a3.158 3.158 0 0 1 3.158-3.158h3.158a3.158 3.158 0 0 1 3.158 3.158M63.135 55.803v-4.737M63.135 71.593v4.736"/><path class="st3" d="M66.293 22.778v14.279c13.334 1.566 23.684 12.886 23.684 26.64 0 6.274-2.169 12.031-5.776 16.601L94.303 90.4c6.157-7.18 9.885-16.503 9.885-26.702 0-21.609-16.7-39.306-37.895-40.92z"/><path class="st4" d="M42.069 47.097L31.967 36.995a40.87 40.87 0 0 0-9.752 23.545h14.279a26.684 26.684 0 0 1 5.575-13.443zM59.977 37.057V22.778a40.85 40.85 0 0 0-23.544 9.752l10.101 10.101a26.696 26.696 0 0 1 13.443-5.574z"/><path class="st2" d="M74.808 78.342c-3.218 2.539-7.358 4.303-11.776 4.303-9.685 0-17.743-6.956-18.845-16.44M65.642 44.751c9.484 1.102 16.44 9.073 16.44 18.758 0 4.417-1.646 8.471-4.185 11.689M44.188 60.786c.417-2.71 1.819-6.547 3.925-9.216M50.882 48.849c2.669-2.106 6.631-3.681 9.341-4.098"/></svg>