<?xml version="1.0" encoding="utf-8"?>
<!-- Generator: Adobe Illustrator 24.0.2, SVG Export Plug-In . SVG Version: 6.00 Build 0)  -->
<svg version="1.1" id="Layer_1" xmlns="http://www.w3.org/2000/svg" xmlns:xlink="http://www.w3.org/1999/xlink" x="0px" y="0px"
	 viewBox="0 0 120 120" style="enable-background:new 0 0 120 120;" xml:space="preserve">
<style type="text/css">
	.st0{fill:#E9EAEB;}
	.st1{fill:#E9EAEB;stroke:#5A4B9F;stroke-width:3;stroke-miterlimit:10;}
	.st2{fill:none;stroke:#5A4B9F;stroke-width:3;stroke-miterlimit:10;}
	.st3{fill:#e6e3f2;stroke:#5A4B9F;stroke-width:3;stroke-miterlimit:10;}
	.st4{fill:#FFFFFF;stroke:#5A4B9F;stroke-width:3;stroke-miterlimit:10;}
</style>
<g>
	<path class="st0" d="M61.556,37.018c-0.001,13.08-10.605,23.684-23.686,23.683c-13.08,0-23.683-10.604-23.683-23.685
		s10.605-23.684,23.686-23.683C50.954,13.333,61.557,23.937,61.556,37.018z"/>
	<path class="st1" d="M79.736,84.764c-4.57,3.606-10.327,5.776-16.601,5.776c-13.754,0-25.075-10.351-26.64-23.684h-14.28
		c1.614,21.195,19.311,37.895,40.92,37.895c10.2,0,19.523-3.728,26.702-9.885L79.736,84.764z"/>
	<g>
		<path class="st2" d="M58.398,68.435L58.398,68.435c0,1.744,1.414,3.158,3.158,3.158h3.158c1.744,0,3.158-1.414,3.158-3.158v-0.882
			c0-1.359-0.87-2.566-2.159-2.996l-5.155-1.719c-1.289-0.43-2.159-1.637-2.159-2.996V58.96c0-1.744,1.414-3.158,3.158-3.158h3.158
			c1.744,0,3.158,1.414,3.158,3.158l0,0"/>
		<line class="st2" x1="63.135" y1="55.803" x2="63.135" y2="51.066"/>
		<line class="st2" x1="63.135" y1="71.593" x2="63.135" y2="76.329"/>
	</g>
	<path class="st3" d="M66.293,22.778v14.279c13.334,1.566,23.684,12.886,23.684,26.64c0,6.274-2.169,12.031-5.776,16.601
		L94.303,90.4c6.157-7.18,9.885-16.503,9.885-26.702C104.188,42.089,87.488,24.392,66.293,22.778z"/>
	<path class="st4" d="M42.069,47.097L31.967,36.995c-5.514,6.431-9.069,14.584-9.752,23.545h14.279
		C37.087,55.496,39.077,50.887,42.069,47.097z"/>
	<path class="st4" d="M59.977,37.057V22.778c-8.961,0.682-17.114,4.237-23.544,9.752l10.101,10.101
		C50.325,39.64,54.933,37.65,59.977,37.057z"/>
	<path class="st2" d="M74.808,78.342c-3.218,2.539-7.358,4.303-11.776,4.303c-9.685,0-17.743-6.956-18.845-16.44"/>
	<path class="st2" d="M65.642,44.751c9.484,1.102,16.44,9.073,16.44,18.758c0,4.417-1.646,8.471-4.185,11.689"/>
	<path class="st2" d="M44.188,60.786c0.417-2.71,1.819-6.547,3.925-9.216"/>
	<path class="st2" d="M50.882,48.849c2.669-2.106,6.631-3.681,9.341-4.098"/>
</g>
</svg>
