<svg id="Layer_1" xmlns="http://www.w3.org/2000/svg" viewBox="0 0 120 120"><style>.st0{fill:#e9eaeb}.st1{fill:#fff}.st2,.st3{stroke-linejoin:round}.st2{stroke:#5a4b9f;stroke-width:3;stroke-miterlimit:10;fill:#e6e3f2}.st3{fill:none;stroke-linecap:round}.st3,.st4,.st5{stroke:#5a4b9f;stroke-width:3;stroke-miterlimit:10}.st4{stroke-linecap:round;fill:none}.st5{fill:#fff}</style><circle class="st0" cx="59.688" cy="64.042" r="36"/><path class="st1" d="M104.688 67.292l-12.986-.875-5.168-12.876-5.168 12.876-6.679.45V49.042c0-3.015-8.255-7.5-15-7.5s-15 4.485-15 7.5v17.826l-6.679-.45-5.168-12.876-5.168 12.876-12.986.875 9.792 9.373-2.858 12.876 11.219-6.543 11.219 6.543-2.371-10.683 7.635 7.125-3.542 15.558 13.906-7.905 13.906 7.905-3.542-15.558 7.635-7.125-2.371 10.683 11.219-6.543 11.219 6.543-2.858-12.876 9.794-9.374z"/><path class="st2" d="M59.688 58.042L66.092 73.6l16.096 1.057-12.137 11.326 3.542 15.559-13.905-7.906-13.906 7.906 3.542-15.559-12.136-11.326L53.283 73.6z"/><path class="st3" d="M43.188 66.767l-5.179-.349-5.168-12.876-5.168 12.876-12.985.875 9.791 9.373-2.857 12.876 11.219-6.543 6.277 3.661M76.188 66.767l5.178-.349 5.168-12.876 5.168 12.876 12.986.875-9.792 9.373 2.857 12.876-11.219-6.543-6.277 3.661"/><path class="st4" d="M74.688 59.542v-10.5c0-3.015-8.26-7.335-15.005-7.335s-14.995 4.32-14.995 7.335v10.5"/><path class="st5" d="M59.688 17.542c-3.878 0-7.5 2.902-7.5 6.481v5.037c0 3.579 3.622 6.481 7.5 6.481s7.5-2.902 7.5-6.481v-5.037c0-3.58-3.623-6.481-7.5-6.481z"/></svg>