<svg id="Layer_1" xmlns="http://www.w3.org/2000/svg" viewBox="0 0 120 120"><style>.st0{fill:#e9e9ea}.st1{fill:#fff}.st2{fill:none;stroke:#5a4b9f;stroke-width:3;stroke-linecap:round;stroke-linejoin:round;stroke-miterlimit:10}.st3{fill:#e6e3f2}.st4,.st5{stroke:#5a4b9f;stroke-width:3;stroke-miterlimit:10}.st4{stroke-linecap:round;fill:none}.st5{fill:#fff}</style><circle class="st0" cx="59" cy="59" r="45"/><path class="st1" d="M93.839 45.935v-8.709h-7.258v-8.71H31.419v8.71h-7.258v8.709h-8.709V95.29h87.096V45.935z"/><path class="st2" d="M15.452 45.935h87.097V95.29H15.452zM24.161 41.581v-4.355h69.678v4.355M31.419 32.871v-4.355h55.162v4.355M60.452 57.548h27.58M60.452 64.806h27.58M60.452 72.065h27.58M60.452 79.323h15.967"/><path class="st3" d="M51.742 75.986c0-2.209-6.395-5.373-11.617-5.373-5.222 0-11.609 3.164-11.609 5.373v8.125c0 2.208 6.387 5.373 11.609 5.373s11.617-3.165 11.617-5.373v-8.125z"/><path class="st4" d="M51.742 83.677v-7.691c0-2.209-6.395-5.373-11.617-5.373-5.222 0-11.609 3.165-11.609 5.373v7.691"/><path class="st5" d="M40.129 56.097c-3.002 0-5.806 2.34-5.806 5.227v4.062c0 2.887 2.804 5.227 5.806 5.227 3.002 0 5.806-2.34 5.806-5.227v-4.062c0-2.887-2.804-5.227-5.806-5.227z"/></svg>