<svg id="Layer_1" xmlns="http://www.w3.org/2000/svg" viewBox="0 0 120 120"><style>.st0{fill:#e9eaeb}.st1{fill:#e6e3f2}.st2,.st3{stroke:#5a4b9f;stroke-width:3;stroke-miterlimit:10}.st2{stroke-linecap:round;stroke-linejoin:round;fill:none}.st3{fill:#fff}</style><circle class="st0" cx="59.683" cy="60.042" r="29.48"/><path class="st1" d="M59.687 87.97c-5.58 0-12.417 3.932-12.417 6.206v4.655c0 2.274 6.837 6.206 12.417 6.206s12.417-3.932 12.417-6.206v-4.655c.001-2.274-6.836-6.206-12.417-6.206z"/><path class="st2" d="M72.105 98.831v-4.655c0-2.274-6.837-6.206-12.417-6.206s-12.417 3.932-12.417 6.206v4.655"/><path class="st3" d="M59.682 87.97c4.664 0 7.758-3.87 7.758-8.644v-2.883c0-4.774-3.093-8.644-7.758-8.644-4.664 0-7.758 3.87-7.758 8.644v2.883c.001 4.774 3.094 8.644 7.758 8.644z"/><path class="st1" d="M59.687 35.217c-5.58 0-12.417 3.932-12.417 6.206v4.655c0 2.274 6.837 6.206 12.417 6.206s12.417-3.932 12.417-6.206v-4.655c.001-2.274-6.836-6.206-12.417-6.206z"/><path class="st2" d="M72.105 46.078v-4.655c0-2.274-6.837-6.206-12.417-6.206s-12.417 3.932-12.417 6.206v4.655"/><path class="st3" d="M59.682 35.217c4.664 0 7.758-3.87 7.758-8.644V23.69c0-4.774-3.093-8.644-7.758-8.644-4.664 0-7.758 3.87-7.758 8.644v2.883c.001 4.774 3.094 8.644 7.758 8.644z"/><path class="st1" d="M92.27 63.145c-5.58 0-12.417 3.932-12.417 6.206v4.655c0 2.274 6.837 6.206 12.417 6.206s12.417-3.932 12.417-6.206v-4.655c.001-2.274-6.837-6.206-12.417-6.206z"/><path class="st2" d="M104.688 74.006v-4.655c0-2.274-6.837-6.206-12.417-6.206s-12.417 3.932-12.417 6.206v4.655"/><path class="st3" d="M92.265 63.145c4.664 0 7.758-3.87 7.758-8.644v-2.883c0-4.774-3.093-8.644-7.758-8.644-4.664 0-7.758 3.87-7.758 8.644v2.883c.001 4.774 3.094 8.644 7.758 8.644z"/><path class="st1" d="M27.105 63.145c-5.58 0-12.417 3.932-12.417 6.206v4.655c0 2.274 6.837 6.206 12.417 6.206s12.417-3.932 12.417-6.206v-4.655c0-2.274-6.837-6.206-12.417-6.206z"/><path class="st2" d="M39.522 74.006v-4.655c0-2.274-6.837-6.206-12.417-6.206s-12.417 3.932-12.417 6.206v4.655"/><path class="st3" d="M27.1 63.145c4.664 0 7.758-3.87 7.758-8.644v-2.883c0-4.774-3.093-8.644-7.758-8.644-4.664 0-7.758 3.87-7.758 8.644v2.883c0 4.774 3.094 8.644 7.758 8.644z"/><path class="st2" d="M89.579 82.246a37.402 37.402 0 0 1-12.774 10.872M72.107 24.927a37.335 37.335 0 0 1 17.817 13.382M29.808 82.246a37.402 37.402 0 0 0 12.774 10.872M47.28 24.927a37.34 37.34 0 0 0-17.817 13.382"/></svg>