<svg id="Layer_1" xmlns="http://www.w3.org/2000/svg" viewBox="0 0 120 120"><style>.st0{fill:#e9eaeb}.st1{fill:#fff}.st2,.st3{fill:none;stroke:#5a4b9f;stroke-width:3;stroke-linecap:round;stroke-linejoin:round;stroke-miterlimit:10}.st3{fill:#e6e3f2}</style><circle class="st0" cx="73.091" cy="46.784" r="27.097"/><path class="st1" d="M20.188 31.3h52.903v67.097H20.188z"/><path class="st2" d="M73.091 46.784V31.3H20.188v67.097h52.903V76.461"/><path class="st3" d="M89.865 42.913c-1.791-1.791-6.74.288-10.323 3.871L58.897 67.429c-6.284 6.284-14.694 17.564-12.903 19.355s13.071-6.619 19.355-12.903l20.645-20.645c3.582-3.583 5.662-8.532 3.871-10.323z"/><path class="st2" d="M43.413 89.364l2.581-2.58M79.507 46.839l6.487 6.397 1.134 1.134a3.87 3.87 0 0 1 0 5.474L75.671 71.3M58.897 67.429l6.452 6.451M89.865 42.913l2.581-2.581M38.252 89.364H31.8M39.542 44.203h15.484M31.8 51.945h30.968M31.8 58.397h28.388M31.8 64.848h21.936M31.8 71.3h16.775"/></svg>