<?xml version="1.0" encoding="utf-8"?>
<!-- Generator: Adobe Illustrator 24.0.2, SVG Export Plug-In . SVG Version: 6.00 Build 0)  -->
<svg version="1.1" id="Layer_1" xmlns="http://www.w3.org/2000/svg" xmlns:xlink="http://www.w3.org/1999/xlink" x="0px" y="0px"
	 viewBox="0 0 120 120" style="enable-background:new 0 0 120 120;" xml:space="preserve">
<style type="text/css">
	.st0{fill:#E9EAEB;}
	.st1{fill:#FFFFFF;}
	.st2{fill:none;stroke:#5A4B9F;stroke-width:3;stroke-linecap:round;stroke-linejoin:round;stroke-miterlimit:10;}
	.st3{fill:#e6e3f2;stroke:#5A4B9F;stroke-width:3;stroke-linecap:round;stroke-linejoin:round;stroke-miterlimit:10;}
</style>
<g>
	<circle class="st0" cx="73.091" cy="46.784" r="27.097"/>
	<rect x="20.188" y="31.3" class="st1" width="52.903" height="67.097"/>
	<polyline class="st2" points="73.091,46.784 73.091,31.3 20.188,31.3 20.188,98.397 73.091,98.397 73.091,76.461 	"/>
	<path class="st3" d="M89.865,42.913c-1.791-1.791-6.74,0.288-10.323,3.871L58.897,67.429c-6.284,6.284-14.694,17.564-12.903,19.355
		s13.071-6.619,19.355-12.903l20.645-20.645C89.576,49.653,91.656,44.704,89.865,42.913z"/>
	<line class="st2" x1="43.413" y1="89.364" x2="45.994" y2="86.784"/>
	<path class="st2" d="M79.507,46.839l6.487,6.397l1.134,1.134c1.512,1.512,1.512,3.963,0,5.474L75.671,71.3"/>
	<line class="st2" x1="58.897" y1="67.429" x2="65.349" y2="73.88"/>
	<line class="st2" x1="89.865" y1="42.913" x2="92.446" y2="40.332"/>
	<line class="st2" x1="38.252" y1="89.364" x2="31.8" y2="89.364"/>
	<line class="st2" x1="39.542" y1="44.203" x2="55.026" y2="44.203"/>
	<line class="st2" x1="31.8" y1="51.945" x2="62.768" y2="51.945"/>
	<line class="st2" x1="31.8" y1="58.397" x2="60.188" y2="58.397"/>
	<line class="st2" x1="31.8" y1="64.848" x2="53.736" y2="64.848"/>
	<line class="st2" x1="31.8" y1="71.3" x2="48.575" y2="71.3"/>
</g>
</svg>
