<svg id="Layer_1" xmlns="http://www.w3.org/2000/svg" viewBox="0 0 120 120"><style>.st0{fill:#e9e9ea}.st1{fill:none;stroke:#5a4b9f;stroke-width:3;stroke-miterlimit:10}.st2{fill:#fff}.st3,.st4,.st5,.st6{stroke:#5a4b9f;stroke-width:3;stroke-miterlimit:10}.st3{stroke-linecap:round;fill:none}.st4,.st5,.st6{fill:#e6e3f2}.st5,.st6{fill:none;stroke:#bdc0c4;stroke-width:2}.st6{stroke:#5a4b9f;stroke-width:3;stroke-linecap:round;stroke-linejoin:round}</style><circle class="st0" cx="47.786" cy="49.929" r="34.286"/><path class="st0" d="M96.357 31.357a7.143 7.143 0 0 0-7.143 7.143v1.429H103.5V38.5a7.143 7.143 0 0 0-7.143-7.143z"/><path class="st1" d="M93.5 39.929h10V38.5a7.144 7.144 0 0 0-7.143-7.143h-7.143"/><path class="st2" d="M37.786 38.5a7.144 7.144 0 0 1 7.143-7.143h51.429a7.144 7.144 0 0 0-7.143 7.143v55.714a7.144 7.144 0 0 1-7.143 7.143H37.786V38.5z"/><path class="st3" d="M44.929 31.357a7.143 7.143 0 0 0-7.143 7.143v62.857h44.286a7.144 7.144 0 0 0 7.143-7.143V38.5a7.143 7.143 0 0 1 7.143-7.143H44.929z"/><path class="st4" d="M29.214 94.214a7.144 7.144 0 0 0 7.143 7.143h45.714a7.144 7.144 0 0 1-7.143-7.143H29.214z"/><path class="st5" d="M23.5 49.929V58.5M19.214 54.214h8.572M97.786 59.929V68.5M93.5 64.214h8.571M26.357 72.786v8.571M22.071 77.071h8.572"/><path class="st6" d="M47.786 67.071h31.428M47.786 74.214h31.428M47.786 81.357H63.5M69.214 45.643h10M69.214 52.786h10M69.214 59.929h10M63.5 59.931v-2.857c0-1.863-4.324-4.286-7.857-4.286s-7.857 2.423-7.857 4.286v2.857M55.643 41.357c-2.586 0-5 1.843-5 4.116v3.199c0 2.273 2.414 4.116 5 4.116s5-1.843 5-4.116v-3.199c0-2.273-2.414-4.116-5-4.116z"/></svg>