<?xml version="1.0" encoding="utf-8"?>
<!-- Generator: Adobe Illustrator 24.0.2, SVG Export Plug-In . SVG Version: 6.00 Build 0)  -->
<svg version="1.1" id="Layer_1" xmlns="http://www.w3.org/2000/svg" xmlns:xlink="http://www.w3.org/1999/xlink" x="0px" y="0px"
	 viewBox="0 0 120 120" style="enable-background:new 0 0 120 120;" xml:space="preserve">
<style type="text/css">
	.st0{fill:#E9E9EA;}
	.st1{fill:none;stroke:#5A4B9F;stroke-width:3;stroke-miterlimit:10;}
	.st2{fill:#FFFFFF;}
	.st3{fill:none;stroke:#5A4B9F;stroke-width:3;stroke-linecap:round;stroke-miterlimit:10;}
	.st4{fill:#e6e3f2;stroke:#5A4B9F;stroke-width:3;stroke-miterlimit:10;}
	.st5{fill:none;stroke:#BDC0C4;stroke-width:2;stroke-miterlimit:10;}
	.st6{fill:none;stroke:#5A4B9F;stroke-width:3;stroke-linecap:round;stroke-linejoin:round;stroke-miterlimit:10;}
</style>
<g>
	<circle class="st0" cx="47.786" cy="49.929" r="34.286"/>
	<path class="st0" d="M96.357,31.357c-3.944,0-7.143,3.197-7.143,7.143v1.429H103.5V38.5C103.5,34.554,100.301,31.357,96.357,31.357
		z"/>
	<path class="st1" d="M93.5,39.929h10V38.5c0-3.944-3.199-7.143-7.143-7.143h-7.143"/>
	<path class="st2" d="M37.786,38.5c0-3.944,3.199-7.143,7.143-7.143h51.429c-3.944,0-7.143,3.199-7.143,7.143v55.714
		c0,3.944-3.199,7.143-7.143,7.143H37.786V38.5z"/>
	<path class="st3" d="M44.929,31.357c-3.944,0-7.143,3.197-7.143,7.143v62.857h44.286c3.944,0,7.143-3.199,7.143-7.143V38.5
		c0-3.946,3.199-7.143,7.143-7.143H44.929z"/>
	<path class="st4" d="M29.214,94.214c0,3.944,3.199,7.143,7.143,7.143h45.714c-3.944,0-7.143-3.199-7.143-7.143H29.214z"/>
	<g>
		<line class="st5" x1="23.5" y1="49.929" x2="23.5" y2="58.5"/>
		<line class="st5" x1="19.214" y1="54.214" x2="27.786" y2="54.214"/>
	</g>
	<g>
		<line class="st5" x1="97.786" y1="59.929" x2="97.786" y2="68.5"/>
		<line class="st5" x1="93.5" y1="64.214" x2="102.071" y2="64.214"/>
	</g>
	<g>
		<line class="st5" x1="26.357" y1="72.786" x2="26.357" y2="81.357"/>
		<line class="st5" x1="22.071" y1="77.071" x2="30.643" y2="77.071"/>
	</g>
	<line class="st6" x1="47.786" y1="67.071" x2="79.214" y2="67.071"/>
	<line class="st6" x1="47.786" y1="74.214" x2="79.214" y2="74.214"/>
	<line class="st6" x1="47.786" y1="81.357" x2="63.5" y2="81.357"/>
	<line class="st6" x1="69.214" y1="45.643" x2="79.214" y2="45.643"/>
	<line class="st6" x1="69.214" y1="52.786" x2="79.214" y2="52.786"/>
	<line class="st6" x1="69.214" y1="59.929" x2="79.214" y2="59.929"/>
	<path class="st6" d="M63.5,59.931v-2.857c0-1.863-4.324-4.286-7.857-4.286s-7.857,2.423-7.857,4.286v2.857"/>
	<path class="st6" d="M55.643,41.357c-2.586,0-5,1.843-5,4.116v3.199c0,2.273,2.414,4.116,5,4.116s5-1.843,5-4.116v-3.199
		C60.643,43.2,58.229,41.357,55.643,41.357z"/>
</g>
</svg>
