<svg id="Layer_1" xmlns="http://www.w3.org/2000/svg" viewBox="0 0 120 120"><style>.st0{fill:#e9e9ea}.st1{fill:#e6e3f2}.st2{fill:none;stroke:#5a4b9f;stroke-width:3;stroke-linecap:round;stroke-linejoin:round;stroke-miterlimit:10}.st3{fill:#fff}.st4,.st5{fill:none;stroke:#5a4b9f;stroke-width:3;stroke-linecap:round;stroke-miterlimit:10}.st5{fill:#fff}</style><ellipse class="st0" cx="59.999" cy="64.071" rx="41.429" ry="41.429"/><path class="st1" d="M60 75.5c-5.35 0-15.714 2.918-15.714 8.571v15.714h31.429V84.071C75.714 78.418 65.35 75.5 60 75.5z"/><path class="st2" d="M75.714 99.786V84.071C75.714 78.418 65.35 75.5 60 75.5s-15.714 2.918-15.714 8.571v15.714"/><path class="st3" d="M91.462 82.643h-3.939a4.281 4.281 0 0 0-3.03 1.255l-8.745 8.745h-10s-.82 7.143 5.714 7.143h10l2.824-2.824v7.11h12.89V88.357a5.714 5.714 0 0 0-5.714-5.714zM28.571 82.643h3.939c1.137 0 2.227.451 3.03 1.255l8.745 8.745h10s.82 7.143-5.714 7.143h-10l-2.824-2.824v7.11h-12.89V88.357a5.714 5.714 0 0 1 5.714-5.714z"/><path class="st4" d="M68.571 92.643V85.5M51.429 85.5v7.143"/><path class="st5" d="M60 71.214c3.989 0 7.143-3.289 7.143-7.346v-2.45c0-4.057-3.154-7.346-7.143-7.346s-7.143 3.289-7.143 7.346v2.45c0 4.057 3.154 7.346 7.143 7.346z"/><path class="st4" d="M22.857 104.071V88.357a5.714 5.714 0 0 1 5.714-5.714h3.939c1.137 0 2.227.452 3.03 1.255l8.745 8.745h10s.82 7.143-5.714 7.143h-10L30 91.214M97.176 104.071V88.357a5.714 5.714 0 0 0-5.714-5.714h-3.939a4.29 4.29 0 0 0-3.031 1.255l-8.745 8.745h-10s-.82 7.143 5.714 7.143h10l8.571-8.571M35.714 96.929v7.142M84.286 96.929v7.142M35.714 99.786h48.572"/><path class="st5" d="M31.429 78.357c3.989 0 7.143-3.289 7.143-7.346v-2.45c0-4.057-3.154-7.346-7.143-7.346s-7.143 3.289-7.143 7.346v2.45c0 4.057 3.154 7.346 7.143 7.346zM88.571 78.357c3.989 0 7.143-3.289 7.143-7.346v-2.45c0-4.057-3.154-7.346-7.143-7.346s-7.143 3.289-7.143 7.346v2.45c.001 4.057 3.155 7.346 7.143 7.346zM35.714 15.5h47.143a4.286 4.286 0 0 1 4.286 4.286v24.286a4.286 4.286 0 0 1-4.286 4.286H51.429l-7.566 9.839C42.791 59.624 40 58.899 40 56.929v-8.571h-4.286a4.286 4.286 0 0 1-4.286-4.286V19.786a4.287 4.287 0 0 1 4.286-4.286z"/><path class="st4" d="M53.143 25.5h25.714M53.143 32.714h25.714M53.143 39.929H66M44.396 22.5l-1.8 4h-.2l-2-2M44.396 29.214l-1.8 4h-.2l-2-2M44.396 36.929l-1.8 4h-.2l-2-2"/></svg>