<?xml version="1.0" encoding="utf-8"?>
<!-- Generator: Adobe Illustrator 24.0.2, SVG Export Plug-In . SVG Version: 6.00 Build 0)  -->
<svg version="1.1" id="Layer_1" xmlns="http://www.w3.org/2000/svg" xmlns:xlink="http://www.w3.org/1999/xlink" x="0px" y="0px"
	 viewBox="0 0 120 120" style="enable-background:new 0 0 120 120;" xml:space="preserve">
<style type="text/css">
	.st0{fill:#E9E9EA;}
	.st1{fill:#e6e3f2;}
	.st2{fill:none;stroke:#5A4B9F;stroke-width:3;stroke-linecap:round;stroke-linejoin:round;stroke-miterlimit:10;}
	.st3{fill:#FFFFFF;}
	.st4{fill:none;stroke:#5A4B9F;stroke-width:3;stroke-linecap:round;stroke-miterlimit:10;}
	.st5{fill:#FFFFFF;stroke:#5A4B9F;stroke-width:3;stroke-linecap:round;stroke-miterlimit:10;}
</style>
<g>
	<ellipse class="st0" cx="59.999" cy="64.071" rx="41.429" ry="41.429"/>
	<path class="st1" d="M60,75.5c-5.35,0-15.714,2.918-15.714,8.571v15.714h31.429V84.071C75.714,78.418,65.35,75.5,60,75.5z"/>
	<path class="st2" d="M75.714,99.786V84.071C75.714,78.418,65.35,75.5,60,75.5s-15.714,2.918-15.714,8.571v15.714"/>
	<path class="st3" d="M91.462,82.643h-3.939c-1.137,0-2.227,0.451-3.03,1.255l-8.745,8.745h-10c0,0-0.82,7.143,5.714,7.143
		c3.81,0,10,0,10,0l2.824-2.824v7.11h12.89V88.357C97.176,85.201,94.617,82.643,91.462,82.643z"/>
	<path class="st3" d="M28.571,82.643h3.939c1.137,0,2.227,0.451,3.03,1.255l8.745,8.745h10c0,0,0.82,7.143-5.714,7.143
		c-3.81,0-10,0-10,0l-2.824-2.824v7.11h-12.89V88.357C22.857,85.201,25.416,82.643,28.571,82.643z"/>
	<line class="st4" x1="68.571" y1="92.643" x2="68.571" y2="85.5"/>
	<line class="st4" x1="51.429" y1="85.5" x2="51.429" y2="92.643"/>
	<path class="st5" d="M60,71.214c3.989,0,7.143-3.289,7.143-7.346v-2.45c0-4.057-3.154-7.346-7.143-7.346s-7.143,3.289-7.143,7.346
		v2.45C52.857,67.925,56.011,71.214,60,71.214z"/>
	<path class="st4" d="M22.857,104.071V88.357c0-3.156,2.558-5.714,5.714-5.714h3.939c1.137,0,2.227,0.452,3.03,1.255l8.745,8.745h10
		c0,0,0.82,7.143-5.714,7.143c-3.81,0-10,0-10,0L30,91.214"/>
	<path class="st4" d="M97.176,104.071V88.357c0-3.156-2.558-5.714-5.714-5.714h-3.939c-1.137,0-2.227,0.452-3.031,1.255
		l-8.745,8.745h-10c0,0-0.82,7.143,5.714,7.143c3.81,0,10,0,10,0l8.571-8.571"/>
	<line class="st4" x1="35.714" y1="96.929" x2="35.714" y2="104.071"/>
	<line class="st4" x1="84.286" y1="96.929" x2="84.286" y2="104.071"/>
	<line class="st4" x1="35.714" y1="99.786" x2="84.286" y2="99.786"/>
	<path class="st5" d="M31.429,78.357c3.989,0,7.143-3.289,7.143-7.346v-2.45c0-4.057-3.154-7.346-7.143-7.346
		s-7.143,3.289-7.143,7.346v2.45C24.286,75.068,27.44,78.357,31.429,78.357z"/>
	<path class="st5" d="M88.571,78.357c3.989,0,7.143-3.289,7.143-7.346v-2.45c0-4.057-3.154-7.346-7.143-7.346
		s-7.143,3.289-7.143,7.346v2.45C81.429,75.068,84.583,78.357,88.571,78.357z"/>
	<path class="st5" d="M35.714,15.5h47.143c2.367,0,4.286,1.919,4.286,4.286v24.286c0,2.367-1.919,4.286-4.286,4.286H51.429
		l-7.566,9.839C42.791,59.624,40,58.899,40,56.929v-8.571h-4.286c-2.367,0-4.286-1.919-4.286-4.286V19.786
		C31.429,17.419,33.347,15.5,35.714,15.5z"/>
	<line class="st4" x1="53.143" y1="25.5" x2="78.857" y2="25.5"/>
	<line class="st4" x1="53.143" y1="32.714" x2="78.857" y2="32.714"/>
	<line class="st4" x1="53.143" y1="39.929" x2="66" y2="39.929"/>
	<polyline class="st4" points="44.396,22.5 42.596,26.5 42.396,26.5 42.396,26.5 40.396,24.5 	"/>
	<polyline class="st4" points="44.396,29.214 42.596,33.214 42.396,33.214 42.396,33.214 40.396,31.214 	"/>
	<polyline class="st4" points="44.396,36.929 42.596,40.929 42.396,40.929 42.396,40.929 40.396,38.929 	"/>
</g>
</svg>
