<svg id="Layer_1" xmlns="http://www.w3.org/2000/svg" viewBox="0 0 120 120"><style>.st0{fill:#e9eaeb}.st1{fill:none;stroke:#bcc0c4;stroke-width:2;stroke-miterlimit:10}.st2{fill:#e6e3f2}.st3{fill:#fff}.st4{fill:none;stroke:#5a4b9f;stroke-width:3;stroke-miterlimit:10}</style><ellipse class="st0" cx="55.186" cy="50.538" rx="37.499" ry="37.499"/><path class="st1" d="M73.188 35.542h10.5M86.688 35.542h3M92.688 35.542h3M95.688 28.042h3M101.688 28.042h3M50.688 28.042h14.748c.66-1.5 2.213-2.75 4.025-2.75.575 0 1.122.072 1.624.273 1.009-2.69 3.596-4.612 6.639-4.612 3.915 0 7.088 4.088 7.095 7.088h7.869M14.688 35.542h5.938c.99-1.5 3.042-3.077 5.503-2.78 1.073-1.848 3.05-3.235 5.341-3.235 3.405 0 6.163 3.014 6.192 6.014h14.527M55.188 35.542h3M61.188 35.542h3"/><path class="st2" d="M34.188 74.542h45v31.5h-45z"/><path class="st3" d="M23.688 71.542v34.5h10.5v-31.5h45v31.5h10.5v-34.5l-33-27z"/><path class="st4" d="M23.688 71.542v33h10.5v-30h45v30h10.5v-33"/><path class="st4" d="M16.188 77.542l40.5-33 40.5 33M38.688 82.042h36M38.688 89.542h36M38.688 97.042h36M38.688 104.542h36"/></svg>