<svg id="Layer_1" xmlns="http://www.w3.org/2000/svg" viewBox="0 0 120 120"><style>.st0{fill:#e9e9ea}.st1{fill:#fff}.st2{fill:#e6e3f2}.st3,.st4{stroke:#5a4b9f;stroke-width:3;stroke-linejoin:round}.st3{fill:#fff;stroke-miterlimit:10}.st4{stroke-linecap:round}.st4,.st5,.st6{fill:none;stroke-miterlimit:10}.st5{stroke-linejoin:round;stroke:#5a4b9f;stroke-width:3}.st6{stroke:#bdc0c4;stroke-width:2}</style><circle class="st0" cx="71.25" cy="48.953" r="33.75"/><path class="st1" d="M26.254 70.047c-4.425 0-9.847 3.537-9.848 5.625v7.031c0 2.088 5.422 5.625 9.848 5.625 4.426 0 9.847-3.537 9.848-5.625v-7.031c-.001-2.089-5.423-5.625-9.848-5.625zM43.129 40.516c-4.425 0-9.847 3.537-9.848 5.625v8.438c0 2.088 5.422 5.625 9.848 5.625 4.426 0 9.847-3.537 9.848-5.625v-8.438c-.001-2.089-5.423-5.625-9.848-5.625zM71.254 40.516c-4.425 0-9.847 3.537-9.848 5.625v8.438c0 2.088 5.422 5.625 9.848 5.625 4.426 0 9.847-3.537 9.848-5.625v-8.438c-.001-2.089-5.423-5.625-9.848-5.625zM88.129 68.641c-4.425 0-9.847 3.537-9.848 5.625v8.438c0 2.088 5.422 5.625 9.848 5.625 4.426 0 9.847-3.537 9.848-5.625v-8.438c-.001-2.089-5.423-5.625-9.848-5.625z"/><path class="st2" d="M89.737 96.262L73.912 80.438l-6.495 6.433 15.855 15.855a3.656 3.656 0 0 0 5.171 0l1.293-1.293a3.657 3.657 0 0 0 .001-5.171z"/><circle class="st3" cx="57.188" cy="70.047" r="19.688"/><path class="st4" d="M52.969 46.141c0-2.088-5.414-5.625-9.84-5.625-4.425 0-9.847 3.537-9.848 5.625v5.625"/><path class="st3" d="M43.125 40.516c-3.382 0-5.625-2.698-5.625-6.026v-2.01c0-3.328 2.243-6.026 5.625-6.026s5.625 2.698 5.625 6.026v2.01c0 3.328-2.243 6.026-5.625 6.026z"/><path class="st4" d="M32.675 71.982c-1.883-1.099-4.269-1.935-6.421-1.935-4.425 0-9.847 3.537-9.848 5.625v5.625"/><path class="st3" d="M26.25 70.047c-3.382 0-5.625-2.698-5.625-6.026v-2.01c0-3.328 2.243-6.026 5.625-6.026s5.625 2.698 5.625 6.026v2.01c0 3.328-2.243 6.026-5.625 6.026z"/><path class="st4" d="M67.039 79.891v-2.812c0-2.088-5.422-5.625-9.848-5.625-4.425 0-9.847 3.537-9.848 5.625v2.812"/><path class="st3" d="M57.188 71.453c-3.382 0-5.625-2.698-5.625-6.026v-2.01c0-3.328 2.243-6.026 5.625-6.026s5.625 2.698 5.625 6.026v2.01c-.001 3.328-2.243 6.026-5.625 6.026z"/><path class="st4" d="M61.406 46.141c0-2.088 5.414-5.625 9.84-5.625 4.425 0 9.847 3.537 9.848 5.625v5.625"/><path class="st3" d="M71.25 40.516c3.382 0 5.625-2.698 5.625-6.026v-2.01c0-3.328-2.243-6.026-5.625-6.026s-5.625 2.698-5.625 6.026v2.01c0 3.328 2.243 6.026 5.625 6.026z"/><path class="st5" d="M73.912 80.438l15.824 15.824a3.656 3.656 0 0 1 0 5.171l-1.293 1.293a3.656 3.656 0 0 1-5.171 0L67.418 86.871"/><path class="st4" d="M97.969 79.891v-5.625c0-2.088-5.422-5.625-9.848-5.625-2.152 0-4.538.836-6.421 1.935"/><path class="st3" d="M88.125 68.641c3.382 0 5.625-2.698 5.625-6.026v-2.01c0-3.328-2.243-6.026-5.625-6.026S82.5 57.277 82.5 60.605v2.01c0 3.328 2.243 6.026 5.625 6.026z"/><path class="st6" d="M24.844 23.641l-2.813 2.812M31.875 16.609l-2.813 2.813M29.062 23.641l2.813 2.812M22.031 16.609l2.813 2.813"/><g><path class="st6" d="M19.219 34.891v8.437M15 39.109h8.438"/></g></svg>