<?xml version="1.0" encoding="utf-8"?>
<!-- Generator: Adobe Illustrator 24.0.2, SVG Export Plug-In . SVG Version: 6.00 Build 0)  -->
<svg version="1.1" id="Layer_1" xmlns="http://www.w3.org/2000/svg" xmlns:xlink="http://www.w3.org/1999/xlink" x="0px" y="0px"
	 viewBox="0 0 120 120" style="enable-background:new 0 0 120 120;" xml:space="preserve">
<style type="text/css">
	.st0{fill:#E9E9EA;}
	.st1{fill:#FFFFFF;}
	.st2{fill:#e6e3f2;}
	.st3{fill:#FFFFFF;stroke:#5A4B9F;stroke-width:3;stroke-linejoin:round;stroke-miterlimit:10;}
	.st4{fill:none;stroke:#5A4B9F;stroke-width:3;stroke-linecap:round;stroke-linejoin:round;stroke-miterlimit:10;}
	.st5{fill:none;stroke:#5A4B9F;stroke-width:3;stroke-linejoin:round;stroke-miterlimit:10;}
	.st6{fill:none;stroke:#BDC0C4;stroke-width:2;stroke-miterlimit:10;}
</style>
<g>
	<circle class="st0" cx="71.25" cy="48.953" r="33.75"/>
	<path class="st1" d="M26.254,70.047c-4.425,0-9.847,3.537-9.848,5.625v7.031c0,2.088,5.422,5.625,9.848,5.625
		c4.426,0,9.847-3.537,9.848-5.625v-7.031C36.101,73.583,30.679,70.047,26.254,70.047z"/>
	<path class="st1" d="M43.129,40.516c-4.425,0-9.847,3.537-9.848,5.625v8.438c0,2.088,5.422,5.625,9.848,5.625
		c4.426,0,9.847-3.537,9.848-5.625v-8.438C52.976,44.052,47.554,40.516,43.129,40.516z"/>
	<path class="st1" d="M71.254,40.516c-4.425,0-9.847,3.537-9.848,5.625v8.438c0,2.088,5.422,5.625,9.848,5.625
		c4.426,0,9.847-3.537,9.848-5.625v-8.438C81.101,44.052,75.679,40.516,71.254,40.516z"/>
	<path class="st1" d="M88.129,68.641c-4.425,0-9.847,3.537-9.848,5.625v8.438c0,2.088,5.422,5.625,9.848,5.625
		c4.426,0,9.847-3.537,9.848-5.625v-8.438C97.976,72.177,92.554,68.641,88.129,68.641z"/>
	<path class="st2" d="M89.737,96.262L73.912,80.438l-6.495,6.433l15.855,15.855c1.428,1.428,3.743,1.428,5.171,0l1.293-1.293
		C91.164,100.005,91.164,97.69,89.737,96.262z"/>
	<circle class="st3" cx="57.188" cy="70.047" r="19.688"/>
	<path class="st4" d="M52.969,46.141c0-2.088-5.414-5.625-9.84-5.625c-4.425,0-9.847,3.537-9.848,5.625v5.625"/>
	<path class="st3" d="M43.125,40.516c-3.382,0-5.625-2.698-5.625-6.026v-2.01c0-3.328,2.243-6.026,5.625-6.026
		c3.382,0,5.625,2.698,5.625,6.026v2.01C48.75,37.818,46.507,40.516,43.125,40.516z"/>
	<path class="st4" d="M32.675,71.982c-1.883-1.099-4.269-1.935-6.421-1.935c-4.425,0-9.847,3.537-9.848,5.625v5.625"/>
	<path class="st3" d="M26.25,70.047c-3.382,0-5.625-2.698-5.625-6.026v-2.01c0-3.328,2.243-6.026,5.625-6.026
		c3.382,0,5.625,2.698,5.625,6.026v2.01C31.875,67.349,29.632,70.047,26.25,70.047z"/>
	<path class="st4" d="M67.039,79.891v-2.812c0-2.088-5.422-5.625-9.848-5.625c-4.425,0-9.847,3.537-9.848,5.625v2.812"/>
	<path class="st3" d="M57.188,71.453c-3.382,0-5.625-2.698-5.625-6.026v-2.01c0-3.328,2.243-6.026,5.625-6.026
		c3.382,0,5.625,2.698,5.625,6.026v2.01C62.812,68.755,60.57,71.453,57.188,71.453z"/>
	<path class="st4" d="M61.406,46.141c0-2.088,5.414-5.625,9.84-5.625c4.425,0,9.847,3.537,9.848,5.625v5.625"/>
	<path class="st3" d="M71.25,40.516c3.382,0,5.625-2.698,5.625-6.026v-2.01c0-3.328-2.243-6.026-5.625-6.026
		c-3.382,0-5.625,2.698-5.625,6.026v2.01C65.625,37.818,67.868,40.516,71.25,40.516z"/>
	<path class="st5" d="M73.912,80.438l15.824,15.824c1.428,1.428,1.428,3.743,0,5.171l-1.293,1.293c-1.428,1.428-3.743,1.428-5.171,0
		L67.418,86.871"/>
	<path class="st4" d="M97.969,79.891v-5.625c0-2.088-5.422-5.625-9.848-5.625c-2.152,0-4.538,0.836-6.421,1.935"/>
	<path class="st3" d="M88.125,68.641c3.382,0,5.625-2.698,5.625-6.026v-2.01c0-3.328-2.243-6.026-5.625-6.026
		c-3.382,0-5.625,2.698-5.625,6.026v2.01C82.5,65.943,84.743,68.641,88.125,68.641z"/>
	<g>
		<line class="st6" x1="24.844" y1="23.641" x2="22.031" y2="26.453"/>
		<line class="st6" x1="31.875" y1="16.609" x2="29.062" y2="19.422"/>
		<line class="st6" x1="29.062" y1="23.641" x2="31.875" y2="26.453"/>
		<line class="st6" x1="22.031" y1="16.609" x2="24.844" y2="19.422"/>
	</g>
	<g>
		<line class="st6" x1="19.219" y1="34.891" x2="19.219" y2="43.328"/>
		<line class="st6" x1="15" y1="39.109" x2="23.438" y2="39.109"/>
	</g>
</g>
</svg>
