<svg id="Layer_1" xmlns="http://www.w3.org/2000/svg" viewBox="0 0 120 120"><style>.st0{fill:#e9e9ea}.st1{fill:#e6e3f2}.st2{fill:#fff}.st3,.st4,.st5{fill:none;stroke:#5a4b9f;stroke-width:3;stroke-miterlimit:10}.st4,.st5{fill:#fff}.st5{fill:none;stroke:#bdc0c4;stroke-width:2}</style><ellipse transform="rotate(-45.001 56.687 50.563)" class="st0" cx="56.688" cy="50.562" rx="36.563" ry="36.563"/><path class="st1" d="M35.594 47.75c-5.862 0-15.469 2.812-15.469 9.844v15.469c0 3.254 3.384 7.031 7.031 7.031V104h16.875V80.094c3.58 0 7.031-3.81 7.031-7.031v-16.95c0-5.525-9.606-8.363-15.468-8.363z"/><path class="st2" d="M77.781 47.75c-5.862 0-15.469 2.838-15.469 8.363v16.949c0 3.222 3.452 7.031 7.031 7.031V104h16.875V80.094c3.647 0 7.031-3.778 7.031-7.031V57.594c.001-7.032-9.606-9.844-15.468-9.844z"/><path class="st3" d="M27.156 80.094c-3.647 0-7.031-3.778-7.031-7.031V57.594c0-7.031 9.607-9.844 15.469-9.844s15.469 2.838 15.469 8.364v1.48M27.156 59v45M35.594 77.281V104M44.031 104V80.094c3.58 0 7.031-3.81 7.031-7.031v-5.625h26.719"/><path class="st3" d="M86.219 80.094c3.647 0 7.031-3.778 7.031-7.031V57.594c0-7.031-9.607-9.844-15.469-9.844s-15.469 2.838-15.469 8.364v5.699H35.594M86.219 59v45M77.781 77.281V104M69.344 104V80.094c-3.58 0-7.031-3.81-7.031-7.031v-1.406"/><path class="st3" d="M72.156 73.062l5.625-5.624-5.625-5.626M41.219 67.438l-5.625-5.626 5.625-5.624"/><path class="st4" d="M35.594 43.531c4.097 0 7.031-2.756 7.031-6.75v-3.375c0-3.994-2.934-6.75-7.031-6.75-4.097 0-7.031 2.756-7.031 6.75v3.375c-.001 3.994 2.934 6.75 7.031 6.75zM77.781 43.531c4.097 0 7.031-2.756 7.031-6.75v-3.375c0-3.994-2.934-6.75-7.031-6.75-4.097 0-7.031 2.756-7.031 6.75v3.375c0 3.994 2.934 6.75 7.031 6.75z"/><path class="st5" d="M60.906 22.438l-2.812 2.812M67.938 15.406l-2.813 2.813M65.125 22.438l2.813 2.812M58.094 15.406l2.812 2.813"/><g><path class="st5" d="M52.469 30.875v8.437M48.25 35.094h8.438"/></g><g><path class="st5" d="M94.656 36.5v8.438M90.438 40.719h8.437"/></g></svg>