<svg id="Layer_1" xmlns="http://www.w3.org/2000/svg" viewBox="0 0 120 120"><style>.st0{fill:#e9e9ea}.st1{fill:none;stroke:#bdc0c4;stroke-width:2;stroke-miterlimit:10}.st2{fill:#e6e3f2}.st3{fill:#fff;stroke:#5a4b9f;stroke-width:3;stroke-miterlimit:10}.st4,.st5{stroke-linecap:round}.st4{fill:none;stroke:#5a4b9f;stroke-width:3;stroke-miterlimit:10}.st5{stroke-linejoin:round}.st5,.st6{fill:none;stroke:#5a4b9f;stroke-width:3;stroke-miterlimit:10}</style><circle class="st0" cx="59" cy="52.694" r="39.194"/><path class="st1" d="M34.323 43.984v8.71M29.968 48.339h8.709M24.161 28.016v8.71M19.806 32.371h8.71M38.677 20.758v8.71M34.323 25.113h8.709"/><path class="st2" d="M59 43.984c-8.71 0-14.516 4.417-14.516 10.161v17.419c0 3.383 2.424 5.806 5.806 5.806h1.452v26.13h17.419V54.145l17.419-2.903c4.234-.817 5.806-4.355 5.806-7.258H59z"/><path class="st3" d="M60.452 39.611c4.053 0 7.258-3.316 7.258-7.406v-2.47c0-4.09-3.205-7.406-7.258-7.406s-7.258 3.316-7.258 7.406v2.47c0 4.09 3.205 7.406 7.258 7.406z"/><path class="st4" d="M51.742 57.048V103.5M60.452 75.919V103.5"/><path class="st5" d="M69.161 103.5V54.145l17.419-2.903c4.234-.817 5.806-4.355 5.806-7.258H58.999c-8.71 0-14.516 4.417-14.516 10.161v17.419c0 3.383 2.424 5.806 5.806 5.806h1.452"/><circle class="st6" cx="86.581" cy="67.21" r="5.806"/><path class="st6" d="M86.581 61.403V51.242"/><path class="st4" d="M86.581 43.984V19.306M86.581 23.661h7.258M86.581 29.468h7.258"/></svg>