<svg id="Layer_1" xmlns="http://www.w3.org/2000/svg" viewBox="0 0 120 120"><style>.st0{fill:#e9e9ea}.st1{fill:#fff}.st2,.st3,.st4{stroke-miterlimit:10}.st2{stroke:#5a4b9f;stroke-width:3;stroke-linecap:round;stroke-linejoin:round;fill:#e6e3f2}.st3,.st4{fill:none}.st3{stroke-linecap:round;stroke-linejoin:round;stroke:#5a4b9f;stroke-width:3}.st4{stroke:#bdc0c4;stroke-width:2}</style><circle class="st0" cx="59" cy="61.213" r="41.311"/><path class="st1" d="M91.23 94.054a10.55 10.55 0 0 0 .805-4.042c0-5.925-4.869-10.728-10.876-10.728-1.904 0-3.692.486-5.249 1.333-.162-4.19-4.877-8.155-9.533-7.602V62.689H51.623v11.803c-5.348-2.705-12.567 2.779-12.567 7.65 0 .053.007.105.008.158a9.964 9.964 0 0 0-1.976-.198c-5.399 0-9.776 4.317-9.776 9.642a9.49 9.49 0 0 0 1.08 4.391l.027.045c-2.89 1.685-4.828 4.268-4.828 7.819h73.702c1.774-5.486-2.284-9.566-6.063-9.945z"/><path class="st2" d="M59 14c2.431 0 7.377 6.776 7.377 16.23v16.23l7.377 7.377-1.475 5.902-7.921-3.61L59 64.164l-5.358-8.036-7.921 3.61-1.475-5.902 7.377-7.377V30.23C51.623 20.776 56.569 14 59 14z"/><path class="st3" d="M59 33.18v4.427M97.292 104c1.774-5.487-2.283-9.568-6.062-9.946a10.55 10.55 0 0 0 .805-4.042c0-5.925-4.869-10.728-10.876-10.728-1.904 0-3.692.486-5.249 1.333-.162-4.19-4.877-8.155-9.533-7.602V62.689M23.59 104c0-3.551 1.938-6.134 4.828-7.819l-.027-.045a9.49 9.49 0 0 1-1.08-4.391c0-5.325 4.377-9.642 9.776-9.642a9.89 9.89 0 0 1 1.976.198c-.001-.053-.008-.104-.008-.158 0-4.872 7.219-10.355 12.567-7.65V62.689M54.651 104c0-5.288 4.346-9.574 9.707-9.573M57.489 97.237c-.825-2.811-4.268-4.549-6.973-3.804M91.219 94.05a10.662 10.662 0 0 1-4.479 4.96M70.39 89.855c0-3.976 2.227-7.44 5.517-9.244M45.26 86.541a9.682 9.682 0 0 0-6.198-4.24"/><path class="st4" d="M32.443 46.459v16.23M32.443 65.639v2.951M81.131 39.082v16.229M81.131 58.262v2.951M87.033 49.41v16.229M87.033 68.59v2.951"/></svg>