<svg id="Layer_1" xmlns="http://www.w3.org/2000/svg" viewBox="0 0 120 120"><style>.st0{fill:#e9eaeb}.st1,.st2,.st3,.st4{fill:#fff;stroke:#5a4b9f;stroke-width:3;stroke-miterlimit:10}.st2,.st3,.st4{fill:none;stroke:#bcc0c4;stroke-width:2}.st3,.st4{fill:#e6e3f2;stroke:#5a4b9f;stroke-width:3}.st4{fill:none}</style><ellipse transform="rotate(-12.773 50.972 52.63)" class="st0" cx="50.982" cy="52.639" rx="36.291" ry="36.292"/><path class="st1" d="M29.204 63.992H43.72v37.742H29.204zM33.559 58.186H43.72v5.806H33.559zM77.107 78.509h13.065v23.226H77.107zM77.107 72.702h10.161v5.806H77.107zM43.72 46.573h33.387v55.161H43.72z"/><path class="st2" d="M74.204 32.057h10.161M87.268 32.057h2.903M93.075 32.057h2.903M95.978 24.799h2.903M101.784 24.799h2.904M52.429 24.799h14.272c.639-1.452 2.142-2.661 3.895-2.661.556 0 1.086.069 1.572.264.976-2.603 3.48-4.463 6.425-4.463 3.788 0 6.86 3.956 6.867 6.859h7.615M17.591 32.057h5.746c.958-1.452 2.944-2.978 5.325-2.69 1.038-1.788 2.952-3.13 5.168-3.13 3.295 0 5.964 2.917 5.992 5.82H53.88M56.784 32.057h2.904M62.591 32.057h2.903"/><path class="st3" d="M48.075 40.767h24.677v5.806H48.075zM56.784 91.573h7.258v10.161h-7.258z"/><path class="st4" d="M50.978 72.702v-5.806h5.806v5.806M50.978 84.315v-5.806h5.806v5.806M64.042 72.702v-5.806h5.807v5.806M50.978 61.089v-5.806h5.806v5.806M64.042 61.089v-5.806h5.807v5.806M64.042 84.315v-5.806h5.807v5.806M35.01 72.702h4.355M35.01 78.509h4.355M35.01 84.315h4.355M35.01 90.121h4.355M35.01 95.928h4.355M81.462 84.315h4.355M81.462 90.121h4.355M81.462 95.928h4.355M29.204 101.734h-4.355M21.946 101.734h-2.904M90.171 101.734h4.355M97.429 101.734h2.904"/></svg>