<?xml version="1.0" encoding="utf-8"?>
<!-- Generator: Adobe Illustrator 24.0.2, SVG Export Plug-In . SVG Version: 6.00 Build 0)  -->
<svg version="1.1" id="Layer_1" xmlns="http://www.w3.org/2000/svg" xmlns:xlink="http://www.w3.org/1999/xlink" x="0px" y="0px"
	 viewBox="0 0 120 120" style="enable-background:new 0 0 120 120;" xml:space="preserve">
<style type="text/css">
	.st0{fill:#E9EAEB;}
	.st1{fill:#FFFFFF;}
	.st2{fill:#e6e3f2;}
	.st3{fill:none;stroke:#5A4B9F;stroke-width:3;stroke-linecap:round;stroke-linejoin:round;stroke-miterlimit:10;}
	.st4{fill:#FFFFFF;stroke:#5A4B9F;stroke-width:3;stroke-linecap:round;stroke-linejoin:round;stroke-miterlimit:10;}
	.st5{fill:none;stroke:#BCC0C4;stroke-width:2;stroke-miterlimit:10;}
</style>
<g>
	<circle class="st0" cx="49.941" cy="49.756" r="35.714"/>
	<path class="st1" d="M83.513,43.193c-3.845,0-6.395-3.126-6.395-6.983v-2.329c0-3.857,2.55-6.983,6.395-6.983
		c3.845,0,6.395,3.126,6.395,6.983v2.329C89.908,40.067,87.358,43.193,83.513,43.193z"/>
	<path class="st2" d="M44.227,71.185c6.299,0,7.143-7.143,7.143-7.143H38.513l-5.861-8.205c-0.804-1.126-2.103-1.795-3.487-1.795
		h-3.509c-3.015,0-4.844,2.612-5.714,5.714c0,0-3.482,15.938-4.286,21.429c-0.804,5.491,2.857,7.143,5.714,7.143s12.857,0,12.857,0
		l6.413,15.676l7.94,0.019l-6.169-20.557c-0.629-2.242-2.556-3.878-4.871-4.136l-9.027-1.003l1.972-11.376l3.742,4.233
		C34.227,71.185,39.941,71.185,44.227,71.185z"/>
	<path class="st3" d="M98.513,65.47v-9.411c0-3.787-5.862-6.011-10.964-6.881"/>
	<path class="st3" d="M86.268,42.61c2.28-1.102,3.673-3.459,3.673-6.334v-2.234c0-3.901-2.564-7.184-6.429-7.184
		s-6.429,3.283-6.429,7.184v2.857"/>
	<path class="st4" d="M33.513,49.756c-3.845,0-6.395-3.015-6.395-6.734v-2.246c0-3.719,2.55-6.734,6.395-6.734
		s6.395,3.015,6.395,6.734v2.246C39.908,46.741,37.358,49.756,33.513,49.756z"/>
	<path class="st3" d="M40.64,104.004l-6.413-15.676c0,0-10,0-12.857,0s-6.518-1.652-5.714-7.143
		c0.804-5.491,4.286-21.429,4.286-21.429c0.871-3.103,2.699-5.714,5.714-5.714h3.509c1.384,0,2.683,0.668,3.487,1.795l5.861,8.205
		H51.37c0,0-0.844,7.143-7.143,7.143c-4.286,0-10,0-10,0l-6.859-7.76"/>
	<path class="st3" d="M30.485,66.951l-1.972,11.376l9.027,1.003c2.315,0.257,4.242,1.893,4.871,4.136l6.169,20.557"/>
	<line class="st3" x1="34.227" y1="71.185" x2="104.227" y2="71.185"/>
	<polygon class="st4" points="79.768,42.613 49.054,42.613 57.982,64.042 88.339,64.042 	"/>
	<line class="st3" x1="98.513" y1="104.042" x2="98.513" y2="71.185"/>
	<g>
		<line class="st5" x1="64.227" y1="22.613" x2="61.37" y2="25.47"/>
		<line class="st5" x1="71.37" y1="15.47" x2="68.513" y2="18.327"/>
		<line class="st5" x1="68.513" y1="22.613" x2="71.37" y2="25.47"/>
		<line class="st5" x1="61.37" y1="15.47" x2="64.227" y2="18.327"/>
	</g>
	<g>
		<line class="st5" x1="51.37" y1="26.899" x2="51.37" y2="35.47"/>
		<line class="st5" x1="47.084" y1="31.185" x2="55.656" y2="31.185"/>
	</g>
</g>
</svg>
