<svg id="Layer_1" xmlns="http://www.w3.org/2000/svg" viewBox="0 0 120 120"><style>.st0{fill:#e9eaeb}.st1{fill:#fff}.st2{fill:#e6e3f2}.st3{fill:none;stroke:#5a4b9f;stroke-width:3;stroke-linecap:round;stroke-linejoin:round}.st3,.st4,.st5{stroke-miterlimit:10}.st4{stroke-linecap:round;stroke-linejoin:round;fill:#fff;stroke:#5a4b9f;stroke-width:3}.st5{fill:none;stroke:#bcc0c4;stroke-width:2}</style><circle class="st0" cx="49.941" cy="49.756" r="35.714"/><path class="st1" d="M83.513 43.193c-3.845 0-6.395-3.126-6.395-6.983v-2.329c0-3.857 2.55-6.983 6.395-6.983 3.845 0 6.395 3.126 6.395 6.983v2.329c0 3.857-2.55 6.983-6.395 6.983z"/><path class="st2" d="M44.227 71.185c6.299 0 7.143-7.143 7.143-7.143H38.513l-5.861-8.205a4.285 4.285 0 0 0-3.487-1.795h-3.509c-3.015 0-4.844 2.612-5.714 5.714 0 0-3.482 15.938-4.286 21.429-.804 5.491 2.857 7.143 5.714 7.143h12.857l6.413 15.676 7.94.019-6.169-20.557a5.716 5.716 0 0 0-4.871-4.136l-9.027-1.003 1.972-11.376 3.742 4.233 10 .001z"/><path class="st3" d="M98.513 65.47v-9.411c0-3.787-5.862-6.011-10.964-6.881M86.268 42.61c2.28-1.102 3.673-3.459 3.673-6.334v-2.234c0-3.901-2.564-7.184-6.429-7.184s-6.429 3.283-6.429 7.184v2.857"/><path class="st4" d="M33.513 49.756c-3.845 0-6.395-3.015-6.395-6.734v-2.246c0-3.719 2.55-6.734 6.395-6.734s6.395 3.015 6.395 6.734v2.246c0 3.719-2.55 6.734-6.395 6.734z"/><path class="st3" d="M40.64 104.004l-6.413-15.676H21.37c-2.857 0-6.518-1.652-5.714-7.143.804-5.491 4.286-21.429 4.286-21.429.871-3.103 2.699-5.714 5.714-5.714h3.509c1.384 0 2.683.668 3.487 1.795l5.861 8.205H51.37s-.844 7.143-7.143 7.143h-10l-6.859-7.76"/><path class="st3" d="M30.485 66.951l-1.972 11.376 9.027 1.003a5.713 5.713 0 0 1 4.871 4.136l6.169 20.557M34.227 71.185h70"/><path class="st4" d="M79.768 42.613H49.054l8.928 21.429h30.357z"/><path class="st3" d="M98.513 104.042V71.185"/><path class="st5" d="M64.227 22.613L61.37 25.47M71.37 15.47l-2.857 2.857M68.513 22.613l2.857 2.857M61.37 15.47l2.857 2.857"/><g><path class="st5" d="M51.37 26.899v8.571M47.084 31.185h8.572"/></g></svg>