<svg id="Layer_1" xmlns="http://www.w3.org/2000/svg" viewBox="0 0 120 120"><style>.st0{fill:#e9e9ea}.st1{fill:#fff;stroke:#5a4b9f;stroke-width:3;stroke-miterlimit:10}.st2{fill:#e6e3f2}.st3{fill:none;stroke:#5a4b9f;stroke-width:3;stroke-miterlimit:10}.st4{fill:#fff}</style><ellipse transform="rotate(-45.001 58.25 55.251)" class="st0" cx="58.25" cy="55.25" rx="38.25" ry="38.25"/><path class="st1" d="M80 52.542c4.021 0 7.5-3.29 7.5-7.348v-2.413c0-4.058-3.479-7.348-7.5-7.348s-7.5 3.29-7.5 7.348v2.413c0 4.058 3.479 7.348 7.5 7.348z"/><path class="st2" d="M86 57.5H74c-4.661 0-10.5 4.256-10.5 10.5v10.5h33V68c0-6.244-5.839-10.5-10.5-10.5z"/><path class="st3" d="M96.5 78.5V68c0-6.244-5.839-10.5-10.5-10.5H74c-4.661 0-10.5 4.256-10.5 10.5v10.5M89 78.5V68M71 68v10.5M14 78.5h90"/><path class="st1" d="M39.5 52.542c4.021 0 7.5-3.29 7.5-7.348v-2.413c0-4.058-3.479-7.348-7.5-7.348s-7.5 3.29-7.5 7.348v2.413c0 4.058 3.479 7.348 7.5 7.348z"/><path class="st2" d="M45.5 57.5h-12C28.839 57.5 23 61.756 23 68v12c0 3.348 3.777 7.5 7.125 7.5h18C51.473 87.5 56 83.348 56 80V68c0-6.244-5.839-10.5-10.5-10.5z"/><path class="st3" d="M48.125 87.5C51.473 87.5 56 83.348 56 80V68c0-6.244-5.839-10.5-10.5-10.5h-12C28.839 57.5 23 61.756 23 68v12c0 3.348 3.777 7.5 7.125 7.5"/><path class="st4" d="M29 66.5h21V101H29z"/><path class="st3" d="M29 101V66.5h21V101M99.5 80v21M18.5 80v21"/></svg>