<?xml version="1.0" encoding="utf-8"?>
<!-- Generator: Adobe Illustrator 24.0.2, SVG Export Plug-In . SVG Version: 6.00 Build 0)  -->
<svg version="1.1" id="Layer_1" xmlns="http://www.w3.org/2000/svg" xmlns:xlink="http://www.w3.org/1999/xlink" x="0px" y="0px"
	 viewBox="0 0 120 120" style="enable-background:new 0 0 120 120;" xml:space="preserve">
<style type="text/css">
	.st0{fill:#E9E9EA;}
	.st1{fill:#FFFFFF;}
	.st2{fill:#e6e3f2;}
	.st3{fill:none;stroke:#5A4B9F;stroke-width:3;stroke-linecap:round;stroke-miterlimit:10;}
</style>
<g>
	<circle class="st0" cx="48.132" cy="48.132" r="34.839"/>
	<circle class="st1" cx="62.648" cy="62.648" r="24.677"/>
	<path class="st2" d="M62.648,69.906c-4.538,0-13.065,2.201-13.065,6.485v7.165c3.792,2.375,8.261,3.769,13.065,3.769
		c4.804,0,9.273-1.395,13.065-3.769v-7.165C75.712,72.107,67.186,69.906,62.648,69.906z"/>
	<circle class="st3" cx="62.648" cy="62.648" r="24.677"/>
	<path class="st3" d="M75.712,78.615v-2.225c0-4.284-8.526-6.485-13.065-6.485c-4.538,0-13.065,2.201-13.065,6.485v2.161"/>
	<path class="st3" d="M62.648,64.099c4.229,0,7.258-2.845,7.258-6.968v-3.484c0-4.123-3.029-6.968-7.258-6.968
		c-4.229,0-7.258,2.845-7.258,6.968v3.484C55.39,61.254,58.419,64.099,62.648,64.099z"/>
	<line class="st3" x1="62.648" y1="33.615" x2="62.648" y2="22.003"/>
	<polyline class="st3" points="68.454,27.809 62.648,22.003 56.841,27.809 	"/>
	<line class="st3" x1="42.325" y1="42.325" x2="33.615" y2="33.615"/>
	<polyline class="st3" points="42.325,33.615 33.615,33.615 33.615,42.325 	"/>
	<line class="st3" x1="82.97" y1="42.325" x2="91.68" y2="33.615"/>
	<polyline class="st3" points="82.97,33.615 91.68,33.615 91.68,42.325 	"/>
	<line class="st3" x1="42.325" y1="82.97" x2="33.615" y2="91.68"/>
	<polyline class="st3" points="42.325,91.68 33.615,91.68 33.615,82.97 	"/>
	<line class="st3" x1="82.97" y1="82.97" x2="91.68" y2="91.68"/>
	<polyline class="st3" points="82.97,91.68 91.68,91.68 91.68,82.97 	"/>
	<line class="st3" x1="33.615" y1="62.648" x2="22.003" y2="62.648"/>
	<polyline class="st3" points="27.809,56.841 22.003,62.648 27.809,68.454 	"/>
	<line class="st3" x1="62.648" y1="91.68" x2="62.648" y2="103.293"/>
	<polyline class="st3" points="56.841,97.486 62.648,103.293 68.454,97.486 	"/>
	<line class="st3" x1="91.68" y1="62.648" x2="103.293" y2="62.648"/>
	<polyline class="st3" points="97.486,68.454 103.293,62.648 97.486,56.841 	"/>
</g>
</svg>
