<svg id="Layer_1" xmlns="http://www.w3.org/2000/svg" viewBox="0 0 120 120"><style>.st0{fill:#e9e9ea}.st1{fill:#fff}.st2{fill:#e6e3f2}.st3{fill:none;stroke:#5a4b9f;stroke-width:3;stroke-linecap:round;stroke-miterlimit:10}</style><circle class="st0" cx="48.132" cy="48.132" r="34.839"/><circle class="st1" cx="62.648" cy="62.648" r="24.677"/><path class="st2" d="M62.648 69.906c-4.538 0-13.065 2.201-13.065 6.485v7.165a24.526 24.526 0 0 0 26.13 0v-7.165c-.001-4.284-8.527-6.485-13.065-6.485z"/><circle class="st3" cx="62.648" cy="62.648" r="24.677"/><path class="st3" d="M75.712 78.615V76.39c0-4.284-8.526-6.485-13.065-6.485-4.538 0-13.065 2.201-13.065 6.485v2.161M62.648 64.099c4.229 0 7.258-2.845 7.258-6.968v-3.484c0-4.123-3.029-6.968-7.258-6.968s-7.258 2.845-7.258 6.968v3.484c0 4.123 3.029 6.968 7.258 6.968zM62.648 33.615V22.003M68.454 27.809l-5.806-5.806-5.807 5.806M42.325 42.325l-8.71-8.71M42.325 33.615h-8.71v8.71M82.97 42.325l8.71-8.71M82.97 33.615h8.71v8.71M42.325 82.97l-8.71 8.71M42.325 91.68h-8.71v-8.71M82.97 82.97l8.71 8.71M82.97 91.68h8.71v-8.71M33.615 62.648H22.003M27.809 56.841l-5.806 5.807 5.806 5.806M62.648 91.68v11.613M56.841 97.486l5.807 5.807 5.806-5.807M91.68 62.648h11.613M97.486 68.454l5.807-5.806-5.807-5.807"/></svg>