<svg id="Layer_1" xmlns="http://www.w3.org/2000/svg" viewBox="0 0 120 120"><style>.st0{fill:#e9eaeb}.st1{fill:#fff}.st2{fill:none;stroke:#5a4b9f;stroke-width:3;stroke-linecap:round;stroke-linejoin:round;stroke-miterlimit:10}.st3{fill:#e6e3f2}.st4,.st5,.st6{stroke:#5a4b9f;stroke-width:3;stroke-miterlimit:10}.st4{stroke-linecap:round;fill:none}.st5,.st6{fill:#fff}.st6{fill:none;stroke:#bcc0c4;stroke-width:2}</style><circle class="st0" cx="55.686" cy="58.212" r="41.186"/><path class="st1" d="M86.195 56.686V17.025H67.89V35.33H48.059v64.068H104.5V56.686z"/><path class="st2" d="M67.89 99.398h-4.576M48.059 61.263V35.33H67.89M67.89 17.025h18.305v82.373H67.89zM86.195 56.686H104.5v42.712H86.195"/><path class="st3" d="M57.212 88.265c0-2.321-6.72-5.646-12.208-5.646-5.487 0-12.199 3.325-12.199 5.646v10.063c0 2.321 6.712 5.647 12.199 5.646 5.488 0 12.208-3.326 12.208-5.646V88.265z"/><path class="st4" d="M57.212 97.873v-9.608c0-2.321-6.72-5.646-12.208-5.646-5.487 0-12.199 3.325-12.199 5.646v9.608"/><path class="st5" d="M45.008 67.364c-3.155 0-6.102 2.459-6.102 5.493v4.269c0 3.033 2.947 5.493 6.102 5.493 3.155 0 6.102-2.459 6.102-5.493v-4.269c0-3.034-2.947-5.493-6.102-5.493z"/><path class="st6" d="M29.754 49.059v9.153M25.178 53.636h9.153"/><g><path class="st6" d="M19.076 32.28v9.152M14.5 36.856h9.153"/></g><g><path class="st6" d="M34.331 24.652v9.153M29.754 29.229h9.153"/></g></svg>