<?xml version="1.0" encoding="utf-8"?>
<!-- Generator: Adobe Illustrator 24.0.2, SVG Export Plug-In . SVG Version: 6.00 Build 0)  -->
<svg version="1.1" id="Layer_1" xmlns="http://www.w3.org/2000/svg" xmlns:xlink="http://www.w3.org/1999/xlink" x="0px" y="0px"
	 viewBox="0 0 120 120" style="enable-background:new 0 0 120 120;" xml:space="preserve">
<style type="text/css">
	.st0{fill:#E9EAEB;}
	.st1{fill:#FFFFFF;}
	.st2{fill:none;stroke:#5A4B9F;stroke-width:3;stroke-linecap:round;stroke-linejoin:round;stroke-miterlimit:10;}
	.st3{fill:#e6e3f2;}
	.st4{fill:none;stroke:#5A4B9F;stroke-width:3;stroke-linecap:round;stroke-miterlimit:10;}
	.st5{fill:#FFFFFF;stroke:#5A4B9F;stroke-width:3;stroke-miterlimit:10;}
	.st6{fill:none;stroke:#BCC0C4;stroke-width:2;stroke-miterlimit:10;}
</style>
<g>
	<circle class="st0" cx="55.686" cy="58.212" r="41.186"/>
	<polygon class="st1" points="86.195,56.686 86.195,17.025 67.89,17.025 67.89,35.33 48.059,35.33 48.059,99.398 104.5,99.398 
		104.5,56.686 	"/>
	<line class="st2" x1="67.89" y1="99.398" x2="63.314" y2="99.398"/>
	<polyline class="st2" points="48.059,61.263 48.059,35.33 67.89,35.33 	"/>
	<rect x="67.89" y="17.025" class="st2" width="18.305" height="82.373"/>
	<polyline class="st2" points="86.195,56.686 104.5,56.686 104.5,99.398 86.195,99.398 	"/>
	<g>
		<path class="st3" d="M57.212,88.265c0-2.321-6.72-5.646-12.208-5.646c-5.487,0-12.199,3.325-12.199,5.646v10.063
			c0,2.321,6.712,5.647,12.199,5.646c5.488,0,12.208-3.326,12.208-5.646V88.265z"/>
		<path class="st4" d="M57.212,97.873l0-9.608c0-2.321-6.72-5.646-12.208-5.646c-5.487,0-12.199,3.325-12.199,5.646v9.608"/>
		<path class="st5" d="M45.008,67.364c-3.155,0-6.102,2.459-6.102,5.493v4.269c0,3.033,2.947,5.493,6.102,5.493
			c3.155,0,6.102-2.459,6.102-5.493v-4.269C51.11,69.823,48.163,67.364,45.008,67.364z"/>
	</g>
	<g>
		<line class="st6" x1="29.754" y1="49.059" x2="29.754" y2="58.212"/>
		<line class="st6" x1="25.178" y1="53.636" x2="34.331" y2="53.636"/>
	</g>
	<g>
		<line class="st6" x1="19.076" y1="32.28" x2="19.076" y2="41.432"/>
		<line class="st6" x1="14.5" y1="36.856" x2="23.653" y2="36.856"/>
	</g>
	<g>
		<line class="st6" x1="34.331" y1="24.652" x2="34.331" y2="33.805"/>
		<line class="st6" x1="29.754" y1="29.229" x2="38.907" y2="29.229"/>
	</g>
</g>
</svg>
