<svg id="Layer_1" xmlns="http://www.w3.org/2000/svg" viewBox="0 0 120 120"><style>.st0{fill:#e9e9ea}.st1{fill:#fff}.st2{fill:none;stroke:#5a4b9f;stroke-width:3;stroke-linejoin:round}.st2,.st3,.st4,.st5{stroke-miterlimit:10}.st3{fill:none;stroke:#5a4b9f;stroke-width:3}.st4,.st5{stroke-linecap:round}.st4{stroke-linejoin:round;fill:#e6e3f2;stroke:#5a4b9f;stroke-width:3}.st5{fill:none;stroke:#bdc0c4;stroke-width:2}</style><ellipse transform="rotate(-45.001 50.642 67.358)" class="st0" cx="50.643" cy="67.357" rx="37.143" ry="37.143"/><path class="st1" d="M90.643 20.214H33.5a7.143 7.143 0 0 0-7.143 7.143V84.5a7.143 7.143 0 0 0 7.143 7.143h57.143a7.143 7.143 0 0 0 7.143-7.143V27.357a7.143 7.143 0 0 0-7.143-7.143z"/><path class="st2" d="M62.071 55.929h-12.5c.995 1.327 1.588 2.574 1.744 4.355.331 3.781-2.021 7.34-5.754 8.022a7.15 7.15 0 0 1-8.49-7.02c0-2.344.614-3.795 1.786-5.357h-12.5V84.5a7.143 7.143 0 0 0 7.143 7.143h28.571M62.071 55.929v12.5c1.327-.995 2.574-1.588 4.355-1.744 3.781-.331 7.34 2.021 8.022 5.754a7.15 7.15 0 0 1-7.02 8.49c-2.344 0-3.795-.614-5.357-1.786v12.5h28.571a7.143 7.143 0 0 0 7.143-7.143V55.929"/><path class="st3" d="M62.071 20.214H33.5a7.143 7.143 0 0 0-7.143 7.143v28.571"/><path class="st4" d="M90.643 20.214H62.071v12.5c-1.562-1.172-3.014-1.786-5.358-1.786a7.148 7.148 0 0 0-7.019 8.489c.682 3.734 4.24 6.085 8.021 5.755 1.782-.156 3.028-.748 4.356-1.744v12.5h12.5c-.995-1.327-1.588-2.574-1.744-4.355-.331-3.781 2.02-7.34 5.754-8.023a7.15 7.15 0 0 1 8.49 7.02c0 2.344-.614 3.795-1.786 5.357h12.5v-28.57a7.141 7.141 0 0 0-7.142-7.143z"/><path class="st5" d="M20.643 27.357c0-7.101 5.756-12.857 12.857-12.857M103.5 84.5c0 7.101-5.756 12.857-12.857 12.857"/></svg>