<svg id="Layer_1" xmlns="http://www.w3.org/2000/svg" viewBox="0 0 120 120"><style>.st0{fill:#e6e3f2;stroke:#5a4b9f;stroke-width:3;stroke-miterlimit:10}.st1{fill:#e9e9ea}.st2{fill:none;stroke:#bdc0c4;stroke-width:2;stroke-miterlimit:10}.st3{fill:#fff}.st4{fill:none;stroke:#5a4b9f;stroke-width:3;stroke-miterlimit:10}</style><path class="st0" d="M68.262 29.778c1.032 0 6.383-9.76 7.564-11.309.409-.537.49-.662.181-1.045-.324-.401-1.012-.292-1.782-.069-1.438.42-3.212.017-5.215-.562-4.008-1.157-9.791-2.773-12.118 1.455-.225.41-.07.106.378.601 1.22 1.352 6.357 10.929 7.405 10.929h3.587z"/><ellipse transform="rotate(-45.001 59.938 69.478)" class="st1" cx="59.938" cy="69.477" rx="36.023" ry="36.023"/><path class="st2" d="M27.643 29.778v9.097M32.191 34.326h-9.097M42.805 19.164v9.098M47.353 23.713h-9.097"/><path class="st0" d="M44.249 55.043l.001-.029-.001-.012v.041zm45.041-6.606c-1.284-5.489-4.003-11.241-16.16-18.609-3.97-2.406-9.048-1.83-11.553-.49-12.485 6.678-15.244 13.61-16.529 19.099-.339 1.451-.794 3.873-.797 6.576.007 12.86 10.202 23.284 22.779 23.284 12.581 0 22.779-10.43 22.779-23.296-.001-2.874-.178-5.108-.519-6.564z"/><path class="st3" d="M87.942 65.139l-8.918 4.23-.488.185c-.633-1.127-1.709-1.871-3.208-1.871h-9.097c-2.085 0-5.255-3.032-7.767-3.032h-8.912c-3.664 0-6.939 3-8.784 4.719-2.85 2.85-8.577 8.606-8.577 8.606l13.938 13.952c2.278-2.278 4.961-4.534 7.289-4.534h18.195c2.839 0 5.666-.872 7.674-2.88l15.088-15.088 4.288-10.721c-2.613-2.612-8.577.18-10.721 6.434z"/><path class="st4" d="M59.483 76.781h15.845c2.512 0 3.866-1.978 3.866-4.49v-.029c0-2.512-1.354-4.578-3.866-4.578h-9.097c-2.085 0-5.255-3.032-7.767-3.032h-8.912c-3.664 0-6.939 3-8.784 4.719-2.85 2.85-8.577 8.606-8.577 8.606l13.938 13.952c2.278-2.278 4.961-4.534 7.289-4.534h18.195c2.839 0 5.666-.872 7.674-2.88l15.088-15.088 4.288-10.721c-2.613-2.613-8.577.179-10.721 6.433l-8.918 4.23"/><path transform="rotate(-45.001 35.98 88.153)" class="st0" d="M29.549 74.215h12.865v27.875H29.549z"/><path class="st4" d="M33.707 84.362l-3.032-3.033"/><g><path class="st4" d="M62.516 54.037a3.032 3.032 0 0 0 3.032 3.032h3.032a3.032 3.032 0 0 0 3.032-3.032v-.847a3.033 3.033 0 0 0-2.073-2.877l-4.95-1.65a3.033 3.033 0 0 1-2.073-2.877v-.846a3.032 3.032 0 0 1 3.032-3.032h3.032a3.032 3.032 0 0 1 3.032 3.032M67.064 41.908v-4.549M67.064 57.07v4.548"/></g></svg>