<?xml version="1.0" encoding="utf-8"?>
<!-- Generator: Adobe Illustrator 24.0.2, SVG Export Plug-In . SVG Version: 6.00 Build 0)  -->
<svg version="1.1" id="Layer_1" xmlns="http://www.w3.org/2000/svg" xmlns:xlink="http://www.w3.org/1999/xlink" x="0px" y="0px"
	 viewBox="0 0 120 120" style="enable-background:new 0 0 120 120;" xml:space="preserve">
<style type="text/css">
	.st0{fill:#e6e3f2;stroke:#5A4B9F;stroke-width:3;stroke-miterlimit:10;}
	.st1{fill:#E9E9EA;}
	.st2{fill:none;stroke:#BDC0C4;stroke-width:2;stroke-miterlimit:10;}
	.st3{fill:#FFFFFF;}
	.st4{fill:none;stroke:#5A4B9F;stroke-width:3;stroke-miterlimit:10;}
</style>
<g>
	<path class="st0" d="M68.262,29.778c1.032,0,6.383-9.76,7.564-11.309c0.409-0.537,0.49-0.662,0.181-1.045
		c-0.324-0.401-1.012-0.292-1.782-0.069c-1.438,0.42-3.212,0.017-5.215-0.562c-4.008-1.157-9.791-2.773-12.118,1.455
		c-0.225,0.41-0.07,0.106,0.378,0.601c1.22,1.352,6.357,10.929,7.405,10.929H68.262z"/>
	<g>
		
			<ellipse transform="matrix(0.7071 -0.7071 0.7071 0.7071 -31.5719 62.7318)" class="st1" cx="59.938" cy="69.477" rx="36.023" ry="36.023"/>
	</g>
	<g>
		<line class="st2" x1="27.643" y1="29.778" x2="27.643" y2="38.875"/>
		<line class="st2" x1="32.191" y1="34.326" x2="23.094" y2="34.326"/>
	</g>
	<g>
		<line class="st2" x1="42.805" y1="19.164" x2="42.805" y2="28.262"/>
		<line class="st2" x1="47.353" y1="23.713" x2="38.256" y2="23.713"/>
	</g>
	<path class="st0" d="M44.249,55.043c0-0.01,0.001-0.02,0.001-0.029c0-0.004-0.001-0.008-0.001-0.012V55.043z M89.29,48.437
		c-1.284-5.489-4.003-11.241-16.16-18.609c-3.97-2.406-9.048-1.83-11.553-0.49c-12.485,6.678-15.244,13.61-16.529,19.099
		c-0.339,1.451-0.794,3.873-0.797,6.576c0.007,12.86,10.202,23.284,22.779,23.284c12.581,0,22.779-10.43,22.779-23.296
		C89.808,52.127,89.631,49.893,89.29,48.437z"/>
	<path class="st3" d="M87.942,65.139l-8.918,4.23l-0.488,0.185c-0.633-1.127-1.709-1.871-3.208-1.871h-9.097
		c-2.085,0-5.255-3.032-7.767-3.032c-1.116,0-6.342,0-8.912,0c-3.664,0-6.939,3-8.784,4.719c-2.85,2.85-8.577,8.606-8.577,8.606
		l13.938,13.952c2.278-2.278,4.961-4.534,7.289-4.534c1.645,0,11.814,0,18.195,0c2.839,0,5.666-0.872,7.674-2.88l15.088-15.088
		l4.288-10.721C96.05,56.093,90.086,58.885,87.942,65.139z"/>
	<path class="st4" d="M59.483,76.781h15.845c2.512,0,3.866-1.978,3.866-4.49v-0.029c0-2.512-1.354-4.578-3.866-4.578h-9.097
		c-2.085,0-5.255-3.032-7.767-3.032c-1.116,0-6.342,0-8.912,0c-3.664,0-6.939,3-8.784,4.719c-2.85,2.85-8.577,8.606-8.577,8.606
		l13.938,13.952c2.278-2.278,4.961-4.534,7.289-4.534c1.645,0,11.814,0,18.195,0c2.839,0,5.666-0.872,7.674-2.88l15.088-15.088
		l4.288-10.721c-2.613-2.613-8.577,0.179-10.721,6.433l-8.918,4.23"/>
	
		<rect x="29.549" y="74.215" transform="matrix(0.7071 -0.7071 0.7071 0.7071 -51.7943 51.262)" class="st0" width="12.865" height="27.875"/>
	<line class="st4" x1="33.707" y1="84.362" x2="30.675" y2="81.329"/>
	<g>
		<path class="st4" d="M62.516,54.037L62.516,54.037c0,1.675,1.358,3.032,3.032,3.032h3.032c1.675,0,3.032-1.358,3.032-3.032V53.19
			c0-1.305-0.835-2.464-2.073-2.877l-4.95-1.65c-1.238-0.413-2.073-1.572-2.073-2.877V44.94c0-1.675,1.358-3.032,3.032-3.032h3.032
			c1.675,0,3.032,1.358,3.032,3.032l0,0"/>
		<line class="st4" x1="67.064" y1="41.908" x2="67.064" y2="37.359"/>
		<line class="st4" x1="67.064" y1="57.07" x2="67.064" y2="61.618"/>
	</g>
</g>
</svg>
