<svg id="Layer_1" xmlns="http://www.w3.org/2000/svg" viewBox="0 0 120 120"><style>.st0,.st1,.st2,.st3,.st4{fill:none;stroke:#5a4b9f;stroke-width:3;stroke-miterlimit:10}.st1,.st2,.st3,.st4{stroke:#bcc0c4;stroke-width:2}.st2,.st3,.st4{fill:#fff;stroke:#5a4b9f;stroke-width:3}.st3,.st4{fill:#e9eaeb}.st4{fill:#e6e3f2}</style><path class="st0" d="M23.259 101.269h71.429"/><path class="st1" d="M80.402 58.412v-2.857l-7.143-8.572v-2.857M66.116 58.412v-2.857l-2.857-8.572v-2.857M37.545 58.412v-2.857l7.143-8.572v-2.857M51.83 58.412v-2.857l2.858-8.572v-2.857"/><path class="st2" d="M28.973 59.84h60v41.429h-60z"/><path class="st3" d="M28.973 68.412h20v32.857h-20z"/><path class="st0" d="M43.259 84.126v5.714M84.011 84.779L72.404 96.386M84.011 91.664l-4.722 4.722"/><path class="st3" d="M37.545 34.126h42.857v10H37.545z"/><path class="st4" d="M23.259 58.412v8.571c0 3.704 3.442 7.143 7.143 7.143 3.7 0 7.143-3.439 7.143-7.143 0 3.704 3.442 7.143 7.143 7.143 3.7 0 7.143-3.439 7.143-7.143 0 3.704 3.442 7.143 7.143 7.143 3.7 0 7.143-3.439 7.143-7.143 0 3.704 3.442 7.143 7.143 7.143 3.7 0 7.143-3.439 7.143-7.143 0 3.704 3.442 7.143 7.143 7.143 3.7 0 7.143-3.439 7.143-7.143v-8.571h-71.43z"/><path class="st0" d="M80.402 44.126H37.545L23.259 55.037v3.375h71.429v-3.375zM37.545 64.126v2.857M51.83 64.126v2.857M66.116 64.126v2.857M80.402 64.126v2.857M20.402 101.269h-4.286M101.83 101.269h-4.285"/><path class="st1" d="M58.973 25.555h-7.001c-.731-1.429-2.45-2.901-4.456-2.901-.636 0-1.242.151-1.798.374-1.117-2.978-3.982-5.213-7.35-5.213-4.334 0-7.848 4.883-7.856 7.74h-10.11M103.259 34.126H91.83M104.688 25.555h-2.82c-.988-2.857-3.038-3.569-5.496-3.271-1.072-1.846-3.047-2.984-5.335-2.984-3.4 0-6.155 1.969-6.184 6.255h-7.308M74.688 25.555H71.83M68.973 25.555h-2.857M17.545 25.555h-2.857M88.973 34.126h-2.857M33.259 38.412h-7.143M23.259 38.412h-2.857M17.545 38.412h-2.857"/></svg>