<svg id="Layer_1" xmlns="http://www.w3.org/2000/svg" viewBox="0 0 120 120"><style>.st0{fill:#e9e9ea}.st1{fill:#fff}.st2{fill:#e6e3f2}.st3,.st4,.st5{fill:#fff;stroke:#5a4b9f;stroke-width:3;stroke-miterlimit:10}.st4,.st5{fill:none}.st5{stroke-linecap:round;stroke-linejoin:round}</style><circle class="st0" cx="59.5" cy="59.738" r="39.661"/><path class="st1" d="M28.992 15.5h24.406v24.406H28.992zM28.992 47.534h24.406V71.94H28.992zM28.992 79.568h24.406v24.406H28.992z"/><path class="st2" d="M82.382 41.432c-5.713 0-16.779 3.116-16.779 9.153V70.54c0 3.554 2.547 5.977 6.102 5.977h1.526V105.5h18.305V76.517h1.526c3.554 0 6.102-2.423 6.102-5.977V50.585c-.003-6.037-11.069-9.153-16.782-9.153z"/><path class="st3" d="M82.382 36.837c4.259 0 7.627-3.484 7.627-7.782v-2.596c0-4.298-3.368-7.783-7.627-7.783s-7.627 3.485-7.627 7.783v2.596c-.001 4.298 3.367 7.782 7.627 7.782z"/><path class="st4" d="M91.534 105.5V55.161M73.229 55.161V105.5M82.382 74.991V105.5M73.229 76.517h-1.526c-3.554 0-6.102-2.547-6.102-6.102v-19.83c0-6.036 11.066-9.153 16.779-9.153 5.713 0 16.779 3.116 16.779 9.153v19.83c0 3.554-2.547 6.102-6.102 6.102h-1.526"/><path class="st5" d="M53.398 29.229v10.678H28.992V15.5h18.305"/><path class="st5" d="M35.094 27.703l6.101 6.103L56.449 15.5M53.398 61.262v10.679H28.992V47.534h18.305"/><path class="st5" d="M35.094 59.738l6.101 6.101 15.254-18.305M53.398 93.297v10.677H28.992V79.568h18.305"/><path class="st5" d="M35.094 91.771l6.101 6.102 15.254-18.305"/></svg>