<svg id="Layer_1" xmlns="http://www.w3.org/2000/svg" viewBox="0 0 120 120"><style>.st0{fill:#e9e9ea}.st1{fill:#e6e3f2}.st2{fill:none;stroke:#5a4b9f;stroke-width:3;stroke-linecap:round}.st2,.st3,.st4{stroke-miterlimit:10}.st3{stroke-linecap:round;fill:#fff;stroke:#5a4b9f;stroke-width:3}.st4{fill:none;stroke:#bdc0c4;stroke-width:2}</style><ellipse transform="rotate(-48.049 51.791 63.573)" class="st0" cx="51.789" cy="63.571" rx="37.143" ry="37.143"/><path class="st1" d="M77.58 34.615l-7.219 12.547-6.835 5.522C62.25 54.004 59.34 55 57.504 55h-2.857c-1.836 0-4.747-.996-6.023-2.316l-6.835-5.522-7.219-12.547c-2.78 1.814-4.209 4.671-2.237 8.481l3.848 9.84L46.075 65v37.143h20V65l9.894-12.064 3.848-9.84c1.972-3.81.544-6.667-2.237-8.481z"/><path class="st1" d="M46.075 90.714c-5.211 0-12.857 1.327-12.857 7.619v3.81h25.714v-3.81c0-6.292-7.646-7.619-12.857-7.619zM99.009 63.186L91.79 75.733l-6.835 5.522c-1.276 1.32-4.187 2.316-6.023 2.316h-2.857c-4.473 0-10 1.438-10 8.254v10.317h21.429v-8.571l9.894-12.064 3.848-9.84c1.972-3.81.543-6.667-2.237-8.481z"/><path class="st2" d="M46.075 67.857V65l-9.894-12.064-3.848-9.839c-1.972-3.81-.544-6.668 2.237-8.481l7.219 12.547 6.835 5.522C49.9 54.004 52.81 55 54.646 55h2.858c1.836 0 4.747-.996 6.023-2.316l6.835-5.522 7.219-12.547c2.78 1.814 4.209 4.671 2.237 8.481l-3.848 9.839L66.075 65v15.714"/><path class="st3" d="M56.075 35c3.435 0 5.714 2.741 5.714 6.122v2.042c0 3.381-2.279 6.122-5.714 6.122-3.435 0-5.714-2.741-5.714-6.122v-2.042c0-3.381 2.279-6.122 5.714-6.122z"/><path class="st2" d="M33.218 102.143v-3.81c0-6.292 7.647-7.619 12.857-7.619 5.211 0 12.857 1.327 12.857 7.619v3.81M56.075 27.857v-10M47.275 30.021l-6.023-6.023M64.875 30.021l6.023-6.023M66.075 102.143V91.825c0-6.816 5.527-8.254 10-8.254h2.857c1.836 0 4.747-.996 6.023-2.316l6.835-5.522 7.219-12.547c2.78 1.814 4.209 4.671 2.237 8.481l-3.848 9.839-9.894 12.064v8.571"/><path class="st3" d="M46.075 72.143c3.435 0 5.714 2.741 5.714 6.122v2.042c0 3.381-2.279 6.122-5.714 6.122-3.435 0-5.714-2.741-5.714-6.122v-2.042c0-3.381 2.279-6.122 5.714-6.122zM77.504 63.571c3.435 0 5.714 2.741 5.714 6.122v2.042c0 3.381-2.279 6.122-5.714 6.122-3.435 0-5.714-2.741-5.714-6.122v-2.042c-.001-3.381 2.278-6.122 5.714-6.122z"/><path class="st4" d="M97.504 40.714l-2.858 2.857M104.646 33.571l-2.857 2.858M101.789 40.714l2.857 2.857M94.646 33.571l2.858 2.858"/><g><path class="st4" d="M88.932 49.286v8.571M84.646 53.571h8.572"/></g></svg>