<?xml version="1.0" encoding="utf-8"?>
<!-- Generator: Adobe Illustrator 24.0.2, SVG Export Plug-In . SVG Version: 6.00 Build 0)  -->
<svg version="1.1" id="Layer_1" xmlns="http://www.w3.org/2000/svg" xmlns:xlink="http://www.w3.org/1999/xlink" x="0px" y="0px"
	 viewBox="0 0 120 120" style="enable-background:new 0 0 120 120;" xml:space="preserve">
<style type="text/css">
	.st0{fill:#E9E9EA;}
	.st1{fill:#e6e3f2;}
	.st2{fill:none;stroke:#5A4B9F;stroke-width:3;stroke-linecap:round;stroke-miterlimit:10;}
	.st3{fill:#FFFFFF;stroke:#5A4B9F;stroke-width:3;stroke-linecap:round;stroke-miterlimit:10;}
	.st4{fill:none;stroke:#BDC0C4;stroke-width:2;stroke-miterlimit:10;}
</style>
<g>
	
		<ellipse transform="matrix(0.6685 -0.7437 0.7437 0.6685 -30.1107 59.5918)" class="st0" cx="51.789" cy="63.571" rx="37.143" ry="37.143"/>
	<path class="st1" d="M77.58,34.615l-7.219,12.547l-6.835,5.522C62.25,54.004,59.34,55,57.504,55h-2.857
		c-1.836,0-4.747-0.996-6.023-2.316l-6.835-5.522L34.57,34.615c-2.78,1.814-4.209,4.671-2.237,8.481l3.848,9.84L46.075,65v37.143h20
		V65l9.894-12.064l3.848-9.84C81.789,39.286,80.361,36.429,77.58,34.615z"/>
	<path class="st1" d="M46.075,90.714c-5.211,0-12.857,1.327-12.857,7.619v3.81h25.714v-3.81
		C58.932,92.041,51.286,90.714,46.075,90.714z"/>
	<path class="st1" d="M99.009,63.186L91.79,75.733l-6.835,5.522c-1.276,1.32-4.187,2.316-6.023,2.316h-2.857
		c-4.473,0-10,1.438-10,8.254v10.317h21.429v-8.571l9.894-12.064l3.848-9.84C103.218,67.857,101.789,65,99.009,63.186z"/>
	<path class="st2" d="M46.075,67.857V65l-9.894-12.064l-3.848-9.839c-1.972-3.81-0.544-6.668,2.237-8.481l7.219,12.547l6.835,5.522
		C49.9,54.004,52.81,55,54.646,55h1.429h1.429c1.836,0,4.747-0.996,6.023-2.316l6.835-5.522l7.219-12.547
		c2.78,1.814,4.209,4.671,2.237,8.481l-3.848,9.839L66.075,65v15.714"/>
	<path class="st3" d="M56.075,35c3.435,0,5.714,2.741,5.714,6.122v2.042c0,3.381-2.279,6.122-5.714,6.122
		c-3.435,0-5.714-2.741-5.714-6.122v-2.042C50.361,37.741,52.64,35,56.075,35z"/>
	<path class="st2" d="M33.218,102.143v-3.81c0-6.292,7.647-7.619,12.857-7.619c5.211,0,12.857,1.327,12.857,7.619v3.81"/>
	<line class="st2" x1="56.075" y1="27.857" x2="56.075" y2="17.857"/>
	<line class="st2" x1="47.275" y1="30.021" x2="41.252" y2="23.998"/>
	<line class="st2" x1="64.875" y1="30.021" x2="70.898" y2="23.998"/>
	<path class="st2" d="M66.075,102.143V91.825c0-6.816,5.527-8.254,10-8.254h2.857c1.836,0,4.747-0.996,6.023-2.316l6.835-5.522
		l7.219-12.547c2.78,1.814,4.209,4.671,2.237,8.481l-3.848,9.839l-9.894,12.064v8.571"/>
	<path class="st3" d="M46.075,72.143c3.435,0,5.714,2.741,5.714,6.122v2.042c0,3.381-2.279,6.122-5.714,6.122
		c-3.435,0-5.714-2.741-5.714-6.122v-2.042C40.361,74.884,42.64,72.143,46.075,72.143z"/>
	<path class="st3" d="M77.504,63.571c3.435,0,5.714,2.741,5.714,6.122v2.042c0,3.381-2.279,6.122-5.714,6.122
		c-3.435,0-5.714-2.741-5.714-6.122v-2.042C71.789,66.312,74.068,63.571,77.504,63.571z"/>
	<g>
		<line class="st4" x1="97.504" y1="40.714" x2="94.646" y2="43.571"/>
		<line class="st4" x1="104.646" y1="33.571" x2="101.789" y2="36.429"/>
		<line class="st4" x1="101.789" y1="40.714" x2="104.646" y2="43.571"/>
		<line class="st4" x1="94.646" y1="33.571" x2="97.504" y2="36.429"/>
	</g>
	<g>
		<line class="st4" x1="88.932" y1="49.286" x2="88.932" y2="57.857"/>
		<line class="st4" x1="84.646" y1="53.571" x2="93.218" y2="53.571"/>
	</g>
</g>
</svg>
