<?xml version="1.0" encoding="utf-8"?>
<!-- Generator: Adobe Illustrator 24.0.2, SVG Export Plug-In . SVG Version: 6.00 Build 0)  -->
<svg version="1.1" id="Layer_1" xmlns="http://www.w3.org/2000/svg" xmlns:xlink="http://www.w3.org/1999/xlink" x="0px" y="0px"
	 viewBox="0 0 120 120" style="enable-background:new 0 0 120 120;" xml:space="preserve">
<style type="text/css">
	.st0{fill:#E9E9EA;}
	.st1{fill:none;stroke:#5A4B9F;stroke-width:3;stroke-miterlimit:10;}
	.st2{fill:#e6e3f2;}
	.st3{fill:#FFFFFF;stroke:#5A4B9F;stroke-width:3;stroke-miterlimit:10;}
</style>
<g>
	
		<ellipse transform="matrix(0.7071 -0.7071 0.7071 0.7071 -22.1412 70.4998)" class="st0" cx="74.03" cy="61.977" rx="35.72" ry="35.719"/>
	<path class="st1" d="M59.891,46.349l1.488-1.488c2.232-2.295,5.271-5.953,10.418-5.953h7.442c4.008,0,8.93,1.581,8.93,8.93v8.93
		c0,3.535-3.074,5.953-5.953,5.953"/>
	<polyline class="st1" points="68.821,58.256 68.821,49.326 67.333,49.326 64.356,52.303 	"/>
	<line class="st1" x1="82.216" y1="47.838" x2="82.216" y2="65.697"/>
	<path class="st1" d="M25.659,79.261c-3.615,5.534-5.767,12.11-5.909,19.179h72.884c-0.398-19.794-16.553-35.72-36.442-35.72
		c-2.296,0-4.542,0.212-6.72,0.618"/>
	<path class="st1" d="M34.59,98.441V94.72c0-2.055,1.688-3.721,3.743-3.721h10.418c2.055,0,3.699-1.666,3.699-3.721V85.79
		c0-2.055,1.677-3.721,3.732-3.721h-0.005c2.055,0,3.715-1.666,3.715-3.721V76.86c0-2.055-1.644-3.721-3.699-3.721h-6.719"/>
	<path class="st1" d="M83.704,76.116H71.819c-1.644,0-2.998,1.333-2.998,2.977v1.488c0,1.644,1.355,2.977,2.998,2.977h2.977
		c1.644,0,2.977,1.333,2.977,2.977l0,0c0,1.644-1.333,2.977-2.977,2.977h-7.442c-3.288,0-5.975,2.665-5.975,5.953v2.977"/>
	<rect x="30.125" y="47.838" class="st2" width="14.883" height="37.208"/>
	<path class="st2" d="M52.45,44.861c-2.559-2.87-5.271-5.953-10.418-5.953h-8.93c-4.008,0-8.93,1.581-8.93,8.93v10.418
		c0,3.535,3.074,5.953,5.953,5.953l14.883,20.837v-35.72h1.488c0,0,3.814,3.814,5.953,5.953c3.86,3.86,8.93,0,8.93,0
		S54.56,47.227,52.45,44.861z"/>
	<path class="st1" d="M45.008,85.046v-35.72h1.488c0,0,3.814,3.814,5.953,5.953c3.86,3.86,8.93,0,8.93,0s-6.82-8.052-8.93-10.418
		c-2.559-2.87-5.271-5.953-10.418-5.953h-8.93c-4.008,0-8.93,1.581-8.93,8.93v10.418c0,3.535,3.074,5.953,5.953,5.953"/>
	<line class="st1" x1="30.125" y1="47.838" x2="30.125" y2="85.046"/>
	<line class="st1" x1="37.566" y1="62.721" x2="37.566" y2="85.046"/>
	<path class="st3" d="M37.566,19.559c-3.165,0-5.918,2.458-5.953,5.953v2.977c-0.035,3.495,2.788,5.953,5.953,5.953
		c3.165,0,5.918-2.458,5.953-5.953v-2.977C43.554,22.017,40.731,19.559,37.566,19.559z"/>
	<path class="st3" d="M74.774,19.559c-3.165,0-5.918,2.458-5.953,5.953v2.977c-0.035,3.495,2.788,5.953,5.953,5.953
		c3.165,0,5.918-2.458,5.953-5.953v-2.977C80.762,22.017,77.939,19.559,74.774,19.559z"/>
</g>
</svg>
