<svg id="Layer_1" xmlns="http://www.w3.org/2000/svg" viewBox="0 0 120 120"><style>.st0{fill:#e9e9ea}.st1{fill:none;stroke:#5a4b9f;stroke-width:3;stroke-miterlimit:10}.st2{fill:#e6e3f2}.st3{fill:#fff;stroke:#5a4b9f;stroke-width:3;stroke-miterlimit:10}</style><ellipse transform="rotate(-45.001 74.03 61.978)" class="st0" cx="74.03" cy="61.977" rx="35.72" ry="35.719"/><path class="st1" d="M59.891 46.349l1.488-1.488c2.232-2.295 5.271-5.953 10.418-5.953h7.442c4.008 0 8.93 1.581 8.93 8.93v8.93c0 3.535-3.074 5.953-5.953 5.953"/><path class="st1" d="M68.821 58.256v-8.93h-1.488l-2.977 2.977M82.216 47.838v17.859M25.659 79.261A36.298 36.298 0 0 0 19.75 98.44h72.884c-.398-19.794-16.553-35.72-36.442-35.72-2.296 0-4.542.212-6.72.618"/><path class="st1" d="M34.59 98.441V94.72c0-2.055 1.688-3.721 3.743-3.721h10.418a3.702 3.702 0 0 0 3.699-3.721V85.79a3.73 3.73 0 0 1 3.732-3.721h-.005a3.716 3.716 0 0 0 3.715-3.721V76.86a3.702 3.702 0 0 0-3.699-3.721h-6.719M83.704 76.116H71.819c-1.644 0-2.998 1.333-2.998 2.977v1.488c0 1.644 1.355 2.977 2.998 2.977h2.977a2.977 2.977 0 0 1 0 5.954h-7.442c-3.288 0-5.975 2.665-5.975 5.953v2.977"/><path class="st2" d="M30.125 47.838h14.883v37.208H30.125z"/><path class="st2" d="M52.45 44.861c-2.559-2.87-5.271-5.953-10.418-5.953h-8.93c-4.008 0-8.93 1.581-8.93 8.93v10.418c0 3.535 3.074 5.953 5.953 5.953l14.883 20.837v-35.72h1.488l5.953 5.953c3.86 3.86 8.93 0 8.93 0s-6.819-8.052-8.929-10.418z"/><path class="st1" d="M45.008 85.046v-35.72h1.488l5.953 5.953c3.86 3.86 8.93 0 8.93 0s-6.82-8.052-8.93-10.418c-2.559-2.87-5.271-5.953-10.418-5.953h-8.93c-4.008 0-8.93 1.581-8.93 8.93v10.418c0 3.535 3.074 5.953 5.953 5.953M30.125 47.838v37.208M37.566 62.721v22.325"/><path class="st3" d="M37.566 19.559c-3.165 0-5.918 2.458-5.953 5.953v2.977c-.035 3.495 2.788 5.953 5.953 5.953 3.165 0 5.918-2.458 5.953-5.953v-2.977c.035-3.495-2.788-5.953-5.953-5.953zM74.774 19.559c-3.165 0-5.918 2.458-5.953 5.953v2.977c-.035 3.495 2.788 5.953 5.953 5.953 3.165 0 5.918-2.458 5.953-5.953v-2.977c.035-3.495-2.788-5.953-5.953-5.953z"/></svg>