<svg id="Layer_1" xmlns="http://www.w3.org/2000/svg" viewBox="0 0 120 120"><style>.st0{fill:#e9e9ea}.st1{fill:#fff}.st2{fill:#e6e3f2}.st3{fill:none;stroke-linecap:round;stroke-linejoin:round}.st3,.st4,.st5,.st6{stroke:#5a4b9f;stroke-width:3;stroke-miterlimit:10}.st4{stroke-linecap:round;fill:none}.st5,.st6{fill:#fff}.st6{fill:none;stroke:#bdc0c4;stroke-width:2}</style><circle class="st0" cx="43.071" cy="44.639" r="28.571"/><circle class="st1" cx="68.786" cy="60.354" r="35.714"/><path class="st2" d="M35.929 83.211c-5.781 0-12.857 4.245-12.857 7.143v7.143c0 2.898 7.076 7.143 12.857 7.143 5.782 0 12.857-4.245 12.857-7.143v-7.143c0-2.899-7.076-7.143-12.857-7.143z"/><path class="st3" d="M83.071 48.925L68.786 63.211l-8.572-8.572M68.786 36.068v4.286M93.071 60.354h-4.285M68.786 84.639v-4.285"/><path class="st4" d="M48.786 97.496v-7.143c0-2.898-7.075-7.143-12.857-7.143-5.781 0-12.857 4.245-12.857 7.143v7.143"/><path class="st5" d="M35.929 66.068c-3.693 0-7.143 2.764-7.143 6.173v4.798c0 3.409 3.45 6.173 7.143 6.173 3.693 0 7.143-2.764 7.143-6.173v-4.798c-.001-3.41-3.45-6.173-7.143-6.173z"/><path class="st3" d="M33.071 60.354c0-19.724 15.99-35.714 35.714-35.714S104.5 40.629 104.5 60.354 88.51 96.068 68.786 96.068a35.595 35.595 0 0 1-14.201-2.935"/><path class="st3" d="M40.214 60.354c0-15.78 12.792-28.571 28.571-28.571 15.78 0 28.571 12.792 28.571 28.571s-12.791 28.571-28.57 28.571A28.44 28.44 0 0 1 51.64 83.21"/><path class="st6" d="M33.071 23.211l-2.857 2.857M40.214 16.068l-2.857 2.857M37.357 23.211l2.857 2.857M30.214 16.068l2.857 2.857"/><g><path class="st6" d="M24.5 31.782v8.572M20.214 36.068h8.572"/></g></svg>