<?xml version="1.0" encoding="utf-8"?>
<!-- Generator: Adobe Illustrator 24.0.2, SVG Export Plug-In . SVG Version: 6.00 Build 0)  -->
<svg version="1.1" id="Layer_1" xmlns="http://www.w3.org/2000/svg" xmlns:xlink="http://www.w3.org/1999/xlink" x="0px" y="0px"
	 viewBox="0 0 448.19 334.733" style="enable-background:new 0 0 448.19 334.733;" xml:space="preserve">
<style type="text/css">
	.st0{opacity:0.1;}
	.st1{fill:#5A4B9F;}
	.st2{opacity:0.3;}
	.st3{fill:#FFFFFF;}
	.st4{font-family:'ArialMT';}
	.st5{font-size:15px;}
	.st6{fill:#DB3E58;}
</style>
<g id="BACKGROUND">
</g>
<g class="st0">
	<polygon class="st1" points="428.19,57.713 20,57.713 0,0 448.19,0 	"/>
	<polygon class="st1" points="408.19,126.968 40,126.968 20,69.255 428.19,69.255 	"/>
	<polygon class="st1" points="388.19,196.223 60,196.223 40,138.51 408.19,138.51 	"/>
	<polygon class="st1" points="368.19,265.478 80,265.478 60,207.765 388.19,207.765 	"/>
	<polygon class="st1" points="348.19,334.733 100,334.733 80,277.02 368.19,277.02 	"/>
</g>
<g class="st2">
	<polygon class="st1" points="415.266,57.713 32.924,57.713 14.19,0 434,0 	"/>
	<polygon class="st1" points="396.533,126.968 51.657,126.968 32.924,69.255 415.266,69.255 	"/>
	<polygon class="st1" points="377.799,196.223 70.391,196.223 51.657,138.51 396.533,138.51 	"/>
	<polygon class="st1" points="359.066,265.478 89.124,265.478 70.391,207.765 377.799,207.765 	"/>
	<polygon class="st1" points="340.332,334.733 107.858,334.733 89.124,277.02 359.066,277.02 	"/>
</g>
<polygon class="st1" points="401.605,57.713 46.585,57.713 29.19,0 419,0 "/>
<polygon class="st1" points="384.21,126.968 63.98,126.968 46.585,69.255 401.605,69.255 "/>
<polygon class="st1" points="366.815,196.223 81.375,196.223 63.98,138.51 384.21,138.51 "/>
<polygon class="st1" points="349.421,265.478 98.769,265.478 81.375,207.765 366.815,207.765 "/>
<polygon class="st1" points="332.026,334.733 116.164,334.733 98.769,277.02 349.421,277.02 "/>
<text transform="matrix(1 0 0 1 140.7195 32.857)" class="st3 st4 st5">Initial Resume Screening</text>
<text transform="matrix(1 0 0 1 106.9444 102.112)" class="st3 st4 st5">Soft skills and experience scanning</text>
<text transform="matrix(1 0 0 1 150.3104 171.3671)" class="st3 st4 st5">Technical Assessment</text>
<text transform="matrix(1 0 0 1 142.3791 240.6225)" class="st3 st4 st5">Interview and Evaluation</text>
<text transform="matrix(1 0 0 1 206.173 309.8773)" class="st3 st4 st5">Hired</text>
<g>
	<circle class="st6" cx="67.946" cy="28.856" r="14.428"/>
	<g>
		<path class="st3" d="M69.148,34.856H67.68v-9.351c-0.353,0.337-0.816,0.674-1.39,1.011c-0.574,0.337-1.088,0.59-1.545,0.758
			v-1.418c0.821-0.386,1.538-0.853,2.152-1.402c0.614-0.549,1.049-1.081,1.304-1.598h0.946V34.856z"/>
	</g>
</g>
<g>
	<circle class="st6" cx="85.375" cy="98.111" r="14.428"/>
	<g>
		<path class="st3" d="M89.325,102.701v1.41h-7.899c-0.011-0.353,0.046-0.693,0.171-1.019c0.201-0.538,0.523-1.068,0.966-1.59
			c0.443-0.522,1.083-1.125,1.92-1.81c1.299-1.065,2.177-1.909,2.633-2.531c0.457-0.622,0.685-1.211,0.685-1.765
			c0-0.582-0.208-1.072-0.624-1.471c-0.416-0.399-0.958-0.599-1.626-0.599c-0.706,0-1.272,0.212-1.696,0.636
			c-0.424,0.424-0.639,1.011-0.644,1.761l-1.508-0.155c0.103-1.125,0.492-1.982,1.166-2.572c0.674-0.59,1.579-0.885,2.715-0.885
			c1.147,0,2.054,0.318,2.723,0.954s1.003,1.424,1.003,2.364c0,0.478-0.098,0.949-0.293,1.41c-0.196,0.462-0.521,0.949-0.974,1.459
			s-1.208,1.212-2.262,2.103c-0.88,0.739-1.446,1.24-1.696,1.504c-0.25,0.264-0.457,0.529-0.62,0.795H89.325z"/>
	</g>
</g>
<g>
	<circle class="st6" cx="103.213" cy="167.367" r="14.428"/>
	<g>
		<path class="st3" d="M99.368,170.058l1.442-0.192c0.165,0.817,0.447,1.406,0.845,1.766c0.398,0.36,0.882,0.541,1.454,0.541
			c0.678,0,1.251-0.235,1.718-0.705c0.467-0.47,0.701-1.052,0.701-1.746c0-0.662-0.216-1.208-0.649-1.638
			c-0.433-0.43-0.983-0.645-1.65-0.645c-0.272,0-0.612,0.053-1.017,0.16l0.16-1.266c0.096,0.011,0.173,0.016,0.232,0.016
			c0.614,0,1.167-0.16,1.658-0.481c0.491-0.32,0.737-0.814,0.737-1.482c0-0.529-0.179-0.966-0.537-1.314
			c-0.358-0.347-0.82-0.521-1.386-0.521c-0.561,0-1.028,0.176-1.402,0.529c-0.374,0.352-0.614,0.881-0.721,1.586l-1.442-0.256
			c0.176-0.966,0.577-1.715,1.202-2.247s1.402-0.797,2.331-0.797c0.641,0,1.231,0.137,1.77,0.413c0.54,0.275,0.952,0.65,1.238,1.126
			c0.286,0.475,0.429,0.98,0.429,1.514c0,0.507-0.136,0.969-0.409,1.386c-0.272,0.417-0.676,0.748-1.21,0.993
			c0.694,0.16,1.234,0.493,1.618,0.997c0.385,0.505,0.577,1.136,0.577,1.895c0,1.025-0.374,1.895-1.121,2.607
			s-1.693,1.069-2.836,1.069c-1.031,0-1.887-0.307-2.567-0.921C99.852,171.831,99.464,171.035,99.368,170.058z"/>
	</g>
</g>
<g>
	<circle class="st6" cx="120.733" cy="236.622" r="14.428"/>
	<g>
		<path class="st3" d="M121.766,242.493v-2.812h-5.095v-1.322l5.359-7.61h1.178v7.61h1.586v1.322h-1.586v2.812H121.766z
			 M121.766,238.36v-5.295l-3.677,5.295H121.766z"/>
	</g>
</g>
<g>
	<circle class="st6" cx="138.931" cy="305.877" r="14.428"/>
	<g>
		<path class="st3" d="M135.037,308.492l1.514-0.128c0.112,0.737,0.372,1.291,0.781,1.662c0.409,0.371,0.901,0.557,1.478,0.557
			c0.694,0,1.282-0.262,1.762-0.785c0.481-0.523,0.721-1.218,0.721-2.083c0-0.822-0.231-1.471-0.693-1.947s-1.067-0.713-1.814-0.713
			c-0.465,0-0.884,0.105-1.258,0.316s-0.668,0.485-0.881,0.821l-1.354-0.176l1.138-6.032h5.84v1.378h-4.686l-0.633,3.156
			c0.705-0.491,1.445-0.737,2.219-0.737c1.025,0,1.891,0.355,2.595,1.065c0.705,0.71,1.057,1.623,1.057,2.74
			c0,1.063-0.31,1.981-0.929,2.756c-0.753,0.95-1.781,1.426-3.084,1.426c-1.068,0-1.94-0.299-2.615-0.897
			C135.519,310.273,135.133,309.48,135.037,308.492z"/>
	</g>
</g>
</svg>
