<?xml version="1.0" encoding="utf-8"?>
<!-- Generator: Adobe Illustrator 24.0.2, SVG Export Plug-In . SVG Version: 6.00 Build 0)  -->
<svg version="1.1" id="Layer_1" xmlns="http://www.w3.org/2000/svg" xmlns:xlink="http://www.w3.org/1999/xlink" x="0px" y="0px"
	 viewBox="0 0 120 120" style="enable-background:new 0 0 120 120;" xml:space="preserve">
<style type="text/css">
	.st0{fill:#E9E9EA;}
	.st1{fill:#FFFFFF;stroke:#5A4B9F;stroke-width:3;stroke-miterlimit:10;}
	.st2{fill:#FFFFFF;}
	.st3{fill:none;stroke:#5A4B9F;stroke-width:3;stroke-miterlimit:10;}
	.st4{fill:#e6e3f2;}
</style>
<g>
	<ellipse transform="matrix(0.7071 -0.7071 0.7071 0.7071 -19.9785 51.7678)" class="st0" cx="52.5" cy="50" rx="36" ry="36"/>
	<path class="st1" d="M84.75,43.542c-4.021,0-6.75-3.29-6.75-7.348v-2.413c0-4.058,2.729-7.348,6.75-7.348
		c4.021,0,6.75,3.29,6.75,7.348v2.413C91.5,40.252,88.771,43.542,84.75,43.542z"/>
	<path class="st2" d="M91.5,48.5h-15c-5.254,0-7.815,5.4-8.576,6.9c-0.762,1.5-2.484,5.1-2.484,5.1L75,66.744V104h18V78.5h1.438
		c3.348,0,6.062-2.673,6.062-5.971V59.3C100.5,53.15,96.161,48.5,91.5,48.5z"/>
	<path class="st3" d="M65.44,60.5c0,0,1.723-3.6,2.484-5.1c0.762-1.5,3.322-6.9,8.576-6.9h15c4.661,0,9,4.65,9,10.8v13.229
		c0,3.298-2.714,5.971-6.062,5.971H93"/>
	<polyline class="st3" points="75,104 75,61.767 67.603,70.296 	"/>
	<line class="st3" x1="93" y1="59" x2="93" y2="104"/>
	<line class="st3" x1="84" y1="78.5" x2="84" y2="104"/>
	<path class="st1" d="M40.5,43.542c4.021,0,7.5-3.29,7.5-7.348v-2.413c0-4.058-3.479-7.348-7.5-7.348c-4.021,0-7.5,3.29-7.5,7.348
		v2.413C33,40.252,36.479,43.542,40.5,43.542z"/>
	<path class="st4" d="M59.074,58.111C56.875,55.125,53.607,48.5,46.5,48.5h-12C29.839,48.5,24,52.756,24,59v12
		c0,3.348,4.152,7.5,7.5,7.5V104h18V62l10.205,10.138c1.67,1.673,4.38,1.675,6.052,0.003l1.846-1.846
		C67.603,70.296,61.26,61.08,59.074,58.111z"/>
	<path class="st3" d="M49.5,104V62l10.205,10.138c1.67,1.673,4.38,1.675,6.052,0.003l1.846-1.846c0,0-6.343-9.215-8.529-12.184
		C56.875,55.125,53.607,48.5,46.5,48.5h-12C29.839,48.5,24,52.756,24,59v12c0,3.348,4.152,7.5,7.5,7.5"/>
	<line class="st3" x1="31.5" y1="59" x2="31.5" y2="104"/>
	<line class="st3" x1="40.5" y1="78.5" x2="40.5" y2="104"/>
</g>
</svg>
