<?xml version="1.0" encoding="utf-8"?>
<!-- Generator: Adobe Illustrator 24.0.2, SVG Export Plug-In . SVG Version: 6.00 Build 0)  -->
<svg version="1.1" id="Layer_1" xmlns="http://www.w3.org/2000/svg" xmlns:xlink="http://www.w3.org/1999/xlink" x="0px" y="0px"
	 viewBox="0 0 120 120" style="enable-background:new 0 0 120 120;" xml:space="preserve">
<style type="text/css">
	.st0{fill:#E9EAEB;}
	.st1{fill:#e6e3f2;}
	.st2{fill:none;stroke:#5A4B9F;stroke-width:3;stroke-linecap:round;stroke-linejoin:round;stroke-miterlimit:10;}
	.st3{fill:#FFFFFF;stroke:#5A4B9F;stroke-width:3;stroke-miterlimit:10;}
</style>
<g>
	<circle class="st0" cx="59.683" cy="60.042" r="29.48"/>
	<path class="st1" d="M59.687,87.97c-5.58,0-12.417,3.932-12.417,6.206v4.655c0,2.274,6.837,6.206,12.417,6.206
		s12.417-3.932,12.417-6.206v-4.655C72.105,91.902,65.268,87.97,59.687,87.97z"/>
	<path class="st2" d="M72.105,98.831v-4.655c0-2.274-6.837-6.206-12.417-6.206s-12.417,3.932-12.417,6.206v4.655"/>
	<path class="st3" d="M59.682,87.97c4.664,0,7.758-3.87,7.758-8.644v-2.883c0-4.774-3.093-8.644-7.758-8.644
		c-4.664,0-7.758,3.87-7.758,8.644v2.883C51.925,84.1,55.018,87.97,59.682,87.97z"/>
	<path class="st1" d="M59.687,35.217c-5.58,0-12.417,3.932-12.417,6.206v4.655c0,2.274,6.837,6.206,12.417,6.206
		s12.417-3.932,12.417-6.206v-4.655C72.105,39.149,65.268,35.217,59.687,35.217z"/>
	<path class="st2" d="M72.105,46.078v-4.655c0-2.274-6.837-6.206-12.417-6.206s-12.417,3.932-12.417,6.206v4.655"/>
	<path class="st3" d="M59.682,35.217c4.664,0,7.758-3.87,7.758-8.644V23.69c0-4.774-3.093-8.644-7.758-8.644
		c-4.664,0-7.758,3.87-7.758,8.644v2.883C51.925,31.347,55.018,35.217,59.682,35.217z"/>
	<path class="st1" d="M92.27,63.145c-5.58,0-12.417,3.932-12.417,6.206v4.655c0,2.274,6.837,6.206,12.417,6.206
		s12.417-3.932,12.417-6.206v-4.655C104.688,67.077,97.85,63.145,92.27,63.145z"/>
	<path class="st2" d="M104.688,74.006v-4.655c0-2.274-6.837-6.206-12.417-6.206s-12.417,3.932-12.417,6.206v4.655"/>
	<path class="st3" d="M92.265,63.145c4.664,0,7.758-3.87,7.758-8.644v-2.883c0-4.774-3.093-8.644-7.758-8.644
		c-4.664,0-7.758,3.87-7.758,8.644v2.883C84.508,59.275,87.601,63.145,92.265,63.145z"/>
	<path class="st1" d="M27.105,63.145c-5.58,0-12.417,3.932-12.417,6.206v4.655c0,2.274,6.837,6.206,12.417,6.206
		s12.417-3.932,12.417-6.206v-4.655C39.522,67.077,32.685,63.145,27.105,63.145z"/>
	<path class="st2" d="M39.522,74.006v-4.655c0-2.274-6.837-6.206-12.417-6.206s-12.417,3.932-12.417,6.206v4.655"/>
	<path class="st3" d="M27.1,63.145c4.664,0,7.758-3.87,7.758-8.644v-2.883c0-4.774-3.093-8.644-7.758-8.644
		c-4.664,0-7.758,3.87-7.758,8.644v2.883C19.342,59.275,22.436,63.145,27.1,63.145z"/>
	<path class="st2" d="M89.579,82.246c-3.365,4.524-7.733,8.257-12.774,10.872"/>
	<path class="st2" d="M72.107,24.927c7.222,2.556,13.422,7.276,17.817,13.382"/>
	<path class="st2" d="M29.808,82.246c3.365,4.524,7.733,8.257,12.774,10.872"/>
	<path class="st2" d="M47.28,24.927c-7.222,2.556-13.421,7.276-17.817,13.382"/>
</g>
</svg>
