<?xml version="1.0" encoding="utf-8"?>
<!-- Generator: Adobe Illustrator 24.0.2, SVG Export Plug-In . SVG Version: 6.00 Build 0)  -->
<svg version="1.1" id="Layer_1" xmlns="http://www.w3.org/2000/svg" xmlns:xlink="http://www.w3.org/1999/xlink" x="0px" y="0px"
	 viewBox="0 0 120 120" style="enable-background:new 0 0 120 120;" xml:space="preserve">
<style type="text/css">
	.st0{fill:#E9E9EA;}
	.st1{fill:#e6e3f2;}
	.st2{fill:#FFFFFF;}
	.st3{fill:none;stroke:#5A4B9F;stroke-width:3;stroke-miterlimit:10;}
	.st4{fill:#FFFFFF;stroke:#5A4B9F;stroke-width:3;stroke-miterlimit:10;}
	.st5{fill:none;stroke:#BDC0C4;stroke-width:2;stroke-miterlimit:10;}
</style>
<g>
	
		<ellipse transform="matrix(0.7071 -0.7071 0.7071 0.7071 -19.1496 54.8936)" class="st0" cx="56.688" cy="50.562" rx="36.563" ry="36.563"/>
	<path class="st1" d="M35.594,47.75c-5.862,0-15.469,2.812-15.469,9.844v15.469c0,3.254,3.384,7.031,7.031,7.031V104h16.875V80.094
		c3.58,0,7.031-3.81,7.031-7.031V56.113C51.062,50.588,41.456,47.75,35.594,47.75z"/>
	<path class="st2" d="M77.781,47.75c-5.862,0-15.469,2.838-15.469,8.363v16.949c0,3.222,3.452,7.031,7.031,7.031V104h16.875V80.094
		c3.647,0,7.031-3.778,7.031-7.031V57.594C93.25,50.562,83.643,47.75,77.781,47.75z"/>
	<path class="st3" d="M27.156,80.094c-3.647,0-7.031-3.778-7.031-7.031V57.594c0-7.031,9.607-9.844,15.469-9.844
		c5.862,0,15.469,2.838,15.469,8.364v1.48"/>
	<line class="st3" x1="27.156" y1="59" x2="27.156" y2="104"/>
	<line class="st3" x1="35.594" y1="77.281" x2="35.594" y2="104"/>
	<path class="st3" d="M44.031,104V80.094c3.58,0,7.031-3.81,7.031-7.031v-5.625h26.719"/>
	<path class="st3" d="M86.219,80.094c3.647,0,7.031-3.778,7.031-7.031V57.594c0-7.031-9.607-9.844-15.469-9.844
		c-5.862,0-15.469,2.838-15.469,8.364v5.699H35.594"/>
	<line class="st3" x1="86.219" y1="59" x2="86.219" y2="104"/>
	<line class="st3" x1="77.781" y1="77.281" x2="77.781" y2="104"/>
	<path class="st3" d="M69.344,104V80.094c-3.58,0-7.031-3.81-7.031-7.031v-1.406"/>
	<polyline class="st3" points="72.156,73.062 77.781,67.438 72.156,61.812 	"/>
	<polyline class="st3" points="41.219,67.438 35.594,61.812 41.219,56.188 	"/>
	<path class="st4" d="M35.594,43.531c4.097,0,7.031-2.756,7.031-6.75v-3.375c0-3.994-2.934-6.75-7.031-6.75
		c-4.097,0-7.031,2.756-7.031,6.75v3.375C28.562,40.775,31.497,43.531,35.594,43.531z"/>
	<path class="st4" d="M77.781,43.531c4.097,0,7.031-2.756,7.031-6.75v-3.375c0-3.994-2.934-6.75-7.031-6.75
		c-4.097,0-7.031,2.756-7.031,6.75v3.375C70.75,40.775,73.684,43.531,77.781,43.531z"/>
	<g>
		<line class="st5" x1="60.906" y1="22.438" x2="58.094" y2="25.25"/>
		<line class="st5" x1="67.938" y1="15.406" x2="65.125" y2="18.219"/>
		<line class="st5" x1="65.125" y1="22.438" x2="67.938" y2="25.25"/>
		<line class="st5" x1="58.094" y1="15.406" x2="60.906" y2="18.219"/>
	</g>
	<g>
		<line class="st5" x1="52.469" y1="30.875" x2="52.469" y2="39.312"/>
		<line class="st5" x1="48.25" y1="35.094" x2="56.688" y2="35.094"/>
	</g>
	<g>
		<line class="st5" x1="94.656" y1="36.5" x2="94.656" y2="44.938"/>
		<line class="st5" x1="90.438" y1="40.719" x2="98.875" y2="40.719"/>
	</g>
</g>
</svg>
