<?xml version="1.0" encoding="utf-8"?>
<!-- Generator: Adobe Illustrator 24.0.2, SVG Export Plug-In . SVG Version: 6.00 Build 0)  -->
<svg version="1.1" id="Layer_1" xmlns="http://www.w3.org/2000/svg" xmlns:xlink="http://www.w3.org/1999/xlink" x="0px" y="0px"
	 viewBox="0 0 120 120" style="enable-background:new 0 0 120 120;" xml:space="preserve">
<style type="text/css">
	.st0{fill:#E9E9EA;}
	.st1{fill:#FFFFFF;}
	.st2{fill:#e6e3f2;stroke:#5A4B9F;stroke-width:3;stroke-linecap:round;stroke-linejoin:round;stroke-miterlimit:10;}
	.st3{fill:none;stroke:#5A4B9F;stroke-width:3;stroke-linecap:round;stroke-linejoin:round;stroke-miterlimit:10;}
	.st4{fill:none;stroke:#BDC0C4;stroke-width:2;stroke-miterlimit:10;}
</style>
<g>
	<circle class="st0" cx="59" cy="61.213" r="41.311"/>
	<path class="st1" d="M91.23,94.054c0.516-1.248,0.805-2.611,0.805-4.042c0-5.925-4.869-10.728-10.876-10.728
		c-1.904,0-3.692,0.486-5.249,1.333c-0.162-4.19-4.877-8.155-9.533-7.602V62.689H51.623v11.803
		c-5.348-2.705-12.567,2.779-12.567,7.65c0,0.053,0.007,0.105,0.008,0.158c-0.638-0.129-1.299-0.198-1.976-0.198
		c-5.399,0-9.776,4.317-9.776,9.642c0,1.583,0.395,3.073,1.08,4.391l0.027,0.045c-2.89,1.685-4.828,4.268-4.828,7.819h73.702
		C99.067,98.513,95.009,94.433,91.23,94.054z"/>
	<path class="st2" d="M59,14c2.431,0,7.377,6.776,7.377,16.23v16.23l7.377,7.377l-1.475,5.902l-7.921-3.61L59,64.164l-5.358-8.036
		l-7.921,3.61l-1.475-5.902l7.377-7.377V30.23C51.623,20.776,56.569,14,59,14z"/>
	<line class="st3" x1="59" y1="33.18" x2="59" y2="37.607"/>
	<path class="st3" d="M97.292,104c1.774-5.487-2.283-9.568-6.062-9.946c0.516-1.248,0.805-2.611,0.805-4.042
		c0-5.925-4.869-10.728-10.876-10.728c-1.904,0-3.692,0.486-5.249,1.333c-0.162-4.19-4.877-8.155-9.533-7.602V62.689"/>
	<path class="st3" d="M23.59,104c0-3.551,1.938-6.134,4.828-7.819l-0.027-0.045c-0.685-1.318-1.08-2.808-1.08-4.391
		c0-5.325,4.377-9.642,9.776-9.642c0.677,0,1.338,0.068,1.976,0.198c-0.001-0.053-0.008-0.104-0.008-0.158
		c0-4.872,7.219-10.355,12.567-7.65V62.689"/>
	<path class="st3" d="M54.651,104c0-5.288,4.346-9.574,9.707-9.573"/>
	<path class="st3" d="M57.489,97.237c-0.825-2.811-4.268-4.549-6.973-3.804"/>
	<path class="st3" d="M91.219,94.05c-0.917,2.089-2.497,3.829-4.479,4.96"/>
	<path class="st3" d="M70.39,89.855c0-3.976,2.227-7.44,5.517-9.244"/>
	<path class="st3" d="M45.26,86.541c-1.377-2.143-3.596-3.707-6.198-4.24"/>
	<line class="st4" x1="32.443" y1="46.459" x2="32.443" y2="62.689"/>
	<line class="st4" x1="32.443" y1="65.639" x2="32.443" y2="68.59"/>
	<line class="st4" x1="81.131" y1="39.082" x2="81.131" y2="55.311"/>
	<line class="st4" x1="81.131" y1="58.262" x2="81.131" y2="61.213"/>
	<line class="st4" x1="87.033" y1="49.41" x2="87.033" y2="65.639"/>
	<line class="st4" x1="87.033" y1="68.59" x2="87.033" y2="71.541"/>
</g>
</svg>
