<?xml version="1.0" encoding="utf-8"?>
<!-- Generator: Adobe Illustrator 24.0.2, SVG Export Plug-In . SVG Version: 6.00 Build 0)  -->
<svg version="1.1" id="Layer_1" xmlns="http://www.w3.org/2000/svg" xmlns:xlink="http://www.w3.org/1999/xlink" x="0px" y="0px"
	 viewBox="0 0 120 120" style="enable-background:new 0 0 120 120;" xml:space="preserve">
<style type="text/css">
	.st0{fill:none;stroke:#5A4B9F;stroke-width:3;stroke-miterlimit:10;}
	.st1{fill:none;stroke:#BCC0C4;stroke-width:2;stroke-miterlimit:10;}
	.st2{fill:#FFFFFF;stroke:#5A4B9F;stroke-width:3;stroke-miterlimit:10;}
	.st3{fill:#E9EAEB;stroke:#5A4B9F;stroke-width:3;stroke-miterlimit:10;}
	.st4{fill:#e6e3f2;stroke:#5A4B9F;stroke-width:3;stroke-miterlimit:10;}
</style>
<g>
	<line class="st0" x1="23.259" y1="101.269" x2="94.688" y2="101.269"/>
	<polyline class="st1" points="80.402,58.412 80.402,55.555 73.259,46.983 73.259,44.126 	"/>
	<polyline class="st1" points="66.116,58.412 66.116,55.555 63.259,46.983 63.259,44.126 	"/>
	<polyline class="st1" points="37.545,58.412 37.545,55.555 44.688,46.983 44.688,44.126 	"/>
	<polyline class="st1" points="51.83,58.412 51.83,55.555 54.688,46.983 54.688,44.126 	"/>
	<rect x="28.973" y="59.84" class="st2" width="60" height="41.429"/>
	<rect x="28.973" y="68.412" class="st3" width="20" height="32.857"/>
	<line class="st0" x1="43.259" y1="84.126" x2="43.259" y2="89.84"/>
	<line class="st0" x1="84.011" y1="84.779" x2="72.404" y2="96.386"/>
	<line class="st0" x1="84.011" y1="91.664" x2="79.289" y2="96.386"/>
	<rect x="37.545" y="34.126" class="st3" width="42.857" height="10"/>
	<path class="st4" d="M23.259,58.412v8.571c0,3.704,3.442,7.143,7.143,7.143c3.7,0,7.143-3.439,7.143-7.143
		c0,3.704,3.442,7.143,7.143,7.143c3.7,0,7.143-3.439,7.143-7.143c0,3.704,3.442,7.143,7.143,7.143c3.7,0,7.143-3.439,7.143-7.143
		c0,3.704,3.442,7.143,7.143,7.143c3.7,0,7.143-3.439,7.143-7.143c0,3.704,3.442,7.143,7.143,7.143c3.7,0,7.143-3.439,7.143-7.143
		v-8.571C94.689,58.412,23.259,58.412,23.259,58.412z"/>
	<polygon class="st0" points="80.402,44.126 37.545,44.126 23.259,55.037 23.259,58.412 94.688,58.412 94.688,55.037 	"/>
	<line class="st0" x1="37.545" y1="64.126" x2="37.545" y2="66.983"/>
	<line class="st0" x1="51.83" y1="64.126" x2="51.83" y2="66.983"/>
	<line class="st0" x1="66.116" y1="64.126" x2="66.116" y2="66.983"/>
	<line class="st0" x1="80.402" y1="64.126" x2="80.402" y2="66.983"/>
	<line class="st0" x1="20.402" y1="101.269" x2="16.116" y2="101.269"/>
	<line class="st0" x1="101.83" y1="101.269" x2="97.545" y2="101.269"/>
	<g>
		<path class="st1" d="M58.973,25.555h-7.001c-0.731-1.429-2.45-2.901-4.456-2.901c-0.636,0-1.242,0.151-1.798,0.374
			c-1.117-2.978-3.982-5.213-7.35-5.213c-4.334,0-7.848,4.883-7.856,7.74h-10.11"/>
		<line class="st1" x1="103.259" y1="34.126" x2="91.83" y2="34.126"/>
		<path class="st1" d="M104.688,25.555h-2.82c-0.988-2.857-3.038-3.569-5.496-3.271C95.3,20.438,93.325,19.3,91.037,19.3
			c-3.4,0-6.155,1.969-6.184,6.255h-7.308"/>
		<line class="st1" x1="74.688" y1="25.555" x2="71.83" y2="25.555"/>
		<line class="st1" x1="68.973" y1="25.555" x2="66.116" y2="25.555"/>
		<line class="st1" x1="17.545" y1="25.555" x2="14.688" y2="25.555"/>
		<line class="st1" x1="88.973" y1="34.126" x2="86.116" y2="34.126"/>
		<line class="st1" x1="33.259" y1="38.412" x2="26.116" y2="38.412"/>
		<line class="st1" x1="23.259" y1="38.412" x2="20.402" y2="38.412"/>
		<line class="st1" x1="17.545" y1="38.412" x2="14.688" y2="38.412"/>
	</g>
</g>
</svg>
