<svg xmlns="http://www.w3.org/2000/svg" viewBox="0 0 3219.66 537"><style>.primary{fill:#5a4b9f}.secondary{fill:#fff}</style><path class="primary" d="M304.872 537H0l62.503-357C79.908 80.589 189.991 0 308.381 0h304.872L550.75 357c-17.405 99.411-127.488 180-245.878 180z"/><path class="secondary" d="M156.17 446.278h-28.948l17.633-100h113.486l-2.726 15.461c-8.232 46.69-52.755 84.539-99.445 84.539zM271.926 322.01H148.785l17.633-100h207.68l-2.726 15.461c-8.233 46.69-52.756 84.539-99.446 84.539zM387.357 197.743H170.022l2.726-15.461c8.233-46.689 52.756-84.539 99.445-84.539h217.335l-2.726 15.461c-8.233 46.69-52.756 84.539-99.445 84.539z"/><g><path class="secondary" d="M727.704 402.72l40.995-60.554c32.139 24.686 64.283 29.348 89.438 29.348 29.349 0 52.637-7.922 52.637-25.619 0-13.978-17.233-19.564-46.117-27.951l-15.835-4.658c-54.968-16.304-94.101-39.597-94.101-89.438 0-75.465 66.614-127.169 152.793-127.169 44.719 0 86.179 13.509 120.649 41.455l-47.515 62.89c-23.757-18.171-47.979-25.155-74.068-25.155-27.017 0-51.239 9.78-51.239 25.155 0 13.04 17.238 18.631 44.719 26.548l14.906 4.193c48.913 13.978 96.427 43.321 96.427 98.289 0 71.736-70.343 120.654-155.589 120.654-53.098.001-96.889-18.639-128.1-47.988zM1040.241 339.371c0-89.438 69.874-154.186 162.573-154.186 78.261 0 126.704 43.321 126.704 111.334 0 89.438-68.941 154.191-162.104 154.191-77.796-.001-127.173-43.791-127.173-111.339zm193.784-29.813c0-27.946-16.304-44.719-43.321-44.719-31.675 0-54.968 31.211-54.968 61.023 0 27.951 16.304 45.188 44.255 45.188 30.745 0 54.034-31.21 54.034-61.492zM1408.68 82.702h93.163l-50.775 286.946h42.393l-13.978 76.399h-135.086l64.283-363.345zM1560.985 189.842h93.167l-45.653 256.204h-93.163l45.649-256.204zm5.591-66.145c0-32.608 23.293-58.697 57.294-58.697 29.348 0 48.453 19.569 48.453 47.05 0 32.608-22.829 58.692-56.835 58.692-29.813.001-48.912-19.563-48.912-47.045zM1994.654 82.702l-64.288 363.345h-89.903l2.796-21.426c-18.631 17.238-41.924 26.089-69.415 26.089-61.019 0-105.738-42.862-105.738-109.472 0-83.852 63.35-156.053 141.142-156.053 31.68 0 54.035 12.111 68.477 32.144l23.757-134.627h93.172zm-134.632 237.105v-.464c.474-2.796.938-6.055.938-8.851 0-30.277-16.309-45.653-43.326-45.653-31.206 0-54.034 30.746-54.034 61.492 0 27.946 16.299 44.719 43.326 44.719 26.543 0 47.515-21.89 53.096-51.243zM2133.9 180.527l-10.718 61.488h118.323l-13.978 79.19H2108.75l-21.9 124.842h-95.958l61.019-344.709h240.369l-13.978 79.19-144.402-.001zM2268.503 339.371c0-89.438 69.87-154.186 162.568-154.186 78.256 0 126.709 43.321 126.709 111.334 0 89.438-68.941 154.191-162.113 154.191-77.792-.001-127.164-43.791-127.164-111.339zm193.783-29.813c0-27.946-16.309-44.719-43.326-44.719-31.68 0-54.963 31.211-54.963 61.023 0 27.951 16.299 45.188 44.255 45.188 30.741 0 54.034-31.21 54.034-61.492zM2618.297 189.842h89.438l-3.724 20.497c25.615-16.304 57.294-25.155 90.367-25.155l-15.371 85.709c-44.255 0-86.178 23.293-91.305 51.708l-21.891 123.445h-93.163l45.649-256.204zM3219.66 269.032c0 6.525-.464 13.044-1.857 20.033l-27.491 156.982h-93.163l25.16-144.871c.929-5.591.929-6.989.929-10.249 0-17.238-9.78-26.089-27.017-26.089-19.569 0-34.94 14.442-38.664 32.608l-26.089 148.6h-93.163l25.15-144.871c.938-5.591.938-6.989.938-10.249 0-17.238-9.789-26.089-27.017-26.089-19.569 0-34.939 14.442-38.199 32.608l-26.089 148.6h-93.163l44.719-256.204h89.903l-2.331 19.1c20.498-16.769 44.719-23.757 67.083-23.757 29.349 0 51.703 10.713 65.681 29.348 23.293-20.962 52.632-29.348 79.649-29.348 58.699.001 95.031 34.007 95.031 83.848z"/></g></svg>