<svg id="Layer_1" xmlns="http://www.w3.org/2000/svg" viewBox="0 0 448.19 334.733"><style>.st0{opacity:.1}.st1{fill:#5a4b9f}.st2{opacity:.3}.st3{fill:#fff}.st4{font-family:&apos;ArialMT&apos;}.st5{font-size:15px}.st6{fill:#db3e58}</style><g class="st0"><path class="st1" d="M428.19 57.713H20L0 0h448.19zM408.19 126.968H40L20 69.255h408.19zM388.19 196.223H60L40 138.51h368.19zM368.19 265.478H80l-20-57.713h328.19zM348.19 334.733H100L80 277.02h288.19z"/></g><g class="st2"><path class="st1" d="M415.266 57.713H32.924L14.19 0H434zM396.533 126.968H51.657L32.924 69.255h382.342zM377.799 196.223H70.391L51.657 138.51h344.876zM359.066 265.478H89.124l-18.733-57.713h307.408zM340.332 334.733H107.858L89.124 277.02h269.942z"/></g><path class="st1" d="M401.605 57.713H46.585L29.19 0H419zM384.21 126.968H63.98L46.585 69.255h355.02zM366.815 196.223H81.375L63.98 138.51h320.23zM349.421 265.478H98.769l-17.394-57.713h285.44zM332.026 334.733H116.164L98.769 277.02h250.652z"/><text transform="translate(140.72 32.857)" class="st3 st4 st5">Initial Resume Screening</text><text transform="translate(106.944 102.112)" class="st3 st4 st5">Soft skills and experience scanning</text><text transform="translate(150.31 171.367)" class="st3 st4 st5">Technical Assessment</text><text transform="translate(142.38 240.623)" class="st3 st4 st5">Interview and Evaluation</text><text transform="translate(206.173 309.877)" class="st3 st4 st5">Hired</text><circle class="st6" cx="67.946" cy="28.856" r="14.428"/><path class="st3" d="M69.148 34.856H67.68v-9.351c-.353.337-.816.674-1.39 1.011a9.812 9.812 0 0 1-1.545.758v-1.418a8.852 8.852 0 0 0 2.152-1.402c.614-.549 1.049-1.081 1.304-1.598h.946v12z"/><circle class="st6" cx="85.375" cy="98.111" r="14.428"/><path class="st3" d="M89.325 102.701v1.41h-7.899a2.594 2.594 0 0 1 .171-1.019c.201-.538.523-1.068.966-1.59.443-.522 1.083-1.125 1.92-1.81 1.299-1.065 2.177-1.909 2.633-2.531.457-.622.685-1.211.685-1.765 0-.582-.208-1.072-.624-1.471-.416-.399-.958-.599-1.626-.599-.706 0-1.272.212-1.696.636-.424.424-.639 1.011-.644 1.761l-1.508-.155c.103-1.125.492-1.982 1.166-2.572.674-.59 1.579-.885 2.715-.885 1.147 0 2.054.318 2.723.954s1.003 1.424 1.003 2.364c0 .478-.098.949-.293 1.41-.196.462-.521.949-.974 1.459s-1.208 1.212-2.262 2.103c-.88.739-1.446 1.24-1.696 1.504s-.457.529-.62.795h5.86z"/><circle class="st6" cx="103.213" cy="167.367" r="14.428"/><path class="st3" d="M99.368 170.058l1.442-.192c.165.817.447 1.406.845 1.766.398.36.882.541 1.454.541.678 0 1.251-.235 1.718-.705.467-.47.701-1.052.701-1.746 0-.662-.216-1.208-.649-1.638-.433-.43-.983-.645-1.65-.645-.272 0-.612.053-1.017.16l.16-1.266c.096.011.173.016.232.016.614 0 1.167-.16 1.658-.481.491-.32.737-.814.737-1.482 0-.529-.179-.966-.537-1.314-.358-.347-.82-.521-1.386-.521-.561 0-1.028.176-1.402.529-.374.352-.614.881-.721 1.586l-1.442-.256c.176-.966.577-1.715 1.202-2.247s1.402-.797 2.331-.797c.641 0 1.231.137 1.77.413.54.275.952.65 1.238 1.126.286.475.429.98.429 1.514 0 .507-.136.969-.409 1.386-.272.417-.676.748-1.21.993.694.16 1.234.493 1.618.997.385.505.577 1.136.577 1.895 0 1.025-.374 1.895-1.121 2.607s-1.693 1.069-2.836 1.069c-1.031 0-1.887-.307-2.567-.921-.681-.614-1.069-1.41-1.165-2.387z"/><g><circle class="st6" cx="120.733" cy="236.622" r="14.428"/><path class="st3" d="M121.766 242.493v-2.812h-5.095v-1.322l5.359-7.61h1.178v7.61h1.586v1.322h-1.586v2.812h-1.442zm0-4.133v-5.295l-3.677 5.295h3.677z"/></g><g><circle class="st6" cx="138.931" cy="305.877" r="14.428"/><path class="st3" d="M135.037 308.492l1.514-.128c.112.737.372 1.291.781 1.662.409.371.901.557 1.478.557.694 0 1.282-.262 1.762-.785.481-.523.721-1.218.721-2.083 0-.822-.231-1.471-.693-1.947s-1.067-.713-1.814-.713a2.514 2.514 0 0 0-2.139 1.137l-1.354-.176 1.138-6.032h5.84v1.378h-4.686l-.633 3.156c.705-.491 1.445-.737 2.219-.737 1.025 0 1.891.355 2.595 1.065.705.71 1.057 1.623 1.057 2.74 0 1.063-.31 1.981-.929 2.756-.753.95-1.781 1.426-3.084 1.426-1.068 0-1.94-.299-2.615-.897-.676-.598-1.062-1.391-1.158-2.379z"/></g></svg>