<?xml version="1.0" encoding="utf-8"?>
<!-- Generator: Adobe Illustrator 24.0.2, SVG Export Plug-In . SVG Version: 6.00 Build 0)  -->
<svg version="1.1" id="Layer_1" xmlns="http://www.w3.org/2000/svg" xmlns:xlink="http://www.w3.org/1999/xlink" x="0px" y="0px"
	 viewBox="0 0 448.19 334.733" style="enable-background:new 0 0 448.19 334.733;" xml:space="preserve">
<style type="text/css">
	.st0{fill:none;stroke:#D8D8D8;stroke-miterlimit:10;}
	.st1{fill:#D8D8D8;}
	.st2{fill:#FFFFFF;}
	.st3{fill:#5A4B9F;}
	.st4{fill:#BDBDBD;}
	.st5{fill:#B71C1C;}
	.st6{fill:#DD2C00;}
	.st7{fill:#EEEEEE;}
	.st8{fill:#FFD600;}
	.st9{fill:#000001;}
	.st10{fill:#80DEEA;}
	.st11{fill-rule:evenodd;clip-rule:evenodd;fill:#00549D;}
	.st12{fill-rule:evenodd;clip-rule:evenodd;fill:#0086D4;}
	.st13{fill-rule:evenodd;clip-rule:evenodd;fill:#FFFFFF;}
	.st14{fill-rule:evenodd;clip-rule:evenodd;fill:#0075C0;}
	.st15{fill:#F44336;}
	.st16{fill:#1565C0;}
	.st17{fill:#0277BD;}
	.st18{fill:#FFC107;}
</style>
<g id="BACKGROUND">
</g>
<circle class="st0" cx="224.095" cy="167.367" r="127.761"/>
<circle class="st1" cx="224.095" cy="167.367" r="81"/>
<g>
	
		<image style="overflow:visible;opacity:0.25;enable-background:new    ;" width="138" height="137" xlink:href="56BDDAF08752FE94.png"  transform="matrix(1 0 0 1 155 98.733)">
	</image>
	<g>
		<circle class="st2" cx="224.095" cy="167.367" r="53.319"/>
	</g>
</g>
<g>
	
		<image style="overflow:visible;opacity:0.25;enable-background:new    ;" width="104" height="105" xlink:href="56BDDAF08752FE95.png"  transform="matrix(1 0 0 1 273 33.733)">
	</image>
	<g>
		<circle class="st2" cx="325.095" cy="86.367" r="36.905"/>
	</g>
</g>
<g>
	
		<image style="overflow:visible;opacity:0.25;enable-background:new    ;" width="105" height="106" xlink:href="56BDDAF08752FE93.png"  transform="matrix(0.9905 0 0 0.9905 210.3557 158.8304)">
	</image>
	<g>
		<circle class="st2" cx="262.453" cy="211.462" r="36.905"/>
	</g>
</g>
<g>
	
		<image style="overflow:visible;opacity:0.25;enable-background:new    ;" width="95" height="95" xlink:href="56BDDAF08752FE9C.png"  transform="matrix(1 0 0 1 59 66.733)">
	</image>
	<g>
		<circle class="st2" cx="106.19" cy="114.048" r="32.175"/>
	</g>
</g>
<g>
	
		<image style="overflow:visible;opacity:0.25;enable-background:new    ;" width="77" height="77" xlink:href="56BDDAF08752FE9F.png"  transform="matrix(1 0 0 1 137 248.733)">
	</image>
	<g>
		<circle class="st2" cx="175.27" cy="287.048" r="23.083"/>
	</g>
</g>
<g>
	
		<image style="overflow:visible;opacity:0.25;enable-background:new    ;" width="69" height="69" xlink:href="56BDDAF08752FE9D.png"  transform="matrix(0.9928 0 0 0.9928 184.2491 70.8825)">
	</image>
	<g>
		<circle class="st2" cx="218.467" cy="105.006" r="18.639"/>
	</g>
</g>
<g>
	
		<image style="overflow:visible;opacity:0.25;enable-background:new    ;" width="70" height="68" xlink:href="56BDDAF08752FE92.png"  transform="matrix(0.9927 0 0 0.9927 309.0236 163.982)">
	</image>
	<g>
		<circle class="st2" cx="343.734" cy="197.605" r="18.639"/>
	</g>
</g>
<circle class="st3" cx="224.095" cy="167.367" r="38.358"/>
<path class="st2" d="M212.307,160.255c2.926,0,5.429-1.04,7.509-3.12s3.12-4.583,3.12-7.509v-7.085h14.171v7.085
	c0,6.874-2.415,12.726-7.244,17.555l-0.211,0.159l0.211,0.211c4.83,4.83,7.244,10.681,7.244,17.555v7.085h-14.172v-7.085
	c0-2.961-1.04-5.464-3.12-7.509c-2.08-2.08-4.583-3.12-7.509-3.12h-12.479v-14.223h12.48V160.255z"/>
<g>
	<path class="st4" d="M325.031,65.411l-19.939,6.939l3.151,25.835l16.809,9.137l16.896-9.26l3.15-25.835L325.031,65.411z"/>
	<path class="st5" d="M343.02,73.533l-17.925-6.089v37.682l15.08-8.266L343.02,73.533z"/>
	<path class="st6" d="M325.039,67.425l-17.869,6.219l2.845,23.336l15.034,8.171l0.047-0.025V67.444L325.039,67.425z"/>
	<path class="st4" d="M325.095,69.217v9.057l8.171,17.618h4.2L325.095,69.217z"/>
	<path class="st7" d="M312.724,95.892h4.2l8.171-17.618v-9.057L312.724,95.892z"/>
	<path class="st4" d="M325.095,86.367h5.715v3.81h-5.715V86.367z"/>
	<path class="st7" d="M319.38,86.367h5.715v3.81h-5.715V86.367z"/>
</g>
<g>
	<path class="st8" d="M209.28,114.193V95.819h18.375v18.375L209.28,114.193L209.28,114.193z"/>
	<path class="st9" d="M221.294,109.572c0.353,0.574,0.737,1.123,1.55,1.123c0.683,0,1.041-0.339,1.041-0.809
		c0-0.562-0.371-0.762-1.122-1.089l-0.412-0.176c-1.189-0.504-1.979-1.136-1.979-2.471c0-1.23,0.942-2.166,2.413-2.166
		c1.048,0,1.801,0.363,2.344,1.313l-1.283,0.82c-0.282-0.504-0.587-0.703-1.061-0.703c-0.483,0-0.789,0.305-0.789,0.703
		c0,0.492,0.306,0.691,1.013,0.996l0.412,0.176c1.401,0.597,2.191,1.206,2.191,2.576c0,1.476-1.166,2.285-2.731,2.285
		c-1.531,0-2.4-0.768-2.884-1.719L221.294,109.572z M215.38,109.614c0.258,0.462,0.651,0.818,1.215,0.818
		c0.54,0,0.851-0.213,0.851-1.043v-5.405h1.701v5.666c0,1.719-0.997,2.5-2.452,2.5c-1.315,0-2.265-0.891-2.652-1.719L215.38,109.614
		z"/>
</g>
<g>
	<path class="st10" d="M106.19,122.537c-10.791,0-19.239-3.68-19.239-8.365s8.448-8.365,19.239-8.365s19.239,3.68,19.239,8.365
		S116.981,122.537,106.19,122.537z M106.19,107.48c-10.54,0-17.566,3.43-17.566,6.692s7.026,6.692,17.566,6.692
		s17.566-3.43,17.566-6.692S116.73,107.48,106.19,107.48z"/>
	<path class="st10" d="M98.745,131.403c-0.836,0-1.506-0.167-2.175-0.586c-4.099-2.342-3.011-11.46,2.342-20.828l0,0
		c2.509-4.35,5.604-8.03,8.616-10.372c3.262-2.509,6.19-3.262,8.197-2.091c2.091,1.171,2.844,4.099,2.342,8.197
		c-0.502,3.848-2.175,8.365-4.684,12.714c-2.509,4.35-5.604,8.03-8.616,10.372C102.593,130.483,100.502,131.403,98.745,131.403z
		 M113.635,98.613c-1.338,0-3.095,0.753-5.019,2.258c-2.844,2.258-5.772,5.772-8.197,9.954l0,0c-5.27,9.118-5.772,16.98-3.011,18.57
		c1.422,0.836,3.764,0.084,6.357-1.924c2.844-2.258,5.772-5.772,8.197-9.954s4.015-8.448,4.517-12.045
		c0.418-3.346-0.084-5.688-1.506-6.524C114.555,98.781,114.136,98.613,113.635,98.613z"/>
	<path class="st10" d="M113.718,131.403c-4.182,0-10.205-5.102-14.722-13.049c-5.437-9.368-6.524-18.486-2.426-20.828l0,0
		c4.099-2.342,11.46,3.095,16.897,12.463c2.509,4.35,4.182,8.867,4.684,12.714c0.586,4.099-0.251,6.943-2.342,8.197
		C115.14,131.236,114.471,131.403,113.718,131.403z M97.407,98.948c-2.76,1.589-2.258,9.452,3.011,18.57
		s11.794,13.467,14.555,11.878c1.422-0.836,1.924-3.179,1.506-6.524c-0.502-3.597-2.091-7.863-4.517-12.045
		C106.692,101.708,100.167,97.359,97.407,98.948L97.407,98.948z"/>
	<circle class="st10" cx="106.19" cy="114.172" r="3.346"/>
</g>
<g>
	<path class="st11" d="M174.482,272.166c0.488-0.274,1.088-0.274,1.576,0c2.41,1.353,9.664,5.425,12.075,6.778
		c0.488,0.273,0.788,0.779,0.788,1.326c0,2.706,0,10.849,0,13.555c0,0.547-0.3,1.053-0.788,1.327
		c-2.41,1.353-9.664,5.425-12.075,6.778c-0.488,0.274-1.088,0.274-1.576,0c-2.41-1.353-9.664-5.425-12.075-6.778
		c-0.487-0.274-0.787-0.779-0.787-1.326c0-2.706,0-10.85,0-13.555c0-0.547,0.3-1.053,0.788-1.327
		C164.817,277.591,172.072,273.519,174.482,272.166z"/>
	<path class="st12" d="M161.838,294.523c-0.191-0.256-0.218-0.499-0.218-0.826c0-2.69,0-10.787,0-13.478
		c0-0.545,0.3-1.048,0.786-1.319c2.402-1.345,9.631-5.393,12.033-6.739c0.486-0.272,1.145-0.267,1.632,0.006
		c2.402,1.345,9.607,5.359,12.008,6.704c0.194,0.109,0.342,0.241,0.474,0.414L161.838,294.523z"/>
	<path class="st13" d="M175.27,276.99c5.552,0,10.058,4.507,10.058,10.058s-4.507,10.058-10.058,10.058
		c-5.552,0-10.058-4.507-10.058-10.058S169.718,276.99,175.27,276.99z M175.27,282.019c2.775,0,5.029,2.253,5.029,5.029
		c0,2.775-2.254,5.029-5.029,5.029c-2.775,0-5.029-2.254-5.029-5.029C170.241,284.272,172.494,282.019,175.27,282.019z"/>
	<path class="st14" d="M188.551,279.292c0.371,0.347,0.364,0.87,0.364,1.282c0,2.727-0.023,10.482,0.006,13.208
		c0.003,0.284-0.091,0.584-0.232,0.81l-13.711-7.544L188.551,279.292z"/>
	<path class="st13" d="M180.299,284.893h1.437v4.311h-1.437V284.893z M185.328,284.893h1.437v4.311h-1.437V284.893z"/>
	<path class="st13" d="M178.862,286.33h4.311v1.437h-4.311V286.33z M183.892,286.33h4.311v1.437h-4.311V286.33z"/>
</g>
<g>
	<path class="st15" d="M343.527,198.139c-0.592-0.954-1.021-1.746-1.616-3.236c-1.006-2.517,6.119-4.791,3.23-9.161
		c1.252,3.019-4.495,4.885-5.029,7.399C339.623,195.452,343.524,198.139,343.527,198.139z"/>
	<path class="st15" d="M343.662,193.614c-0.114,1.493,1.322,2.288,1.364,3.378c0.033,0.887-0.858,1.627-0.858,1.627
		s1.618-0.318,2.123-1.672c0.561-1.503-1.088-2.532-0.918-3.736c0.158-1.15,3.578-3.288,3.578-3.288
		S343.919,190.257,343.662,193.614z"/>
	<g>
		<path class="st16" d="M348.53,198.232c1.04-0.234,1.918,0.429,1.918,1.192c0,1.721-2.385,3.347-2.385,3.347
			s3.693-0.44,3.693-3.266C351.755,197.637,349.942,197.17,348.53,198.232z M346.777,199.62c0,0,1.151-0.82,1.458-1.128
			c-2.825,0.6-9.277,0.68-9.277,0.16c0-0.48,2.08-0.972,2.08-0.972s-4.611-0.066-4.611,1.294
			C336.428,200.391,342.464,200.492,346.777,199.62z"/>
		<path class="st16" d="M346.069,200.911c-2.675,0.889-7.601,0.605-6.142-0.589c-0.711,0-1.764,0.571-1.764,1.121
			c0,1.102,5.328,1.952,9.272,0.339L346.069,200.911z"/>
		<path class="st16" d="M340.582,202.79c-0.97,0-1.599,0.625-1.599,1.081c0,1.418,5.79,1.561,8.084,0.122l-1.458-0.968
			C343.895,203.778,339.59,203.881,340.582,202.79z"/>
		<path class="st16" d="M351.02,205.099c0-0.555-0.626-0.817-0.85-0.942c1.322,3.187-13.239,2.94-13.239,1.058
			c0-0.428,1.072-0.846,2.063-0.648l-0.842-0.498c-1.974-0.31-3.315,0.558-3.315,1.258
			C334.836,208.592,351.02,208.435,351.02,205.099z"/>
		<path class="st16" d="M352.632,206.269c-2.459,2.429-8.696,3.314-14.967,1.813C343.937,210.754,352.603,209.249,352.632,206.269z"
			/>
	</g>
</g>
<g>
	<path class="st17" d="M262.995,190.203c-1.74,0.006-2.946,0.159-4.404,0.411c-4.305,0.75-5.09,2.324-5.09,5.225v4.434h10.07v2.238
		h-10.452h-4.867c-2.949,0-5.53,1.39-6.348,4.72c-0.924,3.823-0.966,6.217,0,10.21c0.733,2.977,2.347,5.209,5.298,5.209h4.064
		v-5.711c0-3.319,3.005-6.597,6.449-6.597h8.096c2.823,0,5.594-2.083,5.594-4.897v-9.606c0-2.729-1.968-4.77-4.719-5.227
		C266.753,190.605,264.72,190.197,262.995,190.203z M257.418,194.679c0.919,0,1.678,0.757,1.678,1.681
		c0,0.932-0.76,1.676-1.678,1.676c-0.936,0-1.678-0.743-1.678-1.676C255.74,195.44,256.482,194.679,257.418,194.679z"/>
	<path class="st18" d="M261.91,232.72c1.74-0.006,2.946-0.159,4.404-0.411c4.305-0.75,5.09-2.324,5.09-5.225v-4.434h-10.07v-2.238
		h10.453h4.867c2.949,0,5.53-1.39,6.348-4.72c0.924-3.823,0.966-6.217,0-10.21c-0.734-2.977-2.348-5.209-5.299-5.209h-4.064v5.711
		c0,3.319-3.005,6.597-6.449,6.597h-8.096c-2.823,0-5.594,2.083-5.594,4.897v9.606c0,2.729,1.968,4.77,4.719,5.227
		C258.152,232.318,260.185,232.726,261.91,232.72z M267.488,228.244c-0.919,0-1.678-0.757-1.678-1.681
		c0-0.932,0.76-1.676,1.678-1.676c0.936,0,1.678,0.743,1.678,1.676C269.166,227.483,268.423,228.244,267.488,228.244z"/>
</g>
</svg>
