<svg id="Layer_1" xmlns="http://www.w3.org/2000/svg" xmlns:xlink="http://www.w3.org/1999/xlink" viewBox="0 0 448.19 334.733"><style>.st0{fill:none;stroke:#fff;stroke-miterlimit:10}.st1{fill:#fff}.st2{fill:#5a4b9f}.st3{fill:#bdbdbd}.st4{fill:#b71c1c}.st5{fill:#dd2c00}.st6{fill:#eee}.st7{fill:#ffd600}.st8{fill:#000001}.st9{fill:#80deea}.st10,.st11,.st12,.st13{fill-rule:evenodd;clip-rule:evenodd;fill:#00549d}.st11,.st12,.st13{fill:#0086d4}.st12,.st13{fill:#fff}.st13{fill:#0075c0}.st14{fill:#f44336}.st15{fill:#1565c0}.st16{fill:#0277bd}.st17{fill:#ffc107}</style><circle class="st0" cx="224.095" cy="167.367" r="127.761"/><circle class="st1" cx="224.095" cy="167.367" r="81"/><image width="138" height="137" xlink:href="56BDDAF08752FE94.png" transform="translate(155 98.733)" overflow="visible" opacity=".25"/><circle class="st1" cx="224.095" cy="167.367" r="53.319"/><image width="104" height="105" xlink:href="56BDDAF08752FE95.png" transform="translate(273 33.733)" overflow="visible" opacity=".25"/><circle class="st1" cx="325.095" cy="86.367" r="36.905"/><image width="105" height="106" xlink:href="56BDDAF08752FE93.png" transform="translate(210.356 158.83) scale(.9905)" overflow="visible" opacity=".25"/><circle class="st1" cx="262.453" cy="211.462" r="36.905"/><image width="95" height="95" xlink:href="56BDDAF08752FE9C.png" transform="translate(59 66.733)" overflow="visible" opacity=".25"/><circle class="st1" cx="106.19" cy="114.048" r="32.175"/><image width="77" height="77" xlink:href="56BDDAF08752FE9F.png" transform="translate(137 248.733)" overflow="visible" opacity=".25"/><circle class="st1" cx="175.27" cy="287.048" r="23.083"/><image width="69" height="69" xlink:href="56BDDAF08752FE9D.png" transform="translate(184.25 70.882) scale(.9928)" overflow="visible" opacity=".25"/><circle class="st1" cx="218.467" cy="105.006" r="18.639"/><image width="70" height="68" xlink:href="56BDDAF08752FE92.png" transform="translate(309.024 163.982) scale(.9927)" overflow="visible" opacity=".25"/><circle class="st1" cx="343.734" cy="197.605" r="18.639"/><circle class="st2" cx="224.095" cy="167.367" r="38.358"/><path class="st1" d="M212.307 160.255c2.926 0 5.429-1.04 7.509-3.12s3.12-4.583 3.12-7.509v-7.085h14.171v7.085c0 6.874-2.415 12.726-7.244 17.555l-.211.159.211.211c4.83 4.83 7.244 10.681 7.244 17.555v7.085h-14.172v-7.085c0-2.961-1.04-5.464-3.12-7.509-2.08-2.08-4.583-3.12-7.509-3.12h-12.479v-14.223h12.48v.001z"/><g><path class="st3" d="M325.031 65.411l-19.939 6.939 3.151 25.835 16.809 9.137 16.896-9.26 3.15-25.835-20.067-6.816z"/><path class="st4" d="M343.02 73.533l-17.925-6.089v37.682l15.08-8.266 2.845-23.327z"/><path class="st5" d="M325.039 67.425l-17.869 6.219 2.845 23.336 15.034 8.171.047-.025V67.444l-.057-.019z"/><path class="st3" d="M325.095 69.217v9.057l8.171 17.618h4.2l-12.371-26.675z"/><path class="st6" d="M312.724 95.892h4.2l8.171-17.618v-9.057l-12.371 26.675z"/><path class="st3" d="M325.095 86.367h5.715v3.81h-5.715v-3.81z"/><path class="st6" d="M319.38 86.367h5.715v3.81h-5.715v-3.81z"/></g><g><path class="st7" d="M209.28 114.193V95.819h18.375v18.375l-18.375-.001z"/><path class="st8" d="M221.294 109.572c.353.574.737 1.123 1.55 1.123.683 0 1.041-.339 1.041-.809 0-.562-.371-.762-1.122-1.089l-.412-.176c-1.189-.504-1.979-1.136-1.979-2.471 0-1.23.942-2.166 2.413-2.166 1.048 0 1.801.363 2.344 1.313l-1.283.82c-.282-.504-.587-.703-1.061-.703-.483 0-.789.305-.789.703 0 .492.306.691 1.013.996l.412.176c1.401.597 2.191 1.206 2.191 2.576 0 1.476-1.166 2.285-2.731 2.285-1.531 0-2.4-.768-2.884-1.719l1.297-.859zm-5.914.042c.258.462.651.818 1.215.818.54 0 .851-.213.851-1.043v-5.405h1.701v5.666c0 1.719-.997 2.5-2.452 2.5-1.315 0-2.265-.891-2.652-1.719l1.337-.817z"/></g><g><path class="st9" d="M106.19 122.537c-10.791 0-19.239-3.68-19.239-8.365s8.448-8.365 19.239-8.365 19.239 3.68 19.239 8.365-8.448 8.365-19.239 8.365zm0-15.057c-10.54 0-17.566 3.43-17.566 6.692s7.026 6.692 17.566 6.692 17.566-3.43 17.566-6.692-7.026-6.692-17.566-6.692z"/><path class="st9" d="M98.745 131.403c-.836 0-1.506-.167-2.175-.586-4.099-2.342-3.011-11.46 2.342-20.828 2.509-4.35 5.604-8.03 8.616-10.372 3.262-2.509 6.19-3.262 8.197-2.091 2.091 1.171 2.844 4.099 2.342 8.197-.502 3.848-2.175 8.365-4.684 12.714-2.509 4.35-5.604 8.03-8.616 10.372-2.174 1.674-4.265 2.594-6.022 2.594zm14.89-32.79c-1.338 0-3.095.753-5.019 2.258-2.844 2.258-5.772 5.772-8.197 9.954-5.27 9.118-5.772 16.98-3.011 18.57 1.422.836 3.764.084 6.357-1.924 2.844-2.258 5.772-5.772 8.197-9.954s4.015-8.448 4.517-12.045c.418-3.346-.084-5.688-1.506-6.524-.418-.167-.837-.335-1.338-.335z"/><path class="st9" d="M113.718 131.403c-4.182 0-10.205-5.102-14.722-13.049-5.437-9.368-6.524-18.486-2.426-20.828 4.099-2.342 11.46 3.095 16.897 12.463 2.509 4.35 4.182 8.867 4.684 12.714.586 4.099-.251 6.943-2.342 8.197a4.517 4.517 0 0 1-2.091.503zM97.407 98.948c-2.76 1.589-2.258 9.452 3.011 18.57s11.794 13.467 14.555 11.878c1.422-.836 1.924-3.179 1.506-6.524-.502-3.597-2.091-7.863-4.517-12.045-5.27-9.119-11.795-13.468-14.555-11.879z"/><circle class="st9" cx="106.19" cy="114.172" r="3.346"/></g><g><path class="st10" d="M174.482 272.166a1.614 1.614 0 0 1 1.576 0l12.075 6.778c.488.273.788.779.788 1.326v13.555c0 .547-.3 1.053-.788 1.327l-12.075 6.778a1.614 1.614 0 0 1-1.576 0l-12.075-6.778a1.525 1.525 0 0 1-.787-1.326v-13.555c0-.547.3-1.053.788-1.327l12.074-6.778z"/><path class="st11" d="M161.838 294.523c-.191-.256-.218-.499-.218-.826v-13.478c0-.545.3-1.048.786-1.319l12.033-6.739a1.731 1.731 0 0 1 1.632.006c2.402 1.345 9.607 5.359 12.008 6.704a1.5 1.5 0 0 1 .474.414l-26.715 15.238z"/><path class="st12" d="M175.27 276.99c5.552 0 10.058 4.507 10.058 10.058s-4.507 10.058-10.058 10.058c-5.552 0-10.058-4.507-10.058-10.058s4.506-10.058 10.058-10.058zm0 5.029a5.031 5.031 0 0 1 5.029 5.029 5.032 5.032 0 0 1-5.029 5.029 5.032 5.032 0 0 1-5.029-5.029 5.03 5.03 0 0 1 5.029-5.029z"/><path class="st13" d="M188.551 279.292c.371.347.364.87.364 1.282 0 2.727-.023 10.482.006 13.208.003.284-.091.584-.232.81l-13.711-7.544 13.573-7.756z"/><path class="st12" d="M180.299 284.893h1.437v4.311h-1.437v-4.311zm5.029 0h1.437v4.311h-1.437v-4.311z"/><path class="st12" d="M178.862 286.33h4.311v1.437h-4.311v-1.437zm5.03 0h4.311v1.437h-4.311v-1.437z"/></g><g><path class="st14" d="M343.527 198.139c-.592-.954-1.021-1.746-1.616-3.236-1.006-2.517 6.119-4.791 3.23-9.161 1.252 3.019-4.495 4.885-5.029 7.399-.489 2.311 3.412 4.998 3.415 4.998z"/><path class="st14" d="M343.662 193.614c-.114 1.493 1.322 2.288 1.364 3.378.033.887-.858 1.627-.858 1.627s1.618-.318 2.123-1.672c.561-1.503-1.088-2.532-.918-3.736.158-1.15 3.578-3.288 3.578-3.288s-5.032.334-5.289 3.691z"/><path class="st15" d="M348.53 198.232c1.04-.234 1.918.429 1.918 1.192 0 1.721-2.385 3.347-2.385 3.347s3.693-.44 3.693-3.266c-.001-1.868-1.814-2.335-3.226-1.273zm-1.753 1.388s1.151-.82 1.458-1.128c-2.825.6-9.277.68-9.277.16 0-.48 2.08-.972 2.08-.972s-4.611-.066-4.611 1.294c.001 1.417 6.037 1.518 10.35.646z"/><path class="st15" d="M346.069 200.911c-2.675.889-7.601.605-6.142-.589-.711 0-1.764.571-1.764 1.121 0 1.102 5.328 1.952 9.272.339l-1.366-.871z"/><path class="st15" d="M340.582 202.79c-.97 0-1.599.625-1.599 1.081 0 1.418 5.79 1.561 8.084.122l-1.458-.968c-1.714.753-6.019.856-5.027-.235z"/><path class="st15" d="M351.02 205.099c0-.555-.626-.817-.85-.942 1.322 3.187-13.239 2.94-13.239 1.058 0-.428 1.072-.846 2.063-.648l-.842-.498c-1.974-.31-3.315.558-3.315 1.258-.001 3.265 16.183 3.108 16.183-.228z"/><path class="st15" d="M352.632 206.269c-2.459 2.429-8.696 3.314-14.967 1.813 6.272 2.672 14.938 1.167 14.967-1.813z"/></g><g><path class="st16" d="M262.995 190.203c-1.74.006-2.946.159-4.404.411-4.305.75-5.09 2.324-5.09 5.225v4.434h10.07v2.238H248.252c-2.949 0-5.53 1.39-6.348 4.72-.924 3.823-.966 6.217 0 10.21.733 2.977 2.347 5.209 5.298 5.209h4.064v-5.711c0-3.319 3.005-6.597 6.449-6.597h8.096c2.823 0 5.594-2.083 5.594-4.897v-9.606c0-2.729-1.968-4.77-4.719-5.227.067-.007-1.966-.415-3.691-.409zm-5.577 4.476c.919 0 1.678.757 1.678 1.681 0 .932-.76 1.676-1.678 1.676a1.666 1.666 0 0 1-1.678-1.676c0-.92.742-1.681 1.678-1.681z"/><path class="st17" d="M261.91 232.72c1.74-.006 2.946-.159 4.404-.411 4.305-.75 5.09-2.324 5.09-5.225v-4.434h-10.07v-2.238h15.32c2.949 0 5.53-1.39 6.348-4.72.924-3.823.966-6.217 0-10.21-.734-2.977-2.348-5.209-5.299-5.209h-4.064v5.711c0 3.319-3.005 6.597-6.449 6.597h-8.096c-2.823 0-5.594 2.083-5.594 4.897v9.606c0 2.729 1.968 4.77 4.719 5.227-.067.007 1.966.415 3.691.409zm5.578-4.476a1.687 1.687 0 0 1-1.678-1.681c0-.932.76-1.676 1.678-1.676.936 0 1.678.743 1.678 1.676a1.68 1.68 0 0 1-1.678 1.681z"/></g></svg>