<?xml version="1.0" encoding="utf-8"?>
<!-- Generator: Adobe Illustrator 24.0.2, SVG Export Plug-In . SVG Version: 6.00 Build 0)  -->
<svg version="1.1" id="Layer_1" xmlns="http://www.w3.org/2000/svg" xmlns:xlink="http://www.w3.org/1999/xlink" x="0px" y="0px" width="96" height="96"
	 viewBox="0 0 48 48" style="enable-background:new 0 0 48 48;" xml:space="preserve">
<style type="text/css">
	.st0{clip-path:url(#SVGID_2_);}
	.st1{fill:#FFFFFF;}
	.st2{fill:none;stroke:#FFFFFF;stroke-width:6;stroke-miterlimit:10;}
	.st3{fill:#29ABE2;}
	.st4{fill:none;stroke:#FFFFFF;stroke-width:2;stroke-miterlimit:10;}
	.st5{fill:#FF931E;}
</style>
<g>
	<defs>
		<rect id="SVGID_1_" width="48" height="48"/>
	</defs>
	<clipPath id="SVGID_2_">
		<use xlink:href="#SVGID_1_"  style="overflow:visible;"/>
	</clipPath>
	<g class="st0">
		<path class="st1" d="M35.142,9.621c-7.101,0-12.858,5.757-12.858,12.858c0,7.101,5.757,12.858,12.858,12.858S48,29.579,48,22.478
			C48,15.377,42.243,9.621,35.142,9.621z M36.173,23.499c0,0.427-0.066,0.831-0.2,1.21c-0.133,0.38-0.342,0.711-0.626,0.996
			c-0.284,0.285-0.583,0.484-0.895,0.599c-0.434,0.161-0.956,0.242-1.564,0.242c-0.352,0-0.736-0.025-1.152-0.074
			s-0.764-0.147-1.043-0.293c-0.28-0.146-0.535-0.354-0.767-0.624c-0.232-0.269-0.391-0.547-0.476-0.833
			c-0.138-0.46-0.207-0.867-0.207-1.222v-4.308h2.229v4.411c0,0.394,0.109,0.702,0.328,0.925c0.219,0.222,0.522,0.333,0.91,0.333
			c0.385,0,0.686-0.109,0.905-0.328c0.219-0.219,0.328-0.529,0.328-0.929v-4.411h2.229V23.499z M39.982,26.422h-2.24v-7.231h2.24
			V26.422z"/>
		<path class="st2" d="M35.142,9.621c-7.101,0-12.858,5.757-12.858,12.858c0,7.101,5.757,12.858,12.858,12.858S48,29.579,48,22.478
			C48,15.377,42.243,9.621,35.142,9.621z M36.173,23.499c0,0.427-0.066,0.831-0.2,1.21c-0.133,0.38-0.342,0.711-0.626,0.996
			c-0.284,0.285-0.583,0.484-0.895,0.599c-0.434,0.161-0.956,0.242-1.564,0.242c-0.352,0-0.736-0.025-1.152-0.074
			s-0.764-0.147-1.043-0.293c-0.28-0.146-0.535-0.354-0.767-0.624c-0.232-0.269-0.391-0.547-0.476-0.833
			c-0.138-0.46-0.207-0.867-0.207-1.222v-4.308h2.229v4.411c0,0.394,0.109,0.702,0.328,0.925c0.219,0.222,0.522,0.333,0.91,0.333
			c0.385,0,0.686-0.109,0.905-0.328c0.219-0.219,0.328-0.529,0.328-0.929v-4.411h2.229V23.499z M39.982,26.422h-2.24v-7.231h2.24
			V26.422z"/>
		<path class="st3" d="M35.142,9.621c-7.101,0-12.858,5.757-12.858,12.858c0,7.101,5.757,12.858,12.858,12.858S48,29.579,48,22.478
			C48,15.377,42.243,9.621,35.142,9.621z M36.173,23.499c0,0.427-0.066,0.831-0.2,1.21c-0.133,0.38-0.342,0.711-0.626,0.996
			c-0.284,0.285-0.583,0.484-0.895,0.599c-0.434,0.161-0.956,0.242-1.564,0.242c-0.352,0-0.736-0.025-1.152-0.074
			s-0.764-0.147-1.043-0.293c-0.28-0.146-0.535-0.354-0.767-0.624c-0.232-0.269-0.391-0.547-0.476-0.833
			c-0.138-0.46-0.207-0.867-0.207-1.222v-4.308h2.229v4.411c0,0.394,0.109,0.702,0.328,0.925c0.219,0.222,0.522,0.333,0.91,0.333
			c0.385,0,0.686-0.109,0.905-0.328c0.219-0.219,0.328-0.529,0.328-0.929v-4.411h2.229V23.499z M39.982,26.422h-2.24v-7.231h2.24
			V26.422z"/>
	</g>
	<g class="st0">
		<path class="st1" d="M12.858,9.621C5.757,9.621,0,15.377,0,22.478c0,7.101,5.757,12.858,12.858,12.858s12.858-5.757,12.858-12.858
			C25.715,15.377,19.959,9.621,12.858,9.621z M12.856,23.499c0,0.427-0.066,0.831-0.2,1.21c-0.133,0.38-0.342,0.711-0.626,0.996
			c-0.284,0.285-0.583,0.484-0.895,0.599c-0.434,0.161-0.955,0.242-1.564,0.242c-0.352,0-0.736-0.025-1.152-0.074
			s-0.764-0.147-1.043-0.293c-0.28-0.146-0.535-0.354-0.767-0.624c-0.232-0.269-0.39-0.547-0.476-0.833
			c-0.138-0.46-0.207-0.867-0.207-1.222v-4.308h2.229v4.411c0,0.394,0.109,0.702,0.328,0.925c0.219,0.222,0.522,0.333,0.91,0.333
			c0.385,0,0.686-0.109,0.905-0.328c0.219-0.219,0.328-0.529,0.328-0.929v-4.411h2.229V23.499z M18.968,26.422l-1.428-2.323
			l-1.428,2.323h-2.496l2.494-3.769l-2.267-3.463h2.462l1.28,2.225l1.245-2.225h2.437l-2.251,3.502l2.463,3.729H18.968z"/>
		<path class="st4" d="M12.858,9.621C5.757,9.621,0,15.377,0,22.478c0,7.101,5.757,12.858,12.858,12.858s12.858-5.757,12.858-12.858
			C25.715,15.377,19.959,9.621,12.858,9.621z M12.856,23.499c0,0.427-0.066,0.831-0.2,1.21c-0.133,0.38-0.342,0.711-0.626,0.996
			c-0.284,0.285-0.583,0.484-0.895,0.599c-0.434,0.161-0.955,0.242-1.564,0.242c-0.352,0-0.736-0.025-1.152-0.074
			s-0.764-0.147-1.043-0.293c-0.28-0.146-0.535-0.354-0.767-0.624c-0.232-0.269-0.39-0.547-0.476-0.833
			c-0.138-0.46-0.207-0.867-0.207-1.222v-4.308h2.229v4.411c0,0.394,0.109,0.702,0.328,0.925c0.219,0.222,0.522,0.333,0.91,0.333
			c0.385,0,0.686-0.109,0.905-0.328c0.219-0.219,0.328-0.529,0.328-0.929v-4.411h2.229V23.499z M18.968,26.422l-1.428-2.323
			l-1.428,2.323h-2.496l2.494-3.769l-2.267-3.463h2.462l1.28,2.225l1.245-2.225h2.437l-2.251,3.502l2.463,3.729H18.968z"/>
		<path class="st5" d="M12.858,9.621C5.757,9.621,0,15.377,0,22.478c0,7.101,5.757,12.858,12.858,12.858s12.858-5.757,12.858-12.858
			C25.715,15.377,19.959,9.621,12.858,9.621z M12.856,23.499c0,0.427-0.066,0.831-0.2,1.21c-0.133,0.38-0.342,0.711-0.626,0.996
			c-0.284,0.285-0.583,0.484-0.895,0.599c-0.434,0.161-0.955,0.242-1.564,0.242c-0.352,0-0.736-0.025-1.152-0.074
			s-0.764-0.147-1.043-0.293c-0.28-0.146-0.535-0.354-0.767-0.624c-0.232-0.269-0.39-0.547-0.476-0.833
			c-0.138-0.46-0.207-0.867-0.207-1.222v-4.308h2.229v4.411c0,0.394,0.109,0.702,0.328,0.925c0.219,0.222,0.522,0.333,0.91,0.333
			c0.385,0,0.686-0.109,0.905-0.328c0.219-0.219,0.328-0.529,0.328-0.929v-4.411h2.229V23.499z M18.968,26.422l-1.428-2.323
			l-1.428,2.323h-2.496l2.494-3.769l-2.267-3.463h2.462l1.28,2.225l1.245-2.225h2.437l-2.251,3.502l2.463,3.729H18.968z"/>
	</g>
</g>
</svg>
